<svg xmlns="http://www.w3.org/2000/svg" width="356" height="230.177" viewBox="0 0 356 230.177">
  <g id="Grupo_4470" data-name="Grupo 4470" transform="translate(-471.756 -1818.479)">
    <path id="Trazado_11956" data-name="Trazado 11956" d="M599.352,304.514c-8.831-5.736-21.831-3.979-30.751,2.883-9.653,7.426-7.22,12.917-18.863,11.976-3.185-.258-6.593-1.923-7.809-5.264-1.641-4.508,1.331-9.295,3.789-13.3,7.473-12.173,6.892-24.958,5.187-39.654S535.06,237.11,523.33,230.514s-27.1-4.859-36.6,5.344c-6.49,6.968-9.785,16.808-14.449,25.446s-12.018,16.852-20.963,16.649c-10.815-.245-26.249-12.357-28.259-24.383s-.38-24.556-2.471-36.565c-3.952-22.7-21.139-38.336-41.59-38.231s-41.423,16.977-42.362,40.092c-.511,12.585,6.907,37.047.691,47.5-5.618,9.445-18.4,14.829-27.248,10-23.754-12.958-37.508-.482-42.086,15.161-5.12,17.5-5.326,32.379-.574,50.2s15.213,31.94,26.947,44.985c17.869,19.864,52.525,17.156,56.319,17.08,71.568-1.442,107-4.339,178.536-1.564,28.852,1.119,52.88-22.188,70.129-50.781Z" transform="translate(228.404 1641.582)" fill="#80cbc4" opacity="0.1"/>
    <g id="Grupo_3129" data-name="Grupo 3129" transform="translate(501.392 1940.821)">
      <g id="Grupo_3128" data-name="Grupo 3128" transform="translate(0 0)">
        <g id="Grupo_3127" data-name="Grupo 3127">
          <path id="Trazado_11957" data-name="Trazado 11957" d="M286.736,336.091a1.71,1.71,0,1,1-1.71,1.709A1.71,1.71,0,0,1,286.736,336.091Z" transform="translate(-276.816 -327.881)" fill="#80cbc4"/>
          <path id="Trazado_11958" data-name="Trazado 11958" d="M294.424,334.279l-2.39-.448a7.335,7.335,0,0,0-.571-1.383l1.382-2.022a.513.513,0,0,0-.058-.627l-1.705-1.706a.514.514,0,0,0-.628-.058l-2.023,1.383a7.391,7.391,0,0,0-1.425-.582l-.446-2.378a.515.515,0,0,0-.486-.4h-2.411a.515.515,0,0,0-.486.4l-.451,2.4a7.434,7.434,0,0,0-1.368.571l-2-1.365a.515.515,0,0,0-.629.058l-1.705,1.705a.515.515,0,0,0-.058.629l1.374,2.009a7.416,7.416,0,0,0-.563,1.366l-2.388.448a.515.515,0,0,0-.4.486v2.411a.517.517,0,0,0,.4.487l2.387.447a7.377,7.377,0,0,0,.575,1.395L277,341.491a.515.515,0,0,0,.059.629l1.705,1.706a.515.515,0,0,0,.627.058l1.986-1.359a7.476,7.476,0,0,0,1.354.564l.45,2.4a.516.516,0,0,0,.487.4h2.411a.516.516,0,0,0,.487-.4l.445-2.376a7.5,7.5,0,0,0,1.411-.575l2.01,1.375a.516.516,0,0,0,.63-.058l1.705-1.705a.513.513,0,0,0,.058-.627l-1.368-2a7.4,7.4,0,0,0,.584-1.412l2.385-.447a.517.517,0,0,0,.4-.487v-2.411A.512.512,0,0,0,294.424,334.279Zm-8.706,5.755a4.141,4.141,0,1,1,3.251-3.248A4.144,4.144,0,0,1,285.718,340.034Z" transform="translate(-274.989 -326.054)" fill="#80cbc4"/>
        </g>
      </g>
    </g>
    <g id="Grupo_3132" data-name="Grupo 3132" transform="translate(530.833 1985.043)">
      <g id="Grupo_3131" data-name="Grupo 3131" transform="translate(0 0)">
        <g id="Grupo_3130" data-name="Grupo 3130">
          <path id="Trazado_11959" data-name="Trazado 11959" d="M321.348,388.7a1.354,1.354,0,1,1-1.8-.642A1.353,1.353,0,0,1,321.348,388.7Z" transform="translate(-312.401 -381.542)" fill="#80cbc4"/>
          <path id="Trazado_11960" data-name="Trazado 11960" d="M323.151,394.093l-.492-1.862a5.722,5.722,0,0,0,.8-.878l1.916.3a.407.407,0,0,0,.429-.255l.641-1.8a.408.408,0,0,0-.172-.469l-1.676-.977a5.856,5.856,0,0,0-.068-1.217l1.549-1.126a.407.407,0,0,0,.124-.484l-.819-1.725a.408.408,0,0,0-.454-.21l-1.87.493a5.813,5.813,0,0,0-.873-.784l.3-1.892a.408.408,0,0,0-.255-.43l-1.8-.64a.409.409,0,0,0-.47.172l-.969,1.665a5.848,5.848,0,0,0-1.169.062l-1.131-1.557a.41.41,0,0,0-.485-.124l-1.724.819a.409.409,0,0,0-.211.455l.491,1.859a5.851,5.851,0,0,0-.8.884l-1.882-.3a.409.409,0,0,0-.43.255l-.64,1.8a.407.407,0,0,0,.172.469l1.646.959a5.877,5.877,0,0,0,.056,1.16l-1.564,1.137a.409.409,0,0,0-.124.485l.82,1.725a.408.408,0,0,0,.454.21l1.851-.488a5.849,5.849,0,0,0,.89.814l-.3,1.9a.408.408,0,0,0,.256.431l1.8.64a.408.408,0,0,0,.469-.171l.965-1.658a5.873,5.873,0,0,0,1.207-.062l1.13,1.555a.409.409,0,0,0,.486.124l1.724-.819A.405.405,0,0,0,323.151,394.093Zm-7.073-4.272a3.279,3.279,0,1,1,3.427,1.222A3.282,3.282,0,0,1,316.078,389.821Z" transform="translate(-310.983 -380.119)" fill="#80cbc4"/>
        </g>
      </g>
    </g>
    <g id="Grupo_3135" data-name="Grupo 3135" transform="translate(780.393 1978.732)">
      <g id="Grupo_3134" data-name="Grupo 3134">
        <g id="Grupo_3133" data-name="Grupo 3133">
          <path id="Trazado_11961" data-name="Trazado 11961" d="M630.607,384.273a1.895,1.895,0,1,1-2.672-.2A1.894,1.894,0,0,1,630.607,384.273Z" transform="translate(-618.13 -374.445)" fill="#80cbc4"/>
          <path id="Trazado_11962" data-name="Trazado 11962" d="M635.432,390.239l-1.35-2.332a8.18,8.18,0,0,0,.749-1.479l2.7-.3a.571.571,0,0,0,.486-.5l.2-2.666a.57.57,0,0,0-.4-.57l-2.623-.7a8.145,8.145,0,0,0-.54-1.619l1.676-2.091a.57.57,0,0,0-.012-.7l-1.741-2.026a.57.57,0,0,0-.69-.117l-2.343,1.355a8.16,8.16,0,0,0-1.467-.737l-.294-2.664a.572.572,0,0,0-.5-.487l-2.664-.2a.571.571,0,0,0-.571.406l-.7,2.605a8.229,8.229,0,0,0-1.555.514l-2.1-1.684a.572.572,0,0,0-.7.012L618.959,376a.572.572,0,0,0-.117.691l1.348,2.329a8.21,8.21,0,0,0-.757,1.49l-2.651.294a.57.57,0,0,0-.486.5l-.2,2.666a.57.57,0,0,0,.4.569l2.576.687a8.249,8.249,0,0,0,.5,1.544l-1.692,2.112a.574.574,0,0,0,.012.7l1.742,2.026a.571.571,0,0,0,.69.117l2.319-1.342a8.267,8.267,0,0,0,1.5.771l.3,2.682a.572.572,0,0,0,.5.487l2.664.2a.569.569,0,0,0,.569-.4l.692-2.594a8.243,8.243,0,0,0,1.608-.529l2.1,1.682a.572.572,0,0,0,.7-.012l2.026-1.741A.567.567,0,0,0,635.432,390.239Zm-11.126-3.159a4.588,4.588,0,1,1,5.079.386A4.592,4.592,0,0,1,624.306,387.08Z" transform="translate(-616.094 -372.404)" fill="#80cbc4"/>
        </g>
      </g>
    </g>
    <g id="Grupo_3138" data-name="Grupo 3138" transform="translate(664.485 1859.987)">
      <g id="Grupo_3137" data-name="Grupo 3137" transform="translate(0 0)">
        <g id="Grupo_3136" data-name="Grupo 3136">
          <path id="Trazado_11963" data-name="Trazado 11963" d="M501.325,249.187a3.619,3.619,0,1,1-5.015,1.022A3.619,3.619,0,0,1,501.325,249.187Z" transform="translate(-478.268 -231.116)" fill="#80cbc4"/>
          <path id="Trazado_11964" data-name="Trazado 11964" d="M514.224,256.435l-3.7-3.581a15.51,15.51,0,0,0,.606-3.109l4.8-1.955a1.089,1.089,0,0,0,.63-1.176l-1.019-5a1.089,1.089,0,0,0-1.04-.837l-5.186.081a15.685,15.685,0,0,0-1.836-2.693l1.989-4.717a1.09,1.09,0,0,0-.387-1.279l-4.257-2.815a1.092,1.092,0,0,0-1.329.145l-3.6,3.712a15.644,15.644,0,0,0-3.082-.589l-1.93-4.742a1.091,1.091,0,0,0-1.178-.631l-5,1.02a1.09,1.09,0,0,0-.838,1.042l.081,5.151a15.644,15.644,0,0,0-2.589,1.756l-4.74-2a1.09,1.09,0,0,0-1.281.387l-2.815,4.257a1.092,1.092,0,0,0,.146,1.331l3.691,3.577a15.589,15.589,0,0,0-.613,3.133l-4.719,1.921A1.091,1.091,0,0,0,474.4,250l1.02,5a1.087,1.087,0,0,0,1.04.835l5.093-.081a15.7,15.7,0,0,0,1.731,2.577l-2.008,4.763a1.092,1.092,0,0,0,.387,1.281l4.257,2.815a1.091,1.091,0,0,0,1.33-.145l3.562-3.675a15.817,15.817,0,0,0,3.161.632l1.942,4.774a1.093,1.093,0,0,0,1.181.632l5-1.02a1.088,1.088,0,0,0,.836-1.039l-.081-5.128a15.738,15.738,0,0,0,2.679-1.81l4.733,2a1.093,1.093,0,0,0,1.283-.389l2.814-4.256A1.083,1.083,0,0,0,514.224,256.435Zm-22.091,0a8.765,8.765,0,1,1,9.534-1.939A8.773,8.773,0,0,1,492.133,256.431Z" transform="translate(-474.386 -227.227)" fill="#80cbc4"/>
        </g>
      </g>
    </g>
    <g id="Grupo_3141" data-name="Grupo 3141" transform="translate(507.824 1823.486)">
      <g id="Grupo_3139" data-name="Grupo 3139" transform="translate(240.626 0)" opacity="0.1">
        <path id="Trazado_11965" data-name="Trazado 11965" d="M587.036,201.709a23.256,23.256,0,0,1-6.449-.733c-3.066-.735-3.8-2.679-3.475-3.649a5.654,5.654,0,0,1,2.877-3.056,14.2,14.2,0,0,1,7.7-.34,7.211,7.211,0,0,1-4.018-2.153,2.451,2.451,0,0,1,.108-3.229c2.794-2.071,5.421-1.083,9.289.479a8.119,8.119,0,0,1-2.95-1.916,2.558,2.558,0,0,1-.935-2.189c.209-1.154,2.792-2.134,4.207-2.258a18.556,18.556,0,0,1,8.421,1.364c2.883,1.03,5.319,3.178,5.661,5.74.146-1.658,2.3-2.921,4.309-2.724a4.716,4.716,0,0,1,4.091,3.256,5.127,5.127,0,0,1-1.453,4.686c1.855-.481,3.324-1.215,5.21-.822s4.027,1.84,3.39,4.266a5.2,5.2,0,0,1-4.56,3.233,63.279,63.279,0,0,1-12.249.485Z" transform="translate(-577.041 -182.6)" fill="#80cbc4"/>
      </g>
      <g id="Grupo_3140" data-name="Grupo 3140" transform="translate(0 22.706)" opacity="0.1">
        <path id="Trazado_11966" data-name="Trazado 11966" d="M292,231.7a17.61,17.61,0,0,1-5.9-.819c-2.806-.822-3.48-2.991-3.181-4.075.312-1.135,1.529-3.006,2.633-3.412,2.557-.942,3.951-.993,7.046-.38a6.377,6.377,0,0,1-3.678-2.4,3.2,3.2,0,0,1,.1-3.606c2.558-2.313,4.963-1.21,8.5.534a7.56,7.56,0,0,1-2.7-2.141,3.179,3.179,0,0,1-.856-2.445c.192-1.288,2.555-2.383,3.851-2.521a14.27,14.27,0,0,1,7.709,1.524,8.388,8.388,0,0,1,5.182,6.411,3.583,3.583,0,0,1,3.945-3.042,4.618,4.618,0,0,1,3.744,3.637,6.569,6.569,0,0,1-1.331,5.233c1.7-.538,3.044-1.358,4.77-.919a3.974,3.974,0,0,1,3.1,4.765,5.055,5.055,0,0,1-4.175,3.61,47.6,47.6,0,0,1-11.213.542Z" transform="translate(-282.852 -210.36)" fill="#80cbc4"/>
      </g>
    </g>
    <g id="Grupo_3144" data-name="Grupo 3144" transform="translate(508.568 1818.479)">
      <g id="Grupo_3143" data-name="Grupo 3143" transform="translate(275.157 73.411)">
        <g id="Grupo_3142" data-name="Grupo 3142">
          <path id="Trazado_11967" data-name="Trazado 11967" d="M640.138,271.642c-.7.626-1.7.352-1.7-.868v-2.932a1.618,1.618,0,0,0-1.61-1.611h-2.056a3.434,3.434,0,0,1,.359,1.509,3.285,3.285,0,0,1-3.346,3.252h-.125a3.286,3.286,0,0,1-3.347-3.252,3.371,3.371,0,0,1,.36-1.509h-2.181a1.58,1.58,0,0,0-1.579,1.579v2.963c0,1.22-1.017,1.485-1.72.868a1.828,1.828,0,1,0-.008,2.783c.7-.626,1.728-.352,1.728.868v2.9a1.58,1.58,0,0,0,1.579,1.579h2.94c1.22,0,1.485,1.024.868,1.727a1.836,1.836,0,1,0,2.783,0c-.626-.7-.352-1.736.868-1.736h2.924a1.58,1.58,0,0,0,1.579-1.579v-2.9c0-1.22.993-1.485,1.7-.868a1.823,1.823,0,1,0-.008-2.775Z" transform="translate(-620.168 -266.231)" fill="#80cbc4"/>
        </g>
      </g>
      <path id="Trazado_11968" data-name="Trazado 11968" d="M560.229,180.662l1.051-1.052-1.052-1.052a1.218,1.218,0,0,1,1.723-1.723L563,177.888l1.051-1.053a1.218,1.218,0,0,1,1.723,1.723l-1.052,1.052,1.051,1.052a1.218,1.218,0,1,1-1.723,1.723L563,181.333l-1.052,1.052a1.218,1.218,0,1,1-1.723-1.723Z" transform="translate(-334.033 -176.478)" fill="#80cbc4"/>
      <path id="Trazado_11969" data-name="Trazado 11969" d="M303.8,272.45l1.052-1.051-1.053-1.052a1.218,1.218,0,1,1,1.723-1.723l1.053,1.052,1.052-1.052a1.218,1.218,0,0,1,1.723,1.723L308.3,271.4l1.052,1.051a1.218,1.218,0,1,1-1.723,1.723l-1.051-1.051-1.052,1.051a1.218,1.218,0,1,1-1.723-1.723Z" transform="translate(-287.346 -193.19)" fill="#80cbc4"/>
      <path id="Trazado_11970" data-name="Trazado 11970" d="M657.208,376.06l1.051-1.052-1.052-1.051a1.218,1.218,0,0,1,1.723-1.723l1.053,1.053,1.051-1.053a1.218,1.218,0,0,1,1.723,1.723l-1.052,1.051,1.051,1.052a1.218,1.218,0,1,1-1.723,1.723l-1.05-1.052-1.052,1.052a1.218,1.218,0,0,1-1.723-1.723Z" transform="translate(-351.69 -212.054)" fill="#80cbc4"/>
      <path id="Trazado_11971" data-name="Trazado 11971" d="M284.12,375.679l1.052-1.051-1.053-1.052a1.218,1.218,0,0,1,1.723-1.723l1.053,1.053,1.052-1.053a1.218,1.218,0,0,1,1.723,1.723l-1.053,1.052,1.052,1.051a1.218,1.218,0,1,1-1.723,1.723l-1.051-1.052-1.052,1.052a1.218,1.218,0,0,1-1.723-1.723Z" transform="translate(-283.763 -211.985)" fill="#80cbc4"/>
    </g>
    <g id="Grupo_3148" data-name="Grupo 3148" transform="translate(471.756 1908.846)">
      <g id="Grupo_3147" data-name="Grupo 3147">
        <g id="Grupo_3146" data-name="Grupo 3146" transform="translate(66.24)">
          <g id="Grupo_3145" data-name="Grupo 3145" transform="translate(6.25 3.844)">
            <path id="Trazado_11972" data-name="Trazado 11972" d="M346.132,330.371a53.717,53.717,0,0,1-13.262-17.953,51.617,51.617,0,0,1-3.367-9.787,50.3,50.3,0,0,1-1-5.779c-.186-1.642,0-3.484-.5-5.052-.072-.222-.361-.155-.415.036-.44,1.57-.039,3.483.151,5.084a51.558,51.558,0,0,0,.927,5.352,52.7,52.7,0,0,0,9.4,20.138,49.418,49.418,0,0,0,8.039,8,.026.026,0,0,0,.034-.039Z" transform="translate(-327.381 -291.662)" fill="#8d6e63"/>
          </g>
          <path id="Trazado_11973" data-name="Trazado 11973" d="M341.947,332.54a4.957,4.957,0,0,1-2.168-.025,22.974,22.974,0,0,0-5.582-1.808,1.927,1.927,0,0,0-1.3.131.848.848,0,0,0-.155.932,1.692,1.692,0,0,0,.639.686c2.563,1.774,5.48.853,8.659.39Z" transform="translate(-322.095 -294.918)" fill="#8d6e63"/>
          <path id="Trazado_11974" data-name="Trazado 11974" d="M337.582,326.67a9.425,9.425,0,0,1-2.329.23c-1.926-.527-2.454-1.512-5.446-2.4a2.044,2.044,0,0,0-1.435.044A1.1,1.1,0,0,0,328,325.6a1.627,1.627,0,0,0,.542.836c2.392,2.237,7.472,1.4,9.106.652Z" transform="translate(-321.24 -293.776)" fill="#8d6e63"/>
          <path id="Trazado_11975" data-name="Trazado 11975" d="M334.422,321.083a2.446,2.446,0,0,1-2.091-.392c-2.591-1.992-2.471-2.279-5.591-3.9a2.309,2.309,0,0,0-1.539-.283,1.022,1.022,0,0,0-.491,1.023,2.03,2.03,0,0,0,.508,1c2.363,2.9,6.316,3.118,9.378,2.926Z" transform="translate(-320.644 -292.331)" fill="#8d6e63"/>
          <path id="Trazado_11976" data-name="Trazado 11976" d="M331.213,314.474c.3-.042-1.7-.778-2.707-1.777-3.01-2.634-2.465-3.361-5.389-5.462-.322-.231-1.11-.646-1.506-.515a1.007,1.007,0,0,0-.618.956,2.122,2.122,0,0,0,.384,1.087c2.007,3.276,6.073,4.6,9.836,5.711Z" transform="translate(-319.968 -290.555)" fill="#8d6e63"/>
          <path id="Trazado_11977" data-name="Trazado 11977" d="M328.512,305.983c.272-.051-1.419-.229-2.264-1.157-2.257-1.7-2.043-3.039-4.552-4.963-.276-.213-.962-.584-1.329-.444a1.114,1.114,0,0,0-.624.945,1.966,1.966,0,0,0,.276,1.036c1.6,3.089,6.856,5.164,8.493,4.583Z" transform="translate(-319.74 -289.224)" fill="#8d6e63"/>
          <path id="Trazado_11978" data-name="Trazado 11978" d="M327.138,299.364c.262-.038-.748-.591-1.345-1.389a18.652,18.652,0,0,0-3.653-4.385,1.537,1.537,0,0,0-1.139-.4,1.256,1.256,0,0,0-.763.783,1.392,1.392,0,0,0,.049.877c.865,2.633,3.958,3.662,6.851,4.514Z" transform="translate(-319.821 -288.092)" fill="#8d6e63"/>
          <path id="Trazado_11979" data-name="Trazado 11979" d="M327.34,293.958c.22.065-.69-.567-.99-1.491-1-1.947-.366-2.79-1.471-4.778-.122-.219-.483-.673-.808-.719a.943.943,0,0,0-.824.332,1.088,1.088,0,0,0-.2.7c-.014,2.352,2.194,4.259,4.291,5.959Z" transform="translate(-320.343 -286.962)" fill="#8d6e63"/>
          <path id="Trazado_11980" data-name="Trazado 11980" d="M345.463,332.617c-.212.117.823-.727.935-1.736a18.078,18.078,0,0,1,.842-5.119c.083-.276.366-.869.689-.984a.911.911,0,0,1,.9.224,1.365,1.365,0,0,1,.334.765c.46,2.7-1.654,4.682-3.471,7.041Z" transform="translate(-324.418 -293.839)" fill="#8d6e63"/>
          <path id="Trazado_11981" data-name="Trazado 11981" d="M341.219,327.318a9.181,9.181,0,0,0,1.454-1.759c.6-1.822.059-2.747.932-5.611.1-.317.429-1,.815-1.135a1.133,1.133,0,0,1,1.089.235,1.5,1.5,0,0,1,.409.864c.584,3.066-2.873,6.731-4.383,7.668Z" transform="translate(-323.644 -292.751)" fill="#8d6e63"/>
          <path id="Trazado_11982" data-name="Trazado 11982" d="M337.4,321.9a2.236,2.236,0,0,0,1.067-1.641c.182-2.868-.113-2.945.694-5.968.089-.334.406-1.053.789-1.2a1.1,1.1,0,0,1,1.094.233,1.634,1.634,0,0,1,.429.9c.655,3.217-1.759,6.028-3.9,8.007Z" transform="translate(-322.949 -291.708)" fill="#8d6e63"/>
          <path id="Trazado_11983" data-name="Trazado 11983" d="M333.557,314.811c-.277.092,1.062-1.285,1.416-2.45,1.239-3.218.4-3.538,1.838-6.322.159-.307.622-.942,1.029-1.008a1.1,1.1,0,0,1,1.018.463,1.631,1.631,0,0,1,.226.975c-.051,3.286-2.863,5.959-5.527,8.341Z" transform="translate(-322.249 -290.25)" fill="#8d6e63"/>
          <path id="Trazado_11984" data-name="Trazado 11984" d="M330.919,308.025c-.262.072,1.125-.766,1.408-1.843,1.135-2.267.294-3.232,1.539-5.778.137-.281.553-.856.941-.9a1.188,1.188,0,0,1,1,.484,1.617,1.617,0,0,1,.266.928c.117,3.089-3.447,6.887-5.158,7.106Z" transform="translate(-321.769 -289.245)" fill="#8d6e63"/>
          <path id="Trazado_11985" data-name="Trazado 11985" d="M329,300.727c-.256.062.477-.827.735-1.789a18.629,18.629,0,0,1,1.768-5.426c.13-.25.528-.761.91-.793a1.254,1.254,0,0,1,1,.444,1.394,1.394,0,0,1,.28.833c.172,2.765-2.32,4.867-4.692,6.731Z" transform="translate(-321.416 -288.009)" fill="#8d6e63"/>
          <path id="Trazado_11986" data-name="Trazado 11986" d="M328.233,294.736c-.217.094.612-.6.756-1.424.684-1.806-.128-2.395.658-4.254a1.448,1.448,0,0,1,.708-.746,1.155,1.155,0,0,1,.914.129.837.837,0,0,1,.331.547c.442,1.961-1.5,3.951-3.367,5.748Z" transform="translate(-321.28 -287.2)" fill="#8d6e63"/>
        </g>
        <path id="Trazado_11987" data-name="Trazado 11987" d="M340.35,423.153a48.082,48.082,0,0,0-5.074-7.37,4.588,4.588,0,0,0,.387-.836c.163-.531.243-1.4.429-1.928a11.632,11.632,0,0,0,.854-3.789,4.247,4.247,0,0,0-1.509-3.445,1.029,1.029,0,0,0-.65-.253,1.043,1.043,0,0,0-.7.449,5.331,5.331,0,0,0-.977,2.338,11.465,11.465,0,0,0,.822,5.922,54.012,54.012,0,0,0-7.806-6.93,4.238,4.238,0,0,0,.259-.7c.131-.539.161-1.416.316-1.949a11.64,11.64,0,0,0,.634-3.831,4.252,4.252,0,0,0-1.706-3.353,1.03,1.03,0,0,0-.664-.214,1.043,1.043,0,0,0-.668.488,5.327,5.327,0,0,0-.84,2.39,11.993,11.993,0,0,0,1.312,6.213,54.783,54.783,0,0,0-7.057-4.091,4.851,4.851,0,0,0,.417-1.011c.131-.54.161-1.417.316-1.95a11.64,11.64,0,0,0,.634-3.831,4.252,4.252,0,0,0-1.706-3.353,1.031,1.031,0,0,0-.664-.214,1.045,1.045,0,0,0-.668.488,5.337,5.337,0,0,0-.84,2.39c-.308,2.169.536,4.457,1.417,6.46a3.139,3.139,0,0,1,.155.564c-1.38-.653-2.8-1.2-4.218-1.779-1.665-.567-3.32-1.174-5.031-1.593-.519-.143-1.037-.267-1.556-.4.027-.1.053-.193.067-.272.1-.547.07-1.424.19-1.966a11.634,11.634,0,0,0,.386-3.864A4.25,4.25,0,0,0,304.7,388.7a1.028,1.028,0,0,0-.676-.171,1.045,1.045,0,0,0-.636.53,5.322,5.322,0,0,0-.684,2.439,12.059,12.059,0,0,0,1.731,6.161c-2.361-.551-4.712-1.035-7.022-1.642a49.712,49.712,0,0,1-5.5-1.748,4.847,4.847,0,0,0,.689-.837c.284-.477.57-1.306.875-1.77a11.652,11.652,0,0,0,1.732-3.476,4.25,4.25,0,0,0-.645-3.706,1.031,1.031,0,0,0-.572-.4,1.047,1.047,0,0,0-.783.271,5.331,5.331,0,0,0-1.506,2.037c-.932,1.983-.8,4.417-.544,6.591a6.642,6.642,0,0,1-.049.962,22.949,22.949,0,0,1-3.118-1.608,15.086,15.086,0,0,1-3.752-3.237,12.168,12.168,0,0,1-1.3-1.864,4.777,4.777,0,0,0,1.152-.47c.472-.294,1.106-.9,1.589-1.173a11.622,11.622,0,0,0,3.132-2.3,4.25,4.25,0,0,0,1.125-3.59,1.031,1.031,0,0,0-.326-.618,1.044,1.044,0,0,0-.82-.118,5.324,5.324,0,0,0-2.271,1.121c-1.736,1.336-2.733,3.56-3.5,5.609a5.994,5.994,0,0,1-.46.792,9.331,9.331,0,0,1-.721-1.734,21.93,21.93,0,0,1-.97-7.241.769.769,0,0,0,.159.016,4.614,4.614,0,0,0,1.395-.367c.5-.241,1.2-.775,1.707-.995a11.642,11.642,0,0,0,3.362-1.944,4.25,4.25,0,0,0,1.5-3.448,1.029,1.029,0,0,0-.256-.649,1.049,1.049,0,0,0-.8-.206,5.336,5.336,0,0,0-2.38.87c-1.871,1.14-3.1,3.244-4.088,5.2a7.163,7.163,0,0,1-.588.8q.029-1.086.1-2.168c.14-2.257.339-4.527.424-6.808.012,0,.016,0,.03,0a4.614,4.614,0,0,0,1.395-.367c.5-.241,1.2-.775,1.706-.995a11.635,11.635,0,0,0,3.363-1.944,4.253,4.253,0,0,0,1.5-3.448,1.033,1.033,0,0,0-.256-.649,1.047,1.047,0,0,0-.8-.206,5.337,5.337,0,0,0-2.379.87c-1.871,1.14-3.1,3.244-4.088,5.2a4.222,4.222,0,0,1-.434.6c.017-.888.013-1.778-.028-2.671l-.124-1.31-.061-.656-.124-.649c-.086-.433-.159-.869-.256-1.3l-.4-1.269a4.74,4.74,0,0,0-.254-.721,14.192,14.192,0,0,0,1.228-1.13c.392-.393.8-.766,1.212-1.143a11.618,11.618,0,0,0,2.521-2.954,4.247,4.247,0,0,0,.271-3.752,1.024,1.024,0,0,0-.458-.526,1.044,1.044,0,0,0-.824.073,5.33,5.33,0,0,0-1.954,1.613,11.193,11.193,0,0,0-2.235,5.873,6.431,6.431,0,0,1-.249.871c-.1-.222-.2-.442-.321-.654a14.139,14.139,0,0,0-1.539-2.2,16.586,16.586,0,0,0-3.626-3.154c.12-.4.167-1.029.254-1.314.162-.531.353-1.054.538-1.577a11.625,11.625,0,0,0,.852-3.789,4.25,4.25,0,0,0-1.511-3.445,1.029,1.029,0,0,0-.651-.251,1.046,1.046,0,0,0-.7.449,5.328,5.328,0,0,0-.975,2.338,11.891,11.891,0,0,0,.532,6.462c.016.044.036.1.057.151a32.869,32.869,0,0,0-3.594-1.713c-1.125-.458-2.261-.867-3.4-1.264.061-.344.1-.717.164-.919.163-.531.354-1.053.539-1.576a11.635,11.635,0,0,0,.852-3.789,4.251,4.251,0,0,0-1.511-3.444,1.027,1.027,0,0,0-.651-.252,1.044,1.044,0,0,0-.7.449,5.328,5.328,0,0,0-.976,2.338,11.888,11.888,0,0,0,.532,6.462c.016.043.034.092.055.146-1.584-.537-3.162-1.062-4.707-1.64-.928-.354-1.847-.734-2.747-1.147.135-.3.258-.613.362-.779.292-.473.61-.928.923-1.387a11.659,11.659,0,0,0,1.79-3.447,4.252,4.252,0,0,0-.584-3.717,1.029,1.029,0,0,0-.565-.409,1.045,1.045,0,0,0-.787.257,5.337,5.337,0,0,0-1.539,2.013,11.891,11.891,0,0,0-1.132,6.385c.01.092.023.215.039.348a18.587,18.587,0,0,1-4.418-3.128,15.452,15.452,0,0,1-1.894-2.276c.3-.2.678-.609.9-.759.391-.271.8-.519,1.2-.773a9.951,9.951,0,0,0,2.586-2.091,3.641,3.641,0,0,0,.815-3.116.878.878,0,0,0-.3-.514.9.9,0,0,0-.706-.068,4.552,4.552,0,0,0-1.9,1.052,10.178,10.178,0,0,0-3.077,4.622c-.046.143-.115.363-.173.6-.128-.222-.259-.441-.375-.67a20.272,20.272,0,0,1-1.639-4.776c-.042-.187-.064-.378-.1-.566.212-.164.454-.42.6-.52.3-.206.607-.4.913-.588A7.562,7.562,0,0,0,249.4,328a2.767,2.767,0,0,0,.621-2.372.662.662,0,0,0-.231-.392.677.677,0,0,0-.537-.052,3.466,3.466,0,0,0-1.445.8,7.72,7.72,0,0,0-2.179,3.111,76.846,76.846,0,0,1-.67-8.092h-.181c-.1,1.732-.152,3.469-.123,5.212.019,1.172.077,2.351.2,3.525a1.219,1.219,0,0,1-.121-.041c-.33-.148-.652-.314-.976-.476a7.611,7.611,0,0,0-2.382-.859,2.771,2.771,0,0,0-2.351.7.672.672,0,0,0-.216.4.681.681,0,0,0,.234.486,3.48,3.48,0,0,0,1.434.82,7.756,7.756,0,0,0,4.223.18c.077-.018.186-.045.3-.077.029.191.052.384.085.575a21.3,21.3,0,0,0,1.492,5.105c.094.209.2.411.308.618a2.867,2.867,0,0,1-.355-.081c-.451-.15-.895-.325-1.339-.494a9.988,9.988,0,0,0-3.226-.809A3.642,3.642,0,0,0,238.985,337a.885.885,0,0,0-.229.552.894.894,0,0,0,.37.6,4.565,4.565,0,0,0,1.981.884,10.182,10.182,0,0,0,5.544-.32,6.152,6.152,0,0,0,.892-.373,14.79,14.79,0,0,0,2.046,2.668,17.9,17.9,0,0,0,3.305,2.68c-.077-.019-.154-.034-.23-.052a9.969,9.969,0,0,0-3.3-.385,3.641,3.641,0,0,0-2.8,1.6.721.721,0,0,0,.29,1.129,4.556,4.556,0,0,0,2.079.62,10.183,10.183,0,0,0,5.456-1.034,5.85,5.85,0,0,0,.892-.528c1.113.555,2.254,1.045,3.39,1.491,1.073.418,2.152.794,3.232,1.159a9.746,9.746,0,0,0-3.156.752,3.638,3.638,0,0,0-2.087,2.453.883.883,0,0,0,.05.6.9.9,0,0,0,.606.368,4.571,4.571,0,0,0,2.166-.124,10.185,10.185,0,0,0,4.778-2.83c.077-.081.186-.2.3-.328,1.323.435,2.639.871,3.93,1.35a37.175,37.175,0,0,1,3.6,1.526l-.016,0c-.469.074-.943.122-1.416.176a9.951,9.951,0,0,0-3.237.762,3.64,3.64,0,0,0-2.087,2.453.883.883,0,0,0,.05.6.9.9,0,0,0,.606.368,4.575,4.575,0,0,0,2.167-.124,10.186,10.186,0,0,0,4.778-2.83,6.878,6.878,0,0,0,.557-.642,15.575,15.575,0,0,1,3.612,2.823,13.035,13.035,0,0,1,1.539,1.978c.191.3.347.629.514.948-.317-.006-.669.015-.862-.01-.472-.06-.941-.146-1.408-.226a9.969,9.969,0,0,0-3.322-.17,3.641,3.641,0,0,0-2.689,1.776.883.883,0,0,0-.118.586.9.9,0,0,0,.48.522,4.568,4.568,0,0,0,2.114.483,10.178,10.178,0,0,0,5.377-1.386,5.513,5.513,0,0,0,.894-.617,3.558,3.558,0,0,1,.138.349l.424,1.2c.105.411.188.828.284,1.242l.14.623.079.635.149,1.273c.066,1,.072,1.994.047,2.993-.32-.162-.855-.3-1.086-.411-.425-.214-.838-.451-1.253-.683a9.965,9.965,0,0,0-3.075-1.267,3.639,3.639,0,0,0-3.126.778.883.883,0,0,0-.307.513.9.9,0,0,0,.278.652,4.567,4.567,0,0,0,1.833,1.161,10.183,10.183,0,0,0,5.532.484,4.758,4.758,0,0,0,1.176-.344c-.1,2.146-.331,4.3-.5,6.458-.05.656-.094,1.314-.125,1.972-.3-.168-.685-.329-.865-.452-.393-.267-.771-.556-1.152-.84a9.993,9.993,0,0,0-2.883-1.658,3.642,3.642,0,0,0-3.2.362.72.72,0,0,0-.18,1.152,4.557,4.557,0,0,0,1.665,1.391,10.179,10.179,0,0,0,5.42,1.2,5.118,5.118,0,0,0,1.152-.162c-.037.751-.034,1.507-.037,2.262a19.969,19.969,0,0,0,.751,5.243,6.613,6.613,0,0,0,.3.971c-.062-.038-.119-.073-.161-.1-.379-.287-.742-.6-1.107-.9a9.97,9.97,0,0,0-2.794-1.805,3.639,3.639,0,0,0-3.215.2.879.879,0,0,0-.394.448.892.892,0,0,0,.155.692,4.56,4.56,0,0,0,1.591,1.475,10.175,10.175,0,0,0,5.352,1.481,5.146,5.146,0,0,0,1.15-.1c.022.054.046.106.068.16a14.8,14.8,0,0,0,1.431,2.292,15.273,15.273,0,0,0,3.938,3.675c.411.275.832.532,1.257.778a9.212,9.212,0,0,0-3.027.034,3.64,3.64,0,0,0-2.593,1.911.884.884,0,0,0-.088.591.894.894,0,0,0,.506.5,4.562,4.562,0,0,0,2.137.373,10.177,10.177,0,0,0,5.3-1.663c.128-.084.328-.217.526-.37a44.892,44.892,0,0,0,5.739,1.971c2.1.591,4.212,1.08,6.3,1.6-.262.041-.523.086-.785.124a9.953,9.953,0,0,0-3.21.871,3.637,3.637,0,0,0-2,2.523.881.881,0,0,0,.07.593.894.894,0,0,0,.618.347,4.558,4.558,0,0,0,2.161-.2,10.18,10.18,0,0,0,4.679-2.989,6.37,6.37,0,0,0,.576-.728c.551.147,1.1.291,1.648.452,1.647.443,3.248,1.033,4.862,1.583.845.345,1.691.686,2.532,1.04-.159.013-.317.031-.477.044a9.961,9.961,0,0,0-3.259.663,3.638,3.638,0,0,0-2.162,2.388.881.881,0,0,0,.032.6.892.892,0,0,0,.595.386,4.573,4.573,0,0,0,2.169-.058,10.184,10.184,0,0,0,4.862-2.682c.092-.092.229-.226.368-.38l.038.017a58.189,58.189,0,0,1,7.177,3.978c-.44.025-.881.032-1.321.042a9.943,9.943,0,0,0-3.294.461,3.64,3.64,0,0,0-2.3,2.251.884.884,0,0,0,0,.6.9.9,0,0,0,.57.421,4.566,4.566,0,0,0,2.168.075,10.183,10.183,0,0,0,5.018-2.378,7.493,7.493,0,0,0,.563-.536c.092.064.187.123.279.187a51.3,51.3,0,0,1,7.8,6.6c.124.13.24.267.362.4a4.379,4.379,0,0,1-.524.061c-.476,0-.951-.02-1.426-.038a9.971,9.971,0,0,0-3.315.27,3.64,3.64,0,0,0-2.43,2.114.885.885,0,0,0-.04.6.9.9,0,0,0,.545.454,4.572,4.572,0,0,0,2.16.2,10.179,10.179,0,0,0,5.147-2.084,6.07,6.07,0,0,0,.731-.646,48.5,48.5,0,0,1,5.115,6.732,51.347,51.347,0,0,1,2.409,4.549l.552,1.169.454,1.209c.292.811.641,1.6.9,2.432l.173-.051A42.491,42.491,0,0,0,340.35,423.153Z" transform="translate(-238.756 -293.159)" fill="#80cbc4"/>
      </g>
    </g>
    <g id="Grupo_3152" data-name="Grupo 3152" transform="translate(739.94 1956.144)">
      <g id="Grupo_3151" data-name="Grupo 3151" transform="translate(0 0)">
        <g id="Grupo_3150" data-name="Grupo 3150" transform="translate(10.407 0.65)">
          <g id="Grupo_3149" data-name="Grupo 3149" transform="translate(0 3.232)">
            <path id="Trazado_11988" data-name="Trazado 11988" d="M579.378,369.122a44.371,44.371,0,0,0,17.045-7.04,42.683,42.683,0,0,0,6.56-5.486,41.575,41.575,0,0,0,3.176-3.659,21.717,21.717,0,0,1,2.513-3.358c.146-.127.321.043.278.2a11.438,11.438,0,0,1-2.276,3.533,42.756,42.756,0,0,1-2.94,3.39,43.518,43.518,0,0,1-15.247,10.233,40.837,40.837,0,0,1-9.1,2.228.022.022,0,0,1-.007-.043Z" transform="translate(-579.361 -349.534)" fill="#ffe082"/>
          </g>
          <path id="Trazado_11989" data-name="Trazado 11989" d="M586.364,371.9a4.115,4.115,0,0,0,1.545.908,18.981,18.981,0,0,1,4.72,1.1c.252.091.781.371.861.645a.7.7,0,0,1-.288.726,1.4,1.4,0,0,1-.745.213c-2.57.161-4.24-1.736-6.292-3.421Z" transform="translate(-580.6 -350.369)" fill="#ffe082"/>
          <path id="Trazado_11990" data-name="Trazado 11990" d="M591.863,369.639a7.8,7.8,0,0,0,1.549,1.157c1.588.45,2.382-.022,4.877.626.276.072.871.329,1,.645a.909.909,0,0,1-.185.905,1.339,1.339,0,0,1-.741.36c-2.646.561-5.881-2.2-6.719-3.426Z" transform="translate(-581.597 -349.957)" fill="#ffe082"/>
          <path id="Trazado_11991" data-name="Trazado 11991" d="M596.227,367.4a2.019,2.019,0,0,0,1.647.615c2.683-.3,2.72-.557,5.619-.373.32.02,1.025.167,1.209.457a.844.844,0,0,1-.089.933,1.688,1.688,0,0,1-.789.494c-2.91,1.044-5.8-.491-7.883-1.934Z" transform="translate(-582.379 -349.55)" fill="#ffe082"/>
          <path id="Trazado_11992" data-name="Trazado 11992" d="M601,364.172c-.193-.157,1.535.175,2.673-.1,3.254-.578,3.179-1.325,6.144-1.564.327-.026,1.061.016,1.285.278a.832.832,0,0,1,.03.941,1.765,1.765,0,0,1-.737.605c-2.818,1.461-6.261.665-9.4-.159Z" transform="translate(-583.298 -348.663)" fill="#ffe082"/>
          <path id="Trazado_11993" data-name="Trazado 11993" d="M606.876,359.322c-.171-.152,1.1.444,2.1.149,2.322-.239,2.743-1.278,5.339-1.569.286-.032.93,0,1.13.254a.92.92,0,0,1,.038.934,1.622,1.622,0,0,1-.637.616c-2.451,1.5-7.055.727-7.965-.384Z" transform="translate(-584.367 -347.824)" fill="#ffe082"/>
          <path id="Trazado_11994" data-name="Trazado 11994" d="M611,355.217c-.169-.138.781-.1,1.543-.409A15.429,15.429,0,0,1,617,353.265a1.27,1.27,0,0,1,.977.2,1.039,1.039,0,0,1,.206.88,1.15,1.15,0,0,1-.41.6c-1.736,1.494-4.362.9-6.772.269Z" transform="translate(-585.117 -346.978)" fill="#ffe082"/>
          <path id="Trazado_11995" data-name="Trazado 11995" d="M613.5,351.326c-.183-.048.73-.107,1.337-.632,1.539-.95,1.449-1.817,3.08-2.752a1.258,1.258,0,0,1,.878-.164.782.782,0,0,1,.441.586.9.9,0,0,1-.159.578c-.993,1.669-3.37,2.076-5.578,2.383Z" transform="translate(-585.573 -345.976)" fill="#ffe082"/>
          <path id="Trazado_11996" data-name="Trazado 11996" d="M584.634,370.756a3.569,3.569,0,0,1,.08-1.627,14.948,14.948,0,0,0,1.589-3.981,1.417,1.417,0,0,0-.067-.99.755.755,0,0,0-.735-.227,1.126,1.126,0,0,0-.563.4c-1.479,1.715-.829,4.018-.55,6.462Z" transform="translate(-580.206 -348.92)" fill="#ffe082"/>
          <path id="Trazado_11997" data-name="Trazado 11997" d="M589.714,368.736a7.591,7.591,0,0,1-.278-1.866c.353-1.544,1.131-1.969,1.736-4.367a1.635,1.635,0,0,0-.092-1.151.935.935,0,0,0-.869-.3,1.241,1.241,0,0,0-.658.437c-1.722,1.92-.84,5.988-.172,7.3Z" transform="translate(-581.034 -348.397)" fill="#ffe082"/>
          <path id="Trazado_11998" data-name="Trazado 11998" d="M594.763,366.6a1.854,1.854,0,0,1-.054-1.616c1.1-2.107,1.337-2.035,2.057-4.518a1.706,1.706,0,0,0-.044-1.188.907.907,0,0,0-.874-.3,1.346,1.346,0,0,0-.689.456c-1.837,2-1.329,5.016-.658,7.329Z" transform="translate(-582.006 -348.017)" fill="#ffe082"/>
          <path id="Trazado_11999" data-name="Trazado 11999" d="M600.377,363.078c.156.182-.2-1.363.043-2.338.5-2.805,1.227-2.675,1.4-5.257a1.7,1.7,0,0,0-.3-1.152.907.907,0,0,0-.919-.108,1.353,1.353,0,0,0-.575.594c-1.368,2.347-.519,5.438.349,8.26Z" transform="translate(-582.992 -347.142)" fill="#ffe082"/>
          <path id="Trazado_12000" data-name="Trazado 12000" d="M605.2,359.445c.155.164-.469-1.021-.209-1.9.164-2.088,1.171-2.412,1.377-4.745.023-.258-.025-.842-.283-1.036a.982.982,0,0,0-.918-.086,1.339,1.339,0,0,0-.584.542c-1.4,2.135-.5,6.344.616,7.228Z" transform="translate(-583.823 -346.678)" fill="#ffe082"/>
          <path id="Trazado_12001" data-name="Trazado 12001" d="M609.77,355.144c.155.154.016-.788.244-1.579a15.413,15.413,0,0,0,1.065-4.594,1.268,1.268,0,0,0-.305-.95,1.037,1.037,0,0,0-.9-.112,1.152,1.152,0,0,0-.554.47c-1.3,1.884-.436,4.433.446,6.764Z" transform="translate(-584.695 -345.996)" fill="#ffe082"/>
          <path id="Trazado_12002" data-name="Trazado 12002" d="M613.129,351.333c.113.159-.178-.685.073-1.33.287-1.57,1.112-1.64,1.35-3.291a1.2,1.2,0,0,0-.182-.829.958.958,0,0,0-.7-.3.691.691,0,0,0-.468.246c-1.149,1.2-.624,3.436-.071,5.5Z" transform="translate(-585.397 -345.583)" fill="#ffe082"/>
        </g>
        <path id="Trazado_12003" data-name="Trazado 12003" d="M569.694,429.189a39.726,39.726,0,0,1,4.192-6.089,3.819,3.819,0,0,1-.32-.69c-.134-.439-.2-1.161-.353-1.593a9.585,9.585,0,0,1-.706-3.13,3.509,3.509,0,0,1,1.247-2.846.845.845,0,0,1,.537-.209.865.865,0,0,1,.575.371,4.412,4.412,0,0,1,.806,1.932,9.46,9.46,0,0,1-.679,4.893,44.617,44.617,0,0,1,6.45-5.726,3.5,3.5,0,0,1-.214-.577c-.109-.446-.133-1.17-.261-1.61a9.625,9.625,0,0,1-.523-3.166,3.51,3.51,0,0,1,1.409-2.77.694.694,0,0,1,1.1.227,4.4,4.4,0,0,1,.694,1.974,9.9,9.9,0,0,1-1.085,5.133,45.262,45.262,0,0,1,5.831-3.381,3.984,3.984,0,0,1-.344-.836c-.109-.445-.133-1.17-.261-1.611a9.617,9.617,0,0,1-.523-3.165,3.513,3.513,0,0,1,1.409-2.77.851.851,0,0,1,.549-.177.864.864,0,0,1,.552.4,4.407,4.407,0,0,1,.694,1.975,10.233,10.233,0,0,1-1.171,5.337,2.715,2.715,0,0,0-.128.466c1.14-.539,2.318-.994,3.486-1.47,1.376-.469,2.742-.97,4.157-1.316.429-.118.856-.221,1.285-.328-.023-.08-.044-.159-.056-.225-.079-.452-.057-1.176-.157-1.624a9.629,9.629,0,0,1-.319-3.193,3.513,3.513,0,0,1,1.585-2.674.845.845,0,0,1,.559-.141.863.863,0,0,1,.525.438,4.407,4.407,0,0,1,.565,2.015,9.968,9.968,0,0,1-1.43,5.09c1.95-.456,3.893-.855,5.8-1.357a41,41,0,0,0,4.54-1.444,4.01,4.01,0,0,1-.568-.692c-.235-.393-.472-1.079-.723-1.462a9.619,9.619,0,0,1-1.431-2.872,3.511,3.511,0,0,1,.532-3.061.846.846,0,0,1,.472-.33.863.863,0,0,1,.647.223,4.415,4.415,0,0,1,1.244,1.684,10.239,10.239,0,0,1,.45,5.445,5.377,5.377,0,0,0,.04.8,18.868,18.868,0,0,0,2.576-1.328,12.447,12.447,0,0,0,3.1-2.675,10.087,10.087,0,0,0,1.076-1.54,4,4,0,0,1-.953-.389c-.389-.243-.914-.743-1.313-.969a9.614,9.614,0,0,1-2.587-1.9,3.511,3.511,0,0,1-.929-2.966.849.849,0,0,1,.268-.51.866.866,0,0,1,.677-.1,4.4,4.4,0,0,1,1.876.927,10.25,10.25,0,0,1,2.895,4.635,4.9,4.9,0,0,0,.38.654,7.678,7.678,0,0,0,.6-1.432,18.126,18.126,0,0,0,.8-5.983.642.642,0,0,1-.131.014,3.813,3.813,0,0,1-1.153-.3c-.413-.2-.988-.64-1.409-.822a9.6,9.6,0,0,1-2.778-1.606,3.512,3.512,0,0,1-1.244-2.848.855.855,0,0,1,.212-.537.869.869,0,0,1,.663-.17,4.4,4.4,0,0,1,1.966.719,10.238,10.238,0,0,1,3.377,4.295,5.851,5.851,0,0,0,.487.661c-.016-.6-.044-1.2-.084-1.791-.116-1.866-.281-3.74-.35-5.626-.011,0-.014,0-.025,0a3.839,3.839,0,0,1-1.152-.3c-.414-.2-.989-.641-1.41-.822a9.624,9.624,0,0,1-2.778-1.606,3.513,3.513,0,0,1-1.244-2.848.854.854,0,0,1,.212-.537.865.865,0,0,1,.663-.17,4.4,4.4,0,0,1,1.966.719A10.238,10.238,0,0,1,618,382.2a3.41,3.41,0,0,0,.359.5c-.015-.734-.011-1.469.022-2.207l.1-1.083.05-.542.1-.537c.07-.357.131-.717.211-1.073l.328-1.049a3.927,3.927,0,0,1,.21-.6,12.026,12.026,0,0,1-1.015-.932c-.323-.326-.664-.634-1-.945a9.612,9.612,0,0,1-2.082-2.441,3.509,3.509,0,0,1-.223-3.1.849.849,0,0,1,.378-.435.864.864,0,0,1,.681.061,4.4,4.4,0,0,1,1.614,1.333A9.241,9.241,0,0,1,619.589,374a5.3,5.3,0,0,0,.206.72c.083-.183.169-.365.266-.54a11.583,11.583,0,0,1,1.271-1.817,13.649,13.649,0,0,1,3-2.606c-.1-.331-.138-.85-.21-1.086-.134-.439-.292-.87-.445-1.3a9.6,9.6,0,0,1-.7-3.13,3.513,3.513,0,0,1,1.248-2.846.85.85,0,0,1,.537-.208.863.863,0,0,1,.575.371,4.408,4.408,0,0,1,.806,1.932,9.827,9.827,0,0,1-.439,5.339l-.047.125a27.2,27.2,0,0,1,2.969-1.415c.931-.379,1.868-.717,2.806-1.044-.051-.285-.085-.593-.137-.76-.133-.439-.292-.87-.444-1.3a9.606,9.606,0,0,1-.7-3.13,3.511,3.511,0,0,1,1.248-2.846.848.848,0,0,1,.537-.208.86.86,0,0,1,.574.371,4.4,4.4,0,0,1,.807,1.931,9.822,9.822,0,0,1-.44,5.339l-.045.12c1.31-.444,2.612-.878,3.889-1.355.766-.292,1.526-.606,2.27-.947-.111-.246-.214-.505-.3-.644-.241-.39-.5-.766-.762-1.146a9.622,9.622,0,0,1-1.479-2.848,3.513,3.513,0,0,1,.483-3.07.851.851,0,0,1,.467-.338.864.864,0,0,1,.65.213,4.4,4.4,0,0,1,1.271,1.663,9.821,9.821,0,0,1,.935,5.275c-.007.077-.019.178-.032.288a15.33,15.33,0,0,0,3.65-2.584,12.766,12.766,0,0,0,1.565-1.88c-.247-.164-.56-.5-.74-.627-.324-.224-.659-.429-.991-.639a8.231,8.231,0,0,1-2.136-1.727,3.008,3.008,0,0,1-.674-2.575.723.723,0,0,1,.25-.425.738.738,0,0,1,.583-.056,3.761,3.761,0,0,1,1.567.869,8.417,8.417,0,0,1,2.543,3.82c.038.118.095.3.142.495.1-.183.214-.364.31-.554a16.715,16.715,0,0,0,1.354-3.946c.034-.155.053-.312.084-.467-.175-.136-.375-.347-.5-.43-.246-.17-.5-.326-.754-.486a6.256,6.256,0,0,1-1.627-1.315,2.288,2.288,0,0,1-.513-1.961.551.551,0,0,1,.191-.324.561.561,0,0,1,.443-.043,2.872,2.872,0,0,1,1.193.662,6.375,6.375,0,0,1,1.8,2.571,63.308,63.308,0,0,0,.553-6.686h.15c.08,1.431.126,2.866.1,4.306-.016.969-.063,1.943-.167,2.913.034-.011.075-.023.1-.034.273-.122.539-.259.807-.393a6.274,6.274,0,0,1,1.968-.709,2.291,2.291,0,0,1,1.943.577.557.557,0,0,1,.178.331.565.565,0,0,1-.194.4,2.868,2.868,0,0,1-1.184.678,6.4,6.4,0,0,1-3.489.148c-.064-.015-.153-.037-.249-.063-.024.158-.042.317-.07.474a17.617,17.617,0,0,1-1.232,4.219c-.078.173-.17.34-.255.51a2.312,2.312,0,0,0,.294-.067c.372-.124.739-.268,1.106-.408a8.241,8.241,0,0,1,2.665-.668,3.008,3.008,0,0,1,2.463,1.009.729.729,0,0,1,.19.456.739.739,0,0,1-.306.5,3.776,3.776,0,0,1-1.637.73,8.41,8.41,0,0,1-4.58-.264,5.071,5.071,0,0,1-.737-.308,12.147,12.147,0,0,1-1.691,2.2,14.807,14.807,0,0,1-2.73,2.214c.063-.016.126-.029.19-.043a8.211,8.211,0,0,1,2.729-.318,3.008,3.008,0,0,1,2.311,1.319.73.73,0,0,1,.128.476.741.741,0,0,1-.367.456,3.773,3.773,0,0,1-1.718.512,8.407,8.407,0,0,1-4.508-.855,4.8,4.8,0,0,1-.738-.435c-.92.459-1.862.864-2.8,1.232-.887.345-1.778.656-2.67.958a8.052,8.052,0,0,1,2.608.622,3,3,0,0,1,1.724,2.027.723.723,0,0,1-.041.492.74.74,0,0,1-.5.3,3.767,3.767,0,0,1-1.79-.1,8.415,8.415,0,0,1-3.947-2.338c-.064-.067-.155-.164-.249-.271-1.093.359-2.181.719-3.247,1.116a30.88,30.88,0,0,0-2.975,1.26l.012,0c.389.061.78.1,1.17.145a8.237,8.237,0,0,1,2.675.63,3.008,3.008,0,0,1,1.724,2.027.725.725,0,0,1-.041.492.741.741,0,0,1-.5.3,3.767,3.767,0,0,1-1.79-.1,8.41,8.41,0,0,1-3.948-2.338,5.7,5.7,0,0,1-.46-.531,12.89,12.89,0,0,0-2.985,2.333,10.8,10.8,0,0,0-1.271,1.634c-.158.252-.286.52-.424.784.262,0,.553.012.712-.008.39-.05.777-.12,1.164-.186a8.23,8.23,0,0,1,2.744-.141,3.011,3.011,0,0,1,2.221,1.467.726.726,0,0,1,.1.483.738.738,0,0,1-.4.431,3.761,3.761,0,0,1-1.747.4,8.411,8.411,0,0,1-4.443-1.146,4.549,4.549,0,0,1-.739-.51,2.82,2.82,0,0,0-.114.289l-.35.988c-.088.339-.155.684-.235,1.027l-.115.514-.065.524-.123,1.053c-.055.823-.06,1.647-.038,2.473.264-.134.706-.244.9-.34.351-.177.693-.373,1.035-.564a8.234,8.234,0,0,1,2.541-1.046,3.007,3.007,0,0,1,2.583.642.731.731,0,0,1,.254.424.743.743,0,0,1-.231.539,3.786,3.786,0,0,1-1.514.959,8.415,8.415,0,0,1-4.571.4,3.926,3.926,0,0,1-.972-.284c.08,1.773.273,3.551.415,5.335.042.542.078,1.085.1,1.629.245-.139.565-.272.714-.373.325-.221.637-.46.952-.694a8.234,8.234,0,0,1,2.383-1.37,3.006,3.006,0,0,1,2.644.3.73.73,0,0,1,.307.387.741.741,0,0,1-.158.564,3.773,3.773,0,0,1-1.376,1.149,8.418,8.418,0,0,1-4.479.994,4.218,4.218,0,0,1-.952-.134c.031.621.029,1.245.031,1.87a16.481,16.481,0,0,1-.621,4.332,5.383,5.383,0,0,1-.251.8,1.394,1.394,0,0,0,.133-.086c.313-.237.613-.492.916-.743a8.233,8.233,0,0,1,2.308-1.491,3.008,3.008,0,0,1,2.657.163.724.724,0,0,1,.326.371.738.738,0,0,1-.128.572,3.776,3.776,0,0,1-1.314,1.219,8.416,8.416,0,0,1-4.422,1.224,4.271,4.271,0,0,1-.95-.083c-.018.045-.038.088-.056.133a12.292,12.292,0,0,1-1.183,1.893,12.605,12.605,0,0,1-3.254,3.037c-.339.227-.687.439-1.038.642a7.613,7.613,0,0,1,2.5.029,3.006,3.006,0,0,1,2.141,1.579.726.726,0,0,1,.073.488.737.737,0,0,1-.419.41,3.772,3.772,0,0,1-1.765.309,8.411,8.411,0,0,1-4.378-1.374c-.106-.07-.271-.18-.434-.306a37.142,37.142,0,0,1-4.742,1.629c-1.733.488-3.48.892-5.206,1.318.217.034.433.071.649.1a8.238,8.238,0,0,1,2.652.72,3.007,3.007,0,0,1,1.656,2.084.733.733,0,0,1-.057.49.744.744,0,0,1-.511.287,3.776,3.776,0,0,1-1.786-.164,8.411,8.411,0,0,1-3.866-2.469,5.357,5.357,0,0,1-.475-.6c-.456.122-.913.24-1.362.374-1.361.366-2.684.853-4.017,1.308-.7.285-1.4.566-2.091.859.132.011.263.026.393.037a8.232,8.232,0,0,1,2.693.548A3.007,3.007,0,0,1,596,414.993a.731.731,0,0,1-.026.492.739.739,0,0,1-.492.319,3.768,3.768,0,0,1-1.792-.048,8.4,8.4,0,0,1-4.017-2.216c-.077-.075-.189-.186-.3-.313l-.031.014a48.166,48.166,0,0,0-5.93,3.286c.363.02.727.027,1.091.034a8.235,8.235,0,0,1,2.721.381,3.008,3.008,0,0,1,1.9,1.86.732.732,0,0,1,0,.494.742.742,0,0,1-.471.348,3.776,3.776,0,0,1-1.791.062,8.413,8.413,0,0,1-4.146-1.965,6.293,6.293,0,0,1-.465-.442c-.076.052-.155.1-.231.154a42.492,42.492,0,0,0-6.447,5.455c-.1.107-.2.22-.3.329a3.719,3.719,0,0,0,.433.051c.393,0,.786-.016,1.179-.031a8.242,8.242,0,0,1,2.738.222,3.006,3.006,0,0,1,2.008,1.747.728.728,0,0,1,.034.492.742.742,0,0,1-.45.375,3.777,3.777,0,0,1-1.786.165,8.412,8.412,0,0,1-4.252-1.721,5.105,5.105,0,0,1-.6-.535,40.114,40.114,0,0,0-4.226,5.562c-.687,1.237-1.426,2.452-1.991,3.759l-.456.966-.375,1c-.241.67-.53,1.325-.747,2.009l-.144-.042A35.145,35.145,0,0,1,569.694,429.189Z" transform="translate(-566.637 -344.788)" fill="#ffe082"/>
      </g>
    </g>
    <path id="Trazado_12004" data-name="Trazado 12004" d="M398.8,327.739a16.15,16.15,0,0,1-8.318-2.178,2.387,2.387,0,0,1-1.152-1.88c-.432-6.317,3.388-12.912,9.733-16.8s13.953-4.3,19.388-1.053a2.389,2.389,0,0,1,1.152,1.88c.432,6.317-3.388,12.913-9.734,16.8A21.369,21.369,0,0,1,398.8,327.739Zm-4.726-5.674c3.841,1.664,8.911,1.078,13.309-1.615s7.217-6.953,7.475-11.13c-3.844-1.664-8.913-1.079-13.309,1.615S394.328,317.89,394.07,322.065Z" transform="translate(205.592 1618.847)" fill="#006064"/>
    <path id="Trazado_12005" data-name="Trazado 12005" d="M378.854,327.738a21.369,21.369,0,0,1-11.069-3.232c-6.346-3.89-10.166-10.486-9.734-16.8a2.387,2.387,0,0,1,1.153-1.88c5.437-3.253,13.046-2.837,19.387,1.053s10.166,10.487,9.734,16.8a2.39,2.39,0,0,1-1.153,1.88A16.156,16.156,0,0,1,378.854,327.738ZM362.8,309.319c.258,4.176,3.079,8.432,7.476,11.13s9.466,3.28,13.309,1.615c-.258-4.176-3.079-8.434-7.476-11.13S366.636,307.652,362.8,309.319Z" transform="translate(211.286 1618.847)" fill="#006064"/>
    <path id="Trazado_12006" data-name="Trazado 12006" d="M400.03,300.251a2.378,2.378,0,0,1-2.379-2.379v-5.746a2.379,2.379,0,1,1,4.759,0v5.746A2.378,2.378,0,0,1,400.03,300.251Z" transform="translate(204.07 1621.378)" fill="#006064"/>
    <path id="Trazado_12007" data-name="Trazado 12007" d="M411.8,298.941a2.378,2.378,0,0,1-2.379-2.379V293.95a2.379,2.379,0,0,1,4.759,0v2.612A2.378,2.378,0,0,1,411.8,298.941Z" transform="translate(201.927 1621.045)" fill="#006064"/>
    <path id="Trazado_12008" data-name="Trazado 12008" d="M383.315,300.251a2.378,2.378,0,0,1-2.379-2.379v-5.746a2.379,2.379,0,1,1,4.759,0v5.746A2.378,2.378,0,0,1,383.315,300.251Z" transform="translate(207.113 1621.378)" fill="#006064"/>
    <path id="Trazado_12009" data-name="Trazado 12009" d="M371.545,298.941a2.378,2.378,0,0,1-2.379-2.379V293.95a2.379,2.379,0,1,1,4.759,0v2.612A2.378,2.378,0,0,1,371.545,298.941Z" transform="translate(209.256 1621.045)" fill="#006064"/>
    <path id="Trazado_12010" data-name="Trazado 12010" d="M391.672,341.2a2.378,2.378,0,0,1-2.379-2.379v-31.64a2.379,2.379,0,1,1,4.759,0v31.64A2.378,2.378,0,0,1,391.672,341.2Z" transform="translate(205.592 1618.636)" fill="#006064"/>
    <path id="Trazado_12011" data-name="Trazado 12011" d="M474.424,327.739a16.144,16.144,0,0,1-8.318-2.178,2.384,2.384,0,0,1-1.155-1.88c-.429-6.317,3.39-12.913,9.733-16.8s13.958-4.3,19.388-1.053a2.384,2.384,0,0,1,1.155,1.881c.43,6.318-3.393,12.913-9.733,16.8A21.371,21.371,0,0,1,474.424,327.739Zm-4.728-5.674c3.839,1.661,8.913,1.081,13.312-1.615s7.215-6.952,7.475-11.13c-3.841-1.664-8.915-1.079-13.312,1.615S469.956,317.887,469.7,322.065Z" transform="translate(191.823 1618.847)" fill="#006064"/>
    <path id="Trazado_12012" data-name="Trazado 12012" d="M454.482,327.738a21.355,21.355,0,0,1-11.072-3.232c-6.344-3.89-10.164-10.484-9.732-16.8a2.389,2.389,0,0,1,1.152-1.88c5.44-3.253,13.045-2.837,19.388,1.053s10.164,10.486,9.733,16.8a2.381,2.381,0,0,1-1.152,1.88A16.152,16.152,0,0,1,454.482,327.738Zm-16.058-18.419c.258,4.176,3.077,8.434,7.473,11.13s9.468,3.285,13.311,1.615c-.26-4.176-3.08-8.435-7.474-11.13S442.264,307.652,438.423,309.319Z" transform="translate(197.517 1618.847)" fill="#006064"/>
    <path id="Trazado_12013" data-name="Trazado 12013" d="M475.655,300.251a2.378,2.378,0,0,1-2.379-2.379v-5.746a2.379,2.379,0,0,1,4.759,0v5.746A2.378,2.378,0,0,1,475.655,300.251Z" transform="translate(190.301 1621.378)" fill="#006064"/>
    <path id="Trazado_12014" data-name="Trazado 12014" d="M487.424,298.941a2.379,2.379,0,0,1-2.379-2.379V293.95a2.379,2.379,0,1,1,4.759,0v2.612A2.378,2.378,0,0,1,487.424,298.941Z" transform="translate(188.158 1621.045)" fill="#006064"/>
    <path id="Trazado_12015" data-name="Trazado 12015" d="M458.942,300.251a2.379,2.379,0,0,1-2.379-2.379v-5.746a2.379,2.379,0,0,1,4.759,0v5.746A2.378,2.378,0,0,1,458.942,300.251Z" transform="translate(193.344 1621.378)" fill="#006064"/>
    <path id="Trazado_12016" data-name="Trazado 12016" d="M447.173,298.941a2.378,2.378,0,0,1-2.379-2.379V293.95a2.379,2.379,0,1,1,4.759,0v2.612A2.378,2.378,0,0,1,447.173,298.941Z" transform="translate(195.487 1621.045)" fill="#006064"/>
    <path id="Trazado_12017" data-name="Trazado 12017" d="M467.3,341.2a2.379,2.379,0,0,1-2.379-2.379v-31.64a2.379,2.379,0,1,1,4.759,0v31.64A2.378,2.378,0,0,1,467.3,341.2Z" transform="translate(191.822 1618.636)" fill="#006064"/>
    <path id="Trazado_12018" data-name="Trazado 12018" d="M550.049,327.739a16.15,16.15,0,0,1-8.318-2.178,2.389,2.389,0,0,1-1.152-1.88c-.432-6.317,3.388-12.912,9.734-16.8s13.953-4.3,19.387-1.053a2.387,2.387,0,0,1,1.152,1.88c.433,6.317-3.388,12.913-9.733,16.8A21.369,21.369,0,0,1,550.049,327.739Zm-4.726-5.674c3.841,1.664,8.911,1.078,13.309-1.615s7.217-6.953,7.475-11.13c-3.84-1.664-8.913-1.079-13.309,1.615S545.582,317.89,545.323,322.065Z" transform="translate(178.054 1618.847)" fill="#006064"/>
    <path id="Trazado_12019" data-name="Trazado 12019" d="M530.108,327.739a21.369,21.369,0,0,1-11.07-3.232c-6.346-3.89-10.166-10.486-9.733-16.8a2.385,2.385,0,0,1,1.152-1.88c5.437-3.248,13.044-2.836,19.387,1.053s10.166,10.487,9.733,16.8a2.386,2.386,0,0,1-1.152,1.88A16.157,16.157,0,0,1,530.108,327.739ZM514.049,309.32c.258,4.176,3.079,8.432,7.474,11.13s9.469,3.28,13.309,1.615c-.257-4.176-3.078-8.434-7.474-11.13S517.888,307.656,514.049,309.32Z" transform="translate(183.747 1618.847)" fill="#006064"/>
    <path id="Trazado_12020" data-name="Trazado 12020" d="M551.283,300.251a2.378,2.378,0,0,1-2.379-2.379v-5.746a2.379,2.379,0,1,1,4.759,0v5.746A2.378,2.378,0,0,1,551.283,300.251Z" transform="translate(176.532 1621.378)" fill="#006064"/>
    <path id="Trazado_12021" data-name="Trazado 12021" d="M563.053,298.941a2.378,2.378,0,0,1-2.379-2.379V293.95a2.379,2.379,0,1,1,4.759,0v2.612A2.379,2.379,0,0,1,563.053,298.941Z" transform="translate(174.389 1621.045)" fill="#006064"/>
    <path id="Trazado_12022" data-name="Trazado 12022" d="M534.568,300.251a2.378,2.378,0,0,1-2.379-2.379v-5.746a2.379,2.379,0,1,1,4.759,0v5.746A2.379,2.379,0,0,1,534.568,300.251Z" transform="translate(179.575 1621.378)" fill="#006064"/>
    <path id="Trazado_12023" data-name="Trazado 12023" d="M522.8,298.941a2.378,2.378,0,0,1-2.379-2.379V293.95a2.379,2.379,0,1,1,4.758,0v2.612A2.378,2.378,0,0,1,522.8,298.941Z" transform="translate(181.718 1621.045)" fill="#006064"/>
    <path id="Trazado_12024" data-name="Trazado 12024" d="M542.926,341.2a2.378,2.378,0,0,1-2.379-2.379v-31.64a2.379,2.379,0,1,1,4.758,0v31.64A2.378,2.378,0,0,1,542.926,341.2Z" transform="translate(178.053 1618.636)" fill="#006064"/>
    <path id="Trazado_12025" data-name="Trazado 12025" d="M566.719,348.247H533.108a2.379,2.379,0,0,1,0-4.759h33.611a2.379,2.379,0,1,1,0,4.759Z" transform="translate(179.841 1611.593)" fill="#006064"/>
    <path id="Trazado_12026" data-name="Trazado 12026" d="M505.117,348.247H453.11a2.379,2.379,0,0,1,0-4.759h52.007a2.379,2.379,0,0,1,0,4.759Z" transform="translate(194.406 1611.593)" fill="#006064"/>
    <path id="Trazado_12027" data-name="Trazado 12027" d="M406.962,348.247H402.2a2.379,2.379,0,0,1,0-4.759h4.759a2.379,2.379,0,0,1,0,4.759Z" transform="translate(203.674 1611.593)" fill="#006064"/>
    <path id="Trazado_12028" data-name="Trazado 12028" d="M431.819,348.247H421.111a2.379,2.379,0,0,1,0-4.759h10.708a2.379,2.379,0,0,1,0,4.759Z" transform="translate(200.232 1611.593)" fill="#006064"/>
    <path id="Trazado_12029" data-name="Trazado 12029" d="M452.051,348.247h-4.759a2.379,2.379,0,0,1,0-4.759h4.759a2.379,2.379,0,1,1,0,4.759Z" transform="translate(195.465 1611.593)" fill="#006064"/>
    <path id="Trazado_12030" data-name="Trazado 12030" d="M394.592,348.247H360.4a2.379,2.379,0,0,1,0-4.759h34.194a2.379,2.379,0,0,1,0,4.759Z" transform="translate(211.286 1611.593)" fill="#006064"/>
    <path id="Trazado_12031" data-name="Trazado 12031" d="M398.8,394.646a16.158,16.158,0,0,1-8.318-2.178,2.387,2.387,0,0,1-1.152-1.88c-.432-6.316,3.388-12.912,9.733-16.8s13.953-4.3,19.388-1.053a2.389,2.389,0,0,1,1.152,1.88c.432,6.317-3.388,12.913-9.734,16.8A21.362,21.362,0,0,1,398.8,394.646Zm-4.726-5.674c3.841,1.661,8.911,1.079,13.309-1.616s7.217-6.952,7.475-11.129c-3.844-1.662-8.913-1.08-13.309,1.615S394.328,384.8,394.07,388.972Z" transform="translate(205.592 1606.665)" fill="#006064"/>
    <path id="Trazado_12032" data-name="Trazado 12032" d="M378.854,394.646a21.362,21.362,0,0,1-11.069-3.233c-6.346-3.889-10.166-10.485-9.734-16.8a2.387,2.387,0,0,1,1.153-1.88c5.437-3.25,13.046-2.836,19.387,1.054s10.166,10.487,9.734,16.8a2.39,2.39,0,0,1-1.153,1.88A16.165,16.165,0,0,1,378.854,394.646ZM362.8,376.227c.258,4.177,3.079,8.433,7.476,11.129s9.466,3.278,13.309,1.616c-.258-4.176-3.079-8.434-7.476-11.13S366.636,374.557,362.8,376.227Z" transform="translate(211.286 1606.665)" fill="#006064"/>
    <path id="Trazado_12033" data-name="Trazado 12033" d="M400.03,367.158a2.379,2.379,0,0,1-2.379-2.379v-5.746a2.379,2.379,0,0,1,4.759,0v5.746A2.379,2.379,0,0,1,400.03,367.158Z" transform="translate(204.07 1609.196)" fill="#006064"/>
    <path id="Trazado_12034" data-name="Trazado 12034" d="M411.8,365.848a2.379,2.379,0,0,1-2.379-2.379v-2.612a2.379,2.379,0,0,1,4.759,0v2.612A2.379,2.379,0,0,1,411.8,365.848Z" transform="translate(201.927 1608.864)" fill="#006064"/>
    <path id="Trazado_12035" data-name="Trazado 12035" d="M383.315,367.158a2.379,2.379,0,0,1-2.379-2.379v-5.746a2.379,2.379,0,0,1,4.759,0v5.746A2.379,2.379,0,0,1,383.315,367.158Z" transform="translate(207.113 1609.196)" fill="#006064"/>
    <path id="Trazado_12036" data-name="Trazado 12036" d="M371.545,365.848a2.379,2.379,0,0,1-2.379-2.379v-2.612a2.379,2.379,0,0,1,4.759,0v2.612A2.379,2.379,0,0,1,371.545,365.848Z" transform="translate(209.256 1608.864)" fill="#006064"/>
    <path id="Trazado_12037" data-name="Trazado 12037" d="M391.672,408.111a2.379,2.379,0,0,1-2.379-2.379V374.091a2.379,2.379,0,0,1,4.759,0v31.641A2.379,2.379,0,0,1,391.672,408.111Z" transform="translate(205.592 1606.454)" fill="#006064"/>
    <path id="Trazado_12038" data-name="Trazado 12038" d="M474.424,394.646a16.152,16.152,0,0,1-8.318-2.178,2.384,2.384,0,0,1-1.155-1.881c-.429-6.316,3.39-12.912,9.733-16.8s13.958-4.3,19.388-1.053a2.383,2.383,0,0,1,1.155,1.881c.43,6.318-3.393,12.912-9.733,16.8A21.365,21.365,0,0,1,474.424,394.646Zm-4.728-5.674c3.839,1.662,8.913,1.081,13.312-1.616s7.215-6.951,7.475-11.129c-3.841-1.662-8.915-1.08-13.312,1.615S469.956,384.794,469.7,388.972Z" transform="translate(191.823 1606.665)" fill="#006064"/>
    <path id="Trazado_12039" data-name="Trazado 12039" d="M454.482,394.646a21.348,21.348,0,0,1-11.072-3.233c-6.344-3.889-10.164-10.484-9.732-16.8a2.389,2.389,0,0,1,1.152-1.88c5.44-3.25,13.045-2.836,19.388,1.054s10.164,10.486,9.733,16.8a2.38,2.38,0,0,1-1.152,1.881A16.161,16.161,0,0,1,454.482,394.646Zm-16.058-18.419c.258,4.177,3.077,8.434,7.473,11.129s9.468,3.283,13.311,1.616c-.26-4.177-3.08-8.435-7.474-11.13S442.264,374.557,438.423,376.227Z" transform="translate(197.517 1606.665)" fill="#006064"/>
    <path id="Trazado_12040" data-name="Trazado 12040" d="M475.655,367.158a2.379,2.379,0,0,1-2.379-2.379v-5.746a2.379,2.379,0,0,1,4.759,0v5.746A2.379,2.379,0,0,1,475.655,367.158Z" transform="translate(190.301 1609.196)" fill="#006064"/>
    <path id="Trazado_12041" data-name="Trazado 12041" d="M487.424,365.848a2.379,2.379,0,0,1-2.379-2.379v-2.612a2.379,2.379,0,1,1,4.759,0v2.612A2.379,2.379,0,0,1,487.424,365.848Z" transform="translate(188.158 1608.864)" fill="#006064"/>
    <path id="Trazado_12042" data-name="Trazado 12042" d="M458.942,367.158a2.379,2.379,0,0,1-2.379-2.379v-5.746a2.379,2.379,0,0,1,4.759,0v5.746A2.379,2.379,0,0,1,458.942,367.158Z" transform="translate(193.344 1609.196)" fill="#006064"/>
    <path id="Trazado_12043" data-name="Trazado 12043" d="M447.173,365.848a2.379,2.379,0,0,1-2.379-2.379v-2.612a2.379,2.379,0,1,1,4.759,0v2.612A2.379,2.379,0,0,1,447.173,365.848Z" transform="translate(195.487 1608.864)" fill="#006064"/>
    <path id="Trazado_12044" data-name="Trazado 12044" d="M467.3,408.111a2.379,2.379,0,0,1-2.379-2.379V374.091a2.379,2.379,0,0,1,4.759,0v31.641A2.379,2.379,0,0,1,467.3,408.111Z" transform="translate(191.822 1606.454)" fill="#006064"/>
    <path id="Trazado_12045" data-name="Trazado 12045" d="M550.049,394.646a16.158,16.158,0,0,1-8.318-2.178,2.389,2.389,0,0,1-1.152-1.88c-.432-6.316,3.388-12.912,9.734-16.8s13.953-4.3,19.387-1.053a2.387,2.387,0,0,1,1.152,1.88c.433,6.317-3.388,12.913-9.733,16.8A21.362,21.362,0,0,1,550.049,394.646Zm-4.726-5.674c3.841,1.661,8.911,1.079,13.309-1.616s7.217-6.952,7.475-11.129c-3.84-1.662-8.913-1.08-13.309,1.615S545.582,384.8,545.323,388.972Z" transform="translate(178.054 1606.665)" fill="#006064"/>
    <path id="Trazado_12046" data-name="Trazado 12046" d="M530.108,394.646a21.363,21.363,0,0,1-11.07-3.233c-6.346-3.889-10.166-10.485-9.733-16.8a2.385,2.385,0,0,1,1.152-1.88c5.437-3.246,13.044-2.836,19.387,1.053s10.166,10.487,9.733,16.8a2.386,2.386,0,0,1-1.152,1.88A16.165,16.165,0,0,1,530.108,394.646Zm-16.058-18.419c.258,4.177,3.079,8.433,7.474,11.129s9.469,3.278,13.309,1.616c-.257-4.176-3.078-8.434-7.474-11.13S517.888,374.562,514.049,376.227Z" transform="translate(183.747 1606.665)" fill="#006064"/>
    <path id="Trazado_12047" data-name="Trazado 12047" d="M551.283,367.158a2.379,2.379,0,0,1-2.379-2.379v-5.746a2.379,2.379,0,0,1,4.759,0v5.746A2.379,2.379,0,0,1,551.283,367.158Z" transform="translate(176.532 1609.196)" fill="#006064"/>
    <path id="Trazado_12048" data-name="Trazado 12048" d="M563.053,365.848a2.379,2.379,0,0,1-2.379-2.379v-2.612a2.379,2.379,0,1,1,4.759,0v2.612A2.379,2.379,0,0,1,563.053,365.848Z" transform="translate(174.389 1608.864)" fill="#006064"/>
    <path id="Trazado_12049" data-name="Trazado 12049" d="M534.568,367.158a2.379,2.379,0,0,1-2.379-2.379v-5.746a2.379,2.379,0,0,1,4.759,0v5.746A2.379,2.379,0,0,1,534.568,367.158Z" transform="translate(179.575 1609.196)" fill="#006064"/>
    <path id="Trazado_12050" data-name="Trazado 12050" d="M522.8,365.848a2.379,2.379,0,0,1-2.379-2.379v-2.612a2.379,2.379,0,1,1,4.758,0v2.612A2.379,2.379,0,0,1,522.8,365.848Z" transform="translate(181.718 1608.864)" fill="#006064"/>
    <path id="Trazado_12051" data-name="Trazado 12051" d="M542.926,408.111a2.379,2.379,0,0,1-2.379-2.379V374.091a2.379,2.379,0,0,1,4.758,0v31.641A2.379,2.379,0,0,1,542.926,408.111Z" transform="translate(178.053 1606.454)" fill="#006064"/>
    <path id="Trazado_12052" data-name="Trazado 12052" d="M566.985,415.154H534.568a2.379,2.379,0,0,1,0-4.759h32.416a2.379,2.379,0,0,1,0,4.759Z" transform="translate(179.575 1599.411)" fill="#006064"/>
    <path id="Trazado_12053" data-name="Trazado 12053" d="M479.479,415.154h-4.759a2.379,2.379,0,0,1,0-4.759h4.759a2.379,2.379,0,0,1,0,4.759Z" transform="translate(190.471 1599.411)" fill="#006064"/>
    <path id="Trazado_12054" data-name="Trazado 12054" d="M513.841,415.154h-7.886a2.379,2.379,0,1,1,0-4.759h7.886a2.379,2.379,0,0,1,0,4.759Zm-15.775,0H490.18a2.379,2.379,0,0,1,0-4.759h7.886a2.379,2.379,0,0,1,0,4.759Z" transform="translate(187.657 1599.411)" fill="#006064"/>
    <path id="Trazado_12055" data-name="Trazado 12055" d="M533.509,415.154H528.75a2.379,2.379,0,0,1,0-4.759h4.759a2.379,2.379,0,0,1,0,4.759Z" transform="translate(180.634 1599.411)" fill="#006064"/>
    <path id="Trazado_12056" data-name="Trazado 12056" d="M469.7,415.154H447.173a2.379,2.379,0,0,1,0-4.759H469.7a2.379,2.379,0,0,1,0,4.759Z" transform="translate(195.487 1599.411)" fill="#006064"/>
    <path id="Trazado_12057" data-name="Trazado 12057" d="M410.822,415.154H360.4a2.379,2.379,0,0,1,0-4.759h50.424a2.379,2.379,0,0,1,0,4.759Z" transform="translate(211.286 1599.411)" fill="#006064"/>
    <path id="Trazado_12058" data-name="Trazado 12058" d="M568.232,435.767H541.42a2.379,2.379,0,0,1,0-4.759h26.812a2.379,2.379,0,0,1,0,4.759Z" transform="translate(178.327 1595.658)" fill="#006064"/>
    <path id="Trazado_12059" data-name="Trazado 12059" d="M459.531,435.767h-4.759a2.379,2.379,0,0,1,0-4.759h4.759a2.379,2.379,0,0,1,0,4.759Z" transform="translate(194.103 1595.658)" fill="#006064"/>
    <path id="Trazado_12060" data-name="Trazado 12060" d="M515.129,435.767h-8.764a2.379,2.379,0,1,1,0-4.759h8.764a2.379,2.379,0,1,1,0,4.759Zm-17.529,0h-8.764a2.379,2.379,0,1,1,0-4.759H497.6a2.379,2.379,0,0,1,0,4.759Zm-17.528,0h-8.765a2.379,2.379,0,1,1,0-4.759h8.765a2.379,2.379,0,0,1,0,4.759Z" transform="translate(191.093 1595.658)" fill="#006064"/>
    <path id="Trazado_12061" data-name="Trazado 12061" d="M540.361,435.767H535.6a2.379,2.379,0,0,1,0-4.759h4.759a2.379,2.379,0,0,1,0,4.759Z" transform="translate(179.387 1595.658)" fill="#006064"/>
    <path id="Trazado_12062" data-name="Trazado 12062" d="M445.892,435.767H406a2.379,2.379,0,1,1,0-4.759h39.9a2.379,2.379,0,1,1,0,4.759Z" transform="translate(202.984 1595.658)" fill="#006064"/>
    <path id="Trazado_12063" data-name="Trazado 12063" d="M376.788,435.767H360.4a2.379,2.379,0,1,1,0-4.759h16.39a2.379,2.379,0,1,1,0,4.759Z" transform="translate(211.286 1595.658)" fill="#006064"/>
    <path id="Trazado_12064" data-name="Trazado 12064" d="M568.118,456.546H540.8a2.379,2.379,0,0,1,0-4.759h27.323a2.379,2.379,0,0,1,0,4.759Z" transform="translate(178.441 1591.875)" fill="#006064"/>
    <path id="Trazado_12065" data-name="Trazado 12065" d="M505.826,456.546H469.837a2.379,2.379,0,0,1,0-4.759h35.988a2.379,2.379,0,0,1,0,4.759Z" transform="translate(191.36 1591.875)" fill="#006064"/>
    <path id="Trazado_12066" data-name="Trazado 12066" d="M450.236,456.546H433.58a2.379,2.379,0,0,1,0-4.759h16.656a2.379,2.379,0,0,1,0,4.759Z" transform="translate(197.962 1591.875)" fill="#006064"/>
    <path id="Trazado_12067" data-name="Trazado 12067" d="M379.952,456.546h-4.759a2.379,2.379,0,0,1,0-4.759h4.759a2.379,2.379,0,1,1,0,4.759Z" transform="translate(208.592 1591.875)" fill="#006064"/>
    <path id="Trazado_12068" data-name="Trazado 12068" d="M413.3,456.546h-7.647a2.379,2.379,0,0,1,0-4.759H413.3a2.379,2.379,0,0,1,0,4.759Zm-15.3,0H390.36a2.379,2.379,0,0,1,0-4.759h7.647a2.379,2.379,0,0,1,0,4.759Z" transform="translate(205.831 1591.875)" fill="#006064"/>
    <path id="Trazado_12069" data-name="Trazado 12069" d="M432.521,456.546h-4.759a2.379,2.379,0,0,1,0-4.759h4.759a2.379,2.379,0,1,1,0,4.759Z" transform="translate(199.021 1591.875)" fill="#006064"/>
    <path id="Trazado_12070" data-name="Trazado 12070" d="M372.5,456.546H360.4a2.379,2.379,0,0,1,0-4.759h12.1a2.379,2.379,0,0,1,0,4.759Z" transform="translate(211.286 1591.875)" fill="#006064"/>
  </g>
</svg>
