<svg xmlns="http://www.w3.org/2000/svg" width="100" height="100" viewBox="0 0 100 100">
  <g id="Grupo_4472" data-name="Grupo 4472" transform="translate(-148.071 -2053.21)">
    <circle id="Elipse_715" data-name="Elipse 715" cx="50" cy="50" r="50" transform="translate(148.071 2053.21)" fill="#ffe082"/>
    <g id="Grupo_3667" data-name="Grupo 3667" transform="translate(169.087 2066.261)">
      <path id="Trazado_16525" data-name="Trazado 16525" d="M82.374,61.44a1.116,1.116,0,0,1-.192-.019.965.965,0,0,1-.754-1.137A27.377,27.377,0,0,1,86.6,49.129a.964.964,0,1,1,1.513,1.2,25.374,25.374,0,0,0-4.789,10.342A.965.965,0,0,1,82.374,61.44Z" transform="translate(-59.183 -10.909)" fill="#8d6e63"/>
      <path id="Trazado_16526" data-name="Trazado 16526" d="M84.491,58.752a.963.963,0,0,1-.949-.8c-.762-4.365-6.466-5.837-6.523-5.852a.965.965,0,0,1,.467-1.872,13.108,13.108,0,0,1,6.331,3.878A53.834,53.834,0,0,0,81.083,35.45a.965.965,0,1,1,1.828-.616,52.653,52.653,0,0,1,2.531,23.107.964.964,0,0,1-.945.811Z" transform="translate(-59.914 -12.988)" fill="#8d6e63"/>
      <path id="Trazado_16527" data-name="Trazado 16527" d="M73.8,53.081a9.784,9.784,0,0,1-5.05-1.377c-3.447-2.058-6.991-7.043-6.773-11.185a.965.965,0,0,1,.462-.772c3.542-2.156,9.613-1.4,13.059.656A10.739,10.739,0,0,1,80.43,50.49a.965.965,0,0,1-.462.772A11.887,11.887,0,0,1,73.8,53.081ZM63.9,41.144c.15,3.226,3.09,7.263,5.836,8.9a8.738,8.738,0,0,0,8.784-.175,8.733,8.733,0,0,0-4.014-7.814C71.759,40.419,66.811,39.748,63.9,41.144Z" transform="translate(-61.956 -12.379)" fill="#8d6e63"/>
      <path id="Trazado_16528" data-name="Trazado 16528" d="M93.708,54.45a16.81,16.81,0,0,1-7.393-1.793.966.966,0,0,1-.53-.729c-.857-5.936,1.2-11.349,5.508-14.482,4.505-3.276,12.783-5.088,17.926-2.565a.968.968,0,0,1,.53.729c.818,5.67-3.455,12.988-7.96,16.265A13.6,13.6,0,0,1,93.708,54.45Zm-6.08-3.306c4.594,2.085,9.431,1.786,13.028-.83,3.83-2.786,7.621-9.068,7.242-13.914-4.5-1.853-11.64-.179-15.469,2.605C88.832,41.622,87.059,46.132,87.628,51.144Z" transform="translate(-58.587 -13.057)" fill="#8d6e63"/>
      <path id="Trazado_16529" data-name="Trazado 16529" d="M82.524,38.75a10.509,10.509,0,0,1-7.03-4.281c-2.973-4-3.662-10.082-2.046-18.062a.961.961,0,0,1,1.233-.729A16,16,0,0,1,83.5,23.328c2.028,4.1,2.006,9.079-.065,14.786A.963.963,0,0,1,82.524,38.75Zm-7.4-20.819c-1.219,6.852-.575,12.026,1.922,15.387a8.955,8.955,0,0,0,4.846,3.36c1.616-4.863,1.574-9.063-.121-12.5A13.966,13.966,0,0,0,75.12,17.931Z" transform="translate(-60.44 -15.633)" fill="#8d6e63"/>
      <path id="Trazado_16530" data-name="Trazado 16530" d="M82.722,41.88a.965.965,0,0,1-.908-1.289A25.07,25.07,0,0,1,92.766,28.067a.965.965,0,0,1,.914,1.7A23.409,23.409,0,0,0,83.631,41.239.965.965,0,0,1,82.722,41.88Z" transform="translate(-59.134 -13.876)" fill="#8d6e63"/>
      <path id="Trazado_16531" data-name="Trazado 16531" d="M103.445,67.689l-37.711-.013a.964.964,0,0,1-.78-1.529c3.3-4.561,11.009-7.506,19.639-7.5s16.337,2.952,19.634,7.514a.965.965,0,0,1-.782,1.53ZM67.9,65.748l33.384.01c-3.465-3.155-9.835-5.183-16.691-5.185S71.365,62.6,67.9,65.748Z" transform="translate(-61.556 -9.5)" fill="#8d6e63"/>
      <path id="Trazado_16532" data-name="Trazado 16532" d="M112.246,66.8,62.92,66.789a.964.964,0,0,1,0-1.929l49.325.016a.964.964,0,0,1,0,1.929Z" transform="translate(-61.957 -8.613)" fill="#8d6e63"/>
      <path id="Trazado_16533" data-name="Trazado 16533" d="M100.779,67.523a.965.965,0,0,1-.964-.964l0-5.786a.964.964,0,1,1,1.929,0l0,5.787A.964.964,0,0,1,100.779,67.523Z" transform="translate(-56.559 -9.334)" fill="#8d6e63"/>
      <path id="Trazado_16534" data-name="Trazado 16534" d="M101.092,62.73a.968.968,0,0,1-.427-.1,5.385,5.385,0,0,1,0-9.686.966.966,0,0,1,.854,0,5.386,5.386,0,0,1,0,9.686A.967.967,0,0,1,101.092,62.73Zm0-7.807a3.449,3.449,0,0,0,0,5.73,3.449,3.449,0,0,0,0-5.73Z" transform="translate(-56.87 -10.327)" fill="#8d6e63"/>
      <path id="Trazado_16535" data-name="Trazado 16535" d="M70.945,81.481a.976.976,0,0,1-.963-1.026c.6-9.359-5.577-13.652-5.84-13.83a.964.964,0,0,1,1.074-1.6c.3.2,7.363,5.051,6.691,15.555A.965.965,0,0,1,70.945,81.481Z" transform="translate(-61.706 -8.613)" fill="#8d6e63"/>
      <path id="Trazado_16536" data-name="Trazado 16536" d="M77.492,81.483a.976.976,0,0,1-.963-1.026c.6-9.407-5.773-13.785-5.839-13.828a.965.965,0,0,1,1.073-1.6c.3.2,7.363,5.051,6.69,15.555A.964.964,0,0,1,77.492,81.483Z" transform="translate(-60.773 -8.613)" fill="#8d6e63"/>
      <path id="Trazado_16537" data-name="Trazado 16537" d="M84.039,81.485a.976.976,0,0,1-.963-1.026c.6-9.359-5.577-13.652-5.841-13.829a.965.965,0,0,1,1.075-1.6c.3.2,7.362,5.051,6.69,15.555A.964.964,0,0,1,84.039,81.485Z" transform="translate(-59.839 -8.613)" fill="#8d6e63"/>
      <path id="Trazado_16538" data-name="Trazado 16538" d="M109.19,81.494l-18.606-.007a.964.964,0,0,1-.962-1.025c.6-9.36-5.577-13.653-5.84-13.83a.964.964,0,0,1,1.074-1.6,17.265,17.265,0,0,1,6.732,14.529l17.6.006a.964.964,0,0,1,0,1.929Z" transform="translate(-58.906 -8.612)" fill="#8d6e63"/>
      <path id="Trazado_16539" data-name="Trazado 16539" d="M108.669,71.106,88,71.1a.964.964,0,0,1,0-1.929l20.672.007a.964.964,0,1,1,0,1.929Z" transform="translate(-58.381 -7.999)" fill="#8d6e63"/>
      <path id="Trazado_16540" data-name="Trazado 16540" d="M108.447,75.358l-18.909-.007a.964.964,0,1,1,0-1.928l18.91.006a.964.964,0,1,1,0,1.929Z" transform="translate(-58.162 -7.392)" fill="#8d6e63"/>
    </g>
  </g>
</svg>
