<svg id="Capa_1" data-name="Capa 1" xmlns="http://www.w3.org/2000/svg" viewBox="0 0 88 88"><defs><style>.cls-1{fill:#ffe082;}.cls-2{fill:#8d6e63;}</style></defs><ellipse class="cls-1" cx="44" cy="44" rx="43.76" ry="43.78" transform="translate(-0.05 87.95) rotate(-89.94)"/><path class="cls-2" d="M18,53.64A139.29,139.29,0,0,1,10.8,28.47a1.13,1.13,0,0,1,.83-1.3A1.14,1.14,0,0,1,13,27.9c.13.41,13.41,39.92,48.39,36.89a1.11,1.11,0,0,1,.87.3,1.09,1.09,0,0,1,.35.83l-.13,4.9a1.15,1.15,0,0,1-.38.81c-.46.4-11.26,9.8-23.7,5.75C30.08,74.67,23.25,66.72,18,53.64ZM15.46,38.71C20.93,59.4,29,72,39.09,75.26s19.21-3.45,21.13-5l.08-3.18C36.06,68.56,22,50.61,15.46,38.71Z"/><path class="cls-2" d="M13.81,41.15l-.1-.23a1.13,1.13,0,0,1,2.1-.83l0,.08c.58,1.42,11,26.33,32.08,28a1.09,1.09,0,0,1,1,1.2,1.13,1.13,0,0,1-1.22,1C25.57,68.63,15,44,13.81,41.15Z"/><path class="cls-2" d="M66.64,70.15a1.06,1.06,0,0,1-.08-.4l0-5.42a1.12,1.12,0,0,1,1.11-1.13,1.11,1.11,0,0,1,1.14,1.1l0,5.41a1.13,1.13,0,0,1-2.17.44Z"/><path class="cls-2" d="M67,39.58a1.12,1.12,0,0,0-.91.13c-14.31,8.94-28.73,6.92-39.88,2.37.63,1,1.37,2.08,2.23,3.22,10.9,3.78,24.32,4.87,37.78-3.06l1.4,2.84c-1,2.23-6.09,12.36-16.52,14a20.23,20.23,0,0,1-6,0,44.5,44.5,0,0,0,5.66,2.26c.23,0,.45,0,.67-.08,13-2.08,18.23-15.31,18.45-15.87a1.12,1.12,0,0,0,0-.88l-2.17-4.4A1.06,1.06,0,0,0,67,39.58Z"/><path class="cls-2" d="M40.35,55.54l.31-2.22c7.74,1,17.22-3.66,17.31-3.7l1,2C58.56,51.81,48.79,56.6,40.35,55.54Z"/><polygon class="cls-2" points="68.39 38.18 70.37 37.09 73.55 42.83 71.58 43.91 68.39 38.18"/><path class="cls-2" d="M54.78,13.35a1.14,1.14,0,0,0-.68.61C47.13,29.33,34,35.64,22.21,38c1.07.48,2.28,1,3.63,1.44C37,36.58,48.79,30.05,55.6,16l2.74,1.59c.41,2.41,1.78,13.66-6,20.83a19.8,19.8,0,0,1-5,3.31,45.91,45.91,0,0,0,6-1.25c.16-.15.34-.28.5-.43,9.65-8.93,6.7-22.85,6.57-23.44a1.11,1.11,0,0,0-.52-.71l-4.24-2.46A1.09,1.09,0,0,0,54.78,13.35Z"/><path class="cls-2" d="M41.43,41.4l-1-2c7-3.48,12.31-12.59,12.36-12.68l1.93,1.1C54.52,28.21,49.05,37.61,41.43,41.4Z"/><polygon class="cls-2" points="55.16 11.41 56.2 9.41 62.03 12.42 60.99 14.42 55.16 11.41"/></svg>