<svg id="Capa_1" data-name="Capa 1" xmlns="http://www.w3.org/2000/svg" viewBox="0 0 674 458"><defs><style>.cls-1,.cls-22{fill:#fff;}.cls-2{fill:none;}.cls-20,.cls-3{fill:#ffe082;}.cls-3{opacity:0.24;}.cls-4,.cls-5{fill:#80cbc4;}.cls-4{opacity:0.1;}.cls-16,.cls-6{font-size:18px;font-family:OpenSans, Open Sans;}.cls-10,.cls-17,.cls-7,.cls-8,.cls-9{font-size:24px;}.cls-10,.cls-17,.cls-8,.cls-9{fill:#0288d1;}.cls-10,.cls-17,.cls-22,.cls-8,.cls-9{font-family:Montserrat-Medium, Montserrat;font-weight:500;}.cls-18,.cls-8{letter-spacing:-0.01em;}.cls-11{letter-spacing:-0.02em;}.cls-12{letter-spacing:-0.02em;}.cls-13{letter-spacing:-0.07em;}.cls-14{letter-spacing:-0.01em;}.cls-15{letter-spacing:0em;}.cls-16{font-weight:400;fill:#000;}.cls-17{letter-spacing:-0.04em;}.cls-19{fill:#8d6e63;}.cls-21{fill:#006064;}.cls-22{font-size:49.67px;}</style></defs><rect class="cls-1" width="674" height="458"/><rect class="cls-2" width="674" height="458"/><path class="cls-3" d="M562.64,178.22c-21.56-17.88-34.52-37.29-3.7-69.12s54.41-53.28,38.83-95.45a116.67,116.67,0,0,0-6-13.65H395c-41.6,16.87-83.73,29-118,18.26A109.65,109.65,0,0,1,242.29,0H38.5q-1.56,2.07-3.09,4.23C23.23,21.39,18.87,32.39,7.57,35.16A20.54,20.54,0,0,1,0,35.5v418c3.58.13,7.24.19,11,.16,113.67-.89,285.49.81,285.49.81,89.75.89,186.57,17.16,270-28.65,30.15-16.55,56.81-42.09,71.6-74.95,19.54-43.4,13-97.93-12.8-137C608.06,187.86,583.28,195.36,562.64,178.22Z"/><path class="cls-4" d="M674,332.5c-10.8-7-26.69-4.86-37.6,3.53-11.8,9.08-8.82,15.79-23.06,14.64-3.89-.31-8.06-2.35-9.55-6.43-2-5.52,1.63-11.37,4.64-16.26,9.13-14.89,8.42-30.52,6.34-48.48S595.4,250.1,581.06,242s-33.13-5.94-44.75,6.53c-7.93,8.52-12,20.55-17.67,31.11S504,300.28,493,300c-13.23-.3-32.1-15.11-34.55-29.81s-.47-30-3-44.71c-4.84-27.75-25.85-46.86-50.85-46.74s-50.65,20.76-51.79,49c-.63,15.38,8.44,45.29.84,58.07-6.87,11.55-22.49,18.13-33.31,12.23-29-15.85-45.86-.59-51.46,18.53-6.26,21.4-6.51,39.59-.7,61.37s18.6,39.05,32.95,55C323,457.28,365.34,454,370,453.87c87.5-1.76,130.82-5.3,218.28-1.91,35.27,1.37,64.65-27.12,85.74-62.08Z"/><rect class="cls-2" width="674" height="458"/><path class="cls-5" d="M287.12,336.09a2.09,2.09,0,1,1-2.09,2.09A2.1,2.1,0,0,1,287.12,336.09Z"/><path class="cls-5" d="M298.75,336.11l-2.92-.55a9,9,0,0,0-.7-1.69l1.69-2.47a.63.63,0,0,0-.07-.77l-2.09-2.08a.62.62,0,0,0-.76-.08l-2.48,1.7a8.86,8.86,0,0,0-1.74-.72l-.54-2.9a.65.65,0,0,0-.6-.5h-3a.64.64,0,0,0-.59.5l-.55,2.93a8.53,8.53,0,0,0-1.67.7l-2.44-1.67a.65.65,0,0,0-.77.07l-2.09,2.09a.65.65,0,0,0-.07.77l1.68,2.45a9.78,9.78,0,0,0-.69,1.67l-2.92.55a.63.63,0,0,0-.49.59v2.95a.63.63,0,0,0,.49.6l2.92.54a9.16,9.16,0,0,0,.7,1.71l-1.66,2.43a.65.65,0,0,0,.07.77l2.09,2.08a.62.62,0,0,0,.77.07l2.43-1.66a9.26,9.26,0,0,0,1.65.69l.55,2.94a.63.63,0,0,0,.59.49h3a.63.63,0,0,0,.6-.49l.54-2.91a9.64,9.64,0,0,0,1.73-.7l2.45,1.68a.65.65,0,0,0,.77-.07l2.09-2.09a.63.63,0,0,0,.07-.77l-1.67-2.44a9.11,9.11,0,0,0,.71-1.73l2.92-.54a.63.63,0,0,0,.49-.6v-2.94A.63.63,0,0,0,298.75,336.11Zm-10.64,7a5.06,5.06,0,1,1,4-4A5.07,5.07,0,0,1,288.11,343.15Z"/><path class="cls-5" d="M321.92,388.88a1.66,1.66,0,1,1-2.2-.79A1.66,1.66,0,0,1,321.92,388.88Z"/><path class="cls-5" d="M325.86,397.2l-.6-2.27a7.07,7.07,0,0,0,1-1.08l2.34.37a.49.49,0,0,0,.53-.31l.78-2.2a.5.5,0,0,0-.21-.57l-2.05-1.2a6.69,6.69,0,0,0-.08-1.48l1.89-1.38a.49.49,0,0,0,.15-.59l-1-2.11a.5.5,0,0,0-.55-.26l-2.29.6a7.34,7.34,0,0,0-1.06-1l.36-2.32a.49.49,0,0,0-.31-.52l-2.2-.79a.51.51,0,0,0-.57.21l-1.19,2a6.91,6.91,0,0,0-1.43.08L318,380.56a.52.52,0,0,0-.6-.15l-2.1,1a.5.5,0,0,0-.26.56l.6,2.27a6.65,6.65,0,0,0-1,1.08l-2.3-.36a.51.51,0,0,0-.53.31l-.78,2.2a.48.48,0,0,0,.21.57l2,1.18a7.41,7.41,0,0,0,.07,1.41L311.39,392a.5.5,0,0,0-.15.6l1,2.11a.49.49,0,0,0,.55.25l2.27-.59a7.21,7.21,0,0,0,1.08,1l-.36,2.33a.49.49,0,0,0,.31.53l2.2.78a.5.5,0,0,0,.57-.21l1.18-2a7.38,7.38,0,0,0,1.48-.07l1.38,1.9a.51.51,0,0,0,.59.15l2.11-1A.5.5,0,0,0,325.86,397.2ZM317.21,392a4,4,0,1,1,4.19,1.5A4,4,0,0,1,317.21,392Z"/><path class="cls-5" d="M595.58,290.32a4.43,4.43,0,1,1-6.14,1.25A4.43,4.43,0,0,1,595.58,290.32Z"/><path class="cls-5" d="M616.09,303.94l-4.52-4.38a18.5,18.5,0,0,0,.74-3.8l5.87-2.39a1.33,1.33,0,0,0,.77-1.44l-1.24-6.12a1.33,1.33,0,0,0-1.27-1l-6.34.1a19.16,19.16,0,0,0-2.25-3.29l2.43-5.77a1.32,1.32,0,0,0-.47-1.56l-5.2-3.45A1.34,1.34,0,0,0,603,271l-4.4,4.54a18.86,18.86,0,0,0-3.77-.72l-2.35-5.8a1.34,1.34,0,0,0-1.45-.77l-6.11,1.25a1.32,1.32,0,0,0-1,1.27l.09,6.3a19.51,19.51,0,0,0-3.16,2.14l-5.8-2.44a1.33,1.33,0,0,0-1.56.47L570,282.45a1.31,1.31,0,0,0,.17,1.62l4.52,4.38a18.8,18.8,0,0,0-.75,3.83l-5.77,2.35a1.32,1.32,0,0,0-.77,1.44l1.25,6.11a1.34,1.34,0,0,0,1.27,1l6.22-.1a20.44,20.44,0,0,0,2.12,3.15l-2.46,5.82a1.33,1.33,0,0,0,.48,1.56l5.2,3.45a1.34,1.34,0,0,0,1.63-.18l4.35-4.49a19.23,19.23,0,0,0,3.87.77l2.37,5.84a1.34,1.34,0,0,0,1.45.77l6.11-1.25a1.32,1.32,0,0,0,1-1.27l-.1-6.27a19.24,19.24,0,0,0,3.28-2.21l5.78,2.44a1.34,1.34,0,0,0,1.57-.47l3.44-5.21A1.31,1.31,0,0,0,616.09,303.94Zm-27,0a10.71,10.71,0,1,1,11.66-2.37A10.73,10.73,0,0,1,589.08,303.93Z"/><text class="cls-6" transform="translate(146.54 77.24)">Gracias a las<tspan class="cls-7" x="104.7" y="0"> </tspan><tspan class="cls-8" x="110.93" y="0">C</tspan><tspan class="cls-9" x="127.3" y="0">ONDICIONES </tspan><tspan class="cls-10"><tspan class="cls-11" x="-13.13" y="28.8">A</tspan><tspan x="4.36" y="28.8">GR</tspan><tspan class="cls-12" x="39.64" y="28.8">O</tspan><tspan x="58.48" y="28.8">CLIM</tspan><tspan class="cls-13" x="118.08" y="28.8">Á</tspan><tspan x="134.3" y="28.8">TI</tspan><tspan class="cls-14" x="155.75" y="28.8">C</tspan><tspan class="cls-15" x="172.31" y="28.8">A</tspan><tspan x="190.12" y="28.8">S</tspan><tspan class="cls-16" x="205.19" y="28.8" xml:space="preserve"> del país, la </tspan></tspan><tspan x="-21.8" y="50.4">producción del plátano se extiende por </tspan><tspan x="36.55" y="79.2">todo el </tspan><tspan class="cls-9" x="99.68" y="79.2">TERRI</tspan><tspan class="cls-17" x="171.7" y="79.2">T</tspan><tspan class="cls-9" x="184.85" y="79.2">ORIO </tspan><tspan class="cls-10"><tspan class="cls-18" x="-32.71" y="108">C</tspan><tspan x="-16.34" y="108">OLOMBIANO</tspan><tspan class="cls-16" x="138.7" y="108" xml:space="preserve"> y la tecnología de los </tspan></tspan><tspan x="-37.01" y="129.6">sistemas productivos varía dependiendo la </tspan><tspan x="23.36" y="151.2">región y el mercado destino. </tspan></text><path class="cls-19" d="M362.31,407A65.65,65.65,0,0,1,346.09,385a63.18,63.18,0,0,1-4.12-12,62.37,62.37,0,0,1-1.22-7.06c-.23-2,0-4.26-.62-6.18-.09-.27-.44-.19-.51.05-.53,1.92,0,4.25.19,6.21a62.48,62.48,0,0,0,1.13,6.54A64.29,64.29,0,0,0,345.6,386a63.46,63.46,0,0,0,6.84,11.23,61,61,0,0,0,9.82,9.78s.08,0,.05-.05Z"/><path class="cls-19" d="M356,401a6.08,6.08,0,0,1-2.65,0,28.11,28.11,0,0,0-6.82-2.21,2.33,2.33,0,0,0-1.59.16,1.06,1.06,0,0,0-.19,1.14,2.17,2.17,0,0,0,.78.84c3.14,2.17,6.7,1,10.59.47Z"/><path class="cls-19" d="M351.72,395.18a12.1,12.1,0,0,1-2.85.28c-2.35-.65-3-1.85-6.66-2.94a2.46,2.46,0,0,0-1.75.06,1.35,1.35,0,0,0-.46,1.29,2.06,2.06,0,0,0,.66,1c2.93,2.73,9.14,1.71,11.14.79Z"/><path class="cls-19" d="M348.58,390.11a2.93,2.93,0,0,1-2.55-.47c-3.17-2.44-3-2.79-6.84-4.77a2.85,2.85,0,0,0-1.88-.35,1.25,1.25,0,0,0-.6,1.25,2.53,2.53,0,0,0,.62,1.23c2.89,3.55,7.73,3.81,11.47,3.58Z"/><path class="cls-19" d="M345.49,384.21c.36,0-2.08-1-3.31-2.18-3.68-3.22-3-4.1-6.59-6.67-.4-.29-1.36-.79-1.84-.63a1.21,1.21,0,0,0-.76,1.16,2.55,2.55,0,0,0,.47,1.33c2.46,4,7.43,5.63,12,7Z"/><path class="cls-19" d="M342.47,375.45c.33-.06-1.74-.28-2.77-1.41-2.76-2.08-2.5-3.72-5.57-6.07-.34-.26-1.17-.72-1.62-.54a1.36,1.36,0,0,0-.77,1.15,2.39,2.39,0,0,0,.34,1.27c2,3.77,8.38,6.31,10.39,5.6Z"/><path class="cls-19" d="M340.69,368.74c.31,0-.92-.72-1.65-1.7-1.68-2.33-2.1-3.32-4.47-5.36a1.91,1.91,0,0,0-1.39-.49,1.55,1.55,0,0,0-.93,1,1.68,1.68,0,0,0,.06,1.07c1.06,3.22,4.84,4.48,8.38,5.52Z"/><path class="cls-19" d="M340.29,363.52c.27.07-.84-.7-1.21-1.83-1.22-2.38-.44-3.41-1.79-5.84-.15-.27-.6-.82-1-.88a1.17,1.17,0,0,0-1,.41,1.33,1.33,0,0,0-.24.85c0,2.87,2.68,5.21,5.24,7.29Z"/><path class="cls-19" d="M357.47,402.37c-.26.14,1-.89,1.14-2.12a22.13,22.13,0,0,1,1-6.26c.1-.34.45-1.06.84-1.2a1.12,1.12,0,0,1,1.11.27,1.67,1.67,0,0,1,.41.94c.56,3.3-2,5.72-4.25,8.6Z"/><path class="cls-19" d="M353.23,397.22a11.22,11.22,0,0,0,1.78-2.15c.73-2.22.07-3.36,1.13-6.86.12-.38.53-1.22,1-1.38a1.37,1.37,0,0,1,1.33.28,1.84,1.84,0,0,1,.5,1.06c.71,3.75-3.51,8.23-5.36,9.37Z"/><path class="cls-19" d="M349.41,391.88a2.78,2.78,0,0,0,1.3-2c.22-3.51-.14-3.6.85-7.3.11-.4.49-1.28,1-1.47a1.35,1.35,0,0,1,1.34.29,2,2,0,0,1,.52,1.1c.81,3.93-2.15,7.37-4.76,9.79Z"/><path class="cls-19" d="M345.56,385c-.33.11,1.3-1.57,1.74-3,1.51-3.94.49-4.33,2.24-7.73.2-.38.76-1.16,1.26-1.24a1.37,1.37,0,0,1,1.25.57,2,2,0,0,1,.27,1.19c-.06,4-3.5,7.29-6.76,10.2Z"/><path class="cls-19" d="M342.93,377.92c-.32.09,1.37-.93,1.72-2.25,1.39-2.77.36-3.95,1.88-7.07.17-.34.67-1,1.15-1.09a1.47,1.47,0,0,1,1.23.59,2,2,0,0,1,.32,1.13c.14,3.78-4.21,8.42-6.3,8.69Z"/><path class="cls-19" d="M341,370.51c-.31.08.58-1,.9-2.19.69-2.79.72-3.86,2.16-6.63.16-.31.65-.93,1.11-1a1.51,1.51,0,0,1,1.22.54,1.77,1.77,0,0,1,.35,1c.21,3.38-2.84,6-5.74,8.23Z"/><path class="cls-19" d="M340.24,364.18c-.26.11.75-.74.93-1.75.83-2.2-.16-2.92.8-5.2a1.79,1.79,0,0,1,.86-.91,1.44,1.44,0,0,1,1.12.16,1.05,1.05,0,0,1,.41.67c.54,2.4-1.84,4.83-4.12,7Z"/><path class="cls-20" d="M363,445.89a58.89,58.89,0,0,0-6.21-9,5.71,5.71,0,0,0,.48-1c.19-.65.29-1.72.52-2.36a14.08,14.08,0,0,0,1-4.63,5.19,5.19,0,0,0-1.84-4.21,1.27,1.27,0,0,0-.8-.31,1.29,1.29,0,0,0-.85.55,6.49,6.49,0,0,0-1.19,2.86c-.48,2.37.18,4.92,1,7.24a65.16,65.16,0,0,0-9.54-8.48,5.45,5.45,0,0,0,.32-.85c.16-.66.19-1.73.38-2.38a14.51,14.51,0,0,0,.78-4.69,5.21,5.21,0,0,0-2.09-4.1,1,1,0,0,0-1.63.34,6.43,6.43,0,0,0-1,2.92c-.37,2.55.57,5.22,1.6,7.6a65.62,65.62,0,0,0-8.63-5,5.92,5.92,0,0,0,.51-1.24c.16-.66.2-1.73.39-2.38a14.23,14.23,0,0,0,.77-4.69,5.2,5.2,0,0,0-2.08-4.1,1.31,1.31,0,0,0-.82-.26,1.28,1.28,0,0,0-.81.6,6.52,6.52,0,0,0-1,2.92c-.38,2.65.65,5.45,1.73,7.9a3.06,3.06,0,0,1,.19.69c-1.68-.8-3.43-1.47-5.15-2.18-2-.69-4.06-1.43-6.16-1.94-.63-.18-1.26-.33-1.9-.49a1.73,1.73,0,0,0,.08-.33c.12-.67.09-1.74.24-2.41a14.24,14.24,0,0,0,.47-4.72,5.19,5.19,0,0,0-2.35-4,1.28,1.28,0,0,0-.82-.21,1.32,1.32,0,0,0-.78.65,6.57,6.57,0,0,0-.84,3c-.19,2.59.93,5.22,2.12,7.54-2.89-.68-5.76-1.27-8.58-2a60.42,60.42,0,0,1-6.72-2.14,6.64,6.64,0,0,0,.84-1c.35-.58.7-1.6,1.07-2.17a14.35,14.35,0,0,0,2.12-4.25,5.22,5.22,0,0,0-.79-4.53,1.37,1.37,0,0,0-.7-.49,1.3,1.3,0,0,0-1,.33,6.47,6.47,0,0,0-1.84,2.5c-1.14,2.42-1,5.4-.66,8.05a10.56,10.56,0,0,1-.06,1.18,28.72,28.72,0,0,1-3.82-2,18.46,18.46,0,0,1-4.58-3.95,15.06,15.06,0,0,1-1.6-2.28,5.79,5.79,0,0,0,1.41-.58c.58-.36,1.36-1.1,1.95-1.43a14.19,14.19,0,0,0,3.83-2.81,5.18,5.18,0,0,0,1.37-4.39,1.23,1.23,0,0,0-.4-.75,1.28,1.28,0,0,0-1-.15,6.6,6.6,0,0,0-2.78,1.37c-2.12,1.64-3.34,4.36-4.28,6.86a7.52,7.52,0,0,1-.56,1,11.56,11.56,0,0,1-.88-2.12,26.75,26.75,0,0,1-1.19-8.85l.2,0a5.64,5.64,0,0,0,1.7-.45c.61-.3,1.47-.95,2.09-1.22a14.16,14.16,0,0,0,4.11-2.38,5.18,5.18,0,0,0,1.84-4.21,1.24,1.24,0,0,0-.31-.79,1.26,1.26,0,0,0-1-.25,6.42,6.42,0,0,0-2.91,1.06c-2.29,1.39-3.8,4-5,6.35a8.88,8.88,0,0,1-.72,1c0-.88.06-1.77.12-2.65.17-2.76.42-5.53.52-8.32h0a5.64,5.64,0,0,0,1.7-.45c.61-.29,1.47-1,2.09-1.21a14.39,14.39,0,0,0,4.11-2.38,5.2,5.2,0,0,0,1.84-4.22,1.26,1.26,0,0,0-.31-.79,1.29,1.29,0,0,0-1-.25,6.58,6.58,0,0,0-2.91,1.06c-2.29,1.4-3.8,4-5,6.36a5.9,5.9,0,0,1-.53.73c0-1.08,0-2.17,0-3.26l-.15-1.61-.07-.8-.15-.79c-.11-.53-.2-1.06-.32-1.59l-.48-1.55a6.09,6.09,0,0,0-.31-.88,20.22,20.22,0,0,0,1.5-1.38c.48-.49,1-.94,1.48-1.4a14.13,14.13,0,0,0,3.08-3.61,5.18,5.18,0,0,0,.33-4.59,1.21,1.21,0,0,0-.56-.64,1.28,1.28,0,0,0-1,.08,6.59,6.59,0,0,0-2.38,2,13.65,13.65,0,0,0-2.74,7.18,8.42,8.42,0,0,1-.3,1.06c-.12-.27-.25-.54-.39-.8a17.27,17.27,0,0,0-1.89-2.68,19.65,19.65,0,0,0-4.43-3.86c.15-.49.21-1.26.31-1.61.2-.65.44-1.29.66-1.93a14.08,14.08,0,0,0,1-4.63,5.19,5.19,0,0,0-1.84-4.21,1.29,1.29,0,0,0-.8-.31,1.27,1.27,0,0,0-.85.55,6.42,6.42,0,0,0-1.19,2.86,14.48,14.48,0,0,0,.65,7.9c0,.06,0,.12.07.19a39.34,39.34,0,0,0-4.4-2.1c-1.37-.56-2.76-1.06-4.15-1.54.08-.42.13-.88.2-1.13.2-.65.44-1.28.66-1.92a14.14,14.14,0,0,0,1-4.64,5.19,5.19,0,0,0-1.84-4.21,1.35,1.35,0,0,0-.8-.31,1.31,1.31,0,0,0-.85.55,6.42,6.42,0,0,0-1.19,2.86,14.47,14.47,0,0,0,.65,7.9s0,.12.07.18c-1.94-.66-3.87-1.3-5.76-2-1.13-.43-2.26-.89-3.36-1.4.17-.36.32-.75.44-.95.36-.58.75-1.13,1.13-1.7a14,14,0,0,0,2.19-4.21,5.19,5.19,0,0,0-.71-4.54,1.26,1.26,0,0,0-.69-.5,1.29,1.29,0,0,0-1,.31,6.61,6.61,0,0,0-1.88,2.46,14.53,14.53,0,0,0-1.38,7.81c0,.11,0,.26.05.42a22.71,22.71,0,0,1-5.41-3.82,19.26,19.26,0,0,1-2.31-2.78c.37-.24.83-.75,1.1-.93.47-.33,1-.64,1.46-.95a12.22,12.22,0,0,0,3.16-2.55,4.46,4.46,0,0,0,1-3.81,1.07,1.07,0,0,0-.37-.63,1.11,1.11,0,0,0-.86-.09,5.61,5.61,0,0,0-2.32,1.29,12.4,12.4,0,0,0-3.76,5.65c-.06.18-.14.45-.22.74-.15-.28-.31-.54-.45-.82a24.6,24.6,0,0,1-2-5.84c0-.23-.08-.47-.12-.69.26-.2.55-.52.73-.64.36-.25.74-.48,1.12-.72a9.26,9.26,0,0,0,2.4-1.95,3.37,3.37,0,0,0,.76-2.9.81.81,0,0,0-.28-.48.83.83,0,0,0-.66-.06,4.27,4.27,0,0,0-1.76,1,9.43,9.43,0,0,0-2.67,3.8,95.09,95.09,0,0,1-.81-9.89h-.23c-.11,2.12-.18,4.24-.15,6.37,0,1.43.1,2.87.25,4.31l-.15-.05c-.4-.18-.79-.38-1.19-.58A9.08,9.08,0,0,0,242,330a3.4,3.4,0,0,0-2.88.85.82.82,0,0,0-.26.49.86.86,0,0,0,.29.6,4.24,4.24,0,0,0,1.75,1,9.53,9.53,0,0,0,5.16.22l.37-.09c0,.23.06.46.1.7a26.09,26.09,0,0,0,1.83,6.24c.11.26.25.5.38.76l-.44-.1c-.55-.19-1.09-.4-1.64-.61a12.35,12.35,0,0,0-3.94-1,4.45,4.45,0,0,0-3.64,1.5,1,1,0,0,0-.28.67,1.07,1.07,0,0,0,.45.74,5.48,5.48,0,0,0,2.42,1.08,12.42,12.42,0,0,0,6.78-.39,8.82,8.82,0,0,0,1.09-.45,18.33,18.33,0,0,0,2.5,3.26,22.09,22.09,0,0,0,4,3.27l-.28-.06a12.06,12.06,0,0,0-4-.47,4.46,4.46,0,0,0-3.42,1.95,1.06,1.06,0,0,0-.19.71,1.08,1.08,0,0,0,.54.67,5.53,5.53,0,0,0,2.55.76,12.42,12.42,0,0,0,6.67-1.27,7.69,7.69,0,0,0,1.09-.64c1.36.68,2.75,1.28,4.14,1.82s2.63,1,3.95,1.42a11.85,11.85,0,0,0-3.86.92,4.45,4.45,0,0,0-2.55,3,1.08,1.08,0,0,0,.06.73,1.11,1.11,0,0,0,.74.45,5.55,5.55,0,0,0,2.65-.16,12.39,12.39,0,0,0,5.84-3.46,5.39,5.39,0,0,0,.37-.4c1.62.54,3.23,1.07,4.81,1.65a47.2,47.2,0,0,1,4.4,1.87h0c-.58.09-1.16.15-1.73.22a12.13,12.13,0,0,0-4,.93,4.42,4.42,0,0,0-2.55,3,.88.88,0,0,0,.8,1.18,5.68,5.68,0,0,0,2.65-.15,12.47,12.47,0,0,0,5.84-3.46,9.36,9.36,0,0,0,.68-.79,19.22,19.22,0,0,1,4.42,3.45,17,17,0,0,1,1.88,2.42c.23.37.42.77.63,1.16-.39,0-.82,0-1.06,0-.58-.08-1.15-.18-1.72-.28a12.34,12.34,0,0,0-4.06-.21,4.47,4.47,0,0,0-3.29,2.17.89.89,0,0,0,.44,1.36,5.5,5.5,0,0,0,2.59.59,12.43,12.43,0,0,0,6.57-1.7,6.54,6.54,0,0,0,1.1-.75c.06.14.12.28.17.43l.51,1.46c.13.5.23,1,.35,1.52l.17.76.1.78.18,1.55c.08,1.22.09,2.44.06,3.66-.39-.2-1.05-.36-1.33-.5-.52-.26-1-.55-1.53-.84a12.19,12.19,0,0,0-3.76-1.54,4.44,4.44,0,0,0-3.83,1,.88.88,0,0,0,0,1.42,5.61,5.61,0,0,0,2.24,1.42,12.47,12.47,0,0,0,6.76.59,5.54,5.54,0,0,0,1.44-.42c-.12,2.63-.4,5.26-.61,7.9-.06.8-.12,1.6-.15,2.41-.37-.21-.84-.4-1.06-.55-.48-.33-.95-.68-1.41-1a12.33,12.33,0,0,0-3.53-2,4.41,4.41,0,0,0-3.91.45,1.06,1.06,0,0,0-.45.57,1.1,1.1,0,0,0,.23.83,5.43,5.43,0,0,0,2,1.7,12.41,12.41,0,0,0,6.62,1.47,6.11,6.11,0,0,0,1.41-.19c0,.91,0,1.84,0,2.76a24.56,24.56,0,0,0,.91,6.41,8.24,8.24,0,0,0,.38,1.19l-.2-.13c-.46-.35-.91-.73-1.35-1.1a12,12,0,0,0-3.42-2.2,4.41,4.41,0,0,0-3.93.24.88.88,0,0,0-.29,1.39,5.41,5.41,0,0,0,1.94,1.8,12.48,12.48,0,0,0,6.54,1.82,7,7,0,0,0,1.41-.13,1.67,1.67,0,0,1,.08.2,18.93,18.93,0,0,0,6.57,7.29c.5.34,1,.65,1.53.95a11.48,11.48,0,0,0-3.7.05,4.45,4.45,0,0,0-3.17,2.33,1.1,1.1,0,0,0-.1.73,1.08,1.08,0,0,0,.62.6,5.53,5.53,0,0,0,2.61.46,12.57,12.57,0,0,0,6.48-2c.15-.11.4-.27.64-.46a54.24,54.24,0,0,0,7,2.41c2.57.73,5.15,1.32,7.71,1.95l-1,.16a12.31,12.31,0,0,0-3.93,1.06,4.47,4.47,0,0,0-2.45,3.09,1.11,1.11,0,0,0,.09.72,1.07,1.07,0,0,0,.76.43,5.54,5.54,0,0,0,2.64-.25,12.42,12.42,0,0,0,5.72-3.65,8.17,8.17,0,0,0,.7-.89l2,.55c2,.55,4,1.27,5.94,1.94l3.1,1.27-.59,0a12.49,12.49,0,0,0-4,.81,4.43,4.43,0,0,0-2.64,2.92,1.07,1.07,0,0,0,0,.73,1.1,1.1,0,0,0,.73.48,5.66,5.66,0,0,0,2.65-.08,12.37,12.37,0,0,0,6-3.27c.11-.12.28-.28.45-.47l0,0a71.57,71.57,0,0,1,8.78,4.87c-.54,0-1.08,0-1.62,0a12.07,12.07,0,0,0-4,.56,4.46,4.46,0,0,0-2.82,2.75,1.08,1.08,0,0,0,0,.73,1.09,1.09,0,0,0,.7.52,5.52,5.52,0,0,0,2.65.09A12.44,12.44,0,0,0,343.7,429a7.52,7.52,0,0,0,.68-.65l.35.23a62.79,62.79,0,0,1,9.54,8.07l.44.48a5,5,0,0,1-.64.08c-.58,0-1.17,0-1.75-.05a12.22,12.22,0,0,0-4.05.33,4.46,4.46,0,0,0-3,2.59.87.87,0,0,0,.62,1.28,5.61,5.61,0,0,0,2.64.25,12.41,12.41,0,0,0,6.29-2.55,7.92,7.92,0,0,0,.89-.79,59.11,59.11,0,0,1,6.26,8.23c1,1.83,2.11,3.63,2.94,5.56l.68,1.43.55,1.48c.36,1,.79,2,1.11,3l.21-.06A52.13,52.13,0,0,0,363,445.89Z"/><path class="cls-20" d="M567,414.39a54.77,54.77,0,0,0,21-8.69,52.9,52.9,0,0,0,8.09-6.77,49.59,49.59,0,0,0,3.92-4.52c1-1.33,1.83-3,3.1-4.14.18-.16.4.05.35.25-.45,1.6-1.8,3.06-2.81,4.36A53.52,53.52,0,0,1,588,406.62a52.82,52.82,0,0,1-9.72,5.07A50.5,50.5,0,0,1,567,414.44s0-.05,0-.05Z"/><path class="cls-20" d="M574.08,412.8a5.33,5.33,0,0,0,1.91,1.12,23.07,23.07,0,0,1,5.83,1.36c.31.11,1,.45,1.06.79a.86.86,0,0,1-.36.9,1.73,1.73,0,0,1-.92.26c-3.17.2-5.23-2.14-7.76-4.22Z"/><path class="cls-20" d="M579.64,410.52a10.06,10.06,0,0,0,1.91,1.42c2,.56,2.94,0,6,.78.34.08,1.08.4,1.23.79a1.13,1.13,0,0,1-.23,1.12,1.59,1.59,0,0,1-.91.44c-3.27.7-7.26-2.71-8.29-4.23Z"/><path class="cls-20" d="M584.06,408.25a2.46,2.46,0,0,0,2,.76c3.31-.37,3.36-.69,6.94-.46.39,0,1.26.21,1.49.56a1.07,1.07,0,0,1-.11,1.16,2.1,2.1,0,0,1-1,.6c-3.6,1.29-7.16-.6-9.73-2.38Z"/><path class="cls-20" d="M588.82,405.37c-.24-.2,1.89.21,3.3-.13,4-.71,3.92-1.63,7.58-1.93.4,0,1.31,0,1.58.34a1,1,0,0,1,0,1.16,2.15,2.15,0,0,1-.91.75c-3.48,1.8-7.73.82-11.59-.19Z"/><path class="cls-20" d="M594.75,400.42c-.21-.19,1.36.54,2.58.18,2.87-.29,3.39-1.58,6.59-1.94.35,0,1.15,0,1.4.32a1.13,1.13,0,0,1,0,1.15,2,2,0,0,1-.78.76c-3,1.85-8.71.9-9.83-.47Z"/><path class="cls-20" d="M598.91,396.39c-.21-.17,1-.12,1.9-.5a18.94,18.94,0,0,1,5.5-1.91,1.61,1.61,0,0,1,1.21.26,1.26,1.26,0,0,1,.25,1.08,1.42,1.42,0,0,1-.5.74c-2.14,1.84-5.39,1.11-8.36.33Z"/><path class="cls-20" d="M601.44,392.83c-.23-.06.9-.13,1.65-.78,1.9-1.18,1.79-2.25,3.8-3.4a1.56,1.56,0,0,1,1.09-.2,1,1,0,0,1,.54.72,1.11,1.11,0,0,1-.2.72c-1.22,2.06-4.16,2.56-6.88,2.94Z"/><path class="cls-20" d="M572.44,413.17a4.26,4.26,0,0,1,.09-2,18.82,18.82,0,0,0,2-4.92,1.77,1.77,0,0,0-.09-1.22,1,1,0,0,0-.91-.28,1.44,1.44,0,0,0-.69.49c-1.82,2.12-1,5-.68,8Z"/><path class="cls-20" d="M577.68,411.33a9.76,9.76,0,0,1-.34-2.3c.43-1.91,1.39-2.43,2.14-5.39a2.05,2.05,0,0,0-.11-1.42,1.14,1.14,0,0,0-1.08-.37,1.56,1.56,0,0,0-.81.54c-2.12,2.37-1,7.39-.21,9Z"/><path class="cls-20" d="M582.71,409.16a2.33,2.33,0,0,1-.06-2c1.35-2.6,1.65-2.51,2.54-5.57a2.13,2.13,0,0,0-.06-1.47,1.1,1.1,0,0,0-1.08-.37,1.64,1.64,0,0,0-.85.56c-2.26,2.46-1.64,6.19-.81,9Z"/><path class="cls-20" d="M588.42,405.89c.2.23-.25-1.68.06-2.88.61-3.46,1.51-3.3,1.72-6.49a2.06,2.06,0,0,0-.36-1.42,1.1,1.1,0,0,0-1.14-.13,1.67,1.67,0,0,0-.71.73c-1.68,2.89-.64,6.71.43,10.19Z"/><path class="cls-20" d="M593.35,402c.19.2-.57-1.26-.25-2.35.2-2.57,1.44-3,1.7-5.85,0-.32,0-1-.35-1.28a1.22,1.22,0,0,0-1.14-.11,1.73,1.73,0,0,0-.72.67c-1.72,2.64-.61,7.83.76,8.92Z"/><path class="cls-20" d="M597.92,397.51c.19.19,0-1,.3-1.94a19.43,19.43,0,0,0,1.31-5.67,1.53,1.53,0,0,0-.38-1.17,1.24,1.24,0,0,0-1.1-.14,1.35,1.35,0,0,0-.68.58c-1.61,2.32-.54,5.47.55,8.34Z"/><path class="cls-20" d="M601.19,393.32c.14.2-.22-.84.09-1.64.36-1.94,1.38-2,1.67-4.06a1.51,1.51,0,0,0-.22-1,1.15,1.15,0,0,0-.87-.37.89.89,0,0,0-.58.3c-1.42,1.48-.77,4.24-.09,6.79Z"/><path class="cls-5" d="M570.41,447.88a49.33,49.33,0,0,1,5.17-7.51,5.12,5.12,0,0,1-.39-.85c-.17-.54-.25-1.43-.44-2a12,12,0,0,1-.87-3.86,4.35,4.35,0,0,1,1.54-3.51,1,1,0,0,1,.66-.26,1.05,1.05,0,0,1,.71.46,5.37,5.37,0,0,1,1,2.38,11.73,11.73,0,0,1-.84,6,55.68,55.68,0,0,1,8-7.07,3.48,3.48,0,0,1-.26-.71c-.14-.55-.17-1.44-.33-2a11.87,11.87,0,0,1-.64-3.91,4.31,4.31,0,0,1,1.74-3.41,1,1,0,0,1,.67-.22,1.05,1.05,0,0,1,.69.5,5.45,5.45,0,0,1,.85,2.43,12.22,12.22,0,0,1-1.34,6.34,55,55,0,0,1,7.2-4.17,4.47,4.47,0,0,1-.42-1c-.14-.55-.17-1.45-.33-2a11.91,11.91,0,0,1-.64-3.91,4.33,4.33,0,0,1,1.74-3.42,1.1,1.1,0,0,1,.67-.22,1.12,1.12,0,0,1,.69.5,5.53,5.53,0,0,1,.85,2.44c.31,2.21-.54,4.54-1.44,6.59a2.31,2.31,0,0,0-.16.57c1.4-.66,2.86-1.23,4.3-1.81,1.7-.58,3.38-1.2,5.13-1.63l1.58-.4c0-.1-.05-.2-.06-.28-.1-.56-.08-1.45-.2-2a12,12,0,0,1-.39-3.94,4.33,4.33,0,0,1,2-3.3.85.85,0,0,1,1.34.36,5.51,5.51,0,0,1,.7,2.49c.17,2.15-.77,4.35-1.77,6.28,2.41-.56,4.81-1.05,7.16-1.67a52.32,52.32,0,0,0,5.61-1.78,4.73,4.73,0,0,1-.7-.86c-.29-.48-.59-1.33-.9-1.8a12,12,0,0,1-1.76-3.55,4.36,4.36,0,0,1,.65-3.78,1.08,1.08,0,0,1,.59-.4,1.07,1.07,0,0,1,.8.27A5.47,5.47,0,0,1,620,410.4c1,2,.82,4.5.56,6.72a5.88,5.88,0,0,0,0,1,23.18,23.18,0,0,0,3.17-1.64,15.15,15.15,0,0,0,3.83-3.3,12.68,12.68,0,0,0,1.33-1.9,5.21,5.21,0,0,1-1.18-.48c-.48-.3-1.12-.92-1.62-1.2a11.73,11.73,0,0,1-3.19-2.34,4.31,4.31,0,0,1-1.15-3.66,1.08,1.08,0,0,1,.33-.63,1.1,1.1,0,0,1,.84-.12A5.45,5.45,0,0,1,625.3,404c1.77,1.36,2.78,3.63,3.57,5.72a5.62,5.62,0,0,0,.47.8,9.33,9.33,0,0,0,.73-1.76,22.57,22.57,0,0,0,1-7.39l-.16,0a4.61,4.61,0,0,1-1.42-.38c-.51-.24-1.22-.79-1.74-1a12,12,0,0,1-3.43-2,4.34,4.34,0,0,1-1.54-3.52,1.1,1.1,0,0,1,.26-.66,1.07,1.07,0,0,1,.82-.21,5.39,5.39,0,0,1,2.43.89c1.91,1.16,3.16,3.31,4.17,5.3a6.39,6.39,0,0,0,.6.81c0-.73-.06-1.47-.11-2.21-.14-2.3-.34-4.61-.43-6.94h0a4.66,4.66,0,0,1-1.42-.37c-.51-.25-1.22-.79-1.74-1a12,12,0,0,1-3.43-2,4.3,4.3,0,0,1-1.53-3.51,1,1,0,0,1,.26-.66,1.06,1.06,0,0,1,.81-.21,5.38,5.38,0,0,1,2.43.88c1.91,1.17,3.16,3.31,4.17,5.3a4.56,4.56,0,0,0,.44.62q0-1.36,0-2.73l.13-1.33.06-.67.13-.67c.08-.44.16-.88.26-1.32l.4-1.3a4.89,4.89,0,0,1,.26-.73,15.3,15.3,0,0,1-1.25-1.15c-.4-.4-.82-.78-1.24-1.17a11.91,11.91,0,0,1-2.57-3,4.3,4.3,0,0,1-.27-3.82,1,1,0,0,1,.46-.54,1.07,1.07,0,0,1,.84.07,5.49,5.49,0,0,1,2,1.65,11.35,11.35,0,0,1,2.27,6,8.06,8.06,0,0,0,.26.88c.1-.22.21-.45.33-.66a13.45,13.45,0,0,1,1.57-2.24,16.66,16.66,0,0,1,3.69-3.22c-.12-.41-.17-1.05-.26-1.34-.16-.54-.36-1.07-.55-1.61a11.75,11.75,0,0,1-.86-3.86,4.29,4.29,0,0,1,1.54-3.51,1,1,0,0,1,.66-.26,1.05,1.05,0,0,1,.71.46,5.35,5.35,0,0,1,1,2.38,12.13,12.13,0,0,1-.54,6.59l-.06.16a32.4,32.4,0,0,1,3.67-1.75c1.14-.47,2.3-.88,3.46-1.29-.06-.35-.11-.73-.17-.94-.16-.54-.36-1.07-.55-1.6a12.14,12.14,0,0,1-.87-3.87,4.36,4.36,0,0,1,1.54-3.51,1.14,1.14,0,0,1,.67-.26,1.11,1.11,0,0,1,.71.46,5.51,5.51,0,0,1,1,2.39,12.1,12.1,0,0,1-.54,6.58l-.06.15c1.62-.55,3.23-1.08,4.8-1.67.95-.36,1.89-.75,2.8-1.17a6.78,6.78,0,0,0-.37-.79c-.29-.48-.62-.95-.94-1.42a11.86,11.86,0,0,1-1.82-3.51,4.34,4.34,0,0,1,.6-3.79,1,1,0,0,1,.57-.42,1.08,1.08,0,0,1,.8.26,5.5,5.5,0,0,1,1.57,2.06,12.08,12.08,0,0,1,1.16,6.51c0,.09,0,.22,0,.35a18.63,18.63,0,0,0,4.5-3.19,15.33,15.33,0,0,0,1.93-2.32c-.3-.2-.69-.62-.91-.77-.4-.28-.81-.53-1.23-.79a10.25,10.25,0,0,1-2.63-2.13,3.69,3.69,0,0,1-.83-3.18.9.9,0,0,1,.31-.53.87.87,0,0,1,.71-.06,4.64,4.64,0,0,1,1.94,1.07,10.36,10.36,0,0,1,3.14,4.71c0,.15.11.37.17.61.13-.22.27-.45.39-.68a21.39,21.39,0,0,0,1.67-4.87c0-.19.06-.39.1-.58-.21-.16-.46-.43-.61-.53-.3-.21-.62-.4-.93-.6a7.7,7.7,0,0,1-2-1.62,2.8,2.8,0,0,1-.63-2.42.68.68,0,0,1,.23-.4.7.7,0,0,1,.55-.05,3.55,3.55,0,0,1,1.47.81A7.9,7.9,0,0,1,667,352a80.72,80.72,0,0,0,.68-8.25h.18c.1,1.77.16,3.54.13,5.32,0,1.19-.08,2.4-.21,3.59l.13,0c.33-.15.66-.32,1-.48a7.63,7.63,0,0,1,2.43-.88,2.84,2.84,0,0,1,2.4.71.69.69,0,0,1,.22.41.72.72,0,0,1-.24.5,3.61,3.61,0,0,1-1.46.83,7.9,7.9,0,0,1-4.31.19l-.31-.08c0,.19,0,.39-.08.58a21.91,21.91,0,0,1-1.53,5.21c-.09.21-.2.42-.31.63.14,0,.27,0,.36-.08.46-.16.91-.33,1.37-.51a10.2,10.2,0,0,1,3.29-.82,3.73,3.73,0,0,1,3,1.24,1,1,0,0,1,.23.57.92.92,0,0,1-.38.61,4.47,4.47,0,0,1-2,.9,10.35,10.35,0,0,1-5.65-.32,6.43,6.43,0,0,1-.91-.38,14.47,14.47,0,0,1-2.09,2.72,18,18,0,0,1-3.37,2.73l.24-.05a10.15,10.15,0,0,1,3.37-.4,3.74,3.74,0,0,1,2.85,1.63.91.91,0,0,1,.16.59.88.88,0,0,1-.46.56,4.57,4.57,0,0,1-2.12.64,10.49,10.49,0,0,1-5.56-1.06,6.08,6.08,0,0,1-.91-.54c-1.13.57-2.3,1.07-3.45,1.52s-2.2.81-3.3,1.19a9.84,9.84,0,0,1,3.22.76,3.74,3.74,0,0,1,2.13,2.5.91.91,0,0,1,0,.61,1,1,0,0,1-.62.38,4.73,4.73,0,0,1-2.21-.13,10.35,10.35,0,0,1-4.87-2.89l-.31-.33c-1.35.44-2.69.89-4,1.38a38,38,0,0,0-3.67,1.55h0l1.44.18a10,10,0,0,1,3.3.77,3.72,3.72,0,0,1,2.13,2.5.91.91,0,0,1,0,.61.92.92,0,0,1-.62.38,4.75,4.75,0,0,1-2.21-.13,10.35,10.35,0,0,1-4.87-2.89,7.24,7.24,0,0,1-.57-.65,15.78,15.78,0,0,0-3.68,2.88,13.92,13.92,0,0,0-1.57,2c-.19.32-.35.65-.52,1a8.15,8.15,0,0,0,.88,0c.48-.06,1-.15,1.44-.23a10.12,10.12,0,0,1,3.38-.17,3.71,3.71,0,0,1,2.74,1.81.84.84,0,0,1,.12.6.88.88,0,0,1-.49.53,4.68,4.68,0,0,1-2.15.49,10.49,10.49,0,0,1-5.49-1.41,6.61,6.61,0,0,1-.91-.63c-.05.12-.1.23-.14.35l-.43,1.22c-.11.42-.19.85-.29,1.27l-.14.63-.08.65-.15,1.3c-.07,1-.08,2-.05,3.05.32-.16.87-.3,1.11-.42.43-.22.85-.46,1.27-.69a10.24,10.24,0,0,1,3.14-1.3,3.72,3.72,0,0,1,3.19.8.86.86,0,0,1,.31.52.92.92,0,0,1-.28.67,4.77,4.77,0,0,1-1.87,1.18,10.34,10.34,0,0,1-5.64.49,4.76,4.76,0,0,1-1.2-.35c.1,2.19.33,4.39.51,6.59,0,.67.09,1.34.13,2,.3-.17.69-.34.88-.46.4-.27.79-.57,1.17-.86a10.17,10.17,0,0,1,2.94-1.69,3.72,3.72,0,0,1,3.27.37.94.94,0,0,1,.38.48.92.92,0,0,1-.2.69,4.52,4.52,0,0,1-1.7,1.42,10.32,10.32,0,0,1-5.52,1.23,5.14,5.14,0,0,1-1.18-.17c0,.77,0,1.54,0,2.31A20.4,20.4,0,0,1,631,409a6,6,0,0,1-.31,1l.17-.11c.38-.29.75-.61,1.13-.92a10.24,10.24,0,0,1,2.85-1.84,3.72,3.72,0,0,1,3.27.2.91.91,0,0,1,.41.46,1,1,0,0,1-.16.71,4.61,4.61,0,0,1-1.63,1.5,10.37,10.37,0,0,1-5.45,1.51,5.12,5.12,0,0,1-1.17-.1,1.11,1.11,0,0,0-.07.16,16.09,16.09,0,0,1-1.46,2.34,15.59,15.59,0,0,1-4,3.75c-.42.28-.85.54-1.28.79a9.42,9.42,0,0,1,3.09,0,3.73,3.73,0,0,1,2.64,1.95.93.93,0,0,1,.09.61.91.91,0,0,1-.52.5,4.6,4.6,0,0,1-2.18.38,10.39,10.39,0,0,1-5.4-1.69c-.13-.09-.33-.22-.53-.38a47,47,0,0,1-5.85,2c-2.14.6-4.3,1.1-6.43,1.63l.8.12a10.11,10.11,0,0,1,3.27.89,3.73,3.73,0,0,1,2.05,2.57,1,1,0,0,1-.07.61.93.93,0,0,1-.63.35,4.62,4.62,0,0,1-2.21-.2,10.36,10.36,0,0,1-4.77-3.05,7.3,7.3,0,0,1-.59-.74l-1.68.46c-1.68.46-3.31,1.06-4.95,1.62-.86.35-1.73.7-2.58,1.06l.48,0a10.34,10.34,0,0,1,3.32.68,3.73,3.73,0,0,1,2.21,2.43.74.74,0,0,1-.64,1,4.72,4.72,0,0,1-2.21-.06,10.37,10.37,0,0,1-5-2.74l-.37-.38h0a60,60,0,0,0-7.32,4.06l1.35,0a10,10,0,0,1,3.35.47,3.69,3.69,0,0,1,2.35,2.3.91.91,0,0,1,0,.61,1,1,0,0,1-.58.43,4.72,4.72,0,0,1-2.21.07,10.45,10.45,0,0,1-5.12-2.42,6.83,6.83,0,0,1-.57-.55l-.29.19a52.15,52.15,0,0,0-8,6.73l-.37.41a4.28,4.28,0,0,0,.53.06c.49,0,1,0,1.46,0a10.11,10.11,0,0,1,3.38.28,3.68,3.68,0,0,1,2.47,2.15.86.86,0,0,1,0,.61.88.88,0,0,1-.55.46,4.55,4.55,0,0,1-2.2.21,10.31,10.31,0,0,1-5.25-2.13,6.21,6.21,0,0,1-.75-.65,49.16,49.16,0,0,0-5.21,6.86c-.85,1.53-1.76,3-2.46,4.64l-.56,1.19-.46,1.23c-.3.83-.66,1.64-.93,2.48l-.17-.05A43.07,43.07,0,0,1,570.41,447.88Z"/><path class="cls-21" d="M399,457.65h-33.2a2.93,2.93,0,0,1,0-5.86H397.2l54.34-111.93a2.93,2.93,0,0,1,5.27,2.56L401.67,456A2.94,2.94,0,0,1,399,457.65Z"/><path class="cls-21" d="M421.22,457.65a2.93,2.93,0,0,1-2.64-4.21l55.15-113.58a2.93,2.93,0,0,1,5.27,2.56L423.85,456A2.92,2.92,0,0,1,421.22,457.65Z"/><path class="cls-21" d="M443.4,457.65a2.87,2.87,0,0,1-1.27-.29,2.93,2.93,0,0,1-1.36-3.92l55.14-113.58a2.93,2.93,0,0,1,5.27,2.56L446,456A2.94,2.94,0,0,1,443.4,457.65Z"/><path class="cls-21" d="M465.59,457.65a2.92,2.92,0,0,1-2.63-4.21L518.1,339.86a2.93,2.93,0,0,1,5.27,2.56L468.23,456A3,3,0,0,1,465.59,457.65Z"/><path class="cls-21" d="M487.77,457.65a2.87,2.87,0,0,1-1.27-.29,2.94,2.94,0,0,1-1.36-3.92l55.15-113.58a2.93,2.93,0,0,1,5.27,2.56L490.41,456A2.94,2.94,0,0,1,487.77,457.65Z"/><path class="cls-21" d="M565.11,457.65H510a2.92,2.92,0,0,1-2.63-4.21l53.1-109.37h-198a2.93,2.93,0,0,1,0-5.86H565.11a2.93,2.93,0,0,1,2.63,4.21l-53.1,109.37h50.47a2.93,2.93,0,0,1,0,5.86Z"/><path class="cls-21" d="M446.06,360.3H365.83a2.93,2.93,0,0,1,0-5.86h80.23a2.93,2.93,0,0,1,0,5.86Z"/><path class="cls-21" d="M438.15,376.52H365.83a2.93,2.93,0,1,1,0-5.85h72.32a2.93,2.93,0,1,1,0,5.85Z"/><path class="cls-21" d="M430.47,392.75H365.83a2.93,2.93,0,0,1,0-5.86h64.64a2.93,2.93,0,0,1,0,5.86Z"/><path class="cls-21" d="M418.71,409H365.83a2.93,2.93,0,1,1,0-5.85h52.88a2.93,2.93,0,1,1,0,5.85Z"/><path class="cls-21" d="M414.19,425.2H365.83a2.93,2.93,0,0,1,0-5.86h48.36a2.93,2.93,0,0,1,0,5.86Z"/><path class="cls-21" d="M406.4,441.43H365.83a2.93,2.93,0,0,1,0-5.86H406.4a2.93,2.93,0,0,1,0,5.86Z"/><path class="cls-21" d="M441.2,281.24a2.93,2.93,0,0,1-2.93-2.93V261.93a2.93,2.93,0,0,1,5.86,0v16.38A2.93,2.93,0,0,1,441.2,281.24Z"/><path class="cls-21" d="M459.75,284.51a2.91,2.91,0,0,1-2.75-3.93l5.6-15.39a2.93,2.93,0,1,1,5.51,2l-5.6,15.39A2.94,2.94,0,0,1,459.75,284.51Z"/><path class="cls-21" d="M476.06,293.93a2.88,2.88,0,0,1-1.87-.68,2.92,2.92,0,0,1-.36-4.13l10.53-12.55a2.92,2.92,0,0,1,4.48,3.76l-10.53,12.55A2.9,2.9,0,0,1,476.06,293.93Z"/><path class="cls-21" d="M488.18,308.36a2.93,2.93,0,0,1-1.47-5.46l14.19-8.19a2.93,2.93,0,0,1,2.93,5.07L489.64,308A2.86,2.86,0,0,1,488.18,308.36Z"/><path class="cls-21" d="M387.79,326.06a2.92,2.92,0,0,1-.51,0l-16.14-2.85a2.92,2.92,0,1,1,1-5.76l16.13,2.84a2.93,2.93,0,0,1-.5,5.81Z"/><path class="cls-21" d="M394.22,308.36a2.88,2.88,0,0,1-1.46-.39l-14.19-8.19a2.93,2.93,0,0,1,2.93-5.07l14.19,8.19a2.93,2.93,0,0,1-1.47,5.46Z"/><path class="cls-21" d="M406.34,293.93a2.9,2.9,0,0,1-2.25-1.05l-10.53-12.55a2.93,2.93,0,0,1,4.49-3.76l10.53,12.55a2.92,2.92,0,0,1-2.24,4.81Z"/><path class="cls-21" d="M422.65,284.51a2.92,2.92,0,0,1-2.75-1.93l-5.61-15.39a2.93,2.93,0,1,1,5.51-2l5.6,15.39a2.91,2.91,0,0,1-2.75,3.93Z"/><path class="cls-21" d="M482.36,344.07H400.05a2.92,2.92,0,0,1-2.87-2.33,45,45,0,1,1,88,0A2.92,2.92,0,0,1,482.36,344.07Zm-79.86-5.86h77.4a39.67,39.67,0,0,0,.41-5.65,39.11,39.11,0,0,0-78.22,0A39.56,39.56,0,0,0,402.5,338.21Z"/><path class="cls-21" d="M507.77,344.07H494.62a2.92,2.92,0,0,1-2.93-3c.18-11.1,6.69-22.48,7-23a2.91,2.91,0,0,1,2.53-1.46,3,3,0,0,1,2.54,1.46c.28.48,6.79,11.86,7,23a2.92,2.92,0,0,1-2.92,3Zm-10-5.86h6.85a46.89,46.89,0,0,0-3.43-11.89A46.49,46.49,0,0,0,497.77,338.21Z"/><path class="cls-21" d="M523.9,344.07H510.76a2.92,2.92,0,0,1-2.93-3c.17-11.1,6.69-22.48,7-23a3,3,0,0,1,5.06,0c.28.48,6.8,11.86,7,23a2.92,2.92,0,0,1-2.93,3Zm-10-5.86h6.85a46.46,46.46,0,0,0-3.42-11.9A47,47,0,0,0,513.9,338.21Z"/><path class="cls-21" d="M540,344.07H526.89a3,3,0,0,1-2.09-.87,3,3,0,0,1-.84-2.1c.18-11.1,6.69-22.48,7-23a3,3,0,0,1,5.07,0c.28.48,6.79,11.86,7,23a2.92,2.92,0,0,1-2.93,3Zm-10-5.86h6.85a46.09,46.09,0,0,0-3.43-11.89A47.31,47.31,0,0,0,530,338.21Z"/><path class="cls-21" d="M556.17,344.07H543a2.92,2.92,0,0,1-2.93-3c.17-11.1,6.69-22.48,7-23a3,3,0,0,1,5.07,0c.27.48,6.79,11.86,7,23a2.92,2.92,0,0,1-2.93,3Zm-10-5.86H553a46.86,46.86,0,0,0-3.42-11.9A46.17,46.17,0,0,0,546.18,338.21Z"/><path class="cls-21" d="M565.11,441.43H517.84a2.93,2.93,0,0,1,0-5.86h47.27a2.93,2.93,0,0,1,0,5.86Z"/><path class="cls-21" d="M565.11,425.2H526.2a2.93,2.93,0,0,1,0-5.86h38.91a2.93,2.93,0,0,1,0,5.86Z"/><path class="cls-21" d="M565.11,409H534.36a2.93,2.93,0,1,1,0-5.85h30.75a2.93,2.93,0,0,1,0,5.85Z"/><path class="cls-21" d="M565.11,392.75H541.47a2.93,2.93,0,0,1,0-5.86h23.64a2.93,2.93,0,0,1,0,5.86Z"/><path class="cls-21" d="M565.11,376.52H549.35a2.93,2.93,0,1,1,0-5.85h15.76a2.93,2.93,0,0,1,0,5.85Z"/><path class="cls-21" d="M565.11,360.3h-7.88a2.93,2.93,0,0,1,0-5.86h7.88a2.93,2.93,0,0,1,0,5.86Z"/><rect class="cls-2" width="674" height="458"/><path class="cls-5" d="M0,381.28S80.13,376,79.56,458H0Z"/><text class="cls-22" transform="translate(17.3 440.96)">2</text></svg>