<svg id="Capa_1" data-name="Capa 1" xmlns="http://www.w3.org/2000/svg" viewBox="0 0 584 677"><defs><style>.cls-1{fill:#fff4d2;}.cls-2{fill:#49bff2;}.cls-3{fill:#006064;}.cls-4{fill:#9cd8d0;}.cls-5{fill:#ffe082;}.cls-6{fill:#80cbc4;}.cls-10,.cls-7{font-size:16px;}.cls-7{font-family:Montserrat-Bold, Montserrat;}.cls-13,.cls-7{font-weight:700;}.cls-8{letter-spacing:-0.01em;}.cls-9{letter-spacing:0em;}.cls-10{font-family:OpenSans, Open Sans;}.cls-11{letter-spacing:-0.01em;}.cls-12{letter-spacing:0em;}.cls-13{font-size:19.61px;fill:#3591ed;font-family:OpenSans-Bold, Open Sans;}</style></defs><rect class="cls-1" width="584" height="48"/><rect class="cls-2" x="97.75" y="126" width="4" height="479"/><rect class="cls-2" x="417.5" y="126" width="4" height="479"/><rect class="cls-3" x="199" y="195.5" width="80.5" height="4"/><rect class="cls-3" x="199" y="326.5" width="80.5" height="4"/><rect class="cls-3" x="199" y="443.5" width="80.5" height="4"/><rect class="cls-3" x="199" y="594.5" width="80.5" height="4"/><rect class="cls-4" x="256.5" y="152" width="327" height="120"/><rect class="cls-5" x="256.5" y="72" width="327" height="54"/><polygon class="cls-5" points="208.5 126 0.5 126 0.5 72 208.5 72 224.5 99 208.5 126"/><polygon class="cls-6" points="208.5 224 0.5 224 0.5 170 208.5 170 224.5 197 208.5 224"/><rect class="cls-4" x="256.5" y="285" width="327" height="102"/><polygon class="cls-6" points="208.5 357 0.5 357 0.5 303 208.5 303 224.5 330 208.5 357"/><rect class="cls-4" x="256.5" y="400" width="327" height="102"/><polygon class="cls-6" points="208.5 472 0.5 472 0.5 418 208.5 418 224.5 445 208.5 472"/><rect class="cls-4" x="256.5" y="515" width="327" height="162"/><polygon class="cls-6" points="208.5 623 0.5 623 0.5 569 208.5 569 224.5 596 208.5 623"/><text class="cls-7" transform="translate(44 103.8)">G<tspan class="cls-8" x="12" y="0">r</tspan><tspan x="18.5" y="0">ad</tspan><tspan class="cls-9" x="38.66" y="0">o</tspan><tspan x="48.96" y="0">s de calidad</tspan></text><text class="cls-10" transform="translate(44 203.62)">Calidad extra</text><text class="cls-10" transform="translate(44 450.62)">Calidad segunda</text><text class="cls-10" transform="translate(44 335.62)">Calidad primera</text><text class="cls-10" transform="translate(26 604.62)">Grado muestra descarte</text><text class="cls-7" transform="translate(371.11 103.8)"><tspan class="cls-11">C</tspan><tspan x="11.62" y="0">a</tspan><tspan class="cls-8" x="21.12" y="0">r</tspan><tspan x="27.62" y="0">acterí</tspan><tspan class="cls-12" x="74.61" y="0">s</tspan><tspan x="82.86" y="0">ticas</tspan></text><text class="cls-10" transform="translate(266.7 181.53)">Bien formados, 3/4 de lleno, con <tspan x="0" y="19.2">color uniforme y pedúnculo bien </tspan><tspan x="0" y="38.4">cortado. Para el caso del hartón la </tspan><tspan x="0" y="57.6">longitud del dedo no puede ser </tspan><tspan x="0" y="76.8">inferior a 25 cm.</tspan></text><text class="cls-10" transform="translate(266.7 315.53)">Bien formados. Solo podrán <tspan x="0" y="19.2">presentar daños superficiales y no </tspan><tspan x="0" y="38.4">presentar daños entre aristas. </tspan></text><text class="cls-10" transform="translate(266.7 429.53)">Podrán presentar daños <tspan x="0" y="19.2">superficiales, pero no manchas en </tspan><tspan x="0" y="38.4">más de una tercera parte de su </tspan><tspan x="0" y="57.6">superficie total.</tspan></text><text class="cls-10" transform="translate(266.7 543.53)">Comprende todos los plátanos de <tspan x="0" y="19.2">cualquier variedad que no cumplan </tspan><tspan x="0" y="38.4">los requisitos de las calidades </tspan><tspan x="0" y="57.6">anteriores o que sean muy </tspan><tspan x="0" y="76.8">pequeños, totalmente deformes, </tspan><tspan x="0" y="96">quebrados y que presenten daños </tspan><tspan x="0" y="115.2">biológicos apreciables.</tspan></text><text class="cls-13" transform="translate(153.9 32.75)">GRADOS Y CARACTERÍSTICAS</text></svg>