<svg id="Capa_1" data-name="Capa 1" xmlns="http://www.w3.org/2000/svg" viewBox="0 0 88 88"><defs><style>.cls-1{fill:#ffe082;}.cls-2{fill:#8d6e63;}</style></defs><ellipse class="cls-1" cx="44" cy="44" rx="43.76" ry="43.78" transform="translate(-0.05 87.95) rotate(-89.94)"/><path class="cls-2" d="M42.48,69.58A133.25,133.25,0,0,1,17.76,68.2a1.08,1.08,0,0,1-.91-1.14,1.09,1.09,0,0,1,1.07-1c.4,0,39.85.32,47.94-31.9a1,1,0,0,1,.53-.68,1,1,0,0,1,.85-.06l4.35,1.63a1.06,1.06,0,0,1,.6.59c.22.53,5.3,13.09-2.17,23C65,65.21,55.82,68.87,42.48,69.58ZM28.36,67.19c20.2,1.49,33.92-1.86,40-9.86s2.85-18.24,2.07-20.44l-2.81-1C61.42,58,41,65,28.36,67.19Z"/><path class="cls-2" d="M30,69.42H29.8a1.05,1.05,0,0,1-1.1-1,1.07,1.07,0,0,1,1-1.11h.08c1.45-.08,26.95-1.72,35-20.06a1,1,0,0,1,1.38-.54,1.07,1.07,0,0,1,.54,1.41C58.24,67.38,32.91,69.27,30,69.42Z"/><path class="cls-2" d="M72.28,31.11a1,1,0,0,1-.38-.05L67,29.43a1.06,1.06,0,0,1-.67-1.35,1,1,0,0,1,1.33-.68L72.56,29a1.08,1.08,0,0,1,.67,1.35A1.06,1.06,0,0,1,72.28,31.11Z"/><path class="cls-2" d="M45,21.35a1.07,1.07,0,0,0-.16.85C48.46,37.77,42.2,50,34.69,58.61c1.08-.25,2.28-.58,3.56-1C45,49,50.12,37.36,47.18,22.87l3-.37c1.68,1.58,9.17,9.25,7.44,19.11A18.7,18.7,0,0,1,55.77,47a44.32,44.32,0,0,0,3.78-4.37c0-.21.09-.41.13-.62,2.14-12.25-8.07-21-8.51-21.4a1,1,0,0,0-.8-.24l-4.6.58A1.06,1.06,0,0,0,45,21.35Z"/><path class="cls-2" d="M51.09,50.12l-1.88-1c3.26-6.63,2-16.53,2-16.63l2.08-.28C53.38,32.68,54.65,42.9,51.09,50.12Z"/><polygon class="cls-2" points="44.22 19.68 43.85 17.57 49.97 16.49 50.33 18.6 44.22 19.68"/></svg>