<svg id="Capa_1" data-name="Capa 1" xmlns="http://www.w3.org/2000/svg" xmlns:xlink="http://www.w3.org/1999/xlink" viewBox="0 0 940 286"><defs><style>.cls-1{fill:none;}.cls-2{clip-path:url(#clip-path);}.cls-3{fill:#80cbc4;}.cls-4{fill:#ffe082;}.cls-5{fill:#7cb342;}.cls-6{font-size:16px;font-family:OpenSans, Open Sans;}.cls-7{fill:#8d6e63;}</style><clipPath id="clip-path"><rect class="cls-1" x="-0.23" width="939.93" height="285.38"/></clipPath></defs><g class="cls-2"><rect class="cls-3" x="566.18" y="54.59" width="178.45" height="231"/><ellipse class="cls-4" cx="659.42" cy="48.15" rx="43.76" ry="43.78" transform="translate(610.52 707.51) rotate(-89.94)"/><rect class="cls-3" x="378.88" y="54.53" width="170.44" height="231"/><ellipse class="cls-4" cx="460.32" cy="48.09" rx="43.76" ry="43.78" transform="translate(411.71 508.35) rotate(-89.94)"/><polygon class="cls-5" points="568.95 96.63 541.11 80.56 541.1 112.69 568.95 96.63"/><rect class="cls-3" x="191.51" y="54.47" width="170.44" height="231"/><ellipse class="cls-4" cx="274.23" cy="48.03" rx="43.76" ry="43.78" transform="translate(225.89 322.2) rotate(-89.94)"/><polygon class="cls-5" points="382.01 96.01 354.18 79.93 354.17 112.07 382.01 96.01"/><text class="cls-6" transform="translate(203.58 117.17) rotate(0.02)">Seleccionar la <tspan x="0" y="19.2">planta vecina que </tspan><tspan x="0" y="38.4">servirá de soporte.</tspan></text><text class="cls-6" transform="translate(386.47 117.17) rotate(0.02)">Realizar el amarre <tspan x="0" y="19.2">en la base de los </tspan><tspan x="0" y="38.4">peciolos entre la </tspan><tspan x="0" y="57.6">tercera y cuarta </tspan><tspan x="0" y="76.8">hoja, a través de un </tspan><tspan x="0" y="96">nudo holgado, firme </tspan><tspan x="0" y="115.2">y fácil de soltar.</tspan></text><text class="cls-6" transform="translate(573.54 117.17) rotate(0.02)">Sujetar el extremo de <tspan x="0" y="19.2">la cuerda a </tspan><tspan x="0" y="38.4">aproximadamente a </tspan><tspan x="0" y="57.6">70 cm de altura del </tspan><tspan x="0" y="76.8">pseudotallo de la </tspan><tspan x="0" y="96">planta vecina, de tal </tspan><tspan x="0" y="115.2">modo que se forme </tspan><tspan x="0" y="134.4">entre las dos plantas </tspan><tspan x="0" y="153.6">un ángulo de 45 a 60º.</tspan></text><rect class="cls-3" x="1.27" y="54.4" width="174.42" height="231"/><text class="cls-6" transform="translate(16.49 117.17) rotate(0.02)">Establecer la <tspan x="0" y="19.2">dirección de la </tspan><tspan x="0" y="38.4">inclinación de la </tspan><tspan x="0" y="57.6">caída de la planta, </tspan><tspan x="0" y="76.8">para orientar de </tspan><tspan x="0" y="96">forma correcta de </tspan><tspan x="0" y="115.2">las líneas o cuerdas.</tspan></text><ellipse class="cls-4" cx="90.14" cy="47.97" rx="43.76" ry="43.78" transform="translate(42.06 138.05) rotate(-89.94)"/><polygon class="cls-5" points="197.2 96.51 169.36 80.44 169.35 112.57 197.2 96.51"/><path class="cls-7" d="M460.51,60.39A193.57,193.57,0,0,1,436.29,59c-9.49-1.28-10.8-2.8-10.8-4.26s1.31-3,10.81-4.26a218.65,218.65,0,0,1,48.43,0c9.5,1.28,10.81,2.81,10.81,4.27s-1.31,3-10.81,4.26A194,194,0,0,1,460.51,60.39Zm-33-5.62c1.89,1.51,14.06,3.54,33,3.54s31.12-2,33-3.52c-1.89-1.52-14.06-3.54-33-3.55S429.4,53.26,427.51,54.77Z"/><path class="cls-7" d="M460.51,56.39A193.57,193.57,0,0,1,436.29,55c-9.49-1.28-10.8-2.8-10.8-4.26s1.31-3,10.81-4.26a218.65,218.65,0,0,1,48.43,0c9.5,1.28,10.81,2.81,10.81,4.27s-1.31,3-10.81,4.26A194,194,0,0,1,460.51,56.39Zm-33-5.62c1.89,1.51,14.06,3.54,33,3.54s31.12-2,33-3.52c-1.89-1.52-14.06-3.54-33-3.55S429.4,49.26,427.51,50.77Z"/><path class="cls-7" d="M460.51,52.39A193.57,193.57,0,0,1,436.29,51c-9.49-1.28-10.8-2.8-10.8-4.26s1.31-3,10.81-4.26a218.65,218.65,0,0,1,48.43,0c9.5,1.28,10.81,2.81,10.81,4.27s-1.31,3-10.81,4.26A194,194,0,0,1,460.51,52.39Zm-33-5.62c1.89,1.51,14.06,3.54,33,3.54s31.12-2,33-3.52c-1.89-1.52-14.06-3.54-33-3.55S429.4,45.26,427.51,46.77Z"/><path class="cls-7" d="M460.51,48.39A193.57,193.57,0,0,1,436.29,47c-9.49-1.28-10.8-2.8-10.8-4.26s1.31-3,10.81-4.26a218.65,218.65,0,0,1,48.43,0c9.5,1.28,10.81,2.81,10.81,4.27s-1.31,3-10.81,4.26A194,194,0,0,1,460.51,48.39Zm-33-5.62c1.89,1.51,14.06,3.54,33,3.54s31.12-2,33-3.52c-1.89-1.52-14.06-3.54-33-3.55S429.4,41.26,427.51,42.77Z"/><path class="cls-7" d="M437.2,69.74a1,1,0,0,1-.94-1V58.11a.94.94,0,1,1,1.88,0V68.7A1,1,0,0,1,437.2,69.74Z"/><path class="cls-7" d="M437.19,79.5c-1.78,0-3.13-2.54-3.13-5.92s1.35-5.91,3.14-5.91,3.13,2.54,3.12,5.92a.94.94,0,1,1-1.87,0c0-2.5-.89-3.85-1.25-3.85s-1.26,1.35-1.26,3.84.89,3.85,1.25,3.85a1,1,0,0,1,0,2.07Z"/><path class="cls-7" d="M294.48,46.22a6.61,6.61,0,0,1-3.86-1.2.6.6,0,0,1-.25-.48,11.1,11.1,0,0,1,4.6-9.32c3-2.18,6.57-2.43,9.1-.63a.6.6,0,0,1,.25.48,11.13,11.13,0,0,1-4.6,9.33A9,9,0,0,1,294.48,46.22Zm-3.1-2.08c2.2,1.38,5.22,1.09,7.8-.78a9.89,9.89,0,0,0,4.13-7.88c-2.2-1.39-5.22-1.1-7.8.77A9.91,9.91,0,0,0,291.38,44.14Z"/><path class="cls-7" d="M287.26,46.22A9.06,9.06,0,0,1,282,44.39a11.13,11.13,0,0,1-4.6-9.33.67.67,0,0,1,.25-.48c2.54-1.79,6.11-1.54,9.1.63a11.1,11.1,0,0,1,4.6,9.33.63.63,0,0,1-.25.48A6.61,6.61,0,0,1,287.26,46.22Zm-8.82-10.75a9.85,9.85,0,0,0,4.12,7.88c2.57,1.88,5.6,2.17,7.79.79a9.87,9.87,0,0,0-4.12-7.89C283.66,34.38,280.63,34.08,278.44,35.47Z"/><path class="cls-7" d="M294.47,56.79a6.57,6.57,0,0,1-3.85-1.19.6.6,0,0,1-.25-.48,11.1,11.1,0,0,1,4.6-9.33c3-2.18,6.56-2.42,9.1-.62a.63.63,0,0,1,.25.48A11.08,11.08,0,0,1,299.71,55,9,9,0,0,1,294.47,56.79Zm-3.09-2.08c2.19,1.39,5.22,1.1,7.8-.78a9.84,9.84,0,0,0,4.12-7.88c-2.19-1.39-5.22-1.1-7.8.78A9.88,9.88,0,0,0,291.38,54.71Z"/><path class="cls-7" d="M287.26,56.79A9,9,0,0,1,282,55a11.1,11.1,0,0,1-4.6-9.33.63.63,0,0,1,.25-.48c2.53-1.8,6.1-1.55,9.1.63a11.09,11.09,0,0,1,4.59,9.33.6.6,0,0,1-.25.48A6.57,6.57,0,0,1,287.26,56.79ZM278.43,46a9.9,9.9,0,0,0,4.12,7.89c2.58,1.87,5.61,2.17,7.8.78a9.84,9.84,0,0,0-4.12-7.88C283.65,45,280.63,44.66,278.43,46Z"/><path class="cls-7" d="M294.47,67.37a6.61,6.61,0,0,1-3.86-1.2.63.63,0,0,1-.25-.48,11.13,11.13,0,0,1,4.6-9.33c3-2.17,6.57-2.42,9.1-.62a.6.6,0,0,1,.25.48,11.1,11.1,0,0,1-4.6,9.33A9,9,0,0,1,294.47,67.37Zm-3.09-2.08c2.19,1.38,5.22,1.09,7.8-.78a9.88,9.88,0,0,0,4.12-7.88c-2.19-1.39-5.22-1.1-7.8.77A9.87,9.87,0,0,0,291.38,65.29Z"/><path class="cls-7" d="M287.25,67.37A9.06,9.06,0,0,1,282,65.54a11.09,11.09,0,0,1-4.59-9.33.6.6,0,0,1,.25-.48c2.53-1.79,6.1-1.55,9.09.63a11.1,11.1,0,0,1,4.6,9.33.6.6,0,0,1-.25.48A6.61,6.61,0,0,1,287.25,67.37Zm-8.82-10.75a9.85,9.85,0,0,0,4.12,7.88c2.58,1.88,5.6,2.17,7.8.79a9.85,9.85,0,0,0-4.12-7.89C283.65,55.53,280.62,55.23,278.43,56.62Z"/><path class="cls-7" d="M290.86,73.6a.57.57,0,0,1-.51-.61V36.33a.57.57,0,0,1,.51-.61.57.57,0,0,1,.51.61V73A.57.57,0,0,1,290.86,73.6Z"/><path class="cls-7" d="M294.33,33.17a.57.57,0,0,1-.51-.61V29.11a.52.52,0,1,1,1,0v3.45A.57.57,0,0,1,294.33,33.17Z"/><path class="cls-7" d="M299.21,32.18a.57.57,0,0,1-.52-.61V30a.52.52,0,1,1,1,0v1.56A.57.57,0,0,1,299.21,32.18Z"/><path class="cls-7" d="M287.41,33.16a.56.56,0,0,1-.51-.6V29.11a.52.52,0,1,1,1,0v3.45A.56.56,0,0,1,287.41,33.16Z"/><path class="cls-7" d="M282.54,32.18a.57.57,0,0,1-.51-.61V30a.57.57,0,0,1,.51-.61.57.57,0,0,1,.51.61v1.57A.57.57,0,0,1,282.54,32.18Z"/><path class="cls-7" d="M290.87,33.66a.57.57,0,0,1-.51-.61v-2.6a.52.52,0,1,1,1,0v2.6A.57.57,0,0,1,290.87,33.66Z"/><path class="cls-7" d="M297.33,73.6H284.38a.57.57,0,0,1-.51-.61.57.57,0,0,1,.52-.61h12.94a.62.62,0,0,1,0,1.22Z"/><path class="cls-7" d="M261.46,46.22A6.61,6.61,0,0,1,257.6,45a.63.63,0,0,1-.25-.48A11.08,11.08,0,0,1,262,35.22c3-2.18,6.56-2.43,9.09-.63a.6.6,0,0,1,.25.48,11.1,11.1,0,0,1-4.6,9.33A9,9,0,0,1,261.46,46.22Zm-3.09-2.08c2.19,1.38,5.22,1.09,7.8-.78a9.88,9.88,0,0,0,4.12-7.88c-2.19-1.39-5.22-1.1-7.8.77A9.87,9.87,0,0,0,258.37,44.14Z"/><path class="cls-7" d="M254.24,46.22A9.06,9.06,0,0,1,249,44.39a11.09,11.09,0,0,1-4.59-9.33.6.6,0,0,1,.25-.48c2.53-1.79,6.1-1.54,9.1.63a11.12,11.12,0,0,1,4.59,9.33.6.6,0,0,1-.25.48A6.61,6.61,0,0,1,254.24,46.22Zm-8.82-10.75a9.85,9.85,0,0,0,4.12,7.88c2.58,1.88,5.6,2.17,7.8.79a9.87,9.87,0,0,0-4.12-7.89C250.64,34.38,247.61,34.08,245.42,35.47Z"/><path class="cls-7" d="M261.46,56.79a6.6,6.6,0,0,1-3.86-1.19.6.6,0,0,1-.25-.48,11.13,11.13,0,0,1,4.6-9.33c3-2.18,6.57-2.42,9.1-.62a.6.6,0,0,1,.25.48A11.1,11.1,0,0,1,266.7,55,9,9,0,0,1,261.46,56.79Zm-3.1-2.08c2.2,1.39,5.22,1.1,7.8-.78a9.87,9.87,0,0,0,4.13-7.88c-2.2-1.39-5.22-1.1-7.8.78A9.89,9.89,0,0,0,258.36,54.71Z"/><path class="cls-7" d="M254.24,56.79A9,9,0,0,1,249,55a11.13,11.13,0,0,1-4.6-9.33.67.67,0,0,1,.25-.48c2.54-1.8,6.11-1.55,9.1.63a11.1,11.1,0,0,1,4.6,9.33.63.63,0,0,1-.25.48A6.6,6.6,0,0,1,254.24,56.79ZM245.42,46a9.87,9.87,0,0,0,4.12,7.89c2.57,1.87,5.6,2.17,7.79.78a9.84,9.84,0,0,0-4.12-7.88C250.64,45,247.61,44.66,245.42,46Z"/><path class="cls-7" d="M261.45,67.37a6.58,6.58,0,0,1-3.85-1.2.6.6,0,0,1-.25-.48,11.1,11.1,0,0,1,4.6-9.33c3-2.17,6.56-2.42,9.1-.62a.63.63,0,0,1,.25.48,11.13,11.13,0,0,1-4.6,9.33A9.1,9.1,0,0,1,261.45,67.37Zm-3.09-2.08c2.19,1.38,5.22,1.09,7.8-.78a9.85,9.85,0,0,0,4.12-7.88c-2.19-1.39-5.22-1.1-7.8.77A9.9,9.9,0,0,0,258.36,65.29Z"/><path class="cls-7" d="M254.24,67.37A9.06,9.06,0,0,1,249,65.54a11.1,11.1,0,0,1-4.6-9.33.63.63,0,0,1,.25-.48c2.53-1.79,6.1-1.55,9.1.63a11.09,11.09,0,0,1,4.59,9.33.63.63,0,0,1-.24.48A6.63,6.63,0,0,1,254.24,67.37Zm-8.83-10.75a9.88,9.88,0,0,0,4.12,7.88c2.58,1.88,5.61,2.17,7.8.79a9.85,9.85,0,0,0-4.12-7.89C250.63,55.53,247.61,55.23,245.41,56.62Z"/><path class="cls-7" d="M257.84,73.6a.57.57,0,0,1-.51-.61V36.33a.52.52,0,1,1,1,0V73A.57.57,0,0,1,257.84,73.6Z"/><path class="cls-7" d="M261.32,33.17a.57.57,0,0,1-.52-.61V29.11a.52.52,0,1,1,1,0v3.45A.57.57,0,0,1,261.32,33.17Z"/><path class="cls-7" d="M266.19,32.18a.57.57,0,0,1-.51-.61V30a.52.52,0,1,1,1,0v1.56A.57.57,0,0,1,266.19,32.18Z"/><path class="cls-7" d="M254.4,33.16a.56.56,0,0,1-.52-.6V29.11a.52.52,0,1,1,1,0v3.45A.56.56,0,0,1,254.4,33.16Z"/><path class="cls-7" d="M249.52,32.18a.57.57,0,0,1-.51-.61V30a.57.57,0,0,1,.51-.61A.57.57,0,0,1,250,30v1.57A.57.57,0,0,1,249.52,32.18Z"/><path class="cls-7" d="M257.86,33.66a.57.57,0,0,1-.52-.61v-2.6a.52.52,0,1,1,1,0v2.6A.57.57,0,0,1,257.86,33.66Z"/><path class="cls-7" d="M264.32,73.6H251.37a.62.62,0,0,1,0-1.22h12.95a.62.62,0,0,1,0,1.22Z"/><path class="cls-7" d="M78.24,27.75a1,1,0,0,1,1.07.73c1.24,4.47,7.34,5.42,7.4,5.43a1,1,0,0,1-.3,2,13.8,13.8,0,0,1-7-3.4,56.43,56.43,0,0,0,4.75,19.16,1,1,0,0,1-.5,1.33,1,1,0,0,1-1.34-.51,55.08,55.08,0,0,1-5-23.8,1,1,0,0,1,.9-.94Z"/><path class="cls-7" d="M93.2,31.38a10.28,10.28,0,0,1,5.4.92c3.8,1.79,8,6.62,8.2,11a1,1,0,0,1-.4.85c-3.47,2.61-9.87,2.45-13.67.66s-6-5.47-6.18-10a1,1,0,0,1,.4-.85A12.49,12.49,0,0,1,93.2,31.38ZM104.73,42.8c-.48-3.35-4-7.25-7-8.68A9.17,9.17,0,0,0,88.6,35.2a9.15,9.15,0,0,0,5,7.73C96.62,44.36,101.84,44.55,104.73,42.8Z"/><path class="cls-7" d="M84.32,50.74a11,11,0,0,1,7.77,3.74c3.5,3.87,4.84,10.12,4,18.6a1,1,0,0,1-.41.71,1.06,1.06,0,0,1-.81.18,16.8,16.8,0,0,1-10-7.07c-2.53-4.07-3-9.25-1.45-15.41A1,1,0,0,1,84.32,50.74Zm9.85,20.92c.57-7.26-.63-12.58-3.58-15.83a9.37,9.37,0,0,0-5.39-3c-1.19,5.23-.72,9.6,1.4,13A14.57,14.57,0,0,0,94.17,71.66Z"/><path class="cls-7" d="M679.78,45a6.58,6.58,0,0,1-3.85-1.2.6.6,0,0,1-.25-.48,11.1,11.1,0,0,1,4.6-9.33c3-2.17,6.57-2.42,9.1-.62a.63.63,0,0,1,.25.48,11.13,11.13,0,0,1-4.6,9.33A9.1,9.1,0,0,1,679.78,45ZM676.69,43c2.19,1.38,5.22,1.09,7.8-.78a9.85,9.85,0,0,0,4.12-7.88c-2.19-1.39-5.22-1.1-7.79.77A9.88,9.88,0,0,0,676.69,43Z"/><path class="cls-7" d="M672.57,45a9,9,0,0,1-5.24-1.82,11.1,11.1,0,0,1-4.6-9.33.63.63,0,0,1,.25-.48c2.53-1.79,6.11-1.55,9.1.63a11.13,11.13,0,0,1,4.6,9.33.67.67,0,0,1-.25.48A6.53,6.53,0,0,1,672.57,45Zm-8.83-10.74a9.91,9.91,0,0,0,4.12,7.88c2.58,1.88,5.61,2.17,7.8.79a9.85,9.85,0,0,0-4.12-7.89C669,33.2,665.94,32.9,663.74,34.29Z"/><path class="cls-7" d="M676.17,72.42a.57.57,0,0,1-.52-.61l0-36.66a.52.52,0,1,1,1,0V71.81A.57.57,0,0,1,676.17,72.42Z"/><path class="cls-7" d="M679.64,32a.57.57,0,0,1-.51-.61V27.93a.52.52,0,1,1,1,0v3.45A.57.57,0,0,1,679.64,32Z"/><path class="cls-7" d="M684.51,31a.57.57,0,0,1-.51-.61V28.83a.52.52,0,1,1,1,0v1.56A.57.57,0,0,1,684.51,31Z"/><path class="cls-7" d="M672.72,32a.57.57,0,0,1-.51-.61V27.93a.57.57,0,0,1,.51-.61.55.55,0,0,1,.51.61v3.44A.57.57,0,0,1,672.72,32Z"/><path class="cls-7" d="M667.85,31a.57.57,0,0,1-.52-.61V28.82a.52.52,0,1,1,1,0v1.57A.57.57,0,0,1,667.85,31Z"/><path class="cls-7" d="M676.18,32.48a.57.57,0,0,1-.51-.61v-2.6a.57.57,0,0,1,.51-.61.55.55,0,0,1,.51.61v2.6A.57.57,0,0,1,676.18,32.48Z"/><path class="cls-7" d="M682.64,72.42H669.69a.61.61,0,0,1,0-1.21h12.95a.62.62,0,0,1,0,1.22Z"/><path class="cls-7" d="M646.77,45a6.61,6.61,0,0,1-3.86-1.2.63.63,0,0,1-.25-.48,11.13,11.13,0,0,1,4.6-9.33c3-2.17,6.57-2.42,9.1-.62a.6.6,0,0,1,.25.48,11.1,11.1,0,0,1-4.6,9.33A9,9,0,0,1,646.77,45ZM643.67,43c2.2,1.38,5.22,1.09,7.8-.78a9.86,9.86,0,0,0,4.13-7.88c-2.2-1.39-5.22-1.1-7.8.77A9.91,9.91,0,0,0,643.67,43Z"/><path class="cls-7" d="M639.55,45a9,9,0,0,1-5.24-1.82,11.09,11.09,0,0,1-4.59-9.33.63.63,0,0,1,.24-.48c2.54-1.79,6.11-1.55,9.1.63a11.1,11.1,0,0,1,4.6,9.33.63.63,0,0,1-.25.48A6.53,6.53,0,0,1,639.55,45Zm-8.82-10.74a9.85,9.85,0,0,0,4.12,7.88c2.58,1.88,5.6,2.17,7.8.79a9.88,9.88,0,0,0-4.12-7.89C636,33.2,632.92,32.9,630.73,34.29Z"/><path class="cls-7" d="M643.15,72.42a.57.57,0,0,1-.51-.61V35.15a.52.52,0,1,1,1,0V71.81A.57.57,0,0,1,643.15,72.42Z"/><path class="cls-7" d="M646.62,32a.57.57,0,0,1-.51-.61V27.93a.52.52,0,1,1,1,0v3.45A.57.57,0,0,1,646.62,32Z"/><path class="cls-7" d="M651.5,31a.57.57,0,0,1-.52-.61V28.83a.56.56,0,0,1,.51-.61.57.57,0,0,1,.51.61v1.56A.57.57,0,0,1,651.5,31Z"/><path class="cls-7" d="M639.7,32a.57.57,0,0,1-.51-.61V27.93a.52.52,0,1,1,1,0v3.44A.57.57,0,0,1,639.7,32Z"/><path class="cls-7" d="M634.83,31a.57.57,0,0,1-.51-.61V28.82a.52.52,0,1,1,1,0v1.57A.57.57,0,0,1,634.83,31Z"/><path class="cls-7" d="M643.16,32.48a.57.57,0,0,1-.51-.61v-2.6a.52.52,0,1,1,1,0v2.6A.57.57,0,0,1,643.16,32.48Z"/><path class="cls-7" d="M649.63,72.42h-13a.61.61,0,0,1,0-1.21h13a.62.62,0,0,1,0,1.22Z"/><line class="cls-7" x1="643.15" y1="51.1" x2="675.6" y2="56.5"/><rect class="cls-7" x="658.38" y="37.35" width="2" height="32.9" transform="translate(498.06 695.4) rotate(-80.55)"/><rect class="cls-3" x="761.28" y="54.59" width="178.45" height="231"/><ellipse class="cls-4" cx="854.51" cy="48.15" rx="43.76" ry="43.78" transform="translate(805.4 902.61) rotate(-89.94)"/><polygon class="cls-5" points="766.05 96.63 738.21 80.56 738.2 112.69 766.05 96.63"/><text class="cls-6" transform="translate(768.64 117.17) rotate(0.02)">Esta labor se debe <tspan x="0" y="19.2">realizar </tspan><tspan x="0" y="38.4">semanalmente en el </tspan><tspan x="0" y="57.6">cultivo para aquellas </tspan><tspan x="0" y="76.8">plantas que aún no </tspan><tspan x="0" y="96">han sido amarradas o </tspan><tspan x="0" y="115.2">apuntaladas.</tspan></text><path class="cls-7" d="M864,56.85a4.49,4.49,0,0,1-2.62-.81.43.43,0,0,1-.17-.32,7.56,7.56,0,0,1,3.12-6.33,5.26,5.26,0,0,1,6.17-.42.4.4,0,0,1,.17.32,7.53,7.53,0,0,1-3.12,6.33A6.06,6.06,0,0,1,864,56.85Zm-2.1-1.41a4.71,4.71,0,0,0,5.29-.53,6.68,6.68,0,0,0,2.8-5.34,4.72,4.72,0,0,0-5.29.52A6.7,6.7,0,0,0,861.91,55.44Z"/><path class="cls-7" d="M859.11,56.85a6.08,6.08,0,0,1-3.55-1.24,7.51,7.51,0,0,1-3.12-6.32.43.43,0,0,1,.17-.33,5.26,5.26,0,0,1,6.17.43,7.56,7.56,0,0,1,3.12,6.33.43.43,0,0,1-.17.32A4.51,4.51,0,0,1,859.11,56.85Zm-6-7.29a6.66,6.66,0,0,0,2.79,5.35,4.73,4.73,0,0,0,5.29.53,6.72,6.72,0,0,0-2.79-5.35A4.73,4.73,0,0,0,853.13,49.56Z"/><path class="cls-7" d="M861.55,75.43a.39.39,0,0,1-.35-.42V50.15a.35.35,0,1,1,.7,0V75A.39.39,0,0,1,861.55,75.43Z"/><path class="cls-7" d="M863.91,48a.38.38,0,0,1-.35-.41V45.25a.35.35,0,1,1,.7,0v2.34A.38.38,0,0,1,863.91,48Z"/><path class="cls-7" d="M867.22,47.33a.38.38,0,0,1-.35-.41V45.86a.35.35,0,1,1,.69,0v1.06A.38.38,0,0,1,867.22,47.33Z"/><path class="cls-7" d="M859.21,48a.38.38,0,0,1-.34-.41V45.25a.35.35,0,1,1,.69,0v2.34A.38.38,0,0,1,859.21,48Z"/><path class="cls-7" d="M855.91,47.33a.39.39,0,0,1-.35-.41V45.85a.35.35,0,1,1,.7,0v1.07A.39.39,0,0,1,855.91,47.33Z"/><path class="cls-7" d="M861.56,48.33a.38.38,0,0,1-.35-.41V46.16a.38.38,0,0,1,.35-.41.38.38,0,0,1,.35.41v1.76A.38.38,0,0,1,861.56,48.33Z"/><path class="cls-7" d="M866,75.43h-8.79a.42.42,0,0,1,0-.82H866a.42.42,0,0,1,0,.83Z"/><path class="cls-7" d="M834,56.85a4.51,4.51,0,0,1-2.62-.81.42.42,0,0,1-.16-.32,7.53,7.53,0,0,1,3.12-6.33A5.26,5.26,0,0,1,840.5,49a.43.43,0,0,1,.17.32,7.56,7.56,0,0,1-3.12,6.33A6.11,6.11,0,0,1,834,56.85Zm-2.1-1.41a4.71,4.71,0,0,0,5.29-.53,6.68,6.68,0,0,0,2.8-5.34,4.72,4.72,0,0,0-5.29.52A6.7,6.7,0,0,0,831.89,55.44Z"/><path class="cls-7" d="M829.1,56.85a6.13,6.13,0,0,1-3.56-1.24,7.54,7.54,0,0,1-3.12-6.32.46.46,0,0,1,.17-.33,5.28,5.28,0,0,1,6.18.43,7.52,7.52,0,0,1,3.11,6.33.4.4,0,0,1-.17.32A4.48,4.48,0,0,1,829.1,56.85Zm-6-7.29a6.7,6.7,0,0,0,2.8,5.35,4.73,4.73,0,0,0,5.29.53,6.7,6.7,0,0,0-2.8-5.35A4.73,4.73,0,0,0,823.11,49.56Z"/><path class="cls-7" d="M831.54,75.43a.39.39,0,0,1-.35-.42V50.15a.35.35,0,1,1,.69,0V75A.39.39,0,0,1,831.54,75.43Z"/><path class="cls-7" d="M833.89,48a.38.38,0,0,1-.34-.41V45.25a.35.35,0,1,1,.69,0v2.34A.38.38,0,0,1,833.89,48Z"/><path class="cls-7" d="M837.2,47.33a.38.38,0,0,1-.35-.41V45.86a.36.36,0,1,1,.7,0v1.06A.38.38,0,0,1,837.2,47.33Z"/><path class="cls-7" d="M829.2,48a.39.39,0,0,1-.35-.41V45.25a.36.36,0,1,1,.7,0v2.34A.39.39,0,0,1,829.2,48Z"/><path class="cls-7" d="M825.89,47.33a.38.38,0,0,1-.34-.41V45.85a.35.35,0,1,1,.69,0v1.07A.38.38,0,0,1,825.89,47.33Z"/><path class="cls-7" d="M831.55,48.33a.38.38,0,0,1-.35-.41V46.16a.35.35,0,1,1,.7,0v1.76A.38.38,0,0,1,831.55,48.33Z"/><path class="cls-7" d="M835.93,75.43h-8.78a.42.42,0,0,1,0-.82h8.78a.42.42,0,0,1,0,.83Z"/><path class="cls-7" d="M874,46.85a4.51,4.51,0,0,1-2.62-.81.42.42,0,0,1-.16-.32,7.53,7.53,0,0,1,3.12-6.33,5.26,5.26,0,0,1,6.17-.42.43.43,0,0,1,.17.32,7.56,7.56,0,0,1-3.12,6.33A6.11,6.11,0,0,1,874,46.85Zm-2.1-1.41a4.71,4.71,0,0,0,5.29-.53,6.68,6.68,0,0,0,2.8-5.34,4.72,4.72,0,0,0-5.29.52A6.7,6.7,0,0,0,871.91,45.44Z"/><path class="cls-7" d="M869.12,46.85a6.13,6.13,0,0,1-3.56-1.24,7.54,7.54,0,0,1-3.12-6.32.46.46,0,0,1,.17-.33,5.28,5.28,0,0,1,6.18.43,7.52,7.52,0,0,1,3.11,6.33.43.43,0,0,1-.17.32A4.48,4.48,0,0,1,869.12,46.85Zm-6-7.29a6.7,6.7,0,0,0,2.8,5.35,4.73,4.73,0,0,0,5.29.53,6.7,6.7,0,0,0-2.8-5.35A4.73,4.73,0,0,0,863.13,39.56Z"/><path class="cls-7" d="M871.56,65.43a.39.39,0,0,1-.35-.42V40.15a.35.35,0,1,1,.69,0V65A.39.39,0,0,1,871.56,65.43Z"/><path class="cls-7" d="M873.91,38a.38.38,0,0,1-.34-.41V35.25a.35.35,0,1,1,.69,0v2.34A.38.38,0,0,1,873.91,38Z"/><path class="cls-7" d="M877.22,37.33a.38.38,0,0,1-.35-.41V35.86a.36.36,0,1,1,.7,0v1.06A.38.38,0,0,1,877.22,37.33Z"/><path class="cls-7" d="M869.22,38a.39.39,0,0,1-.35-.41V35.25a.36.36,0,1,1,.7,0v2.34A.39.39,0,0,1,869.22,38Z"/><path class="cls-7" d="M865.91,37.33a.38.38,0,0,1-.34-.41V35.85a.35.35,0,1,1,.69,0v1.07A.38.38,0,0,1,865.91,37.33Z"/><path class="cls-7" d="M871.57,38.33a.38.38,0,0,1-.35-.41V36.16a.35.35,0,1,1,.7,0v1.76A.38.38,0,0,1,871.57,38.33Z"/><path class="cls-7" d="M876,65.43h-8.78a.42.42,0,0,1,0-.82H876a.42.42,0,0,1,0,.83Z"/><path class="cls-7" d="M844,46.85a4.49,4.49,0,0,1-2.62-.81.43.43,0,0,1-.17-.32,7.56,7.56,0,0,1,3.12-6.33,5.27,5.27,0,0,1,6.18-.42.42.42,0,0,1,.16.32,7.53,7.53,0,0,1-3.12,6.33A6.06,6.06,0,0,1,844,46.85Zm-2.1-1.41a4.71,4.71,0,0,0,5.29-.53,6.68,6.68,0,0,0,2.8-5.34,4.72,4.72,0,0,0-5.29.52A6.7,6.7,0,0,0,841.9,45.44Z"/><path class="cls-7" d="M839.1,46.85a6.08,6.08,0,0,1-3.55-1.24,7.51,7.51,0,0,1-3.12-6.32.43.43,0,0,1,.17-.33,5.26,5.26,0,0,1,6.17.43,7.53,7.53,0,0,1,3.12,6.33.43.43,0,0,1-.17.32A4.51,4.51,0,0,1,839.1,46.85Zm-6-7.29a6.66,6.66,0,0,0,2.79,5.35,4.73,4.73,0,0,0,5.29.53,6.72,6.72,0,0,0-2.79-5.35A4.73,4.73,0,0,0,833.12,39.56Z"/><path class="cls-7" d="M841.54,65.43a.39.39,0,0,1-.34-.42V40.15a.35.35,0,1,1,.7,0V65A.39.39,0,0,1,841.54,65.43Z"/><path class="cls-7" d="M843.9,38a.38.38,0,0,1-.35-.41V35.25a.35.35,0,1,1,.7,0v2.34A.38.38,0,0,1,843.9,38Z"/><path class="cls-7" d="M847.21,37.33a.38.38,0,0,1-.35-.41V35.86a.35.35,0,1,1,.69,0v1.06A.38.38,0,0,1,847.21,37.33Z"/><path class="cls-7" d="M839.2,38a.38.38,0,0,1-.34-.41V35.25a.35.35,0,1,1,.69,0v2.34A.38.38,0,0,1,839.2,38Z"/><path class="cls-7" d="M835.9,37.33a.39.39,0,0,1-.35-.41V35.85a.35.35,0,1,1,.7,0v1.07A.39.39,0,0,1,835.9,37.33Z"/><path class="cls-7" d="M841.55,38.33a.38.38,0,0,1-.35-.41V36.16a.38.38,0,0,1,.35-.41.38.38,0,0,1,.35.41v1.76A.38.38,0,0,1,841.55,38.33Z"/><path class="cls-7" d="M845.94,65.43h-8.79a.42.42,0,0,1,0-.82h8.79a.42.42,0,0,1,0,.83Z"/><path class="cls-7" d="M880,32.85A4.48,4.48,0,0,1,877.4,32a.43.43,0,0,1-.17-.32,7.53,7.53,0,0,1,3.12-6.33,5.26,5.26,0,0,1,6.17-.42.43.43,0,0,1,.17.32,7.53,7.53,0,0,1-3.12,6.33A6.11,6.11,0,0,1,880,32.85Zm-2.09-1.41a4.71,4.71,0,0,0,5.29-.53A6.65,6.65,0,0,0,886,25.57a4.72,4.72,0,0,0-5.29.52A6.69,6.69,0,0,0,877.92,31.44Z"/><path class="cls-7" d="M875.12,32.85a6.13,6.13,0,0,1-3.56-1.24,7.5,7.5,0,0,1-3.11-6.32.43.43,0,0,1,.17-.33,5.26,5.26,0,0,1,6.17.43,7.56,7.56,0,0,1,3.12,6.33.46.46,0,0,1-.17.32A4.51,4.51,0,0,1,875.12,32.85Zm-6-7.29a6.7,6.7,0,0,0,2.8,5.35,4.73,4.73,0,0,0,5.29.53,6.7,6.7,0,0,0-2.8-5.35A4.73,4.73,0,0,0,869.13,25.56Z"/><path class="cls-7" d="M877.56,51.43a.39.39,0,0,1-.35-.42V26.15a.35.35,0,1,1,.7,0V51A.39.39,0,0,1,877.56,51.43Z"/><path class="cls-7" d="M879.92,24a.38.38,0,0,1-.35-.41V21.25a.35.35,0,1,1,.7,0v2.34A.38.38,0,0,1,879.92,24Z"/><path class="cls-7" d="M883.22,23.33a.38.38,0,0,1-.35-.41V21.86a.4.4,0,0,1,.35-.42.39.39,0,0,1,.35.42v1.06A.38.38,0,0,1,883.22,23.33Z"/><path class="cls-7" d="M875.22,24a.39.39,0,0,1-.35-.41V21.25a.35.35,0,1,1,.69,0v2.34A.38.38,0,0,1,875.22,24Z"/><path class="cls-7" d="M871.92,23.33a.38.38,0,0,1-.35-.41V21.85a.35.35,0,1,1,.7,0v1.07A.39.39,0,0,1,871.92,23.33Z"/><path class="cls-7" d="M877.57,24.33a.38.38,0,0,1-.35-.41V22.16a.35.35,0,1,1,.7,0v1.76A.38.38,0,0,1,877.57,24.33Z"/><path class="cls-7" d="M882,51.43h-8.78a.42.42,0,0,1,0-.82H882a.42.42,0,0,1,0,.83Z"/><path class="cls-7" d="M850,32.85a4.51,4.51,0,0,1-2.62-.81.46.46,0,0,1-.17-.32,7.54,7.54,0,0,1,3.13-6.33,5.26,5.26,0,0,1,6.17-.42.43.43,0,0,1,.17.32,7.56,7.56,0,0,1-3.12,6.33A6.11,6.11,0,0,1,850,32.85Zm-2.1-1.41a4.71,4.71,0,0,0,5.29-.53,6.68,6.68,0,0,0,2.8-5.34,4.72,4.72,0,0,0-5.29.52A6.7,6.7,0,0,0,847.9,31.44Z"/><path class="cls-7" d="M845.11,32.85a6.1,6.1,0,0,1-3.56-1.24,7.54,7.54,0,0,1-3.12-6.32.43.43,0,0,1,.17-.33,5.26,5.26,0,0,1,6.17.43,7.53,7.53,0,0,1,3.12,6.33.43.43,0,0,1-.17.32A4.48,4.48,0,0,1,845.11,32.85Zm-6-7.29a6.72,6.72,0,0,0,2.79,5.35,4.73,4.73,0,0,0,5.29.53,6.66,6.66,0,0,0-2.79-5.35A4.73,4.73,0,0,0,839.12,25.56Z"/><path class="cls-7" d="M847.55,51.43a.39.39,0,0,1-.35-.42V26.15a.35.35,0,1,1,.69,0V51A.39.39,0,0,1,847.55,51.43Z"/><path class="cls-7" d="M849.9,24a.38.38,0,0,1-.35-.41V21.25a.38.38,0,0,1,.35-.41.38.38,0,0,1,.35.41v2.34A.38.38,0,0,1,849.9,24Z"/><path class="cls-7" d="M853.21,23.33a.38.38,0,0,1-.35-.41V21.86a.36.36,0,1,1,.7,0v1.06A.38.38,0,0,1,853.21,23.33Z"/><path class="cls-7" d="M845.21,24a.39.39,0,0,1-.35-.41V21.25a.36.36,0,1,1,.7,0v2.34A.39.39,0,0,1,845.21,24Z"/><path class="cls-7" d="M841.9,23.33a.39.39,0,0,1-.35-.41V21.85a.39.39,0,0,1,.35-.41.38.38,0,0,1,.35.41v1.07A.38.38,0,0,1,841.9,23.33Z"/><path class="cls-7" d="M847.55,24.33a.38.38,0,0,1-.34-.41V22.16a.35.35,0,1,1,.69,0v1.76A.38.38,0,0,1,847.55,24.33Z"/><path class="cls-7" d="M851.94,51.43h-8.79a.42.42,0,0,1,0-.82h8.79a.42.42,0,0,1,0,.83Z"/><path class="cls-7" d="M87.59,82.19C67.52,61.13,68.29,30.77,68.3,30.47l2,.06c0,.3-.74,29.84,18.74,50.28Z"/><polygon class="cls-7" points="90.31 84.78 77.06 81.47 77.55 79.53 88.31 82.22 88.31 73.5 90.31 73.5 90.31 84.78"/></g></svg>