<svg id="Capa_1" data-name="Capa 1" xmlns="http://www.w3.org/2000/svg" viewBox="0 0 674 458"><defs><style>.cls-1,.cls-12{fill:#fff;}.cls-2{fill:none;}.cls-3,.cls-9{fill:#ffe082;}.cls-3{opacity:0.24;}.cls-4,.cls-6{fill:#80cbc4;}.cls-4,.cls-7{opacity:0.1;}.cls-5{font-size:18px;fill:#111;font-family:OpenSans, Open Sans;}.cls-8{fill:#8d6e63;}.cls-10{fill:#006064;}.cls-11{fill:#0288d1;}.cls-12{font-size:49.67px;font-family:Montserrat-Medium, Montserrat;font-weight:500;}</style></defs><rect class="cls-1" width="674" height="458"/><rect class="cls-2" width="674" height="458"/><path class="cls-3" d="M562.64,178.22c-21.56-17.88-34.52-37.29-3.7-69.12s54.41-53.28,38.83-95.45a116.67,116.67,0,0,0-6-13.65H395c-41.6,16.87-83.73,29-118,18.26A109.65,109.65,0,0,1,242.29,0H38.5q-1.56,2.07-3.09,4.23C23.23,21.39,18.87,32.39,7.57,35.16A20.54,20.54,0,0,1,0,35.5v418c3.58.13,7.24.19,11,.16,113.67-.89,285.49.81,285.49.81,89.75.89,186.57,17.16,270-28.65,30.15-16.55,56.81-42.09,71.6-74.95,19.54-43.4,13-97.93-12.8-137C608.06,187.86,583.28,195.36,562.64,178.22Z"/><path class="cls-4" d="M674,332.5c-10.8-7-26.69-4.86-37.6,3.53-11.8,9.08-8.82,15.79-23.06,14.64-3.89-.31-8.06-2.35-9.55-6.43-2-5.52,1.63-11.37,4.64-16.26,9.13-14.89,8.42-30.52,6.34-48.48S595.4,250.1,581.06,242s-33.13-5.94-44.75,6.53c-7.93,8.52-12,20.55-17.67,31.11S504,300.28,493,300c-13.23-.3-32.1-15.11-34.55-29.81s-.47-30-3-44.71c-4.84-27.75-25.85-46.86-50.85-46.74s-50.65,20.76-51.79,49c-.63,15.38,8.44,45.29.84,58.07-6.87,11.55-22.49,18.13-33.31,12.23-29-15.85-45.86-.59-51.46,18.53-6.26,21.4-6.51,39.59-.7,61.37s18.6,39.05,32.95,55C323,457.28,365.34,454,370,453.87c87.5-1.76,130.82-5.3,218.28-1.91,35.27,1.37,64.65-27.12,85.74-62.08Z"/><text class="cls-5" transform="translate(152.84 150.68)"><tspan xml:space="preserve"> tiene una gran importancia </tspan><tspan x="-65.78" y="21.6">socioeconómica, desde el punto de vista de </tspan><tspan x="-63.71" y="43.2">la seguridad alimentaria y la generación de </tspan><tspan x="-43.46" y="64.8">empleo e ingresos que contribuye a la </tspan><tspan x="-64.93" y="86.4">mejora del nivel de vida de los agricultores. </tspan></text><path class="cls-6" d="M281.12,345.09a2.09,2.09,0,1,1-2.09,2.09A2.1,2.1,0,0,1,281.12,345.09Z"/><path class="cls-6" d="M292.75,345.11l-2.92-.55a9,9,0,0,0-.7-1.69l1.69-2.47a.63.63,0,0,0-.07-.77l-2.09-2.08a.62.62,0,0,0-.76-.08l-2.48,1.7a8.86,8.86,0,0,0-1.74-.72l-.54-2.9a.65.65,0,0,0-.6-.5h-3a.64.64,0,0,0-.59.5l-.55,2.93a8.53,8.53,0,0,0-1.67.7l-2.44-1.67a.65.65,0,0,0-.77.07l-2.09,2.09a.65.65,0,0,0-.07.77l1.68,2.45a9.78,9.78,0,0,0-.69,1.67l-2.92.55a.63.63,0,0,0-.49.59v2.95a.63.63,0,0,0,.49.6l2.92.54a9.16,9.16,0,0,0,.7,1.71l-1.66,2.43a.65.65,0,0,0,.07.77l2.09,2.08a.62.62,0,0,0,.77.07l2.43-1.66a9.26,9.26,0,0,0,1.65.69l.55,2.94a.63.63,0,0,0,.59.49h3a.63.63,0,0,0,.6-.49l.54-2.91a9.64,9.64,0,0,0,1.73-.7l2.45,1.68a.65.65,0,0,0,.77-.07l2.09-2.09a.63.63,0,0,0,.07-.77l-1.67-2.44a9.11,9.11,0,0,0,.71-1.73l2.92-.54a.63.63,0,0,0,.49-.6v-2.94A.63.63,0,0,0,292.75,345.11Zm-10.64,7a5.06,5.06,0,1,1,4-4A5.07,5.07,0,0,1,282.11,352.15Z"/><path class="cls-6" d="M321.92,388.88a1.66,1.66,0,1,1-2.2-.79A1.66,1.66,0,0,1,321.92,388.88Z"/><path class="cls-6" d="M325.86,397.2l-.6-2.27a7.07,7.07,0,0,0,1-1.08l2.34.37a.49.49,0,0,0,.53-.31l.78-2.2a.5.5,0,0,0-.21-.57l-2.05-1.2a6.69,6.69,0,0,0-.08-1.48l1.89-1.38a.49.49,0,0,0,.15-.59l-1-2.11a.5.5,0,0,0-.55-.26l-2.29.6a7.34,7.34,0,0,0-1.06-1l.36-2.32a.49.49,0,0,0-.31-.52l-2.2-.79a.51.51,0,0,0-.57.21l-1.19,2a6.91,6.91,0,0,0-1.43.08L318,380.56a.52.52,0,0,0-.6-.15l-2.1,1a.5.5,0,0,0-.26.56l.6,2.27a6.65,6.65,0,0,0-1,1.08l-2.3-.36a.51.51,0,0,0-.53.31l-.78,2.2a.48.48,0,0,0,.21.57l2,1.18a7.41,7.41,0,0,0,.07,1.41L311.39,392a.5.5,0,0,0-.15.6l1,2.11a.49.49,0,0,0,.55.25l2.27-.59a7.21,7.21,0,0,0,1.08,1l-.36,2.33a.49.49,0,0,0,.31.53l2.2.78a.5.5,0,0,0,.57-.21l1.18-2a7.38,7.38,0,0,0,1.48-.07l1.38,1.9a.51.51,0,0,0,.59.15l2.11-1A.5.5,0,0,0,325.86,397.2ZM317.21,392a4,4,0,1,1,4.19,1.5A4,4,0,0,1,317.21,392Z"/><circle class="cls-6" cx="652.46" cy="349.6" r="1.42" transform="translate(202.51 937.36) rotate(-80.75)"/><path class="cls-6" d="M660.35,348.2l-2-.37a5.55,5.55,0,0,0-.47-1.15L659,345a.44.44,0,0,0,0-.52l-1.42-1.41a.42.42,0,0,0-.52-.05l-1.67,1.15a6.39,6.39,0,0,0-1.18-.49l-.37-2a.44.44,0,0,0-.41-.33h-2a.44.44,0,0,0-.4.33l-.37,2a5.73,5.73,0,0,0-1.14.48L647.86,343a.44.44,0,0,0-.52,0l-1.42,1.42a.44.44,0,0,0,0,.52l1.14,1.66a6.32,6.32,0,0,0-.46,1.14l-2,.37a.42.42,0,0,0-.34.4v2a.42.42,0,0,0,.34.4l2,.37a6.26,6.26,0,0,0,.47,1.16l-1.12,1.65a.41.41,0,0,0,.05.52l1.41,1.41a.42.42,0,0,0,.52.05l1.65-1.13a6.16,6.16,0,0,0,1.12.47l.37,2a.43.43,0,0,0,.4.34h2a.44.44,0,0,0,.41-.34l.37-2a6.26,6.26,0,0,0,1.17-.48l1.66,1.14a.42.42,0,0,0,.52,0l1.42-1.42a.44.44,0,0,0,0-.52l-1.14-1.66a6.41,6.41,0,0,0,.49-1.17l2-.37a.42.42,0,0,0,.34-.4v-2A.42.42,0,0,0,660.35,348.2ZM653.13,353a3.43,3.43,0,1,1,2.69-2.69A3.44,3.44,0,0,1,653.13,353Z"/><path class="cls-6" d="M631.35,384.42a2.32,2.32,0,1,1-3.27-.25A2.32,2.32,0,0,1,631.35,384.42Z"/><path class="cls-6" d="M639.74,394.21l-1.65-2.85a10.57,10.57,0,0,0,.91-1.81l3.3-.36a.7.7,0,0,0,.59-.62l.25-3.26a.69.69,0,0,0-.49-.69l-3.21-.86a10,10,0,0,0-.66-2l2.05-2.56a.69.69,0,0,0,0-.85l-2.13-2.48a.69.69,0,0,0-.84-.14L635,377.4a10.8,10.8,0,0,0-1.8-.9l-.36-3.25a.7.7,0,0,0-.61-.6l-3.26-.24a.69.69,0,0,0-.7.49l-.85,3.19a9.41,9.41,0,0,0-1.9.63l-2.57-2.06a.71.71,0,0,0-.86,0l-2.47,2.13a.7.7,0,0,0-.15.85l1.65,2.84a9.8,9.8,0,0,0-.92,1.83l-3.24.35a.71.71,0,0,0-.6.62l-.24,3.26a.68.68,0,0,0,.49.69l3.15.84a9.72,9.72,0,0,0,.62,1.89l-2.07,2.58a.71.71,0,0,0,0,.86l2.13,2.48a.71.71,0,0,0,.85.14l2.83-1.64a9.68,9.68,0,0,0,1.84.94l.36,3.28a.7.7,0,0,0,.62.6l3.25.24a.69.69,0,0,0,.7-.49l.84-3.17a10.57,10.57,0,0,0,2-.65l2.57,2.06a.69.69,0,0,0,.85,0l2.48-2.13A.69.69,0,0,0,639.74,394.21Zm-13.61-3.86a5.61,5.61,0,1,1,6.21.47A5.63,5.63,0,0,1,626.13,390.35Z"/><path class="cls-6" d="M502.58,249.32a4.43,4.43,0,1,1-6.14,1.25A4.43,4.43,0,0,1,502.58,249.32Z"/><path class="cls-6" d="M523.09,262.94l-4.52-4.38a18.5,18.5,0,0,0,.74-3.8l5.87-2.39a1.33,1.33,0,0,0,.77-1.44l-1.24-6.12a1.33,1.33,0,0,0-1.27-1l-6.34.1a19.16,19.16,0,0,0-2.25-3.29l2.43-5.77a1.32,1.32,0,0,0-.47-1.56l-5.2-3.45A1.34,1.34,0,0,0,510,230l-4.4,4.54a18.86,18.86,0,0,0-3.77-.72l-2.35-5.8a1.34,1.34,0,0,0-1.45-.77l-6.11,1.25a1.32,1.32,0,0,0-1,1.27l.09,6.3a19.51,19.51,0,0,0-3.16,2.14l-5.8-2.44a1.33,1.33,0,0,0-1.56.47L477,241.45a1.31,1.31,0,0,0,.17,1.62l4.52,4.38a18.8,18.8,0,0,0-.75,3.83l-5.77,2.35a1.32,1.32,0,0,0-.77,1.44l1.25,6.11a1.34,1.34,0,0,0,1.27,1l6.22-.1a20.44,20.44,0,0,0,2.12,3.15l-2.46,5.82a1.33,1.33,0,0,0,.48,1.56l5.2,3.45a1.34,1.34,0,0,0,1.63-.18l4.35-4.49a19.23,19.23,0,0,0,3.87.77l2.37,5.84a1.34,1.34,0,0,0,1.45.77l6.11-1.25a1.32,1.32,0,0,0,1-1.27l-.1-6.27a19.24,19.24,0,0,0,3.28-2.21l5.78,2.44a1.34,1.34,0,0,0,1.57-.47l3.44-5.21A1.31,1.31,0,0,0,523.09,262.94Zm-27,0a10.71,10.71,0,1,1,11.66-2.37A10.73,10.73,0,0,1,496.08,262.93Z"/><g class="cls-7"><path class="cls-6" d="M589.26,206a28.46,28.46,0,0,1-7.88-.89c-3.75-.9-4.65-3.28-4.25-4.46a6.92,6.92,0,0,1,3.51-3.74c3.42-1,5.28-1.09,9.41-.42a8.79,8.79,0,0,1-4.91-2.63,3,3,0,0,1,.13-3.95c3.42-2.53,6.63-1.32,11.36.59a10.18,10.18,0,0,1-3.61-2.34,3.14,3.14,0,0,1-1.14-2.68c.26-1.41,3.41-2.61,5.14-2.76a22.74,22.74,0,0,1,10.3,1.67c3.53,1.26,6.5,3.88,6.92,7,.18-2,2.81-3.58,5.27-3.33a5.75,5.75,0,0,1,5,4,6.28,6.28,0,0,1-1.78,5.73c2.27-.59,4.07-1.49,6.37-1S634,199,633.25,202c-.22.84-1.69,3.49-5.58,3.95a76.69,76.69,0,0,1-15,.59Z"/></g><g class="cls-7"><path class="cls-6" d="M294,236.45a21.33,21.33,0,0,1-7.22-1c-3.43-1-4.25-3.66-3.89-5s1.87-3.68,3.22-4.17c3.13-1.15,4.83-1.22,8.61-.47a7.75,7.75,0,0,1-4.49-2.94,3.91,3.91,0,0,1,.12-4.41c3.13-2.82,6.07-1.47,10.4.66a9.23,9.23,0,0,1-3.31-2.62,3.89,3.89,0,0,1-1-3c.23-1.57,3.12-2.91,4.7-3.08,3.5-.37,6.2.46,9.43,1.86s5.95,4.34,6.34,7.84a4.38,4.38,0,0,1,4.82-3.72,5.66,5.66,0,0,1,4.58,4.45,8,8,0,0,1-1.63,6.4c2.08-.66,3.72-1.66,5.83-1.13a4.87,4.87,0,0,1,3.8,5.83,6.19,6.19,0,0,1-5.11,4.41,58.27,58.27,0,0,1-13.71.67Z"/></g><path class="cls-6" d="M644.58,272.85c-.86.76-2.08.43-2.08-1.07V268.2a2,2,0,0,0-2-2H638a4.26,4.26,0,0,1,.44,1.85,4,4,0,0,1-4.1,4h-.15a4,4,0,0,1-4.09-4,4.1,4.1,0,0,1,.44-1.85h-2.67a1.93,1.93,0,0,0-1.93,1.93v3.62c0,1.5-1.24,1.82-2.1,1.07a2.23,2.23,0,1,0,0,3.4c.86-.77,2.11-.43,2.11,1.06v3.55a1.93,1.93,0,0,0,1.93,1.93h3.6c1.49,0,1.81,1.25,1.06,2.11a2.24,2.24,0,1,0,3.4,0c-.76-.86-.43-2.12,1.06-2.12h3.58a1.93,1.93,0,0,0,1.93-1.93V277.3c0-1.49,1.21-1.82,2.07-1.06a2.23,2.23,0,1,0,0-3.39Z"/><path class="cls-6" d="M560.31,181.59l1.28-1.28L560.31,179a1.48,1.48,0,0,1,0-2.1,1.47,1.47,0,0,1,2.1,0l1.29,1.28,1.29-1.28a1.47,1.47,0,0,1,2.1,0,1.48,1.48,0,0,1,0,2.1l-1.28,1.29,1.28,1.28a1.49,1.49,0,0,1-2.1,2.11l-1.29-1.29-1.29,1.29a1.49,1.49,0,1,1-2.1-2.11Z"/><path class="cls-6" d="M303.88,273.38l1.29-1.28-1.29-1.29A1.49,1.49,0,0,1,306,268.7l1.28,1.29,1.29-1.29a1.49,1.49,0,0,1,2.11,2.11l-1.29,1.29,1.29,1.28a1.49,1.49,0,0,1-2.11,2.11l-1.29-1.29L306,275.49a1.49,1.49,0,0,1-2.11-2.11Z"/><path class="cls-6" d="M657.29,377l1.28-1.28-1.28-1.29a1.49,1.49,0,1,1,2.1-2.11l1.29,1.29,1.29-1.29a1.49,1.49,0,0,1,2.1,2.11l-1.29,1.29,1.29,1.28A1.49,1.49,0,1,1,662,379.1l-1.28-1.29-1.29,1.29a1.49,1.49,0,1,1-2.1-2.11Z"/><path class="cls-6" d="M284.2,376.61l1.29-1.29L284.2,374a1.49,1.49,0,0,1,2.11-2.11l1.28,1.29,1.29-1.29A1.49,1.49,0,0,1,291,374l-1.28,1.28,1.28,1.29a1.49,1.49,0,0,1-2.1,2.11l-1.29-1.29-1.28,1.29a1.49,1.49,0,0,1-2.11-2.11Z"/><path class="cls-8" d="M456.87,296.76a65.78,65.78,0,0,1-16.22-21.95,63.39,63.39,0,0,1-4.11-12,60.24,60.24,0,0,1-1.23-7.06c-.23-2,0-4.26-.62-6.18-.08-.27-.44-.19-.5.05-.54,1.91-.05,4.25.18,6.21a62.94,62.94,0,0,0,1.13,6.54,64.29,64.29,0,0,0,4.66,13.4A63,63,0,0,0,447,287a60.69,60.69,0,0,0,9.83,9.79s.07,0,0-.05Z"/><path class="cls-8" d="M450.57,290.73a6.28,6.28,0,0,1-2.65,0,27.69,27.69,0,0,0-6.82-2.21,2.34,2.34,0,0,0-1.59.16,1.06,1.06,0,0,0-.19,1.14,2.13,2.13,0,0,0,.79.84c3.13,2.16,6.69,1,10.58.47Z"/><path class="cls-8" d="M446.28,285a11.84,11.84,0,0,1-2.84.28c-2.36-.65-3-1.85-6.66-2.94a2.48,2.48,0,0,0-1.76.06,1.34,1.34,0,0,0-.46,1.28,2,2,0,0,0,.67,1c2.92,2.73,9.13,1.7,11.13.79Z"/><path class="cls-8" d="M443.15,279.88a2.94,2.94,0,0,1-2.56-.48c-3.17-2.43-3-2.78-6.83-4.76-.42-.22-1.43-.58-1.88-.35a1.23,1.23,0,0,0-.6,1.25,2.45,2.45,0,0,0,.62,1.23c2.89,3.55,7.72,3.81,11.46,3.58Z"/><path class="cls-8" d="M440.05,274c.36-.05-2.08-1-3.31-2.17-3.68-3.22-3-4.11-6.59-6.67-.39-.29-1.36-.8-1.84-.64a1.25,1.25,0,0,0-.76,1.17A2.64,2.64,0,0,0,428,267c2.46,4,7.43,5.63,12,7Z"/><path class="cls-8" d="M437,265.22c.33-.06-1.74-.28-2.77-1.41-2.76-2.08-2.5-3.72-5.56-6.07-.34-.26-1.18-.72-1.63-.54a1.33,1.33,0,0,0-.76,1.15,2.39,2.39,0,0,0,.33,1.27c2,3.77,8.39,6.31,10.39,5.6Z"/><path class="cls-8" d="M435.25,258.51c.32,0-.92-.72-1.65-1.7-1.68-2.34-2.1-3.32-4.46-5.36a1.94,1.94,0,0,0-1.4-.49,1.58,1.58,0,0,0-.93,1,1.75,1.75,0,0,0,.06,1.07c1.06,3.22,4.84,4.48,8.38,5.52Z"/><path class="cls-8" d="M434.86,253.28c.27.08-.85-.69-1.21-1.82-1.23-2.38-.45-3.41-1.8-5.84-.15-.27-.59-.82-1-.88a1.15,1.15,0,0,0-1,.41,1.33,1.33,0,0,0-.24.85c0,2.87,2.69,5.21,5.25,7.28Z"/><path class="cls-8" d="M452,292.14c-.26.14,1-.89,1.14-2.12a22.13,22.13,0,0,1,1-6.26c.11-.34.45-1.06.85-1.2a1.1,1.1,0,0,1,1.1.27,1.67,1.67,0,0,1,.41.93c.56,3.31-2,5.73-4.24,8.61Z"/><path class="cls-8" d="M447.79,287a11.22,11.22,0,0,0,1.78-2.15c.73-2.22.07-3.36,1.14-6.86.11-.38.52-1.22,1-1.39a1.39,1.39,0,0,1,1.33.29,1.78,1.78,0,0,1,.5,1.06c.72,3.75-3.51,8.23-5.36,9.37Z"/><path class="cls-8" d="M444,281.65a2.78,2.78,0,0,0,1.3-2c.22-3.51-.14-3.6.85-7.3.11-.4.5-1.28,1-1.47a1.33,1.33,0,0,1,1.34.29,2,2,0,0,1,.53,1.1c.8,3.93-2.15,7.37-4.77,9.79Z"/><path class="cls-8" d="M440.13,274.76c-.34.11,1.3-1.57,1.73-3,1.51-3.93.49-4.32,2.25-7.72.19-.38.76-1.16,1.25-1.24a1.37,1.37,0,0,1,1.25.57,1.94,1.94,0,0,1,.27,1.19c-.06,4-3.49,7.29-6.75,10.2Z"/><path class="cls-8" d="M437.49,267.69c-.32.09,1.37-.93,1.72-2.25,1.39-2.77.36-3.95,1.88-7.07.17-.34.68-1,1.15-1.09a1.46,1.46,0,0,1,1.23.59,2,2,0,0,1,.33,1.13c.14,3.78-4.22,8.42-6.31,8.69Z"/><path class="cls-8" d="M435.57,260.28c-.31.07.59-1,.9-2.19.7-2.79.72-3.86,2.16-6.63.16-.31.65-.93,1.12-1A1.54,1.54,0,0,1,441,251a1.69,1.69,0,0,1,.34,1c.21,3.38-2.84,5.95-5.74,8.23Z"/><path class="cls-8" d="M434.8,253.94c-.26.12.75-.73.93-1.74.83-2.2-.16-2.93.8-5.2a1.77,1.77,0,0,1,.87-.91,1.41,1.41,0,0,1,1.12.16,1,1,0,0,1,.4.67c.54,2.39-1.84,4.83-4.12,7Z"/><path class="cls-9" d="M440,297.44c3-3.51-1.61-7.26-6.31-6.51-4,.64-8.93,2.88-10.83.19-.16-3.63,3-6.83,5.24-10.1s3.29-7.91-.95-9.84c-4.73-2.07-10.29.71-15.1,2.05-2.22.63-5.25.75-6.85-.77-3.33-3,3.38-8-1.52-9.83-2.27-.32-4.52.27-5.5,1.45-1.15,1.42-1.84,3.93-4.32,3.11-2.87-.93-.82-3.93-2.95-5.68a5.18,5.18,0,0,0-5.08-.39,3.87,3.87,0,0,0-1.6,3.05c-3.4-.91-2.06-3.47-8.23-4.84-4-.87-4.14,3.24-.61,5,2.85,1.44,7.61,2.09,7.69,4.1.07,1.39-2.72,1.55-2.62,2.93.14,1.77,3.88,2.78,6.21,2.76s6.09.8,6.15,2.66c-3.69.23-7.53.54-9.3,2.55s0,6.38,3.34,7.87c2.36,1.06,4.46.17,6.5-.44s5.21-.67,6.85,1.31c-1.69,2.12-3.12,5.35-.89,7.73,3,3.47,9.27-.4,12.05,3.13-1.93,1.54-3.84,3.14-4.8,5.38s-.82,5.35.75,7.08c3,3.53,10.48-1,11.89,3.73.48,2-.85,4.55-.62,6.64.21,2.93,3.3,3.39,6.11,2.38,4.47-1.58,12.89-7.44,13.18-12.95,0-2.87-3.95-3.73-4-6.55C433.75,300.92,437.56,300.28,440,297.44Z"/><path class="cls-10" d="M392.18,269.7c5.53,2,10,5.8,13.88,9.11a125.25,125.25,0,0,1,11.65,12.39,91.4,91.4,0,0,1,8.13,13.59c1.87,4.71,4.05,9.7,4.11,15,0,.23-.36.49-.44.26-1.55-4.06-2.27-9.14-3.88-13.48a92.5,92.5,0,0,0-7.42-13.23,124.39,124.39,0,0,0-11-12.45,108.51,108.51,0,0,0-15.08-11.15s0-.07,0-.05Z"/><path class="cls-10" d="M414.16,285.63c-.38-3.45,1.2-7.1,3.55-9.9.26-.3.94,0,.69.29-2.37,3.09-3.24,6.12-4,9.63,0,.11-.22.08-.23,0Z"/><path class="cls-10" d="M400.66,273.22l.08,0s.05.05,0,.07l0,.08c0,.05-.11.06-.18,0-.86-.31-.74-1.79-.78-2.29-.1-1-.22-2.35.49-3.2.08-.09.35,0,.37.1a15.7,15.7,0,0,1-.21,2.56c0,.84.13,1.82.19,2.62a0,0,0,0,1,0,0Z"/><path class="cls-10" d="M405.58,280.55a17.24,17.24,0,0,0-5.71.13c-.92.22-1.95,1-3,.88-.11,0-.2-.09-.17-.18.31-.78,2.06-1.1,3-1.28a19.07,19.07,0,0,1,5.84,0c.3,0,.3.46,0,.43Z"/><path class="cls-10" d="M422,303.56a11.44,11.44,0,0,0-8.42,1.35c-.27.16-.54-.29-.28-.49a9.15,9.15,0,0,1,8.83-1.15c.17.08.06.32-.13.29Z"/><path class="cls-10" d="M426.64,305c.85-2.92,3-6.72,6.33-8.19.34-.15.62.24.28.46-3.35,2.14-4.47,4.79-6.39,7.77-.07.11-.26.1-.22,0Z"/><path class="cls-10" d="M416.28,292.27c-3.85-1.11-7.9-2.66-11.32-.63-.31.19-.67-.32-.36-.5,3.33-1.84,8.15-.76,11.72,1.05.05,0,0,.09,0,.08Z"/><path class="cls-6" d="M421.53,444.66a58.89,58.89,0,0,0-6.21-9,5.71,5.71,0,0,0,.48-1c.2-.65.3-1.72.52-2.36a14.35,14.35,0,0,0,1.05-4.63,5.2,5.2,0,0,0-1.85-4.21,1.19,1.19,0,0,0-.79-.31,1.25,1.25,0,0,0-.85.55,6.51,6.51,0,0,0-1.2,2.86c-.48,2.37.19,4.92,1,7.24a65.76,65.76,0,0,0-9.55-8.48,5.45,5.45,0,0,0,.32-.85c.16-.66.2-1.73.38-2.38a14,14,0,0,0,.78-4.69,5.21,5.21,0,0,0-2.09-4.1,1.27,1.27,0,0,0-.81-.26,1.32,1.32,0,0,0-.82.6,6.51,6.51,0,0,0-1,2.92c-.36,2.55.57,5.22,1.6,7.6a66.83,66.83,0,0,0-8.63-5,5.19,5.19,0,0,0,.51-1.23c.16-.66.2-1.73.39-2.39a14.13,14.13,0,0,0,.77-4.68,5.18,5.18,0,0,0-2.08-4.1,1.21,1.21,0,0,0-.81-.26,1.24,1.24,0,0,0-.82.6,6.52,6.52,0,0,0-1,2.92c-.37,2.65.66,5.45,1.74,7.9a4.68,4.68,0,0,1,.19.69c-1.69-.8-3.43-1.47-5.16-2.18-2-.69-4.06-1.43-6.15-1.95l-1.9-.48.08-.33c.12-.67.08-1.75.23-2.41a14.24,14.24,0,0,0,.47-4.72,5.21,5.21,0,0,0-2.34-4,1.3,1.3,0,0,0-.83-.21,1.35,1.35,0,0,0-.78.65,6.53,6.53,0,0,0-.83,3c-.2,2.59.92,5.22,2.11,7.53-2.88-.67-5.76-1.26-8.58-2a61.1,61.1,0,0,1-6.72-2.14,6.64,6.64,0,0,0,.84-1c.35-.59.7-1.6,1.07-2.17a14.35,14.35,0,0,0,2.12-4.25,5.22,5.22,0,0,0-.79-4.53,1,1,0,0,0-1.66-.16,6.61,6.61,0,0,0-1.84,2.49c-1.14,2.43-1,5.4-.66,8.06a8.6,8.6,0,0,1-.06,1.18,28,28,0,0,1-3.81-2,18.17,18.17,0,0,1-4.59-4,14.44,14.44,0,0,1-1.59-2.27,6.41,6.41,0,0,0,1.41-.58c.57-.36,1.35-1.1,1.94-1.43a14.4,14.4,0,0,0,3.83-2.81,5.19,5.19,0,0,0,1.37-4.39,1.22,1.22,0,0,0-.39-.75,1.26,1.26,0,0,0-1-.15,6.56,6.56,0,0,0-2.77,1.37c-2.13,1.64-3.34,4.36-4.29,6.86a6.5,6.5,0,0,1-.56,1,12.3,12.3,0,0,1-.88-2.12,26.75,26.75,0,0,1-1.18-8.85l.19,0a6,6,0,0,0,1.71-.45c.61-.3,1.46-.95,2.08-1.22a14.16,14.16,0,0,0,4.11-2.38,5.18,5.18,0,0,0,1.84-4.21,1.24,1.24,0,0,0-.31-.79,1.29,1.29,0,0,0-1-.26,6.47,6.47,0,0,0-2.91,1.07c-2.29,1.39-3.79,4-5,6.35a8.88,8.88,0,0,1-.72,1c0-.88.07-1.77.13-2.65.17-2.76.41-5.53.51-8.32h0a5.7,5.7,0,0,0,1.71-.45c.61-.29,1.46-.95,2.08-1.21A14.39,14.39,0,0,0,357.4,373a5.21,5.21,0,0,0,1.84-4.22,1.24,1.24,0,0,0-.31-.79,1.28,1.28,0,0,0-1-.25,6.58,6.58,0,0,0-2.91,1.06c-2.29,1.4-3.79,4-5,6.36a5,5,0,0,1-.53.73c0-1.08,0-2.17,0-3.26l-.15-1.61-.08-.8-.15-.79c-.11-.53-.2-1.07-.31-1.59l-.49-1.55a6.68,6.68,0,0,0-.31-.89,18.26,18.26,0,0,0,1.5-1.38c.48-.48,1-.93,1.48-1.39a14.38,14.38,0,0,0,3.09-3.61,5.24,5.24,0,0,0,.33-4.59,1,1,0,0,0-1.57-.56,6.52,6.52,0,0,0-2.39,2A13.64,13.64,0,0,0,347.7,363a7.25,7.25,0,0,1-.31,1.06c-.12-.27-.25-.54-.39-.8a17.78,17.78,0,0,0-1.88-2.69,20.13,20.13,0,0,0-4.44-3.85c.15-.49.21-1.26.32-1.61.19-.65.43-1.29.65-1.93a14.35,14.35,0,0,0,1.05-4.63,5.23,5.23,0,0,0-1.85-4.21,1.27,1.27,0,0,0-.8-.31,1.29,1.29,0,0,0-.85.55,6.66,6.66,0,0,0-1.19,2.86,14.48,14.48,0,0,0,.65,7.9l.07.18a41,41,0,0,0-4.39-2.09c-1.38-.56-2.77-1.06-4.16-1.54.08-.42.13-.88.21-1.13.19-.65.43-1.29.65-1.93a14.35,14.35,0,0,0,1-4.63,5.2,5.2,0,0,0-1.85-4.21,1.27,1.27,0,0,0-.8-.31,1.29,1.29,0,0,0-.85.55,6.66,6.66,0,0,0-1.19,2.86,14.57,14.57,0,0,0,.65,7.9l.07.18c-1.94-.66-3.87-1.3-5.76-2-1.13-.43-2.25-.89-3.36-1.4.17-.36.32-.75.45-.95.35-.58.74-1.14,1.12-1.7a14,14,0,0,0,2.19-4.21,5.19,5.19,0,0,0-.71-4.54,1.22,1.22,0,0,0-.69-.5,1.24,1.24,0,0,0-1,.31,6.46,6.46,0,0,0-1.89,2.46,14.6,14.6,0,0,0-1.38,7.81c0,.11,0,.26.05.42a22.45,22.45,0,0,1-5.4-3.82,19.33,19.33,0,0,1-2.32-2.78c.37-.25.83-.75,1.1-.93.48-.33,1-.64,1.46-.95a12.1,12.1,0,0,0,3.17-2.55,4.42,4.42,0,0,0,1-3.81,1,1,0,0,0-.37-.63,1.11,1.11,0,0,0-.86-.09,5.61,5.61,0,0,0-2.32,1.29,12.4,12.4,0,0,0-3.76,5.65c-.06.18-.14.45-.21.73-.16-.27-.32-.54-.46-.82a24.82,24.82,0,0,1-2-5.83c-.05-.23-.07-.47-.12-.7.26-.2.56-.51.73-.63.37-.25.75-.49,1.12-.72a9.3,9.3,0,0,0,2.41-1.95,3.43,3.43,0,0,0,.76-2.9.83.83,0,0,0-.29-.48.81.81,0,0,0-.65-.06,4.24,4.24,0,0,0-1.77,1,9.41,9.41,0,0,0-2.66,3.8,92.65,92.65,0,0,1-.82-9.89h-.22c-.12,2.12-.19,4.24-.15,6.37,0,1.43.09,2.87.24,4.31l-.14-.05c-.41-.18-.8-.38-1.2-.58a9,9,0,0,0-2.91-1.05,3.37,3.37,0,0,0-2.87.85.89.89,0,0,0-.27.49.86.86,0,0,0,.29.6,4.31,4.31,0,0,0,1.75,1,9.57,9.57,0,0,0,5.17.22l.36-.1c0,.24.07.47.11.71a26.2,26.2,0,0,0,1.82,6.24c.12.26.25.5.38.75l-.44-.09c-.55-.19-1.09-.4-1.63-.61a12.47,12.47,0,0,0-3.95-1,4.45,4.45,0,0,0-3.64,1.5.88.88,0,0,0,.17,1.41,5.59,5.59,0,0,0,2.42,1.08,12.41,12.41,0,0,0,6.78-.39,7.24,7.24,0,0,0,1.09-.46,18,18,0,0,0,2.5,3.27,22.09,22.09,0,0,0,4,3.27l-.28-.06a12,12,0,0,0-4-.47,4.47,4.47,0,0,0-3.42,1.95,1.11,1.11,0,0,0-.19.7,1.09,1.09,0,0,0,.55.68,5.61,5.61,0,0,0,2.54.76,12.42,12.42,0,0,0,6.67-1.27,6.72,6.72,0,0,0,1.09-.64c1.36.68,2.76,1.28,4.14,1.82s2.63,1,3.95,1.42a11.73,11.73,0,0,0-3.85.92,4.46,4.46,0,0,0-2.56,3,1.14,1.14,0,0,0,.06.73,1.12,1.12,0,0,0,.75.44,5.38,5.38,0,0,0,2.64-.15,12.42,12.42,0,0,0,5.85-3.46l.36-.4c1.62.53,3.23,1.07,4.81,1.65a46.09,46.09,0,0,1,4.4,1.87h0c-.57.09-1.15.15-1.73.22a12.19,12.19,0,0,0-4,.93,4.45,4.45,0,0,0-2.55,3,1.08,1.08,0,0,0,.06.73,1.11,1.11,0,0,0,.74.45,5.55,5.55,0,0,0,2.65-.16,12.37,12.37,0,0,0,5.84-3.45,7.82,7.82,0,0,0,.68-.79,19,19,0,0,1,4.42,3.45,15.83,15.83,0,0,1,1.88,2.42c.23.37.42.77.63,1.16-.39,0-.82,0-1.06,0-.57-.08-1.15-.18-1.72-.28a12.34,12.34,0,0,0-4.06-.21,4.49,4.49,0,0,0-3.29,2.17,1.09,1.09,0,0,0-.14.72,1.12,1.12,0,0,0,.59.64,5.71,5.71,0,0,0,2.58.59,12.47,12.47,0,0,0,6.58-1.7,6.51,6.51,0,0,0,1.09-.75c.06.14.12.28.17.43L348,368c.12.5.23,1,.34,1.52l.17.76.1.78.18,1.55c.08,1.22.09,2.44.06,3.66-.39-.2-1.05-.36-1.33-.5-.52-.26-1-.55-1.53-.84a12.46,12.46,0,0,0-3.76-1.55,4.49,4.49,0,0,0-3.82.95.88.88,0,0,0,0,1.43,5.61,5.61,0,0,0,2.24,1.42,12.5,12.5,0,0,0,6.77.59,5.77,5.77,0,0,0,1.44-.42c-.12,2.62-.41,5.26-.62,7.9-.06.8-.11,1.6-.15,2.41-.36-.21-.84-.41-1.06-.55-.48-.33-.94-.68-1.41-1a12,12,0,0,0-3.52-2,4.46,4.46,0,0,0-3.92.44.89.89,0,0,0-.22,1.41,5.71,5.71,0,0,0,2,1.7,12.42,12.42,0,0,0,6.63,1.47,6.25,6.25,0,0,0,1.41-.2c-.05.92-.05,1.85-.05,2.77a24.16,24.16,0,0,0,.92,6.41,8.2,8.2,0,0,0,.37,1.19l-.2-.13c-.46-.35-.9-.73-1.35-1.1a12,12,0,0,0-3.42-2.2,4.41,4.41,0,0,0-3.93.24,1,1,0,0,0-.48.54,1.1,1.1,0,0,0,.19.85,5.44,5.44,0,0,0,2,1.8,12.36,12.36,0,0,0,6.54,1.81,6.14,6.14,0,0,0,1.4-.12l.09.2a17.71,17.71,0,0,0,1.75,2.8,18.68,18.68,0,0,0,4.81,4.49c.5.34,1,.65,1.54.95a11.48,11.48,0,0,0-3.7,0,4.47,4.47,0,0,0-3.17,2.34,1.08,1.08,0,0,0-.11.72,1.07,1.07,0,0,0,.62.61,5.53,5.53,0,0,0,2.61.46,12.49,12.49,0,0,0,6.48-2,7.3,7.3,0,0,0,.64-.45,54.9,54.9,0,0,0,7,2.41c2.56.73,5.15,1.32,7.7,1.95l-1,.16a11.94,11.94,0,0,0-3.92,1.06,4.45,4.45,0,0,0-2.45,3.08,1.07,1.07,0,0,0,.08.73,1.1,1.1,0,0,0,.76.42,5.42,5.42,0,0,0,2.64-.24,12.42,12.42,0,0,0,5.72-3.65,7.93,7.93,0,0,0,.7-.89c.68.18,1.36.36,2,.55,2,.54,4,1.26,5.94,1.94l3.1,1.27-.58.05a12.28,12.28,0,0,0-4,.81,4.46,4.46,0,0,0-2.64,2.92,1.07,1.07,0,0,0,0,.73,1.06,1.06,0,0,0,.72.47,5.57,5.57,0,0,0,2.66-.07A12.4,12.4,0,0,0,392,421.5c.11-.11.28-.27.45-.46l.05,0a71.37,71.37,0,0,1,8.77,4.86c-.54,0-1.07,0-1.61.06a11.91,11.91,0,0,0-4,.56,4.46,4.46,0,0,0-2.82,2.75,1,1,0,0,0,0,.73,1.12,1.12,0,0,0,.69.52,5.65,5.65,0,0,0,2.65.09,12.44,12.44,0,0,0,6.14-2.91,9.11,9.11,0,0,0,.69-.65l.34.23a62.79,62.79,0,0,1,9.54,8.07l.44.48a5,5,0,0,1-.64.08c-.58,0-1.16,0-1.74-.05a12.26,12.26,0,0,0-4.06.33,4.44,4.44,0,0,0-3,2.59,1.08,1.08,0,0,0-.05.73,1.12,1.12,0,0,0,.67.55,5.61,5.61,0,0,0,2.64.25,12.5,12.5,0,0,0,6.29-2.55,7.91,7.91,0,0,0,.9-.79,59,59,0,0,1,6.25,8.23c1,1.83,2.11,3.63,2.95,5.56l.67,1.43.55,1.48c.36,1,.79,2,1.11,3l.21-.06A52.13,52.13,0,0,0,421.53,444.66Z"/><path class="cls-8" d="M527.06,421.66a65.52,65.52,0,0,0,25.22-10.41,63.45,63.45,0,0,0,9.71-8.12,60.64,60.64,0,0,0,4.7-5.42c1.23-1.6,2.2-3.64,3.72-5a.27.27,0,0,1,.41.3c-.53,1.92-2.16,3.67-3.37,5.23a62.83,62.83,0,0,1-4.35,5,64.32,64.32,0,0,1-22.56,15.14,60.69,60.69,0,0,1-13.47,3.3,0,0,0,0,1,0-.07Z"/><path class="cls-8" d="M535.57,419.75a6,6,0,0,0,2.28,1.35,28.13,28.13,0,0,1,7,1.63c.37.13,1.15.55,1.27,1a1,1,0,0,1-.42,1.07,2,2,0,0,1-1.11.31c-3.8.24-6.27-2.56-9.31-5.06Z"/><path class="cls-8" d="M542.23,417a10.73,10.73,0,0,0,2.29,1.71c2.35.67,3.52,0,7.22.93.41.1,1.29.49,1.47.95a1.32,1.32,0,0,1-.27,1.34,2,2,0,0,1-1.1.54c-3.91.83-8.7-3.26-9.94-5.07Z"/><path class="cls-8" d="M547.53,414.31a3,3,0,0,0,2.43.91c4-.45,4-.83,8.32-.56.47,0,1.52.25,1.79.68a1.26,1.26,0,0,1-.13,1.38,2.53,2.53,0,0,1-1.17.73c-4.31,1.55-8.58-.72-11.67-2.86Z"/><path class="cls-8" d="M553.23,410.85c-.28-.24,2.27.26,4-.15,4.81-.86,4.7-2,9.09-2.32a2.93,2.93,0,0,1,1.9.41,1.25,1.25,0,0,1,.05,1.4,2.64,2.64,0,0,1-1.09.89c-4.17,2.16-9.27,1-13.91-.23Z"/><path class="cls-8" d="M560.34,404.91c-.25-.22,1.63.66,3.1.22,3.44-.35,4.06-1.89,7.9-2.32.43-.05,1.38,0,1.67.38a1.36,1.36,0,0,1,.06,1.38,2.49,2.49,0,0,1-.94.91c-3.63,2.22-10.44,1.07-11.79-.57Z"/><path class="cls-8" d="M565.33,400.09c-.25-.21,1.16-.15,2.29-.61,2.65-1.13,3.51-1.75,6.59-2.28a1.88,1.88,0,0,1,1.45.3,1.55,1.55,0,0,1,.3,1.3,1.7,1.7,0,0,1-.61.89c-2.56,2.21-6.45,1.33-10,.4Z"/><path class="cls-8" d="M568.37,395.81c-.27-.07,1.08-.15,2-.93,2.27-1.41,2.14-2.69,4.55-4.08a1.87,1.87,0,0,1,1.3-.24,1.15,1.15,0,0,1,.66.87,1.34,1.34,0,0,1-.24.86c-1.47,2.47-5,3.07-8.25,3.52Z"/><path class="cls-8" d="M533.59,420.21a5.31,5.31,0,0,1,.12-2.41,22,22,0,0,0,2.35-5.89,2.1,2.1,0,0,0-.1-1.46,1.11,1.11,0,0,0-1.09-.34,1.66,1.66,0,0,0-.83.59c-2.19,2.54-1.23,5.95-.81,9.56Z"/><path class="cls-8" d="M539.88,418a11,11,0,0,1-.41-2.76c.52-2.28,1.67-2.91,2.57-6.46a2.4,2.4,0,0,0-.14-1.7,1.38,1.38,0,0,0-1.29-.44,1.91,1.91,0,0,0-1,.64c-2.55,2.84-1.24,8.86-.25,10.8Z"/><path class="cls-8" d="M545.91,415.39a2.74,2.74,0,0,1-.07-2.39c1.62-3.12,2-3,3-6.69a2.46,2.46,0,0,0-.07-1.75,1.3,1.3,0,0,0-1.29-.45,2,2,0,0,0-1,.67c-2.72,3-2,7.42-1,10.85Z"/><path class="cls-8" d="M552.76,411.48c.23.27-.3-2,.07-3.46.73-4.15,1.81-4,2.06-7.78a2.46,2.46,0,0,0-.44-1.7,1.31,1.31,0,0,0-1.35-.16,2,2,0,0,0-.86.88c-2,3.47-.76,8,.52,12.22Z"/><path class="cls-8" d="M558.67,406.79c.23.24-.69-1.51-.31-2.82.24-3.09,1.74-3.57,2-7,0-.38,0-1.24-.42-1.53a1.43,1.43,0,0,0-1.36-.13,2,2,0,0,0-.86.8c-2.07,3.16-.74,9.39.91,10.7Z"/><path class="cls-8" d="M564.14,401.43c.23.23,0-1.16.36-2.33.85-2.76,1.38-3.68,1.58-6.8a1.9,1.9,0,0,0-.45-1.41,1.54,1.54,0,0,0-1.33-.16,1.71,1.71,0,0,0-.82.69c-1.93,2.79-.64,6.56.66,10Z"/><path class="cls-8" d="M568.07,396.41c.17.23-.26-1,.11-2,.43-2.32,1.65-2.43,2-4.87a1.79,1.79,0,0,0-.27-1.23,1.44,1.44,0,0,0-1-.44,1,1,0,0,0-.69.36c-1.7,1.78-.92,5.09-.11,8.15Z"/><path class="cls-6" d="M503.55,390.62c-3.05-3.51,1.61-7.27,6.31-6.51,4,.64,8.93,2.87,10.83.19.16-3.63-3-6.84-5.24-10.1s-3.29-7.91.94-9.84c4.74-2.08,10.3.71,15.11,2.05,2.22.63,5.25.75,6.85-.77,3.33-3-3.38-8,1.52-9.83,2.27-.32,4.52.27,5.5,1.45,1.15,1.42,1.84,3.93,4.32,3.11,2.87-.93.82-3.93,2.95-5.68a5.18,5.18,0,0,1,5.08-.39,3.87,3.87,0,0,1,1.6,3.05c3.4-.91,2.06-3.47,8.23-4.84,4-.87,4.14,3.24.61,5-2.86,1.44-7.61,2.09-7.7,4.09-.06,1.4,2.73,1.56,2.63,2.94-.14,1.77-3.88,2.77-6.22,2.75s-6.08.81-6.14,2.67c3.69.23,7.53.54,9.3,2.55s0,6.37-3.34,7.87c-2.36,1.06-4.46.17-6.5-.44s-5.21-.67-6.85,1.31c1.69,2.12,3.12,5.35.89,7.73-3,3.46-9.27-.4-12.06,3.12,1.94,1.54,3.85,3.15,4.81,5.39s.82,5.35-.75,7.07c-3,3.53-10.48-1-11.89,3.74-.48,2,.85,4.55.62,6.63-.21,2.94-3.3,3.4-6.11,2.38-4.47-1.57-12.89-7.43-13.18-12.94,0-2.87,3.95-3.73,3.95-6.55C509.78,394.09,506,393.46,503.55,390.62Z"/><path class="cls-10" d="M551.35,362.88c-5.53,2-10,5.8-13.88,9.11a124.15,124.15,0,0,0-11.65,12.39A91.4,91.4,0,0,0,517.69,398c-1.87,4.71-4.05,9.69-4.11,15,0,.23.36.49.44.26,1.55-4.06,2.27-9.14,3.88-13.48a92.5,92.5,0,0,1,7.42-13.23,124.33,124.33,0,0,1,11-12.46,109.77,109.77,0,0,1,15.07-11.14s0-.07,0-.05Z"/><path class="cls-10" d="M529.37,378.81c.38-3.45-1.2-7.11-3.55-9.9-.26-.3-.94,0-.69.29,2.37,3.09,3.24,6.12,4,9.63,0,.11.22.08.23,0Z"/><path class="cls-10" d="M542.87,366.39l-.08,0a.05.05,0,0,0,0,.07l0,.08c0,.05.11.06.18,0,.86-.31.74-1.78.78-2.29.1-1.05.22-2.34-.49-3.19-.08-.09-.35,0-.37.1a15.7,15.7,0,0,0,.21,2.56c0,.84-.13,1.82-.19,2.62,0,0,0,0,0,0Z"/><path class="cls-10" d="M538,373.72a17.51,17.51,0,0,1,5.71.14c.91.22,2,1,3,.88.11,0,.2-.1.17-.18-.31-.78-2.06-1.1-3-1.28a18.76,18.76,0,0,0-5.84,0c-.3,0-.3.46,0,.42Z"/><path class="cls-10" d="M521.53,396.74a11.49,11.49,0,0,1,8.42,1.34c.27.16.54-.28.28-.48a9.18,9.18,0,0,0-8.83-1.16c-.17.09-.06.33.13.3Z"/><path class="cls-10" d="M516.89,398.17c-.85-2.92-3-6.73-6.33-8.19-.34-.15-.62.24-.28.45,3.35,2.15,4.46,4.8,6.39,7.78.07.1.26.1.22,0Z"/><path class="cls-10" d="M527.25,385.45c3.85-1.11,7.9-2.67,11.32-.63.31.19.67-.32.35-.5-3.32-1.85-8.14-.77-11.71,1-.05,0,0,.1,0,.09Z"/><path class="cls-6" d="M540.16,445.83a59,59,0,0,1,6.2-9,6.81,6.81,0,0,1-.47-1c-.2-.65-.3-1.72-.52-2.36a14.35,14.35,0,0,1-1-4.63,5.22,5.22,0,0,1,1.85-4.22,1.23,1.23,0,0,1,.79-.3,1.27,1.27,0,0,1,.85.55,6.47,6.47,0,0,1,1.2,2.85c.48,2.37-.19,4.92-1,7.24a66.29,66.29,0,0,1,9.55-8.47,5.45,5.45,0,0,1-.32-.85c-.16-.66-.2-1.73-.39-2.39a14.13,14.13,0,0,1-.77-4.68,5.2,5.2,0,0,1,2.09-4.1,1.21,1.21,0,0,1,.81-.26,1.24,1.24,0,0,1,.81.6,6.48,6.48,0,0,1,1,2.92c.36,2.54-.57,5.22-1.6,7.59a67.82,67.82,0,0,1,8.62-5,5.85,5.85,0,0,1-.5-1.24c-.17-.65-.2-1.73-.39-2.38a14.45,14.45,0,0,1-.78-4.68,5.2,5.2,0,0,1,2.09-4.1,1.21,1.21,0,0,1,.81-.26,1.26,1.26,0,0,1,.82.59,6.56,6.56,0,0,1,1,2.93c.37,2.65-.66,5.44-1.74,7.89a5.06,5.06,0,0,0-.19.69c1.69-.8,3.43-1.47,5.16-2.17,2-.7,4.06-1.44,6.15-1.95l1.9-.48c0-.12-.06-.24-.08-.34-.12-.67-.08-1.74-.23-2.4a14.27,14.27,0,0,1-.47-4.72,5.18,5.18,0,0,1,2.34-4,1.24,1.24,0,0,1,.83-.21,1.28,1.28,0,0,1,.78.65,6.53,6.53,0,0,1,.83,3c.2,2.58-.92,5.21-2.11,7.53,2.88-.67,5.76-1.26,8.58-2a61.05,61.05,0,0,0,6.72-2.13,6.24,6.24,0,0,1-.84-1c-.35-.58-.7-1.59-1.07-2.16a14.47,14.47,0,0,1-2.12-4.25,5.22,5.22,0,0,1,.79-4.53,1.24,1.24,0,0,1,.7-.49,1.26,1.26,0,0,1,.95.33,6.53,6.53,0,0,1,1.85,2.49c1.13,2.43,1,5.4.66,8.06a8.68,8.68,0,0,0,.06,1.18,28,28,0,0,0,3.81-2,18.17,18.17,0,0,0,4.59-4,14.52,14.52,0,0,0,1.59-2.28,5.78,5.78,0,0,1-1.41-.57c-.57-.36-1.35-1.1-1.94-1.44a14.21,14.21,0,0,1-3.83-2.8,5.19,5.19,0,0,1-1.37-4.39,1.24,1.24,0,0,1,.39-.76,1.28,1.28,0,0,1,1-.14,6.43,6.43,0,0,1,2.78,1.37c2.12,1.63,3.34,4.35,4.28,6.86a8.51,8.51,0,0,0,.57,1,12.3,12.3,0,0,0,.88-2.12,26.8,26.8,0,0,0,1.18-8.86.53.53,0,0,1-.19,0,5.42,5.42,0,0,1-1.71-.45c-.61-.29-1.46-.94-2.08-1.21a14.16,14.16,0,0,1-4.11-2.38A5.18,5.18,0,0,1,603,381.8a1.26,1.26,0,0,1,.31-.8,1.28,1.28,0,0,1,1-.25,6.58,6.58,0,0,1,2.91,1.06c2.29,1.4,3.79,4,5,6.36a7.74,7.74,0,0,0,.72,1c0-.89-.07-1.77-.13-2.65-.17-2.76-.41-5.54-.51-8.33h0a5.7,5.7,0,0,1-1.71-.45c-.61-.3-1.46-1-2.08-1.22a14.16,14.16,0,0,1-4.11-2.38,5.15,5.15,0,0,1-1.84-4.21,1,1,0,0,1,1.29-1,6.46,6.46,0,0,1,2.91,1.06c2.29,1.39,3.79,4,5,6.35a5,5,0,0,0,.53.74c0-1.09,0-2.18,0-3.27l.15-1.6.08-.8.15-.8c.1-.52.19-1.06.31-1.58l.49-1.56a5.76,5.76,0,0,1,.31-.88,18.26,18.26,0,0,1-1.5-1.38c-.48-.48-1-.94-1.48-1.4a14.2,14.2,0,0,1-3.09-3.61,5.22,5.22,0,0,1-.33-4.58,1,1,0,0,1,1.57-.56,6.5,6.5,0,0,1,2.39,2,13.7,13.7,0,0,1,2.73,7.18,7.32,7.32,0,0,0,.31,1.07c.12-.27.25-.54.39-.8a17.29,17.29,0,0,1,1.88-2.69,20.31,20.31,0,0,1,4.43-3.85c-.14-.49-.2-1.26-.31-1.61-.19-.65-.43-1.29-.65-1.93a14.35,14.35,0,0,1-1-4.63,5.2,5.2,0,0,1,1.85-4.21,1.22,1.22,0,0,1,.8-.31,1.29,1.29,0,0,1,.85.55,6.61,6.61,0,0,1,1.19,2.86,14.58,14.58,0,0,1-.65,7.9,1.71,1.71,0,0,0-.07.18,41,41,0,0,1,4.39-2.09c1.38-.56,2.77-1.06,4.15-1.55a10.74,10.74,0,0,0-.2-1.12c-.2-.65-.43-1.29-.66-1.93a14.34,14.34,0,0,1-1-4.63,5.2,5.2,0,0,1,1.85-4.21,1.22,1.22,0,0,1,.8-.31,1.29,1.29,0,0,1,.85.55,6.66,6.66,0,0,1,1.19,2.86,14.58,14.58,0,0,1-.65,7.9l-.07.18c1.94-.66,3.87-1.3,5.76-2,1.13-.43,2.25-.9,3.35-1.4a8.15,8.15,0,0,0-.44-.95c-.36-.58-.74-1.14-1.13-1.7a14.3,14.3,0,0,1-2.18-4.21,5.22,5.22,0,0,1,.71-4.55,1.32,1.32,0,0,1,.69-.5,1.29,1.29,0,0,1,1,.32,6.36,6.36,0,0,1,1.88,2.46,14.48,14.48,0,0,1,1.39,7.8c0,.12,0,.27,0,.43a22.45,22.45,0,0,0,5.4-3.82,19.41,19.41,0,0,0,2.32-2.79c-.37-.24-.83-.74-1.1-.92-.48-.34-1-.64-1.47-.95A12.25,12.25,0,0,1,646.5,337a4.41,4.41,0,0,1-1-3.81,1.05,1.05,0,0,1,.37-.63,1.11,1.11,0,0,1,.86-.08,5.61,5.61,0,0,1,2.32,1.29,12.4,12.4,0,0,1,3.76,5.65c.06.17.14.44.21.73.16-.27.32-.54.46-.82a24.42,24.42,0,0,0,2-5.84c0-.23.08-.46.13-.69-.26-.2-.56-.51-.73-.63-.37-.26-.75-.49-1.12-.72a9.51,9.51,0,0,1-2.41-1.95,3.4,3.4,0,0,1-.76-2.9.87.87,0,0,1,.28-.48.84.84,0,0,1,.66-.06,4.24,4.24,0,0,1,1.77,1,9.41,9.41,0,0,1,2.66,3.8,92.65,92.65,0,0,0,.82-9.89H657c.12,2.11.19,4.24.15,6.37,0,1.43-.09,2.87-.24,4.31l.14-.05c.41-.18.8-.39,1.2-.58a9,9,0,0,1,2.91-1.05,3.35,3.35,0,0,1,2.87.85.89.89,0,0,1,.27.49.84.84,0,0,1-.29.59,4.33,4.33,0,0,1-1.75,1,9.57,9.57,0,0,1-5.17.22l-.36-.1c0,.24-.07.47-.11.7a26.14,26.14,0,0,1-1.82,6.25c-.12.25-.25.5-.38.75a2.92,2.92,0,0,0,.44-.1c.55-.18,1.09-.39,1.63-.6a12.08,12.08,0,0,1,4-1,4.44,4.44,0,0,1,3.64,1.49,1.11,1.11,0,0,1,.28.68,1.12,1.12,0,0,1-.45.74A5.59,5.59,0,0,1,661.5,343a12.41,12.41,0,0,1-6.78-.39,7.24,7.24,0,0,1-1.09-.46,18.44,18.44,0,0,1-2.5,3.26,21.74,21.74,0,0,1-4,3.28l.28-.07a12.57,12.57,0,0,1,4-.47,4.46,4.46,0,0,1,3.42,2,.88.88,0,0,1-.36,1.38,5.6,5.6,0,0,1-2.54.75,12.41,12.41,0,0,1-6.67-1.26,6.87,6.87,0,0,1-1.09-.65c-1.36.68-2.76,1.28-4.15,1.83s-2.63,1-3.95,1.42a12,12,0,0,1,3.86.91,4.51,4.51,0,0,1,2.56,3,1.07,1.07,0,0,1-.07.73,1.09,1.09,0,0,1-.74.45,5.63,5.63,0,0,1-2.64-.15,12.5,12.5,0,0,1-5.85-3.46l-.36-.4c-1.62.53-3.23,1.06-4.81,1.65a43.66,43.66,0,0,0-4.4,1.87h0c.57.09,1.15.15,1.73.21a12.46,12.46,0,0,1,4,.94,4.45,4.45,0,0,1,2.55,3,1,1,0,0,1-.06.72,1.07,1.07,0,0,1-.74.45,5.42,5.42,0,0,1-2.65-.15,12.47,12.47,0,0,1-5.84-3.46,7.56,7.56,0,0,1-.68-.78,18.75,18.75,0,0,0-4.42,3.45,15.83,15.83,0,0,0-1.88,2.42c-.23.37-.42.77-.63,1.16.39,0,.82,0,1.06,0,.57-.07,1.14-.17,1.72-.27a12.08,12.08,0,0,1,4.06-.21,4.49,4.49,0,0,1,3.29,2.17.88.88,0,0,1-.45,1.35,5.59,5.59,0,0,1-2.58.6,12.44,12.44,0,0,1-6.58-1.7,7.17,7.17,0,0,1-1.09-.75c-.06.14-.12.28-.17.42l-.52,1.47c-.13.5-.23,1-.34,1.51l-.17.77-.1.77-.18,1.56c-.08,1.22-.09,2.44-.06,3.66.39-.2,1-.36,1.33-.51.52-.26,1-.55,1.53-.83a12.46,12.46,0,0,1,3.76-1.55,4.45,4.45,0,0,1,3.82.95,1.09,1.09,0,0,1,.38.63,1.16,1.16,0,0,1-.34.8,5.72,5.72,0,0,1-2.24,1.42,12.51,12.51,0,0,1-6.77.59,5.77,5.77,0,0,1-1.44-.42c.12,2.62.41,5.25.62,7.89.06.81.11,1.61.15,2.41.36-.2.84-.4,1.06-.55.48-.32.94-.68,1.41-1a12,12,0,0,1,3.52-2,4.46,4.46,0,0,1,3.92.44,1.09,1.09,0,0,1,.45.57,1.13,1.13,0,0,1-.23.84,5.71,5.71,0,0,1-2,1.7,12.42,12.42,0,0,1-6.63,1.47,6.25,6.25,0,0,1-1.41-.2c0,.92,0,1.84,0,2.77a24.16,24.16,0,0,1-.92,6.41,7.71,7.71,0,0,1-.37,1.18l.2-.12c.46-.35.9-.73,1.35-1.1a12.3,12.3,0,0,1,3.42-2.21,4.48,4.48,0,0,1,3.93.24,1.07,1.07,0,0,1,.48.55,1.1,1.1,0,0,1-.19.85,5.62,5.62,0,0,1-1.95,1.8,12.45,12.45,0,0,1-6.54,1.81,6.14,6.14,0,0,1-1.4-.12l-.09.19a17.8,17.8,0,0,1-1.75,2.81,18.68,18.68,0,0,1-4.81,4.49c-.5.34-1,.65-1.54.95a11.2,11.2,0,0,1,3.7,0,4.45,4.45,0,0,1,3.17,2.34.88.88,0,0,1-.51,1.33,5.66,5.66,0,0,1-2.61.46,12.46,12.46,0,0,1-6.48-2,7.3,7.3,0,0,1-.64-.45,54.9,54.9,0,0,1-7,2.41c-2.56.72-5.15,1.32-7.7,1.95.32.05.64.11,1,.15a12.2,12.2,0,0,1,3.92,1.07,4.45,4.45,0,0,1,2.45,3.08,1.07,1.07,0,0,1-.08.73,1.14,1.14,0,0,1-.76.42,5.65,5.65,0,0,1-2.64-.24,12.42,12.42,0,0,1-5.72-3.65,9.18,9.18,0,0,1-.71-.89c-.67.18-1.35.35-2,.55-2,.54-4,1.26-5.94,1.93-1,.43-2.07.84-3.1,1.28l.58,0a12.28,12.28,0,0,1,4,.81,4.44,4.44,0,0,1,2.64,2.92,1.07,1.07,0,0,1,0,.73,1.09,1.09,0,0,1-.73.47,5.53,5.53,0,0,1-2.65-.07,12.48,12.48,0,0,1-5.94-3.28c-.11-.11-.28-.27-.45-.46l0,0a71.37,71.37,0,0,0-8.77,4.86c.53,0,1.07,0,1.61.05a12.17,12.17,0,0,1,4,.57,4.44,4.44,0,0,1,2.82,2.75,1.14,1.14,0,0,1,0,.73,1.12,1.12,0,0,1-.69.52,5.69,5.69,0,0,1-2.66.09,12.44,12.44,0,0,1-6.13-2.91c-.17-.15-.44-.39-.69-.65l-.34.22a62.86,62.86,0,0,0-9.54,8.08c-.15.15-.29.32-.44.48a5,5,0,0,0,.64.08c.58,0,1.16,0,1.74-.05a12.31,12.31,0,0,1,4.06.33,4.44,4.44,0,0,1,3,2.59,1.12,1.12,0,0,1,0,.72,1.11,1.11,0,0,1-.67.56,5.48,5.48,0,0,1-2.64.24,12.4,12.4,0,0,1-6.29-2.54,7.91,7.91,0,0,1-.9-.79,59,59,0,0,0-6.25,8.23,62.75,62.75,0,0,0-3,5.56l-.67,1.43-.56,1.48c-.35,1-.78,2-1.1,3l-.21-.06A51.67,51.67,0,0,1,540.16,445.83Z"/><path class="cls-11" d="M93.66,75.22H106V78h-9.1v4.15H105V85H96.87v4.22h9.39V92H93.66Z"/><path class="cls-11" d="M109.52,75.22h3.22v13.9H120V92H109.52Z"/><path class="cls-11" d="M138.45,78.46a5.75,5.75,0,0,0-2.46-.58,5.57,5.57,0,0,0-2.85.75,5.36,5.36,0,0,0-2,2.05,5.87,5.87,0,0,0,0,5.74,5.38,5.38,0,0,0,2,2.06,5.58,5.58,0,0,0,2.85.76,6,6,0,0,0,2.41-.53,6.88,6.88,0,0,0,2.15-1.46l1.9,2.11a10.1,10.1,0,0,1-3.07,2.12,8.7,8.7,0,0,1-3.56.78,8.8,8.8,0,0,1-4.44-1.15A8.4,8.4,0,0,1,128.22,88a8.54,8.54,0,0,1-1.16-4.38,8.4,8.4,0,0,1,1.18-4.37,8.51,8.51,0,0,1,3.2-3.1,9.24,9.24,0,0,1,8-.4,8.59,8.59,0,0,1,2.95,2l-1.87,2.35A6.35,6.35,0,0,0,138.45,78.46Z"/><path class="cls-11" d="M149.12,88.23a4.09,4.09,0,0,0,3,1.13,4,4,0,0,0,3-1.13,4.28,4.28,0,0,0,1.09-3.12V75.22h3.22v9.89a7.82,7.82,0,0,1-.89,3.8A6,6,0,0,1,156,91.4a8.32,8.32,0,0,1-3.88.86,8.49,8.49,0,0,1-3.92-.86,6.09,6.09,0,0,1-2.56-2.49,7.81,7.81,0,0,1-.88-3.8V75.22H148v9.89A4.22,4.22,0,0,0,149.12,88.23Z"/><path class="cls-11" d="M163.23,75.22h3.22v13.9h7.25V92H163.23Z"/><path class="cls-11" d="M174.34,75.22h13.71v2.86h-5.23V92h-3.24V78.08h-5.24Z"/><path class="cls-11" d="M190.33,75.22h3.21V92h-3.21Z"/><path class="cls-11" d="M195.66,75.22h3.45l4.95,13.22,5-13.22h3.31L205.64,92H202.3Z"/><path class="cls-11" d="M226.36,76.13a8.45,8.45,0,0,1,3.23,3.1,8.7,8.7,0,0,1,0,8.75,8.52,8.52,0,0,1-3.23,3.13,9.56,9.56,0,0,1-9.09,0,8.5,8.5,0,0,1-4.41-7.51,8.41,8.41,0,0,1,4.41-7.47,9.71,9.71,0,0,1,9.09,0ZM219,78.64a5.75,5.75,0,0,0-2.08,7.86A5.82,5.82,0,0,0,219,88.59a5.53,5.53,0,0,0,2.84.77,5.42,5.42,0,0,0,2.81-.77,5.56,5.56,0,0,0,2.05-2.09,5.68,5.68,0,0,0,.76-2.9,5.6,5.6,0,0,0-.76-2.89,5.6,5.6,0,0,0-4.86-2.83A5.68,5.68,0,0,0,219,78.64Z"/><path class="cls-11" d="M251,76.29a7.94,7.94,0,0,1,3.12,3,8.4,8.4,0,0,1,1.12,4.34A8.26,8.26,0,0,1,254.08,88a8,8,0,0,1-3.15,3A9.57,9.57,0,0,1,246.34,92h-6.86V75.22h7A9.46,9.46,0,0,1,251,76.29Zm-1.67,12.19a5,5,0,0,0,1.93-2,6.2,6.2,0,0,0,0-5.76,5.12,5.12,0,0,0-2-2,5.68,5.68,0,0,0-2.82-.71H242.7V89.19h3.84A5.52,5.52,0,0,0,249.31,88.48Z"/><path class="cls-11" d="M258,75.22h12.31V78h-9.09v4.15h8.16V85h-8.16v4.22h9.38V92H258Z"/><path class="cls-11" d="M291.57,76.73A5.37,5.37,0,0,1,293.31,81a5.77,5.77,0,0,1-1.74,4.48,7,7,0,0,1-4.91,1.6H283V92h-3.22V75.22h6.89A7.3,7.3,0,0,1,291.57,76.73Zm-2.28,6.72a2.85,2.85,0,0,0,1-2.35,2.75,2.75,0,0,0-1-2.3A4.43,4.43,0,0,0,286.5,78H283v6.22h3.51A4.31,4.31,0,0,0,289.29,83.45Z"/><path class="cls-11" d="M296,75.22h3.22v13.9h7.25V92H296Z"/><path class="cls-11" d="M321.51,92,320,88.47h-8.21L310.33,92H307l7.37-16.8h3.33L325,92ZM313,85.71h5.9l-2.93-7.06Zm3.93-15.53,3,1.22-3.07,2.48-2.42-.24Z"/><path class="cls-11" d="M323.43,75.22h13.7v2.86H331.9V92h-3.24V78.08h-5.23Z"/><path class="cls-11" d="M350.14,92l-1.49-3.55h-8.2L339,92h-3.34L343,75.22h3.34L353.6,92Zm-8.54-6.31h5.9l-2.93-7.06Z"/><path class="cls-11" d="M367.35,75.22h3.12V92h-3.05l-8.64-11.57V92h-3.14V75.22h3.05l8.66,11.59Z"/><path class="cls-11" d="M386.78,76.13a8.52,8.52,0,0,1,3.23,3.1A8.76,8.76,0,0,1,390,88a8.59,8.59,0,0,1-3.23,3.13,9.58,9.58,0,0,1-9.1,0A8.59,8.59,0,0,1,374.45,88a8.51,8.51,0,0,1,3.23-11.85,9.73,9.73,0,0,1,9.1,0Zm-7.36,2.51a5.68,5.68,0,0,0-2.09,2.07,5.83,5.83,0,0,0,0,5.79,5.79,5.79,0,0,0,2.08,2.09,5.57,5.57,0,0,0,2.85.77,5.45,5.45,0,0,0,2.81-.77,5.71,5.71,0,0,0,2.05-2.09,5.78,5.78,0,0,0,.75-2.9,5.67,5.67,0,0,0-2.8-5,5.54,5.54,0,0,0-2.81-.76A5.69,5.69,0,0,0,379.42,78.64Z"/><path class="cls-11" d="M399.89,75.22h12.32V78h-9.1v4.15h8.16V85h-8.16v4.22h9.38V92h-12.6Z"/><path class="cls-11" d="M427.47,75.22h3.12V92h-3L418.9,80.45V92h-3.14V75.22h3l8.67,11.59Z"/><path class="cls-11" d="M210.68,107.26a5.75,5.75,0,0,0-2.46-.58,5.63,5.63,0,0,0-2.86.75,5.43,5.43,0,0,0-2,2,5.94,5.94,0,0,0,0,5.74,5.52,5.52,0,0,0,2,2.06,5.64,5.64,0,0,0,2.86.76,6,6,0,0,0,2.41-.53,6.75,6.75,0,0,0,2.15-1.47l1.9,2.12a10,10,0,0,1-3.08,2.12,8.62,8.62,0,0,1-3.55.78,8.8,8.8,0,0,1-4.44-1.15,8.5,8.5,0,0,1-3.17-3.13,8.63,8.63,0,0,1-1.15-4.38,8.3,8.3,0,0,1,1.18-4.37,8.51,8.51,0,0,1,3.2-3.1,9.3,9.3,0,0,1,8-.41,8.61,8.61,0,0,1,3,2l-1.87,2.35A6.35,6.35,0,0,0,210.68,107.26Z"/><path class="cls-11" d="M229.16,104.93a8.52,8.52,0,0,1,3.23,3.1,8.76,8.76,0,0,1,0,8.75,8.59,8.59,0,0,1-3.23,3.13,9.58,9.58,0,0,1-9.1,0,8.57,8.57,0,0,1-3.22-3.13,8.7,8.7,0,0,1,0-8.75,8.49,8.49,0,0,1,3.22-3.1,9.73,9.73,0,0,1,9.1,0Zm-7.36,2.51a5.75,5.75,0,0,0-2.07,7.86,5.74,5.74,0,0,0,2.09,2.09,5.53,5.53,0,0,0,2.84.77,5.45,5.45,0,0,0,2.81-.77,5.63,5.63,0,0,0,2.05-2.09,5.91,5.91,0,0,0,0-5.8,5.62,5.62,0,0,0-4.86-2.82A5.72,5.72,0,0,0,221.8,107.44Z"/><path class="cls-11" d="M236.4,104h3.21v13.9h7.25v2.9H236.4Z"/><path class="cls-11" d="M261.56,104.93a8.52,8.52,0,0,1,3.23,3.1,8.76,8.76,0,0,1,0,8.75,8.59,8.59,0,0,1-3.23,3.13,9.58,9.58,0,0,1-9.1,0,8.59,8.59,0,0,1-3.23-3.13,8.51,8.51,0,0,1,3.23-11.85,9.73,9.73,0,0,1,9.1,0Zm-7.36,2.51a5.75,5.75,0,0,0-2.07,7.86,5.79,5.79,0,0,0,2.08,2.09,5.57,5.57,0,0,0,2.85.77,5.45,5.45,0,0,0,2.81-.77,5.63,5.63,0,0,0,2.05-2.09,6,6,0,0,0,0-5.8,5.62,5.62,0,0,0-4.86-2.82A5.69,5.69,0,0,0,254.2,107.44Z"/><path class="cls-11" d="M268.79,104h3.68L278,114.84,283.55,104h3.68v16.8h-3v-12L279,119.09H277l-5.26-10.32v12h-2.93Z"/><path class="cls-11" d="M303.05,105.15a3.57,3.57,0,0,1,1.55,3.07,3.67,3.67,0,0,1-2.93,3.72,4.35,4.35,0,0,1,2.63,1.44,4.23,4.23,0,0,1,.95,2.81,4,4,0,0,1-1.67,3.39,7.45,7.45,0,0,1-4.55,1.24h-7.68V104h7.47A7.06,7.06,0,0,1,303.05,105.15Zm-2.44,5.18a1.84,1.84,0,0,0,.7-1.53,1.75,1.75,0,0,0-.7-1.49,3.19,3.19,0,0,0-2-.51h-4.08v4.08h4.08A3.13,3.13,0,0,0,300.61,110.33Zm.44,7.13a1.92,1.92,0,0,0,.86-1.68,1.84,1.84,0,0,0-.86-1.62,4.11,4.11,0,0,0-2.4-.56h-4.08V118h4.08A4.1,4.1,0,0,0,301.05,117.46Z"/><path class="cls-11" d="M308.37,104h3.22v16.8h-3.22Z"/><path class="cls-11" d="M328.15,120.82l-1.49-3.55h-8.21L317,120.82h-3.33L321,104h3.34l7.27,16.8Zm-8.55-6.31h5.91l-2.93-7.06Z"/><path class="cls-10" d="M476.84,408.67a40.51,40.51,0,0,1-40.47-40.47V334.4a2.39,2.39,0,0,1,2.4-2.4h76.15a2.39,2.39,0,0,1,2.4,2.4v33.8A40.52,40.52,0,0,1,476.84,408.67ZM441.17,336.8v31.4a35.68,35.68,0,0,0,71.35,0V336.8Z"/><path class="cls-10" d="M516.78,372.25a11.46,11.46,0,0,1-2.35-.28,2.41,2.41,0,0,1-1.91-2.35V343.14a2.4,2.4,0,0,1,1.91-2.35,11.38,11.38,0,0,1,2.35-.28c7.38,0,13.39,7.12,13.39,15.87S524.16,372.25,516.78,372.25Zm.54-26.91v22.08c4.49-.36,8-5.17,8-11S521.81,345.7,517.32,345.34Z"/><path class="cls-10" d="M436.91,372.25c-7.39,0-13.39-7.12-13.39-15.87s6-15.87,13.39-15.87a11.38,11.38,0,0,1,2.35.28,2.4,2.4,0,0,1,1.91,2.35v26.48a2.42,2.42,0,0,1-1.91,2.35A11.46,11.46,0,0,1,436.91,372.25Zm-.54-26.91c-4.49.36-8.05,5.17-8.05,11s3.56,10.68,8.05,11Z"/><path class="cls-10" d="M535,458a2.41,2.41,0,0,1-2.4-2.4V442.67a17.92,17.92,0,0,0-17.9-17.9H439A17.93,17.93,0,0,0,421,442.67V455.6a2.4,2.4,0,0,1-4.8,0V442.67A22.73,22.73,0,0,1,439,420h75.79a22.73,22.73,0,0,1,22.71,22.7V455.6A2.41,2.41,0,0,1,535,458Z"/><path class="cls-10" d="M448.48,458a2.4,2.4,0,0,1-2.4-2.4V444.76a2.4,2.4,0,0,1,4.8,0V455.6A2.41,2.41,0,0,1,448.48,458Z"/><path class="cls-10" d="M505.21,458a2.4,2.4,0,0,1-2.4-2.4V444.76a2.4,2.4,0,0,1,4.8,0V455.6A2.41,2.41,0,0,1,505.21,458Z"/><path class="cls-10" d="M492.28,424.77H461.4a2.4,2.4,0,0,1-2.4-2.4V403a2.4,2.4,0,0,1,1.09-2,2.42,2.42,0,0,1,2.29-.18,35.64,35.64,0,0,0,28.93,0,2.4,2.4,0,0,1,3.37,2.19v19.39A2.39,2.39,0,0,1,492.28,424.77ZM463.8,420h26.08V406.5a40.31,40.31,0,0,1-26.08,0Z"/><path class="cls-10" d="M535.12,336.8H418.57a7.11,7.11,0,0,1,0-14.22h23.68l3.92-24.08a18.26,18.26,0,0,1,18.09-15.38h2.95a2.4,2.4,0,0,1,2.4,2.4c0,1.94,3,4.1,7.23,4.1s7.24-2.16,7.24-4.1a2.4,2.4,0,0,1,2.4-2.4h2.95a18.25,18.25,0,0,1,18.08,15.38l3.92,24.08h23.69a7.11,7.11,0,0,1,0,14.22Zm-116.55-9.42a2.31,2.31,0,0,0,0,4.62H535.12a2.31,2.31,0,0,0,0-4.62H509.39a2.4,2.4,0,0,1-2.37-2l-4.24-26.1a13.49,13.49,0,0,0-13.35-11.35h-1c-1.38,3.79-6,6.5-11.61,6.5s-10.22-2.71-11.61-6.5h-1a13.48,13.48,0,0,0-13.35,11.35l-4.25,26.1a2.39,2.39,0,0,1-2.36,2Z"/><path class="cls-10" d="M495.42,327.38H444.3a2.4,2.4,0,1,1,0-4.8h51.12a2.4,2.4,0,0,1,0,4.8Z"/><path class="cls-10" d="M508.11,319.48H445.58a2.39,2.39,0,0,1-2.37-2.79l1.2-7.37a2.41,2.41,0,0,1,2.37-2h60.13a2.4,2.4,0,0,1,2.36,2l1.21,7.37a2.42,2.42,0,0,1-.55,1.95A2.4,2.4,0,0,1,508.11,319.48Zm-59.71-4.8h56.88l-.42-2.57h-56Z"/><path class="cls-6" d="M0,381.28S80.13,376,79.56,458H0Z"/><text class="cls-12" transform="translate(22.47 440.96)">1</text></svg>