<svg id="Capa_1" data-name="Capa 1" xmlns="http://www.w3.org/2000/svg" viewBox="0 0 789 186"><defs><style>.cls-1{fill:#80cbc4;}.cls-2{font-size:16px;font-family:OpenSans, Open Sans;}.cls-3{fill:#ffe082;}.cls-4{fill:#8d6e63;}</style></defs><rect class="cls-1" x="56.23" y="0.5" width="732.77" height="185.5"/><text class="cls-2" transform="translate(92.22 41.38)">Es importante tener en cuenta que, para evitar daños en la formación del racimo, hay que <tspan x="0" y="19.2">verificar que la bolsa no quede doblada sobre la bellota o el racimo, para evitar que en su </tspan><tspan x="0" y="38.4">crecimiento rompan la bolsa. Al igual que evitar la formación de pliegues donde se acumule </tspan><tspan x="0" y="57.6">agua y por efecto de los rayos solares pueden generar quemaduras en la piel de la fruta.</tspan><tspan x="0" y="96">Se debe gestionar la correcta disposición final de las bolsas con empresas autorizadas para </tspan><tspan x="0" y="115.2">la recolección de las mismas. </tspan></text><circle class="cls-3" cx="43.76" cy="93" r="43.76" transform="matrix(0.99, -0.16, 0.16, 0.99, -14.57, 8.38)"/><path class="cls-4" d="M45.62,102.12H16.75a2.07,2.07,0,0,1-1-3.89l.12-.06a.42.42,0,0,0,.22-.37V95a.42.42,0,0,0-.12-.3l-1.07-1.06a.83.83,0,0,1-.24-.58V92a.83.83,0,0,1,.24-.58l1.4-1.4a.41.41,0,0,0,.12-.3V87.69a.42.42,0,0,0-.12-.3l-1-1a2.06,2.06,0,0,1-.61-1.46V83.75a2.07,2.07,0,0,1,2.07-2.06h1.11a.82.82,0,0,1,.82.82v.16H21a.47.47,0,0,0,.3-.12l.25-.26a2.06,2.06,0,0,1,1.47-.6h2.78a.78.78,0,0,1,.58.24l.19.18h6.25l.19-.18a.78.78,0,0,1,.58-.24h2.69a.82.82,0,0,1,.58.24l.58.58a17.47,17.47,0,0,1,1.76-.11.83.83,0,0,1,.82-.71h5a.82.82,0,0,1,.82.82v.11a2.07,2.07,0,0,1,1.84,2.06V87a2,2,0,0,1-.6,1.46l-.35.35a.39.39,0,0,0-.13.3v2h.26a.82.82,0,0,1,.82.82v3.91a.87.87,0,0,1-.17.51v1.92a.82.82,0,0,1,.17.5v1.31A2.07,2.07,0,0,1,45.62,102.12ZM16.33,92.74l.82.82A2.06,2.06,0,0,1,17.76,95V97.8a2.08,2.08,0,0,1-1.09,1.82l-.12.06a.43.43,0,0,0,.2.8H45.62a.42.42,0,0,0,.42-.43v-1a.85.85,0,0,1-.17-.51V96a.82.82,0,0,1,.17-.5V92.73h-.25A.83.83,0,0,1,45,91.9V89.09a2.06,2.06,0,0,1,.61-1.47l.35-.34A.42.42,0,0,0,46,87v-2.3a.42.42,0,0,0-.42-.43H45a.83.83,0,0,1-.83-.82v-.1l-3.37,0a.82.82,0,0,1-.82.82.85.85,0,0,1-.45-.13,17,17,0,0,0-2.35.12.83.83,0,0,1-.67-.23l-.62-.62h-2l-.18.19a.86.86,0,0,1-.58.24H26.22a.83.83,0,0,1-.58-.24l-.19-.19H23a.42.42,0,0,0-.3.13l-.26.25a2.06,2.06,0,0,1-1.46.61H17.86a.83.83,0,0,1-.83-.83v-.16h-.28a.42.42,0,0,0-.42.42V84.9a.42.42,0,0,0,.12.3l1,1a2,2,0,0,1,.61,1.46v2.06a2,2,0,0,1-.61,1.47l-1.15,1.15Z"/><path class="cls-4" d="M45.79,92.35H16a.83.83,0,0,1,0-1.65H45.79a.83.83,0,0,1,0,1.65Z"/><path class="cls-4" d="M26.22,102.12a.82.82,0,0,1-.82-.82V82.94a.82.82,0,1,1,1.64,0V101.3A.82.82,0,0,1,26.22,102.12Z"/><path class="cls-4" d="M37.12,102.12a.82.82,0,0,1-.82-.82V83.37a.83.83,0,1,1,1.65,0V101.3A.83.83,0,0,1,37.12,102.12Z"/><path class="cls-4" d="M71,102.12H38.72a.82.82,0,1,1,0-1.64H71a.78.78,0,0,0,.78-.78V98.37a.83.83,0,0,1-.23-.57V94.48a.79.79,0,0,1,.23-.56V90.08h-.57a.83.83,0,0,1-.82-.83V85.64a2.39,2.39,0,0,1,.71-1.71l.45-.45a.79.79,0,0,0,.23-.55V80a.77.77,0,0,0-.78-.77h-.76a.83.83,0,0,1-.83-.83V78H64.63v.27a.83.83,0,0,1-.82.83.86.86,0,0,1-.5-.17,20.41,20.41,0,0,0-3.12.16.8.8,0,0,1-.67-.24L58.66,78H55.9l-.3.3a.83.83,0,0,1-.59.25H50.86a.79.79,0,0,1-.58-.25L50,78H46.74a.8.8,0,0,0-.55.22l-.32.33a2.41,2.41,0,0,1-1.72.71h-4a.83.83,0,0,1-.82-.83V78h-.59a.76.76,0,0,0-.71.47.83.83,0,0,1-1.08.44.82.82,0,0,1-.44-1.08,2.41,2.41,0,0,1,2.23-1.48h1.41a.83.83,0,0,1,.83.82v.44h3.19a.75.75,0,0,0,.55-.23l.33-.32a2.37,2.37,0,0,1,1.71-.71h3.57a.83.83,0,0,1,.58.24l.31.31h3.47l.31-.31a.86.86,0,0,1,.58-.24H59a.87.87,0,0,1,.59.24l.82.82A20.39,20.39,0,0,1,63,77.3v-.1a.83.83,0,0,1,.83-.82h6.43a.82.82,0,0,1,.82.82v.36A2.42,2.42,0,0,1,73.42,80v3a2.43,2.43,0,0,1-.71,1.71l-.45.45a.8.8,0,0,0-.22.55v2.79h.56a.82.82,0,0,1,.82.82v5a.82.82,0,0,1-.22.56v2.64a.82.82,0,0,1,.22.56V99.7A2.42,2.42,0,0,1,71,102.12Z"/><path class="cls-4" d="M71.21,89.59H50.86a.83.83,0,0,1,0-1.65H71.21a.83.83,0,1,1,0,1.65Z"/><path class="cls-4" d="M50.86,102.12a.82.82,0,0,1-.82-.82V77.75a.82.82,0,1,1,1.64,0V101.3A.82.82,0,0,1,50.86,102.12Z"/><path class="cls-4" d="M60.1,102.12a.82.82,0,0,1-.82-.82v-23a.83.83,0,0,1,1.65,0v23A.83.83,0,0,1,60.1,102.12Z"/><path class="cls-4" d="M74.44,102.12H13.67a.82.82,0,1,1,0-1.64H74.44a.82.82,0,0,1,0,1.64Z"/><path class="cls-4" d="M64.13,120a.8.8,0,0,1-.34-.07.82.82,0,0,1-.41-1.09L71.45,101a.83.83,0,0,1,1.09-.41.82.82,0,0,1,.41,1.09L64.88,119.5A.83.83,0,0,1,64.13,120Z"/><path class="cls-4" d="M57,120a.82.82,0,0,1-.75-1.16L64.37,101a.82.82,0,1,1,1.5.68L57.79,119.5A.83.83,0,0,1,57,120Z"/><path class="cls-4" d="M50,120a.8.8,0,0,1-.34-.07.82.82,0,0,1-.41-1.09L57.28,101a.83.83,0,0,1,1.09-.41.82.82,0,0,1,.41,1.09L50.71,119.5A.83.83,0,0,1,50,120Z"/><path class="cls-4" d="M45.63,113.88a.82.82,0,0,1-.75-1.16L50.2,101a.82.82,0,0,1,1.5.68L46.38,113.4A.83.83,0,0,1,45.63,113.88Z"/><path class="cls-4" d="M50,120H13.67a.82.82,0,1,1,0-1.64H50A.82.82,0,1,1,50,120Z"/><path class="cls-4" d="M41.7,113.88h-28a.82.82,0,1,1,0-1.64h28a.82.82,0,1,1,0,1.64Z"/><path class="cls-4" d="M48.29,107.78H13.67a.82.82,0,1,1,0-1.64H48.29a.82.82,0,1,1,0,1.64Z"/><path class="cls-4" d="M45.63,113.88h-32a.82.82,0,1,1,0-1.64h32a.82.82,0,0,1,0,1.64Z"/><path class="cls-4" d="M69.07,77.3a.83.83,0,0,1-.83-.82V76a.91.91,0,0,1-.1-.4v-1.5a.91.91,0,0,1,.1-.4V72.53a.82.82,0,0,1-.62-.8V70.09A1.52,1.52,0,0,1,68.07,69l.2-.21,0-1.17H68a.83.83,0,0,1-.78-.53H65.83a.86.86,0,0,1-1.11.41,11.06,11.06,0,0,0-1.24.08.8.8,0,0,1-.67-.24l-.26-.25h-.88a.82.82,0,0,1-.59.24H57a.82.82,0,0,1-.58-.24H55.17l-.07.11a1.57,1.57,0,0,1-1.1.46H52.17a.83.83,0,0,1-.54-.21v.2l.57.53a1.55,1.55,0,0,1,.46,1.1v1.2a1.59,1.59,0,0,1-.46,1.1l-.53.53.34.34a1.56,1.56,0,0,1,.45,1.1v1.61a1.54,1.54,0,0,1-.81,1.36.86.86,0,0,1-.84.78.83.83,0,0,1-.83-.82,1.55,1.55,0,0,1,.82-1.36s0-1.57,0-1.57l-.6-.55a.86.86,0,0,1-.24-.58v-.61a.83.83,0,0,1,.25-.59l.81-.81,0-1.13-.57-.53a1.53,1.53,0,0,1-.46-1.1V67a1.55,1.55,0,0,1,1.55-1.55h.64A.83.83,0,0,1,53,66h1l.08-.12a1.55,1.55,0,0,1,1.09-.45H56.8a.86.86,0,0,1,.58.24h3.37a.83.83,0,0,1,.58-.24h1.56a.87.87,0,0,1,.59.24l.22.22c.25,0,.47,0,.66,0a.82.82,0,0,1,.72-.42H68a.82.82,0,0,1,.79.6,1.54,1.54,0,0,1,1.1,1.48v1.34a1.56,1.56,0,0,1-.45,1.1l-.21.2,0,.77a.82.82,0,0,1,.64.8V74a.76.76,0,0,1-.1.39v.92a.79.79,0,0,1,.1.4v.76A.82.82,0,0,1,69.07,77.3Z"/><path class="cls-4" d="M68.44,72.33H51.1a.82.82,0,1,1,0-1.64H68.44a.82.82,0,0,1,0,1.64Z"/><path class="cls-4" d="M57,78a.83.83,0,0,1-.82-.83V66.51a.83.83,0,0,1,1.65,0V77.2A.83.83,0,0,1,57,78Z"/><path class="cls-4" d="M63.39,78a.83.83,0,0,1-.82-.83V66.76a.83.83,0,0,1,1.65,0V77.2A.83.83,0,0,1,63.39,78Z"/></svg>