<svg id="Capa_1" data-name="Capa 1" xmlns="http://www.w3.org/2000/svg" viewBox="0 0 88 88"><defs><style>.cls-1{fill:#ffe082;}.cls-2{fill:#8d6e63;}</style></defs><ellipse class="cls-1" cx="44" cy="44" rx="43.76" ry="43.78" transform="translate(-0.05 87.95) rotate(-89.94)"/><path class="cls-2" d="M78.27,66.35v-1.6c-1.37.24-2.9.46-4.57.66-17.05,2-43.64,2-60.69,0-1.62-.2-3.14-.42-4.57-.66l.05,1.66c.35.73,4,1.49,9.78,2.13a259.56,259.56,0,0,0,50.17,0c5.75-.64,9.44-1.4,9.83-2.13Zm0-3.89V60.57c-1.37.24-2.9.46-4.57.66-17.05,2-43.64,2-60.69,0-1.62-.2-3.14-.42-4.57-.66v1.89c1.62.28,3.59.56,5.85.83,16.22,1.94,42,1.94,58.13,0,2.26-.27,4.23-.55,5.85-.83Zm0-4.18V56.4c-1.37.24-2.9.46-4.57.65-17.05,2-43.64,2-60.69,0-1.62-.19-3.14-.41-4.57-.65v1.88c1.62.28,3.59.57,5.85.85,16.22,1.93,42,1.93,58.13,0,2.26-.28,4.23-.57,5.85-.85Zm0-4.18V52.22c-1.37.24-2.9.46-4.57.65-17.05,2-43.64,2-60.69,0-1.62-.19-3.14-.41-4.57-.65V54.1c1.62.28,3.59.57,5.85.85,16.22,1.93,42,1.93,58.13,0,2.26-.28,4.23-.57,5.85-.85Zm0-4.18V48.06c-1.37.22-2.9.44-4.57.64-17.05,2-43.64,2-60.69,0-1.62-.2-3.14-.42-4.57-.64v1.86c1.62.28,3.59.57,5.85.85,16.22,1.93,42,1.93,58.13,0,2.26-.28,4.23-.57,5.85-.85Zm0-4.18V43.88c-1.37.22-2.9.44-4.57.64-17.05,2-43.64,2-60.69,0-1.62-.2-3.14-.42-4.57-.64v1.86c1.62.29,3.59.57,5.85.86,16.22,1.92,42,1.92,58.13,0,2.26-.29,4.23-.57,5.85-.86Zm0-4.18V39.7c-1.37.22-2.9.44-4.57.64C56.65,42.4,30.06,42.4,13,40.34c-1.62-.2-3.14-.42-4.57-.64v1.86c1.62.29,3.59.57,5.85.86,16.22,1.92,42,1.92,58.13,0,2.26-.29,4.23-.57,5.85-.86Zm0-4.17V35.53c-1.37.24-2.9.46-4.57.65-17.05,2-43.64,2-60.69,0-1.62-.19-3.14-.41-4.57-.65v1.86c1.62.28,3.59.59,5.85.85,16.22,1.95,42,1.95,58.13,0,2.26-.26,4.23-.57,5.85-.85Zm0-4.18V31.35c-1.37.24-2.9.46-4.57.65C56.65,34,30.06,34,13,32c-1.62-.19-3.14-.41-4.57-.65v1.86c1.62.3,3.59.59,5.85.85,16.22,1.95,42,1.95,58.13,0,2.26-.26,4.23-.55,5.85-.85Zm0-4.18V27.17c-1.37.24-2.9.46-4.57.66-17.05,2-43.64,2-60.69,0-1.62-.2-3.14-.42-4.57-.66V29c1.62.31,3.59.59,5.85.85,16.22,1.95,42,1.95,58.13,0,2.26-.26,4.23-.54,5.85-.85Zm0-4.18V23c-1.37.24-2.9.46-4.57.66-17.05,2-43.64,2-60.69,0-1.62-.2-3.14-.42-4.57-.66v1.86c1.62.31,3.59.59,5.85.85,16.22,1.95,42,1.95,58.13,0,2.26-.26,4.23-.54,5.85-.85Zm0-4.18v-1.2c-4.13.39-8.35.68-12.53.9-14.25.74-30.52.74-44.77,0-3.78-.2-7.37-.44-11-.77l-1.48-.13v1.2c1.62.31,3.59.59,5.85.86,16.22,1.94,42,1.94,58.13,0,2.26-.27,4.23-.55,5.85-.86Z"/></svg>