<svg id="Capa_1" data-name="Capa 1" xmlns="http://www.w3.org/2000/svg" xmlns:xlink="http://www.w3.org/1999/xlink" viewBox="0 0 732 230"><defs><style>.cls-1{fill:none;}.cls-2{clip-path:url(#clip-path);}.cls-3{fill:#80cbc4;}.cls-4{fill:#ffe082;}.cls-5{fill:#7cb342;}.cls-6{font-size:16px;font-family:OpenSans, Open Sans;}.cls-7{fill:#8d6e63;}</style><clipPath id="clip-path"><rect class="cls-1" width="732" height="230"/></clipPath></defs><g class="cls-2"><rect class="cls-3" x="564.49" y="48.61" width="164" height="177.48"/><circle class="cls-4" cx="646.32" cy="48.15" r="43.76" transform="translate(0.78 105.79) rotate(-9.36)"/><rect class="cls-3" x="378.49" y="48.55" width="164" height="177.48"/><circle class="cls-4" cx="460.32" cy="48.09" r="43.76" transform="translate(-1.69 75.53) rotate(-9.36)"/><polygon class="cls-5" points="570.9 96.63 543.08 80.56 543.06 112.69 570.9 96.63"/><rect class="cls-3" x="190.49" y="48.49" width="164" height="177.48"/><circle class="cls-4" cx="272.32" cy="48.03" r="43.76" transform="translate(-4.19 44.95) rotate(-9.36)"/><polygon class="cls-5" points="382.06 96.01 354.23 79.93 354.22 112.07 382.06 96.01"/><text class="cls-6" transform="matrix(1, 0, 0, 1, 201.63, 124.25)">La cosecha <tspan x="0" y="19.2">inadecuada.</tspan></text><text class="cls-6" transform="matrix(1, 0, 0, 1, 392.63, 117.31)">La manipulaci贸n <tspan x="0" y="19.2">deficiente del </tspan><tspan x="0" y="38.4">producto desde el </tspan><tspan x="0" y="57.6">sitio de producci贸n </tspan><tspan x="0" y="76.8">hasta el </tspan><tspan x="0" y="96">consumidor final. </tspan></text><text class="cls-6" transform="matrix(1, 0, 0, 1, 570.41, 117.37)">La falta de <tspan x="0" y="19.2">adecuaci贸n del </tspan><tspan x="0" y="38.4">producto. (Ministerio </tspan><tspan x="0" y="57.6">de Agricultura y </tspan><tspan x="0" y="76.8">Desarrollo Rural, </tspan><tspan x="0" y="96">2005)</tspan></text><rect class="cls-3" x="5.49" y="48.43" width="164" height="177.48"/><text class="cls-6" transform="matrix(1, 0, 0, 1, 16.63, 117.19)">La falta de <tspan x="0" y="19.2">aplicaci贸n de las </tspan><tspan x="0" y="38.4">labores culturales </tspan><tspan x="0" y="57.6">propias del cultivo.</tspan></text><circle class="cls-4" cx="87.32" cy="47.97" r="43.76" transform="translate(-6.64 14.85) rotate(-9.36)"/><polygon class="cls-5" points="197.34 96.51 169.51 80.44 169.5 112.57 197.34 96.51"/><path class="cls-7" d="M462.29,76.12a96.91,96.91,0,0,1-22.83-2.94,4.18,4.18,0,0,1-3.59,2A4.24,4.24,0,0,1,431.65,71a4.17,4.17,0,0,1,2-3.57C430,55.3,429,41.71,430.65,27a.83.83,0,0,1,.38-.61.85.85,0,0,1,.71-.1c4.48,1.4,15.86,2.34,28.29,2.34s23.28-.87,28-2.23a.86.86,0,0,1,.7.1.88.88,0,0,1,.37.6c1.42,11.53,2.12,27.85-2.54,40.75a4.22,4.22,0,0,1-2.29,7.77,4.24,4.24,0,0,1-3.63-2.1A60.63,60.63,0,0,1,462.29,76.12ZM439,71.35l.21,0c7.22,1.87,25.71,5.65,41.62.3a.85.85,0,0,1,1.07.52,2.52,2.52,0,0,0,4.91-.81,2.51,2.51,0,0,0-1.6-2.35.85.85,0,0,1-.48-1.09c4.69-12.34,4.16-28.21,2.82-39.69-5.28,1.26-15.86,2-27.53,2-12,0-22.64-.84-27.82-2.14-1.54,14.38-.45,27.64,3.25,39.42a.85.85,0,0,1-.5,1,2.53,2.53,0,1,0,3.26,3.26A.85.85,0,0,1,439,71.35Z"/><path class="cls-7" d="M460,30.31a189.43,189.43,0,0,1-21.77-1.11c-8.55-1-9.72-2.28-9.72-3.47s1.18-2.43,9.72-3.47A189.91,189.91,0,0,1,460,21.17a192.17,192.17,0,0,1,21.78,1.1c8.54,1.05,9.72,2.29,9.72,3.48s-1.18,2.43-9.72,3.47A192.54,192.54,0,0,1,460,30.31Zm-29.67-4.58C432.06,27,443,28.62,460,28.62s28-1.64,29.68-2.87c-1.7-1.23-12.64-2.89-29.68-2.89S432.06,24.5,430.36,25.73Z"/><path class="cls-7" d="M439.07,37.93a.85.85,0,0,1-.85-.85V28.45a.84.84,0,1,1,1.68,0v8.63A.85.85,0,0,1,439.07,37.93Z"/><path class="cls-7" d="M439.06,45.88c-1.6,0-2.81-2.07-2.81-4.82s1.21-4.82,2.82-4.82,2.81,2.07,2.81,4.82a.85.85,0,1,1-1.69,0c0-2-.8-3.13-1.12-3.13s-1.13,1.1-1.13,3.13.8,3.13,1.12,3.13a.85.85,0,1,1,0,1.69Z"/><path class="cls-7" d="M457.08,61.35a18.1,18.1,0,0,1-6.19-1.2.83.83,0,0,1-.54-.61A15.19,15.19,0,0,1,453,48.28c3.53-5,10-8.14,19.29-9.31a.85.85,0,0,1,.95.91c0,.58-1.29,14.34-9.4,19.54A12.29,12.29,0,0,1,457.08,61.35Zm-5.15-2.62c4.27,1.44,8,1.19,11-.73,6.19-4,8.06-13.94,8.51-17.21-8.19,1.21-13.92,4-17,8.43A13.85,13.85,0,0,0,451.93,58.73Z"/><path class="cls-7" d="M447.68,63.4a.84.84,0,0,1-.56-1.47L466,45.11a.85.85,0,0,1,1.2.07.84.84,0,0,1-.07,1.19L448.24,63.19A.85.85,0,0,1,447.68,63.4Z"/><path class="cls-7" d="M279.22,40.64A12.32,12.32,0,0,1,272.88,39a.86.86,0,0,1-.41-.67c-.32-4.84,2.64-9.91,7.57-12.93S290.82,22,295,24.52a.86.86,0,0,1,.41.67c.33,4.83-2.64,9.91-7.56,12.92A16.64,16.64,0,0,1,279.22,40.64Zm-5.08-2.89c3.6,1.93,8.58,1.52,12.81-1.07s6.86-6.85,6.78-10.93c-3.6-1.93-8.58-1.52-12.81,1.07S274.06,33.67,274.14,37.75Z"/><path class="cls-7" d="M267.37,40.63a16.69,16.69,0,0,1-8.62-2.52c-4.92-3-7.88-8.1-7.55-12.94a.87.87,0,0,1,.41-.67c4.16-2.48,10-2.14,14.95.88s7.89,8.1,7.55,12.93a.85.85,0,0,1-.4.67A12.32,12.32,0,0,1,267.37,40.63Zm-14.5-14.9c-.09,4.09,2.53,8.34,6.77,10.94s9.21,3,12.81,1.08c.08-4.08-2.53-8.33-6.77-10.93S256.47,23.81,252.87,25.73Z"/><path class="cls-7" d="M279.22,55.3a12.27,12.27,0,0,1-6.34-1.66.84.84,0,0,1-.41-.67c-.33-4.83,2.64-9.91,7.56-12.92s10.79-3.36,15-.87a.84.84,0,0,1,.41.67c.33,4.83-2.64,9.91-7.56,12.93A16.66,16.66,0,0,1,279.22,55.3Zm-5.08-2.89c3.6,1.93,8.57,1.52,12.81-1.07s6.86-6.85,6.78-10.93c-3.61-1.93-8.58-1.52-12.82,1.07S274.06,48.33,274.14,52.41Z"/><path class="cls-7" d="M267.36,55.29a16.66,16.66,0,0,1-8.61-2.52c-4.92-3-7.89-8.1-7.55-12.94a.84.84,0,0,1,.41-.66c4.16-2.49,10-2.15,14.95.87s7.88,8.1,7.55,12.93a.84.84,0,0,1-.41.67A12.27,12.27,0,0,1,267.36,55.29Zm-14.5-14.9c-.08,4.09,2.54,8.34,6.77,10.94s9.21,3,12.81,1.08c.09-4.08-2.53-8.33-6.77-10.93S256.47,38.47,252.86,40.39Z"/><path class="cls-7" d="M279.21,70a12.32,12.32,0,0,1-6.34-1.66.83.83,0,0,1-.4-.67c-.33-4.83,2.64-9.91,7.56-12.93s10.79-3.35,15-.86a.86.86,0,0,1,.41.67c.33,4.83-2.64,9.91-7.56,12.93A16.69,16.69,0,0,1,279.21,70Zm-5.08-2.89C277.73,69,282.71,68.59,287,66s6.85-6.85,6.77-10.93c-3.6-1.93-8.58-1.52-12.81,1.07S274.05,63,274.13,67.07Z"/><path class="cls-7" d="M267.36,70a16.69,16.69,0,0,1-8.62-2.52c-4.92-3-7.88-8.1-7.55-12.94a.84.84,0,0,1,.41-.66c4.16-2.49,10-2.15,15,.87s7.89,8.1,7.55,12.93a.83.83,0,0,1-.4.67A12.32,12.32,0,0,1,267.36,70Zm-14.5-14.9c-.08,4.09,2.53,8.34,6.77,10.94s9.21,3,12.81,1.08c.08-4.08-2.53-8.33-6.77-10.93S256.46,53.13,252.86,55.05Z"/><path class="cls-7" d="M273.28,78.59a.84.84,0,0,1-.84-.84V26.93a.85.85,0,0,1,.85-.84.84.84,0,0,1,.84.84V77.75A.84.84,0,0,1,273.28,78.59Z"/><path class="cls-7" d="M279,22.54a.84.84,0,0,1-.85-.84V16.92a.85.85,0,0,1,1.69,0V21.7A.84.84,0,0,1,279,22.54Z"/><path class="cls-7" d="M287,21.18a.85.85,0,0,1-.84-.84V18.16a.85.85,0,0,1,1.69,0v2.18A.85.85,0,0,1,287,21.18Z"/><path class="cls-7" d="M267.61,22.54a.85.85,0,0,1-.84-.84V16.92a.85.85,0,1,1,1.69,0V21.7A.85.85,0,0,1,267.61,22.54Z"/><path class="cls-7" d="M259.61,21.17a.85.85,0,0,1-.85-.84V18.16a.85.85,0,1,1,1.69,0v2.17A.85.85,0,0,1,259.61,21.17Z"/><path class="cls-7" d="M273.3,23.23a.84.84,0,0,1-.84-.85v-3.6a.84.84,0,0,1,1.68,0v3.6A.84.84,0,0,1,273.3,23.23Z"/><path class="cls-7" d="M283.92,78.6H262.64a.85.85,0,0,1,0-1.69h21.28a.83.83,0,0,1,.84.84A.84.84,0,0,1,283.92,78.6Z"/><path class="cls-7" d="M82.25,59.86l-.16,0a.83.83,0,0,1-.66-1A24,24,0,0,1,86,49.08a.84.84,0,1,1,1.32,1.05,22.35,22.35,0,0,0-4.19,9A.85.85,0,0,1,82.25,59.86Z"/><path class="cls-7" d="M83.47,55.68a.84.84,0,0,1-.83-.69C82,51.17,77,49.88,76.93,49.86a.84.84,0,1,1,.41-1.63,11.45,11.45,0,0,1,5.54,3.39,47.14,47.14,0,0,0-2.4-16.33A.85.85,0,0,1,81,34.22a.83.83,0,0,1,1.06.53A46.07,46.07,0,0,1,84.3,55a.83.83,0,0,1-.83.71Z"/><path class="cls-7" d="M72.32,51.26a8.72,8.72,0,0,1-4.42-1.21c-3-1.8-6.12-6.16-5.93-9.79a.87.87,0,0,1,.41-.68c3.1-1.88,8.41-1.22,11.43.58A9.4,9.4,0,0,1,78.13,49a.84.84,0,0,1-.41.67A10.42,10.42,0,0,1,72.32,51.26ZM63.66,40.81c.13,2.82,2.7,6.36,5.11,7.79a7.63,7.63,0,0,0,7.68-.15,7.62,7.62,0,0,0-3.51-6.84C70.54,40.17,66.21,39.59,63.66,40.81Z"/><path class="cls-7" d="M92.69,51.86a14.72,14.72,0,0,1-6.47-1.57.83.83,0,0,1-.46-.64c-.75-5.19,1-9.93,4.82-12.67,3.94-2.87,11.19-4.46,15.69-2.25a.85.85,0,0,1,.46.64c.72,5-3,11.37-7,14.24A11.91,11.91,0,0,1,92.69,51.86ZM87.37,49c4,1.82,8.26,1.56,11.41-.73,3.35-2.44,6.67-7.93,6.33-12.18-3.93-1.62-10.18-.15-13.54,2.28C88.43,40.63,86.88,44.58,87.37,49Z"/><path class="cls-7" d="M81.28,35.87a9.25,9.25,0,0,1-6.15-3.75c-2.6-3.51-3.2-8.83-1.79-15.81a.85.85,0,0,1,1.08-.64,14,14,0,0,1,7.71,6.7c1.78,3.59,1.76,7.94,0,12.94A.84.84,0,0,1,81.28,35.87ZM74.8,17.64c-1.06,6-.5,10.53,1.69,13.47a7.8,7.8,0,0,0,4.24,2.94c1.41-4.25,1.38-7.93-.11-10.93A12.19,12.19,0,0,0,74.8,17.64Z"/><path class="cls-7" d="M82.6,40.14a.69.69,0,0,1-.28,0A.84.84,0,0,1,81.81,39a21.89,21.89,0,0,1,9.58-11,.86.86,0,0,1,1.15.35.84.84,0,0,1-.35,1.14,20.47,20.47,0,0,0-8.79,10A.85.85,0,0,1,82.6,40.14Z"/><path class="cls-7" d="M98.62,66.56h-33a.86.86,0,0,1-.75-.46.87.87,0,0,1,.07-.88c2.89-4,9.64-6.57,17.19-6.57s14.3,2.59,17.18,6.58a.85.85,0,0,1,.07.88A.84.84,0,0,1,98.62,66.56Zm-31.11-1.7H96.73c-3-2.76-8.61-4.54-14.61-4.54S70.54,62.1,67.51,64.86Z"/><path class="cls-7" d="M106,66.56H62.8a.85.85,0,0,1,0-1.69H106a.85.85,0,0,1,0,1.69Z"/><path class="cls-7" d="M100.66,66.56a.84.84,0,0,1-.84-.84V60.65a.84.84,0,0,1,1.68,0v5.07A.84.84,0,0,1,100.66,66.56Z"/><path class="cls-7" d="M100.66,61.5a.78.78,0,0,1-.37-.09,4.72,4.72,0,0,1,0-8.48.89.89,0,0,1,.75,0,4.71,4.71,0,0,1,0,8.48A.78.78,0,0,1,100.66,61.5Zm0-6.84a3,3,0,0,0,0,5,3,3,0,0,0,0-5Z"/><path class="cls-7" d="M70,79.41a.86.86,0,0,1-.84-.9c.52-8.19-4.88-12-5.11-12.1A.85.85,0,0,1,65,65c.26.18,6.44,4.42,5.85,13.62A.84.84,0,0,1,70,79.41Z"/><path class="cls-7" d="M76.59,79.41a.85.85,0,0,1-.84-.9,13.76,13.76,0,0,0-5.11-12.1.84.84,0,1,1,.94-1.4c.26.17,6.44,4.42,5.85,13.61A.84.84,0,0,1,76.59,79.41Z"/><path class="cls-7" d="M83.14,79.41a.86.86,0,0,1-.85-.9c.53-8.19-4.88-11.94-5.11-12.1A.85.85,0,0,1,77,65.24.84.84,0,0,1,78.12,65c.27.17,6.45,4.42,5.86,13.61A.84.84,0,0,1,83.14,79.41Z"/><path class="cls-7" d="M106,79.42H89.68a.83.83,0,0,1-.61-.26.87.87,0,0,1-.23-.63c.52-8.2-4.88-12-5.11-12.11a.84.84,0,0,1-.23-1.17A.85.85,0,0,1,84.67,65a15.12,15.12,0,0,1,5.89,12.72H106a.85.85,0,0,1,0,1.69Z"/><path class="cls-7" d="M106,70.86H87.88a.85.85,0,1,1,0-1.69H106a.84.84,0,0,1,0,1.68Z"/><path class="cls-7" d="M106,75.12H89.42a.85.85,0,1,1,0-1.69H106a.85.85,0,0,1,0,1.69Z"/><path class="cls-7" d="M633.76,53.41H618.39a.85.85,0,0,1-.85-.85v-18a.84.84,0,0,1,.84-.84h15.38a.85.85,0,0,1,.84.85v18A.85.85,0,0,1,633.76,53.41Zm-14.53-1.69h13.69V35.45H619.24Z"/><path class="cls-7" d="M634.2,57.09H617.94a1.56,1.56,0,0,1-1.56-1.56V53.28a1.56,1.56,0,0,1,1.56-1.56h16.27a1.57,1.57,0,0,1,1.56,1.57v2.24A1.56,1.56,0,0,1,634.2,57.09ZM618.07,55.4h16v-2h-16Z"/><path class="cls-7" d="M633.89,35.45H618.27a1.88,1.88,0,0,1-1.88-1.88V32a1.89,1.89,0,0,1,1.6-1.87l7.63-5a.85.85,0,0,1,.92,0l7.63,5a1.88,1.88,0,0,1,1.6,1.86v1.53A1.88,1.88,0,0,1,633.89,35.45Zm-7.81-8.51-7.35,4.76a.83.83,0,0,1-.46.14.19.19,0,0,0-.19.2v1.52a.2.2,0,0,0,.2.2h15.62a.2.2,0,0,0,.2-.2V32a.19.19,0,0,0-.2-.19.86.86,0,0,1-.46-.14Z"/><path class="cls-7" d="M622,47a.85.85,0,0,1-.84-.85V34.6a.85.85,0,0,1,.85-.84.84.84,0,0,1,.84.84V46.1A.85.85,0,0,1,622,47Z"/><path class="cls-7" d="M630.14,47a.85.85,0,0,1-.85-.84V34.6a.85.85,0,0,1,1.69,0V46.11A.85.85,0,0,1,630.14,47Z"/><path class="cls-7" d="M626.07,50.12a.85.85,0,0,1-.84-.84V34.6a.84.84,0,1,1,1.68,0V49.28A.85.85,0,0,1,626.07,50.12Z"/><path class="cls-7" d="M654.08,53.42H638.7a.84.84,0,0,1-.84-.84v-18a.85.85,0,0,1,.85-.85h15.37a.85.85,0,0,1,.85.84v18A.85.85,0,0,1,654.08,53.42Zm-14.53-1.69h13.68V35.46H639.55Z"/><path class="cls-7" d="M654.52,57.1H638.26a1.56,1.56,0,0,1-1.56-1.56V53.29a1.56,1.56,0,0,1,1.56-1.56h16.26a1.56,1.56,0,0,1,1.56,1.56v2.24A1.56,1.56,0,0,1,654.52,57.1Zm-16.14-1.7h16v-2h-16Z"/><path class="cls-7" d="M654.2,35.46H638.59a1.89,1.89,0,0,1-1.89-1.88V32a1.89,1.89,0,0,1,1.89-1.88h15.62a1.89,1.89,0,0,1,1.88,1.89v1.52A1.89,1.89,0,0,1,654.2,35.46Zm-15.61-3.61a.2.2,0,0,0-.2.19v1.53a.2.2,0,0,0,.2.19H654.2a.2.2,0,0,0,.2-.2V32.05a.2.2,0,0,0-.2-.2Z"/><path class="cls-7" d="M654.2,31.85H638.59a.84.84,0,0,1-.46-1.55l7.81-5.07a.85.85,0,0,1,.92,0l7.8,5.07a.84.84,0,0,1-.46,1.55Zm-12.76-1.69h9.91l-5-3.22Z"/><path class="cls-7" d="M642.33,47a.83.83,0,0,1-.84-.84V34.61a.85.85,0,1,1,1.69,0v11.5A.83.83,0,0,1,642.33,47Z"/><path class="cls-7" d="M650.45,47a.85.85,0,0,1-.84-.85V34.61a.85.85,0,0,1,1.69,0v11.5A.85.85,0,0,1,650.45,47Z"/><path class="cls-7" d="M646.39,50.13a.84.84,0,0,1-.84-.85V34.61a.85.85,0,0,1,1.69,0V49.29A.84.84,0,0,1,646.39,50.13Z"/><path class="cls-7" d="M674.84,57.1H658.57A1.56,1.56,0,0,1,657,55.53V53.29a1.58,1.58,0,0,1,1.16-1.51V34.61a.85.85,0,0,1,.84-.84H674.4a.84.84,0,0,1,.84.85V51.79a1.57,1.57,0,0,1,1.16,1.51v2.24A1.56,1.56,0,0,1,674.84,57.1ZM658.7,55.41h16v-2h-.32a.84.84,0,0,1-.84-.84V35.46H659.87V52.58a.85.85,0,0,1-.84.84h-.32Z"/><path class="cls-7" d="M674.52,35.46H658.9A1.89,1.89,0,0,1,657,33.57V32.05a1.88,1.88,0,0,1,1.88-1.88h15.62a1.89,1.89,0,0,1,1.89,1.89v1.52A1.89,1.89,0,0,1,674.52,35.46ZM658.9,31.85a.19.19,0,0,0-.19.2v1.52a.19.19,0,0,0,.19.2h15.62a.19.19,0,0,0,.2-.19V32.06a.2.2,0,0,0-.2-.2Z"/><path class="cls-7" d="M674.52,31.86H658.9a.85.85,0,0,1-.81-.6.86.86,0,0,1,.35-.95l7.81-5.06a.81.81,0,0,1,.92,0L675,30.31a.84.84,0,0,1,.35.94A.86.86,0,0,1,674.52,31.86Zm-12.77-1.69h9.92l-5-3.22Z"/><path class="cls-7" d="M662.65,47a.85.85,0,0,1-.85-.84V34.61a.84.84,0,0,1,1.68,0V46.12A.85.85,0,0,1,662.65,47Z"/><path class="cls-7" d="M670.77,47a.84.84,0,0,1-.85-.84V34.62a.85.85,0,1,1,1.69,0v11.5A.84.84,0,0,1,670.77,47Z"/><path class="cls-7" d="M666.71,50.14a.85.85,0,0,1-.85-.85V34.62a.85.85,0,1,1,1.69,0V49.29A.85.85,0,0,1,666.71,50.14Z"/><path class="cls-7" d="M677.41,57.1l-62,0a.84.84,0,0,1,0-1.68h62a.86.86,0,0,1,.85.85A.84.84,0,0,1,677.41,57.1Z"/><path class="cls-7" d="M633.75,74.2H615.36a.85.85,0,1,1,0-1.69H632.6a24.57,24.57,0,0,0-15.78-15.45.84.84,0,0,1-.61-1,.86.86,0,0,1,1-.61,25.9,25.9,0,0,1,17.32,17.71.85.85,0,0,1-.14.74A.84.84,0,0,1,633.75,74.2Z"/><path class="cls-7" d="M641.53,74.21a.84.84,0,0,1-.81-.62A24.55,24.55,0,0,0,624.6,57.06a.85.85,0,0,1,.42-1.64,25.9,25.9,0,0,1,17.32,17.71.84.84,0,0,1-.58,1A.62.62,0,0,1,641.53,74.21Z"/><path class="cls-7" d="M649.31,74.21a.85.85,0,0,1-.81-.61,24.54,24.54,0,0,0-16.12-16.54.84.84,0,0,1,.42-1.63,25.88,25.88,0,0,1,17.33,17.7.86.86,0,0,1-.58,1.05A1,1,0,0,1,649.31,74.21Z"/><path class="cls-7" d="M657.1,74.21a.83.83,0,0,1-.81-.61,24.61,24.61,0,0,0-16.12-16.54.84.84,0,1,1,.42-1.63,25.87,25.87,0,0,1,17.32,17.7.85.85,0,0,1-.58,1.05Z"/><path class="cls-7" d="M664.88,74.21a.84.84,0,0,1-.81-.61A24.55,24.55,0,0,0,648,57.07a.85.85,0,1,1,.42-1.64,25.9,25.9,0,0,1,17.32,17.71.84.84,0,0,1-.58,1A.85.85,0,0,1,664.88,74.21Z"/><path class="cls-7" d="M677.41,60.42H655.2a.85.85,0,1,1,0-1.69h22.21a.85.85,0,1,1,0,1.69Z"/><path class="cls-7" d="M677.41,63.87H659.26a.85.85,0,0,1,0-1.69h18.15a.85.85,0,1,1,0,1.69Z"/><path class="cls-7" d="M677.41,67.32H662a.85.85,0,0,1,0-1.69h15.46a.85.85,0,1,1,0,1.69Z"/><path class="cls-7" d="M677.41,70.77H663.82a.85.85,0,0,1,0-1.69h13.58a.85.85,0,0,1,0,1.69Z"/><path class="cls-7" d="M632.08,70.75H615.36a.85.85,0,1,1,0-1.69h16.72a.85.85,0,0,1,.84.85A.84.84,0,0,1,632.08,70.75Z"/><path class="cls-7" d="M630.38,67.3h-15a.85.85,0,0,1,0-1.69h15a.85.85,0,0,1,0,1.69Z"/><path class="cls-7" d="M627.43,63.85H615.36a.85.85,0,0,1,0-1.69h12.07a.85.85,0,0,1,0,1.69Z"/><path class="cls-7" d="M623.82,60.4h-8.46a.85.85,0,0,1,0-1.69h8.46a.85.85,0,0,1,0,1.69Z"/><path class="cls-7" d="M677.41,74.22H665.1a.85.85,0,0,1,0-1.69h12.31a.84.84,0,0,1,.84.84A.85.85,0,0,1,677.41,74.22Z"/><path class="cls-7" d="M670.77,53.42H659a.85.85,0,1,1,0-1.69h11.75a.84.84,0,1,1,0,1.68Z"/><path class="cls-7" d="M627.44,31.84h-9.17a.85.85,0,0,1,0-1.69h9.17a.84.84,0,1,1,0,1.68Z"/></g></svg>