<svg id="Capa_1" data-name="Capa 1" xmlns="http://www.w3.org/2000/svg" viewBox="0 0 88 88"><defs><style>.cls-1{fill:#ffe082;}.cls-2{fill:#8d6e63;}</style></defs><ellipse class="cls-1" cx="44" cy="44" rx="43.76" ry="43.78" transform="translate(-0.05 87.95) rotate(-89.94)"/><path class="cls-2" d="M38.39,62.58A133.31,133.31,0,0,1,13.66,61.2a1.06,1.06,0,0,1-.9-1.14,1.08,1.08,0,0,1,1.06-1c.41,0,39.85.32,47.94-31.9a1.08,1.08,0,0,1,.53-.68,1,1,0,0,1,.86-.06l4.34,1.63a1,1,0,0,1,.61.59c.22.53,5.29,13.09-2.17,23C61,58.21,51.72,61.87,38.39,62.58ZM24.26,60.19c20.2,1.49,33.93-1.86,40-9.86s2.85-18.24,2.07-20.44L63.5,28.84C57.32,51,36.93,58,24.26,60.19Z"/><path class="cls-2" d="M25.93,62.42H25.7a1.07,1.07,0,0,1-.1-2.13h.08c1.45-.08,27-1.72,35-20.06A1,1,0,0,1,62,39.7a1.07,1.07,0,0,1,.53,1.41C54.15,60.38,28.82,62.27,25.93,62.42Z"/><path class="cls-2" d="M68.19,24.11a1,1,0,0,1-.39-.05l-4.86-1.63a1.08,1.08,0,0,1-.67-1.35,1,1,0,0,1,1.33-.68L68.46,22a1.08,1.08,0,0,1,.67,1.35A1,1,0,0,1,68.19,24.11Z"/></svg>