<svg id="Capa_1" data-name="Capa 1" xmlns="http://www.w3.org/2000/svg" viewBox="0 0 536 150"><defs><style>.cls-1{fill:#80cbc4;}.cls-2{font-size:16px;font-family:OpenSans-Bold, Open Sans;font-weight:700;}.cls-3{font-family:OpenSans, Open Sans;font-weight:400;}.cls-4{fill:#ffe082;}.cls-5{fill:#8d6e63;}</style></defs><rect class="cls-1" x="47.5" y="0.5" width="489" height="149"/><text class="cls-2" transform="translate(113.5 53.66)">Con cuerda: <tspan class="cls-3" x="98.74" y="0">consiste en realizar el amarre de la </tspan><tspan class="cls-3"><tspan x="0" y="19.2">planta con nylon, piola de yute, fibra plástica, </tspan><tspan x="0" y="38.4">aunque se recomienda el uso de fibras o piolas </tspan><tspan x="0" y="57.6">biodegradables.</tspan></tspan></text><circle class="cls-4" cx="43.76" cy="78.5" r="43.76" transform="translate(-12.21 8.18) rotate(-9.38)"/><path class="cls-5" d="M39.76,51.38A21.61,21.61,0,0,1,45,52c1.7.46,2.75,1.24,2.75,2.23S46.67,56,45,56.42a20.6,20.6,0,0,1-5.21.59,20.77,20.77,0,0,1-5.23-.59c-1.69-.46-2.74-1.23-2.74-2.23s1.05-1.77,2.74-2.23a21.79,21.79,0,0,1,5.23-.58Zm15,45.25A18.83,18.83,0,0,1,59.2,98.4c1.4.87,2.2,1.88,2.2,3,0,2-2.6,3.7-6.76,4.82a60.48,60.48,0,0,1-14.88,1.66,60.45,60.45,0,0,1-14.89-1.66c-4.17-1.12-6.74-2.81-6.74-4.82,0-1.16.77-2.17,2.17-3a18.75,18.75,0,0,1,4.46-1.77,3,3,0,0,1-1.66-2.39,2.34,2.34,0,0,1,.66-1.6l.17-.17a2.45,2.45,0,0,1-.83-1.75,2.34,2.34,0,0,1,.66-1.6l.17-.16a2.48,2.48,0,0,1-.83-1.75,2.4,2.4,0,0,1,.66-1.61l.17-.16a2.47,2.47,0,0,1-.83-1.75,2.36,2.36,0,0,1,.66-1.6l.17-.17a2.44,2.44,0,0,1-.83-1.73,2.39,2.39,0,0,1,.66-1.62l.17-.17a2.44,2.44,0,0,1-.83-1.73,2.39,2.39,0,0,1,.66-1.62l.17-.16a2.44,2.44,0,0,1-.83-1.73,2.37,2.37,0,0,1,.66-1.62l.17-.17A2.26,2.26,0,0,1,23.76,68l.17-.17a2.26,2.26,0,0,1-.17-3.35l.17-.16a2.44,2.44,0,0,1-.83-1.73A2.37,2.37,0,0,1,23.76,61l.17-.17a2.41,2.41,0,0,1-.83-1.73,2.38,2.38,0,0,1,.07-.59A13.29,13.29,0,0,1,20,57a3.5,3.5,0,0,1-1.82-2.8c0-2,2.57-3.7,6.74-4.82a60,60,0,0,1,14.89-1.66,60,60,0,0,1,14.88,1.66c4.16,1.12,6.76,2.82,6.76,4.82A3.54,3.54,0,0,1,59.55,57a13.12,13.12,0,0,1-3.22,1.51,2,2,0,0,1,.09.59,2.38,2.38,0,0,1-.84,1.73l.16.17a2.35,2.35,0,0,1,.68,1.62,2.42,2.42,0,0,1-.84,1.73l.16.16a2.23,2.23,0,0,1-.16,3.35l.16.17a2.23,2.23,0,0,1-.16,3.35l.16.17a2.35,2.35,0,0,1,.68,1.62,2.42,2.42,0,0,1-.84,1.73l.16.16a2.37,2.37,0,0,1,.68,1.62,2.42,2.42,0,0,1-.84,1.73l.16.17a2.37,2.37,0,0,1,.68,1.62,2.42,2.42,0,0,1-.84,1.73l.16.17a2.34,2.34,0,0,1,.68,1.6,2.44,2.44,0,0,1-.84,1.75l.16.16a2.38,2.38,0,0,1,.68,1.61A2.46,2.46,0,0,1,55.58,89l.16.16a2.43,2.43,0,0,1,.67,1.51c3.27-.09,5.28,2.45,7.42,5.16,3.22,4,6.77,8.54,16.25,2.17a.91.91,0,0,1,1.27.26.92.92,0,0,1-.25,1.27c-10.88,7.31-15,2.12-18.71-2.58-2-2.5-3.85-4.86-6.72-4.35l.07.08a2.32,2.32,0,0,1,.68,1.6,3,3,0,0,1-1.67,2.39Zm3.5,3.35a14.67,14.67,0,0,0-3.57-1.45v.39a2.45,2.45,0,0,1,0,.38c-.28,1.38-2.16,2.51-5,3.24a45.55,45.55,0,0,1-19.72,0c-2.87-.73-4.75-1.86-5-3.24,0-.07,0-.31,0-.38v-.39A15.19,15.19,0,0,0,21.26,100c-.83.5-1.29,1-1.29,1.46,0,1.07,2,2.15,5.37,3a58.17,58.17,0,0,0,14.42,1.6,57.88,57.88,0,0,0,14.4-1.6c3.33-.89,5.39-2,5.39-3,0-.46-.47-1-1.3-1.46ZM31.57,58.39a73.45,73.45,0,0,0,16.37,0,41.16,41.16,0,0,0,4.25-.68c.46-.09.92-.2,1.34-.3h0c.37-.1.74-.19,1.09-.3a.1.1,0,0,0,.07,0,12.64,12.64,0,0,0,3.79-1.62c.67-.44,1-.88,1-1.27,0-1.07-2.06-2.15-5.39-3a57.88,57.88,0,0,0-14.4-1.6,58.17,58.17,0,0,0-14.42,1.6c-3.33.89-5.37,2-5.37,3,0,.39.35.83,1,1.27a13.56,13.56,0,0,0,3.79,1.62.15.15,0,0,0,.08,0,41.73,41.73,0,0,0,6.72,1.29ZM52.83,98.92V97.57a14.31,14.31,0,0,1-1.71.56,51,51,0,0,1-22.74,0c-.6-.17-1.18-.35-1.71-.56l0,1.4c.13.61,1.51,1.25,3.66,1.79a43.82,43.82,0,0,0,18.8,0c2.16-.54,3.54-1.18,3.68-1.79Zm0-3.28V94.06a16.45,16.45,0,0,1-1.71.55,51,51,0,0,1-22.74,0c-.6-.17-1.18-.35-1.71-.55v1.58a19,19,0,0,0,2.19.7,48.82,48.82,0,0,0,21.78,0,18.43,18.43,0,0,0,2.19-.7Zm0-3.52V90.54a14.36,14.36,0,0,1-1.71.55,51,51,0,0,1-22.74,0c-.6-.16-1.18-.35-1.71-.55v1.58q.91.36,2.19.72a49.41,49.41,0,0,0,21.78,0,22.57,22.57,0,0,0,2.19-.72Zm0-3.51V87a14.36,14.36,0,0,1-1.71.55,50.75,50.75,0,0,1-22.74,0c-.6-.16-1.18-.35-1.71-.55v1.59c.61.24,1.34.47,2.19.71a49.41,49.41,0,0,0,21.78,0,22.79,22.79,0,0,0,2.19-.71Zm0-3.52V83.52q-.77.28-1.71.54a50.47,50.47,0,0,1-22.74,0c-.6-.17-1.18-.35-1.71-.54v1.57q.91.36,2.19.72a49.41,49.41,0,0,0,21.78,0,22.57,22.57,0,0,0,2.19-.72Zm0-3.52V80c-.51.18-1.08.37-1.71.53a50.47,50.47,0,0,1-22.74,0c-.6-.16-1.18-.35-1.71-.53v1.56q.91.36,2.19.72a49.41,49.41,0,0,0,21.78,0,22.57,22.57,0,0,0,2.19-.72Zm0-3.51V76.49c-.51.18-1.08.37-1.71.53a50.47,50.47,0,0,1-22.74,0c-.6-.16-1.18-.35-1.71-.53v1.57c.61.23,1.34.47,2.19.71a49.41,49.41,0,0,0,21.78,0c.85-.24,1.59-.48,2.19-.71Zm0-3.52V73a14.31,14.31,0,0,1-1.71.56,51,51,0,0,1-22.74,0c-.6-.17-1.18-.35-1.71-.56v1.57a18.77,18.77,0,0,0,2.19.72,48.82,48.82,0,0,0,21.78,0,18.16,18.16,0,0,0,2.19-.72Zm0-3.52V69.46a16.45,16.45,0,0,1-1.71.55,51,51,0,0,1-22.74,0c-.6-.17-1.18-.35-1.71-.55V71a15.63,15.63,0,0,0,2.19.72,48.82,48.82,0,0,0,21.78,0A15.2,15.2,0,0,0,52.83,71Zm0-3.52V65.94a14.36,14.36,0,0,1-1.71.55,51,51,0,0,1-22.74,0c-.6-.16-1.18-.35-1.71-.55V67.5a15.63,15.63,0,0,0,2.19.72,48.82,48.82,0,0,0,21.78,0,15.2,15.2,0,0,0,2.19-.72Zm0-3.51V62.42a14.31,14.31,0,0,1-1.71.56,51,51,0,0,1-22.74,0c-.6-.17-1.18-.35-1.71-.56V64a17.06,17.06,0,0,0,2.19.72,49.12,49.12,0,0,0,21.78,0A16.55,16.55,0,0,0,52.83,64Zm0-3.52v-1c-1.54.33-3.13.57-4.69.75a74.64,74.64,0,0,1-16.77,0c-1.42-.16-2.77-.37-4.15-.64l-.55-.11v1a15.63,15.63,0,0,0,2.19.72,48.82,48.82,0,0,0,21.78,0,15.2,15.2,0,0,0,2.19-.72Zm-8.34-6.72a18.65,18.65,0,0,0-4.73-.53,18.76,18.76,0,0,0-4.75.53,5.85,5.85,0,0,0-1.38.44,5.8,5.8,0,0,0,1.38.46,19.29,19.29,0,0,0,4.75.52,19.17,19.17,0,0,0,4.73-.52,5.8,5.8,0,0,0,1.38-.46,5.85,5.85,0,0,0-1.38-.44Z"/></svg>