<svg id="Capa_1" data-name="Capa 1" xmlns="http://www.w3.org/2000/svg" viewBox="0 0 88 88"><defs><style>.cls-1{fill:#ffe082;}.cls-2{fill:#8d6e63;}</style></defs><ellipse class="cls-1" cx="44" cy="44" rx="43.76" ry="43.78" transform="translate(-0.05 87.95) rotate(-89.94)"/><path class="cls-2" d="M32.52,77.89A94,94,0,0,0,44.91,47.43a1.68,1.68,0,0,1,3.29.7c-4.7,22.36-16.14,36.38-16.62,37a1.68,1.68,0,0,1-2.14.39h0a1.68,1.68,0,0,1-.72-2"/><path class="cls-2" d="M43.8,48.54A18.38,18.38,0,0,1,37,35.88c-.93-8.64,3.41-18.39,12.89-28.95a1.66,1.66,0,0,1,1.25-.56,1.7,1.7,0,0,1,1.25.55c.3.33,7.29,8.21,6.49,19.3-.58,8-5,15.42-13.17,22.16A1.68,1.68,0,0,1,43.8,48.54ZM51.07,10.7c-7.89,9.22-11.5,17.56-10.72,24.82a15.67,15.67,0,0,0,4.32,9.34C51.4,39,55.05,32.63,55.53,26A24.38,24.38,0,0,0,51.07,10.7Z"/></svg>