<svg id="Capa_1" data-name="Capa 1" xmlns="http://www.w3.org/2000/svg" viewBox="0 0 674 458"><defs><style>.cls-1,.cls-20{fill:#fff;}.cls-2{fill:none;}.cls-3,.cls-8{fill:#ffe082;}.cls-3{opacity:0.24;}.cls-4,.cls-5{fill:#80cbc4;}.cls-4,.cls-6{opacity:0.1;}.cls-7{fill:#8d6e63;}.cls-15,.cls-16,.cls-17,.cls-9{font-size:24px;fill:#0288d1;}.cls-15,.cls-16,.cls-17,.cls-20,.cls-9{font-family:Montserrat-Medium, Montserrat;font-weight:500;}.cls-10{letter-spacing:0em;}.cls-11{letter-spacing:0em;}.cls-12{letter-spacing:-0.01em;}.cls-13{letter-spacing:-0.02em;}.cls-14{font-size:18px;font-family:OpenSans, Open Sans;font-weight:400;fill:#000;}.cls-16{letter-spacing:-0.01em;}.cls-17{letter-spacing:-0.02em;}.cls-18{letter-spacing:-0.02em;}.cls-19{fill:#006064;}.cls-20{font-size:49.67px;}</style></defs><rect class="cls-1" width="674" height="458"/><rect class="cls-2" width="674" height="458"/><path class="cls-3" d="M562.64,178.22c-21.56-17.88-34.52-37.29-3.7-69.12s54.41-53.28,38.83-95.45a116.67,116.67,0,0,0-6-13.65H395c-41.6,16.87-83.73,29-118,18.26A109.65,109.65,0,0,1,242.29,0H38.5q-1.56,2.07-3.09,4.23C23.23,21.39,18.87,32.39,7.57,35.16A20.54,20.54,0,0,1,0,35.5v418c3.58.13,7.24.19,11,.16,113.67-.89,285.49.81,285.49.81,89.75.89,186.57,17.16,270-28.65,30.15-16.55,56.81-42.09,71.6-74.95,19.54-43.4,13-97.93-12.8-137C608.06,187.86,583.28,195.36,562.64,178.22Z"/><path class="cls-4" d="M674,332.5c-10.8-7-26.69-4.86-37.6,3.53-11.8,9.08-8.82,15.79-23.06,14.64-3.89-.31-8.06-2.35-9.55-6.43-2-5.52,1.63-11.37,4.64-16.26,9.13-14.89,8.42-30.52,6.34-48.48S595.4,250.1,581.06,242s-33.13-5.94-44.75,6.53c-7.93,8.52-12,20.55-17.67,31.11S504,300.28,493,300c-13.23-.3-32.1-15.11-34.55-29.81s-.47-30-3-44.71c-4.84-27.75-25.85-46.86-50.85-46.74s-50.65,20.76-51.79,49c-.63,15.38,8.44,45.29.84,58.07-6.87,11.55-22.49,18.13-33.31,12.23-29-15.85-45.86-.59-51.46,18.53-6.26,21.4-6.51,39.59-.7,61.37s18.6,39.05,32.95,55C323,457.28,365.34,454,370,453.87c87.5-1.76,130.82-5.3,218.28-1.91,35.27,1.37,64.65-27.12,85.74-62.08Z"/><path class="cls-5" d="M287.12,336.09a2.09,2.09,0,1,1-2.09,2.09A2.1,2.1,0,0,1,287.12,336.09Z"/><path class="cls-5" d="M298.75,336.11l-2.92-.55a9,9,0,0,0-.7-1.69l1.69-2.47a.63.63,0,0,0-.07-.77l-2.09-2.08a.62.62,0,0,0-.76-.08l-2.48,1.7a8.86,8.86,0,0,0-1.74-.72l-.54-2.9a.65.65,0,0,0-.6-.5h-3a.64.64,0,0,0-.59.5l-.55,2.93a8.53,8.53,0,0,0-1.67.7l-2.44-1.67a.65.65,0,0,0-.77.07l-2.09,2.09a.65.65,0,0,0-.07.77l1.68,2.45a9.78,9.78,0,0,0-.69,1.67l-2.92.55a.63.63,0,0,0-.49.59v2.95a.63.63,0,0,0,.49.6l2.92.54a9.16,9.16,0,0,0,.7,1.71l-1.66,2.43a.65.65,0,0,0,.07.77l2.09,2.08a.62.62,0,0,0,.77.07l2.43-1.66a9.26,9.26,0,0,0,1.65.69l.55,2.94a.63.63,0,0,0,.59.49h3a.63.63,0,0,0,.6-.49l.54-2.91a9.64,9.64,0,0,0,1.73-.7l2.45,1.68a.65.65,0,0,0,.77-.07l2.09-2.09a.63.63,0,0,0,.07-.77l-1.67-2.44a9.11,9.11,0,0,0,.71-1.73l2.92-.54a.63.63,0,0,0,.49-.6v-2.94A.63.63,0,0,0,298.75,336.11Zm-10.64,7a5.06,5.06,0,1,1,4-4A5.07,5.07,0,0,1,288.11,343.15Z"/><path class="cls-5" d="M321.92,388.88a1.66,1.66,0,1,1-2.2-.79A1.66,1.66,0,0,1,321.92,388.88Z"/><path class="cls-5" d="M325.86,397.2l-.6-2.27a7.07,7.07,0,0,0,1-1.08l2.34.37a.49.49,0,0,0,.53-.31l.78-2.2a.5.5,0,0,0-.21-.57l-2.05-1.2a6.69,6.69,0,0,0-.08-1.48l1.89-1.38a.49.49,0,0,0,.15-.59l-1-2.11a.5.5,0,0,0-.55-.26l-2.29.6a7.34,7.34,0,0,0-1.06-1l.36-2.32a.49.49,0,0,0-.31-.52l-2.2-.79a.51.51,0,0,0-.57.21l-1.19,2a6.91,6.91,0,0,0-1.43.08L318,380.56a.52.52,0,0,0-.6-.15l-2.1,1a.5.5,0,0,0-.26.56l.6,2.27a6.65,6.65,0,0,0-1,1.08l-2.3-.36a.51.51,0,0,0-.53.31l-.78,2.2a.48.48,0,0,0,.21.57l2,1.18a7.41,7.41,0,0,0,.07,1.41L311.39,392a.5.5,0,0,0-.15.6l1,2.11a.49.49,0,0,0,.55.25l2.27-.59a7.21,7.21,0,0,0,1.08,1l-.36,2.33a.49.49,0,0,0,.31.53l2.2.78a.5.5,0,0,0,.57-.21l1.18-2a7.38,7.38,0,0,0,1.48-.07l1.38,1.9a.51.51,0,0,0,.59.15l2.11-1A.5.5,0,0,0,325.86,397.2ZM317.21,392a4,4,0,1,1,4.19,1.5A4,4,0,0,1,317.21,392Z"/><path class="cls-5" d="M631.35,384.42a2.32,2.32,0,1,1-3.27-.25A2.32,2.32,0,0,1,631.35,384.42Z"/><path class="cls-5" d="M639.74,394.21l-1.65-2.85a10.57,10.57,0,0,0,.91-1.81l3.3-.36a.7.7,0,0,0,.59-.62l.25-3.26a.69.69,0,0,0-.49-.69l-3.21-.86a10,10,0,0,0-.66-2l2.05-2.56a.69.69,0,0,0,0-.85l-2.13-2.48a.69.69,0,0,0-.84-.14L635,377.4a10.8,10.8,0,0,0-1.8-.9l-.36-3.25a.7.7,0,0,0-.61-.6l-3.26-.24a.69.69,0,0,0-.7.49l-.85,3.19a9.41,9.41,0,0,0-1.9.63l-2.57-2.06a.71.71,0,0,0-.86,0l-2.47,2.13a.7.7,0,0,0-.15.85l1.65,2.84a9.8,9.8,0,0,0-.92,1.83l-3.24.35a.71.71,0,0,0-.6.62l-.24,3.26a.68.68,0,0,0,.49.69l3.15.84a9.72,9.72,0,0,0,.62,1.89l-2.07,2.58a.71.71,0,0,0,0,.86l2.13,2.48a.71.71,0,0,0,.85.14l2.83-1.64a9.68,9.68,0,0,0,1.84.94l.36,3.28a.7.7,0,0,0,.62.6l3.25.24a.69.69,0,0,0,.7-.49l.84-3.17a10.57,10.57,0,0,0,2-.65l2.57,2.06a.69.69,0,0,0,.85,0l2.48-2.13A.69.69,0,0,0,639.74,394.21Zm-13.61-3.86a5.61,5.61,0,1,1,6.21.47A5.63,5.63,0,0,1,626.13,390.35Z"/><path class="cls-5" d="M502.58,249.32a4.43,4.43,0,1,1-6.14,1.25A4.43,4.43,0,0,1,502.58,249.32Z"/><path class="cls-5" d="M523.09,262.94l-4.52-4.38a18.5,18.5,0,0,0,.74-3.8l5.87-2.39a1.33,1.33,0,0,0,.77-1.44l-1.24-6.12a1.33,1.33,0,0,0-1.27-1l-6.34.1a19.16,19.16,0,0,0-2.25-3.29l2.43-5.77a1.32,1.32,0,0,0-.47-1.56l-5.2-3.45A1.34,1.34,0,0,0,510,230l-4.4,4.54a18.86,18.86,0,0,0-3.77-.72l-2.35-5.8a1.34,1.34,0,0,0-1.45-.77l-6.11,1.25a1.32,1.32,0,0,0-1,1.27l.09,6.3a19.51,19.51,0,0,0-3.16,2.14l-5.8-2.44a1.33,1.33,0,0,0-1.56.47L477,241.45a1.31,1.31,0,0,0,.17,1.62l4.52,4.38a18.8,18.8,0,0,0-.75,3.83l-5.77,2.35a1.32,1.32,0,0,0-.77,1.44l1.25,6.11a1.34,1.34,0,0,0,1.27,1l6.22-.1a20.44,20.44,0,0,0,2.12,3.15l-2.46,5.82a1.33,1.33,0,0,0,.48,1.56l5.2,3.45a1.34,1.34,0,0,0,1.63-.18l4.35-4.49a19.23,19.23,0,0,0,3.87.77l2.37,5.84a1.34,1.34,0,0,0,1.45.77l6.11-1.25a1.32,1.32,0,0,0,1-1.27l-.1-6.27a19.24,19.24,0,0,0,3.28-2.21l5.78,2.44a1.34,1.34,0,0,0,1.57-.47l3.44-5.21A1.31,1.31,0,0,0,523.09,262.94Zm-27,0a10.71,10.71,0,1,1,11.66-2.37A10.73,10.73,0,0,1,496.08,262.93Z"/><g class="cls-6"><path class="cls-5" d="M589.26,206a28.46,28.46,0,0,1-7.88-.89c-3.75-.9-4.65-3.28-4.25-4.46a6.92,6.92,0,0,1,3.51-3.74c3.42-1,5.28-1.09,9.41-.42a8.79,8.79,0,0,1-4.91-2.63,3,3,0,0,1,.13-3.95c3.42-2.53,6.63-1.32,11.36.59a10.18,10.18,0,0,1-3.61-2.34,3.14,3.14,0,0,1-1.14-2.68c.26-1.41,3.41-2.61,5.14-2.76a22.74,22.74,0,0,1,10.3,1.67c3.53,1.26,6.5,3.88,6.92,7,.18-2,2.81-3.58,5.27-3.33a5.75,5.75,0,0,1,5,4,6.28,6.28,0,0,1-1.78,5.73c2.27-.59,4.07-1.49,6.37-1S634,199,633.25,202c-.22.84-1.69,3.49-5.58,3.95a76.69,76.69,0,0,1-15,.59Z"/></g><g class="cls-6"><path class="cls-5" d="M294,236.45a21.33,21.33,0,0,1-7.22-1c-3.43-1-4.25-3.66-3.89-5s1.87-3.68,3.22-4.17c3.13-1.15,4.83-1.22,8.61-.47a7.75,7.75,0,0,1-4.49-2.94,3.91,3.91,0,0,1,.12-4.41c3.13-2.82,6.07-1.47,10.4.66a9.23,9.23,0,0,1-3.31-2.62,3.89,3.89,0,0,1-1-3c.23-1.57,3.12-2.91,4.7-3.08,3.5-.37,6.2.46,9.43,1.86s5.95,4.34,6.34,7.84a4.38,4.38,0,0,1,4.82-3.72,5.66,5.66,0,0,1,4.58,4.45,8,8,0,0,1-1.63,6.4c2.08-.66,3.72-1.66,5.83-1.13a4.87,4.87,0,0,1,3.8,5.83,6.19,6.19,0,0,1-5.11,4.41,58.27,58.27,0,0,1-13.71.67Z"/></g><path class="cls-5" d="M644.58,272.85c-.86.76-2.08.43-2.08-1.07V268.2a2,2,0,0,0-2-2H638a4.26,4.26,0,0,1,.44,1.85,4,4,0,0,1-4.1,4h-.15a4,4,0,0,1-4.09-4,4.1,4.1,0,0,1,.44-1.85h-2.67a1.93,1.93,0,0,0-1.93,1.93v3.62c0,1.5-1.24,1.82-2.1,1.07a2.23,2.23,0,1,0,0,3.4c.86-.77,2.11-.43,2.11,1.06v3.55a1.93,1.93,0,0,0,1.93,1.93h3.6c1.49,0,1.81,1.25,1.06,2.11a2.24,2.24,0,1,0,3.4,0c-.76-.86-.43-2.12,1.06-2.12h3.58a1.93,1.93,0,0,0,1.93-1.93V277.3c0-1.49,1.21-1.82,2.07-1.06a2.23,2.23,0,1,0,0-3.39Z"/><path class="cls-5" d="M560.31,181.59l1.28-1.28L560.31,179a1.48,1.48,0,0,1,0-2.1,1.47,1.47,0,0,1,2.1,0l1.29,1.28,1.29-1.28a1.47,1.47,0,0,1,2.1,0,1.48,1.48,0,0,1,0,2.1l-1.28,1.29,1.28,1.28a1.49,1.49,0,0,1-2.1,2.11l-1.29-1.29-1.29,1.29a1.49,1.49,0,1,1-2.1-2.11Z"/><path class="cls-5" d="M303.88,273.38l1.29-1.28-1.29-1.29A1.49,1.49,0,0,1,306,268.7l1.28,1.29,1.29-1.29a1.49,1.49,0,0,1,2.11,2.11l-1.29,1.29,1.29,1.28a1.49,1.49,0,0,1-2.11,2.11l-1.29-1.29L306,275.49a1.49,1.49,0,0,1-2.11-2.11Z"/><path class="cls-5" d="M657.29,377l1.28-1.28-1.28-1.29a1.49,1.49,0,1,1,2.1-2.11l1.29,1.29,1.29-1.29a1.49,1.49,0,0,1,2.1,2.11l-1.29,1.29,1.29,1.28A1.49,1.49,0,1,1,662,379.1l-1.28-1.29-1.29,1.29a1.49,1.49,0,1,1-2.1-2.11Z"/><path class="cls-5" d="M284.2,376.61l1.29-1.29L284.2,374a1.49,1.49,0,0,1,2.11-2.11l1.28,1.29,1.29-1.29A1.49,1.49,0,0,1,291,374l-1.28,1.28,1.28,1.29a1.49,1.49,0,0,1-2.1,2.11l-1.29-1.29-1.28,1.29a1.49,1.49,0,0,1-2.11-2.11Z"/><path class="cls-7" d="M350.31,339A65.65,65.65,0,0,1,334.09,317a63.18,63.18,0,0,1-4.12-12,62.37,62.37,0,0,1-1.22-7.06c-.23-2,0-4.26-.62-6.18-.09-.27-.44-.19-.51.05-.53,1.92,0,4.25.19,6.21a62.48,62.48,0,0,0,1.13,6.54A64.29,64.29,0,0,0,333.6,318a63.46,63.46,0,0,0,6.84,11.23,61,61,0,0,0,9.82,9.78s.08,0,.05-.05Z"/><path class="cls-7" d="M344,333a6.08,6.08,0,0,1-2.65,0,28.11,28.11,0,0,0-6.82-2.21,2.33,2.33,0,0,0-1.59.16,1.06,1.06,0,0,0-.19,1.14,2.17,2.17,0,0,0,.78.84c3.14,2.17,6.7,1,10.59.47Z"/><path class="cls-7" d="M339.72,327.18a12.1,12.1,0,0,1-2.85.28c-2.35-.65-3-1.85-6.66-2.94a2.46,2.46,0,0,0-1.75.06,1.35,1.35,0,0,0-.46,1.29,2.06,2.06,0,0,0,.66,1c2.93,2.73,9.14,1.71,11.14.79Z"/><path class="cls-7" d="M336.58,322.11a2.93,2.93,0,0,1-2.55-.47c-3.17-2.44-3-2.79-6.84-4.77a2.85,2.85,0,0,0-1.88-.35,1.25,1.25,0,0,0-.6,1.25,2.53,2.53,0,0,0,.62,1.23c2.89,3.55,7.73,3.81,11.47,3.58Z"/><path class="cls-7" d="M333.49,316.21c.36,0-2.08-1-3.31-2.18-3.68-3.22-3-4.1-6.59-6.67-.4-.29-1.36-.79-1.84-.63a1.21,1.21,0,0,0-.76,1.16,2.55,2.55,0,0,0,.47,1.33c2.46,4,7.43,5.63,12,7Z"/><path class="cls-7" d="M330.47,307.45c.33-.06-1.74-.28-2.77-1.41-2.76-2.08-2.5-3.72-5.57-6.07-.34-.26-1.17-.72-1.62-.54a1.36,1.36,0,0,0-.77,1.15,2.39,2.39,0,0,0,.34,1.27c2,3.77,8.38,6.31,10.39,5.6Z"/><path class="cls-7" d="M328.69,300.74c.31,0-.92-.72-1.65-1.7-1.68-2.33-2.1-3.32-4.47-5.36a1.91,1.91,0,0,0-1.39-.49,1.55,1.55,0,0,0-.93,1,1.68,1.68,0,0,0,.06,1.07c1.06,3.22,4.84,4.48,8.38,5.52Z"/><path class="cls-7" d="M328.29,295.52c.27.07-.84-.7-1.21-1.83-1.22-2.38-.44-3.41-1.79-5.84-.15-.27-.6-.82-1-.88a1.17,1.17,0,0,0-1,.41,1.33,1.33,0,0,0-.24.85c0,2.87,2.68,5.21,5.24,7.29Z"/><path class="cls-7" d="M345.47,334.37c-.26.14,1-.89,1.14-2.12a22.13,22.13,0,0,1,1-6.26c.1-.34.45-1.06.84-1.2a1.12,1.12,0,0,1,1.11.27,1.67,1.67,0,0,1,.41.94c.56,3.3-2,5.72-4.25,8.6Z"/><path class="cls-7" d="M341.23,329.22a11.22,11.22,0,0,0,1.78-2.15c.73-2.22.07-3.36,1.13-6.86.12-.38.53-1.22,1-1.38a1.37,1.37,0,0,1,1.33.28,1.84,1.84,0,0,1,.5,1.06c.71,3.75-3.51,8.23-5.36,9.37Z"/><path class="cls-7" d="M337.41,323.88a2.78,2.78,0,0,0,1.3-2c.22-3.51-.14-3.6.85-7.3.11-.4.49-1.28,1-1.47a1.35,1.35,0,0,1,1.34.29,2,2,0,0,1,.52,1.1c.81,3.93-2.15,7.37-4.76,9.79Z"/><path class="cls-7" d="M333.56,317c-.33.11,1.3-1.57,1.74-3,1.51-3.94.49-4.33,2.24-7.73.2-.38.76-1.16,1.26-1.24a1.37,1.37,0,0,1,1.25.57,2,2,0,0,1,.27,1.19c-.06,4-3.5,7.29-6.76,10.2Z"/><path class="cls-7" d="M330.93,309.92c-.32.09,1.37-.93,1.72-2.25,1.39-2.77.36-3.95,1.88-7.07.17-.34.67-1,1.15-1.09a1.47,1.47,0,0,1,1.23.59,2,2,0,0,1,.32,1.13c.14,3.78-4.21,8.42-6.3,8.69Z"/><path class="cls-7" d="M329,302.51c-.31.08.58-1,.9-2.19.69-2.79.72-3.86,2.16-6.63.16-.31.65-.93,1.11-1a1.51,1.51,0,0,1,1.22.54,1.77,1.77,0,0,1,.35,1c.21,3.38-2.84,6-5.74,8.23Z"/><path class="cls-7" d="M328.24,296.18c-.26.11.75-.74.93-1.75.83-2.2-.16-2.92.8-5.2a1.79,1.79,0,0,1,.86-.91,1.44,1.44,0,0,1,1.12.16,1.05,1.05,0,0,1,.41.67c.54,2.4-1.84,4.83-4.12,7Z"/><path class="cls-5" d="M363,445.89a58.89,58.89,0,0,0-6.21-9,5.71,5.71,0,0,0,.48-1c.19-.65.29-1.72.52-2.36a14.08,14.08,0,0,0,1-4.63,5.19,5.19,0,0,0-1.84-4.21,1.27,1.27,0,0,0-.8-.31,1.29,1.29,0,0,0-.85.55,6.49,6.49,0,0,0-1.19,2.86c-.48,2.37.18,4.92,1,7.24a65.16,65.16,0,0,0-9.54-8.48,5.45,5.45,0,0,0,.32-.85c.16-.66.19-1.73.38-2.38a14.51,14.51,0,0,0,.78-4.69,5.21,5.21,0,0,0-2.09-4.1,1,1,0,0,0-1.63.34,6.43,6.43,0,0,0-1,2.92c-.37,2.55.57,5.22,1.6,7.6a65.62,65.62,0,0,0-8.63-5,5.92,5.92,0,0,0,.51-1.24c.16-.66.2-1.73.39-2.38a14.23,14.23,0,0,0,.77-4.69,5.2,5.2,0,0,0-2.08-4.1,1.31,1.31,0,0,0-.82-.26,1.28,1.28,0,0,0-.81.6,6.52,6.52,0,0,0-1,2.92c-.38,2.65.65,5.45,1.73,7.9a3.06,3.06,0,0,1,.19.69c-1.68-.8-3.43-1.47-5.15-2.18-2-.69-4.06-1.43-6.16-1.94-.63-.18-1.26-.33-1.9-.49a1.73,1.73,0,0,0,.08-.33c.12-.67.09-1.74.24-2.41a14.24,14.24,0,0,0,.47-4.72,5.19,5.19,0,0,0-2.35-4,1.28,1.28,0,0,0-.82-.21,1.32,1.32,0,0,0-.78.65,6.57,6.57,0,0,0-.84,3c-.19,2.59.93,5.22,2.12,7.54-2.89-.68-5.76-1.27-8.58-2a60.42,60.42,0,0,1-6.72-2.14,6.64,6.64,0,0,0,.84-1c.35-.58.7-1.6,1.07-2.17a14.35,14.35,0,0,0,2.12-4.25,5.22,5.22,0,0,0-.79-4.53,1.37,1.37,0,0,0-.7-.49,1.3,1.3,0,0,0-1,.33,6.47,6.47,0,0,0-1.84,2.5c-1.14,2.42-1,5.4-.66,8.05a10.56,10.56,0,0,1-.06,1.18,28.72,28.72,0,0,1-3.82-2,18.46,18.46,0,0,1-4.58-3.95,15.06,15.06,0,0,1-1.6-2.28,5.79,5.79,0,0,0,1.41-.58c.58-.36,1.36-1.1,1.95-1.43a14.19,14.19,0,0,0,3.83-2.81,5.18,5.18,0,0,0,1.37-4.39,1.23,1.23,0,0,0-.4-.75,1.28,1.28,0,0,0-1-.15,6.6,6.6,0,0,0-2.78,1.37c-2.12,1.64-3.34,4.36-4.28,6.86a7.52,7.52,0,0,1-.56,1,11.56,11.56,0,0,1-.88-2.12,26.75,26.75,0,0,1-1.19-8.85l.2,0a5.64,5.64,0,0,0,1.7-.45c.61-.3,1.47-.95,2.09-1.22a14.16,14.16,0,0,0,4.11-2.38,5.18,5.18,0,0,0,1.84-4.21,1.24,1.24,0,0,0-.31-.79,1.26,1.26,0,0,0-1-.25,6.42,6.42,0,0,0-2.91,1.06c-2.29,1.39-3.8,4-5,6.35a8.88,8.88,0,0,1-.72,1c0-.88.06-1.77.12-2.65.17-2.76.42-5.53.52-8.32h0a5.64,5.64,0,0,0,1.7-.45c.61-.29,1.47-1,2.09-1.21a14.39,14.39,0,0,0,4.11-2.38,5.2,5.2,0,0,0,1.84-4.22,1.26,1.26,0,0,0-.31-.79,1.29,1.29,0,0,0-1-.25,6.58,6.58,0,0,0-2.91,1.06c-2.29,1.4-3.8,4-5,6.36a5.9,5.9,0,0,1-.53.73c0-1.08,0-2.17,0-3.26l-.15-1.61-.07-.8-.15-.79c-.11-.53-.2-1.06-.32-1.59l-.48-1.55a6.09,6.09,0,0,0-.31-.88,20.22,20.22,0,0,0,1.5-1.38c.48-.49,1-.94,1.48-1.4a14.13,14.13,0,0,0,3.08-3.61,5.18,5.18,0,0,0,.33-4.59,1.21,1.21,0,0,0-.56-.64,1.28,1.28,0,0,0-1,.08,6.59,6.59,0,0,0-2.38,2,13.65,13.65,0,0,0-2.74,7.18,8.42,8.42,0,0,1-.3,1.06c-.12-.27-.25-.54-.39-.8a17.27,17.27,0,0,0-1.89-2.68,19.65,19.65,0,0,0-4.43-3.86c.15-.49.21-1.26.31-1.61.2-.65.44-1.29.66-1.93a14.08,14.08,0,0,0,1-4.63,5.19,5.19,0,0,0-1.84-4.21,1.29,1.29,0,0,0-.8-.31,1.27,1.27,0,0,0-.85.55,6.42,6.42,0,0,0-1.19,2.86,14.48,14.48,0,0,0,.65,7.9c0,.06,0,.12.07.19a39.34,39.34,0,0,0-4.4-2.1c-1.37-.56-2.76-1.06-4.15-1.54.08-.42.13-.88.2-1.13.2-.65.44-1.28.66-1.92a14.14,14.14,0,0,0,1-4.64,5.19,5.19,0,0,0-1.84-4.21,1.35,1.35,0,0,0-.8-.31,1.31,1.31,0,0,0-.85.55,6.42,6.42,0,0,0-1.19,2.86,14.47,14.47,0,0,0,.65,7.9s0,.12.07.18c-1.94-.66-3.87-1.3-5.76-2-1.13-.43-2.26-.89-3.36-1.4.17-.36.32-.75.44-.95.36-.58.75-1.13,1.13-1.7a14,14,0,0,0,2.19-4.21,5.19,5.19,0,0,0-.71-4.54,1.26,1.26,0,0,0-.69-.5,1.29,1.29,0,0,0-1,.31,6.61,6.61,0,0,0-1.88,2.46,14.53,14.53,0,0,0-1.38,7.81c0,.11,0,.26.05.42a22.71,22.71,0,0,1-5.41-3.82,19.26,19.26,0,0,1-2.31-2.78c.37-.24.83-.75,1.1-.93.47-.33,1-.64,1.46-.95a12.22,12.22,0,0,0,3.16-2.55,4.46,4.46,0,0,0,1-3.81,1.07,1.07,0,0,0-.37-.63,1.11,1.11,0,0,0-.86-.09,5.61,5.61,0,0,0-2.32,1.29,12.4,12.4,0,0,0-3.76,5.65c-.06.18-.14.45-.22.74-.15-.28-.31-.54-.45-.82a24.6,24.6,0,0,1-2-5.84c0-.23-.08-.47-.12-.69.26-.2.55-.52.73-.64.36-.25.74-.48,1.12-.72a9.26,9.26,0,0,0,2.4-1.95,3.37,3.37,0,0,0,.76-2.9.81.81,0,0,0-.28-.48.83.83,0,0,0-.66-.06,4.27,4.27,0,0,0-1.76,1,9.43,9.43,0,0,0-2.67,3.8,95.09,95.09,0,0,1-.81-9.89h-.23c-.11,2.12-.18,4.24-.15,6.37,0,1.43.1,2.87.25,4.31l-.15-.05c-.4-.18-.79-.38-1.19-.58A9.08,9.08,0,0,0,242,330a3.4,3.4,0,0,0-2.88.85.82.82,0,0,0-.26.49.86.86,0,0,0,.29.6,4.24,4.24,0,0,0,1.75,1,9.53,9.53,0,0,0,5.16.22l.37-.09c0,.23.06.46.1.7a26.09,26.09,0,0,0,1.83,6.24c.11.26.25.5.38.76l-.44-.1c-.55-.19-1.09-.4-1.64-.61a12.35,12.35,0,0,0-3.94-1,4.45,4.45,0,0,0-3.64,1.5,1,1,0,0,0-.28.67,1.07,1.07,0,0,0,.45.74,5.48,5.48,0,0,0,2.42,1.08,12.42,12.42,0,0,0,6.78-.39,8.82,8.82,0,0,0,1.09-.45,18.33,18.33,0,0,0,2.5,3.26,22.09,22.09,0,0,0,4,3.27l-.28-.06a12.06,12.06,0,0,0-4-.47,4.46,4.46,0,0,0-3.42,1.95,1.06,1.06,0,0,0-.19.71,1.08,1.08,0,0,0,.54.67,5.53,5.53,0,0,0,2.55.76,12.42,12.42,0,0,0,6.67-1.27,7.69,7.69,0,0,0,1.09-.64c1.36.68,2.75,1.28,4.14,1.82s2.63,1,3.95,1.42a11.85,11.85,0,0,0-3.86.92,4.45,4.45,0,0,0-2.55,3,1.08,1.08,0,0,0,.06.73,1.11,1.11,0,0,0,.74.45,5.55,5.55,0,0,0,2.65-.16,12.39,12.39,0,0,0,5.84-3.46,5.39,5.39,0,0,0,.37-.4c1.62.54,3.23,1.07,4.81,1.65a47.2,47.2,0,0,1,4.4,1.87h0c-.58.09-1.16.15-1.73.22a12.13,12.13,0,0,0-4,.93,4.42,4.42,0,0,0-2.55,3,.88.88,0,0,0,.8,1.18,5.68,5.68,0,0,0,2.65-.15,12.47,12.47,0,0,0,5.84-3.46,9.36,9.36,0,0,0,.68-.79,19.22,19.22,0,0,1,4.42,3.45,17,17,0,0,1,1.88,2.42c.23.37.42.77.63,1.16-.39,0-.82,0-1.06,0-.58-.08-1.15-.18-1.72-.28a12.34,12.34,0,0,0-4.06-.21,4.47,4.47,0,0,0-3.29,2.17.89.89,0,0,0,.44,1.36,5.5,5.5,0,0,0,2.59.59,12.43,12.43,0,0,0,6.57-1.7,6.54,6.54,0,0,0,1.1-.75c.06.14.12.28.17.43l.51,1.46c.13.5.23,1,.35,1.52l.17.76.1.78.18,1.55c.08,1.22.09,2.44.06,3.66-.39-.2-1.05-.36-1.33-.5-.52-.26-1-.55-1.53-.84a12.19,12.19,0,0,0-3.76-1.54,4.44,4.44,0,0,0-3.83,1,.88.88,0,0,0,0,1.42,5.61,5.61,0,0,0,2.24,1.42,12.47,12.47,0,0,0,6.76.59,5.54,5.54,0,0,0,1.44-.42c-.12,2.63-.4,5.26-.61,7.9-.06.8-.12,1.6-.15,2.41-.37-.21-.84-.4-1.06-.55-.48-.33-.95-.68-1.41-1a12.33,12.33,0,0,0-3.53-2,4.41,4.41,0,0,0-3.91.45,1.06,1.06,0,0,0-.45.57,1.1,1.1,0,0,0,.23.83,5.43,5.43,0,0,0,2,1.7,12.41,12.41,0,0,0,6.62,1.47,6.11,6.11,0,0,0,1.41-.19c0,.91,0,1.84,0,2.76a24.56,24.56,0,0,0,.91,6.41,8.24,8.24,0,0,0,.38,1.19l-.2-.13c-.46-.35-.91-.73-1.35-1.1a12,12,0,0,0-3.42-2.2,4.41,4.41,0,0,0-3.93.24.88.88,0,0,0-.29,1.39,5.41,5.41,0,0,0,1.94,1.8,12.48,12.48,0,0,0,6.54,1.82,7,7,0,0,0,1.41-.13,1.67,1.67,0,0,1,.08.2,18.93,18.93,0,0,0,6.57,7.29c.5.34,1,.65,1.53.95a11.48,11.48,0,0,0-3.7.05,4.45,4.45,0,0,0-3.17,2.33,1.1,1.1,0,0,0-.1.73,1.08,1.08,0,0,0,.62.6,5.53,5.53,0,0,0,2.61.46,12.57,12.57,0,0,0,6.48-2c.15-.11.4-.27.64-.46a54.24,54.24,0,0,0,7,2.41c2.57.73,5.15,1.32,7.71,1.95l-1,.16a12.31,12.31,0,0,0-3.93,1.06,4.47,4.47,0,0,0-2.45,3.09,1.11,1.11,0,0,0,.09.72,1.07,1.07,0,0,0,.76.43,5.54,5.54,0,0,0,2.64-.25,12.42,12.42,0,0,0,5.72-3.65,8.17,8.17,0,0,0,.7-.89l2,.55c2,.55,4,1.27,5.94,1.94l3.1,1.27-.59,0a12.49,12.49,0,0,0-4,.81,4.43,4.43,0,0,0-2.64,2.92,1.07,1.07,0,0,0,0,.73,1.1,1.1,0,0,0,.73.48,5.66,5.66,0,0,0,2.65-.08,12.37,12.37,0,0,0,6-3.27c.11-.12.28-.28.45-.47l0,0a71.57,71.57,0,0,1,8.78,4.87c-.54,0-1.08,0-1.62,0a12.07,12.07,0,0,0-4,.56,4.46,4.46,0,0,0-2.82,2.75,1.08,1.08,0,0,0,0,.73,1.09,1.09,0,0,0,.7.52,5.52,5.52,0,0,0,2.65.09A12.44,12.44,0,0,0,343.7,429a7.52,7.52,0,0,0,.68-.65l.35.23a62.79,62.79,0,0,1,9.54,8.07l.44.48a5,5,0,0,1-.64.08c-.58,0-1.17,0-1.75-.05a12.22,12.22,0,0,0-4.05.33,4.46,4.46,0,0,0-3,2.59.87.87,0,0,0,.62,1.28,5.61,5.61,0,0,0,2.64.25,12.41,12.41,0,0,0,6.29-2.55,7.92,7.92,0,0,0,.89-.79,59.11,59.11,0,0,1,6.26,8.23c1,1.83,2.11,3.63,2.94,5.56l.68,1.43.55,1.48c.36,1,.79,2,1.11,3l.21-.06A52.13,52.13,0,0,0,363,445.89Z"/><path class="cls-8" d="M579.38,373.48a54.19,54.19,0,0,0,20.84-8.6,52.08,52.08,0,0,0,8-6.71,50,50,0,0,0,3.88-4.48c1-1.32,1.82-3,3.08-4.1.17-.16.39.05.34.25-.44,1.58-1.79,3-2.79,4.31a50.6,50.6,0,0,1-3.59,4.15,53.1,53.1,0,0,1-18.64,12.51,49.73,49.73,0,0,1-11.13,2.72s0,0,0,0Z"/><path class="cls-8" d="M586.41,371.9A4.87,4.87,0,0,0,588.3,373a23.59,23.59,0,0,1,5.77,1.35c.31.11.95.46,1,.79a.86.86,0,0,1-.35.89,1.72,1.72,0,0,1-.91.26c-3.14.2-5.19-2.12-7.69-4.18Z"/><path class="cls-8" d="M591.91,369.65a10,10,0,0,0,1.9,1.41c1.94.55,2.91,0,6,.77.34.08,1.06.4,1.22.78a1.11,1.11,0,0,1-.23,1.11,1.66,1.66,0,0,1-.9.44c-3.24.69-7.19-2.69-8.22-4.19Z"/><path class="cls-8" d="M596.29,367.4a2.45,2.45,0,0,0,2,.75c3.28-.37,3.33-.68,6.87-.45.4,0,1.26.2,1.48.56a1,1,0,0,1-.11,1.14,2,2,0,0,1-1,.6c-3.56,1.28-7.09-.6-9.64-2.36Z"/><path class="cls-8" d="M601,364.54c-.23-.19,1.88.22,3.27-.12,4-.71,3.89-1.62,7.51-1.91.4,0,1.3,0,1.58.34a1,1,0,0,1,0,1.15,2.11,2.11,0,0,1-.9.74c-3.44,1.78-7.65.81-11.49-.2Z"/><path class="cls-8" d="M606.88,359.64c-.21-.19,1.35.54,2.56.18,2.84-.29,3.35-1.56,6.53-1.92.35,0,1.13,0,1.38.31a1.15,1.15,0,0,1,0,1.15,2.08,2.08,0,0,1-.78.75c-3,1.84-8.63.89-9.74-.47Z"/><path class="cls-8" d="M611,355.65c-.21-.16,1-.12,1.89-.49a18.6,18.6,0,0,1,5.45-1.89,1.53,1.53,0,0,1,1.19.25,1.24,1.24,0,0,1,.25,1.07,1.4,1.4,0,0,1-.5.74c-2.12,1.82-5.33,1.1-8.28.32Z"/><path class="cls-8" d="M613.51,352.12c-.23-.06.89-.13,1.63-.77,1.89-1.16,1.78-2.22,3.77-3.36a1.52,1.52,0,0,1,1.07-.21,1,1,0,0,1,.54.72,1.09,1.09,0,0,1-.19.71c-1.22,2-4.12,2.54-6.82,2.91Z"/><path class="cls-8" d="M584.77,372.28c.13.21-.33-1.06.1-2a18.3,18.3,0,0,0,2-4.87,1.75,1.75,0,0,0-.09-1.21.9.9,0,0,0-.9-.27,1.33,1.33,0,0,0-.68.48c-1.81,2.1-1,4.91-.68,7.9Z"/><path class="cls-8" d="M590,370.45a9.56,9.56,0,0,1-.34-2.28c.43-1.89,1.39-2.41,2.13-5.34a2,2,0,0,0-.12-1.41,1.15,1.15,0,0,0-1.06-.36,1.56,1.56,0,0,0-.81.53c-2.1,2.35-1,7.32-.21,8.92Z"/><path class="cls-8" d="M595,368.3a2.26,2.26,0,0,1-.07-2c1.34-2.57,1.64-2.49,2.52-5.52a2.07,2.07,0,0,0-.06-1.45,1.09,1.09,0,0,0-1.07-.37,1.65,1.65,0,0,0-.84.55c-2.24,2.44-1.62,6.14-.8,9Z"/><path class="cls-8" d="M600.61,365.07c.2.22-.24-1.67.06-2.86.61-3.43,1.5-3.27,1.71-6.43a2.09,2.09,0,0,0-.37-1.41,1.11,1.11,0,0,0-1.12-.13,1.65,1.65,0,0,0-.7.73c-1.67,2.87-.64,6.65.42,10.1Z"/><path class="cls-8" d="M605.5,361.19c.19.2-.57-1.25-.26-2.33.2-2.55,1.43-2.95,1.69-5.8,0-.31,0-1-.35-1.26a1.18,1.18,0,0,0-1.12-.11,1.63,1.63,0,0,0-.71.66c-1.72,2.61-.62,7.76.75,8.84Z"/><path class="cls-8" d="M610,356.77c.19.18,0-1,.3-1.93a19.09,19.09,0,0,0,1.3-5.62,1.53,1.53,0,0,0-.38-1.16,1.28,1.28,0,0,0-1.09-.14,1.4,1.4,0,0,0-.68.58c-1.59,2.3-.53,5.42.55,8.27Z"/><path class="cls-8" d="M613.27,352.61c.13.2-.22-.83.08-1.62.36-1.92,1.36-2,1.66-4a1.44,1.44,0,0,0-.23-1,1.21,1.21,0,0,0-.86-.37.91.91,0,0,0-.57.3c-1.4,1.47-.76,4.21-.08,6.73Z"/><path class="cls-8" d="M570.37,448a48.56,48.56,0,0,1,5.13-7.45,4.71,4.71,0,0,1-.39-.84c-.17-.54-.25-1.42-.43-1.95a11.85,11.85,0,0,1-.87-3.83,4.3,4.3,0,0,1,1.53-3.48,1,1,0,0,1,.66-.25,1.08,1.08,0,0,1,.7.45,5.43,5.43,0,0,1,1,2.36,11.54,11.54,0,0,1-.83,6,54.72,54.72,0,0,1,7.89-7,3.84,3.84,0,0,1-.26-.7c-.13-.55-.16-1.43-.32-2a11.68,11.68,0,0,1-.64-3.87,4.3,4.3,0,0,1,1.72-3.39,1,1,0,0,1,.67-.21,1.05,1.05,0,0,1,.68.49,5.41,5.41,0,0,1,.85,2.42,12.18,12.18,0,0,1-1.33,6.27,55.53,55.53,0,0,1,7.13-4.13,4.69,4.69,0,0,1-.42-1c-.13-.55-.16-1.43-.32-2a11.72,11.72,0,0,1-.64-3.87,4.3,4.3,0,0,1,1.72-3.39,1.12,1.12,0,0,1,.67-.22,1.07,1.07,0,0,1,.68.5,5.41,5.41,0,0,1,.85,2.41c.31,2.19-.54,4.5-1.43,6.53a2.84,2.84,0,0,0-.16.57c1.39-.66,2.83-1.22,4.26-1.8,1.68-.57,3.35-1.19,5.08-1.61l1.57-.4c0-.1-.05-.19-.06-.27-.1-.56-.08-1.44-.2-2a12,12,0,0,1-.39-3.9,4.31,4.31,0,0,1,1.94-3.27,1.06,1.06,0,0,1,.68-.18,1.12,1.12,0,0,1,.65.54,5.54,5.54,0,0,1,.69,2.46,12.28,12.28,0,0,1-1.75,6.23c2.38-.56,4.76-1.05,7.09-1.66a49.13,49.13,0,0,0,5.55-1.77,4.56,4.56,0,0,1-.69-.84c-.29-.48-.58-1.32-.89-1.79a11.9,11.9,0,0,1-1.75-3.51,4.32,4.32,0,0,1,.66-3.75,1,1,0,0,1,.57-.4,1.08,1.08,0,0,1,.79.27,5.28,5.28,0,0,1,1.52,2.06c.94,2,.81,4.46.55,6.66a9,9,0,0,0,.05,1,24,24,0,0,0,3.15-1.62,15.44,15.44,0,0,0,3.79-3.27,12.53,12.53,0,0,0,1.32-1.89,5.11,5.11,0,0,1-1.17-.47c-.47-.3-1.11-.91-1.6-1.19a11.57,11.57,0,0,1-3.17-2.32,4.29,4.29,0,0,1-1.13-3.62.84.84,0,0,1,1.15-.74,5.23,5.23,0,0,1,2.3,1.13c1.75,1.35,2.76,3.59,3.54,5.66a5.87,5.87,0,0,0,.46.8,9,9,0,0,0,.73-1.75,22.35,22.35,0,0,0,1-7.31.76.76,0,0,1-.16,0,4.6,4.6,0,0,1-1.41-.37c-.5-.24-1.21-.78-1.72-1a12,12,0,0,1-3.4-2,4.3,4.3,0,0,1-1.52-3.49.85.85,0,0,1,1.07-.86,5.38,5.38,0,0,1,2.4.88c1.89,1.15,3.14,3.28,4.13,5.25a7.55,7.55,0,0,0,.6.81c0-.73-.06-1.47-.11-2.19-.14-2.28-.34-4.58-.42-6.88h0a4.53,4.53,0,0,1-1.41-.37c-.51-.24-1.21-.78-1.73-1a11.85,11.85,0,0,1-3.39-2,4.28,4.28,0,0,1-1.52-3.48,1,1,0,0,1,.26-.65,1,1,0,0,1,.81-.21,5.3,5.3,0,0,1,2.4.88c1.89,1.15,3.13,3.27,4.13,5.25a3.22,3.22,0,0,0,.44.6c0-.89,0-1.79,0-2.69l.12-1.33.06-.66.13-.66c.08-.43.16-.88.26-1.31l.4-1.28a4.84,4.84,0,0,1,.25-.73c-.4-.31-1-.92-1.24-1.14-.39-.4-.81-.78-1.22-1.16a11.7,11.7,0,0,1-2.55-3,4.3,4.3,0,0,1-.27-3.79,1,1,0,0,1,.46-.53,1.08,1.08,0,0,1,.84.07,5.43,5.43,0,0,1,2,1.63,11.37,11.37,0,0,1,2.26,5.93,5.68,5.68,0,0,0,.25.88c.1-.22.2-.44.32-.66a14.79,14.79,0,0,1,1.56-2.22,16.58,16.58,0,0,1,3.66-3.18c-.12-.41-.17-1-.26-1.33-.16-.54-.35-1.06-.54-1.59a11.63,11.63,0,0,1-.86-3.83,4.27,4.27,0,0,1,1.52-3.48,1.12,1.12,0,0,1,.66-.26,1.07,1.07,0,0,1,.7.46,5.32,5.32,0,0,1,1,2.36,12,12,0,0,1-.54,6.53,1.56,1.56,0,0,1-.06.15,32.51,32.51,0,0,1,3.63-1.73c1.14-.46,2.29-.87,3.44-1.28-.07-.34-.11-.72-.17-.92-.17-.54-.36-1.07-.55-1.6a12.1,12.1,0,0,1-.86-3.82,4.31,4.31,0,0,1,1.53-3.48,1,1,0,0,1,.66-.26,1.06,1.06,0,0,1,.7.46,5.26,5.26,0,0,1,1,2.36,12,12,0,0,1-.53,6.53l-.06.14c1.6-.54,3.2-1.07,4.76-1.65.93-.36,1.86-.75,2.77-1.16-.13-.3-.26-.62-.36-.79-.3-.48-.62-.94-.93-1.4a11.79,11.79,0,0,1-1.81-3.48,4.3,4.3,0,0,1,.59-3.76,1.07,1.07,0,0,1,.57-.41,1,1,0,0,1,.79.26,5.38,5.38,0,0,1,1.56,2,12.06,12.06,0,0,1,1.14,6.45c0,.1,0,.22,0,.35a18.73,18.73,0,0,0,4.46-3.15,16.26,16.26,0,0,0,1.92-2.3c-.31-.2-.69-.62-.91-.77-.39-.27-.8-.53-1.21-.78a10.08,10.08,0,0,1-2.61-2.11,3.7,3.7,0,0,1-.83-3.15.93.93,0,0,1,.31-.52.91.91,0,0,1,.71-.07,4.55,4.55,0,0,1,1.92,1.06,10.36,10.36,0,0,1,3.11,4.67c0,.14.11.37.17.61.13-.23.26-.45.38-.68a20.58,20.58,0,0,0,1.66-4.83c0-.18.06-.38.1-.57-.21-.16-.46-.42-.61-.52s-.61-.4-.92-.6a7.7,7.7,0,0,1-2-1.6,2.82,2.82,0,0,1-.63-2.4.69.69,0,0,1,.24-.4.72.72,0,0,1,.54-.05,3.52,3.52,0,0,1,1.46.81,7.87,7.87,0,0,1,2.2,3.14,78.94,78.94,0,0,0,.68-8.17h.18c.1,1.75.15,3.5.12,5.26a35.23,35.23,0,0,1-.2,3.56l.12,0c.34-.15.66-.31,1-.48a7.69,7.69,0,0,1,2.4-.87,2.8,2.8,0,0,1,2.38.71.67.67,0,0,1,.22.4.72.72,0,0,1-.24.5,3.49,3.49,0,0,1-1.45.82,7.82,7.82,0,0,1-4.26.19l-.31-.08c0,.19-.05.39-.08.58a22.08,22.08,0,0,1-1.51,5.16l-.31.62.36-.08c.45-.15.9-.33,1.35-.5a10,10,0,0,1,3.26-.82,3.68,3.68,0,0,1,3,1.24.9.9,0,0,1,.23.55.92.92,0,0,1-.37.61,4.76,4.76,0,0,1-2,.9,10.27,10.27,0,0,1-5.6-.33,6.17,6.17,0,0,1-.9-.37,15.35,15.35,0,0,1-2.06,2.69,18.35,18.35,0,0,1-3.34,2.71l.23-.05a9.75,9.75,0,0,1,3.34-.39,3.64,3.64,0,0,1,2.82,1.61.83.83,0,0,1,.16.58.89.89,0,0,1-.45.56,4.64,4.64,0,0,1-2.1.63,10.28,10.28,0,0,1-5.51-1.05,5.44,5.44,0,0,1-.9-.53c-1.13.56-2.28,1.05-3.43,1.5s-2.17.81-3.26,1.18a9.67,9.67,0,0,1,3.19.76,3.67,3.67,0,0,1,2.11,2.47.91.91,0,0,1,0,.61,1,1,0,0,1-.62.37,4.62,4.62,0,0,1-2.18-.13,10.33,10.33,0,0,1-4.83-2.86l-.3-.33c-1.34.44-2.67.88-4,1.37a34.21,34.21,0,0,0-3.64,1.54h0c.47.08.95.12,1.43.18a10,10,0,0,1,3.27.77,3.67,3.67,0,0,1,2.1,2.48.83.83,0,0,1,0,.6.93.93,0,0,1-.61.37,4.53,4.53,0,0,1-2.19-.13,10.2,10.2,0,0,1-4.82-2.85c-.14-.15-.37-.39-.57-.65a15.44,15.44,0,0,0-3.64,2.85,13.25,13.25,0,0,0-1.56,2c-.19.3-.35.63-.52.95a7.92,7.92,0,0,0,.87,0c.48-.06,1-.14,1.43-.22a10.22,10.22,0,0,1,3.35-.18,3.68,3.68,0,0,1,2.72,1.8.94.94,0,0,1,.12.59.91.91,0,0,1-.49.53,4.72,4.72,0,0,1-2.13.49,10.29,10.29,0,0,1-5.44-1.41,5.65,5.65,0,0,1-.9-.62c-.05.12-.1.23-.14.35l-.43,1.21c-.1.42-.19.84-.28,1.26l-.14.63-.08.64-.15,1.28c-.07,1-.08,2,0,3,.32-.17.86-.3,1.1-.42.43-.22.84-.45,1.26-.69a10.17,10.17,0,0,1,3.11-1.28,3.69,3.69,0,0,1,3.16.79,1,1,0,0,1,.31.52.89.89,0,0,1-.29.65,4.56,4.56,0,0,1-1.85,1.18,10.31,10.31,0,0,1-5.58.49,5.15,5.15,0,0,1-1.19-.35c.09,2.17.33,4.34.5,6.52,0,.66.1,1.33.13,2,.3-.17.69-.33.87-.45.4-.27.78-.56,1.17-.85a10.22,10.22,0,0,1,2.91-1.68,3.7,3.7,0,0,1,3.23.37.87.87,0,0,1,.38.47.92.92,0,0,1-.19.69,4.54,4.54,0,0,1-1.69,1.41,10.2,10.2,0,0,1-5.47,1.21,5,5,0,0,1-1.17-.16c0,.76,0,1.52,0,2.29a20,20,0,0,1-.76,5.29,6.53,6.53,0,0,1-.3,1l.16-.1c.38-.29.75-.6,1.12-.91a9.81,9.81,0,0,1,2.82-1.82,3.64,3.64,0,0,1,3.25.2.88.88,0,0,1,.4.45.9.9,0,0,1-.16.7,4.7,4.7,0,0,1-1.61,1.49,10.27,10.27,0,0,1-5.4,1.49,5.12,5.12,0,0,1-1.17-.1l-.06.16a15,15,0,0,1-1.45,2.32,15.44,15.44,0,0,1-4,3.71c-.41.28-.84.54-1.27.79a9.24,9.24,0,0,1,3.06,0,3.69,3.69,0,0,1,2.62,1.93.73.73,0,0,1-.42,1.1,4.56,4.56,0,0,1-2.16.38,10.36,10.36,0,0,1-5.35-1.68c-.13-.09-.33-.22-.54-.38a45,45,0,0,1-5.79,2c-2.12.59-4.26,1.09-6.37,1.61l.8.12a10.32,10.32,0,0,1,3.24.88,3.68,3.68,0,0,1,2,2.55.89.89,0,0,1-.07.6.91.91,0,0,1-.62.35,4.61,4.61,0,0,1-2.18-.2,10.26,10.26,0,0,1-4.73-3,6.87,6.87,0,0,1-.58-.73c-.56.15-1.12.29-1.67.45-1.66.45-3.28,1.05-4.91,1.6l-2.56,1.05.49.05a10,10,0,0,1,3.29.67,3.66,3.66,0,0,1,2.18,2.41.94.94,0,0,1,0,.6.89.89,0,0,1-.6.39,4.51,4.51,0,0,1-2.19-.06,10.16,10.16,0,0,1-4.91-2.71,4.49,4.49,0,0,1-.38-.38l0,0a58.17,58.17,0,0,0-7.25,4l1.33,0a9.84,9.84,0,0,1,3.33.47,3.66,3.66,0,0,1,2.32,2.27.72.72,0,0,1-.57,1,4.63,4.63,0,0,1-2.19.07,10.14,10.14,0,0,1-5.06-2.4,6.49,6.49,0,0,1-.57-.54l-.28.19a51.31,51.31,0,0,0-7.89,6.67l-.36.4a4.28,4.28,0,0,0,.53.06c.48,0,1,0,1.44,0a10.19,10.19,0,0,1,3.35.28,3.67,3.67,0,0,1,2.45,2.13.92.92,0,0,1,0,.61.89.89,0,0,1-.55.45,4.59,4.59,0,0,1-2.18.21,10.32,10.32,0,0,1-5.2-2.11,6.22,6.22,0,0,1-.74-.65,49.72,49.72,0,0,0-5.17,6.8c-.84,1.51-1.74,3-2.43,4.59l-.56,1.18-.45,1.23c-.3.82-.65,1.62-.92,2.45l-.17-.05A42.94,42.94,0,0,1,570.37,448Z"/><text class="cls-9" transform="translate(113.38 76.55)">M<tspan class="cls-10" x="22.56" y="0">Á</tspan><tspan x="40.37" y="0">S DEL 80 % DE </tspan><tspan class="cls-11" x="222.09" y="0">L</tspan><tspan x="235.2" y="0">A PRODU</tspan><tspan class="cls-12" x="348.67" y="0">C</tspan><tspan x="365.04" y="0">CIÓN </tspan><tspan x="2.71" y="28.8">N</tspan><tspan class="cls-13" x="21.67" y="28.8">A</tspan><tspan x="39.17" y="28.8">CIONAL </tspan><tspan class="cls-14" x="138.38" y="28.8">se destina a satisfacer el consumo </tspan><tspan class="cls-14"><tspan x="-9.16" y="50.4">interno y sólo un pequeño porcentaje es designado a </tspan><tspan x="-4.52" y="72">la exportación, aunque es bastante representativo a </tspan><tspan x="1.41" y="93.6">nivel mundial. Se considera este último como el de </tspan><tspan x="-7.99" y="115.2">mayor exigencia tecnológica de acuerdo a las nuevas </tspan><tspan x="67.08" y="144">tendencias de los </tspan><tspan class="cls-15" x="217.65" y="144">MER</tspan><tspan class="cls-16" x="273.42" y="144">C</tspan><tspan class="cls-15" x="289.99" y="144">A</tspan><tspan class="cls-17" x="307.91" y="144">D</tspan><tspan class="cls-15" x="325.89" y="144">OS </tspan></tspan><tspan x="115.32" y="172.8">GLOBALIZA</tspan><tspan class="cls-18" x="254.88" y="172.8">D</tspan><tspan x="272.86" y="172.8">OS</tspan><tspan class="cls-14" x="307.34" y="172.8">.</tspan></text><path class="cls-19" d="M400.91,333.1a19.77,19.77,0,0,1-10.17-2.66,3,3,0,0,1-1.41-2.3c-.53-7.72,4.15-15.79,11.9-20.54s17.06-5.26,23.71-1.29a3,3,0,0,1,1.41,2.3c.52,7.72-4.15,15.78-11.9,20.54A26.17,26.17,0,0,1,400.91,333.1Zm-5.78-6.94c4.7,2,10.9,1.32,16.28-2s8.82-8.5,9.14-13.61c-4.7-2-10.9-1.32-16.28,2S395.45,321.06,395.13,326.16Z"/><path class="cls-19" d="M383.49,333.1a26.11,26.11,0,0,1-13.53-4c-7.76-4.76-12.43-12.82-11.9-20.54a2.9,2.9,0,0,1,1.41-2.3c6.65-4,15.95-3.47,23.7,1.29s12.43,12.82,11.9,20.54a2.9,2.9,0,0,1-1.41,2.3A19.77,19.77,0,0,1,383.49,333.1Zm-19.63-22.52c.31,5.11,3.76,10.31,9.14,13.61s11.57,4,16.27,2c-.31-5.1-3.76-10.31-9.14-13.6S368.56,308.54,363.86,310.58Z"/><path class="cls-19" d="M400.56,302.59a2.91,2.91,0,0,1-2.91-2.91v-7a2.91,2.91,0,0,1,5.82,0v7A2.91,2.91,0,0,1,400.56,302.59Z"/><path class="cls-19" d="M412.33,300.58a2.91,2.91,0,0,1-2.91-2.91v-3.19a2.91,2.91,0,0,1,5.82,0v3.19A2.91,2.91,0,0,1,412.33,300.58Z"/><path class="cls-19" d="M383.84,302.59a2.9,2.9,0,0,1-2.9-2.91v-7a2.91,2.91,0,0,1,5.81,0v7A2.91,2.91,0,0,1,383.84,302.59Z"/><path class="cls-19" d="M372.08,300.58a2.91,2.91,0,0,1-2.91-2.91v-3.19a2.91,2.91,0,1,1,5.81,0v3.19A2.9,2.9,0,0,1,372.08,300.58Z"/><path class="cls-19" d="M392.2,349.31a2.91,2.91,0,0,1-2.91-2.91V307.71a2.91,2.91,0,0,1,5.82,0V346.4A2.91,2.91,0,0,1,392.2,349.31Z"/><path class="cls-19" d="M476.54,333.1a19.77,19.77,0,0,1-10.17-2.66,2.9,2.9,0,0,1-1.41-2.3c-.53-7.72,4.14-15.79,11.9-20.54s17.06-5.26,23.7-1.29a2.9,2.9,0,0,1,1.41,2.3c.53,7.72-4.14,15.79-11.9,20.54A26.11,26.11,0,0,1,476.54,333.1Zm-5.78-6.94c4.69,2,10.9,1.33,16.27-2s8.82-8.5,9.14-13.61c-4.69-2-10.9-1.32-16.27,2S471.08,321.06,470.76,326.16Z"/><path class="cls-19" d="M459.12,333.1a26.17,26.17,0,0,1-13.54-4c-7.75-4.76-12.42-12.82-11.89-20.54a2.9,2.9,0,0,1,1.41-2.3c6.65-4,15.94-3.47,23.7,1.29s12.43,12.82,11.9,20.54a2.92,2.92,0,0,1-1.41,2.3A19.77,19.77,0,0,1,459.12,333.1Zm-19.63-22.52c.31,5.11,3.76,10.31,9.13,13.61s11.58,4,16.28,2c-.32-5.1-3.77-10.31-9.14-13.6S444.18,308.54,439.49,310.58Z"/><path class="cls-19" d="M476.19,302.59a2.91,2.91,0,0,1-2.91-2.91v-7a2.91,2.91,0,0,1,5.81,0v7A2.9,2.9,0,0,1,476.19,302.59Z"/><path class="cls-19" d="M488,300.58a2.9,2.9,0,0,1-2.9-2.91v-3.19a2.91,2.91,0,1,1,5.81,0v3.19A2.91,2.91,0,0,1,488,300.58Z"/><path class="cls-19" d="M459.47,302.59a2.91,2.91,0,0,1-2.91-2.91v-7a2.91,2.91,0,0,1,5.82,0v7A2.91,2.91,0,0,1,459.47,302.59Z"/><path class="cls-19" d="M447.7,300.58a2.91,2.91,0,0,1-2.91-2.91v-3.19a2.91,2.91,0,1,1,5.82,0v3.19A2.91,2.91,0,0,1,447.7,300.58Z"/><path class="cls-19" d="M467.83,349.31a2.91,2.91,0,0,1-2.91-2.91V307.71a2.91,2.91,0,0,1,5.82,0V346.4A2.91,2.91,0,0,1,467.83,349.31Z"/><path class="cls-19" d="M552.17,333.1A19.75,19.75,0,0,1,542,330.44a2.9,2.9,0,0,1-1.41-2.3c-.53-7.72,4.14-15.79,11.9-20.54s17.06-5.26,23.7-1.29a2.92,2.92,0,0,1,1.41,2.3c.53,7.72-4.14,15.78-11.9,20.54A26.14,26.14,0,0,1,552.17,333.1Zm-5.78-6.94c4.69,2,10.89,1.32,16.27-2s8.82-8.5,9.14-13.61c-4.7-2-10.9-1.32-16.27,2S546.7,321.06,546.39,326.16Z"/><path class="cls-19" d="M534.75,333.1a26.14,26.14,0,0,1-13.54-4c-7.76-4.76-12.43-12.82-11.9-20.54a3,3,0,0,1,1.41-2.3c6.65-4,15.95-3.47,23.7,1.29s12.43,12.82,11.9,20.54a2.91,2.91,0,0,1-1.4,2.3A19.8,19.8,0,0,1,534.75,333.1Zm-19.64-22.52c.32,5.11,3.77,10.31,9.14,13.61s11.58,4,16.27,2c-.31-5.1-3.76-10.31-9.14-13.6S519.81,308.55,515.11,310.58Z"/><path class="cls-19" d="M551.81,302.59a2.91,2.91,0,0,1-2.91-2.91v-7a2.91,2.91,0,0,1,5.82,0v7A2.91,2.91,0,0,1,551.81,302.59Z"/><path class="cls-19" d="M563.58,300.58a2.91,2.91,0,0,1-2.91-2.91v-3.19a2.91,2.91,0,1,1,5.82,0v3.19A2.91,2.91,0,0,1,563.58,300.58Z"/><path class="cls-19" d="M535.1,302.59a2.91,2.91,0,0,1-2.91-2.91v-7a2.91,2.91,0,0,1,5.82,0v7A2.91,2.91,0,0,1,535.1,302.59Z"/><path class="cls-19" d="M523.33,300.58a2.91,2.91,0,0,1-2.91-2.91v-3.19a2.91,2.91,0,1,1,5.82,0v3.19A2.91,2.91,0,0,1,523.33,300.58Z"/><path class="cls-19" d="M543.46,349.31a2.91,2.91,0,0,1-2.91-2.91V307.71a2.91,2.91,0,0,1,5.81,0V346.4A2.91,2.91,0,0,1,543.46,349.31Z"/><path class="cls-19" d="M574.73,349.31H533.64a2.91,2.91,0,1,1,0-5.82h41.09a2.91,2.91,0,1,1,0,5.82Z"/><path class="cls-19" d="M517.22,349.31H453.64a2.91,2.91,0,1,1,0-5.82h63.58a2.91,2.91,0,1,1,0,5.82Z"/><path class="cls-19" d="M408.55,349.31h-5.82a2.91,2.91,0,1,1,0-5.82h5.82a2.91,2.91,0,1,1,0,5.82Z"/><path class="cls-19" d="M434.73,349.31H421.64a2.91,2.91,0,1,1,0-5.82h13.09a2.91,2.91,0,0,1,0,5.82Z"/><path class="cls-19" d="M453.64,349.31h-5.82a2.91,2.91,0,1,1,0-5.82h5.82a2.91,2.91,0,1,1,0,5.82Z"/><path class="cls-19" d="M402.73,349.31h-41.8a2.91,2.91,0,0,1,0-5.82h41.8a2.91,2.91,0,1,1,0,5.82Z"/><path class="cls-19" d="M400.91,400a19.77,19.77,0,0,1-10.17-2.66,3,3,0,0,1-1.41-2.3c-.53-7.73,4.15-15.79,11.9-20.55s17.06-5.25,23.71-1.28a2.93,2.93,0,0,1,1.41,2.29c.52,7.73-4.15,15.79-11.9,20.55A26.17,26.17,0,0,1,400.91,400Zm-5.78-6.94c4.7,2,10.9,1.32,16.28-2s8.82-8.5,9.14-13.61c-4.7-2-10.9-1.32-16.28,2S395.45,388,395.13,393.07Z"/><path class="cls-19" d="M383.49,400A26.11,26.11,0,0,1,370,396.06c-7.76-4.76-12.43-12.82-11.9-20.55a2.88,2.88,0,0,1,1.41-2.29c6.65-4,15.95-3.47,23.7,1.28s12.43,12.82,11.9,20.55a2.9,2.9,0,0,1-1.41,2.3A19.77,19.77,0,0,1,383.49,400Zm-19.63-22.52c.31,5.11,3.76,10.31,9.14,13.61s11.57,4,16.27,2c-.31-5.1-3.76-10.31-9.14-13.61S368.56,375.45,363.86,377.49Z"/><path class="cls-19" d="M400.56,369.5a2.91,2.91,0,0,1-2.91-2.91v-7a2.91,2.91,0,0,1,5.82,0v7A2.91,2.91,0,0,1,400.56,369.5Z"/><path class="cls-19" d="M412.33,367.49a2.91,2.91,0,0,1-2.91-2.91v-3.19a2.91,2.91,0,0,1,5.82,0v3.19A2.91,2.91,0,0,1,412.33,367.49Z"/><path class="cls-19" d="M383.84,369.5a2.91,2.91,0,0,1-2.9-2.91v-7a2.91,2.91,0,1,1,5.81,0v7A2.91,2.91,0,0,1,383.84,369.5Z"/><path class="cls-19" d="M372.08,367.49a2.91,2.91,0,0,1-2.91-2.91v-3.19a2.91,2.91,0,1,1,5.81,0v3.19A2.9,2.9,0,0,1,372.08,367.49Z"/><path class="cls-19" d="M392.2,416.21a2.91,2.91,0,0,1-2.91-2.91V374.62a2.91,2.91,0,1,1,5.82,0V413.3A2.91,2.91,0,0,1,392.2,416.21Z"/><path class="cls-19" d="M476.54,400a19.77,19.77,0,0,1-10.17-2.66,2.9,2.9,0,0,1-1.41-2.3c-.53-7.73,4.14-15.79,11.9-20.55s17.06-5.25,23.7-1.28a2.87,2.87,0,0,1,1.41,2.3c.53,7.72-4.14,15.78-11.9,20.54A26.11,26.11,0,0,1,476.54,400Zm-5.78-6.94c4.69,2,10.9,1.32,16.27-2s8.82-8.5,9.14-13.61c-4.69-2-10.9-1.32-16.27,2S471.08,388,470.76,393.07Z"/><path class="cls-19" d="M459.12,400a26.17,26.17,0,0,1-13.54-3.95c-7.75-4.76-12.42-12.82-11.89-20.55a2.88,2.88,0,0,1,1.41-2.29c6.65-4,15.94-3.47,23.7,1.28s12.43,12.82,11.9,20.55a2.92,2.92,0,0,1-1.41,2.3A19.77,19.77,0,0,1,459.12,400Zm-19.63-22.52c.31,5.11,3.76,10.31,9.13,13.61s11.58,4,16.28,2c-.32-5.1-3.77-10.31-9.14-13.61S444.18,375.45,439.49,377.49Z"/><path class="cls-19" d="M476.19,369.5a2.91,2.91,0,0,1-2.91-2.91v-7a2.91,2.91,0,1,1,5.81,0v7A2.91,2.91,0,0,1,476.19,369.5Z"/><path class="cls-19" d="M488,367.49a2.9,2.9,0,0,1-2.9-2.91v-3.19a2.91,2.91,0,1,1,5.81,0v3.19A2.91,2.91,0,0,1,488,367.49Z"/><path class="cls-19" d="M459.47,369.5a2.91,2.91,0,0,1-2.91-2.91v-7a2.91,2.91,0,1,1,5.82,0v7A2.91,2.91,0,0,1,459.47,369.5Z"/><path class="cls-19" d="M447.7,367.49a2.91,2.91,0,0,1-2.91-2.91v-3.19a2.91,2.91,0,0,1,5.82,0v3.19A2.91,2.91,0,0,1,447.7,367.49Z"/><path class="cls-19" d="M467.83,416.21a2.91,2.91,0,0,1-2.91-2.91V374.62a2.91,2.91,0,0,1,5.82,0V413.3A2.91,2.91,0,0,1,467.83,416.21Z"/><path class="cls-19" d="M552.17,400A19.75,19.75,0,0,1,542,397.35a2.9,2.9,0,0,1-1.41-2.3c-.53-7.73,4.14-15.79,11.9-20.55s17.06-5.25,23.7-1.28a2.9,2.9,0,0,1,1.41,2.29c.53,7.73-4.14,15.79-11.9,20.55A26.14,26.14,0,0,1,552.17,400Zm-5.78-6.94c4.69,2,10.89,1.32,16.27-2s8.82-8.5,9.14-13.61c-4.7-2-10.9-1.32-16.27,2S546.7,388,546.39,393.07Z"/><path class="cls-19" d="M534.75,400a26.14,26.14,0,0,1-13.54-3.95c-7.76-4.76-12.43-12.82-11.9-20.55a2.93,2.93,0,0,1,1.41-2.29c6.65-4,15.95-3.47,23.7,1.28s12.43,12.82,11.9,20.55a2.91,2.91,0,0,1-1.4,2.3A19.8,19.8,0,0,1,534.75,400Zm-19.64-22.52c.32,5.11,3.77,10.31,9.14,13.61s11.58,4,16.27,2c-.31-5.1-3.76-10.31-9.14-13.61S519.81,375.45,515.11,377.49Z"/><path class="cls-19" d="M551.81,369.5a2.92,2.92,0,0,1-2.91-2.91v-7a2.91,2.91,0,0,1,5.82,0v7A2.91,2.91,0,0,1,551.81,369.5Z"/><path class="cls-19" d="M563.58,367.49a2.91,2.91,0,0,1-2.91-2.91v-3.19a2.91,2.91,0,1,1,5.82,0v3.19A2.91,2.91,0,0,1,563.58,367.49Z"/><path class="cls-19" d="M535.1,369.5a2.91,2.91,0,0,1-2.91-2.91v-7a2.91,2.91,0,1,1,5.82,0v7A2.91,2.91,0,0,1,535.1,369.5Z"/><path class="cls-19" d="M523.33,367.49a2.91,2.91,0,0,1-2.91-2.91v-3.19a2.91,2.91,0,1,1,5.82,0v3.19A2.91,2.91,0,0,1,523.33,367.49Z"/><path class="cls-19" d="M543.46,416.21a2.91,2.91,0,0,1-2.91-2.91V374.62a2.91,2.91,0,1,1,5.81,0V413.3A2.9,2.9,0,0,1,543.46,416.21Z"/><path class="cls-19" d="M574.73,416.21H535.1a2.91,2.91,0,1,1,0-5.81h39.63a2.91,2.91,0,1,1,0,5.81Z"/><path class="cls-19" d="M481.07,416.21h-5.82a2.91,2.91,0,1,1,0-5.81h5.82a2.91,2.91,0,1,1,0,5.81Z"/><path class="cls-19" d="M519.64,416.21H510a2.91,2.91,0,1,1,0-5.81h9.64a2.91,2.91,0,1,1,0,5.81Zm-19.29,0h-9.64a2.91,2.91,0,1,1,0-5.81h9.64a2.91,2.91,0,1,1,0,5.81Z"/><path class="cls-19" d="M535.1,416.21h-5.82a2.91,2.91,0,1,1,0-5.81h5.82a2.91,2.91,0,1,1,0,5.81Z"/><path class="cls-19" d="M475.25,416.21H447.7a2.91,2.91,0,1,1,0-5.81h27.55a2.91,2.91,0,1,1,0,5.81Z"/><path class="cls-19" d="M422.58,416.21H360.93a2.91,2.91,0,1,1,0-5.81h61.65a2.91,2.91,0,1,1,0,5.81Z"/><path class="cls-19" d="M574.73,436.83H542a2.91,2.91,0,0,1,0-5.82h32.78a2.91,2.91,0,0,1,0,5.82Z"/><path class="cls-19" d="M461.12,436.83H455.3a2.91,2.91,0,0,1,0-5.82h5.82a2.91,2.91,0,0,1,0,5.82Z"/><path class="cls-19" d="M525.41,436.83H514.7a2.91,2.91,0,0,1,0-5.82h10.71a2.91,2.91,0,1,1,0,5.82Zm-21.43,0H493.27a2.91,2.91,0,0,1,0-5.82H504a2.91,2.91,0,0,1,0,5.82Zm-21.43,0H471.84a2.91,2.91,0,0,1,0-5.82h10.71a2.91,2.91,0,0,1,0,5.82Z"/><path class="cls-19" d="M542,436.83h-5.82a2.91,2.91,0,1,1,0-5.82H542a2.91,2.91,0,0,1,0,5.82Z"/><path class="cls-19" d="M455.3,436.83H406.53a2.91,2.91,0,0,1,0-5.82H455.3a2.91,2.91,0,0,1,0,5.82Z"/><path class="cls-19" d="M381,436.83h-20a2.91,2.91,0,0,1,0-5.82h20a2.91,2.91,0,0,1,0,5.82Z"/><path class="cls-19" d="M574.73,457.61H541.32a2.91,2.91,0,0,1,0-5.82h33.41a2.91,2.91,0,0,1,0,5.82Z"/><path class="cls-19" d="M514.37,457.61h-44a2.91,2.91,0,1,1,0-5.82h44a2.91,2.91,0,0,1,0,5.82Z"/><path class="cls-19" d="M454.47,457.61H434.11a2.91,2.91,0,1,1,0-5.82h20.36a2.91,2.91,0,0,1,0,5.82Z"/><path class="cls-19" d="M381.54,457.61h-5.82a2.91,2.91,0,0,1,0-5.82h5.82a2.91,2.91,0,0,1,0,5.82Z"/><path class="cls-19" d="M418.94,457.61h-9.35a2.91,2.91,0,1,1,0-5.82h9.35a2.91,2.91,0,1,1,0,5.82Zm-18.7,0h-9.35a2.91,2.91,0,1,1,0-5.82h9.35a2.91,2.91,0,1,1,0,5.82Z"/><path class="cls-19" d="M434.11,457.61h-5.82a2.91,2.91,0,1,1,0-5.82h5.82a2.91,2.91,0,1,1,0,5.82Z"/><path class="cls-19" d="M375.72,457.61H360.93a2.91,2.91,0,0,1,0-5.82h14.79a2.91,2.91,0,0,1,0,5.82Z"/><path class="cls-5" d="M0,381.28S80.13,376,79.56,458H0Z"/><text class="cls-20" transform="translate(17.23 440.96)">3</text></svg>