<svg id="Capa_1" data-name="Capa 1" xmlns="http://www.w3.org/2000/svg" viewBox="0 0 674 458"><defs><style>.cls-1,.cls-19{fill:#fff;}.cls-2{fill:none;}.cls-3,.cls-5{fill:#ffe082;}.cls-3{opacity:0.24;}.cls-4,.cls-6{fill:#80cbc4;}.cls-4{opacity:0.1;}.cls-7{fill:#8d6e63;}.cls-17,.cls-8{font-size:18px;font-family:OpenSans, Open Sans;}.cls-10,.cls-11,.cls-12,.cls-13,.cls-14,.cls-15,.cls-9{fill:#0288d1;font-size:24px;}.cls-10,.cls-11,.cls-12,.cls-13,.cls-14,.cls-19,.cls-9{font-family:Montserrat-Medium, Montserrat;font-weight:500;}.cls-9{letter-spacing:0em;}.cls-11{letter-spacing:-0.01em;}.cls-12{letter-spacing:-0.02em;}.cls-13{letter-spacing:0.01em;}.cls-14{letter-spacing:-0.07em;}.cls-15{font-family:Montserrat-Regular, Montserrat;}.cls-16{letter-spacing:-0.01em;}.cls-17{fill:#000;}.cls-18{fill:#006064;}.cls-19{font-size:49.67px;}</style></defs><rect class="cls-1" width="674" height="458"/><rect class="cls-2" width="674" height="458"/><path class="cls-3" d="M562.64,178.22c-21.56-17.88-34.52-37.29-3.7-69.12s54.41-53.28,38.83-95.45a116.67,116.67,0,0,0-6-13.65H395c-41.6,16.87-83.73,29-118,18.26A109.65,109.65,0,0,1,242.29,0H38.5q-1.56,2.07-3.09,4.23C23.23,21.39,18.87,32.39,7.57,35.16A20.54,20.54,0,0,1,0,35.5v418c3.58.13,7.24.19,11,.16,113.67-.89,285.49.81,285.49.81,89.75.89,186.57,17.16,270-28.65,30.15-16.55,56.81-42.09,71.6-74.95,19.54-43.4,13-97.93-12.8-137C608.06,187.86,583.28,195.36,562.64,178.22Z"/><path class="cls-4" d="M674,332.5c-10.8-7-26.69-4.86-37.6,3.53-11.8,9.08-8.82,15.79-23.06,14.64-3.89-.31-8.06-2.35-9.55-6.43-2-5.52,1.63-11.37,4.64-16.26,9.13-14.89,8.42-30.52,6.34-48.48S595.4,250.1,581.06,242s-33.13-5.94-44.75,6.53c-7.93,8.52-12,20.55-17.67,31.11S504,300.28,493,300c-13.23-.3-32.1-15.11-34.55-29.81s-.47-30-3-44.71c-4.84-27.75-25.85-46.86-50.85-46.74s-50.65,20.76-51.79,49c-.63,15.38,8.44,45.29.84,58.07-6.87,11.55-22.49,18.13-33.31,12.23-29-15.85-45.86-.59-51.46,18.53-6.26,21.4-6.51,39.59-.7,61.37s18.6,39.05,32.95,55C323,457.28,365.34,454,370,453.87c87.5-1.76,130.82-5.3,218.28-1.91,35.27,1.37,64.65-27.12,85.74-62.08Z"/><path class="cls-5" d="M352.31,363.89a65.65,65.65,0,0,1-16.22-21.95A63.43,63.43,0,0,1,332,330a62.76,62.76,0,0,1-1.22-7.06c-.23-2,0-4.26-.62-6.18-.09-.27-.44-.19-.51,0-.53,1.91,0,4.25.19,6.21a62.94,62.94,0,0,0,1.13,6.54,64.29,64.29,0,0,0,4.66,13.4,63,63,0,0,0,6.84,11.22,60.56,60.56,0,0,0,9.82,9.78s.08,0,.05,0Z"/><path class="cls-5" d="M346,357.86a6.28,6.28,0,0,1-2.65,0,27.69,27.69,0,0,0-6.82-2.21,2.33,2.33,0,0,0-1.59.16,1.06,1.06,0,0,0-.19,1.14,2.17,2.17,0,0,0,.78.84c3.14,2.16,6.7,1,10.59.47Z"/><path class="cls-5" d="M341.72,352.08a12.1,12.1,0,0,1-2.85.28c-2.35-.65-3-1.85-6.66-2.94a2.46,2.46,0,0,0-1.75.06,1.34,1.34,0,0,0-.46,1.28,2,2,0,0,0,.66,1c2.93,2.73,9.14,1.7,11.14.79Z"/><path class="cls-5" d="M338.58,347a3,3,0,0,1-2.55-.48c-3.17-2.43-3-2.78-6.84-4.76-.42-.22-1.42-.58-1.88-.35a1.25,1.25,0,0,0-.6,1.25,2.53,2.53,0,0,0,.62,1.23c2.89,3.55,7.73,3.81,11.47,3.58Z"/><path class="cls-5" d="M335.49,341.1c.36-.05-2.08-1-3.31-2.17-3.68-3.22-3-4.11-6.59-6.67-.4-.29-1.36-.8-1.84-.64a1.23,1.23,0,0,0-.76,1.17,2.55,2.55,0,0,0,.47,1.33c2.46,4,7.43,5.63,12,7Z"/><path class="cls-5" d="M332.47,332.35c.33-.06-1.74-.28-2.77-1.41-2.76-2.08-2.5-3.72-5.57-6.07-.34-.26-1.17-.72-1.62-.54a1.36,1.36,0,0,0-.77,1.15,2.39,2.39,0,0,0,.34,1.27c2,3.77,8.38,6.31,10.39,5.6Z"/><path class="cls-5" d="M330.69,325.64c.31,0-.92-.72-1.65-1.7-1.68-2.34-2.1-3.32-4.47-5.36a1.91,1.91,0,0,0-1.39-.49,1.55,1.55,0,0,0-.93,1,1.68,1.68,0,0,0,.06,1.07c1.06,3.22,4.84,4.48,8.38,5.52Z"/><path class="cls-5" d="M330.29,320.41c.27.08-.84-.69-1.21-1.82-1.22-2.38-.44-3.41-1.79-5.84-.15-.27-.6-.82-1-.88a1.14,1.14,0,0,0-1,.41,1.33,1.33,0,0,0-.24.85c0,2.87,2.68,5.21,5.24,7.28Z"/><path class="cls-5" d="M347.47,359.27c-.26.14,1-.89,1.14-2.12a22.13,22.13,0,0,1,1-6.26c.1-.34.45-1.06.84-1.2a1.12,1.12,0,0,1,1.11.27,1.67,1.67,0,0,1,.41.93c.56,3.31-2,5.73-4.25,8.61Z"/><path class="cls-5" d="M343.23,354.12A11.22,11.22,0,0,0,345,352c.73-2.22.07-3.36,1.13-6.86.12-.39.53-1.22,1-1.39a1.4,1.4,0,0,1,1.33.29,1.84,1.84,0,0,1,.5,1.06c.71,3.75-3.51,8.23-5.36,9.37Z"/><path class="cls-5" d="M339.41,348.78a2.78,2.78,0,0,0,1.3-2c.22-3.51-.14-3.6.85-7.3.11-.41.49-1.29,1-1.47a1.33,1.33,0,0,1,1.34.29,2,2,0,0,1,.52,1.1c.81,3.93-2.15,7.37-4.76,9.79Z"/><path class="cls-5" d="M335.56,341.89c-.33.11,1.3-1.57,1.74-3,1.51-3.93.49-4.32,2.24-7.72.2-.38.76-1.16,1.26-1.24a1.37,1.37,0,0,1,1.25.57,2,2,0,0,1,.27,1.19c-.06,4-3.5,7.29-6.76,10.2Z"/><path class="cls-5" d="M332.93,334.82c-.32.09,1.37-.93,1.72-2.25,1.39-2.77.36-3.95,1.88-7.07.17-.34.67-1,1.15-1.09a1.47,1.47,0,0,1,1.23.59,2,2,0,0,1,.32,1.13c.14,3.78-4.21,8.42-6.3,8.69Z"/><path class="cls-5" d="M331,327.41c-.31.07.58-1,.9-2.19.69-2.79.72-3.86,2.16-6.63.16-.31.65-.93,1.11-1a1.51,1.51,0,0,1,1.22.54,1.77,1.77,0,0,1,.35,1c.21,3.38-2.84,5.95-5.74,8.23Z"/><path class="cls-5" d="M330.24,321.07c-.26.12.75-.73.93-1.74.83-2.2-.16-2.93.8-5.2a1.79,1.79,0,0,1,.86-.91,1.4,1.4,0,0,1,1.12.16,1.05,1.05,0,0,1,.41.67c.54,2.39-1.84,4.83-4.12,7Z"/><path class="cls-6" d="M397.64,441.89a58.15,58.15,0,0,0-9.31-5.75,5.43,5.43,0,0,0,0-1.13c-.08-.67-.42-1.69-.47-2.36A14.09,14.09,0,0,0,387,428a5.23,5.23,0,0,0-3.39-3.12,1,1,0,0,0-1.41.89,6.59,6.59,0,0,0,.06,3.09c.52,2.37,2.16,4.43,3.84,6.23a65.45,65.45,0,0,0-12.15-3.91,5,5,0,0,0-.05-.91c-.12-.67-.52-1.67-.61-2.34a14.25,14.25,0,0,0-1.18-4.6,5.2,5.2,0,0,0-3.56-2.91,1.24,1.24,0,0,0-.85.09,1.32,1.32,0,0,0-.51.88,6.58,6.58,0,0,0,.24,3.08c.7,2.48,2.63,4.55,4.53,6.31a67.23,67.23,0,0,0-9.91-1.1,5.86,5.86,0,0,0,0-1.34c-.12-.67-.52-1.66-.61-2.34a14.25,14.25,0,0,0-1.18-4.6,5.23,5.23,0,0,0-3.56-2.91,1.3,1.3,0,0,0-.85.09,1.28,1.28,0,0,0-.5.88,6.5,6.5,0,0,0,.23,3.09c.73,2.57,2.8,4.72,4.77,6.52a3.53,3.53,0,0,1,.45.56c-1.86-.05-3.73,0-5.59.09-2.15.18-4.29.32-6.42.7-.65.09-1.29.21-1.93.32,0-.13,0-.25-.06-.34-.16-.66-.62-1.63-.76-2.29a14.2,14.2,0,0,0-1.47-4.52,5.18,5.18,0,0,0-3.74-2.67,1.21,1.21,0,0,0-.84.14,1.25,1.25,0,0,0-.45.9,6.46,6.46,0,0,0,.44,3.07c.85,2.45,2.94,4.4,5,6-2.92.55-5.79,1.17-8.67,1.62a59.59,59.59,0,0,1-7,.76,6.1,6.1,0,0,0,.36-1.28c.08-.67,0-1.74.11-2.41a14.29,14.29,0,0,0,.22-4.74,5.16,5.16,0,0,0-2.55-3.83,1.22,1.22,0,0,0-.83-.17,1.26,1.26,0,0,0-.74.69,6.53,6.53,0,0,0-.69,3c-.06,2.68,1.29,5.34,2.64,7.64a8.26,8.26,0,0,1,.42,1.1,26.67,26.67,0,0,1-4.28-.26,18.53,18.53,0,0,1-5.79-1.77A15.29,15.29,0,0,1,315.7,430a5.72,5.72,0,0,0,1.06-1.09c.38-.56.79-1.55,1.2-2.1a14,14,0,0,0,2.37-4.11,5.17,5.17,0,0,0-.51-4.57,1.27,1.27,0,0,0-.66-.53,1.31,1.31,0,0,0-1,.27,6.49,6.49,0,0,0-2,2.38c-1.28,2.35-1.3,5.33-1.15,8a7.45,7.45,0,0,1-.13,1.11,11.81,11.81,0,0,1-1.66-1.58,26.7,26.7,0,0,1-4.65-7.63.76.76,0,0,0,.18-.06,5.48,5.48,0,0,0,1.38-1.1c.44-.51,1-1.45,1.42-2a14.18,14.18,0,0,0,2.81-3.83,5.2,5.2,0,0,0,0-4.6,1.25,1.25,0,0,0-.6-.6,1.27,1.27,0,0,0-1,.16,6.49,6.49,0,0,0-2.24,2.15c-1.53,2.2-1.87,5.16-2,7.83a10.84,10.84,0,0,1-.26,1.18c-.34-.82-.66-1.64-1-2.47-.95-2.6-1.85-5.23-2.88-7.83h0a5.71,5.71,0,0,0,1.38-1.1c.44-.51,1-1.45,1.41-1.95a14.33,14.33,0,0,0,2.81-3.83,5.17,5.17,0,0,0,0-4.6,1.25,1.25,0,0,0-.6-.6,1.27,1.27,0,0,0-1,.16,6.49,6.49,0,0,0-2.24,2.15c-1.53,2.2-1.87,5.16-2,7.83a4.78,4.78,0,0,1-.19.89c-.42-1-.86-2-1.35-3l-.78-1.41-.39-.7-.46-.67c-.31-.44-.61-.89-.93-1.32L299,399.64a5.15,5.15,0,0,0-.64-.68,16.56,16.56,0,0,0,.82-1.87c.25-.63.52-1.25.79-1.87a14.16,14.16,0,0,0,1.37-4.55,5.16,5.16,0,0,0-1.55-4.33A1.3,1.3,0,0,0,299,386a1.32,1.32,0,0,0-.89.49,6.54,6.54,0,0,0-1.39,2.77,13.66,13.66,0,0,0,.4,7.67,8.37,8.37,0,0,1,.15,1.1q-.33-.3-.69-.57a17.32,17.32,0,0,0-2.8-1.71,20.53,20.53,0,0,0-5.61-1.74c-.06-.51-.32-1.23-.36-1.59-.08-.68-.13-1.36-.18-2a14.14,14.14,0,0,0-.91-4.66,5.19,5.19,0,0,0-3.39-3.11,1.18,1.18,0,0,0-.85,0,1.28,1.28,0,0,0-.56.84,6.64,6.64,0,0,0,.06,3.1,14.6,14.6,0,0,0,3.78,7l.14.14a41.7,41.7,0,0,0-4.87-.15c-1.48,0-2.95.15-4.42.26-.1-.41-.24-.85-.27-1.11-.08-.67-.12-1.35-.17-2a14.45,14.45,0,0,0-.91-4.66,5.24,5.24,0,0,0-3.39-3.11,1.3,1.3,0,0,0-.85,0,1.27,1.27,0,0,0-.56.85,6.59,6.59,0,0,0,.06,3.09,14.51,14.51,0,0,0,3.78,7l.13.14c-2,.18-4.06.37-6.07.48-1.21.06-2.43.09-3.64.07,0-.4,0-.81,0-1,.09-.67.22-1.34.35-2a14.05,14.05,0,0,0,.3-4.74,5.18,5.18,0,0,0-2.48-3.87,1.26,1.26,0,0,0-.84-.18,1.24,1.24,0,0,0-.75.67,6.53,6.53,0,0,0-.73,3,14.54,14.54,0,0,0,1.88,7.71c.06.09.13.23.21.37a22.59,22.59,0,0,1-6.48-1.33A18.11,18.11,0,0,1,253,391.5c.24-.37.46-1,.63-1.29.3-.5.64-1,1-1.46a12,12,0,0,0,1.86-3.61,4.45,4.45,0,0,0-.62-3.89,1.1,1.1,0,0,0-.59-.43,1.13,1.13,0,0,0-.82.27,5.55,5.55,0,0,0-1.61,2.12,12.42,12.42,0,0,0-1.16,6.68,7.29,7.29,0,0,0,.1.76c-.25-.19-.51-.37-.75-.56a24.8,24.8,0,0,1-4.19-4.54c-.14-.19-.26-.39-.39-.58.15-.29.3-.7.41-.88.23-.38.49-.74.73-1.11a9.23,9.23,0,0,0,1.42-2.75,3.37,3.37,0,0,0-.47-3,.67.67,0,0,0-1.08-.12,4.23,4.23,0,0,0-1.22,1.61,9.41,9.41,0,0,0-.91,4.55,92.46,92.46,0,0,1-4.73-8.72l-.21.09c.75,2,1.54,3.95,2.43,5.89.6,1.3,1.25,2.59,2,3.85h-.16c-.44,0-.88,0-1.32-.05a9.4,9.4,0,0,0-3.09.21,3.39,3.39,0,0,0-2.29,1.94.81.81,0,0,0,0,.55.8.8,0,0,0,.5.43,4.15,4.15,0,0,0,2,.21,9.39,9.39,0,0,0,4.81-1.88,3.5,3.5,0,0,0,.3-.23l.38.6a26.43,26.43,0,0,0,4.18,5c.21.19.44.36.65.54a3.22,3.22,0,0,1-.44.08c-.57.06-1.16.08-1.74.11a12.26,12.26,0,0,0-4,.68,4.47,4.47,0,0,0-2.74,2.84,1.07,1.07,0,0,0,0,.73,1,1,0,0,0,.71.49,5.52,5.52,0,0,0,2.65,0,12.48,12.48,0,0,0,6-3.09,8.94,8.94,0,0,0,.81-.86,17.85,17.85,0,0,0,3.61,2,22.17,22.17,0,0,0,5,1.37l-.28.05a12.48,12.48,0,0,0-3.89,1.2,4.44,4.44,0,0,0-2.34,3.16,1.08,1.08,0,0,0,.11.73,1.09,1.09,0,0,0,.77.39,5.39,5.39,0,0,0,2.63-.33,12.44,12.44,0,0,0,5.6-3.84,7.33,7.33,0,0,0,.74-1c1.52.07,3,.06,4.52,0s2.8-.18,4.19-.3a11.85,11.85,0,0,0-3.16,2.4,4.44,4.44,0,0,0-1.13,3.77,1.1,1.1,0,0,0,.35.64,1.11,1.11,0,0,0,.86.12,5.66,5.66,0,0,0,2.36-1.21,12.44,12.44,0,0,0,4-5.52c0-.13.11-.31.17-.52,1.69-.16,3.38-.32,5.06-.42a44.89,44.89,0,0,1,4.78-.07h0c-.49.32-1,.61-1.5.9a12,12,0,0,0-3.25,2.45,4.43,4.43,0,0,0-1.12,3.77,1,1,0,0,0,.35.64,1.06,1.06,0,0,0,.86.11,5.58,5.58,0,0,0,2.36-1.2,12.54,12.54,0,0,0,3.95-5.52,9.55,9.55,0,0,0,.31-1,19.19,19.19,0,0,1,5.43,1.38,16,16,0,0,1,2.7,1.46c.36.24.69.53,1,.81-.36.15-.74.34-1,.41-.56.17-1.13.3-1.69.44a12.16,12.16,0,0,0-3.8,1.45,4.43,4.43,0,0,0-2.13,3.31,1,1,0,0,0,.15.71,1.1,1.1,0,0,0,.8.35,5.45,5.45,0,0,0,2.6-.5,12.52,12.52,0,0,0,5.34-4.2A7.56,7.56,0,0,0,298,400a3.31,3.31,0,0,1,.33.32l1.06,1.13c.32.41.62.83.93,1.25l.46.63.4.67.8,1.35c.56,1.08,1.06,2.2,1.53,3.33-.44,0-1.11.09-1.42.07-.58,0-1.16-.09-1.74-.15a12.62,12.62,0,0,0-4.07.1,4.47,4.47,0,0,0-3.11,2.41,1,1,0,0,0-.09.73,1.11,1.11,0,0,0,.63.59,5.58,5.58,0,0,0,2.63.4,12.42,12.42,0,0,0,6.42-2.19,5.84,5.84,0,0,0,1.15-1c.95,2.45,1.75,5,2.62,7.47.27.76.54,1.52.83,2.27-.41,0-.93,0-1.19-.08-.57-.1-1.14-.24-1.7-.37a12.07,12.07,0,0,0-4-.44,4.46,4.46,0,0,0-3.41,2,1,1,0,0,0-.18.7,1.07,1.07,0,0,0,.55.67,5.63,5.63,0,0,0,2.55.74,12.43,12.43,0,0,0,6.66-1.33,5.93,5.93,0,0,0,1.2-.74c.33.85.71,1.7,1.08,2.55a24.11,24.11,0,0,0,3.42,5.49,9.2,9.2,0,0,0,.82.94l-.23,0c-.57-.13-1.13-.3-1.68-.46a12.3,12.3,0,0,0-4-.64,4.44,4.44,0,0,0-3.5,1.8,1.06,1.06,0,0,0-.22.7,1.15,1.15,0,0,0,.51.7,5.7,5.7,0,0,0,2.51.86,12.41,12.41,0,0,0,6.72-1,6.57,6.57,0,0,0,1.24-.68l.15.15a18.24,18.24,0,0,0,2.73,1.86,18.67,18.67,0,0,0,6.22,2.17c.59.11,1.19.19,1.79.25a11.31,11.31,0,0,0-3.37,1.53,4.45,4.45,0,0,0-2,3.42,1.06,1.06,0,0,0,.19.7,1.08,1.08,0,0,0,.81.31,5.57,5.57,0,0,0,2.58-.64,12.42,12.42,0,0,0,5.11-4.47c.1-.16.26-.4.4-.67a55.12,55.12,0,0,0,7.4-.62c2.63-.38,5.24-.87,7.83-1.32l-.82.52a12.46,12.46,0,0,0-3.16,2.56,4.45,4.45,0,0,0-1,3.81,1.12,1.12,0,0,0,.37.63,1.09,1.09,0,0,0,.87.08,5.48,5.48,0,0,0,2.32-1.28,12.4,12.4,0,0,0,3.76-5.65A8.06,8.06,0,0,0,347,433c.68-.11,1.37-.22,2.06-.31,2.06-.31,4.15-.44,6.22-.62,1.12,0,2.23-.07,3.35-.08l-.51.28a12,12,0,0,0-3.32,2.35,4.46,4.46,0,0,0-1.25,3.74,1.13,1.13,0,0,0,.33.65,1.17,1.17,0,0,0,.86.14,5.67,5.67,0,0,0,2.4-1.14,12.47,12.47,0,0,0,4.12-5.39c.05-.15.14-.37.22-.61h0a71.06,71.06,0,0,1,10,.91c-.48.25-1,.47-1.46.7a12.25,12.25,0,0,0-3.45,2.14,4.43,4.43,0,0,0-1.47,3.66,1.05,1.05,0,0,0,.29.67,1.08,1.08,0,0,0,.84.19,5.57,5.57,0,0,0,2.46-1,12.35,12.35,0,0,0,4.45-5.13,7.77,7.77,0,0,0,.36-.88l.41.08a61.94,61.94,0,0,1,12,3.54l.6.26a4.16,4.16,0,0,1-.55.33c-.53.24-1.08.45-1.62.66a11.89,11.89,0,0,0-3.57,1.94,4.42,4.42,0,0,0-1.68,3.56,1.06,1.06,0,0,0,.25.69,1.1,1.1,0,0,0,.83.24,5.76,5.76,0,0,0,2.52-.84,12.51,12.51,0,0,0,4.73-4.87,7.51,7.51,0,0,0,.5-1.08,58.67,58.67,0,0,1,9,5,61.6,61.6,0,0,1,4.93,3.9l1.2,1,1.1,1.13c.73.76,1.51,1.47,2.21,2.27l.17-.14A52.07,52.07,0,0,0,397.64,441.89Z"/><path class="cls-7" d="M575.72,372.76A60.35,60.35,0,0,0,598,364.13a54.53,54.53,0,0,0,8.59-6.72,51.68,51.68,0,0,0,4.16-4.48c1.09-1.33,2-3,3.29-4.12a.24.24,0,0,1,.37.25c-.47,1.59-1.91,3-3,4.33A55.3,55.3,0,0,1,598,365.05a57.53,57.53,0,0,1-10.31,5,56.48,56.48,0,0,1-11.92,2.73s-.05,0,0-.05Z"/><path class="cls-7" d="M583.25,371.18a5.39,5.39,0,0,0,2,1.11,26.72,26.72,0,0,1,6.18,1.35c.33.12,1,.46,1.13.8a.84.84,0,0,1-.38.89,1.9,1.9,0,0,1-1,.26c-3.37.19-5.56-2.13-8.24-4.2Z"/><path class="cls-7" d="M589.14,368.92a10.67,10.67,0,0,0,2,1.41c2.08.55,3.12,0,6.39.77.36.09,1.14.4,1.3.79a1,1,0,0,1-.24,1.11,1.77,1.77,0,0,1-1,.44c-3.46.69-7.7-2.7-8.8-4.2Z"/><path class="cls-7" d="M593.83,366.67a2.76,2.76,0,0,0,2.16.75c3.51-.37,3.56-.68,7.36-.46.42,0,1.34.21,1.58.56a1,1,0,0,1-.12,1.15,2.18,2.18,0,0,1-1,.6c-3.81,1.28-7.59-.6-10.32-2.37Z"/><path class="cls-7" d="M598.88,363.8c-.25-.19,2,.22,3.5-.12,4.26-.71,4.16-1.63,8-1.92a2.71,2.71,0,0,1,1.68.34,1,1,0,0,1,0,1.15,2.23,2.23,0,0,1-1,.75c-3.7,1.79-8.21.81-12.31-.2Z"/><path class="cls-7" d="M605.17,358.89c-.22-.19,1.45.54,2.75.18,3-.29,3.59-1.57,7-1.92.37,0,1.22,0,1.48.31a1.07,1.07,0,0,1,.05,1.14,2.05,2.05,0,0,1-.84.76c-3.2,1.84-9.23.89-10.43-.47Z"/><path class="cls-7" d="M609.59,354.89c-.22-.17,1-.12,2-.5a21.29,21.29,0,0,1,5.84-1.89,1.74,1.74,0,0,1,1.28.25,1.24,1.24,0,0,1,.27,1.08,1.4,1.4,0,0,1-.54.73c-2.27,1.83-5.71,1.11-8.87.33Z"/><path class="cls-7" d="M612.28,351.35c-.25-.06,1-.13,1.75-.77,2-1.17,1.89-2.23,4-3.38a1.78,1.78,0,0,1,1.15-.2,1,1,0,0,1,.58.72,1.1,1.1,0,0,1-.21.71c-1.3,2.05-4.41,2.55-7.3,2.92Z"/><path class="cls-7" d="M581.5,371.56a4.05,4.05,0,0,1,.1-2,17.61,17.61,0,0,0,2.08-4.88,1.59,1.59,0,0,0-.09-1.21,1,1,0,0,0-1-.28,1.58,1.58,0,0,0-.74.49c-1.93,2.1-1.08,4.92-.72,7.92Z"/><path class="cls-7" d="M587.06,369.72a8.81,8.81,0,0,1-.36-2.28c.46-1.9,1.48-2.42,2.27-5.36a1.88,1.88,0,0,0-.12-1.41,1.29,1.29,0,0,0-1.14-.36,1.66,1.66,0,0,0-.86.53c-2.25,2.36-1.1,7.34-.22,8.94Z"/><path class="cls-7" d="M592.4,367.57a2.18,2.18,0,0,1-.07-2c1.44-2.59,1.75-2.5,2.7-5.54a2,2,0,0,0-.06-1.46,1.24,1.24,0,0,0-1.14-.37,1.83,1.83,0,0,0-.91.56c-2.4,2.45-1.74,6.15-.86,9Z"/><path class="cls-7" d="M598.46,364.33c.21.22-.26-1.67.06-2.87.65-3.44,1.61-3.28,1.83-6.44a2,2,0,0,0-.39-1.41,1.21,1.21,0,0,0-1.2-.13,1.69,1.69,0,0,0-.75.72c-1.79,2.88-.68,6.67.45,10.13Z"/><path class="cls-7" d="M603.69,360.44c.21.2-.61-1.25-.27-2.33.21-2.56,1.53-3,1.8-5.82,0-.31,0-1-.37-1.27a1.37,1.37,0,0,0-1.2-.1,1.71,1.71,0,0,0-.76.66c-1.84,2.62-.66,7.78.8,8.86Z"/><path class="cls-7" d="M608.53,356c.21.18,0-1,.32-1.94.75-2.28,1.22-3.05,1.4-5.63a1.51,1.51,0,0,0-.4-1.16,1.37,1.37,0,0,0-1.9.44c-1.7,2.3-.57,5.43.58,8.29Z"/><path class="cls-7" d="M612,351.84c.15.2-.23-.84.1-1.63.38-1.92,1.46-2,1.77-4a1.43,1.43,0,0,0-.24-1,1.27,1.27,0,0,0-.92-.36.91.91,0,0,0-.61.3c-1.51,1.47-.82,4.21-.1,6.74Z"/><path class="cls-6" d="M566.07,447.43a49.37,49.37,0,0,1,5.49-7.46,5.11,5.11,0,0,1-.42-.85c-.17-.53-.26-1.42-.46-1.95a11.26,11.26,0,0,1-.93-3.83,4.19,4.19,0,0,1,1.64-3.49.93.93,0,0,1,1.45.2,5.11,5.11,0,0,1,1.06,2.36,10.92,10.92,0,0,1-.89,6,57.16,57.16,0,0,1,8.45-7,4.41,4.41,0,0,1-.28-.7c-.14-.55-.18-1.44-.34-2a10.81,10.81,0,0,1-.69-3.88,4.22,4.22,0,0,1,1.85-3.39,1.16,1.16,0,0,1,.72-.22,1.13,1.13,0,0,1,.72.49,5.22,5.22,0,0,1,.91,2.43c.32,2.1-.51,4.32-1.42,6.29a59.76,59.76,0,0,1,7.63-4.15,5.5,5.5,0,0,1-.45-1c-.14-.55-.17-1.43-.34-2a11.1,11.1,0,0,1-.68-3.88,4.23,4.23,0,0,1,1.84-3.4,1.25,1.25,0,0,1,.72-.22,1.18,1.18,0,0,1,.72.5,5.15,5.15,0,0,1,.91,2.42c.33,2.2-.58,4.51-1.53,6.54a2.79,2.79,0,0,0-.17.57c1.49-.66,3-1.22,4.56-1.8,1.81-.57,3.6-1.19,5.45-1.61.56-.15,1.12-.27,1.68-.41a1.54,1.54,0,0,1-.07-.27c-.11-.55-.08-1.44-.21-2a11.33,11.33,0,0,1-.42-3.91,4.29,4.29,0,0,1,2.08-3.28.95.95,0,0,1,1.42.36,5.16,5.16,0,0,1,.74,2.47c.18,2.14-.82,4.32-1.87,6.24,2.55-.56,5.1-1.05,7.6-1.66a56.46,56.46,0,0,0,5.94-1.77,4.63,4.63,0,0,1-.74-.85c-.31-.48-.62-1.32-1-1.79a11.49,11.49,0,0,1-1.87-3.52,4.06,4.06,0,0,1,.69-3.75.94.94,0,0,1,1.47-.13,5.55,5.55,0,0,1,1.63,2.06c1,2,.86,4.47.59,6.67a5.88,5.88,0,0,0,.05,1,24.94,24.94,0,0,0,3.37-1.63,15.86,15.86,0,0,0,4.06-3.28,11.76,11.76,0,0,0,1.41-1.89,5.78,5.78,0,0,1-1.25-.47c-.51-.3-1.19-.91-1.72-1.19a12.56,12.56,0,0,1-3.38-2.33,4.11,4.11,0,0,1-1.22-3.63,1,1,0,0,1,.35-.63,1.28,1.28,0,0,1,.89-.12,6,6,0,0,1,2.46,1.14c1.87,1.35,2.95,3.61,3.79,5.68a5.41,5.41,0,0,0,.49.8,8.82,8.82,0,0,0,.78-1.75,20.83,20.83,0,0,0,1-7.34l-.17,0a5.21,5.21,0,0,1-1.51-.37c-.54-.24-1.29-.79-1.85-1a12.74,12.74,0,0,1-3.63-2,4.17,4.17,0,0,1-1.63-3.49,1,1,0,0,1,.28-.65,1.17,1.17,0,0,1,.86-.21,6,6,0,0,1,2.58.88c2,1.15,3.35,3.28,4.42,5.26a6.39,6.39,0,0,0,.64.81c0-.73-.06-1.46-.11-2.19-.15-2.29-.37-4.59-.46-6.9h0a5.16,5.16,0,0,1-1.51-.38c-.54-.24-1.3-.78-1.85-1a12.93,12.93,0,0,1-3.64-2,4.19,4.19,0,0,1-1.62-3.49,1,1,0,0,1,.27-.66,1.18,1.18,0,0,1,.87-.21,6,6,0,0,1,2.57.88c2,1.16,3.36,3.29,4.43,5.27a3.56,3.56,0,0,0,.47.6c0-.9,0-1.8,0-2.7l.13-1.33.07-.66.13-.66c.1-.44.17-.88.28-1.31l.43-1.29a6.39,6.39,0,0,1,.27-.73,16.08,16.08,0,0,1-1.32-1.14c-.43-.4-.87-.78-1.32-1.16a12.22,12.22,0,0,1-2.72-3,4.09,4.09,0,0,1-.3-3.8,1.08,1.08,0,0,1,.5-.53,1.2,1.2,0,0,1,.89.07,5.75,5.75,0,0,1,2.12,1.63,11,11,0,0,1,2.41,5.95,6.6,6.6,0,0,0,.27.88c.11-.22.22-.45.35-.66a14.25,14.25,0,0,1,1.67-2.23,17.56,17.56,0,0,1,3.92-3.19c-.13-.41-.18-1-.28-1.33-.17-.54-.38-1.07-.58-1.6a11,11,0,0,1-.92-3.83,4.2,4.2,0,0,1,1.63-3.49,1.24,1.24,0,0,1,.71-.26,1.15,1.15,0,0,1,.75.46,5.31,5.31,0,0,1,1.06,2.37,11.36,11.36,0,0,1-.58,6.54l-.06.15a35.45,35.45,0,0,1,3.89-1.73c1.22-.47,2.44-.88,3.67-1.28a7.71,7.71,0,0,0-.18-.93c-.17-.54-.38-1.07-.58-1.6a11,11,0,0,1-.92-3.83,4.16,4.16,0,0,1,1.63-3.49,1.17,1.17,0,0,1,.71-.26,1.11,1.11,0,0,1,.75.46,5.32,5.32,0,0,1,1.06,2.36,11.38,11.38,0,0,1-.58,6.55l-.06.15c1.72-.55,3.42-1.08,5.09-1.67,1-.35,2-.74,3-1.16-.15-.3-.28-.62-.39-.79-.32-.47-.66-.93-1-1.4a11.56,11.56,0,0,1-1.94-3.49,4.07,4.07,0,0,1,.63-3.76,1.13,1.13,0,0,1,.61-.42,1.22,1.22,0,0,1,.86.26,5.57,5.57,0,0,1,1.66,2,11.46,11.46,0,0,1,1.23,6.47c0,.09,0,.21-.05.35a20.08,20.08,0,0,0,4.78-3.17,15.91,15.91,0,0,0,2-2.3c-.32-.2-.73-.62-1-.77-.42-.28-.86-.53-1.3-.78a10.67,10.67,0,0,1-2.79-2.12,3.54,3.54,0,0,1-.89-3.16.9.9,0,0,1,.33-.52,1,1,0,0,1,.76-.07,5.08,5.08,0,0,1,2.06,1.07,10.26,10.26,0,0,1,3.33,4.68c.05.14.12.37.18.61.14-.23.28-.45.41-.68a19.24,19.24,0,0,0,1.77-4.84c.05-.19.07-.38.11-.57-.22-.17-.49-.43-.64-.53-.33-.21-.66-.4-1-.59a8,8,0,0,1-2.13-1.62,2.7,2.7,0,0,1-.68-2.4.74.74,0,0,1,.25-.39.8.8,0,0,1,.59-.06,4,4,0,0,1,1.56.81,7.83,7.83,0,0,1,2.36,3.15,71.8,71.8,0,0,0,.72-8.19h.2c.1,1.75.16,3.51.13,5.28,0,1.18-.08,2.38-.22,3.57l.13,0c.36-.15.71-.32,1.06-.49a8.74,8.74,0,0,1,2.58-.87,3.13,3.13,0,0,1,2.54.71.63.63,0,0,1,.23.41.66.66,0,0,1-.25.49,3.94,3.94,0,0,1-1.55.83,9,9,0,0,1-4.57.18l-.33-.08c0,.2,0,.39-.09.59a20.57,20.57,0,0,1-1.61,5.16c-.11.22-.23.42-.34.63l.39-.08c.49-.15,1-.33,1.45-.5a11.32,11.32,0,0,1,3.49-.82,4.07,4.07,0,0,1,3.22,1.24.82.82,0,0,1,.25.55.91.91,0,0,1-.4.62,5,5,0,0,1-2.14.89,11.74,11.74,0,0,1-6-.32,8.21,8.21,0,0,1-1-.38,15,15,0,0,1-2.21,2.7A18.84,18.84,0,0,1,660.7,367l.25-.05a11.72,11.72,0,0,1,3.58-.39,4,4,0,0,1,3,1.62.84.84,0,0,1,.17.58.88.88,0,0,1-.48.56,5.22,5.22,0,0,1-2.25.63,11.59,11.59,0,0,1-5.9-1.05,5.7,5.7,0,0,1-1-.53c-1.2.56-2.44,1.06-3.67,1.51s-2.32.8-3.49,1.17a11.2,11.2,0,0,1,3.41.76,3.75,3.75,0,0,1,2.26,2.49.88.88,0,0,1,0,.6,1,1,0,0,1-.66.37,5.29,5.29,0,0,1-2.34-.12,11.16,11.16,0,0,1-5.17-2.87l-.33-.33c-1.43.44-2.85.88-4.25,1.37a41,41,0,0,0-3.9,1.54h0c.51.07,1,.12,1.53.17a11.54,11.54,0,0,1,3.51.77,3.76,3.76,0,0,1,2.25,2.49.83.83,0,0,1,0,.6.94.94,0,0,1-.66.37,5.3,5.3,0,0,1-2.34-.12,11.21,11.21,0,0,1-5.17-2.87,5.79,5.79,0,0,1-.6-.65,16.89,16.89,0,0,0-3.91,2.86,14.4,14.4,0,0,0-1.67,2c-.2.31-.37.64-.55,1a9.09,9.09,0,0,0,.93,0c.51-.06,1-.14,1.53-.22a11.71,11.71,0,0,1,3.59-.18,4,4,0,0,1,2.91,1.8.83.83,0,0,1,.13.59.93.93,0,0,1-.52.53,5.24,5.24,0,0,1-2.29.49,11.6,11.6,0,0,1-5.82-1.4,6,6,0,0,1-1-.63c0,.12-.11.24-.15.36l-.45,1.21c-.12.41-.21.84-.31,1.26l-.15.63-.09.64-.16,1.29c-.07,1-.08,2-.05,3,.35-.17.93-.3,1.18-.42.46-.21.9-.45,1.35-.69a11.06,11.06,0,0,1,3.33-1.28,4.1,4.1,0,0,1,3.38.79.85.85,0,0,1,.33.51.84.84,0,0,1-.3.66,5,5,0,0,1-2,1.18,11.72,11.72,0,0,1-6,.49,5.45,5.45,0,0,1-1.27-.35c.11,2.18.36,4.36.54,6.54.06.67.11,1.33.14,2,.32-.17.74-.33.93-.46.43-.27.84-.56,1.25-.85a11.21,11.21,0,0,1,3.12-1.68,4.16,4.16,0,0,1,3.47.37,1,1,0,0,1,.4.47.86.86,0,0,1-.21.69,4.82,4.82,0,0,1-1.8,1.41,11.61,11.61,0,0,1-5.87,1.22,5.61,5.61,0,0,1-1.24-.16c0,.76,0,1.52,0,2.29a19,19,0,0,1-.82,5.31,5.14,5.14,0,0,1-.33,1l.18-.11c.41-.29.8-.6,1.2-.91a10.81,10.81,0,0,1,3-1.82,4.14,4.14,0,0,1,3.48.2.94.94,0,0,1,.43.45.9.9,0,0,1-.17.7,4.87,4.87,0,0,1-1.72,1.49,11.55,11.55,0,0,1-5.79,1.5,5.85,5.85,0,0,1-1.25-.1c0,.06-.05.11-.07.16a14.43,14.43,0,0,1-1.55,2.32,16,16,0,0,1-4.26,3.72c-.45.28-.9.54-1.36.79a10.54,10.54,0,0,1,3.27,0,3.91,3.91,0,0,1,2.81,1.93.8.8,0,0,1,.09.6.92.92,0,0,1-.54.5,5.21,5.21,0,0,1-2.32.38,11.49,11.49,0,0,1-5.73-1.68c-.14-.09-.35-.22-.57-.38a51,51,0,0,1-6.21,2c-2.27.6-4.55,1.09-6.81,1.62l.85.12a11.65,11.65,0,0,1,3.47.88,3.76,3.76,0,0,1,2.17,2.56.84.84,0,0,1-.08.6,1,1,0,0,1-.67.35,5.32,5.32,0,0,1-2.34-.2,11.16,11.16,0,0,1-5.06-3,6.58,6.58,0,0,1-.62-.73c-.6.15-1.2.29-1.79.45-1.78.45-3.51,1.05-5.26,1.61-.91.35-1.83.69-2.74,1l.52,0a11.64,11.64,0,0,1,3.53.68,3.78,3.78,0,0,1,2.34,2.41.91.91,0,0,1,0,.61,1,1,0,0,1-.64.39,5.33,5.33,0,0,1-2.35-.06,11.17,11.17,0,0,1-5.26-2.72c-.1-.09-.25-.22-.4-.38l0,0a63.35,63.35,0,0,0-7.76,4l1.42,0a11.52,11.52,0,0,1,3.57.46,3.84,3.84,0,0,1,2.49,2.28.86.86,0,0,1,0,.61,1,1,0,0,1-.62.43,5.32,5.32,0,0,1-2.35.07,11.31,11.31,0,0,1-5.43-2.41,7.81,7.81,0,0,1-.6-.54l-.31.19a54.8,54.8,0,0,0-8.44,6.69l-.39.4a5,5,0,0,0,.57.06c.51,0,1,0,1.54,0a11.39,11.39,0,0,1,3.59.28,3.85,3.85,0,0,1,2.63,2.14.83.83,0,0,1,0,.6.93.93,0,0,1-.59.46,5.26,5.26,0,0,1-2.34.2,11.34,11.34,0,0,1-5.57-2.11,7,7,0,0,1-.79-.65,50,50,0,0,0-5.53,6.81,52.4,52.4,0,0,0-2.61,4.61l-.6,1.18-.49,1.23c-.31.82-.69,1.62-1,2.46l-.19-.05A41.37,41.37,0,0,1,566.07,447.43Z"/><text class="cls-8" transform="translate(121.91 70.02)">Luego, <tspan class="cls-9" x="60.31" y="0">L</tspan><tspan class="cls-10" x="73.41" y="0">A </tspan><tspan class="cls-11" x="97.22" y="0">C</tspan><tspan class="cls-10" x="113.78" y="0">ALI</tspan><tspan class="cls-12" x="152.04" y="0">D</tspan><tspan class="cls-10" x="170.16" y="0">AD DEL P</tspan><tspan class="cls-13" x="282" y="0">L</tspan><tspan class="cls-14" x="295.1" y="0">ÁT</tspan><tspan class="cls-10" x="323.73" y="0">ANO</tspan><tspan x="380.03" y="0" xml:space="preserve"> es </tspan><tspan x="-0.76" y="21.6">muy variable según la diversidad de tecnologías, </tspan><tspan x="-4.75" y="43.2">los sistemas de producción aplicados, además de </tspan><tspan x="-6.04" y="72">los procesos de cosecha y poscosecha</tspan><tspan class="cls-10" x="313.51" y="72"> </tspan><tspan x="319.39" y="72">que tienen </tspan><tspan x="8.14" y="93.6">gran influencia en la calidad final del producto </tspan><tspan x="-2.9" y="115.2">para el consumidor. Se estima que en el país hay </tspan><tspan class="cls-15"><tspan x="6.5" y="144">PÉRDIDAS </tspan><tspan class="cls-16" x="140.61" y="144">C</tspan><tspan x="157.92" y="144">ONSIDERABLES</tspan><tspan class="cls-17" x="351.83" y="144" xml:space="preserve"> en la </tspan></tspan><tspan x="7.08" y="165.6">producción que están alrededor del 10 al 12 %</tspan></text><path class="cls-18" d="M415.08,333.45a21.64,21.64,0,0,1-11.17-2.92,2.6,2.6,0,0,1-1.27-2.08c-.58-8.5,4.58-17.38,13.15-22.64s18.83-5.82,26.14-1.45a2.64,2.64,0,0,1,1.28,2.08c.58,8.5-4.59,17.38-13.16,22.64A28.89,28.89,0,0,1,415.08,333.45Zm-7.21-6.77c5.55,2.61,13,1.84,19.43-2.09s10.48-10.24,10.68-16.38c-5.56-2.61-13-1.85-19.44,2.09S408.06,320.54,407.87,326.68Z"/><path class="cls-18" d="M395.37,333.45a29,29,0,0,1-15-4.37c-8.57-5.26-13.73-14.14-13.15-22.64a2.61,2.61,0,0,1,1.28-2.08c7.31-4.37,17.57-3.81,26.14,1.45S408.4,320,407.82,328.45a2.64,2.64,0,0,1-1.28,2.08A21.64,21.64,0,0,1,395.37,333.45Zm-22.89-25.24c.19,6.14,4.25,12.44,10.67,16.38s13.88,4.7,19.44,2.09c-.19-6.14-4.26-12.44-10.68-16.38S378,305.61,372.48,308.21Z"/><path class="cls-18" d="M415.08,357.84a21.76,21.76,0,0,1-11.17-2.92,2.63,2.63,0,0,1-1.27-2.09c-.58-8.49,4.58-17.38,13.15-22.64s18.83-5.82,26.14-1.45a2.64,2.64,0,0,1,1.28,2.08c.58,8.5-4.59,17.39-13.16,22.64A28.91,28.91,0,0,1,415.08,357.84Zm-7.21-6.78c5.55,2.61,13,1.85,19.43-2.09S437.78,338.73,438,332.6c-5.56-2.61-13-1.85-19.44,2.08S408.06,344.92,407.87,351.06Z"/><path class="cls-18" d="M395.37,357.84a28.91,28.91,0,0,1-15-4.38c-8.57-5.25-13.73-14.14-13.15-22.64a2.61,2.61,0,0,1,1.28-2.08c7.3-4.37,17.56-3.8,26.14,1.45s13.73,14.14,13.15,22.64a2.67,2.67,0,0,1-1.28,2.09A21.73,21.73,0,0,1,395.37,357.84ZM372.48,332.6c.19,6.13,4.25,12.43,10.67,16.37s13.88,4.7,19.44,2.09c-.19-6.14-4.26-12.44-10.68-16.38S378,330,372.48,332.6Z"/><path class="cls-18" d="M415.08,382.22a21.76,21.76,0,0,1-11.17-2.92,2.6,2.6,0,0,1-1.27-2.08c-.58-8.5,4.58-17.39,13.15-22.64s18.83-5.83,26.14-1.46a2.64,2.64,0,0,1,1.28,2.08c.58,8.5-4.59,17.39-13.16,22.64A28.81,28.81,0,0,1,415.08,382.22Zm-7.21-6.78c5.55,2.61,13,1.85,19.43-2.09S437.78,363.11,438,357c-5.56-2.61-13-1.85-19.44,2.09S408.06,369.3,407.87,375.44Z"/><path class="cls-18" d="M395.37,382.22a28.81,28.81,0,0,1-15-4.38c-8.57-5.25-13.73-14.14-13.15-22.64a2.61,2.61,0,0,1,1.28-2.08c7.31-4.37,17.57-3.8,26.14,1.46s13.73,14.13,13.15,22.64a2.64,2.64,0,0,1-1.28,2.08A21.73,21.73,0,0,1,395.37,382.22ZM372.48,357c.19,6.13,4.25,12.43,10.67,16.37s13.88,4.7,19.44,2.09c-.19-6.14-4.26-12.44-10.68-16.37S378,354.37,372.48,357Z"/><path class="cls-18" d="M405.23,396.59a2.64,2.64,0,0,1-2.64-2.63V309.44a2.64,2.64,0,0,1,5.27,0V394A2.63,2.63,0,0,1,405.23,396.59Z"/><path class="cls-18" d="M513.49,307.52a29.5,29.5,0,0,1-15.2-4,2.65,2.65,0,0,1-1.28-2.08c-.79-11.6,6.29-23.74,18-31s25.79-8,35.76-2a2.64,2.64,0,0,1,1.28,2.08c.79,11.59-6.29,23.74-18,30.94A39.71,39.71,0,0,1,513.49,307.52Zm-11.27-7.82c8.22,4.2,19.46,3.2,29.07-2.69s15.6-15.46,15.59-24.69c-8.23-4.2-19.46-3.2-29.08,2.69S502.21,290.47,502.22,299.7Z"/><path class="cls-18" d="M485.68,307.52a39.71,39.71,0,0,1-20.56-6c-11.75-7.2-18.83-19.35-18-30.94a2.64,2.64,0,0,1,1.28-2.08c10-6,24-5.17,35.76,2s18.83,19.35,18,31a2.65,2.65,0,0,1-1.28,2.08A29.57,29.57,0,0,1,485.68,307.52Zm-33.39-35.2c0,9.23,6,18.8,15.59,24.69s20.84,6.89,29.07,2.69c0-9.23-6-18.79-15.58-24.69S460.51,268.12,452.29,272.32Z"/><path class="cls-18" d="M513.49,341.92a29.5,29.5,0,0,1-15.2-4,2.67,2.67,0,0,1-1.28-2.08c-.79-11.6,6.29-23.75,18-30.95s25.78-8,35.76-2.05a2.65,2.65,0,0,1,1.28,2.08c.79,11.6-6.29,23.75-18,30.95A39.71,39.71,0,0,1,513.49,341.92Zm-11.27-7.82c8.22,4.2,19.46,3.2,29.07-2.69s15.6-15.46,15.59-24.69c-8.23-4.21-19.47-3.2-29.08,2.69S502.21,324.87,502.22,334.1Z"/><path class="cls-18" d="M485.68,341.92a39.71,39.71,0,0,1-20.56-6c-11.75-7.2-18.83-19.35-18-30.95a2.65,2.65,0,0,1,1.28-2.08c10-6,24-5.16,35.76,2.05s18.83,19.35,18,30.95a2.67,2.67,0,0,1-1.28,2.08A29.57,29.57,0,0,1,485.68,341.92Zm-33.39-35.2c0,9.23,6,18.8,15.59,24.69s20.84,6.89,29.07,2.69c0-9.23-6-18.8-15.58-24.69S460.52,302.52,452.29,306.72Z"/><path class="cls-18" d="M513.49,376.32a29.48,29.48,0,0,1-15.2-4,2.64,2.64,0,0,1-1.28-2.08c-.79-11.59,6.29-23.74,18-30.94s25.78-8,35.76-2.05a2.65,2.65,0,0,1,1.28,2.08c.79,11.6-6.29,23.74-18,30.95A39.71,39.71,0,0,1,513.49,376.32Zm-11.27-7.82c8.22,4.2,19.46,3.2,29.07-2.69s15.6-15.46,15.59-24.69c-8.23-4.2-19.46-3.2-29.08,2.69S502.21,359.27,502.22,368.5Z"/><path class="cls-18" d="M485.68,376.32a39.71,39.71,0,0,1-20.56-6c-11.75-7.21-18.83-19.35-18-30.95a2.65,2.65,0,0,1,1.28-2.08c10-6,24-5.16,35.76,2.05s18.83,19.35,18,30.94a2.64,2.64,0,0,1-1.28,2.08A29.48,29.48,0,0,1,485.68,376.32Zm-33.39-35.2c0,9.23,6,18.79,15.59,24.69s20.85,6.89,29.07,2.69c0-9.23-6-18.8-15.58-24.69S460.52,336.92,452.29,341.12Z"/><path class="cls-18" d="M499.58,396.59A2.63,2.63,0,0,1,497,394V274.72a2.64,2.64,0,1,1,5.27,0V394A2.64,2.64,0,0,1,499.58,396.59Z"/><path class="cls-18" d="M553,396.59H358.66a2.64,2.64,0,0,1,0-5.27H553a2.64,2.64,0,0,1,0,5.27Z"/><path class="cls-18" d="M418,458.76a2.63,2.63,0,0,1-2.55-2c-12.25-48.21-51.72-60.17-52.12-60.28a2.63,2.63,0,0,1,1.47-5.06c1.74.5,42.77,12.94,55.75,64a2.62,2.62,0,0,1-1.9,3.2A2.48,2.48,0,0,1,418,458.76Z"/><path class="cls-18" d="M443.06,458.76a2.65,2.65,0,0,1-2.56-2c-12.21-48.08-51.72-60.17-52.11-60.28a2.64,2.64,0,0,1-1.79-3.27,2.61,2.61,0,0,1,3.26-1.79c1.74.5,42.77,12.94,55.75,64a2.62,2.62,0,0,1-1.9,3.2A2.48,2.48,0,0,1,443.06,458.76Z"/><path class="cls-18" d="M468.16,458.76a2.65,2.65,0,0,1-2.56-2c-12.21-48.08-51.72-60.17-52.11-60.28a2.63,2.63,0,0,1,1.47-5.06c1.74.5,42.76,12.94,55.75,64a2.62,2.62,0,0,1-1.91,3.2A2.35,2.35,0,0,1,468.16,458.76Z"/><path class="cls-18" d="M493.25,458.76a2.65,2.65,0,0,1-2.55-2c-12.25-48.21-51.71-60.17-52.11-60.28a2.63,2.63,0,1,1,1.47-5.06c1.74.5,42.76,12.94,55.75,64a2.63,2.63,0,0,1-1.91,3.2A2.37,2.37,0,0,1,493.25,458.76Z"/><path class="cls-18" d="M518.35,458.76a2.63,2.63,0,0,1-2.55-2c-12.25-48.21-51.72-60.17-52.11-60.28a2.63,2.63,0,1,1,1.46-5.06c1.74.5,42.77,12.94,55.76,64a2.64,2.64,0,0,1-1.91,3.2A2.43,2.43,0,0,1,518.35,458.76Z"/><path class="cls-18" d="M553,408.63H487.11a2.64,2.64,0,0,1,0-5.27H553a2.64,2.64,0,0,1,0,5.27Z"/><path class="cls-18" d="M553,421.16H500.23a2.64,2.64,0,0,1,0-5.27H553a2.64,2.64,0,0,1,0,5.27Z"/><path class="cls-18" d="M553,433.69H508.9a2.63,2.63,0,1,1,0-5.26H553a2.63,2.63,0,0,1,0,5.26Z"/><path class="cls-18" d="M553,446.23h-38a2.64,2.64,0,0,1,0-5.27h38a2.64,2.64,0,0,1,0,5.27Z"/><path class="cls-18" d="M553,458.76H519.06a2.64,2.64,0,0,1,0-5.27H553a2.64,2.64,0,0,1,0,5.27Z"/><rect class="cls-2" width="674" height="458"/><path class="cls-6" d="M0,381.28S80.13,376,79.56,458H0Z"/><text class="cls-19" transform="translate(17.05 440.96)">4</text><path class="cls-6" d="M287.12,336.09a2.09,2.09,0,1,1-2.09,2.09A2.1,2.1,0,0,1,287.12,336.09Z"/><path class="cls-6" d="M298.75,336.11l-2.92-.55a9,9,0,0,0-.7-1.69l1.69-2.47a.63.63,0,0,0-.07-.77l-2.09-2.08a.62.62,0,0,0-.76-.08l-2.48,1.7a8.86,8.86,0,0,0-1.74-.72l-.54-2.9a.65.65,0,0,0-.6-.5h-3a.64.64,0,0,0-.59.5l-.55,2.93a8.53,8.53,0,0,0-1.67.7l-2.44-1.67a.65.65,0,0,0-.77.07l-2.09,2.09a.65.65,0,0,0-.07.77l1.68,2.45a9.78,9.78,0,0,0-.69,1.67l-2.92.55a.63.63,0,0,0-.49.59v2.95a.63.63,0,0,0,.49.6l2.92.54a9.16,9.16,0,0,0,.7,1.71l-1.66,2.43a.65.65,0,0,0,.07.77l2.09,2.08a.62.62,0,0,0,.77.07l2.43-1.66a9.26,9.26,0,0,0,1.65.69l.55,2.94a.63.63,0,0,0,.59.49h3a.63.63,0,0,0,.6-.49l.54-2.91a9.64,9.64,0,0,0,1.73-.7l2.45,1.68a.65.65,0,0,0,.77-.07l2.09-2.09a.63.63,0,0,0,.07-.77l-1.67-2.44a9.11,9.11,0,0,0,.71-1.73l2.92-.54a.63.63,0,0,0,.49-.6v-2.94A.63.63,0,0,0,298.75,336.11Zm-10.64,7a5.06,5.06,0,1,1,4-4A5.07,5.07,0,0,1,288.11,343.15Z"/><path class="cls-6" d="M321.92,388.88a1.66,1.66,0,1,1-2.2-.79A1.66,1.66,0,0,1,321.92,388.88Z"/><path class="cls-6" d="M325.86,397.2l-.6-2.27a7.07,7.07,0,0,0,1-1.08l2.34.37a.49.49,0,0,0,.53-.31l.78-2.2a.5.5,0,0,0-.21-.57l-2.05-1.2a6.69,6.69,0,0,0-.08-1.48l1.89-1.38a.49.49,0,0,0,.15-.59l-1-2.11a.5.5,0,0,0-.55-.26l-2.29.6a7.34,7.34,0,0,0-1.06-1l.36-2.32a.49.49,0,0,0-.31-.52l-2.2-.79a.51.51,0,0,0-.57.21l-1.19,2a6.91,6.91,0,0,0-1.43.08L318,380.56a.52.52,0,0,0-.6-.15l-2.1,1a.5.5,0,0,0-.26.56l.6,2.27a6.65,6.65,0,0,0-1,1.08l-2.3-.36a.51.51,0,0,0-.53.31l-.78,2.2a.48.48,0,0,0,.21.57l2,1.18a7.41,7.41,0,0,0,.07,1.41L311.39,392a.5.5,0,0,0-.15.6l1,2.11a.49.49,0,0,0,.55.25l2.27-.59a7.21,7.21,0,0,0,1.08,1l-.36,2.33a.49.49,0,0,0,.31.53l2.2.78a.5.5,0,0,0,.57-.21l1.18-2a7.38,7.38,0,0,0,1.48-.07l1.38,1.9a.51.51,0,0,0,.59.15l2.11-1A.5.5,0,0,0,325.86,397.2ZM317.21,392a4,4,0,1,1,4.19,1.5A4,4,0,0,1,317.21,392Z"/><path class="cls-6" d="M595.58,290.32a4.43,4.43,0,1,1-6.14,1.25A4.43,4.43,0,0,1,595.58,290.32Z"/><path class="cls-6" d="M616.09,303.94l-4.52-4.38a18.5,18.5,0,0,0,.74-3.8l5.87-2.39a1.33,1.33,0,0,0,.77-1.44l-1.24-6.12a1.33,1.33,0,0,0-1.27-1l-6.34.1a19.16,19.16,0,0,0-2.25-3.29l2.43-5.77a1.32,1.32,0,0,0-.47-1.56l-5.2-3.45A1.34,1.34,0,0,0,603,271l-4.4,4.54a18.86,18.86,0,0,0-3.77-.72l-2.35-5.8a1.34,1.34,0,0,0-1.45-.77l-6.11,1.25a1.32,1.32,0,0,0-1,1.27l.09,6.3a19.51,19.51,0,0,0-3.16,2.14l-5.8-2.44a1.33,1.33,0,0,0-1.56.47L570,282.45a1.31,1.31,0,0,0,.17,1.62l4.52,4.38a18.8,18.8,0,0,0-.75,3.83l-5.77,2.35a1.32,1.32,0,0,0-.77,1.44l1.25,6.11a1.34,1.34,0,0,0,1.27,1l6.22-.1a20.44,20.44,0,0,0,2.12,3.15l-2.46,5.82a1.33,1.33,0,0,0,.48,1.56l5.2,3.45a1.34,1.34,0,0,0,1.63-.18l4.35-4.49a19.23,19.23,0,0,0,3.87.77l2.37,5.84a1.34,1.34,0,0,0,1.45.77l6.11-1.25a1.32,1.32,0,0,0,1-1.27l-.1-6.27a19.24,19.24,0,0,0,3.28-2.21l5.78,2.44a1.34,1.34,0,0,0,1.57-.47l3.44-5.21A1.31,1.31,0,0,0,616.09,303.94Zm-27,0a10.71,10.71,0,1,1,11.66-2.37A10.73,10.73,0,0,1,589.08,303.93Z"/></svg>