<svg xmlns="http://www.w3.org/2000/svg" width="100" height="99.951" viewBox="0 0 100 99.951">
  <g id="Grupo_4484" data-name="Grupo 4484" transform="translate(-111.256 -1994.18)">
    <g id="Grupo_3190" data-name="Grupo 3190" transform="translate(111.256 1994.18)">
      <ellipse id="Elipse_663" data-name="Elipse 663" cx="49.919" cy="49.944" rx="49.919" ry="49.944" transform="translate(0 99.838) rotate(-89.935)" fill="#ffe082"/>
      <g id="Grupo_3188" data-name="Grupo 3188" transform="translate(12.412 2.731)">
        <path id="Trazado_12167" data-name="Trazado 12167" d="M41.388,42.033a.857.857,0,0,1-.849-.753l.711-.181-.023-.014-.7.09c-.21-1.634-1.269-3.184-2.527-4.9-.086-.115-.165-.23-.246-.348a.892.892,0,0,1-.08-.878L39.927,30.4a.892.892,0,0,1,.83-.48.854.854,0,0,1,.754.591,1.49,1.49,0,0,0,.694.838,2.306,2.306,0,0,0,1.777.325,1.023,1.023,0,0,0,.514-.4c.2-.3-.021-1-.616-1.438a.851.851,0,0,1-.33-.866,16.455,16.455,0,0,0-.143-5.422.853.853,0,0,1,.078-.493l3.347-6.911a.848.848,0,0,1,.226-.286,9.773,9.773,0,0,1,1.889-1.23,4.927,4.927,0,0,1,1.652-.511.828.828,0,0,1,.711.259.852.852,0,0,1,.228.721,75.47,75.47,0,0,1-6.159,20.262c-.893,1.932-1.956,3.973-3.248,6.24A.857.857,0,0,1,41.388,42.033Zm-1.952-6.692a19.007,19.007,0,0,1,2.221,3.6c.825-1.518,1.541-2.935,2.17-4.295.2-.435.4-.868.589-1.305a3.876,3.876,0,0,1-3.037-.486,3.133,3.133,0,0,1-.55-.386Zm5.88-6.52a3.557,3.557,0,0,1,.615.819,73.063,73.063,0,0,0,3.693-13.434,8.139,8.139,0,0,0-1.336.86l-3.15,6.5A18.789,18.789,0,0,1,45.317,28.821Z" transform="translate(-9.988 -14.111)" fill="#8d6e63"/>
        <path id="Trazado_12168" data-name="Trazado 12168" d="M43.464,41.846a.855.855,0,0,1-.751-1.265,76.537,76.537,0,0,0,8.625-25.094.856.856,0,0,1,1.412-.512c1.616,1.433,2.394,4.149,2.762,6.175.345,1.895.626,3.728.837,5.447a.856.856,0,0,1-.517.893c-2.366,1-2.808,1.744-2.889,2.019a.646.646,0,0,0,.147.586,3.292,3.292,0,0,0,2.824,1.047h.035a.856.856,0,0,1,.853.819c.065,1.493.064,2.968,0,4.385a.856.856,0,0,1-.695.8c-1.294.244-2.822.542-4.36.906a20.812,20.812,0,0,0-7.773,3.625A.852.852,0,0,1,43.464,41.846Zm9.229-24.078a77.881,77.881,0,0,1-6.986,20.768,22.354,22.354,0,0,1,5.648-2.149c1.31-.31,2.609-.573,3.764-.8.027-.9.03-1.821,0-2.755a4.694,4.694,0,0,1-3.393-1.708,2.377,2.377,0,0,1-.428-2.1c.308-1.053,1.352-1.968,3.269-2.853-.2-1.5-.446-3.087-.743-4.72A14.181,14.181,0,0,0,52.692,17.768Z" transform="translate(-9.282 -14.019)" fill="#8d6e63"/>
        <path id="Trazado_12169" data-name="Trazado 12169" d="M40.975,44.764a.856.856,0,0,1-.626-1.438c3.461-3.727,6.749-6.453,11.54-7.64,1.16-.289,2.421-.561,4.087-.887a.855.855,0,0,1,1.014.926,32.234,32.234,0,0,1-.545,3.5c-.161.735-.287,1.531-.4,2.506a.856.856,0,0,1-.84.755c-1.873.023-3.577.113-5.206.277a.83.83,0,0,1-.441-.073,2.491,2.491,0,0,0-2.088.062.848.848,0,0,1-.24.07,2.776,2.776,0,0,0-1.193.462.835.835,0,0,1-.307.131,29.41,29.41,0,0,0-4.445,1.29A.85.85,0,0,1,40.975,44.764ZM55.15,36.71c-1.093.224-2,.427-2.85.637a18.469,18.469,0,0,0-8.277,4.709q.589-.147,1.194-.278a4.453,4.453,0,0,1,1.653-.63,4.247,4.247,0,0,1,3.17-.1c1.394-.135,2.842-.218,4.4-.252.1-.708.206-1.334.334-1.927C54.92,38.182,55.046,37.461,55.15,36.71Z" transform="translate(-9.632 -11.201)" fill="#8d6e63"/>
        <path id="Trazado_12170" data-name="Trazado 12170" d="M23.732,64.6a.855.855,0,0,1-.77-1.229l1.841-3.8a.855.855,0,0,1,1.613.518c-.152.882-.36,1.809-.617,2.753a.851.851,0,0,1-.244.4c-.412.383-.833.761-1.253,1.136A.86.86,0,0,1,23.732,64.6Z" transform="translate(-12.059 -7.78)" fill="#8d6e63"/>
        <path id="Trazado_12171" data-name="Trazado 12171" d="M33.556,57.412a.855.855,0,0,1-.716-1.321c1.848-2.846,3.523-5.9,5.144-8.849l.934-1.7a.859.859,0,0,1,1.008-.4,15.713,15.713,0,0,0,4.4.738c.439.011.783.007,1.128,0a.918.918,0,0,1,.727.359,1.709,1.709,0,0,0,.6.535,3.213,3.213,0,0,0,3.26.043,4.239,4.239,0,0,0,1.451-1.4,2.759,2.759,0,0,0,.169-.293.849.849,0,0,1,.527-.44l.576-.17c.937-.279,1.861-.579,2.773-.883a.878.878,0,0,1,.835.154.855.855,0,0,1,.306.779l-.828-.086.827.094a27.928,27.928,0,0,1-.557,3.383A10.04,10.04,0,0,1,54.826,51,12.891,12.891,0,0,1,53.2,53.069a.861.861,0,0,1-.542.262q-1.679.151-3.361.345-1.506.173-3,.391c-2.191.323-4.145.7-5.974,1.144q-.56.137-1.111.285A36.867,36.867,0,0,0,33.9,57.339.838.838,0,0,1,33.556,57.412Zm6.527-10.437-.6,1.091C38.26,50.295,37,52.581,35.661,54.805c.984-.348,2.021-.668,3.1-.961.38-.1.764-.2,1.15-.3,1.88-.461,3.886-.845,6.13-1.175q1.518-.224,3.054-.4t3.077-.318a10.872,10.872,0,0,0,1.2-1.563,8.33,8.33,0,0,0,1.073-2.535c.137-.576.252-1.185.355-1.89-.521.169-1.036.33-1.555.485L53,46.227c-.026.044-.054.089-.083.133A5.971,5.971,0,0,1,50.9,48.294a4.947,4.947,0,0,1-4.911,0,3.308,3.308,0,0,1-.9-.692q-.352.005-.7,0A17.889,17.889,0,0,1,40.084,46.975Z" transform="translate(-10.676 -9.962)" fill="#8d6e63"/>
        <path id="Trazado_12172" data-name="Trazado 12172" d="M27.458,63.383a.854.854,0,0,1-.852-.933,20.249,20.249,0,0,0-.011-3.8.855.855,0,0,1,.081-.457l3.371-6.961a.856.856,0,0,1,.587-.462c.07-.016.14-.032.214-.054.946-.261,1.734-.814,1.169-3.1a.856.856,0,0,1,.06-.579l2.763-5.7a.858.858,0,0,1,1.137-.4,2.063,2.063,0,0,0,1.545.208,1.021,1.021,0,0,0,.516-.4.619.619,0,0,0,.054-.468,1.745,1.745,0,0,0-.789-1.048,1.913,1.913,0,0,0-.331-.167.855.855,0,0,1-.461-1.17l1.757-3.626a.857.857,0,0,1,1.467-.124,9.455,9.455,0,0,1,1.815,3.715,14.445,14.445,0,0,1,.058,3.8l-.042.586a.852.852,0,0,1-.122.387l-.481.791c-1.288,2.1-2.5,4.309-3.674,6.444-.789,1.438-1.58,2.877-2.4,4.3-.634,1.1-1.246,2.1-1.867,3.073l-.08.123c-.946,1.468-1.865,2.772-2.813,3.988a.869.869,0,0,1-.161.156,18.912,18.912,0,0,0-1.91,1.647A.857.857,0,0,1,27.458,63.383Zm2-2.576h0ZM28.32,58.722c.052.6.079,1.21.081,1.821.147-.117.3-.235.447-.349.892-1.151,1.762-2.386,2.658-3.775l.8.341-.72-.462c.607-.946,1.2-1.928,1.825-3,.812-1.411,1.6-2.838,2.381-4.266,1.182-2.153,2.4-4.379,3.714-6.516l.371-.608.029-.388a13,13,0,0,0-.034-3.358,5.635,5.635,0,0,0-.716-1.8L38.4,37.9a3.432,3.432,0,0,1,1.361,2.012,2.3,2.3,0,0,1-.309,1.78,2.726,2.726,0,0,1-1.313,1.044,3.3,3.3,0,0,1-2.1.046l-2.291,4.729c.676,3.178-.856,4.378-2.334,4.82Z" transform="translate(-11.536 -11.343)" fill="#8d6e63"/>
        <path id="Trazado_12173" data-name="Trazado 12173" d="M14.7,86.769a.857.857,0,0,1-.77-1.23L21.6,69.7a.855.855,0,0,1,.179-.246q.568-.542,1.142-1.079c.311-.29.627-.579.945-.869l2.845-2.556a.853.853,0,0,1,.686-.212c.018,0,.026.007.029.014l.047-.082.058-.1.441-.736a.806.806,0,0,1,.138-.165L28.5,63.3q.517-.489,1.026-.995c.873-.867,1.605-1.654,2.239-2.408q.159-.188.311-.378l.313-.391a.914.914,0,0,1,.159-.153c.378-.281.765-.548,1.164-.805s.805-.5,1.221-.733q.537-.3,1.1-.582c.368-.185.746-.363,1.128-.534.2-.089.4-.176.6-.26a35.659,35.659,0,0,1,3.766-1.331c.216-.064.435-.127.654-.187q.53-.147,1.077-.287c.363-.09.728-.179,1.094-.262q.618-.14,1.242-.268t1.261-.244q1.259-.231,2.545-.419h0c.534-.079,1.072-.152,1.608-.222s1.079-.133,1.619-.193a.864.864,0,0,1,.873.5.856.856,0,0,1-.2.983,17.463,17.463,0,0,0-2.172,2.424A23.346,23.346,0,0,0,49.3,59.443c-.107.2-.2.4-.29.6a11.388,11.388,0,0,0-.6,1.865.855.855,0,0,1-.789.653c-.775.039-1.555.079-2.332.122-1.224.07-2.446.152-3.653.264-1.65.152-3.088.342-4.4.582a24.17,24.17,0,0,0-5.521,1.634,15.736,15.736,0,0,0-1.665.866c-.117.071-.235.144-.351.217q.318.055.642.1a18.95,18.95,0,0,0,3.154.162,24.349,24.349,0,0,0,5.333-.817c1.538-.4,3.077-.907,4.4-1.353l.683-.234c.789-.269,1.578-.538,2.367-.794l.577-.185a.855.855,0,0,1,1.1.982c-.056.279-.113.558-.173.834a14.233,14.233,0,0,1-.93,2.949,10.567,10.567,0,0,1-.783,1.394A14.847,14.847,0,0,1,43.433,72.2c-1.1.97-2.336,1.854-3.527,2.71l-.867.625A28.484,28.484,0,0,0,35.6,78.359a.859.859,0,0,1-.908.2l.124-.866-.3.8c-4.707-1.767-9.458-3.1-12.6-1.143,2.11,2.414,5.373,2.114,9.111,1.772.809-.074,1.534-.139,2.256-.184a.839.839,0,0,1,.791.422.859.859,0,0,1-.019.9,8.867,8.867,0,0,0-.634,1.145,4.469,4.469,0,0,0-.254.736,8.6,8.6,0,0,0-.229,1.555.834.834,0,0,1-.885.8,54.684,54.684,0,0,0-17.108,2.246A.831.831,0,0,1,14.7,86.769Zm5.153-9.532L16.3,84.582a52.884,52.884,0,0,1,6.638-1.314,56.632,56.632,0,0,1,8.375-.513,8.68,8.68,0,0,1,.2-1.046,6.159,6.159,0,0,1,.323-.942l-.558.05c-4.294.392-8.641.791-11.276-3.171A.837.837,0,0,1,19.857,77.237Zm5.865-2.568a27.466,27.466,0,0,1,9.068,2.1,32.5,32.5,0,0,1,3.243-2.609l.874-.631c1.158-.833,2.356-1.693,3.4-2.607a13.23,13.23,0,0,0,2.332-2.583,8.8,8.8,0,0,0,.656-1.168,10.867,10.867,0,0,0,.663-1.955l-1.494.506-.686.234c-1.349.459-2.924.981-4.521,1.392a26.169,26.169,0,0,1-5.7.87c-.333.01-.666.014-1,.007.054.03.107.062.16.095a3.463,3.463,0,0,1,1.554,2.142,2.293,2.293,0,0,1-.309,1.78,2.792,2.792,0,0,1-1.843,1.188,4.122,4.122,0,0,1-2.693-.566,3.193,3.193,0,0,1-1.548-1.98,2.5,2.5,0,0,1,.245-1.944h0a2.293,2.293,0,0,1,1.36-.994c-.681-.114-1.344-.258-2.011-.437a.866.866,0,0,1-.541-.439l-1.9,1.709c-.31.282-.621.567-.927.854q-.512.477-1.018.959l-2.838,5.862A8.348,8.348,0,0,1,25.722,74.669Zm3.841-4.823a.805.805,0,0,0-.039.6,1.493,1.493,0,0,0,.716.911,2.494,2.494,0,0,0,1.566.381,1.1,1.1,0,0,0,.209-.055,1.026,1.026,0,0,0,.518-.4.63.63,0,0,0,.055-.471,1.746,1.746,0,0,0-.789-1.047,1.715,1.715,0,0,0-1.068-.276,1.36,1.36,0,0,0-.2.032,1.166,1.166,0,0,1-.238.029.734.734,0,0,0-.731.294Zm-2.17-5.027,0,0Zm6.262-4.53-.25.311c-.108.133-.219.27-.332.406-.667.792-1.434,1.616-2.343,2.519-.137.136-.275.273-.414.407.229-.115.462-.225.7-.332a25.751,25.751,0,0,1,5.91-1.753c1.361-.251,2.848-.448,4.55-.6,1.225-.114,2.467-.2,3.712-.268l1.718-.091a12.129,12.129,0,0,1,.534-1.519c.107-.246.225-.493.355-.731a24.88,24.88,0,0,1,1.953-3.1q.342-.462.7-.889c-.269.038-.538.075-.806.115h0q-1.253.183-2.487.408c-.411.076-.82.155-1.225.237s-.8.17-1.2.261q-.532.121-1.056.254c-.348.088-.695.179-1.038.276L42,56.376a33.967,33.967,0,0,0-3.585,1.266q-.286.121-.567.246c-.357.16-.711.325-1.059.5s-.688.354-1.02.542c-.388.219-.765.445-1.135.682C34.3,59.829,33.975,60.054,33.655,60.289Z" transform="translate(-13.33 -8.687)" fill="#8d6e63"/>
        <path id="Trazado_12174" data-name="Trazado 12174" d="M25.731,91.786a.674.674,0,0,1-.228-.036l-.658-.236c-1.026-.365-1.937-.666-2.787-.919a.856.856,0,0,1-.522-.441,7.973,7.973,0,0,0-2.867-3.122,13.02,13.02,0,0,0-4.586-1.825.856.856,0,0,1-.094-1.655,57.673,57.673,0,0,1,9.1-2.166,57.7,57.7,0,0,1,8.24-.607h.74a.856.856,0,0,1,.851.891,9.851,9.851,0,0,1-.583,3.4,13.252,13.252,0,0,1-5.023,5.851c-.26.188-.524.378-.794.567l-.145.1A1.219,1.219,0,0,1,25.731,91.786ZM22.9,89.06c.778.238,1.607.516,2.523.842l.25.089c.219-.154.431-.306.639-.457a11.724,11.724,0,0,0,4.443-5.108,6.606,6.606,0,0,0,.406-1.936,56.06,56.06,0,0,0-7.819.587,52.184,52.184,0,0,0-6.09,1.294A13.963,13.963,0,0,1,19.605,85.6,9.769,9.769,0,0,1,22.9,89.06Z" transform="translate(-13.394 -4.728)" fill="#8d6e63"/>
      </g>
      <g id="Grupo_3189" data-name="Grupo 3189" transform="translate(23.334 24.648)">
        <path id="Trazado_12175" data-name="Trazado 12175" d="M66.035,55.951a.857.857,0,0,1-.826-1.08l.727.1-.017-.022-.68-.179c.421-1.591.022-3.427-.5-5.488l-.088-.378a.954.954,0,0,1,.248-.881l3.833-3.459a.856.856,0,0,1,1.427.7,1.49,1.49,0,0,0,.329,1.038,2.321,2.321,0,0,0,1.523.971.977.977,0,0,0,.629-.179c.3-.206.357-.933-.031-1.564a.857.857,0,0,1,.022-.926,16.523,16.523,0,0,0,1.907-5.079.848.848,0,0,1,.256-.427l5.7-5.145a.878.878,0,0,1,.318-.181,9.857,9.857,0,0,1,2.214-.428,4.941,4.941,0,0,1,1.723.147.855.855,0,0,1,.5,1.261A75.543,75.543,0,0,1,71.921,51.207c-1.556,1.454-3.308,2.947-5.357,4.56A.855.855,0,0,1,66.035,55.951Zm.387-7a19.005,19.005,0,0,1,.7,4.168c1.335-1.1,2.53-2.139,3.624-3.164q.524-.489,1.037-.987a3.888,3.888,0,0,1-2.629-1.592,3.214,3.214,0,0,1-.365-.566Zm7.9-3.829a3.5,3.5,0,0,1,.262.989,73.036,73.036,0,0,0,8.475-11.057,8.128,8.128,0,0,0-1.561.293l-5.365,4.842A18.764,18.764,0,0,1,74.321,45.124Z" transform="translate(-17.105 -33.323)" fill="#8d6e63"/>
        <path id="Trazado_12176" data-name="Trazado 12176" d="M81.585,57.06a.856.856,0,0,1-.169-.017c-1.21-.244-2.8-.556-4.379-.8a20.8,20.8,0,0,0-8.565.435.856.856,0,0,1-.757-1.49,76.517,76.517,0,0,0,17.43-20.007.834.834,0,0,1,.768-.416.851.851,0,0,1,.735.475c.957,1.931.657,4.741.236,6.758-.389,1.863-.817,3.666-1.272,5.363a.858.858,0,0,1-.816.632c-2.567.034-3.259.562-3.437.787a.637.637,0,0,0-.083.6A3.254,3.254,0,0,0,83.5,51.407a.854.854,0,0,1,.517,1.093c-.5,1.413-1.06,2.78-1.652,4.063A.855.855,0,0,1,81.585,57.06Zm-7.812-2.785a23,23,0,0,1,3.525.276c1.334.206,2.67.46,3.788.68.363-.822.712-1.677,1.04-2.553a4.764,4.764,0,0,1-2.5-2.858,2.376,2.376,0,0,1,.391-2.107c.682-.86,1.994-1.314,4.1-1.415.388-1.483.752-3.045,1.087-4.652a14.2,14.2,0,0,0,.334-3.842A77.883,77.883,0,0,1,71.259,54.419,22.07,22.07,0,0,1,73.773,54.276Z" transform="translate(-16.715 -33.121)" fill="#8d6e63"/>
        <path id="Trazado_12177" data-name="Trazado 12177" d="M78.088,61.523a.857.857,0,0,1-.313-.058c-1.716-.674-3.373-1.247-4.928-1.7a.859.859,0,0,1-.382-.235,2.494,2.494,0,0,0-1.956-.728.779.779,0,0,1-.248-.026,2.772,2.772,0,0,0-1.28-.019.86.86,0,0,1-.333.007,29.375,29.375,0,0,0-4.6-.477.856.856,0,0,1-.346-1.631c4.609-2.151,8.68-3.444,13.567-2.738,1.2.171,2.469.39,4.119.714a.855.855,0,0,1,.591,1.24,31.7,31.7,0,0,1-1.822,3.039c-.423.621-.842,1.312-1.316,2.172A.856.856,0,0,1,78.088,61.523Zm-4.552-3.34c1.33.395,2.729.872,4.169,1.42.358-.621.694-1.159,1.035-1.659.392-.574.781-1.2,1.161-1.855-1.087-.2-2-.355-2.879-.48a18.431,18.431,0,0,0-9.442,1.25c.4.055.8.119,1.211.191a4.4,4.4,0,0,1,1.768.038A4.307,4.307,0,0,1,73.537,58.183Z" transform="translate(-17.305 -30.452)" fill="#8d6e63"/>
        <path id="Trazado_12178" data-name="Trazado 12178" d="M40.415,70.688a.856.856,0,0,1-.574-1.491l3.132-2.827a.856.856,0,0,1,1.3,1.086c-.475.764-1.015,1.545-1.607,2.32a.86.86,0,0,1-.378.279c-.526.2-1.056.392-1.587.582A.878.878,0,0,1,40.415,70.688Z" transform="translate(-20.633 -28.703)" fill="#8d6e63"/>
        <path id="Trazado_12179" data-name="Trazado 12179" d="M71.766,70.727a.886.886,0,0,1-.249-.037c-1.075-.326-2.157-.645-3.243-.945q-1.463-.407-2.928-.767c-2.161-.527-4.112-.915-5.965-1.185-.381-.056-.761-.108-1.138-.155a36.378,36.378,0,0,0-5.608-.289.846.846,0,0,1-.84-.586.855.855,0,0,1,.324-.971c2.787-1.945,5.492-4.147,8.108-6.275l1.489-1.209a.855.855,0,0,1,1.086.008,15.712,15.712,0,0,0,3.8,2.336c.4.175.724.3,1.048.422a.859.859,0,0,1,.536.606,1.7,1.7,0,0,0,.351.719,3.219,3.219,0,0,0,3,1.267,4.281,4.281,0,0,0,1.873-.748,2.871,2.871,0,0,0,.269-.213.865.865,0,0,1,.655-.2l.593.059c.971.094,1.94.161,2.9.225a.876.876,0,0,1,.7.428.859.859,0,0,1,.037.809c-.008.015-.021.041-.035.066a27.225,27.225,0,0,1-1.788,2.923,10.033,10.033,0,0,1-2.34,2.34,12.8,12.8,0,0,1-2.285,1.3A.86.86,0,0,1,71.766,70.727Zm-16.55-5.065c1.034.048,2.106.14,3.235.279.394.049.785.1,1.178.159,1.9.278,3.907.676,6.122,1.217q1.492.364,2.98.779t2.97.861a10.913,10.913,0,0,0,1.7-1,8.326,8.326,0,0,0,1.95-1.945c.343-.48.678-1,1.04-1.618-.55-.04-1.086-.083-1.623-.135l-.26-.027-.125.09a5.993,5.993,0,0,1-2.6,1.034,4.936,4.936,0,0,1-4.547-1.851,3.277,3.277,0,0,1-.577-.98c-.219-.086-.436-.175-.652-.268a18.225,18.225,0,0,1-3.746-2.189l-.951.773C59.331,62.454,57.3,64.1,55.216,65.662Z" transform="translate(-18.917 -29.834)" fill="#8d6e63"/>
        <path id="Trazado_12180" data-name="Trazado 12180" d="M45.44,70.508a.855.855,0,0,1-.76-1.247A20.065,20.065,0,0,0,46.1,65.733a.862.862,0,0,1,.248-.394l5.741-5.181a.864.864,0,0,1,.723-.206c.07.011.139.022.214.03.971.112,1.913-.1,2.247-2.43a.853.853,0,0,1,.274-.513l4.706-4.247a.856.856,0,0,1,1.2.057,2.075,2.075,0,0,0,1.353.775,1.152,1.152,0,0,0,.631-.18.631.631,0,0,0,.227-.415,1.758,1.758,0,0,0-.338-1.268,2.129,2.129,0,0,0-.245-.278.857.857,0,0,1,.015-1.257l2.991-2.7a.856.856,0,0,1,1.405.436,9.469,9.469,0,0,1,.285,4.126A14.445,14.445,0,0,1,66.4,55.629l-.258.524a.848.848,0,0,1-.259.313l-.74.549c-1.987,1.465-3.942,3.056-5.835,4.595-1.271,1.034-2.543,2.068-3.835,3.077-.968.755-1.938,1.476-2.884,2.145l-.1.066c-1.456,1.023-2.8,1.886-4.133,2.654a.9.9,0,0,1-.205.084,18.789,18.789,0,0,0-2.391.808A.844.844,0,0,1,45.44,70.508Zm2.5-1.7h0Zm-.267-2.358q-.267.866-.61,1.718.27-.08.546-.156c1.257-.729,2.528-1.546,3.881-2.5l.611.616-.493-.7c.924-.651,1.872-1.355,2.818-2.094,1.283-1,2.546-2.028,3.809-3.055,1.907-1.551,3.88-3.155,5.9-4.644l.57-.423.17-.346a12.953,12.953,0,0,0,1.234-3.129,5.607,5.607,0,0,0,.013-1.936l-1.272,1.148a3.443,3.443,0,0,1,.5,2.377,2.3,2.3,0,0,1-.956,1.533,2.642,2.642,0,0,1-1.608.472,3.281,3.281,0,0,1-1.967-.749l-3.9,3.521c-.566,3.2-2.435,3.722-3.975,3.588Z" transform="translate(-19.926 -31.356)" fill="#8d6e63"/>
        <path id="Trazado_12181" data-name="Trazado 12181" d="M42,90.873a.865.865,0,0,1-.352-.076,53.338,53.338,0,0,0-8.42-2.9,53.523,53.523,0,0,0-8.275-1.452.856.856,0,0,1-.488-1.486L37.528,73.171a.883.883,0,0,1,.261-.161q.729-.287,1.461-.568c.4-.154.8-.3,1.2-.453l3.6-1.3a.853.853,0,0,1,.715.062c.016.009.021.016.021.023l.078-.062c.214-.168.343-.266.472-.36l.3-.221a.876.876,0,0,1,.193-.1l.489-.192q.669-.26,1.327-.536c1.14-.477,2.116-.932,2.983-1.389l.872-.48a.859.859,0,0,1,.2-.081c.453-.118.915-.219,1.38-.308s.933-.16,1.407-.22c.4-.052.816-.095,1.23-.128s.83-.055,1.248-.071c.218-.008.437-.013.657-.015a34.9,34.9,0,0,1,3.987.184l.671.071c.373.043.741.09,1.11.14s.74.108,1.113.169c.416.067.835.141,1.253.218s.84.161,1.259.248q1.256.26,2.516.57h0q.787.192,1.575.4t1.57.429a.855.855,0,0,1,.068,1.624,17.3,17.3,0,0,0-2.924,1.429,23.425,23.425,0,0,0-2.773,1.993q-.257.214-.492.446a11.357,11.357,0,0,0-1.264,1.5.854.854,0,0,1-.975.307c-.733-.256-1.472-.513-2.208-.764-1.16-.4-2.323-.78-3.483-1.13-1.581-.478-2.985-.843-4.291-1.112a24.057,24.057,0,0,0-5.731-.564,15.679,15.679,0,0,0-1.87.175c-.136.022-.271.044-.406.07q.274.169.559.333a19.147,19.147,0,0,0,2.86,1.336A24.546,24.546,0,0,0,55,75.928c1.44.193,2.874.3,4.582.4l.745.043c.825.047,1.647.094,2.467.153l.6.044a.855.855,0,0,1,.648,1.322c-.154.237-.313.476-.473.71A14.28,14.28,0,0,1,61.6,80.98a10.627,10.627,0,0,1-1.251,1,14.819,14.819,0,0,1-3.536,1.72c-1.4.486-2.878.843-4.312,1.191l-1.015.248a28.326,28.326,0,0,0-4.24,1.321.857.857,0,0,1-.917-.161l.443-.756-.579.63c-3.7-3.406-7.6-6.426-11.247-5.8,1.045,3.029,4.182,3.979,7.771,5.067.781.237,1.476.449,2.163.68a.856.856,0,0,1,.22,1.51,8.89,8.89,0,0,0-1.021.826,4.472,4.472,0,0,0-.51.583,8.563,8.563,0,0,0-.8,1.356A.856.856,0,0,1,42,90.873ZM27.018,84.961a52.871,52.871,0,0,1,6.645,1.28,56.6,56.6,0,0,1,7.953,2.673,8.349,8.349,0,0,1,.578-.893,6.212,6.212,0,0,1,.65-.753l-.533-.163c-4.129-1.251-8.306-2.518-9.257-7.18a.845.845,0,0,1,.023-.431Zm8.926-6.388c3.821,0,7.59,2.851,11.147,6.1a32.691,32.691,0,0,1,3.985-1.2l1.024-.25c1.394-.338,2.836-.687,4.151-1.143a13.193,13.193,0,0,0,3.131-1.517,8.825,8.825,0,0,0,1.048-.836,11.135,11.135,0,0,0,1.349-1.561q-.775-.048-1.549-.091l-.749-.042c-1.746-.1-3.216-.211-4.711-.411a26.118,26.118,0,0,1-5.614-1.342c-.314-.115-.623-.238-.931-.368q.056.072.113.147a3.461,3.461,0,0,1,.634,2.567,2.3,2.3,0,0,1-.957,1.535,2.785,2.785,0,0,1-1.607.472,2.9,2.9,0,0,1-.54-.063,4.142,4.142,0,0,1-2.289-1.539,3.191,3.191,0,0,1-.689-2.418,2.489,2.489,0,0,1,.957-1.708h0a2.3,2.3,0,0,1,1.634-.411c-.589-.36-1.158-.749-1.7-1.16a.85.85,0,0,1-.335-.609l-2.4.867c-.4.146-.789.293-1.182.445q-.655.252-1.305.506l-4.834,4.363A7.39,7.39,0,0,1,35.944,78.573ZM44.85,76.3a.818.818,0,0,0-.262.545,1.493,1.493,0,0,0,.321,1.115,2.486,2.486,0,0,0,1.307.942.938.938,0,0,0,.241.027,1.02,1.02,0,0,0,.6-.179.623.623,0,0,0,.228-.416,1.753,1.753,0,0,0-.337-1.266,1.726,1.726,0,0,0-.887-.658,1.43,1.43,0,0,0-.189-.043.867.867,0,0,1-.24-.065A.772.772,0,0,0,44.85,76.3Zm4.409-5.253a26.8,26.8,0,0,1,5.423.611c1.359.279,2.812.656,4.443,1.15,1.178.358,2.361.746,3.54,1.149q.814.279,1.627.562a11.929,11.929,0,0,1,1.068-1.208c.189-.187.39-.371.6-.544a25.1,25.1,0,0,1,2.975-2.138q.489-.3.982-.559c-.265-.067-.527-.133-.791-.2h0c-.819-.2-1.64-.388-2.458-.557q-.613-.128-1.223-.241t-1.216-.212c-.358-.058-.718-.112-1.075-.163s-.713-.094-1.068-.135l-.648-.068a33.322,33.322,0,0,0-3.8-.175c-.208,0-.411.007-.616.014-.395.015-.786.036-1.173.067s-.768.068-1.148.119c-.443.056-.877.123-1.307.205-.394.073-.781.16-1.165.256l-.807.444c-.915.483-1.936.958-3.123,1.456l-.536.221c.253-.021.512-.034.772-.043Q48.9,71.043,49.259,71.043Zm-4.526-.221,0,0Z" transform="translate(-22.797 -28.639)" fill="#8d6e63"/>
        <path id="Trazado_12182" data-name="Trazado 12182" d="M32.045,96.44a.858.858,0,0,1-.574-.22l-.52-.469c-.721-.64-1.467-1.281-2.236-1.9a.855.855,0,0,1-.318-.6,7.976,7.976,0,0,0-1.481-3.973,13.036,13.036,0,0,0-3.561-3.415.857.857,0,0,1-.341-.991.84.84,0,0,1,.876-.577,57.57,57.57,0,0,1,9.243,1.415A57.959,57.959,0,0,1,41,88.243h0l.681.276a.856.856,0,0,1,.457,1.145A9.908,9.908,0,0,1,40.317,92.6a13.252,13.252,0,0,1-6.854,3.531c-.313.078-.629.154-.95.227l-.27.062A.842.842,0,0,1,32.045,96.44Zm-1.977-3.694c.629.512,1.294,1.079,2.02,1.727l.2.178c.262-.06.514-.121.765-.184a11.726,11.726,0,0,0,6.038-3.062A6.6,6.6,0,0,0,40.2,89.765a56.412,56.412,0,0,0-7.466-2.4A52.433,52.433,0,0,0,26.6,86.276,13.812,13.812,0,0,1,28.321,88.3,9.757,9.757,0,0,1,30.068,92.746Z" transform="translate(-22.968 -26.15)" fill="#8d6e63"/>
      </g>
    </g>
  </g>
</svg>
