<svg xmlns="http://www.w3.org/2000/svg" width="100" height="100.168" viewBox="0 0 100 100.168">
  <g id="Grupo_4486" data-name="Grupo 4486" transform="translate(-111.843 -2286.061)">
    <g id="Grupo_3197" data-name="Grupo 3197" transform="translate(111.843 2286.061)">
      <ellipse id="Elipse_665" data-name="Elipse 665" cx="49.919" cy="49.944" rx="49.919" ry="49.944" transform="translate(0 99.838) rotate(-89.935)" fill="#ffe082"/>
      <path id="Trazado_12189" data-name="Trazado 12189" d="M45.679,109.981a2.228,2.228,0,0,1-2.11-1.42c-1.743-4.971-.613-9.835.48-14.539.44-1.891.894-3.848,1.137-5.747.191-1.489.234-3.037.276-4.532a32.516,32.516,0,0,1,.744-7.155c.3-1.193.7-2.521,1.186-3.95-.107-.366-.227-.723-.357-1.067a1.769,1.769,0,0,1-.974-.77,2.167,2.167,0,0,0-.622-.682c-1.338-.532-3.166.282-4.781,1l-.5.221A21.621,21.621,0,0,1,33.416,72.9,37.846,37.846,0,0,0,19.709,76.66a1.613,1.613,0,0,1-1.9-.3,1.753,1.753,0,0,1-.3-2.011c1.643-3.179,3.35-6.226,6.168-8.565a14.1,14.1,0,0,1,4.261-2.466,27.018,27.018,0,0,1,2.605-.739A17.981,17.981,0,0,0,33.8,61.549c4-1.848,7.3-1.931,10.374-.259a9.551,9.551,0,0,1,2.374,1.831A35.237,35.237,0,0,0,43.84,59.76c-2.2-2.466-4.857-3.869-8.177-5.218a8.177,8.177,0,0,0-2.284-.687,8.738,8.738,0,0,0-1.052-.007c-.418.011-.835.021-1.249-.009-.469-.037-.924-.094-1.373-.152a9.65,9.65,0,0,0-2.782-.091c-2.511.4-4.871,1.834-7.27,3.394a1.582,1.582,0,0,1-2.034-.262,1.663,1.663,0,0,1-.175-2.124c2.691-3.682,5.741-7.855,10.448-9.748,4.085-1.646,8.535-1.067,12.864,1.669a26.244,26.244,0,0,1,2.219,1.619c.269.211.54.423.814.631a5.67,5.67,0,0,0,2.118.889c.323.088.656.178,1,.289a6.822,6.822,0,0,1,2.465,1.428c-.019-.063-.036-.127-.056-.191a20.174,20.174,0,0,0-.834-2.491,20.913,20.913,0,0,0-6.274-7.772,18.025,18.025,0,0,0-10.529-4.4c-1.491-.087-3.022-.087-4.516-.083l-1.5,0c-.561,0-1.145.021-1.74.046a18.841,18.841,0,0,1-4.348-.159,2.654,2.654,0,0,1-2.388-3.11c.245-1.34,1.449-2.453,2.414-3.346.2-.186.39-.359.55-.52a16.25,16.25,0,0,1,9.336-4.75c8.146-1.182,15.968.843,21.462,5.553a15.664,15.664,0,0,1,5.293,9.876,23.406,23.406,0,0,1-.14,6.881c-.024.962-.07,1.935-.137,2.913q.376-.939.779-1.841c.96-9.024,5.184-18.983,14.2-20.083a13.076,13.076,0,0,1,1.725-.072,10.331,10.331,0,0,0,1.545-.068,7.3,7.3,0,0,0,1.848-.627,13.31,13.31,0,0,1,1.525-.6,9.464,9.464,0,0,1,6.131.4c3.661,1.4,7.167,4.339,10.72,8.995h0a1.7,1.7,0,0,1,.091,1.883,1.608,1.608,0,0,1-1.646.776L89.4,38.02c-2.465-.4-4.93-.81-7.4-1.19-3.371-.516-6.208.235-9.426,1.527a8.536,8.536,0,0,0-3.944,2.9c-.42.559-.821,1.129-1.223,1.7-.621.881-1.263,1.792-1.971,2.662a44.384,44.384,0,0,1-3.5,3.826l-.258.254a6.155,6.155,0,0,1-2.466,1.72,1.765,1.765,0,0,1-.329.156c-.451,1.145-.87,2.332-1.272,3.589l0,.48c0,.421-.018.868-.049,1.331a41.424,41.424,0,0,1,6.8-10.015c3.033-3.182,8.275-5.476,13.356-5.845a14.042,14.042,0,0,1,12.7,5.611c2.472,3.5,4.509,9.013,3.486,13.436a1.588,1.588,0,0,1-1.34,1.233,1.761,1.761,0,0,1-1.788-.851,16.391,16.391,0,0,0-2.707-3.74,8.85,8.85,0,0,0-4.646-2,13.26,13.26,0,0,0-4.795-.337c-.724.124-1.44.322-2.2.529a24.644,24.644,0,0,1-2.466.587c-.911.153-1.8.244-2.654.331a14.225,14.225,0,0,0-5.815,1.442A29.08,29.08,0,0,0,59.245,62.7l-.484.5a1.7,1.7,0,0,1-.518.367,54.806,54.806,0,0,0-2.875,6.468c-.178.47-.347.943-.511,1.419a17.485,17.485,0,0,1,16.59-7.507,10.542,10.542,0,0,1,5.681,2.362,4.8,4.8,0,0,0,2.388,1.334,4.006,4.006,0,0,1,2.772,1.321c3.111,3.543,2.7,9.012,2.376,11.2a1.561,1.561,0,0,1-2.333,1.154,28.8,28.8,0,0,1-6.268-4.774c-2.19-2.17-4.283-2.877-7.006-2.367a24.224,24.224,0,0,0-4.888,1.676c-.71.3-1.42.6-2.137.87a26.415,26.415,0,0,1-4.806,1.185c-.568.1-1.138.205-1.711.324a22.464,22.464,0,0,0-1.483,2.4c-.157.292-.3.586-.436.882-.06.7-.13,1.413-.229,2.135a135.134,135.134,0,0,1-5.776,24.995,1.952,1.952,0,0,1-1.9,1.339ZM49.772,72.7l0,.016-.113.329c-.517,1.5-.937,2.877-1.246,4.1a30.37,30.37,0,0,0-.674,6.66c-.044,1.551-.09,3.156-.294,4.758a60.5,60.5,0,0,1-1.178,5.974c-1.035,4.453-2.013,8.665-.679,12.882a132.823,132.823,0,0,0,5.513-24.084c.1-.751.173-1.488.235-2.218l.172-2.536c.062-1.064.128-2.211.244-3.395l-.214.468.316-1.4c.073-.609.162-1.225.274-1.843l.042-.164q.2-.59.4-1.182l1.386-6.155c.307-1.359.641-2.98.9-4.594l-.735,1.2q-.055.481-.119.973l-.1.345c-.761,1.6-1.478,3.2-2.134,4.749l-.683,1.62,0,.027-.1.259c-.269.671-.529,1.347-.78,2.024Zm20.933-.97a9.567,9.567,0,0,1,6.965,3.193,27.022,27.022,0,0,0,4.86,3.866c.2-2.219.145-5.927-1.958-8.321-.322-.367-.584-.452-1.386-.568a6.86,6.86,0,0,1-3.507-1.829,8.236,8.236,0,0,0-4.5-1.859c-7.1-.853-13.887,3.316-16,9.758.55-.112,1.1-.211,1.643-.307a24.267,24.267,0,0,0,4.4-1.076c.69-.26,1.375-.55,2.058-.838a26.257,26.257,0,0,1,5.355-1.815A11.218,11.218,0,0,1,70.7,71.732Zm-31.14-9.353a11.543,11.543,0,0,0-4.809,1.241A19.885,19.885,0,0,1,31.1,64.79c-.83.206-1.615.4-2.391.676a11.807,11.807,0,0,0-3.566,2.073,20.757,20.757,0,0,0-4.775,6.3A40.617,40.617,0,0,1,33.2,70.627a19.1,19.1,0,0,0,6.047-1.38l.486-.214c1.979-.876,4.443-1.968,6.706-.967l.149.082c.081.051.16.1.235.16A7.678,7.678,0,0,0,43.084,63.3,7.216,7.216,0,0,0,39.565,62.379ZM32.891,51.556c.225,0,.454.007.689.027a10.206,10.206,0,0,1,2.943.845,23.062,23.062,0,0,1,9.02,5.813,26.4,26.4,0,0,1,4.4,6.211c.81-4.013.562-7.087-.759-9.613a5.329,5.329,0,0,0-2.974-2.715c-.31-.1-.609-.181-.9-.26a7.735,7.735,0,0,1-2.9-1.272c-.284-.216-.565-.436-.844-.655a24.209,24.209,0,0,0-2.028-1.484c-2.57-1.626-6.528-3.2-10.795-1.482-3.08,1.239-5.452,3.744-7.506,6.369a16.148,16.148,0,0,1,5.327-2A11.469,11.469,0,0,1,30,51.426c.411.051.827.1,1.257.139a9.889,9.889,0,0,0,1.007,0C32.467,51.563,32.677,51.556,32.891,51.556ZM78.91,43.348c-.339,0-.682.013-1.028.038-4.546.331-9.2,2.35-11.869,5.145A42.64,42.64,0,0,0,58.56,60.137a26.665,26.665,0,0,1,5.812-4.766,16.2,16.2,0,0,1,6.705-1.724c.82-.083,1.669-.171,2.507-.313a22.26,22.26,0,0,0,2.238-.536c.778-.214,1.582-.435,2.42-.578a15,15,0,0,1,5.622.348,11.063,11.063,0,0,1,5.784,2.586,15.2,15.2,0,0,1,2.24,2.81,17.949,17.949,0,0,0-3.333-9.923A11.6,11.6,0,0,0,78.91,43.348ZM18.409,55.08h0ZM27.67,34.162c1.361,0,2.757.008,4.143.088a20.189,20.189,0,0,1,11.826,4.9,23.151,23.151,0,0,1,6.936,8.635,22.55,22.55,0,0,1,.937,2.774,10.364,10.364,0,0,0,1.807,4.066c-.009-.22-.018-.439-.03-.659l0-.1.011-.1c.294-2.349.471-4.7.528-6.978l.014-.143a21.324,21.324,0,0,0,.147-6.289,13.411,13.411,0,0,0-4.521-8.465c-4.991-4.279-12.15-6.113-19.648-5.028a14.029,14.029,0,0,0-8.048,4.106c-.18.179-.391.375-.616.584-.641.592-1.61,1.489-1.719,2.081-.017.092-.062.333.584.46a17.123,17.123,0,0,0,3.816.117q.945-.038,1.843-.047l1.489,0Zm44.9-4.05a11.208,11.208,0,0,0-1.351.056C63.477,31.112,59.829,40.206,59,48.4l-.018.184-.078.17-.183.411a5.294,5.294,0,0,0,1.355-1.093l.274-.269a42.494,42.494,0,0,0,3.32-3.631c.657-.808,1.249-1.646,1.874-2.535.414-.589.829-1.177,1.263-1.756a10.8,10.8,0,0,1,4.919-3.64,19.5,19.5,0,0,1,10.623-1.667c2.477.381,4.95.787,7.423,1.193l1.875.307c-2.942-3.591-5.81-5.89-8.738-7.006a7.322,7.322,0,0,0-4.655-.346,11.371,11.371,0,0,0-1.27.5,9.164,9.164,0,0,1-2.446.8,13.59,13.59,0,0,1-1.866.09Z" transform="translate(-1.792 -9.813)" fill="#8d6e63"/>
      <g id="Grupo_3195" data-name="Grupo 3195" transform="translate(84.222 59.862)">
        <rect id="Rect치ngulo_883" data-name="Rect치ngulo 883" width="1.038" height="10.378" transform="translate(1.645 2.094)" fill="#8d6e63"/>
        <path id="Trazado_12190" data-name="Trazado 12190" d="M77.517,67.533h4.151l-2.076-3.459Z" transform="translate(-77.517 -64.073)" fill="#8d6e63"/>
      </g>
      <g id="Grupo_3196" data-name="Grupo 3196" transform="translate(92.325 39.292)">
        <rect id="Rect치ngulo_884" data-name="Rect치ngulo 884" width="1.038" height="10.378" transform="translate(1.645 2.094)" fill="#8d6e63"/>
        <path id="Trazado_12191" data-name="Trazado 12191" d="M84.621,49.5h4.151L86.7,46.041Z" transform="translate(-84.621 -46.041)" fill="#8d6e63"/>
      </g>
    </g>
  </g>
</svg>
