<svg xmlns="http://www.w3.org/2000/svg" width="100" height="99.951" viewBox="0 0 100 99.951">
  <g id="Grupo_4488" data-name="Grupo 4488" transform="translate(-112.481 -2577.717)">
    <g id="Grupo_3209" data-name="Grupo 3209" transform="translate(112.481 2577.717)">
      <ellipse id="Elipse_667" data-name="Elipse 667" cx="49.919" cy="49.944" rx="49.919" ry="49.944" transform="translate(0 99.838) rotate(-89.935)" fill="#ffe082"/>
      <g id="Grupo_3204" data-name="Grupo 3204" transform="translate(34.918 37.044)">
        <path id="Trazado_12217" data-name="Trazado 12217" d="M45.5,93.8a.905.905,0,0,1-.646-.267l-6.882-6.882a.913.913,0,0,1,0-1.29l6.687-6.687.415-2.075a3.356,3.356,0,0,1,3.281-2.691H49.8a.911.911,0,0,1,.645.267l6.883,6.884a.913.913,0,0,1,0,1.29L46.144,93.535A.9.9,0,0,1,45.5,93.8Zm-5.592-7.795L45.5,91.6l9.894-9.892-5.969-5.972H48.355a1.524,1.524,0,0,0-1.491,1.225l-.47,2.345a.917.917,0,0,1-.25.467Z" transform="translate(-35.273 -39.479)" fill="#8d6e63"/>
        <path id="Trazado_12218" data-name="Trazado 12218" d="M42.358,94.855a3.325,3.325,0,0,1-2.366-.98l-3.44-3.44a3.349,3.349,0,0,1,0-4.732l1.72-1.72a.911.911,0,0,1,1.29,0l6.882,6.882a.91.91,0,0,1,0,1.29l-1.72,1.72A3.323,3.323,0,0,1,42.358,94.855Zm-3.442-8.937-1.075,1.075a1.522,1.522,0,0,0,0,2.15l3.44,3.443a1.561,1.561,0,0,0,2.151,0L44.51,91.51Z" transform="translate(-35.573 -38.099)" fill="#8d6e63"/>
        <path id="Trazado_12219" data-name="Trazado 12219" d="M44.651,85.646A.912.912,0,0,1,44,84.089l.86-.86a.912.912,0,0,1,1.29,1.29l-.86.86A.91.91,0,0,1,44.651,85.646Z" transform="translate(-34.424 -38.205)" fill="#8d6e63"/>
        <path id="Trazado_12220" data-name="Trazado 12220" d="M47.668,82.63a.913.913,0,0,1-.646-1.558l.86-.86a.912.912,0,0,1,1.29,1.29l-.86.861A.91.91,0,0,1,47.668,82.63Z" transform="translate(-33.999 -38.63)" fill="#8d6e63"/>
        <path id="Trazado_12221" data-name="Trazado 12221" d="M55.3,86.867a.912.912,0,0,1-.645-.268l-6.883-6.883a.915.915,0,0,1-.029-1.262L60.3,64.7l5.721-9.534c2.177-3.629,4.025-6.292,6.508-8.358a13.411,13.411,0,0,1,8.57-3.078A14.1,14.1,0,0,1,91.442,48.28a.911.911,0,0,1-.011,1.249L55.963,86.586a.914.914,0,0,1-.649.282Zm-5.622-7.825L55.29,84.65,89.5,48.907a12.26,12.26,0,0,0-8.4-3.355,11.434,11.434,0,0,0-7.4,2.654c-2.285,1.9-4.031,4.432-6.11,7.9l-5.769,9.613a.94.94,0,0,1-.107.146Z" transform="translate(-33.893 -43.727)" fill="#8d6e63"/>
        <path id="Trazado_12222" data-name="Trazado 12222" d="M51.416,79.877a.913.913,0,0,1-.671-1.531L59,69.406a.913.913,0,0,1,1.342,1.238l-8.253,8.941A.91.91,0,0,1,51.416,79.877Z" transform="translate(-33.472 -40.154)" fill="#8d6e63"/>
      </g>
      <g id="Grupo_3208" data-name="Grupo 3208" transform="translate(13.93 16.067)">
        <g id="Grupo_3206" data-name="Grupo 3206" transform="translate(0 8.765)">
          <g id="Grupo_3205" data-name="Grupo 3205">
            <path id="Trazado_12223" data-name="Trazado 12223" d="M41.928,50.446a1.01,1.01,0,0,1-.77-.355c-.193-.225-4.7-5.594-3.983-12.629a1.012,1.012,0,0,1,1.006-.91h2.312a.135.135,0,0,0,.135-.135V35.179a.135.135,0,0,0-.135-.136H26.862A6.3,6.3,0,0,0,22.385,36.9l-2.042,2.043,1.208.164c2.689.367,4.816,2.879,5.825,5.291h3.393l.276-1.766c0-.027.01-.055.016-.082a3.036,3.036,0,0,1,1.279-1.823l1.73-1.287a1.011,1.011,0,1,1,1.207,1.623l-1.754,1.305-.055.038a1.021,1.021,0,0,0-.431.586l-.4,2.572a1.011,1.011,0,0,1-1,.856H26.675a1.009,1.009,0,0,1-.959-.692c-.676-2.036-2.463-4.346-4.439-4.617l-3.228-.44a1.012,1.012,0,0,1-.578-1.718l3.484-3.484a8.3,8.3,0,0,1,5.908-2.447H40.493a2.16,2.16,0,0,1,2.158,2.158v1.238a2.161,2.161,0,0,1-2.158,2.158H39.129a16.689,16.689,0,0,0,3.568,10.2,1.011,1.011,0,0,1-.769,1.668Z" transform="translate(-17.174 -33.021)" fill="#8d6e63"/>
            <path id="Trazado_12224" data-name="Trazado 12224" d="M31.067,49.37H25.174a1.94,1.94,0,0,1-1.937-1.937v-2.5A1.939,1.939,0,0,1,25.174,43h5.893A1.939,1.939,0,0,1,33,44.934v2.5A1.94,1.94,0,0,1,31.067,49.37Zm-5.806-2.024h5.72V45.021h-5.72Z" transform="translate(-16.321 -31.617)" fill="#8d6e63"/>
            <path id="Trazado_12225" data-name="Trazado 12225" d="M40.724,89.178H20.587A3.186,3.186,0,0,1,17.4,86V63.348a4.323,4.323,0,0,1,.757-2.454,23.684,23.684,0,0,0,3.881-9.761,3.138,3.138,0,0,1,.917-1.825l2.255-2.21a1.012,1.012,0,0,1,1.416,1.445l-2.255,2.21a1.105,1.105,0,0,0-.327.642A25.765,25.765,0,0,1,19.83,62.039a2.306,2.306,0,0,0-.4,1.31V86a1.161,1.161,0,0,0,1.16,1.16H40.724A1.161,1.161,0,0,0,41.884,86V64.64a2.344,2.344,0,0,0-.7-1.662c-.753-.755-1.458-1.448-2.08-2.059-4.048-3.98-5.9-5.8-5.407-9.129.167-1.132-.164-1.4-.29-1.5l-2.085-1.681A1.012,1.012,0,0,1,32.6,47.035l2.084,1.68A3.4,3.4,0,0,1,35.7,52.084c-.326,2.218.816,3.452,4.823,7.393.625.614,1.334,1.31,2.093,2.072a4.349,4.349,0,0,1,1.289,3.091V86A3.185,3.185,0,0,1,40.724,89.178Z" transform="translate(-17.142 -31.08)" fill="#8d6e63"/>
          </g>
          <path id="Trazado_12226" data-name="Trazado 12226" d="M41.8,80.911H27.865a3.991,3.991,0,0,1-3.874-4.088V67.109a3.99,3.99,0,0,1,3.874-4.087H41.8a1.011,1.011,0,1,1,0,2.023H27.865a1.969,1.969,0,0,0-1.851,2.065v9.713a1.969,1.969,0,0,0,1.851,2.065H41.8a1.012,1.012,0,1,1,0,2.024Z" transform="translate(-16.215 -28.799)" fill="#8d6e63"/>
        </g>
        <g id="Grupo_3207" data-name="Grupo 3207" transform="translate(26.999)">
          <path id="Trazado_12227" data-name="Trazado 12227" d="M58.133,36.585H44.445a1.011,1.011,0,1,1,0-2.023H58.133a1.011,1.011,0,1,1,0,2.023Z" transform="translate(-40.478 -24.04)" fill="#8d6e63"/>
          <path id="Trazado_12228" data-name="Trazado 12228" d="M41.855,33.3a1.012,1.012,0,0,1-.422-1.932L54.4,25.429a1.012,1.012,0,0,1,.842,1.84L42.275,33.2A1,1,0,0,1,41.855,33.3Z" transform="translate(-40.842 -25.338)" fill="#8d6e63"/>
          <path id="Trazado_12229" data-name="Trazado 12229" d="M54.428,47.891a1.016,1.016,0,0,1-.534-.153L41.627,40.114A1.011,1.011,0,0,1,42.695,38.4l12.267,7.625a1.011,1.011,0,0,1-.534,1.871Z" transform="translate(-40.799 -23.521)" fill="#8d6e63"/>
        </g>
      </g>
    </g>
  </g>
</svg>
