<svg xmlns="http://www.w3.org/2000/svg" xmlns:xlink="http://www.w3.org/1999/xlink" width="430.783" height="424.667" viewBox="0 0 430.783 424.667">
  <defs>
    <clipPath id="clip-path">
      <rect id="Rect치ngulo_888" data-name="Rect치ngulo 888" width="430.783" height="393.435" fill="none"/>
    </clipPath>
  </defs>
  <g id="Grupo_3226" data-name="Grupo 3226" transform="translate(-497.368 -237.224)">
    <rect id="Rect치ngulo_887" data-name="Rect치ngulo 887" width="375.677" height="31.655" transform="translate(517.164 630.236)" fill="#966238"/>
    <g id="Grupo_3217" data-name="Grupo 3217" transform="translate(497.368 237.224)">
      <g id="Grupo_3216" data-name="Grupo 3216" clip-path="url(#clip-path)">
        <path id="Trazado_12230" data-name="Trazado 12230" d="M923.035,489.784c-5.637-16.794-14.514-21.906-22.958-32.678-10.312-13.158-17.268-22.721-14.59-39.644,4.375-27.653,6.248-96.62-62.26-87.605-24.555,3.231-43.959,23.339-58.075,43.412-12.012,17.079-33.618,18.585-51.009,22.567-21.368,4.893-43.136,12.282-62.905,23.111-40.716,22.3-52.878,54.36-51.217,95.379.5,12.392,2.143,31.912,21.733,54.754,26.441,30.829,64.863,34.957,111.108,20.8,10.585-3.24,20.591-8.324,31-12.151a138.325,138.325,0,0,1,33.461-7.764c26.56-2.744,54.093,2.219,79.572-6.255a83.325,83.325,0,0,0,35.589-23.586A50.949,50.949,0,0,0,923.035,489.784Z" transform="translate(-526.401 -263.232)" fill="#69cfc5" opacity="0.46"/>
        <g id="Grupo_3215" data-name="Grupo 3215" transform="translate(-52.219 -345.956)">
          <g id="Grupo_3211" data-name="Grupo 3211" transform="translate(360.07 503.056)">
            <path id="Trazado_12231" data-name="Trazado 12231" d="M958.747,675.185a25.681,25.681,0,0,1-.507-8.853c.965-6.946,6.2-10.76,9.591-16.665,2.747-4.775,4.053-10.053,5.211-15.2.626-2.79,1.957-5.512,2.713-8.276a1.111,1.111,0,0,1,.828.89c1.382,8.2,2.291,17.058-1.2,25.175-1.723,4.008-4.438,7.667-6.583,11.508a37.512,37.512,0,0,0-4.653,16.1c-.08,1.181-2.023,1.034-2.026-.1a37.922,37.922,0,0,1,1.143-9.309c-.48,1.094-.933,2.194-1.425,3.284A2.684,2.684,0,0,1,958.747,675.185Z" transform="translate(-935.701 -504.493)" fill="#b5d61d"/>
            <path id="Trazado_12232" data-name="Trazado 12232" d="M946.965,516.395A555.289,555.289,0,0,1,958.6,586.42a1.118,1.118,0,0,0,2.2.074,94.511,94.511,0,0,0-10.131-66.172c-.521-1.478-1.047-2.954-1.593-4.425C948.664,514.775,946.678,515.154,946.965,516.395Z" transform="translate(-932.553 -473.066)" fill="#94c024"/>
            <path id="Trazado_12233" data-name="Trazado 12233" d="M927.977,655.119c2.623-5.805,8.094-9.923,11.043-15.615,3.24-6.254,4.894-13.145,6-20.061,2.541-15.939,3.483-32.27,4.688-48.352q3.55-47.362,5.255-94.791-.557-8.736-1.162-17.457a1.82,1.82,0,0,1,1.879-1.978c.409-.677,1.631-.642,1.625.323,0,.153,0,.3,0,.457a1.864,1.864,0,0,1,.31.92c2.409,32.927,5.016,65.791,4.139,98.84q-.4,14.938-1.8,29.784-.092,3.511-.187,7.021c-.333,12.538-2.376,26.348-.092,38.749.956,5.191,3.312,9.726,4.672,14.265a16.831,16.831,0,0,1,1.392,13.418c-3.047,9.238-12.742,12.668-21.642,11.688a1.917,1.917,0,0,1-1.1-.473,33.063,33.063,0,0,1-4.341-.265,2.056,2.056,0,0,1-1.555-1.073C930.036,668.926,924.4,663.039,927.977,655.119Z" transform="translate(-926.869 -456.404)" fill="#80af1b"/>
            <path id="Trazado_12234" data-name="Trazado 12234" d="M964.341,716.48c-1.36-4.539-3.716-9.074-4.672-14.266-.079-.429-.141-.864-.21-1.3-4.961,8.291-13.813,11.892-23.475,12.425-2.82,3.607-6.137,6.891-8.007,11.031-3.577,7.92,2.06,13.807,9.122,15.4a2.054,2.054,0,0,0,1.555,1.073,33.021,33.021,0,0,0,4.341.265,1.917,1.917,0,0,0,1.1.473c8.9.98,18.595-2.45,21.642-11.688A16.831,16.831,0,0,0,964.341,716.48Z" transform="translate(-926.869 -525.659)" fill="#adad1c"/>
            <path id="Trazado_12235" data-name="Trazado 12235" d="M945.123,596.682c.879,4.294,1.748,8.613,2.548,12.951a2.161,2.161,0,0,0,.058.471q.059.247.12.5c3.055,16.811,4.941,33.886,1.75,50.8a1.3,1.3,0,0,0,2.539.5,153.683,153.683,0,0,0,4.387-28.168,1.572,1.572,0,0,0,.123-.733c-.017-.229-.049-.457-.069-.686.54-15.323-2.322-30.394-11.868-43.487-.888-1.219-3.122-.217-2.44,1.244Q943.787,593.323,945.123,596.682Z" transform="translate(-931.195 -493.758)" fill="#80af1b"/>
          </g>
          <g id="Grupo_3213" data-name="Grupo 3213" transform="translate(153.906 191.555)">
            <g id="Grupo_3212" data-name="Grupo 3212" transform="translate(0 0)">
              <path id="Trazado_12236" data-name="Trazado 12236" d="M764.5,253.4c-10.588-1.669-19.962-.793-29.8,3.5-5.945,2.593-11.1,4.789-17.772,3.9-4.714-.625-8.116-.849-12.292,1.852-16.338,10.572-23.895,32.42-26.289,50.71a2.305,2.305,0,0,0,2.917,2.661,150.083,150.083,0,0,0,38.337-15.083c15.582-8.611,29.665-10.238,45.971-2.118,12.527,6.237,22.785,16.052,33.944,24.331,10.761,7.984,22.653,12.371,34.266,18.752a1.449,1.449,0,0,0,2.035-1.464c1.785.191,3.265-1.671,3.26-3.317C838.981,294.656,805.763,259.911,764.5,253.4Z" transform="translate(-650.31 -87.181)" fill="#6a9d13"/>
              <path id="Trazado_12237" data-name="Trazado 12237" d="M1105.236,411.53c-4.756-17.943-10.036-35.658-21.605-50.551a70.523,70.523,0,0,0-18.134-16.657c-9.729-6.088-20.256-9.567-29.508-16.607-14.714-11.2-30.722-17.909-49.359-12.548-16.769,4.823-29.139,18.743-33.231,35.486-.844,3.449,3.745,4.787,5.8,2.608a17.733,17.733,0,0,1,6.932-4.631c11.511-2.319,22.937,7.112,31.964,13.664,9.892,7.181,20.677,11.6,32.252,15.331,26.051,8.4,49.01,19.927,70.408,37.188C1103.164,416.759,1105.93,414.148,1105.236,411.53Z" transform="translate(-728.191 -104.366)" fill="#789714"/>
              <path id="Trazado_12238" data-name="Trazado 12238" d="M1126.045,271.2c-10.417-22.441-21.744-46.551-43.169-60.561-19.922-13.027-43.128-12.509-64.82-4.172-6.28,2.414-12.065,5.642-18.1,8.573-6.8,3.3-12.684,2.718-19.91,3.554-9.3,1.076-17.093,6.432-22.874,13.6-13.654,16.927-16.291,39.322-15.529,60.455-.291,1.777-.6,3.55-.87,5.33a2.9,2.9,0,0,0,1.515,3.144,1.073,1.073,0,0,0,1.163.371,3.306,3.306,0,0,0,3.448-1.8c7.651-15.138,21.32-26.558,34.653-36.617,15.606-11.773,32.813-16.661,51.761-20.3,4.862-.933,9.783-1.849,14.761-1.306,4.181.457,8.2,1.861,12.376,2.364,8.243.991,15.9.525,23.849,3.467,14.56,5.39,26.455,16.564,37.374,27.232C1123.741,276.556,1127.185,273.654,1126.045,271.2Z" transform="translate(-724.633 -72.416)" fill="#6a9d13"/>
              <path id="Trazado_12239" data-name="Trazado 12239" d="M1138.961,140.587c-9.993-15.706-23.533-27.151-40.985-33.752-37.388-14.141-79.765-15.141-115.453,3.942-17.531,9.374-29.916,24.416-36.867,42.969-4.309,11.5-6.181,23.359-6.986,35.356a389.875,389.875,0,0,0-6.292,47.8c-.158,2.271,1.913,4.858,4.428,3.675,15.417-7.253,19.685-24.648,29.067-37.5,11.4-15.616,27.541-27.328,44.748-35.824,20.821-10.281,41.706-15.3,64.861-11.562,10.876,1.755,21.63,4.359,32.393,6.679,10,2.155,21.064,6.18,31.328,6.425,5.055.12,9.789-2.084,9.994-7.739C1149.44,154.356,1142.428,146.037,1138.961,140.587Z" transform="translate(-722.263 -42.914)" fill="#80af1b"/>
              <path id="Trazado_12240" data-name="Trazado 12240" d="M817.563,45.368c-5.528-2.294-11.574-3.165-17.047-5.563-6.466-2.833-10.893-8.076-16.741-11.8-8.542-5.435-18.883-6.862-28.82-5.938-24.257,2.254-47.16,15.891-66.18,30.263-1.855,1.4-1.281,4.8,1.211,5.076,19.9,2.226,39.811,4.314,59.689,6.7,19.76,2.367,34.639,11.087,50.224,23.033,8.461,6.487,14.534,13.584,18.445,23.605,3.544,9.079,6.367,18.362,10.278,27.31a235.037,235.037,0,0,0,12.415,24.532c2.823,4.827,5.35,10.055,10.2,12.716a3.141,3.141,0,0,0,5.791-.983C866.377,131.993,865.208,65.138,817.563,45.368Z" transform="translate(-652.959 -21.809)" fill="#a5c82b"/>
              <path id="Trazado_12241" data-name="Trazado 12241" d="M827.93,239.437c-5.624-26.431-13.618-53.581-27.7-76.877-12.58-20.806-37.606-37.177-60.566-44.039-23.784-7.108-49.457-3.448-68.135,13.54-16.31,14.835-32.505,40.013-32.286,62.642.028,2.821,3.764,3.361,5.37,1.593,6.022-6.637,12.439-13.125,20.15-17.821,9.331-5.683,19.761-6.27,30.4-6.037,9.619.211,19.054.619,28.078,4.3,8.061,3.29,15.382,8.144,23.458,11.409,15.847,6.409,31.525,8.661,44.742,20.513C804,219.921,812.7,234.79,821.472,248.991c1.92,3.106,6.049.647,6.029-2.331-.012-1.989-.122-3.954-.284-5.9A1.162,1.162,0,0,0,827.93,239.437Z" transform="translate(-639.238 -48.229)" fill="#80af1b"/>
              <path id="Trazado_12242" data-name="Trazado 12242" d="M862.361,160.76c-4.649-21.834-12.234-43.126-23.864-62.25-11.416-18.773-25.33-30.612-46.375-37.138-24-7.445-50.272-12.131-74.7-4.129-1.515.5-.609,2.776.9,2.3,15.089-4.724,31.032-3.976,46.367-.816,12.73,2.622,25.984,6.019,37.66,11.834C827.327,83,840.988,111.352,849.641,136.6c19.285,56.27,12.981,117.578,7.447,175.628-.213,2.232,3.179,2.836,3.467.576C866.99,262.286,873.1,211.2,862.361,160.76Z" transform="translate(-661.162 -30.663)" fill="#80af1b"/>
              <path id="Trazado_12243" data-name="Trazado 12243" d="M844.5,308.649a344.849,344.849,0,0,0-6.991-38.771c-5.235-21.324-13.425-41.989-25.606-60.331-21.68-32.645-56.8-56.413-97.193-53.4-21.23,1.585-40.753,10.529-54.473,26.933-1.053,1.259.871,2.78,1.964,1.591,16.653-18.1,41.994-25.987,66.157-23.969,24.772,2.069,46.914,14.8,63.883,32.561,17.527,18.346,29.06,41.185,36.4,65.3a296.448,296.448,0,0,1,9.56,44.69c.989,6.961,1.789,13.946,2.519,20.938.739,7.067.595,14.631,2.809,21.4.6,1.835,3.408,1.431,3.691-.387C849.008,333.686,845.962,320.19,844.5,308.649Z" transform="translate(-645.098 -59.787)" fill="#719716"/>
              <path id="Trazado_12244" data-name="Trazado 12244" d="M813.441,297.728c-16.552-12.745-37.131-20.945-58.174-20.889-10.852.028-22.824,2.006-32.358,7.446-9.72,5.548-15.516,14.828-20.526,24.509-.728,1.408,1.462,2.351,2.219,1,5.853-10.412,13.795-19.682,25.125-24.2,10.1-4.027,21.607-4.777,32.328-3.585,19.951,2.218,38.446,11.291,53.39,24.542C831.731,321,839.982,342.6,845.8,363.426c6.33,22.656,8.073,74.49,6.748,97.7a2.075,2.075,0,0,0,4.091.68C866.784,415.343,851.968,327.394,813.441,297.728Z" transform="translate(-657.081 -94.043)" fill="#7ba819"/>
              <path id="Trazado_12245" data-name="Trazado 12245" d="M1075.654,394.834c-12.559-18.152-30.656-31.313-49.03-43.169-17.59-11.351-38.611-20.62-59.875-15.187-19.254,4.918-31.051,21.873-38.5,39.206-8.908,20.717-15.222,75.758-15.282,98.4-.008,2.949,4.784,3.029,5.156.156,2.7-20.8,5.557-72.076,13.2-91.784,7.2-18.553,18.752-37.56,39.888-41.437,20.832-3.821,40.385,6.372,57.446,17.078,16.619,10.428,33.312,22.184,44.961,38.24A1.265,1.265,0,0,0,1075.654,394.834Z" transform="translate(-716.766 -110.483)" fill="#72870f"/>
              <path id="Trazado_12246" data-name="Trazado 12246" d="M1098.212,256.929c-17.916-17.144-39.38-30.819-65.008-29.964-26.5.884-50.078,15.4-68.477,33.568-19.564,19.323-32.445,41.089-39.428,67.685-7.4,28.182-12.043,90.657-11.031,119.825.11,3.166,5.332,3.36,5.617.169,2.4-26.829,4.083-84.486,9.474-110.974,5.234-25.72,15.3-47.169,33-66.69,17.345-19.134,39.478-35.316,65.8-38.388,26.631-3.11,48.843,10.3,68.49,26.7C1097.893,259.906,1099.355,258.022,1098.212,256.929Z" transform="translate(-717.097 -79.906)" fill="#82aa17"/>
              <path id="Trazado_12247" data-name="Trazado 12247" d="M1109.851,157.871c-17.872-13.745-40.057-17.336-62.106-17.58-12.17-.135-25.289-.35-37.19,2.416-11.339,2.635-21.969,8.638-31.238,15.557-40.63,30.335-55.687,82.443-60.073,130.77-2.99,32.942-3.037,97.411-5.388,130.406-.284,3.979,5.731,5.207,6.224,1.109,6.1-50.713.884-133.643,14.532-183.454,6.165-22.5,17.021-44.05,32.884-61.282a105.941,105.941,0,0,1,27.72-21.859c11.685-6.266,23.47-8.023,36.553-8.666,26.11-1.282,54.171-.9,76.527,14.456C1109.567,160.618,1111.112,158.841,1109.851,157.871Z" transform="translate(-717.017 -55.348)" fill="#719716"/>
              <path id="Trazado_12248" data-name="Trazado 12248" d="M912.4,342.751c-3.284,14.945-3.312,41.759-3.036,51.507.454,16.09-3.774,61.273-5.36,77.255-2.911,29.311-3.661,78.174-1.676,107.576.212,3.135,4.266,3.261,5.6.9,11.87-21,7.451-64.887,9.914-87.845,1.44-13.435,5.735-57.644,5.743-71.219C923.606,388.081,912.842,340.76,912.4,342.751Z" transform="translate(-713.441 -112.694)" fill="#98c40e"/>
              <path id="Trazado_12249" data-name="Trazado 12249" d="M926.87,516.922c-3.831-12.147-19.345-9.871-27.051-2.458-21.732,20.905-17.22,77.842-21.65,104.911-1.194,7.294-2.665,15.194-6.221,21.744-4.479,8.249-13.619,11.226-20.221,17.3-8.959,8.241-10.915,21.355-.477,29.411,20.707,15.979,64.008-10.544,55.305-36.815-1.289-3.888-4.019-6.4-5.906-9.879-3.216-5.938-1.409-14.506-1.079-20.914.577-11.22,1.209-42,1.821-53.214.528-9.709-.366-15.033,1.97-24.535.556-2.263,1.476-6.4,3.36-7.973,7.664-6.42,12.263,8.193,12.867,10.9,2.357,10.54.776,9.733.254,16.114-.125,1.532.944,5.75,1.13,4.191.709-5.923,8.061-11.989,8.2-26.933C929.29,525.476,928.691,522.7,926.87,516.922Z" transform="translate(-697.286 -159.618)" fill="#adad1c"/>
            </g>
            <path id="Trazado_12250" data-name="Trazado 12250" d="M926.435,722.851a8.828,8.828,0,0,1,8.416,5.9c1.256,3.33.9,6.325,3.484,9.175,2.437,2.693,5.934,3.911,9.245,4.967.639.205.368,1.243-.277,1.04-3.909-1.226-8.051-2.753-10.621-6.249-1.352-1.841-1.678-3.837-2.362-5.984-1.361-4.268-3.946-6.472-8.005-7.915A.479.479,0,0,1,926.435,722.851Z" transform="translate(-720.456 -220.368)" fill="#9a9a9a"/>
            <path id="Trazado_12251" data-name="Trazado 12251" d="M848.315,749.371c.215-.521.983-.141.861.375-.956,4.029-6.457,3.887-7.234,8.059-.11.587-.926.4-.96-.134C840.714,753.387,846.922,752.755,848.315,749.371Z" transform="translate(-696.377 -227.811)" fill="#9a9a9a"/>
            <path id="Trazado_12252" data-name="Trazado 12252" d="M932.553,738.58c.542-3.606,3.228-6.9,1.32-10.605-.248-.482.437-.9.71-.429a7.174,7.174,0,0,1,.521,5.857c-1.154,4.305-2.346,7.509-.656,11.946.239.627-.729.886-.972.277A13.3,13.3,0,0,1,932.553,738.58Z" transform="translate(-722.276 -221.641)" fill="#9a9a9a"/>
            <path id="Trazado_12253" data-name="Trazado 12253" d="M918.321,734.926a7.249,7.249,0,0,1,3.347,4.166c.887,2.969-.629,7,2.4,9.007.563.374.044,1.3-.527.931a5.92,5.92,0,0,1-2.517-4.58c-.421-3.4.056-6.517-3.243-8.56C917.181,735.52,917.719,734.562,918.321,734.926Z" transform="translate(-718.057 -223.767)" fill="#9a9a9a"/>
            <path id="Trazado_12254" data-name="Trazado 12254" d="M901.362,747.49c4.1-1.042,6.677,3.937,7.325,7.408.626,3.347.016,6.8,1.329,10.019,1.554,3.8,4.763,5.576,8.1,7.455.434.244.136,1.035-.345.844-3.828-1.526-7.55-4.192-9.237-8.191-.987-2.34-1.223-4.992-1.651-7.486a22.162,22.162,0,0,0-.855-4.006c-1.069-2.851-2.595-3.487-4.8-4.926A.626.626,0,0,1,901.362,747.49Z" transform="translate(-713.362 -227.309)" fill="#9a9a9a"/>
            <path id="Trazado_12255" data-name="Trazado 12255" d="M873.469,784.086c1.955-2.429,4.319-4.628,5.1-7.81.8-3.243-.4-6.507-.824-9.7-.444-3.342-.51-6.585,1.57-9.33.328-.433,1.044.036.882.53-1.852,5.642.315,10.913-.256,16.641-.415,4.165-2.919,7.579-5.86,10.307C873.662,785.113,873.113,784.527,873.469,784.086Z" transform="translate(-705.548 -230.063)" fill="#9a9a9a"/>
            <path id="Trazado_12256" data-name="Trazado 12256" d="M886.911,757.405a.475.475,0,0,1,.914.26c-1.052,5.487,3,9.849,5.516,14.153a17.769,17.769,0,0,1,2.414,9.189.411.411,0,0,1-.821,0c-.158-5.973-3.272-9.24-6.336-13.857C886.558,764.079,885.771,760.95,886.911,757.405Z" transform="translate(-709.239 -230.059)" fill="#9a9a9a"/>
            <path id="Trazado_12257" data-name="Trazado 12257" d="M906.78,747.649a14.037,14.037,0,0,1,6.914,4.718c2.621,3.313,3.125,8,6.963,10.268,4.1,2.427,7.471.169,11.615-.133,2.312-.169,4.405.466,5.566,2.633.238.444-.378,1-.711.567-3-3.871-7.516-.677-11.22-.394a10.27,10.27,0,0,1-6.85-2.017c-2.06-1.524-3.1-3.607-4.155-5.914a17.1,17.1,0,0,0-8.458-8.908C906,748.251,906.313,747.5,906.78,747.649Z" transform="translate(-714.859 -227.388)" fill="#9a9a9a"/>
            <path id="Trazado_12258" data-name="Trazado 12258" d="M846.682,775.636a18.193,18.193,0,0,0,6.233-8.207c.834-2.291,1.006-4.721,1.626-7.064a17.362,17.362,0,0,1,6.383-9.4c.483-.375,1.118.468.65.872a17.573,17.573,0,0,0-5.384,7.7c-.839,2.5-.928,5.181-1.821,7.667a20.251,20.251,0,0,1-7.129,9.413C846.662,777.053,846.12,776.067,846.682,775.636Z" transform="translate(-697.927 -228.307)" fill="#9a9a9a"/>
            <path id="Trazado_12259" data-name="Trazado 12259" d="M840.282,764.306a14.243,14.243,0,0,1,3.875-3.576c2.762-1.675,6.421-2.078,7.72-5.6.22-.6,1.261-.586,1.178.165-.364,3.3-2.725,4.667-5.554,5.755-5.893,2.265-9.192,6.211-9.356,12.875a.435.435,0,0,1-.869,0A14.052,14.052,0,0,1,840.282,764.306Z" transform="translate(-695.32 -229.391)" fill="#9a9a9a"/>
            <path id="Trazado_12260" data-name="Trazado 12260" d="M865.369,778.612c2.492-3.773,3.049-6.76,2.767-11.32-.164-2.656-.027-4.857,1.448-7.083a.523.523,0,0,1,.9.541c-2.009,3.6-.487,7.312-.9,11.144-.3,2.768-1.777,5.05-3.316,7.259C865.881,779.7,864.989,779.187,865.369,778.612Z" transform="translate(-703.26 -230.881)" fill="#9a9a9a"/>
            <path id="Trazado_12261" data-name="Trazado 12261" d="M856.325,772.76c.083-.447.836-.35.778.109-.656,5.144,1.587,8.657,2.67,13.416a17.287,17.287,0,0,1-.762,9.927c-.211.577-1.109.34-.908-.258,1.677-4.982.924-8.969-.863-13.684A16.865,16.865,0,0,1,856.325,772.76Z" transform="translate(-700.637 -234.424)" fill="#9a9a9a"/>
            <path id="Trazado_12262" data-name="Trazado 12262" d="M856.854,791.119c.186-.411.884-.116.718.313-1.6,4.121-7.3,5.784-7.552,10.485-.034.638-1,.644-.965,0C849.3,796.772,854.948,795.326,856.854,791.119Z" transform="translate(-698.665 -239.65)" fill="#9a9a9a"/>
            <path id="Trazado_12263" data-name="Trazado 12263" d="M891.494,770.792c2.166,2.343,5.614,2.865,7.949,5.136a14.12,14.12,0,0,1,4.115,7.537.472.472,0,0,1-.908.259,15.387,15.387,0,0,0-5.518-8.329c-2.032-1.461-4.493-2.1-6.189-4.032C890.608,770.979,891.145,770.415,891.494,770.792Z" transform="translate(-710.5 -233.913)" fill="#9a9a9a"/>
            <path id="Trazado_12264" data-name="Trazado 12264" d="M906.019,766.7c.358-3.534,3.5-6.563,2.759-10.169-.1-.508.627-.725.758-.216a7.715,7.715,0,0,1-.844,5.459c-1.879,4.106-2.12,7.633-.126,11.777a.478.478,0,0,1-.818.494A11.37,11.37,0,0,1,906.019,766.7Z" transform="translate(-714.783 -229.767)" fill="#9a9a9a"/>
            <path id="Trazado_12265" data-name="Trazado 12265" d="M914.36,751.818c3.466,4.254,12.188,2.654,13.432,9.167a.427.427,0,0,1-.821.234c-2.335-5.955-9.929-4.007-13.237-8.9C913.477,751.937,914.068,751.459,914.36,751.818Z" transform="translate(-716.967 -228.538)" fill="#9a9a9a"/>
          </g>
          <path id="Trazado_12266" data-name="Trazado 12266" d="M424.78,160.071l11.654-10.245-10.863,3.757a119.779,119.779,0,0,1,9.659-30.969q.609-1.305,1.235-2.608l17.573-5.9-11.1-5.222a28.409,28.409,0,0,1,9.924-8.573c9.649-4.85,16.838-13.312,25.417-19.76C510.7,56.178,557.2,42.126,597.313,52.945,609.4,56.205,620.967,61.864,632.1,67.5c9.6,4.859,21.778,9.435,28.035,18.654,2.006,2.957-2.889,5.728-4.847,2.733-.125-.191-.279-.357-.411-.543a104.5,104.5,0,0,0-38.113.815c-9.752,2.122-19.6,7.865-29.748,6.6-6.118-.763-10.5-1.59-16.055,1.976-5.086,3.267-9.713,7.412-14.469,11.149-4.465,3.509-9.173,8.093-14.206,11.824l-.268-18.186-9.236,23.572c-.195.072-.388.154-.583.219-4.869,1.631-9.519.629-14.51.73a27.949,27.949,0,0,0-15.1,4.908c-7.153,4.577-13.146,10.789-20.606,14.922-9.521,5.275-19.685,8.043-28.473,14.783-8.409,6.449-15.908,14.286-23.232,21.916a2.091,2.091,0,0,1-3.444-.967A58.8,58.8,0,0,1,424.78,160.071Z" transform="translate(-424.514 161.973)" fill="#80af1b"/>
          <path id="Trazado_12267" data-name="Trazado 12267" d="M436.442,149.827l-10.855,3.754a119.531,119.531,0,0,1,9.651-30.966q.608-1.305,1.235-2.608l17.573-5.9-11.1-5.222a28.408,28.408,0,0,1,9.924-8.573c9.649-4.85,16.838-13.312,25.417-19.76,32.429-24.376,78.924-38.428,119.037-27.609,12.088,3.26,23.654,8.919,34.787,14.552,9.6,4.859,21.779,9.435,28.035,18.655a2.785,2.785,0,0,1,.138.255C644,73.442,616.956,74.589,597.233,71.84c-24.938-3.476-46.817.944-70.418,10-21.08,8.091-33.911,15.512-50.347,31.034-20.16,19.041-24.753,39.67-49.811,69.057a59.5,59.5,0,0,1-1.851-21.88Z" transform="translate(-424.522 161.973)" fill="#94c024"/>
          <path id="Trazado_12268" data-name="Trazado 12268" d="M466.443,146.052c21.68-42.354,69.39-65.024,115.089-69.51C632.914,71.5,687.942,87,717.029,132.4c9.013,14.065,13.007,30.007,14.229,46.363q-4.218-.37-8.44-.665c-.881-11.611-3.294-23.015-8.56-33.912-9.779-20.236-26.264-36.221-46.151-46.536C624.629,75.1,568.3,78.988,524.53,98.722c-23.334,10.52-42.827,26.54-55.736,48.857C467.878,149.163,465.636,147.629,466.443,146.052Z" transform="translate(-436.341 154.501)" fill="#7da51d"/>
          <g id="Grupo_3214" data-name="Grupo 3214" transform="translate(223.014 503.056)">
            <path id="Trazado_12269" data-name="Trazado 12269" d="M754.718,675.185a25.7,25.7,0,0,0,.508-8.853c-.965-6.946-6.2-10.76-9.592-16.665-2.747-4.775-4.053-10.053-5.21-15.2-.627-2.79-1.957-5.512-2.713-8.276a1.113,1.113,0,0,0-.829.89c-1.381,8.2-2.291,17.058,1.2,25.175,1.724,4.008,4.438,7.667,6.583,11.508a37.513,37.513,0,0,1,4.653,16.1c.08,1.181,2.023,1.034,2.027-.1a37.984,37.984,0,0,0-1.143-9.309c.48,1.094.933,2.194,1.424,3.284A2.684,2.684,0,0,0,754.718,675.185Z" transform="translate(-735.654 -504.493)" fill="#b5d61d"/>
            <path id="Trazado_12270" data-name="Trazado 12270" d="M765.9,515.9c-.546,1.471-1.072,2.947-1.594,4.425a94.511,94.511,0,0,0-10.131,66.172,1.118,1.118,0,0,0,2.2-.074,555.432,555.432,0,0,1,11.637-70.026C768.3,515.154,766.314,514.775,765.9,515.9Z" transform="translate(-740.315 -473.066)" fill="#94c024"/>
            <path id="Trazado_12271" data-name="Trazado 12271" d="M777.622,655.119c-2.623-5.805-8.094-9.923-11.043-15.615-3.241-6.254-4.894-13.145-6-20.061-2.54-15.939-3.482-32.27-4.688-48.352q-3.55-47.362-5.256-94.791.557-8.736,1.162-17.457a1.82,1.82,0,0,0-1.878-1.978c-.41-.677-1.631-.642-1.625.323,0,.153,0,.3,0,.457a1.863,1.863,0,0,0-.31.92c-2.408,32.927-5.015,65.791-4.139,98.84q.4,14.938,1.8,29.784.091,3.511.186,7.021c.333,12.538,2.376,26.348.092,38.749-.955,5.191-3.311,9.726-4.672,14.265a16.833,16.833,0,0,0-1.392,13.418c3.048,9.238,12.743,12.668,21.642,11.688a1.919,1.919,0,0,0,1.1-.473,33.059,33.059,0,0,0,4.341-.265,2.055,2.055,0,0,0,1.555-1.073C775.563,668.926,781.2,663.039,777.622,655.119Z" transform="translate(-736.619 -456.404)" fill="#80af1b"/>
            <path id="Trazado_12272" data-name="Trazado 12272" d="M741.258,716.48c1.36-4.539,3.716-9.074,4.672-14.266.08-.429.141-.864.21-1.3,4.961,8.291,13.813,11.892,23.475,12.425,2.82,3.607,6.137,6.891,8.007,11.031,3.577,7.92-2.059,13.807-9.122,15.4a2.055,2.055,0,0,1-1.555,1.073,33.017,33.017,0,0,1-4.341.265,1.919,1.919,0,0,1-1.1.473c-8.9.98-18.594-2.45-21.642-11.688A16.832,16.832,0,0,1,741.258,716.48Z" transform="translate(-736.619 -525.659)" fill="#adad1c"/>
            <path id="Trazado_12273" data-name="Trazado 12273" d="M770.418,596.682c-.879,4.294-1.748,8.613-2.547,12.951a2.21,2.21,0,0,1-.058.471l-.12.5c-3.055,16.811-4.941,33.886-1.75,50.8a1.3,1.3,0,0,1-2.538.5,153.621,153.621,0,0,1-4.387-28.168,1.574,1.574,0,0,1-.122-.733c.017-.229.049-.457.069-.686-.541-15.323,2.322-30.394,11.867-43.487.889-1.219,3.123-.217,2.44,1.244Q771.755,593.323,770.418,596.682Z" transform="translate(-742.235 -493.758)" fill="#80af1b"/>
          </g>
          <path id="Trazado_12274" data-name="Trazado 12274" d="M866.529,177.75a2.653,2.653,0,0,0,4.086-.351c23.617-2.7,47.612-8.471,71.3-5.976,11.741,1.237,21.208-1.646,32.568-3.938,6.3-1.271,12.946-1.663,18.731,1.626,3.413,1.94,5.837,4.043,9.824,4.843,4.708.944,9.688.325,14.458.7a76.951,76.951,0,0,1,16.222,3.053c9.931,3,24.578,8.748,29.7,18.562,2.548,4.884,2.777,10.644,4.5,15.808a50.461,50.461,0,0,0,5.91,11.865c5.271,7.938,12.143,14.6,19.217,20.912a2.856,2.856,0,0,0,4.852-2.526c-1.65-15.461-2.927-30.851-5.683-46.175-1.966-10.936-4.35-21.467-14.3-27.77-2.727-1.729-5.878-3.043-8.074-5.5-2.026-2.264-3.106-5.318-4.564-7.949a60.372,60.372,0,0,0-8.676-11.828c-7.282-7.808-16.283-14.1-25.5-19.4a149.269,149.269,0,0,0-67.716-19.7c-22.528-.963-45.057,3.161-62.509,18.255-15.939,13.786-25.812,32.945-35.236,51.425a3.212,3.212,0,0,0-.351,1.755A1.658,1.658,0,0,0,866.529,177.75Z" transform="translate(-549.314 146.501)" fill="#6a9d13"/>
          <path id="Trazado_12275" data-name="Trazado 12275" d="M870.761,188.646a2.652,2.652,0,0,1-4.086.35,1.664,1.664,0,0,1-1.021-.619c16.62-18.728,48.339-45.031,95.276-44.791,72.816.373,96.893,36.607,111.03,58.39,9.835,15.155,20.112,40.131,25.46,53.938a2.828,2.828,0,0,1-4.225.185c-7.074-6.31-13.946-12.973-19.217-20.912a50.42,50.42,0,0,1-5.91-11.865c-1.728-5.164-1.957-10.923-4.5-15.808-5.121-9.814-19.768-15.565-29.7-18.562a76.962,76.962,0,0,0-16.222-3.053c-4.771-.375-9.751.244-14.459-.7-3.987-.8-6.411-2.9-9.824-4.843-5.785-3.289-12.434-2.9-18.731-1.626-11.361,2.291-20.827,5.175-32.568,3.938C918.374,180.174,894.379,185.945,870.761,188.646Z" transform="translate(-549.461 135.254)" fill="#669114"/>
          <path id="Trazado_12276" data-name="Trazado 12276" d="M839.97,200c13.388-21.123,35.055-37.191,57.358-47.9,46.7-22.423,104.882-19.17,143.387,17.816,20.917,20.093,33.248,46.9,42.936,73.756.535,1.483-2.007,2.424-2.611.958-8.892-21.618-19.127-44.121-34.77-61.761a110.613,110.613,0,0,0-63.334-35.88c-47.415-8.538-101.314,10.652-131.277,48.99a79.078,79.078,0,0,0-16.4,37.393c-2.21,15.43-.4,31.395.06,46.878.082,2.75-4.264,3.073-4.789.419C825.108,253.3,824.482,224.43,839.97,200Z" transform="translate(-538.526 136.83)" fill="#7b9c15"/>
          <path id="Trazado_12277" data-name="Trazado 12277" d="M861-55.368c2.724-6.323,5.91-12.46,7.821-19.1,1.812-6.3,2.407-12.864,4.025-19.207,2.872-11.263,9.269-21.2,15.261-31.019q1.065-1.744,2.144-3.493l14.651,6.172-11.373-11.407c9.756-15.38,20.689-30.384,35.276-41.39.793-.6,1.6-1.173,2.411-1.736l22.04,21L938.837-181.24c17.542-9.546,38.173-13.191,57.3-18.242,6.75-1.782,13.538-3.823,20.562-4.061,6.412-.217,11.829,2.028,17.918,3.575,11.336,2.88,24.655-3.731,34.432,4.546a2.735,2.735,0,0,1,.342,4.216c-.247.268-.5.533-.743.8a37.25,37.25,0,0,1-12.809,20.742c-4.03,3.27-8.722,5.529-12.116,9.545-.768.91-1.467,1.868-2.14,2.845l-18.449-1.447,13.464,9.339c-.743,1.139-1.521,2.255-2.373,3.32-6.007,7.5-14.059,14.526-21.831,20.154-8.588,6.219-19.474,4.921-28.1,10.372-7.286,4.6-11.035,13.2-16.888,19.31-6.826,7.119-15.957,8.527-24.308,13.009C932.822-77.7,928.5-66.236,923.5-56.356A326.288,326.288,0,0,1,906.8-26.367c-11.783,18.239-28.16,36.956-49.442,43.835a2.846,2.846,0,0,1-3.39-2.142C850.615-8.792,851.211-32.647,861-55.368Z" transform="translate(-545.628 233.577)" fill="#88b212"/>
          <path id="Trazado_12278" data-name="Trazado 12278" d="M861-55.368c2.724-6.323,5.911-12.46,7.821-19.1,1.812-6.3,2.407-12.864,4.025-19.206,2.872-11.263,9.269-21.2,15.261-31.02q1.065-1.744,2.143-3.493l14.651,6.172-11.373-11.407c9.756-15.38,20.689-30.384,35.276-41.39.793-.6,1.6-1.173,2.411-1.736l22.04,21L938.837-181.24c17.542-9.546,38.173-13.191,57.3-18.242,6.75-1.781,13.538-3.823,20.563-4.06,6.412-.217,11.829,2.028,17.918,3.575,10.984,2.791,23.828-3.329,33.509,3.817-17.583,14.333-42.5,15.937-63.737,21.407-43.085,11.1-77.235,48.008-100.182,84.488-6.715,10.674-12.13,22.015-18.3,32.991-6.219,11.055-12.153,22.039-16.46,34a242.864,242.864,0,0,0-10.538,40.169c-.52.184-1.028.394-1.554.563a2.845,2.845,0,0,1-3.39-2.142C850.615-8.792,851.21-32.647,861-55.368Z" transform="translate(-545.628 233.577)" fill="#98c40e"/>
          <path id="Trazado_12279" data-name="Trazado 12279" d="M960.14-151.143a180.555,180.555,0,0,1,75.651-28.219c1.76-.231,2.413,2.378.617,2.735-46.484,9.236-87.776,36.667-118.733,72.022-35.087,40.069-55.7,90.343-67.9,141.69-7.368,31.014-12.292,62.821-17.271,94.3-.3,1.873-3.1,1.846-3.015-.143C834.11,26.294,867.871-90.25,960.14-151.143Z" transform="translate(-539.217 226.728)" fill="#83a213"/>
          <path id="Trazado_12280" data-name="Trazado 12280" d="M725.58-241.764c8.83,17.672,12.981,38.325,17.794,57.43,4.6,18.272,9.39,36.6,15.888,54.3,6.549,17.843,15.258,34.795,21.878,52.606,6.055,16.291,7.491,34.22,17.926,48.527a2.624,2.624,0,0,0,3.532.679,1.285,1.285,0,0,0,1.785-.834c13.978-42.963,17.07-91.3,1.22-134.187-13.088-35.415-40.251-70.008-77.015-82.072A2.54,2.54,0,0,0,725.58-241.764Z" transform="translate(-509.712 245.44)" fill="#a7c917"/>
          <path id="Trazado_12281" data-name="Trazado 12281" d="M799.068-28.34C788.633-42.647,787.2-60.577,781.142-76.867c-6.621-17.812-15.329-34.763-21.878-52.606-6.5-17.7-11.286-36.03-15.888-54.3-4.812-19.1-8.965-39.757-17.793-57.43a2.468,2.468,0,0,1,.032-2.261c8.9,5.514,39.094,29.284,60.507,107.392,12.486,45.548,16.519,82.581,17.4,108.455a1.426,1.426,0,0,1-.921-.042A2.624,2.624,0,0,1,799.068-28.34Z" transform="translate(-509.714 244.881)" fill="#98c40e"/>
          <path id="Trazado_12282" data-name="Trazado 12282" d="M749.466-224.431C804.309-150.456,815.508-56.719,814.01,32.8c-.239,14.313-.738,28.622-1.408,42.922-.662,14.134-.794,28.9-3.318,42.837a2.4,2.4,0,0,1-4.781-.226c-.831-11.958.374-24.266.834-36.234.464-12.073,1.017-24.141,1.325-36.22.615-24.125.317-48.26-1.084-72.354-2.588-44.528-9.582-89.642-25.259-131.582a307.825,307.825,0,0,0-33.271-64.68C746.107-224.127,748.461-225.789,749.466-224.431Z" transform="translate(-515.806 239.632)" fill="#90b00c"/>
          <path id="Trazado_12283" data-name="Trazado 12283" d="M463.143-168.141c10.077-7.507,18.853-14.294,30.783-18.713a145.284,145.284,0,0,1,33.026-7.99l24.478,12.692-7.654-13.636a129.625,129.625,0,0,1,34.016,5.161l18.834,17.948-8.186-14.585c5.153,1.786,10.349,3.8,15.659,5.993,45.3,18.732,83.756,55.364,100.859,101.728a152.75,152.75,0,0,1,9.25,42.459c.609,8.856,4.674,15.853,3.191,24.48.193,8.676-.56,17.369-.59,26.042-.009,2.942-3.891,3.358-5.242,1.158a134.851,134.851,0,0,0-24.186-29.421c-4.243-3.817-9.384-6.814-13.289-10.985-3.362-3.59-4.8-8.066-6.8-12.447-5.554-12.169-21.886-28.714-32.423-36.1q-7.54-5.284-15.076-10.577l10.592-3.334-24.149-6.177q-2.12-1.491-4.244-2.977c-20.466-14.4-39.876-27.944-60.276-39.259l7.488-2.357-23.9-6.113a229.885,229.885,0,0,0-60.933-19.571C462.91-164.972,461.611-167,463.143-168.141Z" transform="translate(-435.26 231.376)" fill="#98c40e"/>
          <path id="Trazado_12284" data-name="Trazado 12284" d="M463.165-168.141c10.077-7.507,18.853-14.294,30.782-18.713a145.307,145.307,0,0,1,33.026-7.99l24.478,12.692L543.8-195.788a129.665,129.665,0,0,1,34.016,5.161l18.834,17.948-8.185-14.584c5.152,1.785,10.348,3.8,15.658,5.992,45.3,18.732,83.756,55.364,100.859,101.728a152.728,152.728,0,0,1,9.249,42.459c.609,8.856,4.675,15.853,3.192,24.48.194,8.676-.56,17.369-.59,26.042a2.849,2.849,0,0,1-.1.74c-4.324-18.518-24.088-86.689-89.8-138.585-66.265-52.333-123.649-49.664-164.4-42.818A1.608,1.608,0,0,1,463.165-168.141Z" transform="translate(-435.282 231.377)" fill="#88b212"/>
          <path id="Trazado_12285" data-name="Trazado 12285" d="M527.3-163.488c59.21-1.7,114.5,33.777,152.008,77.206,36.356,42.093,60.828,95.99,65.925,151.564,3.481,37.958-1.562,76,2.34,113.9.41,3.985-5.627,5.507-6.206,1.4-4.565-32.3.484-65-1.1-97.435-1.351-27.64-7.871-55.761-17.589-81.634-19.455-51.8-54.83-99.956-101.28-130.656-28.243-18.667-60.238-30.394-94.236-31.355C525.214-160.55,525.4-163.434,527.3-163.488Z" transform="translate(-453.198 222.245)" fill="#83a213"/>
          <path id="Trazado_12286" data-name="Trazado 12286" d="M885.723,80.7c-5.863-7.006-3.39-20.3.227-27.654,5.126-10.43,14.284-13.993,23.271-20.249,6.226-4.334,6.91-10.023,9.357-16.693A28.027,28.027,0,0,1,927.584,3.79c6.88-5.488,15.289-8.825,23.275-12.66l-7.424,12.91L965.505-17C973.3-21.65,981.08-26.344,989.5-29.773c11.688-4.761,22.423-4.954,34.826-5.111,13.713-.173,25.485-7.644,39.123-8.236,15.522-.673,30.64,4.79,44.5,11.242,4.527,2.108,8.941,4.346,13.287,6.681l-12.562.7,23.637,5.569c5.781,3.444,11.465,7.073,17.106,10.894a2.677,2.677,0,0,1-.859,4.792c-22.607,7.006-47.668,2.2-70.835,1.574-12.965-.351-26.742-.17-39.009,4.584-11.247,4.358-20.835,12.425-30.406,19.547-32.87,24.457-70.1,54.555-112.331,59.663-2.63,1.294-5.307,1.78-7.686.631-.339.016-.674.046-1.014.058a1.579,1.579,0,0,1-1.511-2.073C885.751,80.731,885.737,80.719,885.723,80.7Z" transform="translate(-554.151 188.152)" fill="#6d971e"/>
          <path id="Trazado_12287" data-name="Trazado 12287" d="M1040.427,12.8c-11.248,4.358-20.835,12.425-30.407,19.547C977.151,56.805,939.919,86.9,897.689,92.01c-2.63,1.294-5.307,1.78-7.686.631-.339.016-.674.046-1.013.059a1.5,1.5,0,0,1-.724-.149c21.2-27.722,72.289-85.5,137.579-97.419,48.295-8.813,93.917.955,124.836,11.32a2.8,2.8,0,0,1-.409.191c-22.608,7.007-47.669,2.2-70.836,1.574C1066.472,7.865,1052.695,8.046,1040.427,12.8Z" transform="translate(-555.865 178.273)" fill="#669114"/>
          <path id="Trazado_12288" data-name="Trazado 12288" d="M845.594,129.67c10.564-23.558,25.69-44.71,43.182-63.61,34.54-37.319,78.095-69.016,129.6-75.976,31.246-4.222,64.937-1.96,95.126,7.326,2.106.648,1.015,3.587-1.039,3.177-28.23-5.626-56.494-8.886-85.3-6.183-24.608,2.309-47.24,10.708-68.424,23.235-41.116,24.314-78.716,61.588-101.072,103.93a184.63,184.63,0,0,0-15.766,41.1c-3.848,15.311-4.054,30.443-5.5,46.013-.221,2.37-3.712,2.82-4.258.373C826.4,183.332,835.1,153.07,845.594,129.67Z" transform="translate(-539.451 179.31)" fill="#849c1d"/>
          <path id="Trazado_12289" data-name="Trazado 12289" d="M471.187-7.5c6.1-12.133,14.75-19.624,25.891-25.55l12.686,2.5-4.51-6.417c1.374-.6,2.767-1.192,4.2-1.774a107.36,107.36,0,0,1,26.5-6.952l24.366,4.807-3.965-5.641c23.417,1.066,46.387,8.761,66.949,19.545C642.61-16.854,657.441-8.091,672.592,7.9c15.318,16.168,23.7,35.476,28.7,56.308.2.161.409.325.615.485,3.65,2.864-.277,8.993-3.959,6.1C680.186,56.814,662.836,41.03,643.034,29.98,623.761,19.224,602.842,16.254,581.7,10.343c-11.632-3.253-23.43-6.519-35.589-6.731a78.938,78.938,0,0,0-23.971,3.6l1.011-5.69L509.267,11.68c-7.869,2.575-15.752,4.183-23.225,8.033-4.443,2.29-8.886,4.582-13.364,6.8-3.186,1.58-6.855,4.185-10.545,4.069C446.86,30.1,468.107-1.382,471.187-7.5Z" transform="translate(-433.62 189.101)" fill="#a5c82b"/>
          <path id="Trazado_12290" data-name="Trazado 12290" d="M502.337,5.248c17.969-10.57,39.461-22.549,111.376,0,57.709,18.095,80.726,60.914,87.568,77.127a2.957,2.957,0,0,1-3.022-.546C680.5,67.852,663.151,52.069,643.35,41.018c-19.274-10.756-40.193-13.725-61.331-19.636-11.632-3.253-23.43-6.519-35.589-6.731a78.939,78.939,0,0,0-23.971,3.6l1.011-5.69L509.583,22.718c-7.869,2.575-15.752,4.183-23.225,8.033-4.443,2.291-8.886,4.582-13.365,6.8-3.185,1.58-6.854,4.185-10.545,4.069-2.365-.075-3.851-.9-4.668-2.249C469.63,26.36,487.63,13.9,502.337,5.248Z" transform="translate(-433.936 178.062)" fill="#88b212"/>
          <path id="Trazado_12291" data-name="Trazado 12291" d="M509.319,7.335C553.238-27.957,616-9.225,659.921,15.943c46.546,26.671,71.972,74.8,80.289,126.619,5.477,34.115,4.312,68.729,1.792,103.056-.387,5.264-8.595,4.9-8.206-.387,3.927-53.491,4.79-109.853-19.264-159.215-10.644-21.844-25.594-41.342-45.446-55.564a216.767,216.767,0,0,0-72.56-33.5c-29.017-7.226-60.382-4.137-85.6,12.68C509.593,10.519,508.075,8.334,509.319,7.335Z" transform="translate(-448.403 179.359)" fill="#9db523"/>
          <path id="Trazado_12292" data-name="Trazado 12292" d="M820.279,242.928q-1.949,19.892-1.963,39.912-.013,17.612,1.462,35.185c.578,6.855.627,14.514,2.344,21.188.517,2.008,1.314,4.655,3.539,5.452,12.03,4.314,11.5-45.815,11.649-51.1a492.634,492.634,0,0,0-2.985-65.962c.034-2.772-.382-17.822-4.419-21.411-1.163-1.033-2.689-.1-3.271.991C821.227,217.3,821.382,231.665,820.279,242.928Z" transform="translate(-536.053 117.647)" fill="#98c40e"/>
          <path id="Trazado_12293" data-name="Trazado 12293" d="M789.737,360.8c2.425-8.238,5.013-16.392,7.717-24.539.624-1.881,3.233-10.87,5.865-10.711,3.471.21,2.083,11.964,2.071,14.3-.085,16.416-.877,32.826-1.657,49.221-.8,16.848-1.948,33.7-2.47,50.558-.363,11.705-2.77,26,4.676,36.042a2.461,2.461,0,0,0,3.44.267c6.76-5.758,7.186-16.937,8.613-25.1,1.993-11.4,3.466-22.882,4.582-34.4,2.248-23.2,4.184-47.11,3.432-70.431-.386-12.007-4.918-36.581-22.5-32.834-6.774,1.444-11.029,7.864-12.8,14.112-2.828,9.974-3.013,21.234-4.135,31.594-.067.236-.13.474-.2.707C785.722,361.783,789.034,363,789.737,360.8Z" transform="translate(-526.981 87.331)" fill="#7ba01a"/>
          <path id="Trazado_12294" data-name="Trazado 12294" d="M812.593,534.927a181.625,181.625,0,0,0,9.208,49.015c.6,1.789,3.046,1.237,3.693-.139,5.405-11.473,5.435-24.194,6.123-36.625.729-13.158,1.719-26.318,1.964-39.5.259-13.909-.125-27.816-.176-41.724-.024-6.679-1.271-48.288,10.168-44.329a1.988,1.988,0,0,0,1.031.082c.955.955,2.86-.364,2.153-1.65a8.881,8.881,0,0,0-.54-.835,1.749,1.749,0,0,0-1.145-1.312,7.077,7.077,0,0,0-6.8-1.449c-4.917,1.289-6.8,6.189-7.958,10.649-4.608,17.819-8.035,36.059-12.007,54.033C814.325,499.157,811.7,516.416,812.593,534.927Z" transform="translate(-534.382 58.049)" fill="#a5c82b"/>
          <path id="Trazado_12295" data-name="Trazado 12295" d="M784.285,493.3c1.464,1.236,3.586-1.082,2.274-2.442q1.211-9.718,7.326-3.218a12.041,12.041,0,0,1,2.2,4.794,41.081,41.081,0,0,1,1.329,6.289c.675,4.257,1.071,8.554,1.328,12.854.554,9.289.294,18.6.008,27.894q-.885,28.778-2.294,57.54-.626,13.01-1.347,26.016c-.421,7.556.183,16.2-1.76,23.541-1.785,6.743-17.461,15.585-8.71,22.808,6.429,5.306,16.307,2.252,21.02-3.76,8.265-10.544,6.819-28.04,6.82-40.565a891.07,891.07,0,0,0-4.849-96.172c-.91-8.352-1.955-16.69-3.289-24.986-.869-5.405-1.36-11.57-4.1-16.445-2.165-3.853-6.294-6.482-10.291-6.438a11.039,11.039,0,0,0-2.08.1A6.909,6.909,0,0,0,784.285,493.3Z" transform="translate(-525.701 39.687)" fill="#c5d220"/>
          <path id="Trazado_12296" data-name="Trazado 12296" d="M777.429,683.305c2.064,23.077,33.844,25.037,47.339,11.157,8.479-8.721,6.892-18.269,4.536-29.153-3.38-15.61-2.063-32.748-2.447-48.67-.386-15.965-.834-31.949-.208-47.915.324-8.261.908-16.526,1.87-24.739.995-8.5,3.658-17.761,13.79-18.346,1.931-.112-1.234-1.44-3.069-1.579a19.984,19.984,0,0,0-10.874,2.811C817.548,535.992,815.7,553.314,813,566.35c-3.646,17.551-6.046,35.329-8.111,53.127-1.035,8.923-2.264,17.8-3.506,26.7-.416,2.987-.643,6.039-1.258,8.995-1.2,5.766-5.031,6.637-9.976,8.3C781.547,666.349,776.614,674.2,777.429,683.305Z" transform="translate(-524.448 27.5)" fill="#997c20"/>
          <path id="Trazado_12297" data-name="Trazado 12297" d="M777.429,683.305c2.064,23.077,33.844,25.037,47.339,11.157,8.479-8.721,6.892-18.269,4.536-29.153-3.38-15.61-2.063-32.748-2.447-48.67-.386-15.965-.834-31.949-.208-47.915.324-8.261.908-16.526,1.87-24.739.995-8.5,3.658-17.761,13.79-18.346,1.931-.112-1.234-1.44-3.069-1.579a19.984,19.984,0,0,0-10.874,2.811C817.548,535.992,815.7,553.314,813,566.35c-3.646,17.551-6.046,35.329-8.111,53.127-1.035,8.923-2.264,17.8-3.506,26.7-.416,2.987-.643,6.039-1.258,8.995-1.2,5.766-5.031,6.637-9.976,8.3C781.547,666.349,776.614,674.2,777.429,683.305Z" transform="translate(-524.448 27.5)" fill="#80af1b" opacity="0.52"/>
          <path id="Trazado_12298" data-name="Trazado 12298" d="M826.686,760.58a7.382,7.382,0,0,1,2.207,6.2c-.239,5.131-1.783,9.109,1.631,13.612.356.471-.275,1.143-.645.667a13.953,13.953,0,0,1-3-6.869c-.494-4.437,2.346-9.023-.8-12.984A.438.438,0,0,1,826.686,760.58Z" transform="translate(-538.219 -39.466)" fill="#9a9a9a"/>
          <path id="Trazado_12299" data-name="Trazado 12299" d="M814.589,780.969c.47-4.223,2.055-7.4.9-11.776a.635.635,0,0,1,1.154-.5c1.416,2.51.953,5,.143,7.672a20.966,20.966,0,0,0-1.311,5.9c-.01,2.46.938,4.781,1.759,7.039.165.454-.563.776-.763.333C815.248,786.933,814.252,784,814.589,780.969Z" transform="translate(-534.979 -41.71)" fill="#9a9a9a"/>
          <path id="Trazado_12300" data-name="Trazado 12300" d="M806.185,779.485c2.289-3.165,4.2-5.515,5.247-9.431a.454.454,0,0,1,.892.125,12.2,12.2,0,0,1-2.63,7.025c-2.093,2.713-5.063,4.845-4.608,8.745.06.52-.821.648-.892.125A8.777,8.777,0,0,1,806.185,779.485Z" transform="translate(-532.032 -42.091)" fill="#9a9a9a"/>
          <path id="Trazado_12301" data-name="Trazado 12301" d="M794.726,760.757a.468.468,0,0,1,.9.256c-1.161,6.543-9.325,8.977-8.856,16.15.038.586-.8.555-.866,0C785.045,770.283,792.75,766.647,794.726,760.757Z" transform="translate(-526.854 -39.455)" fill="#9a9a9a"/>
          <path id="Trazado_12302" data-name="Trazado 12302" d="M780.723,766.334c1.614-2.188,4.124-3.356,5.935-5.347.363-.4,1.071.136.749.6a22.643,22.643,0,0,1-4.5,4.235,10.239,10.239,0,0,0-3.706,7.437.378.378,0,0,1-.756,0A11.046,11.046,0,0,1,780.723,766.334Z" transform="translate(-524.759 -39.577)" fill="#9a9a9a"/>
          <path id="Trazado_12303" data-name="Trazado 12303" d="M798.255,780.424c2.524-1.932,7.616-1.484,8.625-5.01a.348.348,0,0,1,.669.19c-.6,2.352-2.354,3.281-4.458,4.05-3.728,1.363-6.656,3.087-7.67,7.343-.122.51-.832.287-.75-.214A9.883,9.883,0,0,1,798.255,780.424Z" transform="translate(-529.354 -43.631)" fill="#9a9a9a"/>
          <path id="Trazado_12304" data-name="Trazado 12304" d="M812.4,796.473c.217-2.927,2.124-5.446,1.635-8.473-.076-.472.591-.686.71-.2.51,2.086-.109,3.681-.767,5.682-1.126,3.421-.558,6.512.439,9.873a.437.437,0,0,1-.84.239A19.1,19.1,0,0,1,812.4,796.473Z" transform="translate(-534.368 -47.133)" fill="#9a9a9a"/>
        </g>
        <path id="Trazado_12305" data-name="Trazado 12305" d="M598.283,615.781" transform="translate(-525.951 -344.445)" fill="none" stroke="#006366" stroke-miterlimit="10" stroke-width="2"/>
        <path id="Trazado_12306" data-name="Trazado 12306" d="M691.671,755.157s17.466-52.033,100.2-52.033,95.689,53.826,95.689,53.826Z" transform="translate(-552.402 -369.183)" fill="#966238"/>
        <path id="Trazado_12307" data-name="Trazado 12307" d="M530.169,765.38s15.61-18.622,89.553-18.622,85.521,19.264,85.521,19.264Z" transform="translate(-506.658 -381.542)" fill="#794e29"/>
        <path id="Trazado_12308" data-name="Trazado 12308" d="M868.713,758.42s11.605-27.428,66.578-27.428,63.581,28.374,63.581,28.374Z" transform="translate(-602.546 -377.077)" fill="#794e29"/>
        <path id="Trazado_12309" data-name="Trazado 12309" d="M526.882,767.011H896.365a7.088,7.088,0,0,1,7.068,7.068h0a7.088,7.088,0,0,1-7.068,7.067H526.882a7.088,7.088,0,0,1-7.067-7.067h0A7.088,7.088,0,0,1,526.882,767.011Z" transform="translate(-503.726 -387.278)" fill="#966238"/>
        <path id="Trazado_12310" data-name="Trazado 12310" d="M884.243,772.231H866.33a4.353,4.353,0,0,1-4.34-4.34h0a4.352,4.352,0,0,1,4.34-4.34h17.913a4.353,4.353,0,0,1,4.34,4.34h0A4.353,4.353,0,0,1,884.243,772.231Z" transform="translate(-600.642 -386.299)" fill="#966238"/>
        <path id="Trazado_12311" data-name="Trazado 12311" d="M921.344,772.231H903.43a4.352,4.352,0,0,1-4.339-4.34h0a4.352,4.352,0,0,1,4.339-4.34h17.913a4.352,4.352,0,0,1,4.339,4.34h0A4.352,4.352,0,0,1,921.344,772.231Z" transform="translate(-611.15 -386.299)" fill="#966238"/>
        <path id="Trazado_12312" data-name="Trazado 12312" d="M958.444,772.231H940.531a4.353,4.353,0,0,1-4.34-4.34h0a4.353,4.353,0,0,1,4.34-4.34h17.913a4.353,4.353,0,0,1,4.34,4.34h0A4.353,4.353,0,0,1,958.444,772.231Z" transform="translate(-621.658 -386.299)" fill="#966238"/>
        <path id="Trazado_12313" data-name="Trazado 12313" d="M995.545,772.231H977.632a4.353,4.353,0,0,1-4.34-4.34h0a4.353,4.353,0,0,1,4.34-4.34h17.913a4.353,4.353,0,0,1,4.34,4.34h0A4.353,4.353,0,0,1,995.545,772.231Z" transform="translate(-632.167 -386.299)" fill="#966238"/>
        <path id="Trazado_12314" data-name="Trazado 12314" d="M1032.646,772.231h-17.913a4.353,4.353,0,0,1-4.34-4.34h0a4.353,4.353,0,0,1,4.34-4.34h17.913a4.353,4.353,0,0,1,4.34,4.34h0A4.353,4.353,0,0,1,1032.646,772.231Z" transform="translate(-642.675 -386.299)" fill="#966238"/>
        <path id="Trazado_12315" data-name="Trazado 12315" d="M661.638,772.231H643.725a4.353,4.353,0,0,1-4.34-4.34h0a4.353,4.353,0,0,1,4.34-4.34h17.913a4.353,4.353,0,0,1,4.34,4.34h0A4.353,4.353,0,0,1,661.638,772.231Z" transform="translate(-537.592 -386.299)" fill="#966238"/>
        <path id="Trazado_12316" data-name="Trazado 12316" d="M698.739,772.231H680.825a4.352,4.352,0,0,1-4.339-4.34h0a4.352,4.352,0,0,1,4.339-4.34h17.913a4.352,4.352,0,0,1,4.339,4.34h0A4.352,4.352,0,0,1,698.739,772.231Z" transform="translate(-548.101 -386.299)" fill="#966238"/>
        <path id="Trazado_12317" data-name="Trazado 12317" d="M735.839,772.231H717.926a4.353,4.353,0,0,1-4.34-4.34h0a4.353,4.353,0,0,1,4.34-4.34h17.913a4.353,4.353,0,0,1,4.34,4.34h0A4.353,4.353,0,0,1,735.839,772.231Z" transform="translate(-558.609 -386.299)" fill="#966238"/>
        <path id="Trazado_12318" data-name="Trazado 12318" d="M772.94,772.231H755.027a4.353,4.353,0,0,1-4.34-4.34h0a4.353,4.353,0,0,1,4.34-4.34H772.94a4.353,4.353,0,0,1,4.34,4.34h0A4.353,4.353,0,0,1,772.94,772.231Z" transform="translate(-569.117 -386.299)" fill="#966238"/>
        <path id="Trazado_12319" data-name="Trazado 12319" d="M810.041,772.231H792.128a4.353,4.353,0,0,1-4.34-4.34h0a4.353,4.353,0,0,1,4.34-4.34h17.913a4.353,4.353,0,0,1,4.34,4.34h0A4.353,4.353,0,0,1,810.041,772.231Z" transform="translate(-579.625 -386.299)" fill="#966238"/>
        <path id="Trazado_12320" data-name="Trazado 12320" d="M847.142,772.231H829.229a4.353,4.353,0,0,1-4.34-4.34h0a4.353,4.353,0,0,1,4.34-4.34h17.913a4.353,4.353,0,0,1,4.34,4.34h0A4.353,4.353,0,0,1,847.142,772.231Z" transform="translate(-590.134 -386.299)" fill="#966238"/>
        <path id="Trazado_12321" data-name="Trazado 12321" d="M550.335,772.231H532.422a4.353,4.353,0,0,1-4.34-4.34h0a4.353,4.353,0,0,1,4.34-4.34h17.913a4.352,4.352,0,0,1,4.34,4.34h0A4.353,4.353,0,0,1,550.335,772.231Z" transform="translate(-506.067 -386.299)" fill="#966238"/>
        <path id="Trazado_12322" data-name="Trazado 12322" d="M587.436,772.231H569.523a4.353,4.353,0,0,1-4.34-4.34h0a4.353,4.353,0,0,1,4.34-4.34h17.913a4.353,4.353,0,0,1,4.34,4.34h0A4.353,4.353,0,0,1,587.436,772.231Z" transform="translate(-516.576 -386.299)" fill="#966238"/>
        <path id="Trazado_12323" data-name="Trazado 12323" d="M624.537,772.231H606.624a4.353,4.353,0,0,1-4.34-4.34h0a4.353,4.353,0,0,1,4.34-4.34h17.913a4.353,4.353,0,0,1,4.34,4.34h0A4.353,4.353,0,0,1,624.537,772.231Z" transform="translate(-527.084 -386.299)" fill="#966238"/>
        <path id="Trazado_12324" data-name="Trazado 12324" d="M701.285,780.781a1.488,1.488,0,1,1-1.488-1.488A1.488,1.488,0,0,1,701.285,780.781Z" transform="translate(-554.282 -390.757)" fill="#794e29"/>
        <path id="Trazado_12325" data-name="Trazado 12325" d="M653.808,773.548a1.488,1.488,0,1,1-1.488-1.488A1.488,1.488,0,0,1,653.808,773.548Z" transform="translate(-540.835 -388.709)" fill="#794e29"/>
        <path id="Trazado_12326" data-name="Trazado 12326" d="M719.184,772.778a2.48,2.48,0,1,1-2.48-2.48A2.48,2.48,0,0,1,719.184,772.778Z" transform="translate(-558.789 -388.21)" fill="#794e29"/>
        <path id="Trazado_12327" data-name="Trazado 12327" d="M753.829,780.585a1.984,1.984,0,1,1-1.984-1.984A1.984,1.984,0,0,1,753.829,780.585Z" transform="translate(-568.883 -390.561)" fill="#794e29"/>
        <circle id="Elipse_668" data-name="Elipse 668" cx="1.736" cy="1.736" r="1.736" transform="translate(196.849 384.072)" fill="#794e29"/>
        <path id="Trazado_12328" data-name="Trazado 12328" d="M808.951,777.7a3.6,3.6,0,1,1-3.6-3.6A3.6,3.6,0,0,1,808.951,777.7Z" transform="translate(-583.583 -389.288)" fill="#794e29"/>
        <path id="Trazado_12329" data-name="Trazado 12329" d="M832.068,773.516a1.488,1.488,0,1,1-1.488-1.488A1.488,1.488,0,0,1,832.068,773.516Z" transform="translate(-591.325 -388.7)" fill="#794e29"/>
        <path id="Trazado_12330" data-name="Trazado 12330" d="M862.123,778.163a1.984,1.984,0,1,1-1.984-1.983A1.984,1.984,0,0,1,862.123,778.163Z" transform="translate(-599.556 -389.875)" fill="#794e29"/>
        <path id="Trazado_12331" data-name="Trazado 12331" d="M889.11,771.936a1.984,1.984,0,1,1-1.983-1.984A1.984,1.984,0,0,1,889.11,771.936Z" transform="translate(-607.2 -388.112)" fill="#794e29"/>
        <path id="Trazado_12332" data-name="Trazado 12332" d="M904.634,780.389a2.48,2.48,0,1,1-2.48-2.48A2.48,2.48,0,0,1,904.634,780.389Z" transform="translate(-611.316 -390.365)" fill="#794e29"/>
        <path id="Trazado_12333" data-name="Trazado 12333" d="M939.881,775.74a1.55,1.55,0,1,1-1.55-1.55A1.55,1.55,0,0,1,939.881,775.74Z" transform="translate(-621.826 -389.312)" fill="#794e29"/>
        <path id="Trazado_12334" data-name="Trazado 12334" d="M967.6,779.7a2.48,2.48,0,1,1-2.48-2.48A2.48,2.48,0,0,1,967.6,779.7Z" transform="translate(-629.151 -390.169)" fill="#794e29"/>
        <circle id="Elipse_669" data-name="Elipse 669" cx="1.736" cy="1.736" r="1.736" transform="translate(351.101 383.328)" fill="#794e29"/>
        <circle id="Elipse_670" data-name="Elipse 670" cx="2.976" cy="2.976" r="2.976" transform="translate(366.476 386.304)" fill="#794e29"/>
        <circle id="Elipse_671" data-name="Elipse 671" cx="1.736" cy="1.736" r="1.736" transform="translate(384.083 384.072)" fill="#794e29"/>
        <circle id="Elipse_672" data-name="Elipse 672" cx="3.287" cy="3.287" r="3.287" transform="translate(129.379 380.822)" fill="#794e29"/>
        <circle id="Elipse_673" data-name="Elipse 673" cx="1.096" cy="1.096" r="1.096" transform="translate(100.53 387.761)" fill="#794e29"/>
        <path id="Trazado_12335" data-name="Trazado 12335" d="M572.65,773.491a2.922,2.922,0,1,1-2.922-2.921A2.922,2.922,0,0,1,572.65,773.491Z" transform="translate(-517.036 -388.287)" fill="#794e29"/>
        <path id="Trazado_12336" data-name="Trazado 12336" d="M604.237,778.076a2.921,2.921,0,1,1-2.921-2.922A2.921,2.921,0,0,1,604.237,778.076Z" transform="translate(-525.982 -389.585)" fill="#794e29"/>
        <circle id="Elipse_674" data-name="Elipse 674" cx="1.826" cy="1.826" r="1.826" transform="translate(29.322 387.761)" fill="#794e29"/>
      </g>
    </g>
    <path id="Trazado_12337" data-name="Trazado 12337" d="M853.831,532.029l32.116,22.188,11.971,4.952-22.405,4.713L849.24,543.524S848.084,537.729,853.831,532.029Z" transform="translate(-99.636 -83.499)" fill="#5e5859"/>
    <g id="Grupo_3224" data-name="Grupo 3224" transform="translate(738.393 422.26)">
      <g id="Grupo_3223" data-name="Grupo 3223" transform="translate(0 0)">
        <g id="Grupo_3222" data-name="Grupo 3222" transform="translate(0 14.562)">
          <g id="Grupo_3220" data-name="Grupo 3220" transform="translate(45.554)">
            <g id="Grupo_3219" data-name="Grupo 3219">
              <g id="Grupo_3218" data-name="Grupo 3218" transform="translate(9.225 23.202)">
                <path id="Trazado_12338" data-name="Trazado 12338" d="M922.45,548.066l-.668,12.8-6.176,5.062-5.545-3.789.4-7.7Z" transform="translate(-910.062 -548.066)" fill="#eeb399"/>
              </g>
              <path id="Trazado_12339" data-name="Trazado 12339" d="M915.409,551.521l-15.561-.811c-1.694-.088-1.621-28.139-1.621-28.139a3.093,3.093,0,0,1,3.241-2.919l15.561.811a3.094,3.094,0,0,1,2.92,3.241l-1.3,24.9A3.094,3.094,0,0,1,915.409,551.521Z" transform="translate(-897.484 -516.814)" fill="#eeb399"/>
              <path id="Trazado_12340" data-name="Trazado 12340" d="M908.052,544.11c-1.567-1.8-2.2-4.2-2.769-6.513a2.371,2.371,0,0,1-.088-1.153,2.725,2.725,0,0,1,.609-.968,4.27,4.27,0,0,0,1.1-2.514,2.091,2.091,0,0,0-1.469-2.119,2.225,2.225,0,0,0-2.378,1.781,6.47,6.47,0,0,0,.3,3.234c-1.085.472-2.207-.793-2.308-1.972s.352-2.356.231-3.534c-.2-1.906-1.793-3.3-2.937-4.842s-1.761-3.984-.26-5.176a12.882,12.882,0,0,1,2.153-.991c1.185-.624,1.911-1.884,3.039-2.607a6.712,6.712,0,0,1,2.666-.858c5.59-.835,12.011,1.163,14.656,6.158,2,3.768,1.487,8.314.926,12.542-.469,3.535-.423,9.185-3.98,11.073A7.991,7.991,0,0,1,908.052,544.11Z" transform="translate(-897.191 -515.695)" fill="#171c27"/>
            </g>
            <path id="Trazado_12341" data-name="Trazado 12341" d="M899.476,527.6a6.079,6.079,0,0,0-.437,4.579,20.878,20.878,0,0,1,.861,4.631c-.031,2.12-1.092,4.072-2.132,5.92" transform="translate(-897.355 -519.066)" fill="none" stroke="#171c27" stroke-linecap="round" stroke-linejoin="round" stroke-width="0.647"/>
          </g>
          <path id="Trazado_12342" data-name="Trazado 12342" d="M882.584,647.71l-.361,125.727s13.677,1.572,21.066,0l2.2-107.359,5.184,108.058s13.254.856,21.744,0L923.581,651.3Z" transform="translate(-847.398 -553.086)" fill="#e06645"/>
          <path id="Trazado_12343" data-name="Trazado 12343" d="M882.6,577.447c-.169.761-.3,1.531-.414,2.3-.343,2.38-.7,4.708-.924,7.105-.5,5.386-.922,10.782-1.141,16.187a165.745,165.745,0,0,0,.216,18.8c.421,5.76,2.742,7.215,8.167,9.074a51.856,51.856,0,0,0,14.684,2.373c4.135.165,17.933.065,19.751-5.7.59-1.87-1.449-6.147-1.787-8.156a54.154,54.154,0,0,1-.748-8.335,53.539,53.539,0,0,1,2.218-15.979c2.181-7.289,6.457-13.971,2.757-21.319-3.765-7.479-12.492-9.682-20.249-9.788a36.879,36.879,0,0,0-11.926,1.509,13.242,13.242,0,0,0-5.025,2.732,18.829,18.829,0,0,0-3.939,4.684A16.562,16.562,0,0,0,882.6,577.447Z" transform="translate(-846.755 -529.379)" fill="#eeb399"/>
          <path id="Trazado_12344" data-name="Trazado 12344" d="M909.688,612.566c-15.458,1.76,1.76,0-15.381-1.377-10.333-.831-13.293-2.022-14.018-2.838.231-4.966.6-9.926,1.067-14.876.192-2.053.484-4.058.778-6.085,5.427.918,23.957,0,23.957,0l19.152,7.151c-.825,2.365-1.793,4.749-2.527,7.2a53.258,53.258,0,0,0-2.14,12.847C919.859,614.417,919.741,611.421,909.688,612.566Z" transform="translate(-846.85 -536.002)" fill="#201718"/>
          <path id="Trazado_12345" data-name="Trazado 12345" d="M921.151,623.076c.338,2.027,2.377,6.343,1.787,8.229-1.818,5.817-15.616,5.918-19.751,5.751a51.447,51.447,0,0,1-14.684-2.394c-5.425-1.876-7.746-3.344-8.167-9.156a168.739,168.739,0,0,1-.216-18.973c.117-2.923.295-5.843.509-8.76,19.629,5.192,23.441-22.412,23.441-22.412l14.044,2.232c-1.175,16.891.867,21.848,3.7,24.033a54.881,54.881,0,0,0-.666,21.45Z" transform="translate(-846.755 -532.595)" fill="#e06645"/>
          <g id="Grupo_3221" data-name="Grupo 3221" transform="translate(83.528 69.193)">
            <path id="Trazado_12346" data-name="Trazado 12346" d="M950.218,612.328l-.047-.1A.1.1,0,0,1,950.218,612.328Z" transform="translate(-950.171 -612.231)" fill="#7298e2"/>
          </g>
          <path id="Trazado_12347" data-name="Trazado 12347" d="M921.8,664.591s-9.3,10.114-25.988,5.562" transform="translate(-851.247 -557.868)" fill="none" stroke="#a8452d" stroke-linecap="round" stroke-linejoin="round" stroke-width="0.283"/>
          <path id="Trazado_12348" data-name="Trazado 12348" d="M840.336,572.536l15.746,11.41,19.181-14.816a7.369,7.369,0,1,1,9.01,11.663l-23.546,18.188a7.369,7.369,0,0,1-8.829.135l-18.263-17.334A12.412,12.412,0,0,1,840.336,572.536Z" transform="translate(-833.636 -530.394)" fill="#eeb399"/>
          <path id="Trazado_12349" data-name="Trazado 12349" d="M932.434,575.3l.963-7.077-1.737-.883L930.515,575Z" transform="translate(-861.076 -530.323)" fill="#e06645"/>
          <path id="Trazado_12350" data-name="Trazado 12350" d="M911.4,572.2s-3.213-6.823-5.566-7.792l2-.207s3.185,1.644,5.49,8.3A4.279,4.279,0,0,1,911.4,572.2Z" transform="translate(-854.085 -529.434)" fill="#e06645"/>
          <path id="Trazado_12351" data-name="Trazado 12351" d="M879.68,740.609s13.649-2.417,23.745,1l-1.28,61s-10.806,3.271-26.446-1.138l4.678-2.7Z" transform="translate(-845.549 -579.164)" fill="#171e26"/>
          <path id="Trazado_12352" data-name="Trazado 12352" d="M917.241,742.284s14.617-3.118,21.457,0l4.526,61.058s-15.855,2.717-25.983,0l2.546-2.432Z" transform="translate(-857.316 -579.481)" fill="#171e26"/>
          <path id="Trazado_12353" data-name="Trazado 12353" d="M916.357,555.857a2.987,2.987,0,0,0,.184,2.929c.557.837,1.6,1.589,1.358,2.565-.182.738-1.034,1.108-1.375,1.786a2.444,2.444,0,0,0,.347,2.283A7.464,7.464,0,0,1,918,567.536c.464,2.1-1.842,4.372-.74,6.216.354.593,1.009.983,1.271,1.621.6,1.474-1.214,2.872-1.3,4.463-.1,2.04,2.637,3.628,2.048,5.584-.26.865-1.142,1.487-1.228,2.386-.121,1.279,1.431,2.289,1.251,3.561-.125.887-1.064,1.795-.528,2.512a1.532,1.532,0,0,0,.952.463,4.119,4.119,0,0,0,1.864.087,1.521,1.521,0,0,0,1.2-1.284c.048-1.085-1.429-1.975-1.015-2.98.176-.427.636-.65.97-.97a2.057,2.057,0,0,0-.047-2.894c-.285-.255-.641-.427-.9-.709-.778-.847-.344-2.208.212-3.215s1.218-2.176.764-3.233c-.353-.82-1.279-1.266-1.682-2.062-1.044-2.066,2.03-4.559.965-6.614-.351-.678-1.093-1.1-1.388-1.808-.814-1.946,2.267-4.145,1.153-5.935-.247-.4-.675-.677-.842-1.115-.411-1.077.917-1.926,1.609-2.849a2.968,2.968,0,0,0-.077-3.552C921.095,553.473,917.365,553.838,916.357,555.857Z" transform="translate(-856.981 -526.573)" fill="#171c27"/>
          <path id="Trazado_12354" data-name="Trazado 12354" d="M919.993,611.516a5.343,5.343,0,0,0,.652,3.382,3.274,3.274,0,0,0,2.925,1.6.51.51,0,0,0,.351-.133.419.419,0,0,0-.1-.554,4.526,4.526,0,0,0-.53-.327,1.582,1.582,0,0,1-.524-1.588,7.661,7.661,0,0,1,.636-1.644,2.618,2.618,0,0,0,.249-1.714c-.287-1.027-1.311-1.229-2.234-1.056C920.464,609.662,920.083,610.651,919.993,611.516Z" transform="translate(-858.084 -542.244)" fill="#171c27"/>
          <path id="Trazado_12355" data-name="Trazado 12355" d="M920.549,610.308a1.693,1.693,0,0,0,.581.14,10.749,10.749,0,0,0,1.35.059,1.716,1.716,0,0,0,.73-.133.584.584,0,0,0-.015-1.108,1.827,1.827,0,0,0-.678-.125,4.481,4.481,0,0,0-1.985.048A.628.628,0,0,0,920.549,610.308Z" transform="translate(-858.154 -542.136)" fill="#e06546"/>
        </g>
        <path id="Trazado_12356" data-name="Trazado 12356" d="M913.415,508.283c-4.9-1.8-9.185-3.332-14.516-3.309a38.9,38.9,0,0,0-15.6,2.874,13.878,13.878,0,0,0-5.493,3.959,5.911,5.911,0,0,0-.929,6.049,10.327,10.327,0,0,0,2.076,2.618,39.229,39.229,0,0,0,5.33,4.789,35.628,35.628,0,0,0,9.474,4.338,105.576,105.576,0,0,0,22.029,4.64c4.566.463,9.356.6,13.582-1.007a7.614,7.614,0,0,0,2.85-1.725c1.542-1.625,1.564-4.01,1.047-6.087-1.038-4.172-3.9-7.866-7.5-10.685A45.078,45.078,0,0,0,913.415,508.283Z" transform="translate(-845.748 -498.097)" fill="#fbb25c"/>
        <path id="Trazado_12357" data-name="Trazado 12357" d="M910.419,499.684a17.854,17.854,0,0,1,6.391-3.891,8.242,8.242,0,0,1,7.208.944,9.363,9.363,0,0,1,3.125,4.983c1.275,4.323.794,8.943.3,13.423a2.8,2.8,0,0,1-.342,1.252,2.565,2.565,0,0,1-1.217.851c-5.231,2.191-11.337,1.22-16.486-1.155a11.632,11.632,0,0,1-4.77-3.518C901.349,507.973,907.14,502.54,910.419,499.684Z" transform="translate(-853.468 -495.379)" fill="#ea9c4e"/>
        <path id="Trazado_12358" data-name="Trazado 12358" d="M879.1,648.319s-6.908,2.39-8.755,4.152,3.572,18.27,5.051,21.1,7.145,4.681,8.131-1.232,5.42-21.312,9.116-23.16,21.313-7.392,26.241-7.392a5.78,5.78,0,0,0-1.028-4.69S888.843,642.035,879.1,648.319Z" transform="translate(-843.927 -535.52)" fill="#764f22"/>
        <path id="Trazado_12359" data-name="Trazado 12359" stroke="#3d240b" d="M918.453,641.336s-16.952,2.422-26.556,7.683a38.512,38.512,0,0,0-8.184,20.543s-.269,4.687-3.34,5.345-7.081-7.74-8.894-18.839c0,0,9.645-1.278,14.239-5.416,0,0-.576-1.656-4.381-.979l-.515-.819s18.592-8.437,37.048-10.525A2.817,2.817,0,0,1,918.453,641.336Z" fill="none" transform="translate(-844.354 -535.868)" stroke-linecap="round" stroke-linejoin="round" stroke-width="0.283" stroke-dasharray="2.835"/>
        <path id="Trazado_12360" data-name="Trazado 12360" d="M871,659.755s5.847.325,13.15-4.214c0,0-8.347-.583-13.15,4.46" transform="translate(-844.22 -540.737)" fill="#3d240b"/>
      </g>
    </g>
    <path id="Trazado_12361" data-name="Trazado 12361" d="M886.962,564.475s10.851,9.572,3,17.1l-5.387-.684-18.705,14.449-3.559,2.75s-1.315,5.475-18.434-3.6l-4.667-5.316,8.621-14.452,9.833,8.332S872.21,563.449,886.962,564.475Z" transform="translate(-96.821 -92.678)" fill="#201718"/>
    <path id="Trazado_12362" data-name="Trazado 12362" d="M933.984,568.573s-1.884,11.4-1.271,17.9l6.983,3.853S947.144,575.2,933.984,568.573Z" transform="translate(-123.271 -93.85)" fill="#201718"/>
    <path id="Trazado_12363" data-name="Trazado 12363" d="M902.962,564.008" transform="translate(-114.879 -92.557)" fill="#201718"/>
    <g id="Grupo_3225" data-name="Grupo 3225" transform="translate(718.844 393.68)">
      <line id="L칤nea_82" data-name="L칤nea 82" y1="140.775" transform="translate(10.121 17.264)" fill="none" stroke="#f20f0f" stroke-linecap="round" stroke-linejoin="round" stroke-width="5"/>
      <path id="Trazado_12364" data-name="Trazado 12364" d="M806.363,472.769h19.421l-9.71-17.264Z" transform="translate(-806.363 -455.505)" fill="#f20f0f"/>
    </g>
    <path id="Trazado_12365" data-name="Trazado 12365" d="M830.855,580.888s-12.687-8.209-3.995-14.37l1.944-2.084-.854,4.16,2.905-2.076s1.823-6.047,6.7,5.123Z" transform="translate(-92.462 -92.678)" fill="#eeb399"/>
    <path id="Trazado_12366" data-name="Trazado 12366" d="M845.6,528s.941,11.991-6.683,9.954C838.915,537.952,834.917,532.4,845.6,528Z" transform="translate(-96.531 -82.358)" fill="#eeb399"/>
  </g>
</svg>
