<svg id="Grupo_3673" data-name="Grupo 3673" xmlns="http://www.w3.org/2000/svg" width="100.617" height="100.617" viewBox="0 0 100.617 100.617">
  <circle id="Elipse_716" data-name="Elipse 716" cx="43.76" cy="43.76" r="43.76" transform="translate(0 14.267) rotate(-9.381)" fill="#ffe082"/>
  <g id="Grupo_3672" data-name="Grupo 3672" transform="translate(26.987 19.159)">
    <path id="Trazado_16577" data-name="Trazado 16577" d="M38.715,108.975a4.342,4.342,0,0,1-2.556-.877.821.821,0,0,1-.342-.612c-.262-3.762,1.585-6.265,5.2-7.048a13.826,13.826,0,0,1,5.087.012.9.9,0,0,1,.642.306.977.977,0,0,1,.144.237.831.831,0,0,1-.379,1.015c-.132.174-.336.493-.521.782-1.239,1.937-3.546,5.542-6.49,6.109A4.229,4.229,0,0,1,38.715,108.975Zm-1.275-2.008a2.481,2.481,0,0,0,1.751.315c2.249-.433,4.387-3.774,5.414-5.379-1.475-.154-4-.086-5.613,1.19A4.456,4.456,0,0,0,37.44,106.967Z" transform="translate(-20.439 -62.351)" fill="#8d6e63"/>
    <path id="Trazado_16578" data-name="Trazado 16578" d="M34.411,108.688a3.2,3.2,0,0,1-1.994-.7c-3.1-2.426-2.927-10.573-2.573-11.979a1.035,1.035,0,0,1,.8-.887.829.829,0,0,1,.7.206c.04.028.1.068.178.119,7.192,4.779,6.459,9.72,5.382,12.24a.82.82,0,0,1-.37.4A4.507,4.507,0,0,1,34.411,108.688ZM31.32,97.314c-.149,2.29.153,7.669,2.021,9.3a1.8,1.8,0,0,0,2.158.151C36.764,103.462,35.324,100.211,31.32,97.314Z" transform="translate(-20.439 -62.351)" fill="#8d6e63"/>
    <path id="Trazado_16579" data-name="Trazado 16579" d="M41.513,100.2c-.05,0-.1,0-.149,0a4.241,4.241,0,0,1-3.1-1.525.821.821,0,0,1-.2-.673c.56-3.642,2.859-5.653,6.474-5.661a13.191,13.191,0,0,1,5.135,1.156.891.891,0,0,1,.507.407.94.94,0,0,1,.1.264.83.83,0,0,1-.564.917c-.184.144-.449.4-.688.639C47.424,97.292,44.462,100.2,41.513,100.2Zm-1.747-2.348a2.5,2.5,0,0,0,1.654.7l.094,0c2.275,0,5.028-2.7,6.361-4.008-1.422-.461-3.908-.96-5.77-.069A4.38,4.38,0,0,0,39.766,97.849Z" transform="translate(-20.439 -62.351)" fill="#8d6e63"/>
    <path id="Trazado_16580" data-name="Trazado 16580" d="M37.271,98.939a3.263,3.263,0,0,1-2.607-1.184C32.21,94.814,34,87.17,34.726,85.628a1.133,1.133,0,0,1,.971-.77.824.824,0,0,1,.675.351c.032.035.08.085.141.149,4.429,4.642,5.34,9.287,2.565,13.08a.817.817,0,0,1-.452.309A5.251,5.251,0,0,1,37.271,98.939ZM35.918,87.145c-.644,2.184-1.524,7.438-.08,9.438a1.814,1.814,0,0,0,2.082.64C40.329,93.645,38.323,89.882,35.918,87.145Z" transform="translate(-20.439 -62.351)" fill="#8d6e63"/>
    <path id="Trazado_16581" data-name="Trazado 16581" d="M46.325,92.337a4.938,4.938,0,0,1-1.258-.155,4.236,4.236,0,0,1-2.681-2.176.826.826,0,0,1-.044-.7c1.345-3.409,4.013-4.871,7.523-4.112a13.252,13.252,0,0,1,4.8,2.267.891.891,0,0,1,.406.484,1,1,0,0,1,.045.295.833.833,0,0,1-.734.781,8.2,8.2,0,0,0-.837.477C51.874,90.534,48.956,92.337,46.325,92.337Zm-2.3-2.8a2.494,2.494,0,0,0,1.456,1.051c2.218.584,5.582-1.493,7.2-2.492-1.271-.767-3.583-1.8-5.609-1.343A4.4,4.4,0,0,0,44.03,89.538Z" transform="translate(-20.439 -62.351)" fill="#8d6e63"/>
    <path id="Trazado_16582" data-name="Trazado 16582" d="M42.47,90.166a3.5,3.5,0,0,1-3.372-1.8c-1.738-3.295,1.471-10.165,2.685-11.8a1.226,1.226,0,0,1,1.165-.632.822.822,0,0,1,.6.494c.022.039.055.1.1.167,3.284,5.527,3.134,10.274-.419,13.367a.821.821,0,0,1-.508.2C42.636,90.165,42.552,90.166,42.47,90.166Zm.2-11.953c-1.12,1.984-3.166,6.927-2.2,9.219a1.809,1.809,0,0,0,1.891,1.087C45.52,85.554,44.409,81.428,42.675,78.213Z" transform="translate(-20.439 -62.351)" fill="#8d6e63"/>
    <path id="Trazado_16583" data-name="Trazado 16583" d="M53.22,85.747a5.91,5.91,0,0,1-2.763-.6,4.189,4.189,0,0,1-2.106-2.717.822.822,0,0,1,.116-.688c2.1-3.051,5.065-3.9,8.341-2.384a13.148,13.148,0,0,1,4.2,3.282.891.891,0,0,1,.27.505,1.01,1.01,0,0,1-.013.329.842.842,0,0,1-.876.611,7.6,7.6,0,0,0-.976.292A20.181,20.181,0,0,1,53.22,85.747Zm-3.162-3.392a2.459,2.459,0,0,0,1.165,1.34c2.034,1.068,5.832-.241,7.657-.87-1.035-1.029-3.064-2.541-5.13-2.552A4.584,4.584,0,0,0,50.058,82.355Z" transform="translate(-20.439 -62.351)" fill="#8d6e63"/>
    <path id="Trazado_16584" data-name="Trazado 16584" d="M48.8,82.681a.811.811,0,0,1-.147-.013,3.554,3.554,0,0,1-3.125-2.486c-1.059-3.709,3.825-9.678,5.232-10.949.282-.254.8-.73,1.4-.493a.822.822,0,0,1,.507.626c.012.04.03.1.053.17,1.928,6.148.675,10.782-3.528,13.047A.824.824,0,0,1,48.8,82.681ZM51.4,70.9C49.83,72.581,46.625,77,47.06,79.52c.085.491.348,1.162,1.6,1.468C52.465,78.753,52.346,74.448,51.4,70.9Z" transform="translate(-20.439 -62.351)" fill="#8d6e63"/>
    <path id="Trazado_16585" data-name="Trazado 16585" d="M36.138,116a.823.823,0,0,1-.821-.775A43.464,43.464,0,0,1,56.848,75.046a.823.823,0,0,1,.831,1.421,41.828,41.828,0,0,0-20.718,38.666.823.823,0,0,1-.775.869Z" transform="translate(-20.439 -62.351)" fill="#8d6e63"/>
    <path id="Trazado_16586" data-name="Trazado 16586" d="M46.9,123.625a78.6,78.6,0,0,1-18.446-2.351,3.524,3.524,0,0,1-2.98,1.62,3.564,3.564,0,0,1-3.56-3.56,3.526,3.526,0,0,1,1.588-2.959c-5.815-19.221-1.955-38.6.194-46.682a3.524,3.524,0,0,1-1.4-2.821,3.555,3.555,0,0,1,6.426-2.1,57.844,57.844,0,0,1,32.839-.107,3.526,3.526,0,0,1,2.779-1.351,3.559,3.559,0,0,1,1.984,6.515c2.16,9.328,6.094,31.068.43,46.891a3.556,3.556,0,1,1-5.024,4.821A49.556,49.556,0,0,1,46.9,123.625Zm-18.879-4.134a.829.829,0,0,1,.208.026c5.837,1.514,20.8,4.568,33.662.236a.824.824,0,0,1,1.042.512,1.907,1.907,0,1,0,2.5-2.395.825.825,0,0,1-.467-1.059c6.168-16.246,1.263-40.25-.387-47.219a.823.823,0,0,1,.488-.952,1.91,1.91,0,1,0-2.423-2.628.824.824,0,0,1-.99.409,55.992,55.992,0,0,0-33.072.108.822.822,0,0,1-.987-.446,1.909,1.909,0,1,0-2.578,2.5.822.822,0,0,1,.43.955c-2.092,7.635-6.3,27.5-.168,47a.823.823,0,0,1-.489,1.015,1.91,1.91,0,1,0,2.467,2.464A.821.821,0,0,1,28.022,119.491Z" transform="translate(-20.439 -62.351)" fill="#8d6e63"/>
  </g>
</svg>
