<svg id="Grupo_3676" data-name="Grupo 3676" xmlns="http://www.w3.org/2000/svg" width="100.617" height="100.617" viewBox="0 0 100.617 100.617">
  <circle id="Elipse_717" data-name="Elipse 717" cx="43.76" cy="43.76" r="43.76" transform="translate(0 14.267) rotate(-9.381)" fill="#ffe082"/>
  <g id="Grupo_3675" data-name="Grupo 3675" transform="translate(26.181 20.036)">
    <path id="Trazado_16587" data-name="Trazado 16587" d="M42.053,105.779A13.9,13.9,0,0,1,28.173,91.9V80.311A.823.823,0,0,1,29,79.488H55.109a.822.822,0,0,1,.823.823V91.9A13.9,13.9,0,0,1,42.053,105.779ZM29.82,81.134V91.9a12.233,12.233,0,1,0,24.466,0V81.134Z" transform="translate(-19.633 -62.728)" fill="#8d6e63"/>
    <path id="Trazado_16588" data-name="Trazado 16588" d="M55.746,93.289a3.925,3.925,0,0,1-.807-.1.822.822,0,0,1-.653-.806V83.309a.822.822,0,0,1,.655-.806,3.87,3.87,0,0,1,.8-.1c2.532,0,4.592,2.441,4.592,5.441S58.278,93.289,55.746,93.289Zm.186-9.228v7.573c1.538-.124,2.759-1.775,2.759-3.786S57.47,84.185,55.932,84.061Z" transform="translate(-19.633 -62.728)" fill="#8d6e63"/>
    <path id="Trazado_16589" data-name="Trazado 16589" d="M28.359,93.289c-2.532,0-4.592-2.441-4.592-5.441s2.06-5.441,4.592-5.441a3.87,3.87,0,0,1,.805.1.823.823,0,0,1,.656.806v9.077a.823.823,0,0,1-.654.806A3.916,3.916,0,0,1,28.359,93.289Zm-.186-9.228c-1.538.124-2.759,1.775-2.759,3.787s1.221,3.662,2.759,3.786Z" transform="translate(-19.633 -62.728)" fill="#8d6e63"/>
    <path id="Trazado_16590" data-name="Trazado 16590" d="M62.009,122.693a.823.823,0,0,1-.823-.824v-4.432a6.146,6.146,0,0,0-6.139-6.138H29.058a6.145,6.145,0,0,0-6.138,6.138v4.432a.823.823,0,1,1-1.647,0v-4.432a7.8,7.8,0,0,1,7.785-7.785H55.047a7.794,7.794,0,0,1,7.785,7.785v4.432A.823.823,0,0,1,62.009,122.693Z" transform="translate(-19.633 -62.728)" fill="#8d6e63"/>
    <path id="Trazado_16591" data-name="Trazado 16591" d="M32.327,122.693a.824.824,0,0,1-.824-.824v-3.715a.824.824,0,0,1,1.647,0v3.715A.824.824,0,0,1,32.327,122.693Z" transform="translate(-19.633 -62.728)" fill="#8d6e63"/>
    <path id="Trazado_16592" data-name="Trazado 16592" d="M51.779,122.693a.823.823,0,0,1-.823-.824v-3.715a.823.823,0,0,1,1.646,0v3.715A.824.824,0,0,1,51.779,122.693Z" transform="translate(-19.633 -62.728)" fill="#8d6e63"/>
    <path id="Trazado_16593" data-name="Trazado 16593" d="M47.347,111.3H36.758a.824.824,0,0,1-.823-.823v-6.648a.824.824,0,0,1,1.158-.753,12.214,12.214,0,0,0,9.919,0,.824.824,0,0,1,1.158.753v6.648A.824.824,0,0,1,47.347,111.3Zm-9.765-1.647h8.941v-4.617a13.849,13.849,0,0,1-8.941,0Z" transform="translate(-19.633 -62.728)" fill="#8d6e63"/>
    <path id="Trazado_16594" data-name="Trazado 16594" d="M62.035,81.134H22.071a2.438,2.438,0,1,1,0-4.876h8.121L31.536,68a6.258,6.258,0,0,1,6.2-5.273h1.012a.823.823,0,0,1,.823.824c0,.665,1.019,1.405,2.481,1.405s2.48-.74,2.48-1.405a.824.824,0,0,1,.823-.824h1.013A6.258,6.258,0,0,1,52.569,68l1.344,8.257h8.122a2.438,2.438,0,0,1,0,4.876ZM22.071,77.9a.792.792,0,1,0,0,1.583H62.035a.792.792,0,0,0,0-1.583H53.213a.823.823,0,0,1-.812-.691l-1.457-8.948a4.617,4.617,0,0,0-4.575-3.891h-.335A4.077,4.077,0,0,1,42.053,66.6a4.075,4.075,0,0,1-3.981-2.229h-.335a4.618,4.618,0,0,0-4.576,3.891L31.7,77.214a.824.824,0,0,1-.813.691Z" transform="translate(-19.633 -62.728)" fill="#8d6e63"/>
    <path id="Trazado_16595" data-name="Trazado 16595" d="M48.422,77.9H30.892a.823.823,0,0,1,0-1.647h17.53a.823.823,0,0,1,0,1.647Z" transform="translate(-19.633 -62.728)" fill="#8d6e63"/>
    <path id="Trazado_16596" data-name="Trazado 16596" d="M52.772,75.195H31.333a.821.821,0,0,1-.812-.955l.411-2.529a.824.824,0,0,1,.813-.691H52.361a.824.824,0,0,1,.812.691l.412,2.529a.823.823,0,0,1-.813.955ZM32.3,73.549H51.8l-.144-.882H32.445Z" transform="translate(-19.633 -62.728)" fill="#8d6e63"/>
  </g>
</svg>
