<svg id="Grupo_3679" data-name="Grupo 3679" xmlns="http://www.w3.org/2000/svg" width="100.617" height="100.617" viewBox="0 0 100.617 100.617">
  <circle id="Elipse_718" data-name="Elipse 718" cx="43.76" cy="43.76" r="43.76" transform="translate(0 14.267) rotate(-9.381)" fill="#ffe082"/>
  <g id="Grupo_3678" data-name="Grupo 3678" transform="translate(19.393 22.746)">
    <path id="Trazado_16597" data-name="Trazado 16597" d="M45.621,102.123H16.752a2.069,2.069,0,0,1-.985-3.888l.123-.067a.424.424,0,0,0,.222-.371V95.024a.418.418,0,0,0-.124-.3l-1.064-1.064a.824.824,0,0,1-.241-.582V92.031a.824.824,0,0,1,.241-.582l1.4-1.4a.422.422,0,0,0,.124-.3V87.691a.426.426,0,0,0-.124-.3L15.289,86.36a2.083,2.083,0,0,1-.606-1.463V83.755a2.072,2.072,0,0,1,2.069-2.069h1.1a.823.823,0,0,1,.824.823v.161H20.99a.431.431,0,0,0,.3-.125l.253-.253A2.047,2.047,0,0,1,23,81.686H25.79a.823.823,0,0,1,.582.241l.188.187h6.254L33,81.928a.822.822,0,0,1,.583-.242h2.682a.823.823,0,0,1,.582.241l.58.58c.77-.077,1.339-.108,1.762-.108a.834.834,0,0,1,.822-.713h5.015a.823.823,0,0,1,.824.823v.11a2.071,2.071,0,0,1,1.84,2.056v2.3a2.064,2.064,0,0,1-.6,1.463l-.351.35a.422.422,0,0,0-.124.3v1.994h.256a.822.822,0,0,1,.823.823v3.9a.826.826,0,0,1-.174.507v1.922a.826.826,0,0,1,.174.507v1.31A2.071,2.071,0,0,1,45.621,102.123ZM16.33,92.738l.822.822a2.057,2.057,0,0,1,.606,1.464V97.8a2.063,2.063,0,0,1-1.084,1.818l-.123.067a.423.423,0,0,0,.2.795H45.621a.424.424,0,0,0,.423-.422v-.978a.82.82,0,0,1-.175-.507V95.984a.82.82,0,0,1,.175-.507V92.728h-.256a.822.822,0,0,1-.823-.823V89.088a2.05,2.05,0,0,1,.607-1.464l.348-.349a.421.421,0,0,0,.124-.3v-2.3a.424.424,0,0,0-.423-.422h-.595a.822.822,0,0,1-.823-.823v-.1l-3.369.033a.822.822,0,0,1-1.274.689,17.558,17.558,0,0,0-2.348.13.813.813,0,0,1-.672-.237l-.616-.615h-2l-.187.186a.822.822,0,0,1-.583.242H26.219a.823.823,0,0,1-.582-.241l-.188-.187H23a.414.414,0,0,0-.3.123l-.255.254a2.056,2.056,0,0,1-1.463.607H17.855a.823.823,0,0,1-.823-.824v-.16h-.28a.422.422,0,0,0-.422.422V84.9a.429.429,0,0,0,.123.3l1.032,1.032a2.053,2.053,0,0,1,.606,1.463v2.063a2.048,2.048,0,0,1-.607,1.463L16.33,92.372Z" transform="translate(-12.845 -65.438)" fill="#8d6e63"/>
    <path id="Trazado_16598" data-name="Trazado 16598" d="M45.788,92.347H16.014a.823.823,0,0,1,0-1.646H45.788a.823.823,0,1,1,0,1.646Z" transform="translate(-12.845 -65.438)" fill="#8d6e63"/>
    <path id="Trazado_16599" data-name="Trazado 16599" d="M26.219,102.123a.822.822,0,0,1-.823-.823V82.938a.823.823,0,1,1,1.646,0V101.3A.822.822,0,0,1,26.219,102.123Z" transform="translate(-12.845 -65.438)" fill="#8d6e63"/>
    <path id="Trazado_16600" data-name="Trazado 16600" d="M37.122,102.123a.822.822,0,0,1-.823-.823V83.366a.823.823,0,0,1,1.647,0V101.3A.823.823,0,0,1,37.122,102.123Z" transform="translate(-12.845 -65.438)" fill="#8d6e63"/>
    <path id="Trazado_16601" data-name="Trazado 16601" d="M71,102.123H38.72a.823.823,0,1,1,0-1.646H71a.775.775,0,0,0,.774-.775V98.365a.822.822,0,0,1-.224-.565V94.482a.825.825,0,0,1,.224-.566V90.075h-.561a.822.822,0,0,1-.823-.823V85.639a2.409,2.409,0,0,1,.708-1.711l.45-.449a.78.78,0,0,0,.226-.547V79.981A.775.775,0,0,0,71,79.206h-.764a.822.822,0,0,1-.823-.823v-.357H64.63V78.3a.824.824,0,0,1-1.319.658,21.185,21.185,0,0,0-3.118.16.822.822,0,0,1-.673-.236l-.857-.858H55.9l-.308.308a.824.824,0,0,1-.582.241H50.86a.826.826,0,0,1-.582-.241l-.308-.308H46.739a.768.768,0,0,0-.548.227l-.325.325a2.4,2.4,0,0,1-1.712.71H40.135a.824.824,0,0,1-.824-.824v-.438H38.72a.772.772,0,0,0-.713.473.824.824,0,1,1-1.518-.64,2.417,2.417,0,0,1,2.231-1.48h1.415a.823.823,0,0,1,.823.824v.438h3.2a.768.768,0,0,0,.548-.227l.325-.325a2.406,2.406,0,0,1,1.712-.71h3.572a.819.819,0,0,1,.582.242l.308.308h3.473l.308-.308a.819.819,0,0,1,.582-.242H59a.823.823,0,0,1,.583.242l.82.82a21.224,21.224,0,0,1,2.577-.143V77.2a.824.824,0,0,1,.824-.824h6.431a.823.823,0,0,1,.823.824v.358a2.423,2.423,0,0,1,2.362,2.42v2.951a2.437,2.437,0,0,1-.709,1.711l-.45.45a.769.769,0,0,0-.226.546v2.789H72.6a.824.824,0,0,1,.824.824v5.006a.821.821,0,0,1-.225.565v2.635a.826.826,0,0,1,.225.566V99.7A2.424,2.424,0,0,1,71,102.123Z" transform="translate(-12.845 -65.438)" fill="#8d6e63"/>
    <path id="Trazado_16602" data-name="Trazado 16602" d="M71.215,89.586H50.86a.823.823,0,1,1,0-1.646H71.215a.823.823,0,1,1,0,1.646Z" transform="translate(-12.845 -65.438)" fill="#8d6e63"/>
    <path id="Trazado_16603" data-name="Trazado 16603" d="M50.86,102.123a.822.822,0,0,1-.823-.823V77.752a.823.823,0,0,1,1.647,0V101.3A.823.823,0,0,1,50.86,102.123Z" transform="translate(-12.845 -65.438)" fill="#8d6e63"/>
    <path id="Trazado_16604" data-name="Trazado 16604" d="M60.1,102.123a.823.823,0,0,1-.824-.823v-23a.823.823,0,1,1,1.647,0v23A.822.822,0,0,1,60.1,102.123Z" transform="translate(-12.845 -65.438)" fill="#8d6e63"/>
    <path id="Trazado_16605" data-name="Trazado 16605" d="M74.437,102.123H13.668a.823.823,0,0,1,0-1.646H74.437a.823.823,0,1,1,0,1.646Z" transform="translate(-12.845 -65.438)" fill="#8d6e63"/>
    <path id="Trazado_16606" data-name="Trazado 16606" d="M64.126,119.983a.838.838,0,0,1-.339-.073.824.824,0,0,1-.41-1.09l8.077-17.859a.823.823,0,0,1,1.5.678L64.877,119.5A.825.825,0,0,1,64.126,119.983Z" transform="translate(-12.845 -65.438)" fill="#8d6e63"/>
    <path id="Trazado_16607" data-name="Trazado 16607" d="M57.041,119.983a.838.838,0,0,1-.339-.073.824.824,0,0,1-.41-1.09l8.077-17.859a.823.823,0,0,1,1.5.678L57.792,119.5A.825.825,0,0,1,57.041,119.983Z" transform="translate(-12.845 -65.438)" fill="#8d6e63"/>
    <path id="Trazado_16608" data-name="Trazado 16608" d="M49.955,119.983a.823.823,0,0,1-.749-1.163l8.078-17.859a.823.823,0,0,1,1.5.678L50.706,119.5A.823.823,0,0,1,49.955,119.983Z" transform="translate(-12.845 -65.438)" fill="#8d6e63"/>
    <path id="Trazado_16609" data-name="Trazado 16609" d="M45.63,113.883a.825.825,0,0,1-.75-1.163L50.2,100.961a.823.823,0,0,1,1.5.678L46.38,113.4A.823.823,0,0,1,45.63,113.883Z" transform="translate(-12.845 -65.438)" fill="#8d6e63"/>
    <path id="Trazado_16610" data-name="Trazado 16610" d="M49.956,119.983H13.668a.824.824,0,0,1,0-1.647H49.956a.824.824,0,0,1,0,1.647Z" transform="translate(-12.845 -65.438)" fill="#8d6e63"/>
    <path id="Trazado_16611" data-name="Trazado 16611" d="M41.7,113.883H13.668a.824.824,0,0,1,0-1.647H41.7a.824.824,0,1,1,0,1.647Z" transform="translate(-12.845 -65.438)" fill="#8d6e63"/>
    <path id="Trazado_16612" data-name="Trazado 16612" d="M48.289,107.783H13.668a.823.823,0,1,1,0-1.646H48.289a.823.823,0,1,1,0,1.646Z" transform="translate(-12.845 -65.438)" fill="#8d6e63"/>
    <path id="Trazado_16613" data-name="Trazado 16613" d="M45.63,113.883H13.668a.824.824,0,0,1,0-1.647H45.63a.824.824,0,1,1,0,1.647Z" transform="translate(-12.845 -65.438)" fill="#8d6e63"/>
    <path id="Trazado_16614" data-name="Trazado 16614" d="M69.067,77.3a.823.823,0,0,1-.823-.824v-.468a.821.821,0,0,1-.1-.4V74.107a.814.814,0,0,1,.1-.4v-1.18a.823.823,0,0,1-.628-.8v-1.64a1.563,1.563,0,0,1,.453-1.1l.2-.2-.027-1.173H68a.822.822,0,0,1-.772-.535H65.832a.862.862,0,0,1-1.115.416,10.727,10.727,0,0,0-1.234.078.818.818,0,0,1-.671-.236l-.259-.258-.887.008a.826.826,0,0,1-.582.241H57.045a.823.823,0,0,1-.582-.241c-.008-.008-1.289-.008-1.289-.008L55.1,67.2a1.559,1.559,0,0,1-1.1.453H52.175a.821.821,0,0,1-.544-.2v.2l.572.532a1.534,1.534,0,0,1,.454,1.1v1.2a1.535,1.535,0,0,1-.456,1.1l-.534.535.342.342a1.54,1.54,0,0,1,.453,1.095v1.615a1.547,1.547,0,0,1-.81,1.361.864.864,0,0,1-.845.777.823.823,0,0,1-.823-.824,1.546,1.546,0,0,1,.812-1.362c.019-.01.019-1.567.019-1.567L50.224,73a.831.831,0,0,1-.24-.582v-.61a.824.824,0,0,1,.241-.582l.813-.814-.028-1.131-.573-.532a1.54,1.54,0,0,1-.453-1.1v-.665a1.551,1.551,0,0,1,1.549-1.549h.642a.825.825,0,0,1,.785.573H54l.079-.119a1.56,1.56,0,0,1,1.1-.454H56.8a.823.823,0,0,1,.582.242c.008.008,3.373,0,3.373,0a.819.819,0,0,1,.582-.242h1.561a.82.82,0,0,1,.581.241l.224.223c.255-.023.472-.038.658-.044a.824.824,0,0,1,.718-.42H68a.822.822,0,0,1,.792.6,1.553,1.553,0,0,1,1.1,1.483v1.34a1.561,1.561,0,0,1-.454,1.1l-.2.2.014.768a.823.823,0,0,1,.643.8V74a.822.822,0,0,1-.1.4v.919a.818.818,0,0,1,.1.395v.762A.824.824,0,0,1,69.067,77.3Z" transform="translate(-12.845 -65.438)" fill="#8d6e63"/>
    <path id="Trazado_16615" data-name="Trazado 16615" d="M68.439,72.334H51.1a.824.824,0,0,1,0-1.647H68.439a.824.824,0,1,1,0,1.647Z" transform="translate(-12.845 -65.438)" fill="#8d6e63"/>
    <path id="Trazado_16616" data-name="Trazado 16616" d="M57.045,78.026a.822.822,0,0,1-.823-.823V66.511a.823.823,0,0,1,1.646,0V77.2A.822.822,0,0,1,57.045,78.026Z" transform="translate(-12.845 -65.438)" fill="#8d6e63"/>
    <path id="Trazado_16617" data-name="Trazado 16617" d="M63.393,78.026a.822.822,0,0,1-.823-.823V66.76a.824.824,0,0,1,1.647,0V77.2A.823.823,0,0,1,63.393,78.026Z" transform="translate(-12.845 -65.438)" fill="#8d6e63"/>
  </g>
</svg>
