<svg xmlns="http://www.w3.org/2000/svg" width="100" height="99.951" viewBox="0 0 100 99.951">
  <g id="Grupo_4566" data-name="Grupo 4566" transform="translate(-517.72 -9341.28)">
    <ellipse id="Elipse_736" data-name="Elipse 736" cx="49.919" cy="49.944" rx="49.919" ry="49.944" transform="translate(517.72 9441.118) rotate(-89.935)" fill="#ffe082"/>
    <g id="Grupo_4546" data-name="Grupo 4546" transform="translate(527.984 9378.797)">
      <path id="Trazado_28208" data-name="Trazado 28208" d="M-2976.259-2520.755a219.1,219.1,0,0,1-27.626-1.546c-10.836-1.457-12.329-3.2-12.329-4.865s1.5-3.407,12.333-4.857a218.914,218.914,0,0,1,27.626-1.529,219.03,219.03,0,0,1,27.626,1.546c10.836,1.457,12.329,3.2,12.329,4.865s-1.5,3.407-12.333,4.857A218.936,218.936,0,0,1-2976.259-2520.755Zm-37.646-6.411c2.156,1.727,16.034,4.041,37.646,4.047s35.493-2.3,37.65-4.023c-2.156-1.726-16.034-4.039-37.646-4.046S-3011.749-2528.891-3013.905-2527.166Z" transform="translate(3016.214 2547.241)" fill="#8d6e63"/>
      <path id="Trazado_28209" data-name="Trazado 28209" d="M-2976.259-2524.755a219.148,219.148,0,0,1-27.626-1.545c-10.836-1.457-12.329-3.2-12.329-4.866s1.5-3.407,12.333-4.857a219.005,219.005,0,0,1,27.626-1.529,219.025,219.025,0,0,1,27.626,1.546c10.836,1.457,12.329,3.2,12.329,4.865s-1.5,3.407-12.333,4.857A219.037,219.037,0,0,1-2976.259-2524.755Zm-37.646-6.411c2.156,1.728,16.034,4.041,37.646,4.048s35.493-2.3,37.65-4.024c-2.156-1.726-16.034-4.039-37.646-4.046S-3011.749-2532.891-3013.905-2531.167Z" transform="translate(3016.214 2546.678)" fill="#8d6e63"/>
      <path id="Trazado_28210" data-name="Trazado 28210" d="M-2976.259-2528.755a219.1,219.1,0,0,1-27.626-1.546c-10.836-1.457-12.329-3.2-12.329-4.865s1.5-3.407,12.333-4.857a218.959,218.959,0,0,1,27.626-1.529,218.979,218.979,0,0,1,27.626,1.546c10.836,1.457,12.329,3.2,12.329,4.865s-1.5,3.407-12.333,4.857A218.94,218.94,0,0,1-2976.259-2528.755Zm-37.646-6.411c2.156,1.727,16.034,4.041,37.646,4.048s35.493-2.3,37.65-4.023c-2.156-1.726-16.034-4.04-37.646-4.046S-3011.749-2536.891-3013.905-2535.167Z" transform="translate(3016.214 2546.115)" fill="#8d6e63"/>
      <path id="Trazado_28211" data-name="Trazado 28211" d="M-2976.259-2532.755a219.051,219.051,0,0,1-27.626-1.546c-10.836-1.457-12.329-3.2-12.329-4.865s1.5-3.407,12.333-4.857a218.918,218.918,0,0,1,27.626-1.529,218.984,218.984,0,0,1,27.626,1.546c10.836,1.457,12.329,3.2,12.329,4.865s-1.5,3.407-12.333,4.857A218.94,218.94,0,0,1-2976.259-2532.755Zm-37.646-6.411c2.156,1.727,16.034,4.04,37.646,4.047s35.493-2.3,37.65-4.023c-2.156-1.726-16.034-4.04-37.646-4.046S-3011.749-2540.891-3013.905-2539.166Z" transform="translate(3016.214 2545.552)" fill="#8d6e63"/>
      <path id="Trazado_28212" data-name="Trazado 28212" d="M-3004.372-2511.2a1.13,1.13,0,0,1-1.072-1.182l0-12.088a1.128,1.128,0,0,1,1.071-1.181,1.13,1.13,0,0,1,1.07,1.182l0,12.087A1.132,1.132,0,0,1-3004.372-2511.2Z" transform="translate(3017.73 2548.353)" fill="#8d6e63"/>
      <path id="Trazado_28213" data-name="Trazado 28213" d="M-3004.067-2501.551c-2.036,0-3.57-2.9-3.569-6.753s1.538-6.751,3.573-6.75,3.57,2.9,3.569,6.752a1.132,1.132,0,0,1-1.071,1.182,1.13,1.13,0,0,1-1.071-1.182c0-2.851-1.012-4.388-1.427-4.388s-1.431,1.538-1.431,4.387,1.012,4.388,1.427,4.388a1.129,1.129,0,0,1,1.07,1.182A1.13,1.13,0,0,1-3004.067-2501.551Z" transform="translate(3017.421 2549.844)" fill="#8d6e63"/>
    </g>
  </g>
</svg>
