<svg xmlns="http://www.w3.org/2000/svg" width="356" height="244.443" viewBox="0 0 356 244.443">
  <g id="Grupo_4468" data-name="Grupo 4468" transform="translate(-324 -955.478)">
    <path id="Trazado_11809" data-name="Trazado 11809" d="M620,312.256c-9.375-6.089-23.176-4.224-32.644,3.061-10.248,7.883-7.664,13.712-20.025,12.714-3.381-.273-7-2.041-8.29-5.588-1.742-4.786,1.413-9.867,4.022-14.118,7.933-12.923,7.316-26.5,5.507-42.1S551.75,240.7,539.3,233.7s-28.766-5.158-38.853,5.673c-6.89,7.4-10.387,17.843-15.338,27.013s-12.758,17.889-22.254,17.674c-11.481-.26-27.865-13.117-30-25.885s-.4-26.068-2.623-38.816c-4.2-24.1-22.441-40.7-44.151-40.585s-43.974,18.022-44.971,42.56c-.543,13.36,7.333,39.328.734,50.422-5.963,10.026-19.529,15.742-28.925,10.616-25.217-13.756-39.817-.511-44.677,16.095-5.436,18.579-5.653,34.373-.61,53.29s16.149,33.907,28.606,47.754c18.97,21.087,55.759,18.212,59.787,18.132,75.975-1.531,113.586-4.606,189.528-1.66,30.628,1.188,56.136-23.554,74.447-53.908Z" transform="translate(60 778.698)" fill="#80cbc4" opacity="0.1"/>
    <g id="Grupo_3061" data-name="Grupo 3061" transform="translate(328.332 1093.168)">
      <g id="Grupo_3060" data-name="Grupo 3060" transform="translate(0 0)">
        <g id="Grupo_3059" data-name="Grupo 3059">
          <path id="Trazado_11810" data-name="Trazado 11810" d="M280.842,345.091a1.815,1.815,0,1,1-1.816,1.815A1.815,1.815,0,0,1,280.842,345.091Z" transform="translate(-270.311 -336.376)" fill="#80cbc4"/>
          <path id="Trazado_11811" data-name="Trazado 11811" d="M289.62,343.786l-2.537-.476a7.788,7.788,0,0,0-.606-1.468l1.467-2.146a.545.545,0,0,0-.062-.666l-1.81-1.811a.546.546,0,0,0-.667-.062l-2.147,1.468a7.845,7.845,0,0,0-1.513-.618l-.473-2.524a.547.547,0,0,0-.516-.428H278.2a.547.547,0,0,0-.516.428l-.478,2.548a7.893,7.893,0,0,0-1.452.606l-2.12-1.449a.547.547,0,0,0-.668.062l-1.81,1.81a.547.547,0,0,0-.062.668l1.459,2.133a7.872,7.872,0,0,0-.6,1.45l-2.535.476a.547.547,0,0,0-.429.516v2.56a.549.549,0,0,0,.429.517l2.534.475a7.833,7.833,0,0,0,.61,1.48l-1.442,2.108a.547.547,0,0,0,.063.668l1.81,1.811a.547.547,0,0,0,.666.062l2.108-1.443a7.936,7.936,0,0,0,1.437.6l.478,2.548a.548.548,0,0,0,.517.429h2.56a.548.548,0,0,0,.517-.429l.472-2.522a7.958,7.958,0,0,0,1.5-.61l2.133,1.46a.548.548,0,0,0,.669-.062l1.81-1.81a.545.545,0,0,0,.062-.666l-1.453-2.122a7.862,7.862,0,0,0,.62-1.5l2.532-.475a.549.549,0,0,0,.43-.517V344.3A.544.544,0,0,0,289.62,343.786Zm-9.242,6.109a4.4,4.4,0,1,1,3.451-3.448A4.4,4.4,0,0,1,280.378,349.895Z" transform="translate(-268.989 -335.054)" fill="#80cbc4"/>
        </g>
      </g>
    </g>
    <g id="Grupo_3064" data-name="Grupo 3064" transform="translate(364.795 1132.298)">
      <g id="Grupo_3063" data-name="Grupo 3063">
        <g id="Grupo_3062" data-name="Grupo 3062">
          <path id="Trazado_11812" data-name="Trazado 11812" d="M321.507,388.753a1.437,1.437,0,1,1-1.915-.682A1.437,1.437,0,0,1,321.507,388.753Z" transform="translate(-312.009 -381.148)" fill="#80cbc4"/>
          <path id="Trazado_11813" data-name="Trazado 11813" d="M323.9,394.954l-.522-1.976a6.072,6.072,0,0,0,.844-.933l2.034.321a.432.432,0,0,0,.456-.271l.681-1.909a.433.433,0,0,0-.182-.5l-1.779-1.037a6.22,6.22,0,0,0-.072-1.292l1.645-1.2a.432.432,0,0,0,.131-.514l-.869-1.831a.433.433,0,0,0-.482-.223l-1.985.524a6.176,6.176,0,0,0-.926-.833l.317-2.008a.434.434,0,0,0-.271-.457l-1.909-.68a.434.434,0,0,0-.5.182l-1.029,1.768a6.206,6.206,0,0,0-1.241.066l-1.2-1.653a.435.435,0,0,0-.515-.131l-1.83.869a.434.434,0,0,0-.224.483l.521,1.974a6.214,6.214,0,0,0-.852.939l-2-.315a.435.435,0,0,0-.457.271L311,386.5a.432.432,0,0,0,.182.5l1.748,1.018a6.242,6.242,0,0,0,.059,1.231l-1.66,1.207a.435.435,0,0,0-.131.515l.87,1.831a.433.433,0,0,0,.482.223l1.965-.518a6.206,6.206,0,0,0,.945.864l-.32,2.021a.433.433,0,0,0,.272.458l1.909.68a.433.433,0,0,0,.5-.181l1.025-1.76a6.236,6.236,0,0,0,1.282-.066l1.2,1.651a.434.434,0,0,0,.516.131l1.83-.869A.43.43,0,0,0,323.9,394.954Zm-7.509-4.535a3.481,3.481,0,1,1,3.638,1.3A3.484,3.484,0,0,1,316.392,390.419Z" transform="translate(-310.983 -380.119)" fill="#80cbc4"/>
        </g>
      </g>
    </g>
    <g id="Grupo_3067" data-name="Grupo 3067" transform="translate(654.153 1098.66)">
      <g id="Grupo_3066" data-name="Grupo 3066" transform="translate(0 0)">
        <g id="Grupo_3065" data-name="Grupo 3065">
          <circle id="Elipse_649" data-name="Elipse 649" cx="1.231" cy="1.231" r="1.231" transform="translate(5.728 8.157) rotate(-80.748)" fill="#80cbc4"/>
          <path id="Trazado_11814" data-name="Trazado 11814" d="M658.224,347.3l-1.72-.323a5.364,5.364,0,0,0-.412-1l1-1.454a.37.37,0,0,0-.042-.452l-1.228-1.229a.372.372,0,0,0-.452-.042l-1.456,1a5.255,5.255,0,0,0-1.026-.419l-.32-1.711a.371.371,0,0,0-.35-.29h-1.736a.371.371,0,0,0-.35.29L649.8,343.4a5.234,5.234,0,0,0-.985.412l-1.438-.983a.371.371,0,0,0-.452.042l-1.228,1.228a.37.37,0,0,0-.042.452l.989,1.446a5.333,5.333,0,0,0-.4.985l-1.72.322a.37.37,0,0,0-.29.35v1.736a.37.37,0,0,0,.291.35l1.718.322a5.313,5.313,0,0,0,.413,1l-.978,1.43a.37.37,0,0,0,.042.452l1.229,1.229a.369.369,0,0,0,.452.042l1.429-.979a5.351,5.351,0,0,0,.974.406l.324,1.728a.372.372,0,0,0,.351.291h1.736a.371.371,0,0,0,.35-.291l.321-1.711a5.44,5.44,0,0,0,1.015-.414l1.447.99a.373.373,0,0,0,.454-.042l1.227-1.228a.37.37,0,0,0,.043-.452l-.986-1.44a5.383,5.383,0,0,0,.42-1.016l1.718-.322a.371.371,0,0,0,.291-.351v-1.736A.368.368,0,0,0,658.224,347.3Zm-6.268,4.143A2.981,2.981,0,1,1,654.3,349.1,2.984,2.984,0,0,1,651.956,351.442Z" transform="translate(-644.233 -341.378)" fill="#80cbc4"/>
        </g>
      </g>
    </g>
    <g id="Grupo_3070" data-name="Grupo 3070" transform="translate(629.721 1125.599)">
      <g id="Grupo_3069" data-name="Grupo 3069" transform="translate(0 0)">
        <g id="Grupo_3068" data-name="Grupo 3068">
          <path id="Trazado_11815" data-name="Trazado 11815" d="M630.813,384.314a2.011,2.011,0,1,1-2.837-.214A2.011,2.011,0,0,1,630.813,384.314Z" transform="translate(-617.567 -373.881)" fill="#80cbc4"/>
          <path id="Trazado_11816" data-name="Trazado 11816" d="M636.622,391.337l-1.433-2.476a8.683,8.683,0,0,0,.8-1.57l2.864-.317a.606.606,0,0,0,.516-.533l.214-2.83a.6.6,0,0,0-.43-.605l-2.785-.743a8.651,8.651,0,0,0-.573-1.718l1.779-2.22a.6.6,0,0,0-.013-.742l-1.849-2.151a.605.605,0,0,0-.733-.124l-2.487,1.439a8.662,8.662,0,0,0-1.558-.782l-.313-2.828a.607.607,0,0,0-.535-.517l-2.828-.214a.606.606,0,0,0-.606.431l-.738,2.766a8.738,8.738,0,0,0-1.651.546l-2.231-1.788a.607.607,0,0,0-.743.013l-2.151,1.849a.607.607,0,0,0-.124.734l1.431,2.472a8.712,8.712,0,0,0-.8,1.582l-2.814.312a.6.6,0,0,0-.516.534l-.214,2.83a.6.6,0,0,0,.429.6l2.735.729a8.756,8.756,0,0,0,.535,1.639L618,389.9a.609.609,0,0,0,.013.744l1.849,2.151a.606.606,0,0,0,.733.124l2.462-1.425a8.776,8.776,0,0,0,1.594.818l.314,2.847a.607.607,0,0,0,.536.517l2.828.214a.6.6,0,0,0,.6-.429l.734-2.753a8.751,8.751,0,0,0,1.707-.562l2.228,1.785a.607.607,0,0,0,.744-.013l2.151-1.849A.6.6,0,0,0,636.622,391.337Zm-11.81-3.353a4.871,4.871,0,1,1,5.391.41A4.875,4.875,0,0,1,624.812,387.984Z" transform="translate(-616.094 -372.404)" fill="#80cbc4"/>
        </g>
      </g>
    </g>
    <g id="Grupo_3073" data-name="Grupo 3073" transform="translate(506.676 999.543)">
      <g id="Grupo_3072" data-name="Grupo 3072" transform="translate(0 0)">
        <g id="Grupo_3071" data-name="Grupo 3071">
          <path id="Trazado_11817" data-name="Trazado 11817" d="M501.671,249.224a3.842,3.842,0,1,1-5.324,1.085A3.842,3.842,0,0,1,501.671,249.224Z" transform="translate(-477.194 -230.04)" fill="#80cbc4"/>
          <path id="Trazado_11818" data-name="Trazado 11818" d="M516.677,258.234l-3.924-3.8a16.473,16.473,0,0,0,.643-3.3l5.1-2.075a1.156,1.156,0,0,0,.669-1.249l-1.082-5.311a1.156,1.156,0,0,0-1.1-.888l-5.5.086a16.648,16.648,0,0,0-1.949-2.859l2.112-5.007a1.157,1.157,0,0,0-.411-1.358l-4.519-2.989a1.159,1.159,0,0,0-1.411.154l-3.82,3.94a16.6,16.6,0,0,0-3.272-.625l-2.049-5.034a1.158,1.158,0,0,0-1.25-.67l-5.31,1.083a1.157,1.157,0,0,0-.889,1.106l.086,5.468a16.609,16.609,0,0,0-2.748,1.864l-5.032-2.122a1.157,1.157,0,0,0-1.36.411l-2.989,4.519a1.159,1.159,0,0,0,.155,1.413l3.919,3.8a16.55,16.55,0,0,0-.651,3.326l-5.009,2.039a1.158,1.158,0,0,0-.669,1.25l1.083,5.312a1.154,1.154,0,0,0,1.1.887l5.407-.086a16.662,16.662,0,0,0,1.837,2.735L481.7,265.3a1.16,1.16,0,0,0,.411,1.36l4.519,2.989a1.158,1.158,0,0,0,1.412-.154l3.781-3.9a16.787,16.787,0,0,0,3.356.671l2.061,5.068a1.16,1.16,0,0,0,1.254.671l5.309-1.083a1.155,1.155,0,0,0,.887-1.1l-.086-5.443a16.7,16.7,0,0,0,2.844-1.922l5.025,2.119a1.161,1.161,0,0,0,1.362-.412l2.988-4.518A1.15,1.15,0,0,0,516.677,258.234Zm-23.452,0a9.3,9.3,0,1,1,10.121-2.058A9.313,9.313,0,0,1,493.225,258.229Z" transform="translate(-474.386 -227.227)" fill="#80cbc4"/>
        </g>
      </g>
    </g>
    <g id="Grupo_3076" data-name="Grupo 3076" transform="translate(340.369 960.794)">
      <g id="Grupo_3074" data-name="Grupo 3074" transform="translate(255.442 0)" opacity="0.1">
        <path id="Trazado_11819" data-name="Trazado 11819" d="M587.652,202.886a24.688,24.688,0,0,1-6.846-.778c-3.255-.781-4.036-2.844-3.689-3.873a6,6,0,0,1,3.054-3.244c2.964-.9,4.581-.943,8.17-.361a7.655,7.655,0,0,1-4.265-2.285,2.6,2.6,0,0,1,.115-3.428c2.966-2.2,5.755-1.15,9.861.508a8.619,8.619,0,0,1-3.132-2.034,2.715,2.715,0,0,1-.992-2.324c.222-1.225,2.963-2.265,4.466-2.4a19.7,19.7,0,0,1,8.94,1.448c3.061,1.093,5.646,3.373,6.009,6.094.155-1.76,2.436-3.1,4.574-2.891a5.007,5.007,0,0,1,4.343,3.457,5.442,5.442,0,0,1-1.543,4.974c1.969-.511,3.529-1.29,5.531-.873s4.275,1.953,3.6,4.529a5.516,5.516,0,0,1-4.841,3.432,67.174,67.174,0,0,1-13,.515Z" transform="translate(-577.041 -182.6)" fill="#80cbc4"/>
      </g>
      <g id="Grupo_3075" data-name="Grupo 3075" transform="translate(0 24.104)" opacity="0.1">
        <path id="Trazado_11820" data-name="Trazado 11820" d="M292.565,233.016a18.7,18.7,0,0,1-6.266-.869c-2.979-.873-3.695-3.175-3.377-4.326.332-1.205,1.623-3.191,2.8-3.623,2.714-1,4.194-1.054,7.479-.4a6.77,6.77,0,0,1-3.9-2.553,3.4,3.4,0,0,1,.105-3.828c2.715-2.456,5.269-1.284,9.027.567a8.025,8.025,0,0,1-2.867-2.272,3.375,3.375,0,0,1-.908-2.6c.2-1.368,2.713-2.529,4.088-2.676a15.149,15.149,0,0,1,8.184,1.618,8.9,8.9,0,0,1,5.5,6.806,3.8,3.8,0,0,1,4.188-3.229,4.9,4.9,0,0,1,3.975,3.861,6.974,6.974,0,0,1-1.413,5.555c1.8-.571,3.231-1.441,5.064-.975a4.219,4.219,0,0,1,3.3,5.059,5.366,5.366,0,0,1-4.432,3.833,50.526,50.526,0,0,1-11.9.576Z" transform="translate(-282.852 -210.36)" fill="#80cbc4"/>
      </g>
    </g>
    <g id="Grupo_3079" data-name="Grupo 3079" transform="translate(341.16 955.478)">
      <g id="Grupo_3078" data-name="Grupo 3078" transform="translate(292.098 77.931)">
        <g id="Grupo_3077" data-name="Grupo 3077">
          <path id="Trazado_11821" data-name="Trazado 11821" d="M641.367,271.975c-.747.664-1.81.373-1.81-.921v-3.113a1.718,1.718,0,0,0-1.71-1.71h-2.183a3.645,3.645,0,0,1,.381,1.6,3.487,3.487,0,0,1-3.552,3.452h-.133a3.488,3.488,0,0,1-3.553-3.452,3.578,3.578,0,0,1,.382-1.6h-2.316a1.677,1.677,0,0,0-1.677,1.677v3.146c0,1.295-1.079,1.577-1.826.921a1.941,1.941,0,1,0-.009,2.955c.748-.664,1.835-.373,1.835.921v3.08a1.677,1.677,0,0,0,1.677,1.677H630c1.295,0,1.577,1.087.921,1.834a1.949,1.949,0,1,0,2.955,0c-.664-.747-.373-1.843.921-1.843h3.1a1.677,1.677,0,0,0,1.677-1.677v-3.08c0-1.295,1.054-1.577,1.8-.921a1.935,1.935,0,1,0-.009-2.946Z" transform="translate(-620.168 -266.231)" fill="#80cbc4"/>
        </g>
      </g>
      <path id="Trazado_11822" data-name="Trazado 11822" d="M560.251,180.919l1.116-1.117-1.117-1.117a1.293,1.293,0,1,1,1.829-1.829l1.117,1.117,1.116-1.117a1.293,1.293,0,0,1,1.829,1.829l-1.117,1.117,1.116,1.117a1.293,1.293,0,0,1-1.829,1.829l-1.115-1.117-1.117,1.117a1.293,1.293,0,0,1-1.829-1.829Z" transform="translate(-320.128 -176.479)" fill="#80cbc4"/>
      <path id="Trazado_11823" data-name="Trazado 11823" d="M303.825,272.707l1.117-1.116-1.117-1.117a1.293,1.293,0,0,1,1.829-1.829l1.117,1.117,1.117-1.117a1.293,1.293,0,1,1,1.829,1.829l-1.118,1.117,1.117,1.116a1.293,1.293,0,0,1-1.829,1.829l-1.116-1.116-1.117,1.116a1.293,1.293,0,0,1-1.829-1.829Z" transform="translate(-286.355 -188.568)" fill="#80cbc4"/>
      <path id="Trazado_11824" data-name="Trazado 11824" d="M657.23,376.317l1.116-1.117-1.117-1.116a1.293,1.293,0,0,1,1.829-1.83l1.117,1.117,1.116-1.117a1.293,1.293,0,0,1,1.829,1.83L662,375.2l1.116,1.117a1.293,1.293,0,0,1-1.829,1.829l-1.115-1.117-1.117,1.117a1.293,1.293,0,0,1-1.829-1.829Z" transform="translate(-332.901 -202.214)" fill="#80cbc4"/>
      <path id="Trazado_11825" data-name="Trazado 11825" d="M284.142,375.937l1.117-1.116-1.117-1.117a1.293,1.293,0,0,1,1.829-1.829l1.118,1.117,1.117-1.117a1.293,1.293,0,0,1,1.829,1.829l-1.118,1.117,1.117,1.116a1.293,1.293,0,0,1-1.829,1.829l-1.116-1.117-1.117,1.117a1.293,1.293,0,0,1-1.829-1.829Z" transform="translate(-283.763 -202.164)" fill="#80cbc4"/>
    </g>
    <g id="Grupo_3092" data-name="Grupo 3092" transform="translate(352.93 1014.742)">
      <g id="Grupo_3091" data-name="Grupo 3091" transform="translate(0 0)">
        <g id="Grupo_3081" data-name="Grupo 3081" transform="translate(111.996)">
          <g id="Grupo_3080" data-name="Grupo 3080" transform="translate(6.634 4.081)">
            <path id="Trazado_11826" data-name="Trazado 11826" d="M453.85,290.524a57.014,57.014,0,0,1-14.079-19.058,54.8,54.8,0,0,1-3.574-10.389,53.385,53.385,0,0,1-1.065-6.134c-.2-1.744,0-3.7-.536-5.363-.076-.235-.384-.165-.44.038-.467,1.666-.042,3.7.16,5.4a54.753,54.753,0,0,0,.984,5.681,55.946,55.946,0,0,0,9.981,21.378,52.457,52.457,0,0,0,8.534,8.492c.027.023.063-.019.036-.042Z" transform="translate(-433.944 -249.431)" fill="#8d6e63"/>
          </g>
          <path id="Trazado_11827" data-name="Trazado 11827" d="M449.081,290.425a5.262,5.262,0,0,1-2.3-.026,24.386,24.386,0,0,0-5.925-1.92,2.04,2.04,0,0,0-1.376.139.9.9,0,0,0-.165.989,1.79,1.79,0,0,0,.678.728c2.72,1.883,5.817.906,9.193.414Z" transform="translate(-428.006 -250.486)" fill="#8d6e63"/>
          <path id="Trazado_11828" data-name="Trazado 11828" d="M444.735,284.58a10.037,10.037,0,0,1-2.472.244c-2.046-.559-2.6-1.6-5.781-2.549a2.182,2.182,0,0,0-1.525.047,1.167,1.167,0,0,0-.4,1.118,1.721,1.721,0,0,0,.576.888c2.539,2.374,7.932,1.482,9.666.692Z" transform="translate(-427.388 -249.66)" fill="#8d6e63"/>
          <path id="Trazado_11829" data-name="Trazado 11829" d="M441.582,279.138a2.593,2.593,0,0,1-2.218-.417c-2.751-2.113-2.623-2.418-5.935-4.14a2.457,2.457,0,0,0-1.633-.3,1.082,1.082,0,0,0-.521,1.086,2.152,2.152,0,0,0,.539,1.066c2.508,3.081,6.7,3.31,9.956,3.106Z" transform="translate(-426.957 -248.615)" fill="#8d6e63"/>
          <path id="Trazado_11830" data-name="Trazado 11830" d="M438.405,272.722c.316-.044-1.805-.827-2.874-1.886-3.2-2.8-2.617-3.568-5.721-5.8-.343-.246-1.178-.686-1.6-.547a1.068,1.068,0,0,0-.656,1.014,2.253,2.253,0,0,0,.408,1.155c2.131,3.478,6.447,4.888,10.442,6.062Z" transform="translate(-426.468 -247.33)" fill="#8d6e63"/>
          <path id="Trazado_11831" data-name="Trazado 11831" d="M435.616,264.157c.289-.054-1.507-.242-2.4-1.227-2.4-1.8-2.169-3.227-4.832-5.269-.293-.226-1.021-.621-1.411-.471a1.182,1.182,0,0,0-.662,1,2.082,2.082,0,0,0,.293,1.1c1.7,3.28,7.277,5.483,9.016,4.865Z" transform="translate(-426.303 -246.368)" fill="#8d6e63"/>
          <path id="Trazado_11832" data-name="Trazado 11832" d="M434.129,257.514c.278-.04-.794-.628-1.427-1.474a19.8,19.8,0,0,0-3.878-4.655,1.631,1.631,0,0,0-1.21-.425,1.332,1.332,0,0,0-.81.83,1.474,1.474,0,0,0,.052.932c.918,2.8,4.2,3.887,7.273,4.792Z" transform="translate(-426.362 -245.548)" fill="#8d6e63"/>
          <path id="Trazado_11833" data-name="Trazado 11833" d="M434.167,252.158c.234.069-.733-.6-1.051-1.584-1.062-2.067-.388-2.961-1.562-5.072-.129-.233-.513-.715-.858-.763a1,1,0,0,0-.874.353,1.155,1.155,0,0,0-.209.741c-.015,2.5,2.33,4.521,4.555,6.326Z" transform="translate(-426.739 -244.731)" fill="#8d6e63"/>
          <path id="Trazado_11834" data-name="Trazado 11834" d="M452.027,290.871c-.226.124.873-.773.992-1.843a19.19,19.19,0,0,1,.893-5.434c.088-.293.388-.922.731-1.045a.968.968,0,0,1,.96.238,1.442,1.442,0,0,1,.353.812c.489,2.869-1.755,4.969-3.684,7.474Z" transform="translate(-429.687 -249.706)" fill="#8d6e63"/>
          <path id="Trazado_11835" data-name="Trazado 11835" d="M447.784,285.614a9.824,9.824,0,0,0,1.544-1.867c.637-1.934.063-2.917.989-5.957.1-.335.455-1.058.865-1.2a1.2,1.2,0,0,1,1.156.249,1.6,1.6,0,0,1,.434.917c.62,3.255-3.05,7.145-4.654,8.14Z" transform="translate(-429.127 -248.919)" fill="#8d6e63"/>
          <path id="Trazado_11836" data-name="Trazado 11836" d="M443.963,280.217a2.374,2.374,0,0,0,1.131-1.742c.195-3.045-.119-3.127.737-6.336.095-.354.431-1.118.838-1.278a1.164,1.164,0,0,1,1.161.247,1.727,1.727,0,0,1,.456.959c.7,3.415-1.867,6.4-4.141,8.5Z" transform="translate(-428.624 -248.164)" fill="#8d6e63"/>
          <path id="Trazado_11837" data-name="Trazado 11837" d="M440.122,273.183c-.294.1,1.127-1.364,1.5-2.6,1.315-3.416.425-3.757,1.951-6.711.168-.326.661-1,1.092-1.07a1.163,1.163,0,0,1,1.081.491,1.732,1.732,0,0,1,.24,1.035c-.055,3.489-3.039,6.326-5.867,8.855Z" transform="translate(-428.118 -247.109)" fill="#8d6e63"/>
          <path id="Trazado_11838" data-name="Trazado 11838" d="M437.484,266.318c-.278.077,1.194-.812,1.494-1.955,1.205-2.406.312-3.431,1.633-6.134.146-.3.587-.909,1-.953a1.262,1.262,0,0,1,1.067.514,1.716,1.716,0,0,1,.282.985c.124,3.278-3.66,7.311-5.475,7.543Z" transform="translate(-427.771 -246.383)" fill="#8d6e63"/>
          <path id="Trazado_11839" data-name="Trazado 11839" d="M435.564,258.989c-.273.066.505-.878.78-1.9a19.827,19.827,0,0,1,1.877-5.76c.138-.266.561-.808.966-.842a1.333,1.333,0,0,1,1.06.471,1.477,1.477,0,0,1,.3.885c.182,2.936-2.462,5.166-4.98,7.145Z" transform="translate(-427.515 -245.489)" fill="#8d6e63"/>
          <path id="Trazado_11840" data-name="Trazado 11840" d="M434.8,252.9c-.23.1.65-.635.8-1.512.725-1.917-.135-2.542.7-4.516a1.539,1.539,0,0,1,.75-.792,1.227,1.227,0,0,1,.972.137.889.889,0,0,1,.352.581c.469,2.081-1.6,4.195-3.574,6.1Z" transform="translate(-427.417 -244.903)" fill="#8d6e63"/>
        </g>
        <g id="Grupo_3090" data-name="Grupo 3090" transform="translate(65.581 12.573)">
          <path id="Trazado_11841" data-name="Trazado 11841" d="M431.14,292.4c2.643-3.047-1.4-6.306-5.484-5.648-3.432.551-7.753,2.495-9.4.162-.138-3.149,2.584-5.934,4.548-8.769,2.023-2.845,2.852-6.869-.822-8.542-4.111-1.8-8.94.611-13.116,1.779-1.93.546-4.557.65-5.951-.666-2.885-2.585,2.942-6.921-1.313-8.541-1.971-.276-3.925.239-4.777,1.263-1,1.231-1.6,3.41-3.752,2.7-2.489-.808-.709-3.412-2.565-4.933a4.48,4.48,0,0,0-4.4-.341,3.375,3.375,0,0,0-1.39,2.653c-2.954-.8-1.79-3.015-7.152-4.205-3.459-.758-3.591,2.812-.523,4.314,2.476,1.25,6.6,1.819,6.678,3.557.056,1.214-2.367,1.348-2.278,2.55.118,1.538,3.365,2.408,5.4,2.391,2.059-.022,5.281.7,5.337,2.316-3.207.2-6.536.466-8.076,2.211-1.421,1.724-.037,5.536,2.9,6.835,2.048.923,3.87.148,5.641-.384,1.832-.541,4.524-.583,5.951,1.137-1.467,1.844-2.707,4.644-.775,6.715,2.588,3.007,8.05-.346,10.469,2.713a12.805,12.805,0,0,0-4.171,4.675c-.81,1.943-.712,4.644.649,6.144,2.581,3.064,9.1-.866,10.322,3.239.417,1.734-.733,3.955-.535,5.765.184,2.548,2.865,2.95,5.309,2.067,3.881-1.365,11.189-6.455,11.444-11.238,0-2.5-3.434-3.243-3.438-5.686C425.73,295.424,429.035,294.873,431.14,292.4Z" transform="translate(-372.848 -259.211)" fill="#ffe082"/>
          <g id="Grupo_3089" data-name="Grupo 3089" transform="translate(16.736 7.556)">
            <g id="Grupo_3082" data-name="Grupo 3082" transform="translate(0 1.546)">
              <path id="Trazado_11842" data-name="Trazado 11842" d="M392.172,269.7c4.8,1.773,8.672,5.04,12.05,7.915a107.966,107.966,0,0,1,10.118,10.753,80.012,80.012,0,0,1,7.061,11.8c1.622,4.095,3.517,8.421,3.565,13.038-.005.2-.311.419-.377.226-1.351-3.529-1.974-7.94-3.372-11.71a79.817,79.817,0,0,0-6.446-11.484,107.857,107.857,0,0,0-9.544-10.816,94.789,94.789,0,0,0-13.086-9.679c-.037-.023-.013-.059.03-.043Z" transform="translate(-392.123 -269.694)" fill="#006064"/>
            </g>
            <g id="Grupo_3083" data-name="Grupo 3083" transform="translate(19.086 6.674)">
              <path id="Trazado_11843" data-name="Trazado 11843" d="M414.154,284.307c-.334-2.995,1.041-6.167,3.082-8.593.226-.263.812-.028.595.25a19.611,19.611,0,0,0-3.482,8.367c-.021.094-.186.067-.194-.023Z" transform="translate(-414.104 -275.599)" fill="#006064"/>
            </g>
            <g id="Grupo_3084" data-name="Grupo 3084" transform="translate(6.592)">
              <path id="Trazado_11844" data-name="Trazado 11844" d="M400.538,272.517l.063.03c.034.016.049.041.039.065l-.026.064c-.019.046-.1.054-.157.032-.747-.268-.643-1.551-.68-1.988a3.776,3.776,0,0,1,.431-2.771c.069-.081.3-.017.317.083a13.029,13.029,0,0,1-.185,2.225c-.006.73.115,1.581.173,2.272,0-.01.01-.019.025-.013Z" transform="translate(-399.715 -267.913)" fill="#006064"/>
            </g>
            <g id="Grupo_3085" data-name="Grupo 3085" transform="translate(4.007 10.392)">
              <path id="Trazado_11845" data-name="Trazado 11845" d="M404.416,280.458a14.98,14.98,0,0,0-4.961.12c-.793.186-1.693.86-2.568.762-.094-.01-.173-.084-.144-.157.264-.68,1.784-.954,2.6-1.11a16.356,16.356,0,0,1,5.073.015c.261.034.264.4,0,.37Z" transform="translate(-396.737 -279.881)" fill="#006064"/>
            </g>
            <g id="Grupo_3086" data-name="Grupo 3086" transform="translate(18.293 30.122)">
              <path id="Trazado_11846" data-name="Trazado 11846" d="M420.838,303.432a9.963,9.963,0,0,0-7.308,1.17c-.237.139-.475-.244-.248-.418a7.966,7.966,0,0,1,7.671-1c.148.069.049.282-.115.253Z" transform="translate(-413.191 -302.603)" fill="#006064"/>
            </g>
            <g id="Grupo_3087" data-name="Grupo 3087" transform="translate(29.963 25.052)">
              <path id="Trazado_11847" data-name="Trazado 11847" d="M426.636,303.908c.737-2.538,2.587-5.84,5.5-7.114.3-.129.536.213.242.4-2.909,1.862-3.875,4.166-5.549,6.748-.061.095-.227.089-.19-.032Z" transform="translate(-426.631 -296.765)" fill="#006064"/>
            </g>
            <g id="Grupo_3088" data-name="Grupo 3088" transform="translate(10.734 19.337)">
              <path id="Trazado_11848" data-name="Trazado 11848" d="M414.726,291.993c-3.342-.958-6.861-2.311-9.832-.542-.263.161-.576-.282-.3-.436,2.89-1.6,7.076-.666,10.171.907.043.022.011.083-.035.07Z" transform="translate(-404.485 -290.183)" fill="#006064"/>
            </g>
          </g>
        </g>
        <path id="Trazado_11849" data-name="Trazado 11849" d="M405.169,428.212a51.1,51.1,0,0,0-5.386-7.824,4.9,4.9,0,0,0,.411-.887c.173-.564.258-1.491.455-2.047a12.372,12.372,0,0,0,.907-4.022,4.512,4.512,0,0,0-1.6-3.658,1.1,1.1,0,0,0-.69-.267,1.11,1.11,0,0,0-.739.477,5.669,5.669,0,0,0-1.037,2.482,12.171,12.171,0,0,0,.873,6.286,57.278,57.278,0,0,0-8.287-7.357,4.486,4.486,0,0,0,.274-.742c.14-.572.172-1.5.336-2.069a12.357,12.357,0,0,0,.672-4.068,4.509,4.509,0,0,0-1.81-3.558,1.094,1.094,0,0,0-.705-.228,1.111,1.111,0,0,0-.71.518,5.663,5.663,0,0,0-.891,2.537c-.313,2.21.5,4.532,1.393,6.6a58.228,58.228,0,0,0-7.492-4.343,5.137,5.137,0,0,0,.443-1.074c.139-.572.171-1.5.335-2.069a12.333,12.333,0,0,0,.672-4.067,4.511,4.511,0,0,0-1.81-3.559,1.093,1.093,0,0,0-.705-.227,1.111,1.111,0,0,0-.71.518,5.664,5.664,0,0,0-.891,2.537c-.326,2.3.568,4.731,1.5,6.858a3.308,3.308,0,0,1,.165.6c-1.465-.693-2.977-1.276-4.478-1.889-1.769-.6-3.524-1.246-5.342-1.691-.551-.152-1.1-.284-1.651-.422.03-.1.057-.2.072-.288.1-.581.074-1.512.2-2.087a12.35,12.35,0,0,0,.41-4.1,4.509,4.509,0,0,0-2.036-3.435,1.094,1.094,0,0,0-.717-.182,1.114,1.114,0,0,0-.676.563,5.661,5.661,0,0,0-.727,2.589c-.172,2.243.8,4.526,1.838,6.54-2.506-.585-5-1.1-7.454-1.744a52.776,52.776,0,0,1-5.834-1.855,5.146,5.146,0,0,0,.731-.888c.3-.506.605-1.387.929-1.879a12.378,12.378,0,0,0,1.839-3.69,4.512,4.512,0,0,0-.685-3.934,1.091,1.091,0,0,0-.607-.425,1.113,1.113,0,0,0-.83.287,5.669,5.669,0,0,0-1.6,2.164c-.989,2.1-.848,4.689-.578,7a6.914,6.914,0,0,1-.051,1.021,24.366,24.366,0,0,1-3.31-1.707,16.015,16.015,0,0,1-3.983-3.437,12.961,12.961,0,0,1-1.382-1.979,5.121,5.121,0,0,0,1.223-.5c.5-.312,1.174-.955,1.687-1.245a12.372,12.372,0,0,0,3.325-2.437,4.512,4.512,0,0,0,1.193-3.811,1.088,1.088,0,0,0-.345-.656,1.109,1.109,0,0,0-.87-.126,5.664,5.664,0,0,0-2.411,1.191c-1.843,1.418-2.9,3.78-3.718,5.955a6.389,6.389,0,0,1-.488.84,9.815,9.815,0,0,1-.765-1.84,23.281,23.281,0,0,1-1.03-7.687.819.819,0,0,0,.168.017,4.9,4.9,0,0,0,1.48-.39c.531-.256,1.27-.823,1.811-1.056a12.337,12.337,0,0,0,3.569-2.064,4.512,4.512,0,0,0,1.6-3.66,1.091,1.091,0,0,0-.273-.689,1.107,1.107,0,0,0-.851-.219,5.663,5.663,0,0,0-2.526.923c-1.986,1.211-3.293,3.444-4.34,5.519a7.6,7.6,0,0,1-.624.849q.031-1.153.108-2.3c.148-2.4.36-4.806.45-7.228.013,0,.017,0,.031,0a4.9,4.9,0,0,0,1.481-.39c.531-.256,1.27-.823,1.811-1.056a12.357,12.357,0,0,0,3.569-2.064,4.512,4.512,0,0,0,1.6-3.66,1.091,1.091,0,0,0-.273-.689,1.108,1.108,0,0,0-.851-.219,5.66,5.66,0,0,0-2.526.923c-1.986,1.21-3.293,3.445-4.34,5.519a4.5,4.5,0,0,1-.462.637c.019-.943.015-1.888-.029-2.836l-.132-1.391-.065-.7-.131-.689c-.091-.459-.168-.922-.272-1.38l-.421-1.348a5.035,5.035,0,0,0-.27-.765,15.343,15.343,0,0,0,1.3-1.2c.416-.419.854-.814,1.287-1.214a12.334,12.334,0,0,0,2.676-3.135,4.512,4.512,0,0,0,.287-3.983,1.1,1.1,0,0,0-.486-.558,1.109,1.109,0,0,0-.875.077,5.66,5.66,0,0,0-2.074,1.712,11.883,11.883,0,0,0-2.372,6.234,6.83,6.83,0,0,1-.265.925c-.107-.235-.216-.469-.342-.694a14.913,14.913,0,0,0-1.632-2.334,17.585,17.585,0,0,0-3.849-3.348c.128-.425.177-1.092.27-1.4.172-.564.375-1.118.571-1.674a12.347,12.347,0,0,0,.9-4.022,4.512,4.512,0,0,0-1.6-3.657,1.1,1.1,0,0,0-.691-.267,1.11,1.11,0,0,0-.738.478,5.656,5.656,0,0,0-1.035,2.482,12.623,12.623,0,0,0,.564,6.86c.017.047.038.1.061.161A35.143,35.143,0,0,0,329.461,349c-1.2-.485-2.4-.92-3.606-1.341.065-.365.11-.762.175-.976.173-.564.376-1.118.572-1.674a12.363,12.363,0,0,0,.9-4.022,4.511,4.511,0,0,0-1.6-3.656,1.087,1.087,0,0,0-.69-.267,1.107,1.107,0,0,0-.738.477,5.657,5.657,0,0,0-1.036,2.482,12.623,12.623,0,0,0,.565,6.86c.016.045.036.1.058.155-1.683-.57-3.357-1.128-5-1.742-.985-.375-1.961-.779-2.917-1.216.142-.316.274-.65.384-.827.31-.5.648-.986.979-1.473a12.353,12.353,0,0,0,1.9-3.659,4.511,4.511,0,0,0-.619-3.945,1.092,1.092,0,0,0-.6-.434,1.109,1.109,0,0,0-.835.273,5.659,5.659,0,0,0-1.633,2.137,12.623,12.623,0,0,0-1.2,6.778c.01.1.024.228.042.37a19.731,19.731,0,0,1-4.69-3.32,16.344,16.344,0,0,1-2.01-2.416c.317-.21.72-.646.951-.806.416-.287.847-.551,1.274-.821a10.543,10.543,0,0,0,2.745-2.22,3.863,3.863,0,0,0,.867-3.308.934.934,0,0,0-.322-.546.949.949,0,0,0-.748-.072,4.833,4.833,0,0,0-2.014,1.117,10.806,10.806,0,0,0-3.267,4.907c-.049.151-.122.386-.183.636-.135-.236-.275-.468-.4-.711a21.514,21.514,0,0,1-1.74-5.071c-.044-.2-.069-.4-.109-.6.225-.174.482-.445.637-.552.316-.219.644-.419.969-.624a8.045,8.045,0,0,0,2.09-1.691,2.941,2.941,0,0,0,.659-2.518.712.712,0,0,0-.245-.416.724.724,0,0,0-.57-.056,3.7,3.7,0,0,0-1.533.85,8.2,8.2,0,0,0-2.313,3.3,81.582,81.582,0,0,1-.711-8.59h-.192c-.1,1.839-.161,3.682-.131,5.533.021,1.244.082,2.5.214,3.742-.043-.014-.1-.03-.128-.043-.351-.157-.693-.333-1.036-.505a8.059,8.059,0,0,0-2.528-.912,2.939,2.939,0,0,0-2.5.742.707.707,0,0,0-.229.425.725.725,0,0,0,.248.517,3.694,3.694,0,0,0,1.522.871,8.233,8.233,0,0,0,4.483.191c.082-.019.2-.048.32-.082.03.2.054.408.09.611a22.645,22.645,0,0,0,1.583,5.42c.1.221.218.437.327.656a3.12,3.12,0,0,1-.378-.086c-.478-.159-.949-.345-1.421-.524a10.587,10.587,0,0,0-3.425-.859,3.864,3.864,0,0,0-3.164,1.3.937.937,0,0,0-.243.586.949.949,0,0,0,.392.642,4.84,4.84,0,0,0,2.1.939,10.809,10.809,0,0,0,5.885-.34,6.536,6.536,0,0,0,.946-.4,15.66,15.66,0,0,0,2.172,2.832,19.027,19.027,0,0,0,3.508,2.845c-.081-.02-.162-.036-.244-.056a10.551,10.551,0,0,0-3.506-.409,3.865,3.865,0,0,0-2.97,1.695.934.934,0,0,0-.165.612.947.947,0,0,0,.472.586,4.845,4.845,0,0,0,2.206.658,10.806,10.806,0,0,0,5.792-1.1,6.125,6.125,0,0,0,.947-.559c1.182.59,2.393,1.11,3.6,1.582,1.138.445,2.284.844,3.431,1.231a10.366,10.366,0,0,0-3.351.8,3.865,3.865,0,0,0-2.216,2.6.931.931,0,0,0,.053.632.948.948,0,0,0,.643.39,4.841,4.841,0,0,0,2.3-.132,10.8,10.8,0,0,0,5.073-3c.082-.086.2-.21.319-.348,1.4.462,2.8.925,4.172,1.434A39.587,39.587,0,0,1,332.7,352.1l-.016,0c-.5.078-1,.129-1.5.187a10.585,10.585,0,0,0-3.437.808,3.866,3.866,0,0,0-2.216,2.6.937.937,0,0,0,.053.632.948.948,0,0,0,.643.39,4.841,4.841,0,0,0,2.3-.132,10.8,10.8,0,0,0,5.073-3,7.327,7.327,0,0,0,.591-.682,16.6,16.6,0,0,1,3.834,3,13.89,13.89,0,0,1,1.633,2.1c.2.323.368.668.545,1.006-.336-.006-.71.016-.915-.01-.5-.063-1-.155-1.5-.24a10.575,10.575,0,0,0-3.525-.181,3.863,3.863,0,0,0-2.854,1.885.937.937,0,0,0-.125.622.953.953,0,0,0,.509.554,4.851,4.851,0,0,0,2.245.513,10.812,10.812,0,0,0,5.708-1.472,5.908,5.908,0,0,0,.949-.655,3.68,3.68,0,0,1,.147.371l.45,1.269c.112.436.2.879.3,1.318l.148.662.083.674.159,1.352c.07,1.058.076,2.117.049,3.177-.34-.173-.907-.313-1.153-.438-.452-.227-.89-.478-1.33-.724a10.575,10.575,0,0,0-3.265-1.345,3.863,3.863,0,0,0-3.319.826.936.936,0,0,0-.325.544.952.952,0,0,0,.3.692,4.847,4.847,0,0,0,1.946,1.232,10.809,10.809,0,0,0,5.872.515,5.049,5.049,0,0,0,1.249-.365c-.1,2.278-.352,4.564-.533,6.855-.053.7-.1,1.394-.133,2.093-.314-.178-.727-.349-.918-.479-.417-.284-.819-.59-1.223-.892a10.61,10.61,0,0,0-3.061-1.76,3.866,3.866,0,0,0-3.4.385.938.938,0,0,0-.393.5.951.951,0,0,0,.2.725,4.852,4.852,0,0,0,1.768,1.476,10.81,10.81,0,0,0,5.755,1.277,5.431,5.431,0,0,0,1.223-.172c-.039.8-.036,1.6-.039,2.4a21.169,21.169,0,0,0,.8,5.566,6.974,6.974,0,0,0,.323,1.03,1.855,1.855,0,0,1-.171-.11c-.4-.3-.788-.632-1.177-.954a10.577,10.577,0,0,0-2.965-1.915,3.863,3.863,0,0,0-3.413.209.933.933,0,0,0-.419.476.947.947,0,0,0,.165.735,4.841,4.841,0,0,0,1.689,1.566,10.8,10.8,0,0,0,5.681,1.572,5.466,5.466,0,0,0,1.221-.107c.023.057.049.113.072.17a15.812,15.812,0,0,0,1.519,2.433,16.233,16.233,0,0,0,4.181,3.9c.437.292.883.564,1.335.825a9.8,9.8,0,0,0-3.214.037,3.862,3.862,0,0,0-2.753,2.029.933.933,0,0,0-.093.628.946.946,0,0,0,.537.526,4.833,4.833,0,0,0,2.269.4,10.8,10.8,0,0,0,5.624-1.765c.136-.089.347-.231.558-.392a47.705,47.705,0,0,0,6.091,2.093c2.228.627,4.472,1.146,6.689,1.694-.278.043-.556.09-.834.132a10.577,10.577,0,0,0-3.408.925,3.862,3.862,0,0,0-2.126,2.678.936.936,0,0,0,.074.63.949.949,0,0,0,.656.368,4.84,4.84,0,0,0,2.294-.209,10.806,10.806,0,0,0,4.967-3.173,6.755,6.755,0,0,0,.611-.773c.585.156,1.172.309,1.75.48,1.749.471,3.448,1.1,5.16,1.68.9.366,1.8.728,2.688,1.1-.169.014-.338.033-.506.047a10.572,10.572,0,0,0-3.459.7,3.865,3.865,0,0,0-2.295,2.536.935.935,0,0,0,.034.633.947.947,0,0,0,.631.41,4.852,4.852,0,0,0,2.3-.062A10.811,10.811,0,0,0,379.5,408.1c.1-.1.243-.239.391-.4.013.006.027.011.04.018a61.839,61.839,0,0,1,7.619,4.223c-.467.026-.935.034-1.4.044a10.555,10.555,0,0,0-3.5.49,3.864,3.864,0,0,0-2.446,2.39.935.935,0,0,0-.005.634.95.95,0,0,0,.6.448,4.851,4.851,0,0,0,2.3.08,10.8,10.8,0,0,0,5.327-2.525,7.735,7.735,0,0,0,.6-.568c.1.068.2.13.3.2a54.4,54.4,0,0,1,8.284,7.008c.131.138.254.283.385.422a4.839,4.839,0,0,1-.557.065c-.5,0-1.009-.021-1.513-.04a10.587,10.587,0,0,0-3.519.287,3.862,3.862,0,0,0-2.58,2.245.929.929,0,0,0-.043.633.951.951,0,0,0,.578.482,4.854,4.854,0,0,0,2.293.213,10.817,10.817,0,0,0,5.464-2.212,6.451,6.451,0,0,0,.775-.686,51.489,51.489,0,0,1,5.43,7.146,54.513,54.513,0,0,1,2.557,4.829l.586,1.241.482,1.283c.309.861.68,1.7.959,2.581l.185-.054A45.114,45.114,0,0,0,405.169,428.212Z" transform="translate(-297.319 -254.614)" fill="#80cbc4"/>
      </g>
    </g>
    <g id="Grupo_3105" data-name="Grupo 3105" transform="translate(531.152 1080.909)">
      <g id="Grupo_3104" data-name="Grupo 3104" transform="translate(0 0)">
        <g id="Grupo_3094" data-name="Grupo 3094" transform="translate(21.241 58.143)">
          <g id="Grupo_3093" data-name="Grupo 3093" transform="translate(0 4.153)">
            <path id="Trazado_11850" data-name="Trazado 11850" d="M527.059,417.847a57.014,57.014,0,0,0,21.9-9.044,54.809,54.809,0,0,0,8.428-7.049,53.358,53.358,0,0,0,4.081-4.7c1.07-1.39,1.908-3.168,3.229-4.315.188-.162.413.056.358.26-.461,1.668-1.875,3.187-2.925,4.539a54.585,54.585,0,0,1-3.778,4.356,55.936,55.936,0,0,1-19.59,13.148,52.466,52.466,0,0,1-11.694,2.863.028.028,0,0,1-.01-.055Z" transform="translate(-527.037 -392.68)" fill="#8d6e63"/>
          </g>
          <path id="Trazado_11851" data-name="Trazado 11851" d="M535.528,419.75a5.277,5.277,0,0,0,1.985,1.166,24.4,24.4,0,0,1,6.065,1.418c.323.116,1,.476,1.106.829a.9.9,0,0,1-.37.933,1.794,1.794,0,0,1-.957.273c-3.3.207-5.449-2.23-8.085-4.394Z" transform="translate(-528.121 -392.088)" fill="#8d6e63"/>
          <path id="Trazado_11852" data-name="Trazado 11852" d="M542.185,417.015a10.018,10.018,0,0,0,1.991,1.487c2.04.577,3.059-.028,6.266.8.354.092,1.118.423,1.281.828a1.165,1.165,0,0,1-.236,1.163,1.725,1.725,0,0,1-.953.463c-3.4.722-7.557-2.828-8.633-4.4Z" transform="translate(-528.994 -391.727)" fill="#8d6e63"/>
          <path id="Trazado_11853" data-name="Trazado 11853" d="M547.472,414.3a2.594,2.594,0,0,0,2.115.79c3.447-.389,3.495-.715,7.22-.479.412.027,1.317.214,1.553.587a1.083,1.083,0,0,1-.115,1.2,2.156,2.156,0,0,1-1.013.635c-3.739,1.342-7.45-.629-10.128-2.484Z" transform="translate(-529.68 -391.371)" fill="#8d6e63"/>
          <path id="Trazado_11854" data-name="Trazado 11854" d="M553.229,410.52c-.248-.2,1.973.226,3.435-.13,4.18-.743,4.084-1.7,7.894-2.008.421-.034,1.364.021,1.651.357a1.067,1.067,0,0,1,.038,1.208,2.255,2.255,0,0,1-.946.778c-3.622,1.877-8.046.854-12.073-.2Z" transform="translate(-530.484 -390.594)" fill="#8d6e63"/>
          <path id="Trazado_11855" data-name="Trazado 11855" d="M560.34,404.632c-.22-.2,1.415.571,2.693.191,2.983-.306,3.524-1.642,6.859-2.015.368-.041,1.195,0,1.452.326a1.184,1.184,0,0,1,.049,1.2,2.085,2.085,0,0,1-.819.79c-3.148,1.931-9.064.935-10.234-.492Z" transform="translate(-531.42 -389.859)" fill="#8d6e63"/>
          <path id="Trazado_11856" data-name="Trazado 11856" d="M565.328,399.7c-.217-.177,1-.127,1.984-.524a19.8,19.8,0,0,1,5.726-1.982,1.63,1.63,0,0,1,1.255.261,1.332,1.332,0,0,1,.265,1.13,1.477,1.477,0,0,1-.526.771c-2.23,1.918-5.606,1.157-8.7.345Z" transform="translate(-532.077 -389.119)" fill="#8d6e63"/>
          <path id="Trazado_11857" data-name="Trazado 11857" d="M568.362,395.115c-.235-.062.939-.137,1.718-.813,1.977-1.221,1.862-2.335,3.958-3.536a1.616,1.616,0,0,1,1.129-.211,1,1,0,0,1,.567.755,1.158,1.158,0,0,1-.2.742c-1.276,2.145-4.33,2.667-7.168,3.063Z" transform="translate(-532.475 -388.242)" fill="#8d6e63"/>
          <path id="Trazado_11858" data-name="Trazado 11858" d="M533.466,418.876a4.573,4.573,0,0,1,.1-2.091,19.166,19.166,0,0,0,2.042-5.114,1.817,1.817,0,0,0-.087-1.271.967.967,0,0,0-.945-.294,1.453,1.453,0,0,0-.722.512c-1.9,2.2-1.065,5.162-.706,8.3Z" transform="translate(-527.777 -390.819)" fill="#8d6e63"/>
          <path id="Trazado_11859" data-name="Trazado 11859" d="M539.654,416.494a9.785,9.785,0,0,1-.358-2.4c.453-1.984,1.453-2.529,2.231-5.611a2.1,2.1,0,0,0-.118-1.478,1.2,1.2,0,0,0-1.118-.384,1.589,1.589,0,0,0-.845.561c-2.213,2.467-1.08,7.693-.221,9.373Z" transform="translate(-528.501 -390.361)" fill="#8d6e63"/>
          <path id="Trazado_11860" data-name="Trazado 11860" d="M545.745,413.9a2.372,2.372,0,0,1-.069-2.076c1.407-2.707,1.718-2.615,2.642-5.805a2.184,2.184,0,0,0-.056-1.527,1.165,1.165,0,0,0-1.123-.388,1.73,1.73,0,0,0-.885.585c-2.36,2.565-1.708,6.444-.846,9.417Z" transform="translate(-529.353 -390.029)" fill="#8d6e63"/>
          <path id="Trazado_11861" data-name="Trazado 11861" d="M552.553,409.737c.2.235-.26-1.75.056-3,.639-3.6,1.577-3.436,1.8-6.754a2.185,2.185,0,0,0-.383-1.48,1.163,1.163,0,0,0-1.179-.138,1.732,1.732,0,0,0-.74.762c-1.757,3.016-.667,6.987.449,10.613Z" transform="translate(-530.216 -389.262)" fill="#8d6e63"/>
          <path id="Trazado_11862" data-name="Trazado 11862" d="M558.412,405.26c.2.21-.6-1.312-.269-2.447.211-2.682,1.5-3.1,1.771-6.1.029-.331-.033-1.081-.363-1.332a1.265,1.265,0,0,0-1.18-.11,1.716,1.716,0,0,0-.75.7c-1.8,2.743-.644,8.151.792,9.287Z" transform="translate(-530.944 -388.856)" fill="#8d6e63"/>
          <path id="Trazado_11863" data-name="Trazado 11863" d="M563.925,400.012c.2.2.021-1.012.313-2.028a19.822,19.822,0,0,0,1.368-5.9,1.63,1.63,0,0,0-.393-1.22,1.331,1.331,0,0,0-1.151-.144,1.471,1.471,0,0,0-.71.6c-1.673,2.419-.561,5.7.572,8.69Z" transform="translate(-531.707 -388.259)" fill="#8d6e63"/>
          <path id="Trazado_11864" data-name="Trazado 11864" d="M567.953,395.285c.145.2-.229-.879.093-1.709.37-2.016,1.43-2.107,1.736-4.228a1.538,1.538,0,0,0-.234-1.066,1.231,1.231,0,0,0-.9-.384.887.887,0,0,0-.6.316c-1.477,1.54-.8,4.415-.092,7.071Z" transform="translate(-532.322 -387.897)" fill="#8d6e63"/>
        </g>
        <g id="Grupo_3103" data-name="Grupo 3103" transform="translate(0 27.311)">
          <path id="Trazado_11865" data-name="Trazado 11865" d="M503.419,385.581c-2.643-3.047,1.4-6.306,5.484-5.648,3.432.551,7.753,2.495,9.4.162.139-3.149-2.584-5.934-4.547-8.769-2.024-2.845-2.852-6.869.821-8.542,4.111-1.8,8.94.611,13.116,1.779,1.93.546,4.557.65,5.951-.666,2.885-2.585-2.942-6.921,1.313-8.541,1.971-.277,3.925.239,4.777,1.262,1,1.231,1.6,3.41,3.752,2.7,2.489-.808.709-3.412,2.565-4.933a4.478,4.478,0,0,1,4.4-.341,3.372,3.372,0,0,1,1.39,2.653c2.954-.8,1.79-3.015,7.152-4.205,3.459-.758,3.592,2.812.523,4.314-2.476,1.249-6.6,1.819-6.678,3.557-.056,1.213,2.367,1.348,2.278,2.55-.118,1.538-3.365,2.408-5.4,2.391-2.059-.022-5.281.7-5.337,2.316,3.207.2,6.536.466,8.076,2.211,1.42,1.724.037,5.536-2.9,6.835-2.048.923-3.87.148-5.641-.384-1.832-.541-4.523-.583-5.951,1.137,1.467,1.844,2.707,4.644.775,6.714-2.588,3.007-8.05-.346-10.469,2.713a12.805,12.805,0,0,1,4.171,4.675c.81,1.943.712,4.644-.649,6.144-2.581,3.064-9.1-.866-10.322,3.239-.417,1.734.734,3.955.535,5.765-.184,2.548-2.865,2.95-5.309,2.067-3.881-1.365-11.188-6.455-11.444-11.238,0-2.5,3.434-3.243,3.438-5.686C508.829,388.6,505.524,388.051,503.419,385.581Z" transform="translate(-502.574 -352.389)" fill="#80cbc4"/>
          <g id="Grupo_3102" data-name="Grupo 3102" transform="translate(6.559 7.556)">
            <g id="Grupo_3095" data-name="Grupo 3095" transform="translate(2.999 1.546)">
              <path id="Trazado_11866" data-name="Trazado 11866" d="M546.376,362.875c-4.8,1.773-8.672,5.04-12.05,7.915a107.963,107.963,0,0,0-10.118,10.753,80.028,80.028,0,0,0-7.061,11.8c-1.622,4.094-3.517,8.421-3.565,13.038.005.2.311.419.377.225,1.351-3.528,1.974-7.939,3.372-11.709a79.972,79.972,0,0,1,6.446-11.484A107.851,107.851,0,0,1,533.32,372.6a94.787,94.787,0,0,1,13.086-9.679c.038-.023.013-.059-.03-.043Z" transform="translate(-513.581 -362.872)" fill="#006064"/>
            </g>
            <g id="Grupo_3096" data-name="Grupo 3096" transform="translate(12.982 6.674)">
              <path id="Trazado_11867" data-name="Trazado 11867" d="M528.8,377.485c.335-2.995-1.041-6.167-3.082-8.594-.226-.263-.812-.029-.595.25a19.612,19.612,0,0,1,3.482,8.367c.022.094.186.067.194-.023Z" transform="translate(-525.078 -368.777)" fill="#006064"/>
            </g>
            <g id="Grupo_3097" data-name="Grupo 3097" transform="translate(28.321)">
              <path id="Trazado_11868" data-name="Trazado 11868" d="M542.85,365.695l-.063.03c-.034.015-.049.041-.039.065l.027.064c.018.046.1.054.156.032.747-.268.642-1.551.68-1.987a3.776,3.776,0,0,0-.431-2.771c-.069-.081-.3-.017-.317.083a13.032,13.032,0,0,0,.185,2.225c.006.73-.115,1.581-.173,2.272,0-.01-.01-.019-.025-.013Z" transform="translate(-542.745 -361.091)" fill="#006064"/>
            </g>
            <g id="Grupo_3098" data-name="Grupo 3098" transform="translate(23.96 10.392)">
              <path id="Trazado_11869" data-name="Trazado 11869" d="M537.918,373.636a14.979,14.979,0,0,1,4.961.12c.793.186,1.693.86,2.568.762.094-.01.173-.084.144-.157-.263-.68-1.783-.954-2.6-1.11a16.357,16.357,0,0,0-5.073.015c-.261.034-.264.4,0,.37Z" transform="translate(-537.722 -373.059)" fill="#006064"/>
            </g>
            <g id="Grupo_3099" data-name="Grupo 3099" transform="translate(9.714 30.122)">
              <path id="Trazado_11870" data-name="Trazado 11870" d="M521.5,396.61a9.962,9.962,0,0,1,7.307,1.17c.237.139.475-.244.248-.419a7.966,7.966,0,0,0-7.67-1c-.148.069-.049.282.115.253Z" transform="translate(-521.315 -395.781)" fill="#006064"/>
            </g>
            <g id="Grupo_3100" data-name="Grupo 3100" transform="translate(0 25.052)">
              <path id="Trazado_11871" data-name="Trazado 11871" d="M516,397.085c-.737-2.537-2.587-5.839-5.5-7.113-.3-.129-.536.213-.242.4,2.909,1.863,3.875,4.165,5.549,6.748.061.095.227.089.19-.033Z" transform="translate(-510.128 -389.943)" fill="#006064"/>
            </g>
            <g id="Grupo_3101" data-name="Grupo 3101" transform="translate(14.812 19.337)">
              <path id="Trazado_11872" data-name="Trazado 11872" d="M527.242,385.171c3.342-.958,6.861-2.311,9.832-.542.263.161.576-.282.3-.436-2.89-1.6-7.075-.666-10.171.907-.043.022-.011.083.035.07Z" transform="translate(-527.187 -383.361)" fill="#006064"/>
            </g>
          </g>
        </g>
        <path id="Trazado_11873" data-name="Trazado 11873" d="M539.565,429.379a51.03,51.03,0,0,1,5.387-7.823,4.879,4.879,0,0,1-.411-.887c-.173-.564-.258-1.491-.455-2.047a12.365,12.365,0,0,1-.906-4.022,4.509,4.509,0,0,1,1.6-3.657,1.086,1.086,0,0,1,.69-.267,1.109,1.109,0,0,1,.739.476,5.658,5.658,0,0,1,1.037,2.482,12.169,12.169,0,0,1-.873,6.286,57.427,57.427,0,0,1,8.287-7.357,4.482,4.482,0,0,1-.274-.741c-.14-.573-.172-1.5-.336-2.07a12.379,12.379,0,0,1-.672-4.067,4.509,4.509,0,0,1,1.811-3.559,1.089,1.089,0,0,1,.7-.228,1.111,1.111,0,0,1,.71.518,5.664,5.664,0,0,1,.891,2.537c.313,2.21-.5,4.532-1.393,6.6a58.283,58.283,0,0,1,7.492-4.343,5.092,5.092,0,0,1-.442-1.073c-.14-.573-.172-1.5-.335-2.07a12.331,12.331,0,0,1-.673-4.067,4.512,4.512,0,0,1,1.81-3.559,1.093,1.093,0,0,1,.705-.228,1.114,1.114,0,0,1,.71.518,5.665,5.665,0,0,1,.891,2.538c.326,2.3-.568,4.73-1.5,6.857a3.425,3.425,0,0,0-.165.6c1.465-.694,2.977-1.277,4.478-1.889,1.769-.6,3.524-1.247,5.342-1.691.55-.152,1.1-.284,1.651-.422-.03-.1-.056-.2-.072-.288-.1-.581-.074-1.512-.2-2.086a12.354,12.354,0,0,1-.41-4.1,4.51,4.51,0,0,1,2.036-3.435,1.088,1.088,0,0,1,.718-.181,1.108,1.108,0,0,1,.675.563,5.661,5.661,0,0,1,.727,2.589c.172,2.243-.8,4.527-1.838,6.54,2.506-.585,5-1.1,7.454-1.744a52.589,52.589,0,0,0,5.834-1.856,5.064,5.064,0,0,1-.73-.888c-.3-.506-.606-1.387-.929-1.879a12.351,12.351,0,0,1-1.84-3.69,4.512,4.512,0,0,1,.685-3.934,1.086,1.086,0,0,1,.607-.424,1.1,1.1,0,0,1,.83.286,5.66,5.66,0,0,1,1.6,2.163c.989,2.1.848,4.689.578,7a6.922,6.922,0,0,0,.051,1.021,24.217,24.217,0,0,0,3.31-1.707,16.015,16.015,0,0,0,3.983-3.437,12.923,12.923,0,0,0,1.383-1.979,5.044,5.044,0,0,1-1.224-.5c-.5-.312-1.174-.955-1.687-1.245a12.336,12.336,0,0,1-3.325-2.437,4.511,4.511,0,0,1-1.193-3.811,1.088,1.088,0,0,1,.345-.656,1.109,1.109,0,0,1,.87-.125,5.652,5.652,0,0,1,2.411,1.19c1.843,1.418,2.9,3.78,3.718,5.955a6.4,6.4,0,0,0,.488.841,9.846,9.846,0,0,0,.765-1.84,23.266,23.266,0,0,0,1.03-7.688.811.811,0,0,1-.168.017,4.9,4.9,0,0,1-1.481-.39c-.531-.256-1.27-.823-1.811-1.056a12.334,12.334,0,0,1-3.569-2.064,4.511,4.511,0,0,1-1.6-3.66,1.093,1.093,0,0,1,.273-.689,1.112,1.112,0,0,1,.851-.219,5.661,5.661,0,0,1,2.526.924c1.986,1.21,3.293,3.444,4.34,5.518a7.6,7.6,0,0,0,.624.849q-.031-1.153-.108-2.3c-.148-2.4-.36-4.806-.45-7.228-.013,0-.017,0-.031,0a4.9,4.9,0,0,1-1.481-.39c-.531-.256-1.27-.823-1.811-1.056a12.34,12.34,0,0,1-3.569-2.064,4.512,4.512,0,0,1-1.6-3.66,1.094,1.094,0,0,1,.273-.689,1.112,1.112,0,0,1,.851-.219,5.657,5.657,0,0,1,2.526.924c1.986,1.21,3.293,3.444,4.34,5.518a4.566,4.566,0,0,0,.462.637c-.019-.943-.014-1.888.029-2.835l.132-1.392.065-.7.131-.689c.091-.459.168-.922.272-1.38l.421-1.348a5.062,5.062,0,0,1,.27-.765,15.08,15.08,0,0,1-1.3-1.2c-.415-.418-.853-.814-1.287-1.213a12.352,12.352,0,0,1-2.676-3.136,4.515,4.515,0,0,1-.287-3.983,1.1,1.1,0,0,1,.486-.558,1.111,1.111,0,0,1,.876.077,5.663,5.663,0,0,1,2.073,1.712,11.882,11.882,0,0,1,2.372,6.234,6.962,6.962,0,0,0,.265.925c.107-.234.216-.468.342-.694a14.9,14.9,0,0,1,1.633-2.334,17.555,17.555,0,0,1,3.848-3.347c-.127-.426-.177-1.093-.27-1.4-.172-.564-.375-1.118-.571-1.673a12.351,12.351,0,0,1-.9-4.023,4.51,4.51,0,0,1,1.6-3.656,1.088,1.088,0,0,1,.691-.267,1.109,1.109,0,0,1,.738.477,5.653,5.653,0,0,1,1.035,2.482,12.612,12.612,0,0,1-.564,6.86c-.017.047-.038.1-.061.161a34.96,34.96,0,0,1,3.815-1.818c1.2-.486,2.4-.92,3.606-1.342-.065-.365-.11-.762-.175-.976-.173-.563-.375-1.117-.571-1.673a12.327,12.327,0,0,1-.9-4.023,4.507,4.507,0,0,1,1.6-3.656,1.091,1.091,0,0,1,.69-.267,1.107,1.107,0,0,1,.738.477,5.646,5.646,0,0,1,1.036,2.482,12.617,12.617,0,0,1-.565,6.86c-.017.045-.037.1-.058.154,1.683-.57,3.357-1.128,5-1.741.986-.376,1.961-.78,2.917-1.217-.142-.316-.274-.649-.384-.827-.31-.5-.648-.985-.979-1.473a12.352,12.352,0,0,1-1.9-3.659,4.513,4.513,0,0,1,.619-3.946,1.092,1.092,0,0,1,.6-.434,1.107,1.107,0,0,1,.835.274,5.648,5.648,0,0,1,1.633,2.136,12.615,12.615,0,0,1,1.2,6.778c-.01.1-.024.228-.042.37a19.753,19.753,0,0,0,4.69-3.319,16.439,16.439,0,0,0,2.01-2.416c-.317-.211-.72-.647-.951-.807-.416-.287-.847-.551-1.274-.821a10.572,10.572,0,0,1-2.745-2.219,3.864,3.864,0,0,1-.867-3.308.938.938,0,0,1,.322-.547.949.949,0,0,1,.748-.072,4.841,4.841,0,0,1,2.014,1.117,10.806,10.806,0,0,1,3.267,4.907c.049.152.122.386.183.637.135-.235.275-.468.4-.711a21.521,21.521,0,0,0,1.74-5.07c.044-.2.069-.4.109-.6-.225-.174-.482-.445-.637-.552-.316-.219-.644-.419-.969-.624a8.058,8.058,0,0,1-2.09-1.69,2.942,2.942,0,0,1-.659-2.519.712.712,0,0,1,.245-.416.72.72,0,0,1,.57-.055,3.681,3.681,0,0,1,1.533.85,8.193,8.193,0,0,1,2.313,3.3,81.4,81.4,0,0,0,.711-8.591h.192c.1,1.839.161,3.682.131,5.533-.021,1.245-.082,2.5-.214,3.742.043-.014.1-.029.128-.043.351-.157.693-.333,1.036-.505a8.088,8.088,0,0,1,2.528-.912,2.942,2.942,0,0,1,2.5.742.709.709,0,0,1,.229.425.723.723,0,0,1-.248.516,3.685,3.685,0,0,1-1.522.871,8.226,8.226,0,0,1-4.483.191c-.082-.019-.2-.048-.32-.082-.031.2-.055.407-.091.61a22.609,22.609,0,0,1-1.583,5.42c-.1.222-.218.437-.327.656a3.316,3.316,0,0,0,.378-.085c.478-.16.949-.346,1.42-.524a10.589,10.589,0,0,1,3.425-.86,3.865,3.865,0,0,1,3.164,1.3.931.931,0,0,1,.243.585.949.949,0,0,1-.392.643,4.85,4.85,0,0,1-2.1.938,10.81,10.81,0,0,1-5.885-.34,6.536,6.536,0,0,1-.946-.4,15.631,15.631,0,0,1-2.172,2.832,19.024,19.024,0,0,1-3.508,2.845c.081-.02.162-.036.244-.056a10.576,10.576,0,0,1,3.506-.409,3.865,3.865,0,0,1,2.97,1.695.93.93,0,0,1,.165.613.948.948,0,0,1-.472.585,4.845,4.845,0,0,1-2.206.659,10.809,10.809,0,0,1-5.792-1.1,6.217,6.217,0,0,1-.948-.56c-1.182.59-2.393,1.11-3.6,1.583-1.138.444-2.284.843-3.431,1.23a10.347,10.347,0,0,1,3.351.8,3.86,3.86,0,0,1,2.216,2.6.93.93,0,0,1-.053.631.949.949,0,0,1-.643.391,4.853,4.853,0,0,1-2.3-.132,10.812,10.812,0,0,1-5.073-3c-.082-.085-.2-.209-.319-.348-1.4.462-2.8.925-4.172,1.434a39.581,39.581,0,0,0-3.821,1.62l.016,0c.5.079,1,.129,1.5.187a10.585,10.585,0,0,1,3.437.809,3.862,3.862,0,0,1,2.216,2.6.935.935,0,0,1-.053.631.949.949,0,0,1-.643.391,4.853,4.853,0,0,1-2.3-.132,10.811,10.811,0,0,1-5.073-3,7.307,7.307,0,0,1-.591-.682,16.551,16.551,0,0,0-3.834,3,13.884,13.884,0,0,0-1.633,2.1c-.2.323-.368.668-.545,1.006.336-.006.71.016.915-.01.5-.063,1-.155,1.5-.24a10.582,10.582,0,0,1,3.526-.18,3.86,3.86,0,0,1,2.853,1.884.938.938,0,0,1,.125.622.951.951,0,0,1-.509.554,4.853,4.853,0,0,1-2.245.514,10.813,10.813,0,0,1-5.708-1.473,5.834,5.834,0,0,1-.949-.655,3.783,3.783,0,0,0-.147.371l-.45,1.269c-.112.436-.2.879-.3,1.318l-.148.662-.083.675-.159,1.351c-.07,1.058-.076,2.117-.049,3.178.339-.173.907-.314,1.153-.438.452-.227.89-.478,1.33-.725a10.6,10.6,0,0,1,3.265-1.345,3.864,3.864,0,0,1,3.319.826.936.936,0,0,1,.325.544.948.948,0,0,1-.3.692,4.842,4.842,0,0,1-1.946,1.233,10.8,10.8,0,0,1-5.872.514,5.051,5.051,0,0,1-1.249-.365c.1,2.278.352,4.564.533,6.855.053.7.1,1.395.133,2.094.314-.179.727-.35.918-.479.418-.284.819-.591,1.223-.893a10.62,10.62,0,0,1,3.061-1.76,3.866,3.866,0,0,1,3.4.385.933.933,0,0,1,.393.5.951.951,0,0,1-.2.725,4.853,4.853,0,0,1-1.768,1.476,10.808,10.808,0,0,1-5.755,1.277,5.428,5.428,0,0,1-1.223-.172c.039.8.036,1.6.039,2.4a21.16,21.16,0,0,1-.8,5.566,7.011,7.011,0,0,1-.323,1.031,1.852,1.852,0,0,0,.171-.111c.4-.3.787-.632,1.176-.953a10.58,10.58,0,0,1,2.965-1.916,3.864,3.864,0,0,1,3.413.209.939.939,0,0,1,.419.476.954.954,0,0,1-.165.735,4.851,4.851,0,0,1-1.69,1.566,10.81,10.81,0,0,1-5.681,1.573,5.524,5.524,0,0,1-1.221-.108c-.023.057-.049.114-.072.171a15.738,15.738,0,0,1-1.519,2.432,16.218,16.218,0,0,1-4.181,3.9c-.437.293-.882.564-1.334.826a9.8,9.8,0,0,1,3.213.036,3.863,3.863,0,0,1,2.753,2.03.93.93,0,0,1,.093.627.949.949,0,0,1-.537.527,4.853,4.853,0,0,1-2.269.4,10.812,10.812,0,0,1-5.624-1.766c-.136-.089-.347-.23-.558-.392a47.7,47.7,0,0,1-6.091,2.093c-2.228.628-4.472,1.146-6.689,1.694.278.043.556.091.834.132a10.575,10.575,0,0,1,3.408.925,3.863,3.863,0,0,1,2.126,2.678.936.936,0,0,1-.074.63.946.946,0,0,1-.656.368,4.839,4.839,0,0,1-2.294-.209,10.807,10.807,0,0,1-4.968-3.173,6.767,6.767,0,0,1-.611-.773c-.585.156-1.172.309-1.75.48-1.749.471-3.448,1.1-5.16,1.68-.9.366-1.8.728-2.688,1.1.169.014.338.033.506.047a10.57,10.57,0,0,1,3.459.7,3.862,3.862,0,0,1,2.295,2.535.93.93,0,0,1-.034.633.947.947,0,0,1-.631.41,4.84,4.84,0,0,1-2.3-.062,10.809,10.809,0,0,1-5.162-2.847c-.1-.1-.242-.24-.39-.4l-.041.018a61.945,61.945,0,0,0-7.619,4.223c.467.026.935.035,1.4.044a10.557,10.557,0,0,1,3.5.49,3.864,3.864,0,0,1,2.446,2.39.933.933,0,0,1,.005.635.949.949,0,0,1-.6.447,4.841,4.841,0,0,1-2.3.08,10.81,10.81,0,0,1-5.327-2.524,7.976,7.976,0,0,1-.6-.569c-.1.068-.2.13-.3.2a54.5,54.5,0,0,0-8.284,7.008c-.131.138-.254.283-.385.422a4.69,4.69,0,0,0,.557.066c.5,0,1.009-.022,1.513-.041a10.606,10.606,0,0,1,3.519.287,3.865,3.865,0,0,1,2.581,2.245.934.934,0,0,1,.042.633.951.951,0,0,1-.578.482,4.854,4.854,0,0,1-2.293.213,10.8,10.8,0,0,1-5.463-2.212,6.383,6.383,0,0,1-.776-.686,51.6,51.6,0,0,0-5.43,7.146c-.883,1.589-1.832,3.151-2.557,4.829l-.586,1.241-.481,1.283c-.31.861-.681,1.7-.96,2.581l-.185-.053A45.1,45.1,0,0,1,539.565,429.379Z" transform="translate(-506.929 -320.935)" fill="#80cbc4"/>
      </g>
    </g>
    <g id="Grupo_3106" data-name="Grupo 3106" transform="translate(452.038 1048.076)">
      <path id="Trazado_11874" data-name="Trazado 11874" d="M471.513,398.575a35.187,35.187,0,0,1-35.147-35.148V334.084A2.084,2.084,0,0,1,438.451,332h66.124a2.084,2.084,0,0,1,2.085,2.085v29.344A35.187,35.187,0,0,1,471.513,398.575Zm-30.977-62.407v27.259a30.977,30.977,0,1,0,61.954,0V336.169Z" transform="translate(-414.739 -289.56)" fill="#006064"/>
      <path id="Trazado_11875" data-name="Trazado 11875" d="M516.218,368.067a9.937,9.937,0,0,1-2.043-.244,2.085,2.085,0,0,1-1.655-2.04V342.8a2.085,2.085,0,0,1,1.659-2.041,9.925,9.925,0,0,1,2.039-.243c6.411,0,11.626,6.181,11.626,13.779S522.63,368.067,516.218,368.067Zm.471-23.368v19.179c3.893-.315,6.985-4.5,6.985-9.589S520.583,345.015,516.69,344.7Z" transform="translate(-424.77 -290.681)" fill="#006064"/>
      <path id="Trazado_11876" data-name="Trazado 11876" d="M435.144,368.067c-6.411,0-11.627-6.181-11.627-13.777s5.216-13.779,11.627-13.779a9.919,9.919,0,0,1,2.04.243,2.086,2.086,0,0,1,1.659,2.041v22.987a2.085,2.085,0,0,1-1.656,2.04A9.922,9.922,0,0,1,435.144,368.067Zm-.471-23.368c-3.894.315-6.987,4.5-6.987,9.59s3.093,9.273,6.987,9.589Z" transform="translate(-413.047 -290.681)" fill="#006064"/>
      <path id="Trazado_11877" data-name="Trazado 11877" d="M519.4,452.991a2.085,2.085,0,0,1-2.085-2.085V439.683a15.562,15.562,0,0,0-15.544-15.543H435.957a15.561,15.561,0,0,0-15.544,15.543v11.224a2.085,2.085,0,0,1-4.17,0V439.683a19.736,19.736,0,0,1,19.715-19.713h65.811a19.736,19.736,0,0,1,19.714,19.713v11.224A2.085,2.085,0,0,1,519.4,452.991Z" transform="translate(-412.089 -301.146)" fill="#006064"/>
      <path id="Trazado_11878" data-name="Trazado 11878" d="M448.163,455.94a2.085,2.085,0,0,1-2.085-2.085v-9.409a2.085,2.085,0,0,1,4.17,0v9.409A2.085,2.085,0,0,1,448.163,455.94Z" transform="translate(-416.019 -304.095)" fill="#006064"/>
      <path id="Trazado_11879" data-name="Trazado 11879" d="M504.893,455.94a2.085,2.085,0,0,1-2.085-2.085v-9.409a2.085,2.085,0,1,1,4.17,0v9.409A2.085,2.085,0,0,1,504.893,455.94Z" transform="translate(-423.49 -304.095)" fill="#006064"/>
      <path id="Trazado_11880" data-name="Trazado 11880" d="M487.9,421.586H461.087A2.085,2.085,0,0,1,459,419.5V402.667a2.085,2.085,0,0,1,2.932-1.905,30.95,30.95,0,0,0,25.119,0,2.084,2.084,0,0,1,2.931,1.905V419.5A2.085,2.085,0,0,1,487.9,421.586Zm-24.728-4.17h22.643V405.725a35.081,35.081,0,0,1-22.643,0Z" transform="translate(-417.721 -298.592)" fill="#006064"/>
      <path id="Trazado_11881" data-name="Trazado 11881" d="M518.831,329.731h-101.2a6.174,6.174,0,1,1,0-12.347H438.2l3.4-20.909a15.847,15.847,0,0,1,15.7-13.353h2.563a2.085,2.085,0,0,1,2.085,2.085c0,1.684,2.58,3.559,6.281,3.559s6.281-1.876,6.281-3.559a2.085,2.085,0,0,1,2.085-2.085h2.563a15.847,15.847,0,0,1,15.7,13.353l3.4,20.909h20.565a6.174,6.174,0,0,1,0,12.347Zm-101.2-8.178a2,2,0,1,0,0,4.008h101.2a2,2,0,0,0,0-4.008H496.494a2.084,2.084,0,0,1-2.057-1.75l-3.689-22.66a11.7,11.7,0,0,0-11.587-9.853h-.848c-1.2,3.29-5.2,5.644-10.081,5.644s-8.879-2.354-10.081-5.644H457.3a11.7,11.7,0,0,0-11.587,9.853l-3.688,22.66a2.085,2.085,0,0,1-2.057,1.75Z" transform="translate(-411.459 -283.122)" fill="#006064"/>
      <path id="Trazado_11882" data-name="Trazado 11882" d="M488.369,326.751H443.98a2.085,2.085,0,1,1,0-4.17h44.39a2.085,2.085,0,0,1,0,4.17Z" transform="translate(-415.468 -288.319)" fill="#006064"/>
      <path id="Trazado_11883" data-name="Trazado 11883" d="M499.555,317.877H445.266a2.086,2.086,0,0,1-2.058-2.42l1.043-6.4a2.085,2.085,0,0,1,2.057-1.75h52.2a2.085,2.085,0,0,1,2.058,1.75l1.042,6.4a2.084,2.084,0,0,1-2.057,2.42Zm-51.838-4.17H497.1l-.365-2.234H448.082Z" transform="translate(-415.637 -286.307)" fill="#006064"/>
    </g>
  </g>
</svg>
