<svg xmlns="http://www.w3.org/2000/svg" width="356" height="228.301" viewBox="0 0 356 228.301">
  <g id="Grupo_4469" data-name="Grupo 4469" transform="translate(-460.756 -1489.772)">
    <path id="Trazado_11885" data-name="Trazado 11885" d="M599.352,304.514c-8.831-5.736-21.831-3.979-30.751,2.883-9.653,7.426-7.22,12.917-18.863,11.976-3.185-.258-6.593-1.923-7.809-5.264-1.641-4.508,1.331-9.295,3.789-13.3,7.473-12.173,6.892-24.958,5.187-39.654S535.06,237.11,523.33,230.514s-27.1-4.859-36.6,5.344c-6.49,6.968-9.785,16.808-14.449,25.446s-12.018,16.852-20.963,16.649c-10.815-.245-26.249-12.357-28.259-24.383s-.38-24.556-2.471-36.565c-3.952-22.7-21.139-38.336-41.59-38.231s-41.423,16.977-42.362,40.092c-.511,12.585,6.907,37.047.691,47.5-5.618,9.445-18.4,14.829-27.248,10-23.754-12.958-37.508-.482-42.086,15.161-5.12,17.5-5.326,32.379-.574,50.2s15.213,31.94,26.947,44.985c17.869,19.864,52.525,17.156,56.319,17.08,71.568-1.442,107-4.339,178.535-1.564,28.852,1.119,52.88-22.188,70.129-50.781Z" transform="translate(217.404 1311)" fill="#80cbc4" opacity="0.1"/>
    <g id="Grupo_3110" data-name="Grupo 3110" transform="translate(490.392 1610.239)">
      <g id="Grupo_3109" data-name="Grupo 3109" transform="translate(0 0)">
        <g id="Grupo_3108" data-name="Grupo 3108">
          <path id="Trazado_11886" data-name="Trazado 11886" d="M286.736,336.091a1.71,1.71,0,1,1-1.71,1.709A1.71,1.71,0,0,1,286.736,336.091Z" transform="translate(-276.816 -327.881)" fill="#80cbc4"/>
          <path id="Trazado_11887" data-name="Trazado 11887" d="M294.424,334.279l-2.39-.448a7.334,7.334,0,0,0-.571-1.383l1.382-2.022a.513.513,0,0,0-.058-.627l-1.705-1.706a.514.514,0,0,0-.628-.058l-2.023,1.383a7.391,7.391,0,0,0-1.425-.582l-.446-2.378a.515.515,0,0,0-.486-.4h-2.411a.515.515,0,0,0-.486.4l-.451,2.4a7.437,7.437,0,0,0-1.368.571l-2-1.365a.515.515,0,0,0-.629.058l-1.705,1.705a.515.515,0,0,0-.058.629l1.374,2.009a7.414,7.414,0,0,0-.563,1.366l-2.388.448a.515.515,0,0,0-.4.486v2.411a.517.517,0,0,0,.4.487l2.387.447a7.377,7.377,0,0,0,.575,1.395L277,341.491a.515.515,0,0,0,.059.629l1.705,1.706a.515.515,0,0,0,.627.058l1.986-1.359a7.476,7.476,0,0,0,1.354.564l.45,2.4a.516.516,0,0,0,.487.4h2.411a.516.516,0,0,0,.487-.4l.445-2.376a7.5,7.5,0,0,0,1.411-.575l2.01,1.375a.516.516,0,0,0,.63-.058l1.705-1.705a.513.513,0,0,0,.058-.627l-1.368-2a7.4,7.4,0,0,0,.584-1.412l2.385-.447a.517.517,0,0,0,.4-.487v-2.411A.512.512,0,0,0,294.424,334.279Zm-8.706,5.755a4.141,4.141,0,1,1,3.251-3.248A4.144,4.144,0,0,1,285.718,340.034Z" transform="translate(-274.989 -326.054)" fill="#80cbc4"/>
        </g>
      </g>
    </g>
    <g id="Grupo_3113" data-name="Grupo 3113" transform="translate(519.833 1654.46)">
      <g id="Grupo_3112" data-name="Grupo 3112" transform="translate(0 0)">
        <g id="Grupo_3111" data-name="Grupo 3111">
          <path id="Trazado_11888" data-name="Trazado 11888" d="M321.348,388.7a1.354,1.354,0,1,1-1.8-.642A1.353,1.353,0,0,1,321.348,388.7Z" transform="translate(-312.401 -381.542)" fill="#80cbc4"/>
          <path id="Trazado_11889" data-name="Trazado 11889" d="M323.151,394.093l-.492-1.862a5.721,5.721,0,0,0,.8-.878l1.916.3a.407.407,0,0,0,.429-.255l.641-1.8a.408.408,0,0,0-.172-.47l-1.676-.977a5.86,5.86,0,0,0-.068-1.217l1.549-1.126a.407.407,0,0,0,.124-.484l-.819-1.725a.408.408,0,0,0-.454-.21l-1.87.493a5.813,5.813,0,0,0-.873-.784l.3-1.892a.408.408,0,0,0-.255-.43l-1.8-.64a.409.409,0,0,0-.47.172l-.969,1.665a5.846,5.846,0,0,0-1.169.062l-1.131-1.557a.41.41,0,0,0-.485-.124l-1.724.819a.409.409,0,0,0-.211.455l.491,1.859a5.851,5.851,0,0,0-.8.884l-1.882-.3a.409.409,0,0,0-.43.255l-.64,1.8a.407.407,0,0,0,.172.469l1.646.959a5.879,5.879,0,0,0,.056,1.16l-1.564,1.137a.409.409,0,0,0-.124.485l.82,1.725a.408.408,0,0,0,.454.21l1.851-.488a5.846,5.846,0,0,0,.89.814l-.3,1.9a.408.408,0,0,0,.256.431l1.8.64a.408.408,0,0,0,.469-.171l.965-1.658a5.873,5.873,0,0,0,1.207-.062l1.13,1.555a.409.409,0,0,0,.486.124l1.724-.819A.406.406,0,0,0,323.151,394.093Zm-7.073-4.272a3.279,3.279,0,1,1,3.427,1.222A3.282,3.282,0,0,1,316.078,389.821Z" transform="translate(-310.983 -380.119)" fill="#80cbc4"/>
        </g>
      </g>
    </g>
    <g id="Grupo_3116" data-name="Grupo 3116" transform="translate(729.552 1562.94)">
      <g id="Grupo_3115" data-name="Grupo 3115" transform="translate(0 0)">
        <g id="Grupo_3114" data-name="Grupo 3114">
          <path id="Trazado_11890" data-name="Trazado 11890" d="M594.325,290.187a3.619,3.619,0,1,1-5.015,1.022A3.619,3.619,0,0,1,594.325,290.187Z" transform="translate(-571.268 -272.116)" fill="#80cbc4"/>
          <path id="Trazado_11891" data-name="Trazado 11891" d="M607.224,297.435l-3.7-3.581a15.51,15.51,0,0,0,.606-3.109l4.8-1.955a1.089,1.089,0,0,0,.63-1.176l-1.019-5a1.089,1.089,0,0,0-1.04-.837l-5.186.081a15.68,15.68,0,0,0-1.836-2.693l1.989-4.717a1.09,1.09,0,0,0-.387-1.279l-4.256-2.815a1.092,1.092,0,0,0-1.329.145l-3.6,3.712a15.645,15.645,0,0,0-3.082-.589l-1.93-4.742a1.091,1.091,0,0,0-1.178-.631l-5,1.02a1.09,1.09,0,0,0-.838,1.042l.081,5.151a15.648,15.648,0,0,0-2.589,1.756l-4.74-2a1.09,1.09,0,0,0-1.281.387l-2.815,4.257a1.092,1.092,0,0,0,.146,1.331l3.691,3.577a15.589,15.589,0,0,0-.613,3.133l-4.719,1.921A1.091,1.091,0,0,0,567.4,291l1.02,5a1.087,1.087,0,0,0,1.04.835l5.093-.081a15.7,15.7,0,0,0,1.731,2.577l-2.008,4.763a1.092,1.092,0,0,0,.387,1.281l4.257,2.815a1.091,1.091,0,0,0,1.33-.145l3.562-3.675a15.815,15.815,0,0,0,3.161.632l1.942,4.774a1.093,1.093,0,0,0,1.181.632l5-1.02a1.088,1.088,0,0,0,.836-1.039l-.081-5.128a15.74,15.74,0,0,0,2.679-1.81l4.733,2a1.093,1.093,0,0,0,1.282-.389l2.815-4.256A1.083,1.083,0,0,0,607.224,297.435Zm-22.091,0a8.765,8.765,0,1,1,9.534-1.938A8.773,8.773,0,0,1,585.133,297.431Z" transform="translate(-567.386 -268.227)" fill="#80cbc4"/>
        </g>
      </g>
    </g>
    <g id="Grupo_3120" data-name="Grupo 3120" transform="translate(460.756 1606.104)">
      <g id="Grupo_3119" data-name="Grupo 3119" transform="translate(0 0)">
        <g id="Grupo_3118" data-name="Grupo 3118" transform="translate(76.055 27.779)">
          <g id="Grupo_3117" data-name="Grupo 3117" transform="translate(6.25 3.844)">
            <path id="Trazado_11892" data-name="Trazado 11892" d="M358.132,398.371a53.716,53.716,0,0,1-13.262-17.953,51.614,51.614,0,0,1-3.367-9.786,50.293,50.293,0,0,1-1-5.779c-.186-1.642,0-3.484-.5-5.052-.072-.222-.361-.155-.415.036-.44,1.57-.039,3.483.151,5.084a51.563,51.563,0,0,0,.927,5.352,52.7,52.7,0,0,0,9.4,20.138,49.417,49.417,0,0,0,8.039,8,.026.026,0,0,0,.034-.039Z" transform="translate(-339.381 -359.662)" fill="#8d6e63"/>
          </g>
          <path id="Trazado_11893" data-name="Trazado 11893" d="M353.947,400.54a4.957,4.957,0,0,1-2.168-.025,22.972,22.972,0,0,0-5.582-1.808,1.927,1.927,0,0,0-1.3.131.848.848,0,0,0-.155.932,1.692,1.692,0,0,0,.639.686c2.563,1.774,5.48.853,8.659.39Z" transform="translate(-334.095 -362.918)" fill="#8d6e63"/>
          <path id="Trazado_11894" data-name="Trazado 11894" d="M349.582,394.67a9.426,9.426,0,0,1-2.329.23c-1.926-.527-2.454-1.512-5.446-2.4a2.044,2.044,0,0,0-1.435.044A1.1,1.1,0,0,0,340,393.6a1.628,1.628,0,0,0,.542.836c2.392,2.237,7.472,1.4,9.106.652Z" transform="translate(-333.24 -361.776)" fill="#8d6e63"/>
          <path id="Trazado_11895" data-name="Trazado 11895" d="M346.422,389.083a2.446,2.446,0,0,1-2.091-.392c-2.591-1.992-2.471-2.279-5.591-3.9a2.31,2.31,0,0,0-1.539-.283,1.022,1.022,0,0,0-.491,1.023,2.03,2.03,0,0,0,.508,1c2.363,2.9,6.316,3.118,9.378,2.926Z" transform="translate(-332.644 -360.331)" fill="#8d6e63"/>
          <path id="Trazado_11896" data-name="Trazado 11896" d="M343.213,382.474c.3-.042-1.7-.778-2.707-1.777-3.01-2.634-2.465-3.361-5.389-5.462-.322-.231-1.11-.646-1.506-.515a1.007,1.007,0,0,0-.618.956,2.122,2.122,0,0,0,.384,1.087c2.007,3.276,6.073,4.6,9.836,5.711Z" transform="translate(-331.968 -358.555)" fill="#8d6e63"/>
          <path id="Trazado_11897" data-name="Trazado 11897" d="M340.512,373.983c.272-.051-1.419-.229-2.264-1.157-2.257-1.7-2.043-3.039-4.552-4.963-.276-.213-.962-.584-1.329-.444a1.114,1.114,0,0,0-.624.945,1.966,1.966,0,0,0,.276,1.036c1.6,3.089,6.856,5.164,8.493,4.583Z" transform="translate(-331.74 -357.224)" fill="#8d6e63"/>
          <path id="Trazado_11898" data-name="Trazado 11898" d="M339.138,367.364c.262-.038-.748-.591-1.345-1.389a18.651,18.651,0,0,0-3.653-4.385,1.537,1.537,0,0,0-1.139-.4,1.256,1.256,0,0,0-.763.783,1.392,1.392,0,0,0,.049.877c.865,2.633,3.958,3.662,6.851,4.514Z" transform="translate(-331.821 -356.092)" fill="#8d6e63"/>
          <path id="Trazado_11899" data-name="Trazado 11899" d="M339.34,361.958c.22.065-.69-.567-.991-1.491-1-1.947-.366-2.79-1.471-4.778-.122-.219-.483-.673-.808-.719a.943.943,0,0,0-.824.332,1.088,1.088,0,0,0-.2.7c-.014,2.352,2.194,4.259,4.291,5.959Z" transform="translate(-332.343 -354.962)" fill="#8d6e63"/>
          <path id="Trazado_11900" data-name="Trazado 11900" d="M357.463,400.617c-.212.117.823-.727.935-1.736a18.077,18.077,0,0,1,.842-5.119c.083-.276.366-.869.689-.984a.912.912,0,0,1,.9.224,1.365,1.365,0,0,1,.334.765c.46,2.7-1.654,4.682-3.471,7.041Z" transform="translate(-336.418 -361.839)" fill="#8d6e63"/>
          <path id="Trazado_11901" data-name="Trazado 11901" d="M353.219,395.318a9.182,9.182,0,0,0,1.454-1.759c.6-1.822.059-2.747.932-5.611.1-.317.429-1,.815-1.135a1.133,1.133,0,0,1,1.089.235,1.5,1.5,0,0,1,.409.864c.584,3.066-2.873,6.731-4.383,7.668Z" transform="translate(-335.644 -360.751)" fill="#8d6e63"/>
          <path id="Trazado_11902" data-name="Trazado 11902" d="M349.4,389.9a2.236,2.236,0,0,0,1.067-1.641c.182-2.868-.113-2.945.694-5.968.089-.334.406-1.053.789-1.2a1.1,1.1,0,0,1,1.094.233,1.634,1.634,0,0,1,.429.9c.655,3.217-1.759,6.028-3.9,8.007Z" transform="translate(-334.949 -359.708)" fill="#8d6e63"/>
          <path id="Trazado_11903" data-name="Trazado 11903" d="M345.557,382.811c-.277.092,1.062-1.285,1.416-2.45,1.239-3.218.4-3.538,1.838-6.322.159-.307.622-.942,1.029-1.008a1.1,1.1,0,0,1,1.018.463,1.631,1.631,0,0,1,.226.975c-.051,3.286-2.863,5.959-5.527,8.341Z" transform="translate(-334.249 -358.25)" fill="#8d6e63"/>
          <path id="Trazado_11904" data-name="Trazado 11904" d="M342.919,376.025c-.262.072,1.125-.766,1.408-1.843,1.135-2.266.294-3.232,1.539-5.778.137-.281.553-.856.941-.9a1.188,1.188,0,0,1,1,.484,1.616,1.616,0,0,1,.266.928c.117,3.089-3.447,6.887-5.158,7.106Z" transform="translate(-333.769 -357.245)" fill="#8d6e63"/>
          <path id="Trazado_11905" data-name="Trazado 11905" d="M341,368.727c-.256.062.477-.827.735-1.789a18.628,18.628,0,0,1,1.768-5.426c.13-.25.528-.761.91-.793a1.254,1.254,0,0,1,1,.444,1.393,1.393,0,0,1,.28.833c.172,2.765-2.32,4.867-4.692,6.731Z" transform="translate(-333.416 -356.009)" fill="#8d6e63"/>
          <path id="Trazado_11906" data-name="Trazado 11906" d="M340.233,362.736c-.217.094.612-.6.756-1.424.684-1.806-.128-2.395.658-4.254a1.448,1.448,0,0,1,.708-.746,1.155,1.155,0,0,1,.914.129.837.837,0,0,1,.331.547c.442,1.961-1.5,3.951-3.367,5.748Z" transform="translate(-333.28 -355.2)" fill="#8d6e63"/>
        </g>
        <path id="Trazado_11907" data-name="Trazado 11907" d="M340.35,423.153a48.084,48.084,0,0,0-5.074-7.37,4.588,4.588,0,0,0,.387-.836c.163-.531.243-1.4.429-1.928a11.632,11.632,0,0,0,.854-3.789,4.248,4.248,0,0,0-1.509-3.445,1.029,1.029,0,0,0-.65-.253,1.042,1.042,0,0,0-.7.449,5.331,5.331,0,0,0-.977,2.338,11.465,11.465,0,0,0,.822,5.922,54.009,54.009,0,0,0-7.806-6.93,4.239,4.239,0,0,0,.259-.7c.131-.539.161-1.416.316-1.949a11.64,11.64,0,0,0,.634-3.831,4.252,4.252,0,0,0-1.706-3.353,1.03,1.03,0,0,0-.664-.214,1.043,1.043,0,0,0-.668.488,5.327,5.327,0,0,0-.84,2.39,11.993,11.993,0,0,0,1.312,6.213,54.783,54.783,0,0,0-7.057-4.091,4.85,4.85,0,0,0,.417-1.011c.131-.54.161-1.417.316-1.95a11.64,11.64,0,0,0,.634-3.831,4.252,4.252,0,0,0-1.706-3.353,1.031,1.031,0,0,0-.664-.214,1.045,1.045,0,0,0-.668.488,5.337,5.337,0,0,0-.84,2.39c-.308,2.169.536,4.457,1.417,6.46a3.139,3.139,0,0,1,.155.564c-1.38-.653-2.8-1.2-4.218-1.779-1.665-.567-3.32-1.174-5.031-1.593-.519-.143-1.037-.267-1.556-.4.027-.1.053-.193.067-.272.1-.547.07-1.424.19-1.966a11.633,11.633,0,0,0,.386-3.864A4.25,4.25,0,0,0,304.7,388.7a1.028,1.028,0,0,0-.676-.171,1.045,1.045,0,0,0-.636.53,5.322,5.322,0,0,0-.684,2.439,12.059,12.059,0,0,0,1.731,6.161c-2.361-.551-4.712-1.035-7.022-1.642a49.718,49.718,0,0,1-5.5-1.748,4.845,4.845,0,0,0,.689-.837c.284-.477.57-1.306.875-1.77a11.652,11.652,0,0,0,1.732-3.476,4.25,4.25,0,0,0-.645-3.706,1.031,1.031,0,0,0-.572-.4,1.047,1.047,0,0,0-.783.271,5.331,5.331,0,0,0-1.506,2.037c-.932,1.983-.8,4.417-.544,6.591a6.642,6.642,0,0,1-.049.962,22.951,22.951,0,0,1-3.118-1.608,15.086,15.086,0,0,1-3.752-3.237,12.171,12.171,0,0,1-1.3-1.864,4.777,4.777,0,0,0,1.152-.47c.472-.294,1.106-.9,1.589-1.173a11.622,11.622,0,0,0,3.132-2.3,4.251,4.251,0,0,0,1.125-3.59,1.031,1.031,0,0,0-.326-.618,1.044,1.044,0,0,0-.82-.118,5.324,5.324,0,0,0-2.271,1.121c-1.736,1.336-2.733,3.56-3.5,5.609a5.994,5.994,0,0,1-.46.792,9.334,9.334,0,0,1-.721-1.734,21.93,21.93,0,0,1-.97-7.241.767.767,0,0,0,.159.016,4.613,4.613,0,0,0,1.395-.367c.5-.241,1.2-.775,1.707-.995a11.641,11.641,0,0,0,3.362-1.944,4.25,4.25,0,0,0,1.5-3.448,1.029,1.029,0,0,0-.256-.649,1.049,1.049,0,0,0-.8-.206,5.335,5.335,0,0,0-2.38.87c-1.871,1.14-3.1,3.244-4.088,5.2a7.166,7.166,0,0,1-.588.8q.029-1.086.1-2.168c.14-2.258.339-4.527.424-6.808.012,0,.016,0,.03,0a4.614,4.614,0,0,0,1.395-.367c.5-.241,1.2-.775,1.706-.995a11.636,11.636,0,0,0,3.363-1.944,4.253,4.253,0,0,0,1.5-3.448,1.033,1.033,0,0,0-.256-.649,1.047,1.047,0,0,0-.8-.206,5.337,5.337,0,0,0-2.379.87c-1.871,1.14-3.1,3.244-4.088,5.2a4.222,4.222,0,0,1-.434.6c.017-.888.013-1.778-.028-2.671l-.124-1.31-.061-.656-.124-.649c-.086-.433-.159-.869-.256-1.3l-.4-1.269a4.742,4.742,0,0,0-.254-.721,14.187,14.187,0,0,0,1.228-1.13c.392-.393.8-.766,1.212-1.143a11.619,11.619,0,0,0,2.521-2.954,4.247,4.247,0,0,0,.271-3.752,1.024,1.024,0,0,0-.458-.526,1.044,1.044,0,0,0-.824.073,5.33,5.33,0,0,0-1.954,1.613,11.193,11.193,0,0,0-2.235,5.873,6.432,6.432,0,0,1-.249.871c-.1-.222-.2-.442-.321-.654a14.142,14.142,0,0,0-1.539-2.2,16.586,16.586,0,0,0-3.626-3.154c.12-.4.167-1.029.254-1.314.162-.531.353-1.054.538-1.577a11.626,11.626,0,0,0,.852-3.789,4.25,4.25,0,0,0-1.511-3.445,1.029,1.029,0,0,0-.651-.251,1.046,1.046,0,0,0-.7.449,5.328,5.328,0,0,0-.975,2.338,11.891,11.891,0,0,0,.532,6.462c.016.044.036.1.057.151a32.869,32.869,0,0,0-3.594-1.713c-1.125-.458-2.261-.867-3.4-1.264.061-.344.1-.717.164-.919.163-.531.354-1.053.539-1.576a11.634,11.634,0,0,0,.852-3.789,4.251,4.251,0,0,0-1.511-3.444,1.027,1.027,0,0,0-.651-.252,1.044,1.044,0,0,0-.7.449,5.328,5.328,0,0,0-.976,2.338,11.888,11.888,0,0,0,.532,6.462c.016.043.034.092.055.146-1.584-.537-3.162-1.062-4.707-1.64-.928-.354-1.847-.734-2.747-1.147.135-.3.258-.613.362-.779.292-.473.61-.928.923-1.387a11.658,11.658,0,0,0,1.79-3.447,4.251,4.251,0,0,0-.584-3.717,1.028,1.028,0,0,0-.565-.409,1.045,1.045,0,0,0-.787.257,5.338,5.338,0,0,0-1.539,2.013,11.891,11.891,0,0,0-1.132,6.385c.01.092.023.215.039.348a18.587,18.587,0,0,1-4.418-3.128,15.452,15.452,0,0,1-1.894-2.276c.3-.2.678-.609.9-.759.391-.271.8-.519,1.2-.773a9.951,9.951,0,0,0,2.586-2.091,3.641,3.641,0,0,0,.815-3.116.878.878,0,0,0-.3-.514.9.9,0,0,0-.706-.068,4.552,4.552,0,0,0-1.9,1.052,10.178,10.178,0,0,0-3.077,4.622c-.046.143-.115.363-.173.6-.128-.222-.259-.441-.375-.67a20.271,20.271,0,0,1-1.639-4.776c-.042-.187-.064-.378-.1-.566.212-.164.454-.42.6-.52.3-.206.607-.4.913-.588A7.562,7.562,0,0,0,249.4,328a2.767,2.767,0,0,0,.621-2.372.662.662,0,0,0-.231-.392.677.677,0,0,0-.537-.052,3.466,3.466,0,0,0-1.445.8,7.721,7.721,0,0,0-2.179,3.111,76.846,76.846,0,0,1-.67-8.092h-.181c-.1,1.732-.152,3.469-.123,5.212.019,1.172.077,2.351.2,3.525a1.214,1.214,0,0,1-.121-.041c-.33-.148-.652-.314-.976-.476a7.611,7.611,0,0,0-2.382-.859,2.771,2.771,0,0,0-2.351.7.672.672,0,0,0-.216.4.681.681,0,0,0,.234.486,3.479,3.479,0,0,0,1.434.82,7.756,7.756,0,0,0,4.223.18c.077-.018.186-.045.3-.077.029.191.052.384.085.575a21.3,21.3,0,0,0,1.492,5.105c.094.209.2.411.308.618a2.867,2.867,0,0,1-.355-.081c-.451-.15-.895-.325-1.339-.494a9.988,9.988,0,0,0-3.226-.809A3.642,3.642,0,0,0,238.985,337a.885.885,0,0,0-.229.552.894.894,0,0,0,.37.6,4.565,4.565,0,0,0,1.981.884,10.182,10.182,0,0,0,5.544-.32,6.148,6.148,0,0,0,.892-.373,14.79,14.79,0,0,0,2.046,2.668,17.9,17.9,0,0,0,3.305,2.68c-.077-.019-.154-.034-.23-.052a9.969,9.969,0,0,0-3.3-.385,3.641,3.641,0,0,0-2.8,1.6.721.721,0,0,0,.29,1.129,4.556,4.556,0,0,0,2.079.62,10.183,10.183,0,0,0,5.456-1.034,5.85,5.85,0,0,0,.892-.528c1.113.555,2.254,1.045,3.39,1.491,1.073.418,2.152.794,3.232,1.159a9.746,9.746,0,0,0-3.156.752,3.638,3.638,0,0,0-2.087,2.453.883.883,0,0,0,.05.6.9.9,0,0,0,.606.368,4.572,4.572,0,0,0,2.166-.124,10.185,10.185,0,0,0,4.778-2.83c.077-.081.186-.2.3-.328,1.323.435,2.639.871,3.93,1.35a37.168,37.168,0,0,1,3.6,1.526l-.016,0c-.47.074-.943.122-1.416.176a9.952,9.952,0,0,0-3.237.762,3.64,3.64,0,0,0-2.087,2.453.882.882,0,0,0,.05.6.9.9,0,0,0,.606.368,4.575,4.575,0,0,0,2.167-.124,10.186,10.186,0,0,0,4.778-2.83,6.872,6.872,0,0,0,.557-.642,15.575,15.575,0,0,1,3.612,2.823,13.036,13.036,0,0,1,1.539,1.978c.191.3.347.629.514.948-.317-.006-.669.015-.862-.01-.472-.06-.941-.146-1.408-.226a9.969,9.969,0,0,0-3.322-.17,3.641,3.641,0,0,0-2.689,1.776.883.883,0,0,0-.118.586.894.894,0,0,0,.48.522,4.567,4.567,0,0,0,2.114.483,10.178,10.178,0,0,0,5.377-1.386,5.51,5.51,0,0,0,.894-.617,3.569,3.569,0,0,1,.138.349l.424,1.2c.106.411.188.828.284,1.242l.14.623.079.635.149,1.273c.066,1,.072,1.994.047,2.993-.32-.162-.855-.3-1.086-.411-.424-.214-.838-.451-1.253-.683a9.964,9.964,0,0,0-3.075-1.267,3.639,3.639,0,0,0-3.126.778.883.883,0,0,0-.307.513.9.9,0,0,0,.278.652,4.568,4.568,0,0,0,1.833,1.161,10.182,10.182,0,0,0,5.532.484,4.758,4.758,0,0,0,1.176-.344c-.1,2.146-.331,4.3-.5,6.458-.05.656-.094,1.314-.125,1.972-.3-.168-.685-.329-.865-.452-.393-.267-.771-.556-1.152-.84a9.993,9.993,0,0,0-2.883-1.658,3.642,3.642,0,0,0-3.2.362.72.72,0,0,0-.18,1.152,4.558,4.558,0,0,0,1.665,1.391,10.179,10.179,0,0,0,5.42,1.2,5.118,5.118,0,0,0,1.152-.162c-.037.751-.034,1.507-.037,2.262a19.97,19.97,0,0,0,.751,5.243,6.613,6.613,0,0,0,.3.971c-.062-.038-.119-.073-.161-.1-.379-.287-.742-.6-1.107-.9a9.97,9.97,0,0,0-2.794-1.805,3.639,3.639,0,0,0-3.215.2.879.879,0,0,0-.394.448.892.892,0,0,0,.155.692,4.56,4.56,0,0,0,1.591,1.475,10.175,10.175,0,0,0,5.352,1.481,5.148,5.148,0,0,0,1.15-.1c.022.054.046.106.068.16a14.8,14.8,0,0,0,1.431,2.292,15.275,15.275,0,0,0,3.938,3.675c.411.275.832.532,1.257.778a9.21,9.21,0,0,0-3.027.034,3.64,3.64,0,0,0-2.593,1.911.884.884,0,0,0-.087.591.894.894,0,0,0,.506.5,4.561,4.561,0,0,0,2.137.373,10.177,10.177,0,0,0,5.3-1.663c.128-.084.328-.217.526-.37a44.894,44.894,0,0,0,5.739,1.971c2.1.591,4.212,1.08,6.3,1.6-.262.041-.523.086-.785.124a9.954,9.954,0,0,0-3.21.871,3.637,3.637,0,0,0-2,2.522.881.881,0,0,0,.07.593.894.894,0,0,0,.618.347,4.558,4.558,0,0,0,2.161-.2,10.18,10.18,0,0,0,4.679-2.989,6.373,6.373,0,0,0,.576-.728c.551.147,1.1.291,1.648.452,1.647.443,3.248,1.033,4.862,1.583.845.345,1.691.686,2.531,1.04-.159.013-.317.031-.477.044a9.961,9.961,0,0,0-3.259.663,3.638,3.638,0,0,0-2.162,2.388.881.881,0,0,0,.032.6.892.892,0,0,0,.595.386,4.573,4.573,0,0,0,2.169-.058,10.183,10.183,0,0,0,4.862-2.682c.092-.092.229-.226.368-.38l.038.017a58.189,58.189,0,0,1,7.177,3.978c-.44.025-.881.032-1.321.042a9.944,9.944,0,0,0-3.294.461,3.64,3.64,0,0,0-2.3,2.251.884.884,0,0,0,0,.6.9.9,0,0,0,.57.421,4.566,4.566,0,0,0,2.168.075,10.183,10.183,0,0,0,5.018-2.378,7.492,7.492,0,0,0,.563-.536c.092.064.187.123.279.187a51.3,51.3,0,0,1,7.8,6.6c.123.13.24.267.362.4a4.379,4.379,0,0,1-.524.061c-.476,0-.951-.02-1.426-.038a9.972,9.972,0,0,0-3.315.27,3.64,3.64,0,0,0-2.43,2.114.885.885,0,0,0-.04.6.9.9,0,0,0,.545.454,4.572,4.572,0,0,0,2.16.2,10.18,10.18,0,0,0,5.147-2.084,6.073,6.073,0,0,0,.731-.646,48.5,48.5,0,0,1,5.115,6.732,51.363,51.363,0,0,1,2.409,4.549l.552,1.169.454,1.209c.292.811.641,1.6.9,2.432l.173-.051A42.494,42.494,0,0,0,340.35,423.153Z" transform="translate(-238.756 -320.999)" fill="#ffe082"/>
      </g>
    </g>
    <g id="Grupo_3124" data-name="Grupo 3124" transform="translate(728.94 1624.692)">
      <g id="Grupo_3123" data-name="Grupo 3123" transform="translate(0 0)">
        <g id="Grupo_3122" data-name="Grupo 3122" transform="translate(0.273 34.763)">
          <g id="Grupo_3121" data-name="Grupo 3121" transform="translate(0 3.262)">
            <path id="Trazado_11908" data-name="Trazado 11908" d="M566.988,409.987a44.8,44.8,0,0,0,17.205-7.105,43.058,43.058,0,0,0,6.621-5.538,41.863,41.863,0,0,0,3.206-3.695,21.874,21.874,0,0,1,2.537-3.389c.146-.128.325.044.281.2a11.533,11.533,0,0,1-2.3,3.565,43.083,43.083,0,0,1-2.967,3.422,43.953,43.953,0,0,1-15.39,10.33A41.233,41.233,0,0,1,567,410.029a.022.022,0,0,1-.007-.042Z" transform="translate(-566.971 -390.215)" fill="#ffe082"/>
          </g>
          <path id="Trazado_11909" data-name="Trazado 11909" d="M574.039,412.79a4.149,4.149,0,0,0,1.56.917,19.156,19.156,0,0,1,4.764,1.113c.254.092.789.375.87.652a.708.708,0,0,1-.29.733,1.414,1.414,0,0,1-.753.214c-2.594.163-4.28-1.752-6.351-3.452Z" transform="translate(-568.221 -391.058)" fill="#ffe082"/>
          <path id="Trazado_11910" data-name="Trazado 11910" d="M579.59,410.509a7.92,7.92,0,0,0,1.564,1.167c1.6.454,2.4-.022,4.923.632.278.072.879.331,1.007.65a.916.916,0,0,1-.187.914,1.357,1.357,0,0,1-.748.363c-2.671.567-5.937-2.221-6.783-3.457Z" transform="translate(-569.228 -390.642)" fill="#ffe082"/>
          <path id="Trazado_11911" data-name="Trazado 11911" d="M584,408.246a2.039,2.039,0,0,0,1.661.621c2.709-.306,2.747-.562,5.673-.376.323.02,1.034.168,1.22.461a.85.85,0,0,1-.09.942,1.7,1.7,0,0,1-.8.5c-2.937,1.054-5.853-.495-7.957-1.952Z" transform="translate(-570.018 -390.231)" fill="#ffe082"/>
          <path id="Trazado_11912" data-name="Trazado 11912" d="M588.814,404.99c-.195-.158,1.55.177,2.7-.1,3.284-.584,3.209-1.338,6.2-1.579.33-.026,1.071.016,1.3.281a.84.84,0,0,1,.029.95,1.784,1.784,0,0,1-.743.611c-2.845,1.474-6.321.671-9.485-.16Z" transform="translate(-570.945 -389.336)" fill="#ffe082"/>
          <path id="Trazado_11913" data-name="Trazado 11913" d="M594.745,400.095c-.173-.154,1.112.448,2.114.15,2.344-.24,2.769-1.29,5.389-1.583.29-.033.939,0,1.141.255a.928.928,0,0,1,.038.943,1.634,1.634,0,0,1-.643.622c-2.473,1.517-7.121.734-8.039-.387Z" transform="translate(-572.024 -388.489)" fill="#ffe082"/>
          <path id="Trazado_11914" data-name="Trazado 11914" d="M598.9,395.951c-.171-.139.789-.1,1.558-.412a15.536,15.536,0,0,1,4.5-1.557,1.284,1.284,0,0,1,.986.205,1.05,1.05,0,0,1,.208.887,1.164,1.164,0,0,1-.414.605c-1.751,1.507-4.4.91-6.836.272Z" transform="translate(-572.781 -387.635)" fill="#ffe082"/>
          <path id="Trazado_11915" data-name="Trazado 11915" d="M601.435,392.023c-.186-.048.737-.108,1.35-.638,1.553-.96,1.463-1.835,3.109-2.779a1.273,1.273,0,0,1,.888-.165.787.787,0,0,1,.445.592.9.9,0,0,1-.16.583c-1,1.685-3.4,2.1-5.631,2.406Z" transform="translate(-573.241 -386.623)" fill="#ffe082"/>
          <path id="Trazado_11916" data-name="Trazado 11916" d="M572.293,411.637a3.588,3.588,0,0,1,.081-1.642,15.092,15.092,0,0,0,1.6-4.018,1.433,1.433,0,0,0-.068-1,.761.761,0,0,0-.743-.23,1.136,1.136,0,0,0-.567.4c-1.494,1.732-.837,4.055-.555,6.523Z" transform="translate(-567.824 -389.595)" fill="#ffe082"/>
          <path id="Trazado_11917" data-name="Trazado 11917" d="M577.421,409.6a7.74,7.74,0,0,1-.281-1.883c.356-1.559,1.142-1.987,1.752-4.408a1.651,1.651,0,0,0-.092-1.161.942.942,0,0,0-.878-.3,1.246,1.246,0,0,0-.664.44c-1.738,1.938-.848,6.045-.173,7.364Z" transform="translate(-568.659 -389.067)" fill="#ffe082"/>
          <path id="Trazado_11918" data-name="Trazado 11918" d="M582.519,407.439a1.864,1.864,0,0,1-.055-1.631c1.105-2.127,1.35-2.055,2.076-4.561a1.719,1.719,0,0,0-.044-1.2.915.915,0,0,0-.882-.305,1.357,1.357,0,0,0-.7.46c-1.854,2.015-1.342,5.063-.665,7.4Z" transform="translate(-569.641 -388.684)" fill="#ffe082"/>
          <path id="Trazado_11919" data-name="Trazado 11919" d="M588.184,403.885c.159.185-.2-1.375.044-2.359.5-2.832,1.239-2.7,1.412-5.306a1.719,1.719,0,0,0-.3-1.163.916.916,0,0,0-.927-.109,1.365,1.365,0,0,0-.581.6c-1.38,2.369-.523,5.489.353,8.337Z" transform="translate(-570.637 -387.8)" fill="#ffe082"/>
          <path id="Trazado_11920" data-name="Trazado 11920" d="M593.055,400.219c.155.164-.474-1.031-.211-1.922.165-2.108,1.182-2.434,1.391-4.789.023-.26-.026-.85-.285-1.046a.991.991,0,0,0-.927-.087,1.359,1.359,0,0,0-.59.547c-1.413,2.155-.5,6.4.622,7.3Z" transform="translate(-571.475 -387.332)" fill="#ffe082"/>
          <path id="Trazado_11921" data-name="Trazado 11921" d="M597.666,395.877c.157.155.016-.8.246-1.593a15.554,15.554,0,0,0,1.075-4.636,1.284,1.284,0,0,0-.308-.959,1.048,1.048,0,0,0-.9-.113,1.159,1.159,0,0,0-.559.474c-1.314,1.9-.441,4.475.45,6.827Z" transform="translate(-572.355 -386.644)" fill="#ffe082"/>
          <path id="Trazado_11922" data-name="Trazado 11922" d="M601.056,392.031c.115.16-.18-.691.074-1.343.29-1.584,1.123-1.655,1.363-3.321a1.214,1.214,0,0,0-.183-.838.967.967,0,0,0-.709-.3.7.7,0,0,0-.473.248c-1.16,1.211-.63,3.469-.072,5.555Z" transform="translate(-573.064 -386.226)" fill="#ffe082"/>
        </g>
        <path id="Trazado_11923" data-name="Trazado 11923" d="M569.723,428.92a40.178,40.178,0,0,1,4.232-6.147,3.835,3.835,0,0,1-.323-.7c-.136-.443-.2-1.172-.357-1.608a9.724,9.724,0,0,1-.712-3.16,3.542,3.542,0,0,1,1.259-2.873.853.853,0,0,1,.542-.21.869.869,0,0,1,.58.374,4.447,4.447,0,0,1,.815,1.95,9.558,9.558,0,0,1-.685,4.939,45.08,45.08,0,0,1,6.511-5.78,3.559,3.559,0,0,1-.216-.582c-.11-.45-.134-1.182-.263-1.626a9.714,9.714,0,0,1-.528-3.2,3.542,3.542,0,0,1,1.422-2.8.859.859,0,0,1,.554-.179.874.874,0,0,1,.558.407,4.441,4.441,0,0,1,.7,1.993,10,10,0,0,1-1.094,5.182A45.876,45.876,0,0,1,588.6,411.5a4.025,4.025,0,0,1-.348-.843c-.11-.45-.134-1.181-.263-1.625a9.717,9.717,0,0,1-.528-3.2,3.547,3.547,0,0,1,1.422-2.8.859.859,0,0,1,.554-.178.874.874,0,0,1,.558.407,4.441,4.441,0,0,1,.7,1.993,10.341,10.341,0,0,1-1.182,5.388,2.666,2.666,0,0,0-.13.47c1.151-.545,2.339-1,3.519-1.483,1.389-.474,2.768-.98,4.2-1.329.432-.119.865-.222,1.3-.331-.023-.081-.044-.16-.056-.227-.08-.456-.058-1.188-.158-1.639a9.7,9.7,0,0,1-.322-3.223,3.545,3.545,0,0,1,1.6-2.7.859.859,0,0,1,.564-.142.868.868,0,0,1,.53.442,4.442,4.442,0,0,1,.571,2.034,10.061,10.061,0,0,1-1.444,5.138c1.969-.46,3.93-.863,5.856-1.37a41.377,41.377,0,0,0,4.583-1.458,4.044,4.044,0,0,1-.574-.7c-.236-.4-.475-1.089-.73-1.476a9.683,9.683,0,0,1-1.444-2.9,3.545,3.545,0,0,1,.537-3.091.861.861,0,0,1,.477-.334.876.876,0,0,1,.653.226,4.441,4.441,0,0,1,1.256,1.7,10.342,10.342,0,0,1,.454,5.5,5.6,5.6,0,0,0,.041.8,19.139,19.139,0,0,0,2.6-1.341,12.584,12.584,0,0,0,3.129-2.7,10.082,10.082,0,0,0,1.086-1.555,3.981,3.981,0,0,1-.961-.392c-.393-.245-.923-.751-1.325-.978a9.719,9.719,0,0,1-2.612-1.915,3.544,3.544,0,0,1-.937-2.994.857.857,0,0,1,.271-.514.871.871,0,0,1,.684-.1,4.451,4.451,0,0,1,1.894.936,10.344,10.344,0,0,1,2.921,4.679,5.1,5.1,0,0,0,.384.66,7.809,7.809,0,0,0,.6-1.446,18.306,18.306,0,0,0,.809-6.04.6.6,0,0,1-.133.014,3.836,3.836,0,0,1-1.163-.306c-.417-.2-1-.647-1.423-.829a9.7,9.7,0,0,1-2.8-1.622,3.546,3.546,0,0,1-1.256-2.875.857.857,0,0,1,.214-.541.872.872,0,0,1,.668-.173,4.455,4.455,0,0,1,1.984.726,10.345,10.345,0,0,1,3.41,4.336,5.838,5.838,0,0,0,.491.667c-.016-.6-.045-1.207-.085-1.808-.117-1.883-.283-3.776-.353-5.678-.011,0-.014,0-.025,0a3.837,3.837,0,0,1-1.164-.307c-.417-.2-1-.646-1.423-.829a9.718,9.718,0,0,1-2.8-1.621,3.546,3.546,0,0,1-1.256-2.875.861.861,0,0,1,.214-.541.872.872,0,0,1,.668-.172,4.443,4.443,0,0,1,1.985.725,10.34,10.34,0,0,1,3.409,4.335,3.578,3.578,0,0,0,.362.5c-.015-.741-.011-1.484.023-2.228l.1-1.093.051-.547.1-.542c.072-.361.132-.724.214-1.083l.33-1.059a3.973,3.973,0,0,1,.212-.6,12.122,12.122,0,0,1-1.024-.941c-.326-.329-.671-.64-1.01-.954a9.676,9.676,0,0,1-2.1-2.464,3.542,3.542,0,0,1-.226-3.129.863.863,0,0,1,.382-.439.873.873,0,0,1,.688.061,4.448,4.448,0,0,1,1.629,1.345,9.327,9.327,0,0,1,1.863,4.9,5.4,5.4,0,0,0,.209.726c.084-.184.17-.368.268-.545a11.751,11.751,0,0,1,1.283-1.834,13.779,13.779,0,0,1,3.024-2.63c-.1-.335-.14-.859-.213-1.1-.135-.443-.294-.878-.449-1.314a9.721,9.721,0,0,1-.711-3.16,3.545,3.545,0,0,1,1.26-2.873.855.855,0,0,1,.542-.21.871.871,0,0,1,.58.375,4.436,4.436,0,0,1,.814,1.95,9.915,9.915,0,0,1-.444,5.389c-.013.037-.029.08-.047.126a27.5,27.5,0,0,1,3-1.428c.939-.382,1.885-.723,2.832-1.053-.052-.287-.086-.6-.137-.767-.136-.443-.3-.878-.449-1.314a9.724,9.724,0,0,1-.712-3.16,3.545,3.545,0,0,1,1.26-2.873.855.855,0,0,1,.543-.21.875.875,0,0,1,.58.375,4.45,4.45,0,0,1,.813,1.95,9.919,9.919,0,0,1-.443,5.39l-.046.121c1.321-.448,2.637-.887,3.925-1.368.774-.3,1.541-.612,2.291-.956-.112-.249-.215-.51-.3-.649-.244-.393-.509-.775-.77-1.157a9.715,9.715,0,0,1-1.492-2.874,3.545,3.545,0,0,1,.487-3.1.858.858,0,0,1,.471-.341.87.87,0,0,1,.656.214,4.433,4.433,0,0,1,1.283,1.678,9.909,9.909,0,0,1,.944,5.325c-.007.077-.019.18-.032.29a15.513,15.513,0,0,0,3.684-2.608,12.862,12.862,0,0,0,1.579-1.9c-.249-.165-.565-.508-.747-.634-.326-.226-.665-.433-1-.645a8.3,8.3,0,0,1-2.157-1.744,3.034,3.034,0,0,1-.681-2.6.734.734,0,0,1,.253-.429.748.748,0,0,1,.589-.057,3.812,3.812,0,0,1,1.583.878,8.49,8.49,0,0,1,2.566,3.855c.038.119.1.3.144.5.106-.185.216-.368.313-.559a16.919,16.919,0,0,0,1.367-3.983c.034-.155.053-.315.085-.472-.177-.137-.379-.349-.5-.434-.248-.172-.506-.33-.761-.491a6.339,6.339,0,0,1-1.642-1.328,2.31,2.31,0,0,1-.518-1.979.552.552,0,0,1,.192-.327.57.57,0,0,1,.448-.043,2.9,2.9,0,0,1,1.2.668,6.44,6.44,0,0,1,1.817,2.594,63.832,63.832,0,0,0,.558-6.749h.151c.081,1.444.127,2.892.1,4.346-.016.978-.064,1.961-.168,2.94.034-.011.075-.023.1-.034.276-.124.545-.263.815-.4a6.32,6.32,0,0,1,1.986-.716,2.308,2.308,0,0,1,1.961.582.563.563,0,0,1,.18.335.57.57,0,0,1-.2.406,2.9,2.9,0,0,1-1.2.684,6.474,6.474,0,0,1-3.523.151c-.064-.016-.155-.038-.251-.065-.024.16-.043.32-.071.479a17.745,17.745,0,0,1-1.244,4.258c-.078.174-.171.344-.257.515a2.642,2.642,0,0,0,.3-.067c.376-.125.745-.271,1.116-.412a8.316,8.316,0,0,1,2.691-.675,3.037,3.037,0,0,1,2.486,1.018.739.739,0,0,1,.191.46.751.751,0,0,1-.309.5,3.815,3.815,0,0,1-1.652.737,8.5,8.5,0,0,1-4.623-.267,5.2,5.2,0,0,1-.743-.311,12.336,12.336,0,0,1-1.707,2.225,14.932,14.932,0,0,1-2.756,2.235l.192-.044a8.321,8.321,0,0,1,2.755-.321,3.036,3.036,0,0,1,2.334,1.332.74.74,0,0,1,.13.481.749.749,0,0,1-.371.461,3.812,3.812,0,0,1-1.734.517,8.483,8.483,0,0,1-4.55-.863,4.8,4.8,0,0,1-.744-.439c-.928.463-1.88.871-2.827,1.243-.895.348-1.794.663-2.7.967a8.133,8.133,0,0,1,2.632.627,3.032,3.032,0,0,1,1.741,2.046.732.732,0,0,1-.041.5.747.747,0,0,1-.505.306,3.807,3.807,0,0,1-1.807-.1,8.5,8.5,0,0,1-3.985-2.36c-.064-.068-.155-.165-.25-.274-1.1.363-2.2.726-3.277,1.126a30.881,30.881,0,0,0-3,1.273l.012,0c.392.061.787.1,1.181.146a8.307,8.307,0,0,1,2.7.636,3.035,3.035,0,0,1,1.741,2.046.732.732,0,0,1-.042.5.743.743,0,0,1-.505.307,3.794,3.794,0,0,1-1.806-.1,8.482,8.482,0,0,1-3.985-2.36,5.575,5.575,0,0,1-.465-.536,13.013,13.013,0,0,0-3.013,2.355,10.876,10.876,0,0,0-1.283,1.65c-.159.254-.289.524-.429.791.264,0,.559.012.72-.008.393-.051.784-.122,1.175-.189a8.343,8.343,0,0,1,2.77-.142,3.036,3.036,0,0,1,2.242,1.48.738.738,0,0,1,.1.489.751.751,0,0,1-.4.435,3.809,3.809,0,0,1-1.764.4,8.484,8.484,0,0,1-4.484-1.157,4.559,4.559,0,0,1-.746-.514,3.019,3.019,0,0,0-.115.292l-.353,1c-.088.342-.156.69-.236,1.035l-.116.519-.065.53-.125,1.062c-.055.831-.06,1.663-.038,2.5.267-.136.712-.246.906-.344.354-.178.7-.376,1.044-.569a8.3,8.3,0,0,1,2.564-1.057,3.036,3.036,0,0,1,2.608.649.736.736,0,0,1,.256.428.748.748,0,0,1-.233.543,3.793,3.793,0,0,1-1.528.968,8.492,8.492,0,0,1-4.613.4,3.985,3.985,0,0,1-.982-.287c.081,1.79.276,3.585.419,5.385.042.547.078,1.1.1,1.646.247-.141.571-.275.721-.377.328-.222.644-.464.962-.7a8.3,8.3,0,0,1,2.4-1.383,3.034,3.034,0,0,1,2.67.3.731.731,0,0,1,.309.39.745.745,0,0,1-.159.569,3.8,3.8,0,0,1-1.389,1.16,8.487,8.487,0,0,1-4.521,1,4.3,4.3,0,0,1-.96-.135c.031.627.029,1.256.031,1.887a16.648,16.648,0,0,1-.627,4.373,5.491,5.491,0,0,1-.254.809,1.388,1.388,0,0,0,.134-.087c.316-.24.618-.5.924-.749a8.3,8.3,0,0,1,2.329-1.505,3.035,3.035,0,0,1,2.682.164.6.6,0,0,1,.2.951,3.8,3.8,0,0,1-1.327,1.23,8.5,8.5,0,0,1-4.464,1.236,4.349,4.349,0,0,1-.959-.084c-.019.044-.038.088-.056.133a12.4,12.4,0,0,1-1.194,1.911,12.725,12.725,0,0,1-3.284,3.065c-.343.23-.694.443-1.048.649a7.685,7.685,0,0,1,2.524.029,3.036,3.036,0,0,1,2.163,1.595.733.733,0,0,1,.073.492.748.748,0,0,1-.422.414,3.8,3.8,0,0,1-1.783.312,8.484,8.484,0,0,1-4.418-1.387c-.107-.07-.273-.181-.438-.308a37.417,37.417,0,0,1-4.787,1.644c-1.75.493-3.513.9-5.254,1.331.218.034.436.072.655.1a8.33,8.33,0,0,1,2.677.726,3.036,3.036,0,0,1,1.67,2.1.732.732,0,0,1-.058.495.746.746,0,0,1-.515.29,3.812,3.812,0,0,1-1.8-.164,8.493,8.493,0,0,1-3.9-2.493,5.382,5.382,0,0,1-.48-.607c-.46.123-.921.243-1.374.377-1.374.371-2.709.861-4.054,1.32-.705.288-1.411.572-2.112.868.133.011.265.025.4.037a8.3,8.3,0,0,1,2.718.553,3.034,3.034,0,0,1,1.8,1.992.736.736,0,0,1-.026.5.75.75,0,0,1-.5.321,3.8,3.8,0,0,1-1.808-.048,8.5,8.5,0,0,1-4.055-2.237c-.078-.076-.191-.188-.307-.317-.011,0-.022.009-.032.015a48.581,48.581,0,0,0-5.986,3.318c.366.02.734.026,1.1.034a8.3,8.3,0,0,1,2.747.384,3.035,3.035,0,0,1,1.921,1.878.734.734,0,0,1,0,.5.745.745,0,0,1-.475.352,3.812,3.812,0,0,1-1.808.063,8.5,8.5,0,0,1-4.185-1.984,6.3,6.3,0,0,1-.469-.447c-.077.053-.157.1-.233.155a42.846,42.846,0,0,0-6.507,5.506c-.1.108-.2.222-.3.331a3.857,3.857,0,0,0,.438.052c.4,0,.793-.017,1.19-.032a8.315,8.315,0,0,1,2.765.226,3.035,3.035,0,0,1,2.027,1.763.737.737,0,0,1,.033.5.746.746,0,0,1-.454.379,3.814,3.814,0,0,1-1.8.168,8.493,8.493,0,0,1-4.293-1.738,5.11,5.11,0,0,1-.609-.539,40.434,40.434,0,0,0-4.266,5.614c-.693,1.247-1.44,2.474-2.009,3.794l-.46.975-.379,1.009c-.244.676-.535,1.337-.754,2.028l-.145-.042A35.452,35.452,0,0,1,569.723,428.92Z" transform="translate(-566.637 -343.725)" fill="#80cbc4"/>
      </g>
    </g>
    <g id="Grupo_3125" data-name="Grupo 3125" transform="translate(559.51 1555.393)">
      <path id="Trazado_11924" data-name="Trazado 11924" d="M392.454,435.9H365.3a2.4,2.4,0,1,1,0-4.791h25.659l44.45-91.55a2.395,2.395,0,0,1,4.309,2.091l-45.1,92.9A2.394,2.394,0,0,1,392.454,435.9Z" transform="translate(-360.112 -273.422)" fill="#006064"/>
      <path id="Trazado_11925" data-name="Trazado 11925" d="M420.684,435.905a2.4,2.4,0,0,1-2.154-3.443l45.106-92.9a2.4,2.4,0,0,1,4.309,2.093l-45.106,92.9A2.4,2.4,0,0,1,420.684,435.905Z" transform="translate(-370.197 -273.422)" fill="#006064"/>
      <path id="Trazado_11926" data-name="Trazado 11926" d="M442.869,435.905a2.4,2.4,0,0,1-2.154-3.442l45.1-92.9a2.4,2.4,0,0,1,4.31,2.091l-45.1,92.9A2.4,2.4,0,0,1,442.869,435.905Z" transform="translate(-374.236 -273.422)" fill="#006064"/>
      <path id="Trazado_11927" data-name="Trazado 11927" d="M465.056,435.905a2.4,2.4,0,0,1-2.154-3.442l45.1-92.9a2.395,2.395,0,1,1,4.309,2.091l-45.1,92.9A2.4,2.4,0,0,1,465.056,435.905Z" transform="translate(-378.276 -273.422)" fill="#006064"/>
      <path id="Trazado_11928" data-name="Trazado 11928" d="M487.24,435.905a2.4,2.4,0,0,1-2.152-3.443l45.106-92.9a2.4,2.4,0,1,1,4.309,2.093l-45.106,92.9A2.4,2.4,0,0,1,487.24,435.905Z" transform="translate(-382.315 -273.422)" fill="#006064"/>
      <path id="Trazado_11929" data-name="Trazado 11929" d="M527.67,435.905H482.564a2.4,2.4,0,0,1-2.154-3.443l43.433-89.457H361.887a2.4,2.4,0,0,1,0-4.791H527.67a2.394,2.394,0,0,1,2.154,3.442l-43.433,89.458H527.67a2.4,2.4,0,0,1,0,4.791Z" transform="translate(-359.492 -273.423)" fill="#006064"/>
      <path id="Trazado_11930" data-name="Trazado 11930" d="M430.919,359.231H365.3a2.4,2.4,0,1,1,0-4.791h65.623a2.4,2.4,0,1,1,0,4.791Z" transform="translate(-360.112 -276.377)" fill="#006064"/>
      <path id="Trazado_11931" data-name="Trazado 11931" d="M424.449,375.456H365.3a2.4,2.4,0,1,1,0-4.791h59.154a2.4,2.4,0,0,1,0,4.791Z" transform="translate(-360.112 -279.331)" fill="#006064"/>
      <path id="Trazado_11932" data-name="Trazado 11932" d="M418.165,391.682H365.3a2.4,2.4,0,1,1,0-4.791h52.869a2.4,2.4,0,0,1,0,4.791Z" transform="translate(-360.112 -282.285)" fill="#006064"/>
      <path id="Trazado_11933" data-name="Trazado 11933" d="M408.552,407.907H365.3a2.4,2.4,0,1,1,0-4.791h43.256a2.4,2.4,0,1,1,0,4.791Z" transform="translate(-360.112 -285.239)" fill="#006064"/>
      <path id="Trazado_11934" data-name="Trazado 11934" d="M404.855,424.134H365.3a2.4,2.4,0,1,1,0-4.791h39.559a2.4,2.4,0,1,1,0,4.791Z" transform="translate(-360.112 -288.194)" fill="#006064"/>
      <path id="Trazado_11935" data-name="Trazado 11935" d="M398.478,440.359H365.3a2.4,2.4,0,1,1,0-4.791h33.182a2.4,2.4,0,1,1,0,4.791Z" transform="translate(-360.112 -291.148)" fill="#006064"/>
      <path id="Trazado_11936" data-name="Trazado 11936" d="M440.669,277.192a2.4,2.4,0,0,1-2.4-2.395v-13.4a2.4,2.4,0,0,1,4.791,0v13.4A2.4,2.4,0,0,1,440.669,277.192Z" transform="translate(-373.836 -259)" fill="#006064"/>
      <path id="Trazado_11937" data-name="Trazado 11937" d="M459.22,280.644a2.4,2.4,0,0,1-2.25-3.215l4.583-12.594a2.4,2.4,0,1,1,4.5,1.637l-4.584,12.594A2.4,2.4,0,0,1,459.22,280.644Z" transform="translate(-377.213 -259.775)" fill="#006064"/>
      <path id="Trazado_11938" data-name="Trazado 11938" d="M475.531,290.58a2.4,2.4,0,0,1-1.831-3.935l8.615-10.267a2.394,2.394,0,1,1,3.668,3.079l-8.615,10.267A2.383,2.383,0,0,1,475.531,290.58Z" transform="translate(-380.184 -262.008)" fill="#006064"/>
      <path id="Trazado_11939" data-name="Trazado 11939" d="M487.645,305.8a2.4,2.4,0,0,1-1.2-4.47l11.606-6.7a2.4,2.4,0,1,1,2.4,4.149l-11.607,6.7A2.378,2.378,0,0,1,487.645,305.8Z" transform="translate(-382.388 -265.429)" fill="#006064"/>
      <path id="Trazado_11940" data-name="Trazado 11940" d="M384.315,324.48a2.443,2.443,0,0,1-.419-.037l-13.2-2.327a2.4,2.4,0,0,1,.833-4.719l13.2,2.328a2.4,2.4,0,0,1-.414,4.755Z" transform="translate(-361.172 -269.626)" fill="#006064"/>
      <path id="Trazado_11941" data-name="Trazado 11941" d="M391.108,305.8a2.387,2.387,0,0,1-1.2-.32l-11.607-6.7a2.4,2.4,0,1,1,2.4-4.149l11.607,6.7a2.4,2.4,0,0,1-1.2,4.47Z" transform="translate(-362.699 -265.429)" fill="#006064"/>
      <path id="Trazado_11942" data-name="Trazado 11942" d="M403.886,290.58a2.391,2.391,0,0,1-1.836-.856l-8.615-10.267a2.4,2.4,0,1,1,3.67-3.079l8.616,10.267a2.4,2.4,0,0,1-1.835,3.935Z" transform="translate(-365.57 -262.008)" fill="#006064"/>
      <path id="Trazado_11943" data-name="Trazado 11943" d="M421.1,280.644a2.4,2.4,0,0,1-2.252-1.578l-4.584-12.594a2.4,2.4,0,1,1,4.5-1.637l4.583,12.594a2.4,2.4,0,0,1-2.25,3.215Z" transform="translate(-369.437 -259.775)" fill="#006064"/>
      <path id="Trazado_11944" data-name="Trazado 11944" d="M466.676,333.788H399.354a2.394,2.394,0,0,1-2.344-1.908,36.778,36.778,0,1,1,72.012,0A2.4,2.4,0,0,1,466.676,333.788ZM401.362,329h63.305a31.988,31.988,0,1,0-63.305,0Z" transform="translate(-366.182 -264.205)" fill="#006064"/>
      <path id="Trazado_11945" data-name="Trazado 11945" d="M504.839,339.085H494.086a2.4,2.4,0,0,1-2.395-2.433c.142-9.078,5.474-18.386,5.7-18.778a2.395,2.395,0,0,1,4.145,0c.227.392,5.555,9.7,5.7,18.778a2.4,2.4,0,0,1-2.4,2.433Zm-8.178-4.791h5.6a38.286,38.286,0,0,0-2.8-9.731A38.132,38.132,0,0,0,496.662,334.294Z" transform="translate(-383.561 -269.502)" fill="#006064"/>
      <path id="Trazado_11946" data-name="Trazado 11946" d="M520.975,339.1H510.224a2.394,2.394,0,0,1-2.395-2.432c.141-9.078,5.471-18.387,5.7-18.779a2.49,2.49,0,0,1,4.145,0c.227.392,5.558,9.7,5.7,18.779a2.395,2.395,0,0,1-2.4,2.432Zm-8.178-4.791h5.6a38.062,38.062,0,0,0-2.8-9.737A38.288,38.288,0,0,0,512.8,334.313Z" transform="translate(-386.5 -269.52)" fill="#006064"/>
      <path id="Trazado_11947" data-name="Trazado 11947" d="M537.112,339.1H526.359a2.4,2.4,0,0,1-2.395-2.433c.142-9.078,5.471-18.386,5.7-18.778a2.49,2.49,0,0,1,4.144,0c.227.392,5.558,9.7,5.7,18.778a2.4,2.4,0,0,1-2.4,2.433Zm-8.178-4.791h5.6a38.1,38.1,0,0,0-2.8-9.731A38.288,38.288,0,0,0,528.935,334.313Z" transform="translate(-389.437 -269.521)" fill="#006064"/>
      <path id="Trazado_11948" data-name="Trazado 11948" d="M553.248,339.1H542.5a2.4,2.4,0,0,1-2.4-2.432c.141-9.078,5.471-18.387,5.7-18.779a2.49,2.49,0,0,1,4.145,0c.227.392,5.558,9.7,5.7,18.779a2.395,2.395,0,0,1-2.4,2.432Zm-8.177-4.791h5.6a38.034,38.034,0,0,0-2.8-9.737A38.259,38.259,0,0,0,545.071,334.313Z" transform="translate(-392.375 -269.52)" fill="#006064"/>
      <path id="Trazado_11949" data-name="Trazado 11949" d="M555.967,440.359H517.306a2.4,2.4,0,1,1,0-4.791h38.661a2.4,2.4,0,0,1,0,4.791Z" transform="translate(-387.789 -291.148)" fill="#006064"/>
      <path id="Trazado_11950" data-name="Trazado 11950" d="M557.489,424.134H525.667a2.4,2.4,0,0,1,0-4.791h31.822a2.4,2.4,0,0,1,0,4.791Z" transform="translate(-389.311 -288.194)" fill="#006064"/>
      <path id="Trazado_11951" data-name="Trazado 11951" d="M558.974,407.907H533.823a2.4,2.4,0,0,1,0-4.791h25.151a2.4,2.4,0,0,1,0,4.791Z" transform="translate(-390.796 -285.239)" fill="#006064"/>
      <path id="Trazado_11952" data-name="Trazado 11952" d="M560.27,391.682H540.939a2.4,2.4,0,1,1,0-4.791H560.27a2.4,2.4,0,0,1,0,4.791Z" transform="translate(-392.092 -282.285)" fill="#006064"/>
      <path id="Trazado_11953" data-name="Trazado 11953" d="M561.7,375.456H548.818a2.4,2.4,0,1,1,0-4.791H561.7a2.4,2.4,0,0,1,0,4.791Z" transform="translate(-393.526 -279.331)" fill="#006064"/>
      <path id="Trazado_11954" data-name="Trazado 11954" d="M563.139,359.231H556.7a2.4,2.4,0,1,1,0-4.791h6.442a2.4,2.4,0,0,1,0,4.791Z" transform="translate(-394.961 -276.377)" fill="#006064"/>
    </g>
  </g>
</svg>
