<svg xmlns="http://www.w3.org/2000/svg" width="100" height="100" viewBox="0 0 100 100">
  <g id="Grupo_4474" data-name="Grupo 4474" transform="translate(-336.071 -2396.269)">
    <circle id="Elipse_714" data-name="Elipse 714" cx="50" cy="50" r="50" transform="translate(336.071 2396.269)" fill="#ffe082"/>
    <g id="Grupo_3666" data-name="Grupo 3666" transform="translate(361.897 2409.756)">
      <path id="Trazado_16512" data-name="Trazado 16512" d="M280.186,43.172a14.046,14.046,0,0,1-7.242-1.893.966.966,0,0,1-.466-.762c-.375-5.528,3.015-11.326,8.639-14.773s12.327-3.835,17.083-.988a.964.964,0,0,1,.467.762c.376,5.528-3.015,11.326-8.638,14.773A19,19,0,0,1,280.186,43.172Zm-5.805-3.3c4.117,2.2,9.8,1.738,14.642-1.231s7.832-7.819,7.742-12.486c-4.118-2.2-9.8-1.737-14.641,1.231S274.292,35.208,274.381,39.875Z" transform="translate(-248.132 -15.105)" fill="#8d6e63"/>
      <path id="Trazado_16513" data-name="Trazado 16513" d="M269.676,43.169a19,19,0,0,1-9.841-2.89c-5.622-3.448-9.008-9.25-8.629-14.778a.961.961,0,0,1,.467-.761c4.755-2.84,11.461-2.45,17.083,1s9.008,9.25,8.629,14.778a.968.968,0,0,1-.467.762A14.065,14.065,0,0,1,269.676,43.169ZM253.107,26.145c-.093,4.667,2.9,9.522,7.735,12.492s10.522,3.436,14.64,1.239c.094-4.666-2.9-9.521-7.734-12.491S257.225,23.95,253.107,26.145Z" transform="translate(-251.165 -15.106)" fill="#8d6e63"/>
      <path id="Trazado_16514" data-name="Trazado 16514" d="M280.181,57.831a14.055,14.055,0,0,1-7.241-1.892.968.968,0,0,1-.467-.762c-.375-5.529,3.016-11.326,8.639-14.772s12.329-3.835,17.084-.988a.964.964,0,0,1,.467.761c.376,5.528-3.015,11.326-8.639,14.773A19,19,0,0,1,280.181,57.831Zm-5.805-3.3c4.119,2.2,9.8,1.734,14.642-1.231s7.832-7.82,7.743-12.486c-4.117-2.2-9.8-1.738-14.641,1.229S274.287,49.869,274.376,54.536Z" transform="translate(-248.133 -13.015)" fill="#8d6e63"/>
      <path id="Trazado_16515" data-name="Trazado 16515" d="M269.671,57.829a19,19,0,0,1-9.841-2.888c-5.622-3.449-9.008-9.252-8.629-14.778a.964.964,0,0,1,.467-.761c4.757-2.843,11.462-2.451,17.083,1s9.008,9.25,8.629,14.778a.961.961,0,0,1-.468.761A14.061,14.061,0,0,1,269.671,57.829ZM253.1,40.806c-.094,4.666,2.9,9.52,7.734,12.491s10.523,3.437,14.641,1.24c.093-4.667-2.9-9.521-7.735-12.491S257.221,38.609,253.1,40.806Z" transform="translate(-251.166 -13.016)" fill="#8d6e63"/>
      <path id="Trazado_16516" data-name="Trazado 16516" d="M280.176,72.493a14.064,14.064,0,0,1-7.241-1.893.968.968,0,0,1-.467-.762c-.375-5.529,3.016-11.326,8.639-14.773s12.327-3.835,17.084-.989a.966.966,0,0,1,.467.762c.376,5.528-3.015,11.328-8.638,14.772A19.01,19.01,0,0,1,280.176,72.493Zm-5.805-3.3c4.118,2.2,9.8,1.737,14.642-1.231s7.834-7.82,7.743-12.486c-4.119-2.2-9.8-1.737-14.641,1.229S274.283,64.529,274.371,69.2Z" transform="translate(-248.133 -10.924)" fill="#8d6e63"/>
      <path id="Trazado_16517" data-name="Trazado 16517" d="M269.667,72.489a19,19,0,0,1-9.842-2.888c-5.62-3.449-9.008-9.25-8.629-14.778a.963.963,0,0,1,.468-.761c4.754-2.84,11.461-2.45,17.083,1s9.008,9.25,8.629,14.778a.967.967,0,0,1-.467.761A14.057,14.057,0,0,1,269.667,72.489ZM253.1,55.466c-.093,4.666,2.9,9.521,7.735,12.491s10.522,3.437,14.64,1.24c.093-4.667-2.9-9.521-7.735-12.492S257.216,53.27,253.1,55.466Z" transform="translate(-251.167 -10.925)" fill="#8d6e63"/>
      <path id="Trazado_16518" data-name="Trazado 16518" d="M273.4,86.081a.963.963,0,0,1-.964-.964l.018-58.063a.964.964,0,1,1,1.929,0l-.018,58.063A.963.963,0,0,1,273.4,86.081Z" transform="translate(-248.134 -14.645)" fill="#8d6e63"/>
      <path id="Trazado_16519" data-name="Trazado 16519" d="M279.106,23.466a.964.964,0,0,1-.964-.964l0-5.462a.964.964,0,1,1,1.929,0l0,5.46A.964.964,0,0,1,279.106,23.466Z" transform="translate(-247.32 -16.073)" fill="#8d6e63"/>
      <path id="Trazado_16520" data-name="Trazado 16520" d="M287.113,21.732a.963.963,0,0,1-.963-.965V18.284a.964.964,0,1,1,1.929,0v2.483A.964.964,0,0,1,287.113,21.732Z" transform="translate(-246.179 -15.895)" fill="#8d6e63"/>
      <path id="Trazado_16521" data-name="Trazado 16521" d="M267.734,23.462a.964.964,0,0,1-.964-.964l0-5.462a.964.964,0,0,1,1.928,0V22.5A.964.964,0,0,1,267.734,23.462Z" transform="translate(-248.942 -16.073)" fill="#8d6e63"/>
      <path id="Trazado_16522" data-name="Trazado 16522" d="M259.727,21.723a.965.965,0,0,1-.964-.964V18.275a.964.964,0,1,1,1.929,0v2.482A.963.963,0,0,1,259.727,21.723Z" transform="translate(-250.084 -15.896)" fill="#8d6e63"/>
      <path id="Trazado_16523" data-name="Trazado 16523" d="M273.42,23.979a.964.964,0,0,1-.964-.964V18.9a.964.964,0,1,1,1.929,0v4.114A.964.964,0,0,1,273.42,23.979Z" transform="translate(-248.131 -15.807)" fill="#8d6e63"/>
      <path id="Trazado_16524" data-name="Trazado 16524" d="M287.075,78.84l-24.312-.008a.964.964,0,0,1,0-1.929l24.311.008a.964.964,0,1,1,0,1.929Z" transform="translate(-249.651 -7.399)" fill="#8d6e63"/>
    </g>
  </g>
</svg>
