<svg xmlns="http://www.w3.org/2000/svg" width="100" height="100" viewBox="0 0 100 100">
  <g id="Grupo_4476" data-name="Grupo 4476" transform="translate(-524.071 -2689.329)">
    <circle id="Elipse_713" data-name="Elipse 713" cx="50" cy="50" r="50" transform="translate(524.071 2689.329)" fill="#ffe082"/>
    <g id="Grupo_3665" data-name="Grupo 3665" transform="translate(537.751 2708.571)">
      <path id="Trazado_16506" data-name="Trazado 16506" d="M466.92,83.227a110.653,110.653,0,0,1-26.086-3.351,4.779,4.779,0,0,1-4.11,2.311,4.829,4.829,0,0,1-4.821-4.824,4.777,4.777,0,0,1,2.274-4.084c-4.2-13.832-5.353-29.366-3.415-46.183a.962.962,0,0,1,1.244-.81c5.128,1.6,18.12,2.669,32.33,2.674,14.034,0,26.6-1,32.012-2.554a.964.964,0,0,1,1.223.808c1.627,13.166,2.419,31.821-2.9,46.562a4.815,4.815,0,1,1-6.759,6.48A69.518,69.518,0,0,1,466.92,83.227Zm-26.6-5.443a.977.977,0,0,1,.242.031c8.243,2.14,29.376,6.46,47.558.344a.964.964,0,0,1,1.219.6,2.884,2.884,0,1,0,3.779-3.622.963.963,0,0,1-.547-1.239c5.356-14.1,4.758-32.235,3.221-45.354-6.034,1.439-18.116,2.349-31.453,2.345-13.677,0-25.87-.955-31.782-2.449-1.764,16.435-.516,31.583,3.707,45.047a.964.964,0,0,1-.572,1.188,2.887,2.887,0,1,0,3.731,3.726A.963.963,0,0,1,440.316,77.784Z" transform="translate(-428.35 -20.447)" fill="#8d6e63"/>
      <path id="Trazado_16507" data-name="Trazado 16507" d="M464.522,31.612a217.8,217.8,0,0,1-24.88-1.261c-9.76-1.189-11.1-2.612-11.1-3.97s1.347-2.781,11.107-3.964a247.353,247.353,0,0,1,49.762.016c9.76,1.188,11.1,2.611,11.1,3.97s-1.346,2.78-11.106,3.962A217.415,217.415,0,0,1,464.522,31.612ZM430.617,26.38c1.941,1.409,14.441,3.3,33.906,3.3s31.966-1.874,33.909-3.282c-1.941-1.409-14.441-3.3-33.906-3.3S432.559,24.973,430.617,26.38Z" transform="translate(-428.537 -21.17)" fill="#8d6e63"/>
      <path id="Trazado_16508" data-name="Trazado 16508" d="M439.186,39.4a.964.964,0,0,1-.963-.964l0-9.864a.964.964,0,0,1,1.928,0l0,9.864A.964.964,0,0,1,439.186,39.4Z" transform="translate(-427.156 -20.252)" fill="#8d6e63"/>
      <path id="Trazado_16509" data-name="Trazado 16509" d="M439.465,47.257c-1.834,0-3.215-2.369-3.214-5.51s1.384-5.508,3.217-5.508,3.215,2.37,3.214,5.511a.964.964,0,0,1-1.929,0c0-2.325-.912-3.581-1.287-3.581s-1.287,1.255-1.288,3.58.912,3.581,1.285,3.581a.964.964,0,0,1,0,1.929Z" transform="translate(-427.437 -19.021)" fill="#8d6e63"/>
      <path id="Trazado_16510" data-name="Trazado 16510" d="M458.072,64.537a20.881,20.881,0,0,1-7.079-1.362.964.964,0,0,1-.612-.7A17.349,17.349,0,0,1,453.37,49.6c4.032-5.715,11.451-9.293,22.047-10.633a.964.964,0,0,1,1.082,1.037c-.056.667-1.477,16.387-10.746,22.324A13.958,13.958,0,0,1,458.072,64.537Zm-5.888-2.989c4.877,1.643,9.089,1.363,12.528-.84,7.073-4.53,9.2-15.922,9.72-19.655-9.361,1.375-15.906,4.613-19.465,9.632A15.838,15.838,0,0,0,452.185,61.548Z" transform="translate(-425.456 -18.633)" fill="#8d6e63"/>
      <path id="Trazado_16511" data-name="Trazado 16511" d="M447.8,66.042a.964.964,0,0,1-.642-1.684l21.555-19.213A.964.964,0,1,1,470,46.584L448.444,65.8A.959.959,0,0,1,447.8,66.042Z" transform="translate(-425.928 -17.786)" fill="#8d6e63"/>
    </g>
  </g>
</svg>
