<svg xmlns="http://www.w3.org/2000/svg" width="100" height="100" viewBox="0 0 100 100">
  <g id="Grupo_4477" data-name="Grupo 4477" transform="translate(-806.071 -2767.388)">
    <circle id="Elipse_712" data-name="Elipse 712" cx="50" cy="50" r="50" transform="translate(806.071 2767.388)" fill="#ffe082"/>
    <g id="Grupo_3668" data-name="Grupo 3668" transform="translate(819.724 2791.039)">
      <path id="Trazado_16541" data-name="Trazado 16541" d="M636.075,56.213l-17.57-.006a.964.964,0,0,1-.963-.964l.006-20.523a.965.965,0,0,1,.966-.963l17.568,0a.966.966,0,0,1,.964.965l-.007,20.523A.963.963,0,0,1,636.075,56.213Zm-16.6-1.933,15.641,0,.006-18.594-15.641,0Z" transform="translate(-614.081 -23.851)" fill="#8d6e63"/>
      <path id="Trazado_16542" data-name="Trazado 16542" d="M636.747,57.855l-18.583-.006a1.786,1.786,0,0,1-1.784-1.785V53.5a1.787,1.787,0,0,1,1.786-1.784l18.582.006a1.785,1.785,0,0,1,1.784,1.785v2.562A1.787,1.787,0,0,1,636.747,57.855ZM618.309,55.92l18.294.006V53.653l-18.294-.006Z" transform="translate(-614.247 -21.29)" fill="#8d6e63"/>
      <path id="Trazado_16543" data-name="Trazado 16543" d="M636.383,36.926l-17.844-.006a2.155,2.155,0,0,1-2.153-2.154V33.028a2.156,2.156,0,0,1,1.832-2.129l8.721-5.657a.966.966,0,0,1,1.05,0l8.718,5.663a2.156,2.156,0,0,1,1.83,2.13v1.739A2.155,2.155,0,0,1,636.383,36.926ZM627.464,27.2l-8.4,5.447a.975.975,0,0,1-.526.155.225.225,0,0,0-.225.225v1.738a.224.224,0,0,0,.224.225L636.385,35a.225.225,0,0,0,.225-.224V33.035a.226.226,0,0,0-.226-.225.971.971,0,0,1-.524-.155Z" transform="translate(-614.246 -25.087)" fill="#8d6e63"/>
      <path id="Trazado_16544" data-name="Trazado 16544" d="M622.135,48.829a.966.966,0,0,1-.964-.965l0-13.142a.964.964,0,0,1,1.929,0l0,13.142A.965.965,0,0,1,622.135,48.829Z" transform="translate(-613.564 -23.851)" fill="#8d6e63"/>
      <path id="Trazado_16545" data-name="Trazado 16545" d="M630.257,48.831a.963.963,0,0,1-.963-.964l0-13.142a.964.964,0,1,1,1.929,0l0,13.142A.964.964,0,0,1,630.257,48.831Z" transform="translate(-612.405 -23.851)" fill="#8d6e63"/>
      <path id="Trazado_16546" data-name="Trazado 16546" d="M626.2,52.456a.966.966,0,0,1-.964-.965l.006-16.767a.964.964,0,0,1,1.929,0l-.006,16.769A.965.965,0,0,1,626.2,52.456Z" transform="translate(-612.985 -23.851)" fill="#8d6e63"/>
      <path id="Trazado_16547" data-name="Trazado 16547" d="M656.391,56.221l-17.57-.006a.965.965,0,0,1-.964-.964l.007-20.523a.965.965,0,0,1,.964-.964l17.57.006a.965.965,0,0,1,.964.964l-.007,20.523A.965.965,0,0,1,656.391,56.221Zm-16.605-1.934,15.641.006.007-18.594-15.641-.006Z" transform="translate(-611.184 -23.85)" fill="#8d6e63"/>
      <path id="Trazado_16548" data-name="Trazado 16548" d="M657.062,57.862l-18.583-.007A1.786,1.786,0,0,1,636.7,56.07V53.509a1.786,1.786,0,0,1,1.785-1.784l18.583.006a1.788,1.788,0,0,1,1.784,1.785v2.562A1.786,1.786,0,0,1,657.062,57.862Zm-18.438-1.934,18.3.006V53.659l-18.294-.006Z" transform="translate(-611.35 -21.289)" fill="#8d6e63"/>
      <path id="Trazado_16549" data-name="Trazado 16549" d="M656.7,36.211l-17.844-.006a2.156,2.156,0,0,1-2.154-2.155V32.313a2.156,2.156,0,0,1,2.154-2.154l17.844.006a2.156,2.156,0,0,1,2.154,2.155v1.739A2.156,2.156,0,0,1,656.7,36.211Zm-17.843-4.124a.227.227,0,0,0-.226.225v1.739a.226.226,0,0,0,.225.225l17.844.006a.226.226,0,0,0,.226-.225V32.318a.225.225,0,0,0-.225-.225Z" transform="translate(-611.349 -24.364)" fill="#8d6e63"/>
      <path id="Trazado_16550" data-name="Trazado 16550" d="M656.552,32.816l-17.844-.006a.964.964,0,0,1-.524-1.773l8.924-5.788a.964.964,0,0,1,1.05,0l8.92,5.793a.965.965,0,0,1-.526,1.773Zm-14.586-1.933,11.33,0-5.664-3.678Z" transform="translate(-611.201 -25.086)" fill="#8d6e63"/>
      <path id="Trazado_16551" data-name="Trazado 16551" d="M642.45,48.835a.963.963,0,0,1-.963-.964l0-13.142a.964.964,0,1,1,1.929,0l0,13.142A.966.966,0,0,1,642.45,48.835Z" transform="translate(-610.667 -23.85)" fill="#8d6e63"/>
      <path id="Trazado_16552" data-name="Trazado 16552" d="M650.573,48.838a.966.966,0,0,1-.964-.965l0-13.142a.964.964,0,0,1,1.929,0l0,13.142A.965.965,0,0,1,650.573,48.838Z" transform="translate(-609.509 -23.85)" fill="#8d6e63"/>
      <path id="Trazado_16553" data-name="Trazado 16553" d="M646.511,52.462a.964.964,0,0,1-.964-.964l0-16.769a.964.964,0,1,1,1.929,0l0,16.767A.965.965,0,0,1,646.511,52.462Z" transform="translate(-610.088 -23.85)" fill="#8d6e63"/>
      <path id="Trazado_16554" data-name="Trazado 16554" d="M677.378,60.429l-18.583-.006a1.786,1.786,0,0,1-1.784-1.786V56.077a1.786,1.786,0,0,1,1.328-1.724l.007-19.619a.965.965,0,0,1,.964-.964l17.57.006a.964.964,0,0,1,.963.965l-.006,19.618a1.788,1.788,0,0,1,1.327,1.725v2.562A1.786,1.786,0,0,1,677.378,60.429Zm-18.439-1.934,18.3.006V56.228h-.363a.964.964,0,0,1-.963-.965l.006-19.559-15.641,0-.006,19.559a.965.965,0,0,1-.965.964h-.362Z" transform="translate(-608.453 -23.849)" fill="#8d6e63"/>
      <path id="Trazado_16555" data-name="Trazado 16555" d="M677.014,36.217l-17.844-.006a2.155,2.155,0,0,1-2.153-2.154V32.319a2.155,2.155,0,0,1,2.155-2.153l17.844.006a2.156,2.156,0,0,1,2.154,2.154v1.739A2.155,2.155,0,0,1,677.014,36.217Zm-17.843-4.122a.226.226,0,0,0-.225.225v1.738a.226.226,0,0,0,.226.225l17.844.006a.225.225,0,0,0,.225-.224V32.325a.226.226,0,0,0-.225-.225Z" transform="translate(-608.452 -24.363)" fill="#8d6e63"/>
      <path id="Trazado_16556" data-name="Trazado 16556" d="M676.868,32.823l-17.845-.006a.964.964,0,0,1-.525-1.773l8.924-5.788a.966.966,0,0,1,1.05,0l8.921,5.794a.965.965,0,0,1-.526,1.773Zm-14.587-1.933,11.33,0-5.664-3.678Z" transform="translate(-608.304 -25.085)" fill="#8d6e63"/>
      <path id="Trazado_16557" data-name="Trazado 16557" d="M662.766,48.842a.966.966,0,0,1-.964-.965l0-13.142a.964.964,0,0,1,1.929,0l0,13.142A.965.965,0,0,1,662.766,48.842Z" transform="translate(-607.77 -23.849)" fill="#8d6e63"/>
      <path id="Trazado_16558" data-name="Trazado 16558" d="M670.888,48.844a.965.965,0,0,1-.964-.964l0-13.142a.964.964,0,0,1,1.929,0l0,13.142A.965.965,0,0,1,670.888,48.844Z" transform="translate(-606.612 -23.849)" fill="#8d6e63"/>
      <path id="Trazado_16559" data-name="Trazado 16559" d="M666.826,52.468a.965.965,0,0,1-.964-.964l.006-16.767a.964.964,0,1,1,1.929,0L667.791,51.5A.963.963,0,0,1,666.826,52.468Z" transform="translate(-607.191 -23.849)" fill="#8d6e63"/>
      <path id="Trazado_16560" data-name="Trazado 16560" d="M686.382,57.347l-70.9-.023a.964.964,0,0,1,0-1.929l70.9.023a.964.964,0,0,1,0,1.929Z" transform="translate(-614.512 -20.766)" fill="#8d6e63"/>
      <path id="Trazado_16561" data-name="Trazado 16561" d="M636.488,76.885l-21.011-.007a.964.964,0,1,1,0-1.929l19.7.007a28.089,28.089,0,0,0-18.038-17.662.965.965,0,0,1,.482-1.868,29.572,29.572,0,0,1,19.791,20.23.965.965,0,0,1-.928,1.229Z" transform="translate(-614.513 -20.766)" fill="#8d6e63"/>
      <path id="Trazado_16562" data-name="Trazado 16562" d="M644.034,76.888a.964.964,0,0,1-.927-.7A28.058,28.058,0,0,0,624.689,57.3a.964.964,0,1,1,.482-1.867,29.569,29.569,0,0,1,19.791,20.228.967.967,0,0,1-.928,1.231Z" transform="translate(-613.165 -20.765)" fill="#8d6e63"/>
      <path id="Trazado_16563" data-name="Trazado 16563" d="M651.817,76.89a.964.964,0,0,1-.927-.7A28.05,28.05,0,0,0,632.473,57.3a.965.965,0,0,1,.481-1.868,29.568,29.568,0,0,1,19.791,20.23.964.964,0,0,1-.661,1.192A.937.937,0,0,1,651.817,76.89Z" transform="translate(-612.055 -20.765)" fill="#8d6e63"/>
      <path id="Trazado_16564" data-name="Trazado 16564" d="M659.6,76.893a.965.965,0,0,1-.927-.7A28.056,28.056,0,0,0,640.256,57.3a.964.964,0,1,1,.482-1.867,29.569,29.569,0,0,1,19.791,20.228.964.964,0,0,1-.662,1.193A.979.979,0,0,1,659.6,76.893Z" transform="translate(-610.945 -20.765)" fill="#8d6e63"/>
      <path id="Trazado_16565" data-name="Trazado 16565" d="M667.385,76.895a.963.963,0,0,1-.927-.7A28.052,28.052,0,0,0,648.04,57.3a.965.965,0,0,1,.482-1.868,29.572,29.572,0,0,1,19.791,20.23.967.967,0,0,1-.928,1.229Z" transform="translate(-609.835 -20.764)" fill="#8d6e63"/>
      <path id="Trazado_16566" data-name="Trazado 16566" d="M680.7,60.66l-25.384-.008a.964.964,0,1,1,0-1.929l25.384.008a.964.964,0,0,1,0,1.929Z" transform="translate(-608.832 -20.291)" fill="#8d6e63"/>
      <path id="Trazado_16567" data-name="Trazado 16567" d="M680.12,64.11,659.384,64.1a.964.964,0,0,1,0-1.929l20.737.007a.964.964,0,0,1,0,1.929Z" transform="translate(-608.252 -19.799)" fill="#8d6e63"/>
      <path id="Trazado_16568" data-name="Trazado 16568" d="M679.736,67.558l-17.666,0a.964.964,0,0,1,0-1.929l17.667.006a.964.964,0,0,1,0,1.928Z" transform="translate(-607.869 -19.307)" fill="#8d6e63"/>
      <path id="Trazado_16569" data-name="Trazado 16569" d="M679.467,71.008l-15.522,0a.964.964,0,1,1,0-1.929l15.522,0a.964.964,0,1,1,0,1.929Z" transform="translate(-607.602 -18.815)" fill="#8d6e63"/>
      <path id="Trazado_16570" data-name="Trazado 16570" d="M634.579,70.995l-19.1-.007a.964.964,0,1,1,0-1.929l19.1.007a.964.964,0,0,1,0,1.929Z" transform="translate(-614.513 -18.817)" fill="#8d6e63"/>
      <path id="Trazado_16571" data-name="Trazado 16571" d="M632.638,67.543l-17.158,0a.964.964,0,1,1,0-1.929l17.158.006a.964.964,0,1,1,0,1.928Z" transform="translate(-614.513 -19.309)" fill="#8d6e63"/>
      <path id="Trazado_16572" data-name="Trazado 16572" d="M629.272,64.093l-13.792,0a.964.964,0,0,1,0-1.929l13.791,0a.964.964,0,0,1,0,1.929Z" transform="translate(-614.512 -19.801)" fill="#8d6e63"/>
      <path id="Trazado_16573" data-name="Trazado 16573" d="M625.146,60.642l-9.665,0a.964.964,0,0,1,0-1.929l9.665,0a.964.964,0,0,1,0,1.929Z" transform="translate(-614.512 -20.293)" fill="#8d6e63"/>
      <path id="Trazado_16574" data-name="Trazado 16574" d="M679.284,74.458l-14.064,0a.964.964,0,1,1,0-1.929l14.064,0a.964.964,0,1,1,0,1.929Z" transform="translate(-607.42 -18.323)" fill="#8d6e63"/>
      <path id="Trazado_16575" data-name="Trazado 16575" d="M672.562,53.665l-13.425,0a.964.964,0,0,1,0-1.929l13.425,0a.964.964,0,0,1,0,1.929Z" transform="translate(-608.288 -21.288)" fill="#8d6e63"/>
      <path id="Trazado_16576" data-name="Trazado 16576" d="M628.869,32.085l-10.476,0a.964.964,0,1,1,0-1.929l10.475,0a.964.964,0,1,1,0,1.929Z" transform="translate(-614.097 -24.365)" fill="#8d6e63"/>
    </g>
  </g>
</svg>
