<svg xmlns="http://www.w3.org/2000/svg" width="100" height="99.951" viewBox="0 0 100 99.951">
  <g id="Grupo_4483" data-name="Grupo 4483" transform="translate(-110.911 -1847.893)">
    <g id="Grupo_3186" data-name="Grupo 3186" transform="translate(110.911 1847.893)">
      <ellipse id="Elipse_662" data-name="Elipse 662" cx="49.919" cy="49.944" rx="49.919" ry="49.944" transform="translate(0 99.838) rotate(-89.935)" fill="#ffe082"/>
      <g id="Grupo_3183" data-name="Grupo 3183" transform="translate(8.39 9.041)">
        <path id="Trazado_12163" data-name="Trazado 12163" d="M58.066,32.981c-.68-1.307-4.244-7.841-7.657-8.048a14.947,14.947,0,0,1-7.088-3.108,6.406,6.406,0,0,0-3.739-1.355h-7.51a6.407,6.407,0,0,0-3.74,1.355,14.943,14.943,0,0,1-7.088,3.108c-3.413.207-6.977,6.741-7.653,8.041-.254.48-6.172,12.1-1.735,42.283a2.409,2.409,0,0,0,2.37,2.046h3.147a2.4,2.4,0,0,0,2.369-2.055c.309-2.246.85-7.982,1.385-14.015.7,8.772,2.141,16.656,5,17.622a27.256,27.256,0,0,0,8.629,1.383q1.067-.007,2.136,0h.167a27.135,27.135,0,0,0,8.462-1.384c2.861-.966,4.3-8.851,5-17.621C51.061,67.266,51.6,73,51.912,75.248A2.4,2.4,0,0,0,54.281,77.3h3.146a2.407,2.407,0,0,0,2.37-2.046C64.234,45.079,58.317,33.454,58.066,32.981Zm-22.278-.467.068,0,.068,0c3.736-.239,6.134-5.283,7.21-8.183.434.288.9.571,1.4.841-1.492,3.2-5.021,9.187-8.624,9.344-3.689-.157-7.273-6.145-8.791-9.347.506-.272.975-.557,1.412-.847C29.62,27.223,32.041,32.274,35.788,32.514ZM39.582,22.6a4.424,4.424,0,0,1,1.741.466c-1.455,4.235-3.6,7.122-5.467,7.307-1.877-.185-4.038-3.075-5.512-7.313a4.426,4.426,0,0,1,1.728-.46ZM13.146,68.462h5.175q-.085.9-.167,1.719H13.338C13.269,69.6,13.206,69.028,13.146,68.462Zm4.227,6.707H14.226a.266.266,0,0,1-.259-.222q-.2-1.341-.366-2.631h4.335c-.118,1.112-.223,2.02-.309,2.64A.25.25,0,0,1,17.373,75.169Zm31.5-22.683-3.132,3.04-3.206-3.111a1.247,1.247,0,0,0-1.75,0l-3.163,3.07-3.009-2.921a1.25,1.25,0,0,0-1.747,0l-2.981,2.894L26.773,52.44a1.251,1.251,0,0,0-1.749,0l-2.161,2.1q-.084-1.893-.141-3.941l3.011-2.875,3.18,3.035a1.256,1.256,0,0,0,1.742,0L33.7,47.846l3.077,2.937a1.261,1.261,0,0,0,1.74,0l3.234-3.087,3.279,3.131a1.26,1.26,0,0,0,1.74,0l2.2-2.1Q48.937,50.669,48.872,52.486ZM44.841,76.832A24.543,24.543,0,0,1,36.91,78.1q-.542,0-1.083,0c-.361,0-.723,0-1.084,0a24.627,24.627,0,0,1-7.931-1.271c-1.521-.514-3.092-7.248-3.8-19.463l2.89-2.806,3.113,3.022a1.25,1.25,0,0,0,1.747,0L33.74,54.69l3.009,2.921a1.25,1.25,0,0,0,1.747,0l3.163-3.07,3.208,3.115a1.251,1.251,0,0,0,1.748,0l2.126-2.065C48.084,68.93,46.435,76.294,44.841,76.832Zm6.054-33.8h0a1.127,1.127,0,0,0-1.545.057l0,0a1.138,1.138,0,0,0-.323.77c-.05,2.329-.1,1.938-.9,2.724l-2.22,2.12-3.278-3.13a1.262,1.262,0,0,0-1.742,0l-3.233,3.087-3.075-2.935a1.263,1.263,0,0,0-1.744,0l-3.047,2.91L26.6,45.6a1.263,1.263,0,0,0-1.744,0l-2.2,2.1c-.015-.907-.027-2.9-.035-3.844a1.134,1.134,0,0,0-.319-.781h0a1.124,1.124,0,0,0-1.552-.053h0a1.119,1.119,0,0,0-.372.744c-.283,3.44-1.134,14.762-1.857,22.555h-5.59c-2.13-23,2.494-32.256,2.549-32.361,1.417-2.725,4.269-6.8,5.892-6.9a12.772,12.772,0,0,0,3.818-.993c1.319,2.76,5.423,10.355,10.722,10.578,5.221-.223,9.254-7.807,10.555-10.575a12.756,12.756,0,0,0,3.812.99c1.62.1,4.474,4.177,5.9,6.906.053.1,4.677,9.353,2.547,32.357h-5.59c-.724-7.793-1.575-19.021-1.857-22.545A1.119,1.119,0,0,0,50.9,43.031Zm2.437,25.431h5.176c-.061.566-.123,1.137-.192,1.719H53.5Q53.419,69.361,53.332,68.462Zm4.095,6.707H54.281a.251.251,0,0,1-.255-.213c-.086-.62-.19-1.528-.308-2.64h4.334q-.169,1.292-.366,2.631A.266.266,0,0,1,57.427,75.169Z" transform="translate(-10.211 -20.47)" fill="#8d6e63"/>
        <path id="Trazado_12164" data-name="Trazado 12164" d="M23.087,45.618,23.309,65.3H48.344l.591-22.187Z" transform="translate(-10.211 -20.47)" fill="#ffe082"/>
      </g>
      <g id="Grupo_3185" data-name="Grupo 3185" transform="translate(49.825 54.59)">
        <path id="Trazado_12165" data-name="Trazado 12165" d="M55.653,54.239l2,1,1,2-3,1,.707,7.632,5.293,12.368,6.234,3.687,7.766-.687,2,2-7,6h-8l-1.707,3.246-6.293.754-1-6-3-8-6-15-4-2-1-3Z" transform="translate(-39.309 -53.687)" fill="#ffe082"/>
        <g id="Grupo_3184" data-name="Grupo 3184">
          <path id="Trazado_12166" data-name="Trazado 12166" d="M76.88,80.516a.794.794,0,0,0-.795-.23h0c-.017,0-.032.007-.048.012-.676.169-8.424,1.988-13.231-2.157C58.284,74.247,57.088,61.729,56.878,59l.5-.155A2.3,2.3,0,0,0,58.9,55.974l-.2-.663a2.3,2.3,0,0,0-2.874-1.522L40.933,58.37a2.3,2.3,0,0,0-1.522,2.873l.2.664a2.3,2.3,0,0,0,2.874,1.521l.536-.165c.84,2.644,4.046,12.4,6.819,16.348a17.412,17.412,0,0,1,2.045,3.662,15.91,15.91,0,0,1,1.256,5.249l-.091.028a.824.824,0,0,0-.543,1.03l1.3,4.235a.824.824,0,0,0,1.028.547l6.1-1.877a2.772,2.772,0,0,0,1.733-1.514,2,2,0,0,1,1.219-1.2,11.49,11.49,0,0,1,4.071.064,4.936,4.936,0,0,0,2.155-.163q.075-.022.15-.048a16.646,16.646,0,0,0,8.061-5.851C78.58,83.382,78.717,82.434,76.88,80.516ZM61.9,79.184c3.9,3.358,9.3,3.248,12.306,2.849C72.4,83.584,69.6,85.381,68.34,85.54a17.993,17.993,0,0,1-2.179.061c-.731-.006-1.478-.008-2.17.042C58.846,78.557,50.6,75.594,48.91,75.045c-.912-1.98-1.8-4.255-2.566-6.336a31.234,31.234,0,0,0,5.592-1.251c1.285-.4,2.769-.919,4.424-1.587C57.219,70.685,58.854,76.554,61.9,79.184ZM40.93,61.5l-.2-.663a.925.925,0,0,1,.611-1.155L56.23,55.1a.923.923,0,0,1,1.154.611l.2.663a.925.925,0,0,1-.611,1.155l-.185.057L42.617,61.95l-.533.164A.925.925,0,0,1,40.93,61.5Zm14.6-2.085c.083,1.035.26,2.882.6,5.065a37.435,37.435,0,0,1-10.265,2.891c-.7-1.971-1.243-3.64-1.523-4.515ZM53.169,82.77a18.7,18.7,0,0,0-2.2-3.95,18.321,18.321,0,0,1-1.184-1.991c2.765,1.089,8.61,3.859,12.639,9.016a20.768,20.768,0,0,0-2.54.6L54.506,88.1A17.9,17.9,0,0,0,53.169,82.77Zm23.916.392a15.281,15.281,0,0,1-7.258,5.165,3.493,3.493,0,0,1-1.667.15,12.876,12.876,0,0,0-4.666-.016,3.349,3.349,0,0,0-2.073,1.954,1.394,1.394,0,0,1-.88.755l-5.575,1.715L53.987,89.7l6.3-1.938a18.923,18.923,0,0,1,3.451-.722,21.452,21.452,0,0,1,2.409-.066,18.64,18.64,0,0,0,2.364-.072c2.014-.256,6.134-3.167,7.791-4.978A3.427,3.427,0,0,1,77.085,83.162Z" transform="translate(-39.309 -53.687)" fill="#8d6e63"/>
        </g>
      </g>
    </g>
  </g>
</svg>
