<svg xmlns="http://www.w3.org/2000/svg" width="100" height="99.951" viewBox="0 0 100 99.951">
  <g id="Grupo_4485" data-name="Grupo 4485" transform="translate(-111.256 -2140.18)">
    <g id="Grupo_3193" data-name="Grupo 3193" transform="translate(111.256 2140.18)">
      <ellipse id="Elipse_664" data-name="Elipse 664" cx="49.919" cy="49.944" rx="49.919" ry="49.944" transform="translate(0 99.838) rotate(-89.935)" fill="#ffe082"/>
      <g id="Grupo_3192" data-name="Grupo 3192" transform="translate(17.486 15.753)">
        <path id="Trazado_12183" data-name="Trazado 12183" d="M29.711,85.4a1.083,1.083,0,0,1-.772-.319l-8.229-8.229a1.091,1.091,0,0,1,0-1.542l8-8,.5-2.48a4.013,4.013,0,0,1,3.922-3.218h1.73a1.092,1.092,0,0,1,.771.319l8.229,8.232a1.091,1.091,0,0,1,0,1.543L30.482,85.083A1.083,1.083,0,0,1,29.711,85.4Zm-6.687-9.32,6.687,6.686L41.542,70.94,34.4,63.8H33.124a1.824,1.824,0,0,0-1.783,1.465l-.561,2.805a1.094,1.094,0,0,1-.3.558Z" transform="translate(-17.482 -20.447)" fill="#8d6e63"/>
        <path id="Trazado_12184" data-name="Trazado 12184" d="M25.954,86.662a3.975,3.975,0,0,1-2.828-1.172l-4.115-4.115a4,4,0,0,1,0-5.658l2.057-2.057a1.091,1.091,0,0,1,1.543,0l8.229,8.228a1.092,1.092,0,0,1,0,1.543l-2.058,2.058A3.975,3.975,0,0,1,25.954,86.662ZM21.839,75.976l-1.286,1.286a1.821,1.821,0,0,0,0,2.571l4.115,4.116a1.866,1.866,0,0,0,2.572,0l1.286-1.287Z" transform="translate(-17.841 -18.797)" fill="#8d6e63"/>
        <path id="Trazado_12185" data-name="Trazado 12185" d="M28.7,75.651a1.092,1.092,0,0,1-.772-1.863l1.029-1.029A1.091,1.091,0,0,1,30.5,74.3l-1.029,1.028A1.089,1.089,0,0,1,28.7,75.651Z" transform="translate(-16.467 -18.923)" fill="#8d6e63"/>
        <path id="Trazado_12186" data-name="Trazado 12186" d="M32.3,72.044a1.091,1.091,0,0,1-.771-1.863l1.028-1.029A1.091,1.091,0,0,1,34.1,70.7l-1.029,1.029A1.09,1.09,0,0,1,32.3,72.044Z" transform="translate(-15.959 -19.431)" fill="#8d6e63"/>
        <path id="Trazado_12187" data-name="Trazado 12187" d="M41.434,77.11a1.092,1.092,0,0,1-.771-.319l-8.23-8.232a1.094,1.094,0,0,1-.034-1.508L47.4,50.6l6.84-11.4c2.6-4.339,4.814-7.524,7.783-10a16.038,16.038,0,0,1,10.247-3.68,16.852,16.852,0,0,1,12.374,5.445,1.091,1.091,0,0,1-.014,1.493l-42.41,44.31a1.086,1.086,0,0,1-.776.337Zm-6.721-9.356,6.7,6.705L82.324,31.72a14.669,14.669,0,0,0-10.051-4.012,13.671,13.671,0,0,0-8.852,3.175c-2.732,2.272-4.821,5.3-7.305,9.441l-6.9,11.493a1.069,1.069,0,0,1-.129.176Z" transform="translate(-15.832 -25.526)" fill="#8d6e63"/>
        <path id="Trazado_12188" data-name="Trazado 12188" d="M36.785,68.752a1.08,1.08,0,0,1-.739-.29,1.091,1.091,0,0,1-.063-1.541l9.869-10.69a1.091,1.091,0,0,1,1.6,1.481L37.588,68.4A1.094,1.094,0,0,1,36.785,68.752Z" transform="translate(-15.328 -21.254)" fill="#8d6e63"/>
      </g>
    </g>
  </g>
</svg>
