<svg xmlns="http://www.w3.org/2000/svg" width="100" height="99.951" viewBox="0 0 100 99.951">
  <g id="Grupo_4487" data-name="Grupo 4487" transform="translate(-111.171 -2432.18)">
    <g id="Grupo_3202" data-name="Grupo 3202" transform="translate(111.171 2432.18)">
      <ellipse id="Elipse_666" data-name="Elipse 666" cx="49.919" cy="49.944" rx="49.919" ry="49.944" transform="translate(0 99.838) rotate(-89.935)" fill="#ffe082"/>
      <path id="Trazado_12192" data-name="Trazado 12192" d="M36.453,90a1.651,1.651,0,0,1-1.562-1.1c-1.291-3.852-.454-7.621.355-11.266.326-1.466.663-2.982.843-4.455.14-1.153.172-2.353.2-3.512a26.3,26.3,0,0,1,.55-5.544c.224-.924.519-1.953.878-3.061-.079-.284-.168-.56-.264-.827a1.326,1.326,0,0,1-.722-.6,1.617,1.617,0,0,0-.46-.528c-.991-.412-2.343.218-3.54.773l-.37.171a15.426,15.426,0,0,1-4.992,1.207,27.083,27.083,0,0,0-10.148,2.917,1.155,1.155,0,0,1-1.4-.234,1.408,1.408,0,0,1-.221-1.558,20.107,20.107,0,0,1,4.566-6.637,10.341,10.341,0,0,1,3.154-1.912,19.239,19.239,0,0,1,1.929-.573,12.866,12.866,0,0,0,2.407-.8c2.962-1.432,5.4-1.5,7.681-.2a7.114,7.114,0,0,1,1.758,1.42,26.982,26.982,0,0,0-2-2.605,15.145,15.145,0,0,0-6.053-4.043,5.848,5.848,0,0,0-1.691-.532,6.136,6.136,0,0,0-.78-.007,8.321,8.321,0,0,1-.924-.007c-.347-.027-.683-.072-1.018-.117a6.849,6.849,0,0,0-2.059-.071,14.331,14.331,0,0,0-5.382,2.631,1.134,1.134,0,0,1-1.506-.2,1.339,1.339,0,0,1-.13-1.647C17.543,44.238,19.8,41,23.285,39.538c3.024-1.275,6.32-.827,9.524,1.292a19.656,19.656,0,0,1,1.642,1.255c.2.164.4.327.6.489a4.093,4.093,0,0,0,1.567.688c.24.068.486.138.741.225a4.988,4.988,0,0,1,1.825,1.107l-.041-.147a15.99,15.99,0,0,0-.618-1.931,16.078,16.078,0,0,0-4.644-6.022,13.036,13.036,0,0,0-7.795-3.411c-1.1-.067-2.238-.067-3.344-.064l-1.112,0c-.414,0-.848.016-1.287.035a13.387,13.387,0,0,1-3.22-.122,2.043,2.043,0,0,1-1.767-2.41,5.315,5.315,0,0,1,1.788-2.593c.148-.144.289-.278.406-.4a11.848,11.848,0,0,1,6.912-3.681,19.263,19.263,0,0,1,15.888,4.3,12.314,12.314,0,0,1,3.92,7.654,19.044,19.044,0,0,1-.1,5.332q-.027,1.119-.1,2.258c.185-.485.378-.959.576-1.427.711-6.993,3.837-14.71,10.512-15.562a9.192,9.192,0,0,1,1.276-.056,7.368,7.368,0,0,0,1.144-.052,5.26,5.26,0,0,0,1.368-.487,9.632,9.632,0,0,1,1.129-.461,6.717,6.717,0,0,1,4.539.307c2.71,1.083,5.306,3.364,7.936,6.971h0a1.367,1.367,0,0,1,.067,1.459,1.172,1.172,0,0,1-1.218.6l-2.58-.443c-1.825-.313-3.65-.627-5.479-.922A12.2,12.2,0,0,0,56.362,34.5a6.359,6.359,0,0,0-2.919,2.244c-.31.432-.608.875-.906,1.316-.459.682-.934,1.388-1.459,2.062a34.079,34.079,0,0,1-2.591,2.966l-.191.2a4.57,4.57,0,0,1-1.826,1.334,1.207,1.207,0,0,1-.243.121c-.333.887-.645,1.807-.942,2.781l0,.372c0,.326-.014.673-.036,1.032a32.219,32.219,0,0,1,5.032-7.762,15.583,15.583,0,0,1,9.888-4.53,10.213,10.213,0,0,1,9.4,4.35c1.83,2.713,3.338,6.984,2.58,10.412a1.2,1.2,0,0,1-.992.955,1.284,1.284,0,0,1-1.323-.659,12.713,12.713,0,0,0-2-2.9,6.412,6.412,0,0,0-3.44-1.547,9.407,9.407,0,0,0-3.549-.261c-.536.1-1.065.25-1.627.411a17.58,17.58,0,0,1-1.826.455c-.674.119-1.33.189-1.964.257a10.167,10.167,0,0,0-4.305,1.117A21.862,21.862,0,0,0,46.5,53.367l-.357.387a1.263,1.263,0,0,1-.383.285,43.341,43.341,0,0,0-2.129,5.012q-.2.546-.379,1.1A12.728,12.728,0,0,1,55.53,54.333a7.615,7.615,0,0,1,4.2,1.831A3.515,3.515,0,0,0,61.5,57.2a2.912,2.912,0,0,1,2.052,1.023c2.3,2.746,2,6.984,1.759,8.678a1.231,1.231,0,0,1-.637.933,1.123,1.123,0,0,1-1.091-.039,21.407,21.407,0,0,1-4.641-3.7A5.209,5.209,0,0,0,53.76,62.26a17.434,17.434,0,0,0-3.62,1.3c-.525.232-1.051.464-1.581.674A18.867,18.867,0,0,1,45,65.152c-.421.079-.843.159-1.267.25a17.766,17.766,0,0,0-1.1,1.858c-.116.226-.221.454-.323.682-.044.546-.1,1.1-.17,1.655a108.726,108.726,0,0,1-4.275,19.37A1.449,1.449,0,0,1,36.464,90Zm3.031-28.888,0,.011-.084.256c-.382,1.16-.692,2.229-.922,3.178a24.486,24.486,0,0,0-.5,5.161c-.033,1.2-.067,2.446-.218,3.687-.192,1.561-.538,3.121-.873,4.63-.767,3.45-1.491,6.714-.5,9.983A107,107,0,0,0,40.47,69.358c.078-.582.129-1.153.173-1.719l.128-1.964c.046-.826.095-1.715.181-2.632l-.159.363.233-1.085c.055-.472.121-.949.2-1.428l.032-.127c.1-.306.2-.611.3-.916l1.027-4.771c.227-1.053.475-2.309.668-3.559l-.544.926c-.027.249-.056.5-.088.754l-.074.267c-.564,1.24-1.1,2.479-1.581,3.68L40.462,58.4v.022l-.076.2q-.3.78-.577,1.569Zm15.5-2.393a7.08,7.08,0,0,1,5.156,2.364,20.033,20.033,0,0,0,3.6,2.861c.148-1.642.107-4.387-1.449-6.159-.238-.273-.433-.334-1.027-.421a5.08,5.08,0,0,1-2.6-1.354,6.092,6.092,0,0,0-3.333-1.376,11.039,11.039,0,0,0-11.843,7.223c.407-.082.812-.155,1.216-.227a17.953,17.953,0,0,0,3.258-.8c.511-.193,1.018-.407,1.524-.621a19.413,19.413,0,0,1,3.963-1.344A8.253,8.253,0,0,1,54.98,58.723ZM31.926,51.8a8.547,8.547,0,0,0-3.56.918,14.742,14.742,0,0,1-2.709.866c-.615.153-1.2.3-1.77.5a8.747,8.747,0,0,0-2.64,1.534,15.357,15.357,0,0,0-3.535,4.661,30.081,30.081,0,0,1,9.5-2.375,14.112,14.112,0,0,0,4.476-1.022l.359-.159c1.466-.649,3.29-1.457,4.966-.715l.111.059c.059.039.119.078.175.119a5.685,5.685,0,0,0-2.771-3.71A5.333,5.333,0,0,0,31.926,51.8Zm-4.941-8.014c.167,0,.337.006.511.021a7.584,7.584,0,0,1,2.179.626,17.077,17.077,0,0,1,6.678,4.3,19.546,19.546,0,0,1,3.256,4.6c.6-2.972.416-5.249-.561-7.118a3.951,3.951,0,0,0-2.2-2.009c-.23-.074-.451-.135-.665-.193a5.741,5.741,0,0,1-2.147-.941c-.211-.161-.419-.323-.625-.486a18.292,18.292,0,0,0-1.5-1.1,8.71,8.71,0,0,0-7.991-1.1,14.141,14.141,0,0,0-5.558,4.715A11.965,11.965,0,0,1,22.3,43.629a8.515,8.515,0,0,1,2.54.06c.3.039.613.078.931.1a6.781,6.781,0,0,0,.746,0C26.672,43.791,26.827,43.785,26.986,43.785Zm34.069-6.076c-.251,0-.505.009-.761.027a14.116,14.116,0,0,0-8.787,3.809,31.549,31.549,0,0,0-5.518,8.592,19.771,19.771,0,0,1,4.3-3.528,12.01,12.01,0,0,1,4.964-1.276c.607-.062,1.235-.125,1.856-.23a16.5,16.5,0,0,0,1.657-.4,18.4,18.4,0,0,1,1.79-.428,11.09,11.09,0,0,1,4.163.258A8.2,8.2,0,0,1,69,46.449a11.259,11.259,0,0,1,1.66,2.081,13.3,13.3,0,0,0-2.469-7.347A8.588,8.588,0,0,0,61.055,37.709Zm-44.79,8.684h0Zm6.856-15.486c1.007,0,2.042.006,3.067.065A14.935,14.935,0,0,1,34.942,34.6a17.154,17.154,0,0,1,5.136,6.393,16.616,16.616,0,0,1,.694,2.054,7.688,7.688,0,0,0,1.337,3.01c-.007-.164-.013-.326-.022-.488l0-.075.009-.074c.218-1.738.349-3.477.391-5.165l.009-.106a15.791,15.791,0,0,0,.11-4.655,9.933,9.933,0,0,0-3.347-6.268A18.224,18.224,0,0,0,24.71,25.5a10.383,10.383,0,0,0-5.959,3.039c-.132.132-.289.277-.456.432-.473.438-1.191,1.1-1.272,1.54-.013.068-.046.246.432.341a12.779,12.779,0,0,0,2.826.087q.7-.027,1.364-.035l1.1,0Zm33.241-3a8.314,8.314,0,0,0-1,.041c-5.732.7-8.433,7.431-9.049,13.5l-.014.136-.057.125c-.046.1-.09.2-.135.3a3.924,3.924,0,0,0,1-.81l.2-.2a31.139,31.139,0,0,0,2.458-2.688c.487-.6.924-1.218,1.387-1.875.307-.437.615-.873.935-1.3a8,8,0,0,1,3.641-2.7A14.447,14.447,0,0,1,63.6,31.214c1.833.282,3.664.583,5.495.883l1.388.228a16.2,16.2,0,0,0-6.468-5.188,5.425,5.425,0,0,0-3.447-.256,8.519,8.519,0,0,0-.94.371,6.8,6.8,0,0,1-1.81.591,10.067,10.067,0,0,1-1.381.067Z" transform="translate(-0.516 -10.046)" fill="#8d6e63"/>
      <g id="Grupo_3199" data-name="Grupo 3199" transform="translate(28.611 79.329)">
        <path id="Trazado_12193" data-name="Trazado 12193" d="M46.976,83.718a.3.3,0,0,1-.09-.152.3.3,0,0,1,.132-.333l.168.2v-.01l-.137-.211a4.072,4.072,0,0,0,1.19-1.572l.068-.122a.341.341,0,0,1,.277-.173l1.848.009a.306.306,0,0,1,.21.528.527.527,0,0,0-.163.354.829.829,0,0,0,.169.624.35.35,0,0,0,.209.1c.13.018.319-.161.37-.421a.3.3,0,0,1,.228-.24,5.88,5.88,0,0,0,1.728-.885.316.316,0,0,1,.171-.051l2.748.013a.326.326,0,0,1,.128.029,3.537,3.537,0,0,1,.689.421,1.772,1.772,0,0,1,.42.454.306.306,0,0,1-.171.454,27,27,0,0,1-7.492,1.143c-.762.01-1.584-.017-2.515-.084A.3.3,0,0,1,46.976,83.718Zm1.789-1.758a6.862,6.862,0,0,1-.818,1.273c.617.031,1.185.043,1.721.035.171,0,.341-.006.512-.011a1.391,1.391,0,0,1-.313-1.055,1.2,1.2,0,0,1,.04-.237Zm3.013.89a1.236,1.236,0,0,1-.169.325,26.122,26.122,0,0,0,4.906-.884,2.867,2.867,0,0,0-.484-.3l-2.586-.011A6.727,6.727,0,0,1,51.778,82.849Z" transform="translate(-24.686 -81.246)" fill="#8d6e63"/>
        <path id="Trazado_12194" data-name="Trazado 12194" d="M50.822,87.707a.391.391,0,0,1-.041-.046c-.261-.356-.607-.822-.966-1.267a7.445,7.445,0,0,0-2.37-1.948.306.306,0,0,1,.159-.576,27.393,27.393,0,0,0,9.433-1.094.3.3,0,0,1,.3.074.307.307,0,0,1,.08.3A4.041,4.041,0,0,1,55.853,85c-.551.4-1.1.773-1.628,1.112a.307.307,0,0,1-.368-.03c-.688-.609-1-.637-1.1-.619-.044.007-.1.029-.165.138a1.167,1.167,0,0,0,.1,1.072.307.307,0,0,1-.127.414c-.473.252-.95.48-1.416.676A.3.3,0,0,1,50.822,87.707Zm-1.4-2.619a8.321,8.321,0,0,1,.866.922c.3.376.6.765.838,1.093.294-.13.592-.271.891-.424a1.707,1.707,0,0,1,.026-1.359.853.853,0,0,1,.611-.463,1.914,1.914,0,0,1,1.427.614c.46-.3.932-.624,1.408-.968a5.013,5.013,0,0,0,1.014-.937,27.857,27.857,0,0,1-7.782.955A7.807,7.807,0,0,1,49.426,85.088Z" transform="translate(-24.629 -81.046)" fill="#8d6e63"/>
        <path id="Trazado_12195" data-name="Trazado 12195" d="M48.3,88.476a.3.3,0,0,1-.068-.091c-.292-.592-.592-1.143-.894-1.638a.3.3,0,0,1-.044-.154.9.9,0,0,0-.342-.664.272.272,0,0,1-.059-.066.99.99,0,0,0-.334-.314.293.293,0,0,1-.089-.079,10.653,10.653,0,0,0-1.1-1.235.306.306,0,0,1,.3-.514,8.193,8.193,0,0,1,4.249,2.544c.276.334.559.7.918,1.182a.307.307,0,0,1-.143.471,11.5,11.5,0,0,1-1.215.365c-.261.062-.538.144-.872.257A.3.3,0,0,1,48.3,88.476Zm-.4-1.981c.257.425.512.889.761,1.381.244-.079.463-.14.673-.19q.364-.086.755-.211c-.24-.315-.446-.576-.647-.82a6.6,6.6,0,0,0-2.8-1.945c.092.112.184.226.275.342a1.58,1.58,0,0,1,.459.437A1.539,1.539,0,0,1,47.9,86.495Z" transform="translate(-24.912 -80.913)" fill="#8d6e63"/>
        <path id="Trazado_12196" data-name="Trazado 12196" d="M36.127,81.825a.31.31,0,0,1-.095-.287.305.305,0,0,1,.3-.245l1.51.006a.307.307,0,0,1,.083.6c-.31.088-.641.164-.984.227a.3.3,0,0,1-.168-.017q-.281-.111-.56-.228A.3.3,0,0,1,36.127,81.825Z" transform="translate(-26.213 -81.253)" fill="#8d6e63"/>
        <path id="Trazado_12197" data-name="Trazado 12197" d="M44.552,89.235a.3.3,0,0,1-.056-.07q-.31-.518-.631-1.031-.289-.46-.591-.909c-.445-.659-.867-1.232-1.292-1.751-.087-.106-.176-.211-.264-.315A13.093,13.093,0,0,0,40.3,83.732a.306.306,0,0,1,.238-.536c1.207.156,2.453.226,3.658.293l.684.039a.3.3,0,0,1,.285.264,5.62,5.62,0,0,0,.443,1.533c.064.143.117.254.176.364a.31.31,0,0,1,0,.29.594.594,0,0,0-.08.275,1.148,1.148,0,0,0,.489,1.059,1.514,1.514,0,0,0,.675.253,1.119,1.119,0,0,0,.123.009.307.307,0,0,1,.222.1l.143.159c.235.259.475.51.713.759a.31.31,0,0,1,.082.282.305.305,0,0,1-.185.222l-.025.009a9.779,9.779,0,0,1-1.177.342,3.569,3.569,0,0,1-1.183.055,4.607,4.607,0,0,1-.918-.205A.324.324,0,0,1,44.552,89.235Zm-3.159-5.327c.262.261.524.544.789.853.092.107.183.216.273.325.437.533.872,1.12,1.328,1.8.2.3.4.613.6.924s.389.627.578.943a3.9,3.9,0,0,0,.69.146,2.959,2.959,0,0,0,.984-.044c.206-.044.421-.1.665-.178-.136-.143-.268-.284-.4-.427l-.063-.07-.055-.007a2.141,2.141,0,0,1-.938-.354,1.765,1.765,0,0,1-.756-1.586,1.182,1.182,0,0,1,.082-.4c-.037-.075-.073-.151-.107-.228a6.547,6.547,0,0,1-.464-1.482l-.438-.024C43.255,84.05,42.322,84,41.394,83.908Z" transform="translate(-25.626 -80.986)" fill="#8d6e63"/>
        <path id="Trazado_12198" data-name="Trazado 12198" d="M38.055,82.455a.306.306,0,0,1,.1-.513,7.185,7.185,0,0,0,1.225-.592.319.319,0,0,1,.161-.044l2.767.013a.313.313,0,0,1,.242.12.745.745,0,0,0,.049.059c.23.264.53.435,1.18-.1a.31.31,0,0,1,.2-.07l2.269.01a.307.307,0,0,1,.3.3.744.744,0,0,0,.171.532.413.413,0,0,0,.21.1.228.228,0,0,0,.161-.055.631.631,0,0,0,.216-.418.735.735,0,0,0,0-.132.309.309,0,0,1,.082-.232.306.306,0,0,1,.225-.1l1.442.007a.307.307,0,0,1,.267.454,3.379,3.379,0,0,1-.918,1.16,5.169,5.169,0,0,1-1.218.607l-.194.075a.282.282,0,0,1-.144.021l-.329-.033c-.878-.091-1.78-.141-2.651-.189-.585-.033-1.172-.066-1.756-.111-.438-.033-.869-.076-1.28-.128l-.041,0c-.632-.08-1.2-.176-1.734-.294a.359.359,0,0,1-.074-.026,6.757,6.757,0,0,0-.827-.363A.3.3,0,0,1,38.055,82.455Zm1.07.152,0,0Zm.5-.688q-.281.164-.576.307l.183.09c.508.111,1.041.2,1.628.275l.014.31.038-.3c.4.051.822.092,1.251.125.581.044,1.161.076,1.743.11.878.049,1.788.1,2.68.192l.253.026L46.966,83a4.589,4.589,0,0,0,1.079-.53,1.986,1.986,0,0,0,.47-.509l-.613,0a1.228,1.228,0,0,1-.439.751.824.824,0,0,1-.623.176.952.952,0,0,1-.54-.262,1.178,1.178,0,0,1-.34-.672l-1.881-.009c-.919.71-1.541.4-1.915-.008Z" transform="translate(-25.942 -81.251)" fill="#8d6e63"/>
        <path id="Trazado_12199" data-name="Trazado 12199" d="M32.139,87.047a.3.3,0,0,1-.075-.1,19.573,19.573,0,0,0-3.369-5.173.306.306,0,0,1,.229-.511l6.3.029a.314.314,0,0,1,.108.019l.524.2c.143.056.285.113.427.171l1.265.524a.3.3,0,0,1,.175.188.014.014,0,0,1,0,.011l.034,0c.1.007.155.011.212.018l.132.014a.3.3,0,0,1,.076.018l.176.067c.16.062.321.121.48.178.416.148.785.264,1.124.351l.347.082a.4.4,0,0,1,.073.027c.148.079.294.163.439.251s.285.183.425.281c.12.084.238.172.356.262s.233.186.348.283c.059.05.117.1.177.154A12.4,12.4,0,0,1,43.13,85.4l.161.18c.088.1.175.2.259.3s.17.206.254.313.187.238.279.359.183.245.273.368c.18.249.356.5.529.757h0q.161.241.321.486c.1.163.209.326.311.492a.306.306,0,0,1-.373.446,6.21,6.21,0,0,0-1.118-.326,8.334,8.334,0,0,0-1.214-.14,2.355,2.355,0,0,0-.237,0,4.106,4.106,0,0,0-.7.094.307.307,0,0,1-.332-.154c-.132-.244-.266-.491-.4-.735-.211-.384-.427-.765-.649-1.138-.3-.508-.586-.942-.867-1.328a8.62,8.62,0,0,0-1.381-1.53,5.513,5.513,0,0,0-.536-.4l-.124-.08c.021.074.043.148.067.224a6.854,6.854,0,0,0,.436,1.043,8.792,8.792,0,0,0,1.087,1.6c.335.4.689.771,1.117,1.209l.187.191c.206.211.413.422.616.635l.148.156a.306.306,0,0,1-.147.506c-.1.025-.2.05-.3.073a5.081,5.081,0,0,1-1.094.155,3.781,3.781,0,0,1-.572-.036,5.35,5.35,0,0,1-1.351-.4c-.486-.208-.965-.471-1.428-.724l-.327-.179a10.152,10.152,0,0,0-1.441-.672.306.306,0,0,1-.2-.264l.3-.094-.306.027c-.157-1.793-.463-3.533-1.579-4.245-.453,1.054.148,2.061.836,3.213.149.251.282.475.408.7a.306.306,0,0,1-.306.453,3.418,3.418,0,0,0-.469-.027A1.6,1.6,0,0,0,33,86.94a2.984,2.984,0,0,0-.538.167A.307.307,0,0,1,32.139,87.047ZM29.6,81.873a18.9,18.9,0,0,1,1.45,1.94,20.266,20.266,0,0,1,1.46,2.623,3.171,3.171,0,0,1,.368-.1,2.3,2.3,0,0,1,.354-.042l-.1-.171c-.791-1.327-1.591-2.667-.72-4.131a.3.3,0,0,1,.11-.108Zm3.9.461c1.011.921,1.321,2.583,1.48,4.3a11.561,11.561,0,0,1,1.343.643l.331.181c.451.246.916.5,1.375.7a4.7,4.7,0,0,0,1.194.354,3.148,3.148,0,0,0,.478.031,3.938,3.938,0,0,0,.733-.088l-.388-.4-.188-.192c-.437-.448-.8-.83-1.148-1.243a9.41,9.41,0,0,1-1.162-1.708q-.082-.159-.157-.322c0,.022,0,.043-.006.065a1.242,1.242,0,0,1-.449.833.827.827,0,0,1-.624.176,1,1,0,0,1-.54-.262,1.028,1.028,0,0,1-.127-.147,1.474,1.474,0,0,1-.235-.958,1.134,1.134,0,0,1,.4-.805.886.886,0,0,1,.664-.221h0a.822.822,0,0,1,.53.285c-.068-.237-.125-.477-.17-.716a.309.309,0,0,1,.058-.242l-.844-.349c-.14-.057-.279-.113-.42-.167-.156-.062-.311-.121-.468-.18l-2.331-.011A2.642,2.642,0,0,1,33.5,82.334ZM36.4,83.877a.289.289,0,0,0-.2.081.535.535,0,0,0-.183.372.888.888,0,0,0,.119.565.394.394,0,0,0,.26.163A.226.226,0,0,0,36.56,85a.63.63,0,0,0,.216-.416A.619.619,0,0,0,36.7,84.2a.321.321,0,0,0-.04-.057.287.287,0,0,1-.047-.075A.276.276,0,0,0,36.4,83.877Zm2.432-.327a9.571,9.571,0,0,1,1.287,1.468c.292.4.586.851.9,1.375.226.379.445.767.66,1.157l.294.541a4.142,4.142,0,0,1,.574-.062,2.752,2.752,0,0,1,.291,0,9.048,9.048,0,0,1,1.3.151c.135.026.266.056.395.089-.054-.082-.107-.162-.162-.243h0c-.168-.25-.34-.5-.516-.739-.088-.121-.177-.241-.266-.358s-.179-.234-.27-.349-.163-.2-.245-.3l-.25-.293-.155-.175a12.119,12.119,0,0,0-.963-.96c-.055-.049-.11-.1-.165-.145-.108-.091-.217-.179-.327-.265s-.219-.167-.332-.245c-.13-.091-.261-.178-.395-.26s-.245-.146-.37-.213l-.321-.076c-.358-.094-.744-.213-1.177-.367l-.2-.071c.072.056.144.114.214.175S38.773,83.492,38.837,83.55ZM37.693,82.4h0Z" transform="translate(-27.256 -81.258)" fill="#8d6e63"/>
        <path id="Trazado_12200" data-name="Trazado 12200" d="M27.685,86.714a.3.3,0,0,1-.1-.2l-.025-.25c-.037-.343-.08-.692-.135-1.041a.309.309,0,0,1,.062-.236,2.855,2.855,0,0,0,.566-1.408,4.682,4.682,0,0,0-.12-1.762.307.307,0,0,1,.149-.345.3.3,0,0,1,.371.058,20.612,20.612,0,0,1,2.1,2.6A20.711,20.711,0,0,1,32.029,86.7h0l.114.237a.3.3,0,0,1,.01.24.305.305,0,0,1-.165.173,3.543,3.543,0,0,1-1.189.338,4.739,4.739,0,0,1-2.664-.718c-.1-.055-.2-.111-.306-.169l-.087-.049A.3.3,0,0,1,27.685,86.714Zm.367-1.454c.042.287.082.6.119.945l.009.095c.084.047.165.092.246.136a4.2,4.2,0,0,0,2.336.645,2.376,2.376,0,0,0,.688-.168,20.127,20.127,0,0,0-1.4-2.433,18.65,18.65,0,0,0-1.359-1.766,4.962,4.962,0,0,1-.032.951A3.5,3.5,0,0,1,28.053,85.26Z" transform="translate(-27.424 -81.233)" fill="#8d6e63"/>
      </g>
      <g id="Grupo_3200" data-name="Grupo 3200" transform="translate(37.64 69.365)">
        <path id="Trazado_12201" data-name="Trazado 12201" d="M54.484,76.327a.307.307,0,0,1-.039-.485l.2.17V76l-.169-.186a4.092,4.092,0,0,0,.916-1.746l.047-.13a.344.344,0,0,1,.246-.217l1.824-.294a.306.306,0,0,1,.293.487.538.538,0,0,0-.1.375.836.836,0,0,0,.269.589.349.349,0,0,0,.224.067c.131,0,.289-.21.3-.475a.3.3,0,0,1,.186-.275,5.91,5.91,0,0,0,1.561-1.156.305.305,0,0,1,.16-.078l2.713-.438a.317.317,0,0,1,.131.007,3.6,3.6,0,0,1,.748.3,1.778,1.778,0,0,1,.488.379.306.306,0,0,1-.094.477,27.06,27.06,0,0,1-7.2,2.354c-.749.135-1.566.242-2.5.329A.309.309,0,0,1,54.484,76.327ZM55.96,74.3a6.769,6.769,0,0,1-.6,1.389c.615-.07,1.177-.151,1.7-.246.169-.031.337-.062.5-.095a1.4,1.4,0,0,1-.48-.99,1.212,1.212,0,0,1,0-.241Zm3.119.384a1.32,1.32,0,0,1-.114.349,26.212,26.212,0,0,0,4.7-1.676,2.89,2.89,0,0,0-.526-.214l-2.554.412A6.7,6.7,0,0,1,59.079,74.685Z" transform="translate(-32.664 -72.524)" fill="#8d6e63"/>
        <path id="Trazado_12202" data-name="Trazado 12202" d="M58.945,79.65a.385.385,0,0,1-.048-.038c-.316-.309-.733-.712-1.16-1.092a7.419,7.419,0,0,0-2.658-1.534.307.307,0,0,1,.063-.6,27.383,27.383,0,0,0,9.126-2.623.3.3,0,0,1,.311.024.3.3,0,0,1,.129.285,4.038,4.038,0,0,1-1.243,2.076c-.478.485-.957.943-1.424,1.364a.309.309,0,0,1-.368.032c-.778-.489-1.088-.465-1.185-.432-.043.014-.1.046-.141.163a1.166,1.166,0,0,0,.273,1.043.307.307,0,0,1-.057.429c-.427.326-.859.629-1.287.9A.305.305,0,0,1,58.945,79.65Zm-1.806-2.356a8.2,8.2,0,0,1,1,.769c.36.321.713.657,1.006.94.269-.176.54-.365.809-.565a1.7,1.7,0,0,1-.2-1.345.852.852,0,0,1,.527-.557,1.918,1.918,0,0,1,1.508.373c.4-.371.817-.769,1.231-1.186a5.092,5.092,0,0,0,.846-1.089,27.873,27.873,0,0,1-7.521,2.215A7.786,7.786,0,0,1,57.139,77.294Z" transform="translate(-32.59 -72.353)" fill="#8d6e63"/>
        <path id="Trazado_12203" data-name="Trazado 12203" d="M56.61,80.628a.3.3,0,0,1-.082-.079c-.384-.536-.771-1.03-1.151-1.469a.3.3,0,0,1-.068-.145.894.894,0,0,0-.446-.6.259.259,0,0,1-.07-.056,1.009,1.009,0,0,0-.381-.254.314.314,0,0,1-.1-.063,10.542,10.542,0,0,0-1.29-1.038.306.306,0,0,1,.213-.558,8.2,8.2,0,0,1,4.609,1.815c.326.284.665.6,1.1,1.015a.306.306,0,0,1-.064.488,11.441,11.441,0,0,1-1.138.558c-.248.1-.508.23-.817.4A.3.3,0,0,1,56.61,80.628Zm-.719-1.889c.323.378.65.793.978,1.238.228-.116.433-.213.633-.3.229-.1.467-.206.71-.331-.287-.273-.534-.5-.772-.7a6.58,6.58,0,0,0-3.08-1.46c.11.095.219.192.327.292a1.586,1.586,0,0,1,.524.356A1.538,1.538,0,0,1,55.891,78.739Z" transform="translate(-32.87 -71.983)" fill="#8d6e63"/>
        <path id="Trazado_12204" data-name="Trazado 12204" d="M43.508,76.088a.306.306,0,0,1,.117-.559l1.491-.241a.306.306,0,0,1,.179.579c-.291.137-.6.267-.934.384a.307.307,0,0,1-.167.01c-.2-.042-.395-.088-.591-.133A.312.312,0,0,1,43.508,76.088Z" transform="translate(-34.209 -72.135)" fill="#8d6e63"/>
        <path id="Trazado_12205" data-name="Trazado 12205" d="M53.034,82.039a.376.376,0,0,1-.068-.059q-.388-.462-.791-.915-.361-.406-.73-.8c-.548-.578-1.059-1.075-1.563-1.516-.1-.09-.208-.18-.311-.267A12.976,12.976,0,0,0,47.941,77.3a.3.3,0,0,1-.138-.339.307.307,0,0,1,.285-.229c1.216-.042,2.457-.178,3.657-.309l.682-.074a.306.306,0,0,1,.324.213,5.673,5.673,0,0,0,.687,1.441c.087.13.159.232.233.33a.307.307,0,0,1,.043.286.626.626,0,0,0-.034.285,1.156,1.156,0,0,0,.657.965,1.541,1.541,0,0,0,.708.139c.041,0,.082-.007.122-.013a.313.313,0,0,1,.236.066l.167.133c.274.217.552.425.828.631a.314.314,0,0,1,.127.265.3.3,0,0,1-.146.25l-.023.014a9.813,9.813,0,0,1-1.105.53,3.59,3.59,0,0,1-1.158.248,4.554,4.554,0,0,1-.94-.052A.311.311,0,0,1,53.034,82.039ZM49.046,77.3c.3.214.6.451.917.712.11.091.217.184.323.277.519.454,1.043.963,1.6,1.556q.376.4.744.813t.724.836a3.949,3.949,0,0,0,.7.031,2.98,2.98,0,0,0,.963-.205c.2-.078.4-.169.627-.284-.157-.119-.31-.236-.461-.356l-.073-.058-.056,0a2.137,2.137,0,0,1-.982-.2,1.766,1.766,0,0,1-1.006-1.441,1.161,1.161,0,0,1,.017-.406c-.049-.068-.1-.137-.144-.208a6.462,6.462,0,0,1-.7-1.386l-.436.048C50.9,77.136,49.975,77.236,49.046,77.3Z" transform="translate(-33.586 -71.985)" fill="#8d6e63"/>
        <path id="Trazado_12206" data-name="Trazado 12206" d="M45.5,76.577a.306.306,0,0,1,.014-.522,7.213,7.213,0,0,0,1.112-.784.307.307,0,0,1,.151-.071l2.733-.44a.306.306,0,0,1,.257.079c.018.017.038.033.059.05.269.222.594.341,1.148-.293a.306.306,0,0,1,.181-.1l2.239-.36a.307.307,0,0,1,.351.251.732.732,0,0,0,.256.5.4.4,0,0,0,.225.068.22.22,0,0,0,.148-.08.629.629,0,0,0,.146-.447.827.827,0,0,0-.021-.131.308.308,0,0,1,.043-.242.3.3,0,0,1,.205-.132l1.424-.23a.307.307,0,0,1,.338.4,3.4,3.4,0,0,1-.716,1.295,5.169,5.169,0,0,1-1.1.8l-.179.107a.316.316,0,0,1-.139.043l-.329.021c-.882.054-1.778.152-2.647.246-.583.064-1.166.128-1.75.179-.438.039-.869.066-1.283.083l-.042,0c-.637.024-1.207.022-1.758-.007a.3.3,0,0,1-.078-.014,6.578,6.578,0,0,0-.876-.222A.294.294,0,0,1,45.5,76.577Zm1.08-.025,0,0Zm.379-.76c-.165.138-.339.271-.518.4l.2.059c.519.025,1.06.027,1.652,0l.064.3-.013-.306c.4-.016.826-.043,1.254-.082.581-.051,1.159-.114,1.738-.177.875-.1,1.778-.194,2.675-.249l.253-.017.119-.071a4.616,4.616,0,0,0,.979-.7,1.973,1.973,0,0,0,.38-.578l-.6.1a1.233,1.233,0,0,1-.31.812.826.826,0,0,1-.585.275.949.949,0,0,1-.576-.171,1.169,1.169,0,0,1-.445-.607l-1.857.3c-.792.851-1.456.646-1.891.306Z" transform="translate(-33.928 -72.361)" fill="#8d6e63"/>
        <path id="Trazado_12207" data-name="Trazado 12207" d="M40.428,81.988a.316.316,0,0,1-.091-.091,19.075,19.075,0,0,0-1.965-2.508,19.29,19.29,0,0,0-2.2-2.045.306.306,0,0,1,.141-.541l6.217-1a.321.321,0,0,1,.11,0l.55.114c.149.031.3.064.449.1l1.334.309a.307.307,0,0,1,.2.157c0,.006,0,.009,0,.011l.035,0c.1-.009.155-.014.212-.017l.132-.008a.361.361,0,0,1,.079.006l.185.038c.168.034.335.066.5.1.435.078.817.131,1.166.162l.355.025a.336.336,0,0,1,.076.015c.16.054.317.113.475.177s.313.132.465.206c.132.063.264.13.395.2s.26.145.389.221c.066.04.133.081.2.123a12.576,12.576,0,0,1,1.162.83l.188.152c.1.086.205.171.306.258s.2.177.3.267.224.205.334.309.22.211.33.319c.218.214.432.436.646.66h0q.2.21.395.427c.13.144.26.287.389.433a.307.307,0,0,1-.3.5,6.17,6.17,0,0,0-1.157-.139,8.327,8.327,0,0,0-1.221.059c-.079.009-.157.023-.234.039a4.046,4.046,0,0,0-.672.205.3.3,0,0,1-.352-.1c-.171-.22-.342-.44-.516-.659-.271-.345-.546-.686-.826-1.016-.382-.452-.733-.834-1.073-1.169a8.664,8.664,0,0,0-1.613-1.283,5.736,5.736,0,0,0-.6-.31c-.044-.021-.09-.04-.136-.058.033.07.067.139.1.209a6.751,6.751,0,0,0,.6.957,8.785,8.785,0,0,0,1.334,1.4c.4.338.806.648,1.3,1.011l.216.157c.238.175.476.348.711.526l.172.13a.306.306,0,0,1-.063.524c-.092.041-.186.082-.279.121a5.106,5.106,0,0,1-1.055.332,3.661,3.661,0,0,1-.569.057,5.3,5.3,0,0,1-1.4-.171c-.513-.125-1.028-.306-1.526-.48l-.354-.123a10.079,10.079,0,0,0-1.531-.427.306.306,0,0,1-.244-.227l.279-.141-.3.076c-.448-1.742-1.035-3.409-2.252-3.929-.274,1.115.484,2.009,1.351,3.034.188.222.356.421.517.624a.306.306,0,0,1-.227.5,3.049,3.049,0,0,0-.468.049,1.523,1.523,0,0,0-.266.076,2.951,2.951,0,0,0-.5.252A.307.307,0,0,1,40.428,81.988ZM37.075,77.3a18.8,18.8,0,0,1,1.748,1.677,20.257,20.257,0,0,1,1.871,2.349,3.013,3.013,0,0,1,.347-.156,2.223,2.223,0,0,1,.342-.1l-.129-.153c-1-1.178-2.005-2.37-1.386-3.956a.3.3,0,0,1,.091-.125ZM41,77.115c1.148.743,1.726,2.332,2.163,4a11.533,11.533,0,0,1,1.43.415l.356.124c.485.169.986.344,1.47.463a4.7,4.7,0,0,0,1.235.153,3.328,3.328,0,0,0,.477-.047,4.082,4.082,0,0,0,.71-.206l-.448-.33-.217-.157c-.505-.371-.925-.689-1.336-1.039a9.416,9.416,0,0,1-1.426-1.5c-.072-.095-.14-.192-.208-.291,0,.022,0,.043,0,.066a1.235,1.235,0,0,1-.308.894.826.826,0,0,1-.586.276,1,1,0,0,1-.724-.3,1.481,1.481,0,0,1-.389-.907,1.143,1.143,0,0,1,.264-.86.887.887,0,0,1,.619-.327h0a.818.818,0,0,1,.57.194c-.107-.222-.2-.451-.285-.679a.3.3,0,0,1,.018-.249l-.891-.206q-.221-.05-.441-.1l-.491-.1-2.3.371A2.652,2.652,0,0,1,41,77.115Zm3.119,1.047a.293.293,0,0,0-.186.113.537.537,0,0,0-.12.4.887.887,0,0,0,.21.537.31.31,0,0,0,.067.055.362.362,0,0,0,.216.064.221.221,0,0,0,.149-.081A.622.622,0,0,0,44.6,78.8a.61.61,0,0,0-.138-.37.408.408,0,0,0-.049-.05.328.328,0,0,1-.059-.066A.275.275,0,0,0,44.118,78.162Zm2.345-.721a9.5,9.5,0,0,1,1.51,1.238c.354.348.718.744,1.111,1.209.285.337.565.683.841,1.033l.38.485a4.159,4.159,0,0,1,.556-.155c.092-.019.189-.035.286-.047a9.06,9.06,0,0,1,1.31-.064c.137,0,.271.011.4.023-.066-.072-.132-.143-.2-.212h0c-.206-.22-.418-.436-.63-.646-.106-.1-.213-.209-.321-.31s-.216-.2-.324-.3-.194-.172-.292-.258-.2-.167-.294-.248l-.181-.147a11.956,11.956,0,0,0-1.107-.791l-.187-.115c-.122-.072-.244-.141-.366-.208s-.244-.129-.367-.187c-.144-.07-.287-.135-.432-.193s-.267-.1-.4-.151l-.329-.023c-.368-.033-.768-.088-1.221-.17L46,77.168c.081.043.161.089.241.137S46.392,77.394,46.463,77.441Zm-1.318-.947h0Z" transform="translate(-35.238 -72.063)" fill="#8d6e63"/>
        <path id="Trazado_12208" data-name="Trazado 12208" d="M35.92,82.274a.312.312,0,0,1-.13-.178l-.065-.242c-.092-.332-.192-.67-.3-1a.3.3,0,0,1,.022-.244,2.851,2.851,0,0,0,.327-1.481,4.69,4.69,0,0,0-.406-1.719.305.305,0,0,1,.09-.364.3.3,0,0,1,.375,0A19.7,19.7,0,0,1,40.2,81.551h0l.151.216A.307.307,0,0,1,40.4,82a.3.3,0,0,1-.136.2,3.549,3.549,0,0,1-1.117.528,4.744,4.744,0,0,1-2.745-.271c-.11-.038-.219-.076-.33-.116l-.094-.034A.3.3,0,0,1,35.92,82.274Zm.123-1.494c.09.276.179.576.271.911l.025.092.266.094a4.2,4.2,0,0,0,2.409.254,2.357,2.357,0,0,0,.651-.278,20.014,20.014,0,0,0-1.777-2.172,18.839,18.839,0,0,0-1.629-1.519,4.931,4.931,0,0,1,.123.943A3.487,3.487,0,0,1,36.043,80.78Z" transform="translate(-35.339 -71.897)" fill="#8d6e63"/>
      </g>
      <g id="Grupo_3201" data-name="Grupo 3201" transform="translate(41.927 83.808)">
        <path id="Trazado_12209" data-name="Trazado 12209" d="M58.242,88.988A.307.307,0,0,1,58.2,88.5l.2.171v-.009l-.169-.186a4.087,4.087,0,0,0,.916-1.746l.048-.13a.338.338,0,0,1,.245-.217l1.824-.294a.306.306,0,0,1,.293.487.529.529,0,0,0-.1.375.826.826,0,0,0,.268.587.345.345,0,0,0,.224.068c.132,0,.289-.21.3-.476a.306.306,0,0,1,.186-.274A5.91,5.91,0,0,0,63.99,85.7a.305.305,0,0,1,.16-.078l2.713-.438a.317.317,0,0,1,.131.007,3.534,3.534,0,0,1,.748.3,1.8,1.8,0,0,1,.489.379.309.309,0,0,1,.07.262.305.305,0,0,1-.164.214,27.009,27.009,0,0,1-7.2,2.353c-.751.135-1.567.243-2.5.329A.3.3,0,0,1,58.242,88.988Zm1.476-2.027a6.73,6.73,0,0,1-.6,1.388c.614-.07,1.176-.151,1.7-.245.168-.031.335-.062.5-.1a1.389,1.389,0,0,1-.48-.989,1.062,1.062,0,0,1,0-.241Zm3.119.384a1.222,1.222,0,0,1-.114.348,26.089,26.089,0,0,0,4.7-1.675,2.978,2.978,0,0,0-.526-.216l-2.553.413A6.707,6.707,0,0,1,62.837,87.346Z" transform="translate(-36.423 -85.185)" fill="#8d6e63"/>
        <path id="Trazado_12210" data-name="Trazado 12210" d="M62.7,92.311a.367.367,0,0,1-.047-.039c-.317-.308-.733-.711-1.161-1.092a7.448,7.448,0,0,0-2.657-1.534.3.3,0,0,1-.209-.322.306.306,0,0,1,.27-.273,27.4,27.4,0,0,0,9.127-2.623.3.3,0,0,1,.311.024.3.3,0,0,1,.128.285,4.044,4.044,0,0,1-1.242,2.076c-.479.485-.958.943-1.425,1.364a.307.307,0,0,1-.368.031c-.777-.488-1.088-.464-1.185-.431-.043.014-.1.046-.141.163a1.17,1.17,0,0,0,.273,1.043.306.306,0,0,1-.057.429c-.425.326-.859.629-1.287.9A.305.305,0,0,1,62.7,92.311ZM60.9,89.955a8.3,8.3,0,0,1,1.006.769c.36.321.713.657,1,.94.269-.177.541-.365.81-.565a1.7,1.7,0,0,1-.2-1.345.852.852,0,0,1,.527-.557,1.918,1.918,0,0,1,1.508.373c.4-.371.818-.769,1.231-1.186a5.13,5.13,0,0,0,.848-1.089,27.88,27.88,0,0,1-7.522,2.214A8.022,8.022,0,0,1,60.9,89.955Z" transform="translate(-36.349 -85.014)" fill="#8d6e63"/>
        <path id="Trazado_12211" data-name="Trazado 12211" d="M60.368,93.289a.316.316,0,0,1-.082-.079c-.384-.536-.771-1.03-1.15-1.469a.3.3,0,0,1-.07-.145.894.894,0,0,0-.446-.6.278.278,0,0,1-.07-.056.967.967,0,0,0-.381-.254.314.314,0,0,1-.1-.063,10.436,10.436,0,0,0-1.29-1.038.307.307,0,0,1,.213-.558A8.193,8.193,0,0,1,61.6,90.843c.326.284.665.6,1.1,1.015a.306.306,0,0,1-.064.488A11.426,11.426,0,0,1,61.5,92.9c-.249.1-.509.23-.818.4A.31.31,0,0,1,60.368,93.289ZM59.65,91.4c.323.378.65.793.976,1.238.228-.118.433-.213.633-.3.229-.1.468-.206.71-.331-.287-.273-.534-.5-.772-.7a6.591,6.591,0,0,0-3.079-1.459c.108.095.218.192.326.292a1.568,1.568,0,0,1,.524.356A1.545,1.545,0,0,1,59.65,91.4Z" transform="translate(-36.628 -84.644)" fill="#8d6e63"/>
        <path id="Trazado_12212" data-name="Trazado 12212" d="M47.266,88.749a.307.307,0,0,1,.117-.56l1.491-.24a.306.306,0,0,1,.18.578c-.292.138-.606.267-.934.386a.31.31,0,0,1-.168.01c-.2-.042-.394-.088-.59-.133A.336.336,0,0,1,47.266,88.749Z" transform="translate(-37.967 -84.796)" fill="#8d6e63"/>
        <path id="Trazado_12213" data-name="Trazado 12213" d="M56.792,94.7a.308.308,0,0,1-.067-.06c-.26-.307-.524-.613-.792-.914q-.359-.407-.73-.8c-.548-.578-1.059-1.075-1.562-1.516-.1-.09-.208-.18-.313-.268A12.961,12.961,0,0,0,51.7,89.966a.3.3,0,0,1-.138-.339.305.305,0,0,1,.286-.229c1.215-.043,2.456-.178,3.656-.309l.682-.074a.307.307,0,0,1,.325.213,5.606,5.606,0,0,0,.686,1.44c.088.131.16.233.234.331a.307.307,0,0,1,.042.286.608.608,0,0,0-.033.285,1.149,1.149,0,0,0,.656.964,1.513,1.513,0,0,0,.708.139,1.078,1.078,0,0,0,.122-.011.311.311,0,0,1,.237.066l.167.132c.274.218.551.427.827.632a.315.315,0,0,1,.128.265.306.306,0,0,1-.146.25l-.024.013a9.557,9.557,0,0,1-1.105.532,3.59,3.59,0,0,1-1.158.248,4.634,4.634,0,0,1-.94-.052A.326.326,0,0,1,56.792,94.7ZM52.8,89.96c.3.216.606.452.918.713.108.091.216.183.323.277.518.454,1.043.963,1.6,1.555q.376.4.744.814t.724.836a3.949,3.949,0,0,0,.7.031,2.993,2.993,0,0,0,.964-.205c.2-.078.4-.169.626-.284-.156-.119-.309-.236-.461-.356l-.073-.058-.055,0a2.142,2.142,0,0,1-.983-.2,1.768,1.768,0,0,1-1.006-1.441,1.161,1.161,0,0,1,.017-.406c-.049-.068-.1-.138-.144-.208a6.515,6.515,0,0,1-.7-1.386l-.436.048C54.663,89.8,53.733,89.9,52.8,89.96Z" transform="translate(-37.345 -84.646)" fill="#8d6e63"/>
        <path id="Trazado_12214" data-name="Trazado 12214" d="M49.259,89.238a.306.306,0,0,1,.014-.522,7.213,7.213,0,0,0,1.112-.784.306.306,0,0,1,.152-.071l2.732-.44a.31.31,0,0,1,.258.079c.018.017.036.033.058.05.27.222.594.341,1.148-.293a.309.309,0,0,1,.181-.1l2.239-.36a.307.307,0,0,1,.351.251.737.737,0,0,0,.256.5.412.412,0,0,0,.225.068.224.224,0,0,0,.148-.08.631.631,0,0,0,.146-.447.714.714,0,0,0-.019-.131.307.307,0,0,1,.249-.375l1.423-.229a.3.3,0,0,1,.284.106.308.308,0,0,1,.055.3,3.39,3.39,0,0,1-.718,1.295,5.209,5.209,0,0,1-1.1.8l-.179.106a.3.3,0,0,1-.138.044l-.33.021c-.882.054-1.778.152-2.647.246-.583.064-1.166.128-1.75.179-.438.039-.869.066-1.283.083h-.042c-.635.025-1.207.023-1.758-.006a.259.259,0,0,1-.078-.015,6.782,6.782,0,0,0-.875-.221A.311.311,0,0,1,49.259,89.238Zm1.08-.025,0,0Zm.379-.761c-.165.139-.339.271-.517.4.064.018.129.039.194.059.519.025,1.061.026,1.652,0l.064.3-.013-.307c.4-.016.827-.043,1.255-.081.579-.051,1.159-.114,1.737-.178.875-.095,1.78-.194,2.675-.249l.253-.016.119-.071a4.587,4.587,0,0,0,.979-.7,2.014,2.014,0,0,0,.381-.578l-.606.1a1.23,1.23,0,0,1-.31.812.826.826,0,0,1-.585.275.943.943,0,0,1-.575-.171,1.17,1.17,0,0,1-.446-.607l-1.857.3c-.792.851-1.454.646-1.891.306Z" transform="translate(-37.687 -85.022)" fill="#8d6e63"/>
        <path id="Trazado_12215" data-name="Trazado 12215" d="M44.186,94.649a.3.3,0,0,1-.09-.091A19.648,19.648,0,0,0,39.925,90a.306.306,0,0,1,.143-.541l6.216-1a.321.321,0,0,1,.11,0l.55.114c.149.031.3.064.449.1l1.334.31a.307.307,0,0,1,.2.157c0,.006,0,.009,0,.011l.034,0,.212-.016.133-.008a.252.252,0,0,1,.078.006l.185.038c.168.034.335.066.5.1.435.078.817.131,1.166.162l.356.025a.362.362,0,0,1,.076.015c.159.054.317.112.475.176s.311.133.465.208c.131.063.264.13.394.2s.26.145.389.221c.067.04.133.081.2.123a12.668,12.668,0,0,1,1.162.83l.187.152c.1.086.205.171.306.258s.2.177.3.267.224.205.334.309.22.211.33.319c.218.214.433.436.646.66h0q.2.21.4.425t.388.435a.306.306,0,0,1-.3.5,6.264,6.264,0,0,0-1.156-.138,8.309,8.309,0,0,0-1.221.059,2.294,2.294,0,0,0-.235.039,3.942,3.942,0,0,0-.672.205.306.306,0,0,1-.352-.1c-.171-.219-.342-.439-.514-.658-.271-.344-.546-.686-.827-1.016-.382-.452-.733-.834-1.073-1.169a8.649,8.649,0,0,0-1.612-1.283,5.63,5.63,0,0,0-.6-.31l-.136-.058c.032.07.067.138.1.209a6.751,6.751,0,0,0,.6.957A8.8,8.8,0,0,0,51,92.686c.395.338.805.648,1.3,1.011l.216.157c.238.175.477.348.711.525l.172.131a.305.305,0,0,1-.062.522c-.092.042-.187.082-.281.122A5.116,5.116,0,0,1,52,95.486a3.958,3.958,0,0,1-.57.057,5.335,5.335,0,0,1-1.4-.171c-.514-.125-1.029-.306-1.527-.48l-.354-.123a10.08,10.08,0,0,0-1.531-.427.308.308,0,0,1-.244-.227l.281-.141-.3.076c-.449-1.742-1.036-3.409-2.252-3.929-.275,1.113.483,2.009,1.349,3.033.188.224.356.422.518.625a.306.306,0,0,1-.228.5,3.18,3.18,0,0,0-.467.05,1.508,1.508,0,0,0-.267.076,2.952,2.952,0,0,0-.5.252A.307.307,0,0,1,44.186,94.649Zm-3.353-4.69a18.959,18.959,0,0,1,1.749,1.677,20.363,20.363,0,0,1,1.87,2.349,3.1,3.1,0,0,1,.347-.156,2.257,2.257,0,0,1,.342-.1c-.043-.051-.086-.1-.129-.153-1-1.178-2.005-2.37-1.385-3.956a.3.3,0,0,1,.09-.125Zm3.924-.184c1.149.743,1.727,2.332,2.164,4a11.574,11.574,0,0,1,1.429.415l.356.123c.485.17.986.346,1.47.464a4.7,4.7,0,0,0,1.235.153,3.329,3.329,0,0,0,.478-.047,3.97,3.97,0,0,0,.708-.208l-.448-.329-.217-.157c-.5-.371-.925-.689-1.335-1.04a9.322,9.322,0,0,1-1.427-1.494c-.072-.095-.14-.193-.208-.291,0,.022,0,.043.006.066a1.24,1.24,0,0,1-.308.894.822.822,0,0,1-.586.275,1,1,0,0,1-.726-.294,1.48,1.48,0,0,1-.388-.907,1.141,1.141,0,0,1,.262-.861.892.892,0,0,1,.619-.326h0a.818.818,0,0,1,.57.194c-.106-.222-.2-.451-.285-.679a.309.309,0,0,1,.018-.249l-.891-.206q-.221-.05-.441-.1l-.491-.1-2.3.371A2.66,2.66,0,0,1,44.757,89.776Zm3.119,1.047a.286.286,0,0,0-.185.113.533.533,0,0,0-.121.4.894.894,0,0,0,.21.537.31.31,0,0,0,.067.055.364.364,0,0,0,.216.064.224.224,0,0,0,.151-.081.633.633,0,0,0,.145-.446.618.618,0,0,0-.139-.37.407.407,0,0,0-.049-.05.292.292,0,0,1-.058-.066A.274.274,0,0,0,47.876,90.823Zm2.345-.721a9.5,9.5,0,0,1,1.51,1.238c.354.348.718.744,1.112,1.209.284.337.565.683.84,1.034.128.161.253.323.38.485a4.042,4.042,0,0,1,.556-.155c.094-.019.189-.035.286-.047a8.9,8.9,0,0,1,1.31-.064c.137,0,.271.011.4.023l-.2-.213h0c-.208-.219-.418-.435-.631-.645-.106-.1-.213-.209-.321-.31s-.214-.2-.324-.3-.194-.173-.291-.258-.2-.167-.3-.248l-.181-.147a11.8,11.8,0,0,0-1.107-.791l-.187-.115c-.122-.073-.243-.141-.366-.208s-.243-.129-.367-.188c-.144-.068-.287-.133-.432-.192s-.266-.1-.4-.151l-.329-.023c-.368-.033-.768-.088-1.221-.17l-.2-.038c.08.043.161.089.241.137S50.15,90.055,50.221,90.1Zm-1.316-.947h0Z" transform="translate(-38.997 -84.724)" fill="#8d6e63"/>
        <path id="Trazado_12216" data-name="Trazado 12216" d="M39.678,94.935a.305.305,0,0,1-.129-.178l-.066-.242c-.091-.332-.192-.671-.3-1a.3.3,0,0,1,.022-.244,2.84,2.84,0,0,0,.327-1.481,4.639,4.639,0,0,0-.406-1.719.307.307,0,0,1,.09-.364.3.3,0,0,1,.375,0,19.7,19.7,0,0,1,4.372,4.513h0l.152.216a.306.306,0,0,1-.086.432,3.561,3.561,0,0,1-1.117.528,4.748,4.748,0,0,1-2.746-.271c-.11-.038-.219-.076-.33-.116l-.094-.034A.37.37,0,0,1,39.678,94.935Zm.124-1.494c.089.276.178.576.271.911l.025.092c.09.033.178.064.265.094a4.21,4.21,0,0,0,2.409.254,2.362,2.362,0,0,0,.651-.279,20.109,20.109,0,0,0-1.777-2.171,18.672,18.672,0,0,0-1.629-1.519,4.919,4.919,0,0,1,.123.943A3.49,3.49,0,0,1,39.8,93.441Z" transform="translate(-39.097 -84.558)" fill="#8d6e63"/>
      </g>
    </g>
  </g>
</svg>
