<svg xmlns="http://www.w3.org/2000/svg" width="100" height="99.951" viewBox="0 0 100 99.951">
  <g id="Grupo_4564" data-name="Grupo 4564" transform="translate(-147.537 -9341.161)">
    <ellipse id="Elipse_738" data-name="Elipse 738" cx="49.919" cy="49.944" rx="49.919" ry="49.944" transform="translate(147.537 9440.999) rotate(-89.935)" fill="#ffe082"/>
    <g id="Grupo_4549" data-name="Grupo 4549" transform="translate(182.896 9368.06)">
      <path id="Trazado_28240" data-name="Trazado 28240" d="M-3363.326-2554.974a1.15,1.15,0,0,1,1.222.837c1.415,5.1,8.365,6.182,8.436,6.193a1.151,1.151,0,0,1,.969,1.307,1.152,1.152,0,0,1-1.307.97,15.653,15.653,0,0,1-7.977-3.869,64.238,64.238,0,0,0,5.425,21.847,1.15,1.15,0,0,1-.579,1.522,1.149,1.149,0,0,1-1.522-.577,62.822,62.822,0,0,1-5.7-27.155,1.151,1.151,0,0,1,1.029-1.075Z" transform="translate(3364.398 2554.98)" fill="#8d6e63"/>
      <path id="Trazado_28241" data-name="Trazado 28241" d="M-3347.566-2551.336a11.707,11.707,0,0,1,6.163,1.047c4.337,2.044,9.131,7.553,9.354,12.5a1.151,1.151,0,0,1-.458.972c-3.959,2.975-11.263,2.786-15.6.743-4.177-1.967-6.81-6.232-7.043-11.409a1.153,1.153,0,0,1,.457-.972A14.217,14.217,0,0,1-3347.566-2551.336Zm13.156,13.027c-.554-3.813-4.519-8.269-7.975-9.9a10.439,10.439,0,0,0-10.421,1.231,10.426,10.426,0,0,0,5.682,8.817C-3343.667-2536.53-3337.707-2536.311-3334.41-2538.309Z" transform="translate(3365.7 2555.485)" fill="#8d6e63"/>
      <path id="Trazado_28242" data-name="Trazado 28242" d="M-3357.125-2531.983a12.557,12.557,0,0,1,8.855,4.267c4,4.41,5.527,11.55,4.539,21.219a1.151,1.151,0,0,1-.465.812,1.146,1.146,0,0,1-.916.2,19.1,19.1,0,0,1-11.369-8.062c-2.891-4.639-3.445-10.552-1.648-17.574A1.154,1.154,0,0,1-3357.125-2531.983Zm11.228,23.87c.65-8.282-.72-14.353-4.079-18.055a10.7,10.7,0,0,0-6.152-3.428c-1.353,5.966-.815,10.951,1.6,14.831A16.671,16.671,0,0,0-3345.9-2508.113Z" transform="translate(3365.135 2558.217)" fill="#8d6e63"/>
    </g>
    <path id="Trazado_28316" data-name="Trazado 28316" d="M-3351.4-2493.253c-22.891-24.023-22.01-58.655-22-59l2.28.075c-.01.337-.845,34.036,21.372,57.353Z" transform="translate(3546.027 11923.423)" fill="#8d6e63"/>
  </g>
</svg>
