<svg xmlns="http://www.w3.org/2000/svg" width="100" height="99.951" viewBox="0 0 100 99.951">
  <g id="Grupo_4565" data-name="Grupo 4565" transform="translate(-331.628 -9341.22)">
    <ellipse id="Elipse_737" data-name="Elipse 737" cx="49.919" cy="49.944" rx="49.919" ry="49.944" transform="translate(331.628 9441.058) rotate(-89.935)" fill="#ffe082"/>
    <g id="Grupo_4547" data-name="Grupo 4547" transform="translate(385.249 9368.916)">
      <path id="Trazado_28214" data-name="Trazado 28214" d="M-3146.645-2534.7a7.545,7.545,0,0,1-4.4-1.363.722.722,0,0,1-.283-.549,12.663,12.663,0,0,1,5.25-10.64c3.415-2.481,7.49-2.761,10.38-.713a.726.726,0,0,1,.284.549,12.668,12.668,0,0,1-5.25,10.64A10.274,10.274,0,0,1-3146.645-2534.7Zm-3.527-2.375c2.5,1.584,5.955,1.251,8.9-.885a11.256,11.256,0,0,0,4.706-8.992c-2.5-1.584-5.955-1.251-8.9.885A11.256,11.256,0,0,0-3150.172-2537.073Z" transform="translate(3166.121 2554.911)" fill="#8d6e63"/>
      <path id="Trazado_28215" data-name="Trazado 28215" d="M-3153.052-2534.7a10.257,10.257,0,0,1-5.979-2.08,12.664,12.664,0,0,1-5.243-10.642.722.722,0,0,1,.285-.549c2.89-2.047,6.964-1.765,10.38.72a12.661,12.661,0,0,1,5.241,10.642.721.721,0,0,1-.284.549A7.53,7.53,0,0,1-3153.052-2534.7Zm-10.066-12.258a11.252,11.252,0,0,0,4.7,8.995c2.941,2.14,6.394,2.474,8.9.892a11.255,11.255,0,0,0-4.7-9C-3157.164-2548.206-3160.617-2548.54-3163.118-2546.959Z" transform="translate(3164.299 2554.91)" fill="#8d6e63"/>
      <path id="Trazado_28216" data-name="Trazado 28216" d="M-3146.648-2524.125a7.534,7.534,0,0,1-4.4-1.362.726.726,0,0,1-.284-.548,12.67,12.67,0,0,1,5.25-10.64c3.417-2.482,7.491-2.762,10.381-.712a.718.718,0,0,1,.283.547,12.664,12.664,0,0,1-5.249,10.64A10.266,10.266,0,0,1-3146.648-2524.125Zm-3.527-2.373c2.5,1.583,5.955,1.25,8.9-.886a11.261,11.261,0,0,0,4.7-8.993c-2.5-1.584-5.954-1.251-8.9.886A11.253,11.253,0,0,0-3150.175-2526.5Z" transform="translate(3166.121 2556.399)" fill="#8d6e63"/>
      <path id="Trazado_28217" data-name="Trazado 28217" d="M-3153.057-2524.126a10.261,10.261,0,0,1-5.979-2.08,12.667,12.667,0,0,1-5.243-10.642.723.723,0,0,1,.284-.549c2.891-2.047,6.964-1.765,10.38.72a12.665,12.665,0,0,1,5.243,10.642.721.721,0,0,1-.285.549A7.53,7.53,0,0,1-3153.057-2524.126Zm-10.066-12.258a11.257,11.257,0,0,0,4.7,8.995c2.941,2.139,6.393,2.475,8.9.892a11.254,11.254,0,0,0-4.7-8.995C-3157.168-2537.631-3160.62-2537.968-3163.123-2536.384Z" transform="translate(3164.299 2556.398)" fill="#8d6e63"/>
      <path id="Trazado_28218" data-name="Trazado 28218" d="M-3146.652-2513.55a7.53,7.53,0,0,1-4.4-1.363.722.722,0,0,1-.283-.549,12.665,12.665,0,0,1,5.249-10.639c3.417-2.482,7.49-2.762,10.38-.713a.72.72,0,0,1,.284.549,12.663,12.663,0,0,1-5.249,10.638A10.259,10.259,0,0,1-3146.652-2513.55Zm-3.527-2.374c2.5,1.583,5.955,1.25,8.9-.886a11.256,11.256,0,0,0,4.706-8.993c-2.5-1.582-5.955-1.25-8.9.886A11.256,11.256,0,0,0-3150.179-2515.923Z" transform="translate(3166.12 2557.888)" fill="#8d6e63"/>
      <path id="Trazado_28219" data-name="Trazado 28219" d="M-3153.06-2513.551a10.274,10.274,0,0,1-5.979-2.08,12.668,12.668,0,0,1-5.242-10.642.717.717,0,0,1,.284-.549c2.89-2.046,6.964-1.764,10.38.719a12.663,12.663,0,0,1,5.241,10.643.722.722,0,0,1-.283.549A7.547,7.547,0,0,1-3153.06-2513.551Zm-10.066-12.26a11.254,11.254,0,0,0,4.7,9c2.942,2.139,6.394,2.474,8.9.892a11.255,11.255,0,0,0-4.7-9C-3157.171-2527.056-3160.624-2527.392-3163.125-2525.811Z" transform="translate(3164.298 2557.887)" fill="#8d6e63"/>
      <path id="Trazado_28220" data-name="Trazado 28220" d="M-3150.769-2503.794a.646.646,0,0,1-.585-.695l.014-41.814a.647.647,0,0,1,.585-.695.647.647,0,0,1,.587.695l-.014,41.815A.647.647,0,0,1-3150.769-2503.794Z" transform="translate(3166.12 2555.239)" fill="#8d6e63"/>
      <path id="Trazado_28221" data-name="Trazado 28221" d="M-3147.295-2548.9a.647.647,0,0,1-.586-.695v-3.932a.647.647,0,0,1,.586-.695.648.648,0,0,1,.586.695v3.933A.646.646,0,0,1-3147.295-2548.9Z" transform="translate(3166.609 2554.222)" fill="#8d6e63"/>
      <path id="Trazado_28222" data-name="Trazado 28222" d="M-3142.422-2550.146a.646.646,0,0,1-.585-.695v-1.788a.647.647,0,0,1,.587-.695.646.646,0,0,1,.585.695v1.788A.647.647,0,0,1-3142.422-2550.146Z" transform="translate(3167.295 2554.348)" fill="#8d6e63"/>
      <path id="Trazado_28223" data-name="Trazado 28223" d="M-3154.216-2548.9a.647.647,0,0,1-.586-.695v-3.932a.647.647,0,0,1,.586-.695.647.647,0,0,1,.586.695v3.933A.647.647,0,0,1-3154.216-2548.9Z" transform="translate(3165.635 2554.222)" fill="#8d6e63"/>
      <path id="Trazado_28224" data-name="Trazado 28224" d="M-3159.089-2550.151a.648.648,0,0,1-.585-.7v-1.787a.646.646,0,0,1,.586-.694.645.645,0,0,1,.585.695v1.787A.648.648,0,0,1-3159.089-2550.151Z" transform="translate(3164.949 2554.348)" fill="#8d6e63"/>
      <path id="Trazado_28225" data-name="Trazado 28225" d="M-3150.756-2548.526a.646.646,0,0,1-.585-.695v-2.962a.646.646,0,0,1,.585-.695.647.647,0,0,1,.586.695v2.962A.647.647,0,0,1-3150.756-2548.526Z" transform="translate(3166.122 2554.411)" fill="#8d6e63"/>
      <path id="Trazado_28226" data-name="Trazado 28226" d="M-3142.471-2508.95l-14.771,0a.647.647,0,0,1-.587-.695.648.648,0,0,1,.587-.694l14.771,0a.647.647,0,0,1,.586.7A.646.646,0,0,1-3142.471-2508.95Z" transform="translate(3165.209 2560.397)" fill="#8d6e63"/>
    </g>
    <g id="Grupo_4548" data-name="Grupo 4548" transform="translate(347.585 9368.916)">
      <path id="Trazado_28227" data-name="Trazado 28227" d="M-3179.661-2534.7a7.541,7.541,0,0,1-4.4-1.363.727.727,0,0,1-.284-.549,12.67,12.67,0,0,1,5.25-10.64c3.417-2.481,7.49-2.761,10.379-.713a.722.722,0,0,1,.285.549,12.668,12.668,0,0,1-5.25,10.64A10.275,10.275,0,0,1-3179.661-2534.7Zm-3.527-2.375c2.5,1.584,5.954,1.251,8.9-.885a11.256,11.256,0,0,0,4.7-8.992c-2.5-1.584-5.955-1.251-8.9.885A11.254,11.254,0,0,0-3183.188-2537.073Z" transform="translate(3199.138 2554.911)" fill="#8d6e63"/>
      <path id="Trazado_28228" data-name="Trazado 28228" d="M-3186.068-2534.7a10.256,10.256,0,0,1-5.98-2.08,12.664,12.664,0,0,1-5.243-10.642.721.721,0,0,1,.285-.549c2.888-2.047,6.964-1.765,10.378.72a12.661,12.661,0,0,1,5.243,10.642.726.726,0,0,1-.284.549A7.531,7.531,0,0,1-3186.068-2534.7Zm-10.067-12.258a11.253,11.253,0,0,0,4.7,8.995c2.941,2.14,6.393,2.474,8.9.892a11.258,11.258,0,0,0-4.7-9C-3190.179-2548.206-3193.632-2548.54-3196.135-2546.959Z" transform="translate(3197.316 2554.91)" fill="#8d6e63"/>
      <path id="Trazado_28229" data-name="Trazado 28229" d="M-3179.666-2524.125a7.53,7.53,0,0,1-4.4-1.362.724.724,0,0,1-.284-.548,12.667,12.667,0,0,1,5.25-10.64c3.417-2.482,7.491-2.762,10.381-.712a.719.719,0,0,1,.283.547,12.667,12.667,0,0,1-5.249,10.64A10.267,10.267,0,0,1-3179.666-2524.125Zm-3.527-2.373c2.5,1.583,5.955,1.25,8.9-.886a11.259,11.259,0,0,0,4.706-8.993c-2.5-1.584-5.954-1.251-8.9.886A11.258,11.258,0,0,0-3183.192-2526.5Z" transform="translate(3199.138 2556.399)" fill="#8d6e63"/>
      <path id="Trazado_28230" data-name="Trazado 28230" d="M-3186.073-2524.126a10.267,10.267,0,0,1-5.98-2.08,12.668,12.668,0,0,1-5.242-10.642.721.721,0,0,1,.284-.549c2.89-2.047,6.964-1.765,10.38.72a12.664,12.664,0,0,1,5.243,10.642.72.72,0,0,1-.285.549A7.531,7.531,0,0,1-3186.073-2524.126Zm-10.066-12.258a11.255,11.255,0,0,0,4.7,8.995c2.942,2.139,6.394,2.475,8.9.892a11.252,11.252,0,0,0-4.7-8.995C-3190.185-2537.631-3193.637-2537.968-3196.138-2536.384Z" transform="translate(3197.316 2556.398)" fill="#8d6e63"/>
      <path id="Trazado_28231" data-name="Trazado 28231" d="M-3179.668-2513.55a7.53,7.53,0,0,1-4.4-1.363.719.719,0,0,1-.283-.549,12.663,12.663,0,0,1,5.25-10.639c3.415-2.482,7.49-2.762,10.379-.713a.724.724,0,0,1,.284.549,12.664,12.664,0,0,1-5.25,10.638A10.255,10.255,0,0,1-3179.668-2513.55Zm-3.527-2.374c2.5,1.583,5.955,1.25,8.9-.886a11.25,11.25,0,0,0,4.7-8.993c-2.5-1.582-5.953-1.25-8.9.886A11.259,11.259,0,0,0-3183.2-2515.923Z" transform="translate(3199.138 2557.888)" fill="#8d6e63"/>
      <path id="Trazado_28232" data-name="Trazado 28232" d="M-3186.075-2513.551a10.273,10.273,0,0,1-5.98-2.08,12.667,12.667,0,0,1-5.243-10.642.719.719,0,0,1,.285-.549c2.889-2.046,6.964-1.764,10.38.719a12.663,12.663,0,0,1,5.242,10.643.722.722,0,0,1-.284.549A7.541,7.541,0,0,1-3186.075-2513.551Zm-10.066-12.26a11.254,11.254,0,0,0,4.7,9c2.941,2.139,6.394,2.474,8.9.892a11.255,11.255,0,0,0-4.7-9C-3190.186-2527.056-3193.639-2527.392-3196.141-2525.811Z" transform="translate(3197.315 2557.887)" fill="#8d6e63"/>
      <path id="Trazado_28233" data-name="Trazado 28233" d="M-3183.785-2503.794a.646.646,0,0,1-.585-.695l.013-41.814a.647.647,0,0,1,.586-.695.647.647,0,0,1,.586.695l-.013,41.815A.647.647,0,0,1-3183.785-2503.794Z" transform="translate(3199.137 2555.239)" fill="#8d6e63"/>
      <path id="Trazado_28234" data-name="Trazado 28234" d="M-3180.312-2548.9a.647.647,0,0,1-.585-.695v-3.932a.647.647,0,0,1,.586-.695.646.646,0,0,1,.585.695v3.933A.647.647,0,0,1-3180.312-2548.9Z" transform="translate(3199.626 2554.222)" fill="#8d6e63"/>
      <path id="Trazado_28235" data-name="Trazado 28235" d="M-3175.438-2550.146a.647.647,0,0,1-.586-.695v-1.788a.647.647,0,0,1,.586-.695.647.647,0,0,1,.585.695v1.788A.647.647,0,0,1-3175.438-2550.146Z" transform="translate(3200.312 2554.348)" fill="#8d6e63"/>
      <path id="Trazado_28236" data-name="Trazado 28236" d="M-3187.232-2548.9a.647.647,0,0,1-.586-.695v-3.932a.647.647,0,0,1,.586-.695.645.645,0,0,1,.585.695v3.933A.647.647,0,0,1-3187.232-2548.9Z" transform="translate(3198.652 2554.222)" fill="#8d6e63"/>
      <path id="Trazado_28237" data-name="Trazado 28237" d="M-3192.1-2550.151a.649.649,0,0,1-.586-.7v-1.787a.647.647,0,0,1,.586-.694.646.646,0,0,1,.585.695v1.787A.648.648,0,0,1-3192.1-2550.151Z" transform="translate(3197.966 2554.348)" fill="#8d6e63"/>
      <path id="Trazado_28238" data-name="Trazado 28238" d="M-3183.772-2548.526a.647.647,0,0,1-.586-.695v-2.962a.647.647,0,0,1,.586-.695.646.646,0,0,1,.585.695v2.962A.647.647,0,0,1-3183.772-2548.526Z" transform="translate(3199.139 2554.411)" fill="#8d6e63"/>
      <path id="Trazado_28239" data-name="Trazado 28239" d="M-3175.487-2508.95l-14.771,0a.647.647,0,0,1-.586-.695.647.647,0,0,1,.586-.694l14.771,0a.647.647,0,0,1,.586.7A.647.647,0,0,1-3175.487-2508.95Z" transform="translate(3198.226 2560.397)" fill="#8d6e63"/>
    </g>
  </g>
</svg>
