<svg xmlns="http://www.w3.org/2000/svg" width="100" height="99.951" viewBox="0 0 100 99.951">
  <g id="Grupo_4567" data-name="Grupo 4567" transform="translate(-716.818 -9341.339)">
    <ellipse id="Elipse_735" data-name="Elipse 735" cx="49.919" cy="49.944" rx="49.919" ry="49.944" transform="translate(716.818 9441.177) rotate(-89.935)" fill="#ffe082"/>
    <g id="Grupo_4550" data-name="Grupo 4550" transform="translate(770.581 9367.552)">
      <path id="Trazado_28243" data-name="Trazado 28243" d="M-2761.337-2535.88a7.546,7.546,0,0,1-4.4-1.363.725.725,0,0,1-.283-.549,12.667,12.667,0,0,1,5.25-10.64c3.416-2.481,7.49-2.761,10.379-.712a.718.718,0,0,1,.284.549,12.667,12.667,0,0,1-5.249,10.639A10.272,10.272,0,0,1-2761.337-2535.88Zm-3.527-2.374c2.5,1.583,5.955,1.25,8.9-.886a11.258,11.258,0,0,0,4.706-8.993c-2.5-1.584-5.955-1.25-8.9.886A11.256,11.256,0,0,0-2764.865-2538.253Z" transform="translate(2780.805 2556.092)" fill="#8d6e63"/>
      <path id="Trazado_28244" data-name="Trazado 28244" d="M-2767.745-2535.881a10.27,10.27,0,0,1-5.98-2.081,12.664,12.664,0,0,1-5.242-10.642.72.72,0,0,1,.284-.549c2.889-2.045,6.964-1.765,10.379.72a12.66,12.66,0,0,1,5.242,10.642.718.718,0,0,1-.283.549A7.541,7.541,0,0,1-2767.745-2535.881Zm-10.066-12.26a11.253,11.253,0,0,0,4.7,8.995c2.941,2.14,6.394,2.475,8.9.892a11.252,11.252,0,0,0-4.7-8.994C-2771.856-2549.387-2775.309-2549.722-2777.811-2548.141Z" transform="translate(2778.984 2556.092)" fill="#8d6e63"/>
      <path id="Trazado_28245" data-name="Trazado 28245" d="M-2765.46-2504.975a.647.647,0,0,1-.586-.694l.014-41.815a.647.647,0,0,1,.586-.695.647.647,0,0,1,.585.695l-.014,41.815A.646.646,0,0,1-2765.46-2504.975Z" transform="translate(2780.804 2556.42)" fill="#8d6e63"/>
      <path id="Trazado_28246" data-name="Trazado 28246" d="M-2761.987-2550.078a.646.646,0,0,1-.585-.695v-3.933a.648.648,0,0,1,.585-.695.648.648,0,0,1,.587.695v3.933A.648.648,0,0,1-2761.987-2550.078Z" transform="translate(2781.293 2555.403)" fill="#8d6e63"/>
      <path id="Trazado_28247" data-name="Trazado 28247" d="M-2757.114-2551.327a.646.646,0,0,1-.585-.695v-1.788a.647.647,0,0,1,.586-.695.648.648,0,0,1,.587.695v1.788A.647.647,0,0,1-2757.114-2551.327Z" transform="translate(2781.979 2555.53)" fill="#8d6e63"/>
      <path id="Trazado_28248" data-name="Trazado 28248" d="M-2768.908-2550.082a.645.645,0,0,1-.585-.695v-3.932a.647.647,0,0,1,.586-.695.648.648,0,0,1,.585.695v3.933A.646.646,0,0,1-2768.908-2550.082Z" transform="translate(2780.319 2555.403)" fill="#8d6e63"/>
      <path id="Trazado_28249" data-name="Trazado 28249" d="M-2773.781-2551.332a.647.647,0,0,1-.585-.695v-1.788a.648.648,0,0,1,.586-.695.647.647,0,0,1,.587.695v1.788A.647.647,0,0,1-2773.781-2551.332Z" transform="translate(2779.633 2555.529)" fill="#8d6e63"/>
      <path id="Trazado_28250" data-name="Trazado 28250" d="M-2765.448-2549.707a.646.646,0,0,1-.585-.695v-2.962a.647.647,0,0,1,.586-.695.648.648,0,0,1,.585.695v2.963A.647.647,0,0,1-2765.448-2549.707Z" transform="translate(2780.806 2555.592)" fill="#8d6e63"/>
      <path id="Trazado_28251" data-name="Trazado 28251" d="M-2757.164-2510.13l-14.771-.006a.646.646,0,0,1-.585-.695.646.646,0,0,1,.585-.693l14.773,0a.646.646,0,0,1,.585.695A.648.648,0,0,1-2757.164-2510.13Z" transform="translate(2779.893 2561.578)" fill="#8d6e63"/>
    </g>
    <g id="Grupo_4552" data-name="Grupo 4552" transform="translate(732.917 9367.552)">
      <path id="Trazado_28252" data-name="Trazado 28252" d="M-2794.353-2535.88a7.545,7.545,0,0,1-4.4-1.363.72.72,0,0,1-.283-.549,12.665,12.665,0,0,1,5.25-10.64c3.416-2.481,7.49-2.761,10.38-.712a.724.724,0,0,1,.284.549,12.669,12.669,0,0,1-5.25,10.639A10.268,10.268,0,0,1-2794.353-2535.88Zm-3.527-2.374c2.5,1.583,5.955,1.25,8.9-.886a11.252,11.252,0,0,0,4.7-8.993c-2.5-1.584-5.954-1.25-8.9.886A11.255,11.255,0,0,0-2797.88-2538.253Z" transform="translate(2813.823 2556.092)" fill="#8d6e63"/>
      <path id="Trazado_28253" data-name="Trazado 28253" d="M-2800.76-2535.881a10.267,10.267,0,0,1-5.98-2.081,12.665,12.665,0,0,1-5.243-10.642.721.721,0,0,1,.285-.549c2.888-2.045,6.964-1.765,10.38.72a12.664,12.664,0,0,1,5.242,10.642.72.72,0,0,1-.284.549A7.534,7.534,0,0,1-2800.76-2535.881Zm-10.067-12.26a11.257,11.257,0,0,0,4.7,8.995c2.941,2.14,6.394,2.475,8.9.892a11.251,11.251,0,0,0-4.7-8.994C-2804.872-2549.387-2808.325-2549.722-2810.827-2548.141Z" transform="translate(2812.001 2556.092)" fill="#8d6e63"/>
      <path id="Trazado_28254" data-name="Trazado 28254" d="M-2798.477-2504.975a.646.646,0,0,1-.585-.694l.014-41.815a.646.646,0,0,1,.585-.695.648.648,0,0,1,.586.695l-.014,41.815A.646.646,0,0,1-2798.477-2504.975Z" transform="translate(2813.821 2556.42)" fill="#8d6e63"/>
      <path id="Trazado_28255" data-name="Trazado 28255" d="M-2795-2550.078a.648.648,0,0,1-.586-.695v-3.933a.648.648,0,0,1,.586-.695.648.648,0,0,1,.586.695v3.933A.648.648,0,0,1-2795-2550.078Z" transform="translate(2814.31 2555.403)" fill="#8d6e63"/>
      <path id="Trazado_28256" data-name="Trazado 28256" d="M-2790.13-2551.327a.645.645,0,0,1-.585-.695v-1.788a.647.647,0,0,1,.586-.695.647.647,0,0,1,.585.695v1.788A.647.647,0,0,1-2790.13-2551.327Z" transform="translate(2814.996 2555.53)" fill="#8d6e63"/>
      <path id="Trazado_28257" data-name="Trazado 28257" d="M-2801.924-2550.082a.647.647,0,0,1-.586-.695v-3.932a.648.648,0,0,1,.586-.695.648.648,0,0,1,.587.695v3.933A.647.647,0,0,1-2801.924-2550.082Z" transform="translate(2813.336 2555.403)" fill="#8d6e63"/>
      <path id="Trazado_28258" data-name="Trazado 28258" d="M-2806.8-2551.332a.647.647,0,0,1-.585-.695v-1.788a.647.647,0,0,1,.586-.695.645.645,0,0,1,.585.695v1.788A.647.647,0,0,1-2806.8-2551.332Z" transform="translate(2812.65 2555.529)" fill="#8d6e63"/>
      <path id="Trazado_28259" data-name="Trazado 28259" d="M-2798.464-2549.707a.646.646,0,0,1-.585-.695v-2.962a.648.648,0,0,1,.587-.695.648.648,0,0,1,.586.695v2.963A.647.647,0,0,1-2798.464-2549.707Z" transform="translate(2813.823 2555.592)" fill="#8d6e63"/>
      <path id="Trazado_28260" data-name="Trazado 28260" d="M-2790.179-2510.13l-14.771-.006a.647.647,0,0,1-.587-.695.647.647,0,0,1,.587-.693l14.771,0a.647.647,0,0,1,.586.695A.648.648,0,0,1-2790.179-2510.13Z" transform="translate(2812.91 2561.578)" fill="#8d6e63"/>
      <g id="Grupo_4551" data-name="Grupo 4551" transform="translate(15.158 26.004)">
        <line id="Línea_133" data-name="Línea 133" x2="37.017" y2="6.16" transform="translate(0.187 1.125)" fill="#8d6e63"/>
        <rect id="Rectángulo_2683" data-name="Rectángulo 2683" width="2.281" height="37.526" transform="translate(0 2.25) rotate(-80.551)" fill="#8d6e63"/>
      </g>
    </g>
  </g>
</svg>
