<svg xmlns="http://www.w3.org/2000/svg" width="100" height="99.951" viewBox="0 0 100 99.951">
  <g id="Grupo_4568" data-name="Grupo 4568" transform="translate(-911.914 -9341.339)">
    <ellipse id="Elipse_739" data-name="Elipse 739" cx="49.919" cy="49.944" rx="49.919" ry="49.944" transform="translate(911.914 9441.177) rotate(-89.935)" fill="#ffe082"/>
    <g id="Grupo_4553" data-name="Grupo 4553" transform="translate(959.535 9387.533)">
      <path id="Trazado_28262" data-name="Trazado 28262" d="M-2577.3-2524.644a5.11,5.11,0,0,1-2.984-.924.493.493,0,0,1-.193-.373,8.593,8.593,0,0,1,3.561-7.216c2.317-1.684,5.081-1.875,7.041-.484a.487.487,0,0,1,.193.372,8.592,8.592,0,0,1-3.56,7.217A6.964,6.964,0,0,1-2577.3-2524.644Zm-2.393-1.61a5.39,5.39,0,0,0,6.036-.6,7.639,7.639,0,0,0,3.192-6.1,5.389,5.389,0,0,0-6.035.6A7.636,7.636,0,0,0-2579.694-2526.254Z" transform="translate(2590.508 2538.355)" fill="#8d6e63"/>
      <path id="Trazado_28263" data-name="Trazado 28263" d="M-2581.647-2524.645a6.966,6.966,0,0,1-4.055-1.411,8.591,8.591,0,0,1-3.557-7.219.488.488,0,0,1,.194-.373c1.959-1.387,4.724-1.2,7.04.488a8.59,8.59,0,0,1,3.557,7.22.494.494,0,0,1-.193.372A5.122,5.122,0,0,1-2581.647-2524.645Zm-6.827-8.316a7.635,7.635,0,0,0,3.187,6.1,5.387,5.387,0,0,0,6.035.6,7.636,7.636,0,0,0-3.188-6.1A5.388,5.388,0,0,0-2588.475-2532.96Z" transform="translate(2589.271 2538.354)" fill="#8d6e63"/>
      <path id="Trazado_28264" data-name="Trazado 28264" d="M-2580.1-2503.679a.439.439,0,0,1-.4-.471l.009-28.365a.439.439,0,0,1,.4-.471.439.439,0,0,1,.4.471l-.009,28.365A.439.439,0,0,1-2580.1-2503.679Z" transform="translate(2590.507 2538.577)" fill="#8d6e63"/>
      <path id="Trazado_28265" data-name="Trazado 28265" d="M-2577.742-2534.276a.439.439,0,0,1-.4-.471v-2.667a.438.438,0,0,1,.4-.471.438.438,0,0,1,.4.471v2.667A.438.438,0,0,1-2577.742-2534.276Z" transform="translate(2590.838 2537.887)" fill="#8d6e63"/>
      <path id="Trazado_28266" data-name="Trazado 28266" d="M-2574.436-2535.122a.439.439,0,0,1-.4-.471v-1.213a.439.439,0,0,1,.4-.471.439.439,0,0,1,.4.471v1.213A.439.439,0,0,1-2574.436-2535.122Z" transform="translate(2591.304 2537.973)" fill="#8d6e63"/>
      <path id="Trazado_28267" data-name="Trazado 28267" d="M-2582.436-2534.276a.439.439,0,0,1-.4-.471v-2.668a.439.439,0,0,1,.4-.471.439.439,0,0,1,.4.471v2.668A.439.439,0,0,1-2582.436-2534.276Z" transform="translate(2590.177 2537.887)" fill="#8d6e63"/>
      <path id="Trazado_28268" data-name="Trazado 28268" d="M-2585.742-2535.126a.438.438,0,0,1-.4-.471v-1.212a.44.44,0,0,1,.4-.471.439.439,0,0,1,.4.472v1.213A.437.437,0,0,1-2585.742-2535.126Z" transform="translate(2589.712 2537.972)" fill="#8d6e63"/>
      <path id="Trazado_28269" data-name="Trazado 28269" d="M-2580.089-2534.023a.438.438,0,0,1-.4-.471v-2.01a.439.439,0,0,1,.4-.471.439.439,0,0,1,.4.471v2.01A.439.439,0,0,1-2580.089-2534.023Z" transform="translate(2590.508 2538.015)" fill="#8d6e63"/>
      <path id="Trazado_28270" data-name="Trazado 28270" d="M-2574.47-2507.177l-10.021,0a.439.439,0,0,1-.4-.471.439.439,0,0,1,.4-.471l10.019,0a.439.439,0,0,1,.4.471A.439.439,0,0,1-2574.47-2507.177Z" transform="translate(2589.888 2542.076)" fill="#8d6e63"/>
    </g>
    <g id="Grupo_4554" data-name="Grupo 4554" transform="translate(925.297 9387.533)">
      <path id="Trazado_28271" data-name="Trazado 28271" d="M-2607.316-2524.644a5.112,5.112,0,0,1-2.984-.924.492.492,0,0,1-.193-.373,8.594,8.594,0,0,1,3.561-7.216c2.317-1.684,5.081-1.875,7.041-.484a.488.488,0,0,1,.193.372,8.592,8.592,0,0,1-3.56,7.217A6.962,6.962,0,0,1-2607.316-2524.644Zm-2.392-1.61a5.388,5.388,0,0,0,6.034-.6,7.638,7.638,0,0,0,3.192-6.1,5.389,5.389,0,0,0-6.034.6A7.638,7.638,0,0,0-2609.708-2526.254Z" transform="translate(2620.521 2538.355)" fill="#8d6e63"/>
      <path id="Trazado_28272" data-name="Trazado 28272" d="M-2611.662-2524.645a6.968,6.968,0,0,1-4.056-1.411,8.587,8.587,0,0,1-3.555-7.219.485.485,0,0,1,.193-.373c1.96-1.387,4.724-1.2,7.041.488a8.592,8.592,0,0,1,3.556,7.22.492.492,0,0,1-.193.372A5.118,5.118,0,0,1-2611.662-2524.645Zm-6.828-8.316a7.634,7.634,0,0,0,3.187,6.1,5.387,5.387,0,0,0,6.035.6,7.636,7.636,0,0,0-3.189-6.1A5.387,5.387,0,0,0-2618.49-2532.96Z" transform="translate(2619.286 2538.354)" fill="#8d6e63"/>
      <path id="Trazado_28273" data-name="Trazado 28273" d="M-2610.113-2503.679a.439.439,0,0,1-.4-.471l.009-28.365a.439.439,0,0,1,.4-.471.439.439,0,0,1,.4.471l-.009,28.365A.439.439,0,0,1-2610.113-2503.679Z" transform="translate(2620.521 2538.577)" fill="#8d6e63"/>
      <path id="Trazado_28274" data-name="Trazado 28274" d="M-2607.756-2534.276a.439.439,0,0,1-.4-.471v-2.667a.438.438,0,0,1,.4-.471.438.438,0,0,1,.4.471v2.667A.438.438,0,0,1-2607.756-2534.276Z" transform="translate(2620.852 2537.887)" fill="#8d6e63"/>
      <path id="Trazado_28275" data-name="Trazado 28275" d="M-2604.451-2535.122a.439.439,0,0,1-.4-.471v-1.213a.439.439,0,0,1,.4-.471.439.439,0,0,1,.4.471v1.213A.439.439,0,0,1-2604.451-2535.122Z" transform="translate(2621.317 2537.973)" fill="#8d6e63"/>
      <path id="Trazado_28276" data-name="Trazado 28276" d="M-2612.451-2534.276a.438.438,0,0,1-.4-.471v-2.668a.439.439,0,0,1,.4-.471.439.439,0,0,1,.4.471v2.668A.439.439,0,0,1-2612.451-2534.276Z" transform="translate(2620.192 2537.887)" fill="#8d6e63"/>
      <path id="Trazado_28277" data-name="Trazado 28277" d="M-2615.756-2535.126a.438.438,0,0,1-.4-.471v-1.212a.439.439,0,0,1,.4-.471.438.438,0,0,1,.4.472v1.213A.437.437,0,0,1-2615.756-2535.126Z" transform="translate(2619.726 2537.972)" fill="#8d6e63"/>
      <path id="Trazado_28278" data-name="Trazado 28278" d="M-2610.1-2534.023a.439.439,0,0,1-.4-.471v-2.01a.439.439,0,0,1,.4-.471.438.438,0,0,1,.4.471v2.01A.439.439,0,0,1-2610.1-2534.023Z" transform="translate(2620.522 2538.015)" fill="#8d6e63"/>
      <path id="Trazado_28279" data-name="Trazado 28279" d="M-2604.485-2507.177l-10.019,0a.439.439,0,0,1-.4-.471.439.439,0,0,1,.4-.471l10.02,0a.439.439,0,0,1,.4.471A.439.439,0,0,1-2604.485-2507.177Z" transform="translate(2619.903 2542.076)" fill="#8d6e63"/>
    </g>
    <g id="Grupo_4555" data-name="Grupo 4555" transform="translate(970.948 9376.125)">
      <path id="Trazado_28280" data-name="Trazado 28280" d="M-2567.3-2534.644a5.108,5.108,0,0,1-2.984-.924.493.493,0,0,1-.193-.373,8.594,8.594,0,0,1,3.562-7.217c2.317-1.684,5.081-1.874,7.041-.483a.488.488,0,0,1,.193.372,8.591,8.591,0,0,1-3.562,7.218A6.956,6.956,0,0,1-2567.3-2534.644Zm-2.394-1.61a5.391,5.391,0,0,0,6.036-.6,7.635,7.635,0,0,0,3.191-6.1,5.39,5.39,0,0,0-6.035.6A7.637,7.637,0,0,0-2569.689-2536.253Z" transform="translate(2580.503 2548.354)" fill="#8d6e63"/>
      <path id="Trazado_28281" data-name="Trazado 28281" d="M-2571.643-2534.644a6.968,6.968,0,0,1-4.055-1.411,8.591,8.591,0,0,1-3.557-7.219.49.49,0,0,1,.193-.373c1.96-1.387,4.725-1.2,7.041.488a8.591,8.591,0,0,1,3.557,7.22.49.49,0,0,1-.193.372A5.122,5.122,0,0,1-2571.643-2534.644Zm-6.828-8.316a7.637,7.637,0,0,0,3.188,6.1,5.384,5.384,0,0,0,6.033.6,7.634,7.634,0,0,0-3.187-6.1A5.389,5.389,0,0,0-2578.471-2542.96Z" transform="translate(2579.267 2548.354)" fill="#8d6e63"/>
      <path id="Trazado_28282" data-name="Trazado 28282" d="M-2570.093-2513.679a.439.439,0,0,1-.4-.471l.009-28.365a.439.439,0,0,1,.4-.471.439.439,0,0,1,.4.471l-.009,28.365A.439.439,0,0,1-2570.093-2513.679Z" transform="translate(2580.502 2548.577)" fill="#8d6e63"/>
      <path id="Trazado_28283" data-name="Trazado 28283" d="M-2567.737-2544.276a.439.439,0,0,1-.4-.471v-2.667a.438.438,0,0,1,.4-.471.438.438,0,0,1,.4.471v2.667A.438.438,0,0,1-2567.737-2544.276Z" transform="translate(2580.833 2547.887)" fill="#8d6e63"/>
      <path id="Trazado_28284" data-name="Trazado 28284" d="M-2564.431-2545.122a.438.438,0,0,1-.4-.471v-1.213a.439.439,0,0,1,.4-.471.439.439,0,0,1,.4.471v1.213A.44.44,0,0,1-2564.431-2545.122Z" transform="translate(2581.299 2547.973)" fill="#8d6e63"/>
      <path id="Trazado_28285" data-name="Trazado 28285" d="M-2572.431-2544.277a.439.439,0,0,1-.4-.471v-2.668a.439.439,0,0,1,.4-.471.439.439,0,0,1,.4.471v2.668A.439.439,0,0,1-2572.431-2544.277Z" transform="translate(2580.173 2547.887)" fill="#8d6e63"/>
      <path id="Trazado_28286" data-name="Trazado 28286" d="M-2575.737-2545.126a.438.438,0,0,1-.4-.471v-1.213a.439.439,0,0,1,.4-.471.44.44,0,0,1,.4.472v1.212A.437.437,0,0,1-2575.737-2545.126Z" transform="translate(2579.708 2547.972)" fill="#8d6e63"/>
      <path id="Trazado_28287" data-name="Trazado 28287" d="M-2570.084-2544.023a.438.438,0,0,1-.4-.471v-2.01a.439.439,0,0,1,.4-.471.439.439,0,0,1,.4.471v2.01A.439.439,0,0,1-2570.084-2544.023Z" transform="translate(2580.503 2548.015)" fill="#8d6e63"/>
      <path id="Trazado_28288" data-name="Trazado 28288" d="M-2564.465-2517.177l-10.02,0a.439.439,0,0,1-.4-.471.439.439,0,0,1,.4-.471l10.019,0a.439.439,0,0,1,.4.471A.439.439,0,0,1-2564.465-2517.177Z" transform="translate(2579.884 2552.076)" fill="#8d6e63"/>
    </g>
    <g id="Grupo_4556" data-name="Grupo 4556" transform="translate(936.709 9376.125)">
      <path id="Trazado_28289" data-name="Trazado 28289" d="M-2597.311-2534.644a5.111,5.111,0,0,1-2.984-.924.493.493,0,0,1-.193-.373,8.593,8.593,0,0,1,3.562-7.217c2.317-1.684,5.081-1.874,7.04-.483a.487.487,0,0,1,.193.372,8.593,8.593,0,0,1-3.56,7.218A6.961,6.961,0,0,1-2597.311-2534.644Zm-2.392-1.61a5.389,5.389,0,0,0,6.035-.6,7.639,7.639,0,0,0,3.192-6.1,5.39,5.39,0,0,0-6.035.6A7.632,7.632,0,0,0-2599.7-2536.253Z" transform="translate(2610.518 2548.354)" fill="#8d6e63"/>
      <path id="Trazado_28290" data-name="Trazado 28290" d="M-2601.656-2534.644a6.969,6.969,0,0,1-4.057-1.411,8.591,8.591,0,0,1-3.557-7.219.491.491,0,0,1,.194-.373c1.96-1.387,4.724-1.2,7.041.488a8.591,8.591,0,0,1,3.556,7.22.494.494,0,0,1-.192.372A5.119,5.119,0,0,1-2601.656-2534.644Zm-6.829-8.316a7.636,7.636,0,0,0,3.188,6.1,5.386,5.386,0,0,0,6.034.6,7.636,7.636,0,0,0-3.188-6.1A5.388,5.388,0,0,0-2608.485-2542.96Z" transform="translate(2609.281 2548.354)" fill="#8d6e63"/>
      <path id="Trazado_28291" data-name="Trazado 28291" d="M-2600.108-2513.679a.439.439,0,0,1-.4-.471l.009-28.365a.439.439,0,0,1,.4-.471.439.439,0,0,1,.4.471l-.009,28.365A.439.439,0,0,1-2600.108-2513.679Z" transform="translate(2610.517 2548.577)" fill="#8d6e63"/>
      <path id="Trazado_28292" data-name="Trazado 28292" d="M-2597.752-2544.276a.439.439,0,0,1-.4-.471v-2.667a.438.438,0,0,1,.4-.471.438.438,0,0,1,.4.471v2.667A.439.439,0,0,1-2597.752-2544.276Z" transform="translate(2610.848 2547.887)" fill="#8d6e63"/>
      <path id="Trazado_28293" data-name="Trazado 28293" d="M-2594.446-2545.122a.439.439,0,0,1-.4-.471v-1.213a.439.439,0,0,1,.4-.471.439.439,0,0,1,.4.471v1.213A.439.439,0,0,1-2594.446-2545.122Z" transform="translate(2611.314 2547.973)" fill="#8d6e63"/>
      <path id="Trazado_28294" data-name="Trazado 28294" d="M-2602.446-2544.277a.438.438,0,0,1-.4-.471v-2.668a.439.439,0,0,1,.4-.471.439.439,0,0,1,.4.471v2.668A.439.439,0,0,1-2602.446-2544.277Z" transform="translate(2610.188 2547.887)" fill="#8d6e63"/>
      <path id="Trazado_28295" data-name="Trazado 28295" d="M-2605.751-2545.126a.438.438,0,0,1-.4-.471v-1.213a.439.439,0,0,1,.4-.471.44.44,0,0,1,.4.472v1.212A.437.437,0,0,1-2605.751-2545.126Z" transform="translate(2609.722 2547.972)" fill="#8d6e63"/>
      <path id="Trazado_28296" data-name="Trazado 28296" d="M-2600.1-2544.023a.438.438,0,0,1-.4-.471v-2.01a.439.439,0,0,1,.4-.471.439.439,0,0,1,.4.471v2.01A.44.44,0,0,1-2600.1-2544.023Z" transform="translate(2610.518 2548.015)" fill="#8d6e63"/>
      <path id="Trazado_28297" data-name="Trazado 28297" d="M-2594.48-2517.177l-10.019,0a.439.439,0,0,1-.4-.471.439.439,0,0,1,.4-.471l10.021,0a.439.439,0,0,1,.4.471A.439.439,0,0,1-2594.48-2517.177Z" transform="translate(2609.898 2552.076)" fill="#8d6e63"/>
    </g>
    <g id="Grupo_4557" data-name="Grupo 4557" transform="translate(977.796 9360.155)">
      <path id="Trazado_28298" data-name="Trazado 28298" d="M-2561.293-2548.644a5.109,5.109,0,0,1-2.984-.924.493.493,0,0,1-.193-.373,8.593,8.593,0,0,1,3.561-7.216c2.317-1.684,5.081-1.875,7.041-.484a.488.488,0,0,1,.193.372,8.594,8.594,0,0,1-3.561,7.217A6.958,6.958,0,0,1-2561.293-2548.644Zm-2.393-1.61a5.39,5.39,0,0,0,6.036-.6,7.634,7.634,0,0,0,3.19-6.1,5.389,5.389,0,0,0-6.034.6A7.637,7.637,0,0,0-2563.686-2550.254Z" transform="translate(2574.5 2562.355)" fill="#8d6e63"/>
      <path id="Trazado_28299" data-name="Trazado 28299" d="M-2565.639-2548.645a6.966,6.966,0,0,1-4.055-1.411,8.591,8.591,0,0,1-3.557-7.219.49.49,0,0,1,.193-.373c1.96-1.387,4.725-1.2,7.04.488a8.593,8.593,0,0,1,3.557,7.22.5.5,0,0,1-.193.372A5.123,5.123,0,0,1-2565.639-2548.645Zm-6.828-8.316a7.635,7.635,0,0,0,3.188,6.1,5.385,5.385,0,0,0,6.033.6,7.636,7.636,0,0,0-3.187-6.1A5.39,5.39,0,0,0-2572.468-2556.96Z" transform="translate(2573.263 2562.354)" fill="#8d6e63"/>
      <path id="Trazado_28300" data-name="Trazado 28300" d="M-2564.09-2527.679a.439.439,0,0,1-.4-.471l.009-28.364a.439.439,0,0,1,.4-.471.439.439,0,0,1,.4.471l-.009,28.364A.439.439,0,0,1-2564.09-2527.679Z" transform="translate(2574.499 2562.577)" fill="#8d6e63"/>
      <path id="Trazado_28301" data-name="Trazado 28301" d="M-2561.734-2558.276a.439.439,0,0,1-.4-.471v-2.667a.438.438,0,0,1,.4-.471.438.438,0,0,1,.4.471v2.667A.438.438,0,0,1-2561.734-2558.276Z" transform="translate(2574.83 2561.887)" fill="#8d6e63"/>
      <path id="Trazado_28302" data-name="Trazado 28302" d="M-2558.428-2559.122a.439.439,0,0,1-.4-.471v-1.213a.439.439,0,0,1,.4-.471.439.439,0,0,1,.4.471v1.213A.441.441,0,0,1-2558.428-2559.122Z" transform="translate(2575.296 2561.973)" fill="#8d6e63"/>
      <path id="Trazado_28303" data-name="Trazado 28303" d="M-2566.428-2558.276a.439.439,0,0,1-.4-.471v-2.668a.439.439,0,0,1,.4-.471.439.439,0,0,1,.4.471v2.668A.439.439,0,0,1-2566.428-2558.276Z" transform="translate(2574.169 2561.887)" fill="#8d6e63"/>
      <path id="Trazado_28304" data-name="Trazado 28304" d="M-2569.734-2559.126a.438.438,0,0,1-.4-.471v-1.212a.439.439,0,0,1,.4-.471.44.44,0,0,1,.4.472v1.213A.437.437,0,0,1-2569.734-2559.126Z" transform="translate(2573.704 2561.972)" fill="#8d6e63"/>
      <path id="Trazado_28305" data-name="Trazado 28305" d="M-2564.081-2558.023a.438.438,0,0,1-.4-.471v-2.01a.439.439,0,0,1,.4-.471.439.439,0,0,1,.4.471v2.01A.439.439,0,0,1-2564.081-2558.023Z" transform="translate(2574.5 2562.015)" fill="#8d6e63"/>
      <path id="Trazado_28306" data-name="Trazado 28306" d="M-2558.462-2531.177l-10.02,0a.439.439,0,0,1-.4-.471.439.439,0,0,1,.4-.471l10.019,0a.439.439,0,0,1,.4.471A.439.439,0,0,1-2558.462-2531.177Z" transform="translate(2573.88 2566.076)" fill="#8d6e63"/>
    </g>
    <g id="Grupo_4558" data-name="Grupo 4558" transform="translate(943.557 9360.155)">
      <path id="Trazado_28307" data-name="Trazado 28307" d="M-2591.308-2548.644a5.109,5.109,0,0,1-2.984-.924.493.493,0,0,1-.193-.373,8.593,8.593,0,0,1,3.562-7.216c2.317-1.684,5.081-1.875,7.041-.484a.488.488,0,0,1,.193.372,8.592,8.592,0,0,1-3.56,7.217A6.962,6.962,0,0,1-2591.308-2548.644Zm-2.392-1.61a5.388,5.388,0,0,0,6.034-.6,7.638,7.638,0,0,0,3.192-6.1,5.389,5.389,0,0,0-6.034.6A7.632,7.632,0,0,0-2593.7-2550.254Z" transform="translate(2604.515 2562.355)" fill="#8d6e63"/>
      <path id="Trazado_28308" data-name="Trazado 28308" d="M-2595.653-2548.645a6.968,6.968,0,0,1-4.056-1.411,8.592,8.592,0,0,1-3.557-7.219.49.49,0,0,1,.194-.373c1.96-1.387,4.724-1.2,7.041.488a8.592,8.592,0,0,1,3.556,7.22.491.491,0,0,1-.193.372A5.12,5.12,0,0,1-2595.653-2548.645Zm-6.829-8.316a7.635,7.635,0,0,0,3.188,6.1,5.386,5.386,0,0,0,6.034.6,7.635,7.635,0,0,0-3.188-6.1A5.388,5.388,0,0,0-2602.482-2556.96Z" transform="translate(2603.279 2562.354)" fill="#8d6e63"/>
      <path id="Trazado_28309" data-name="Trazado 28309" d="M-2594.1-2527.679a.439.439,0,0,1-.4-.471l.009-28.364a.439.439,0,0,1,.4-.471.439.439,0,0,1,.4.471l-.009,28.364A.439.439,0,0,1-2594.1-2527.679Z" transform="translate(2604.514 2562.577)" fill="#8d6e63"/>
      <path id="Trazado_28310" data-name="Trazado 28310" d="M-2591.749-2558.276a.439.439,0,0,1-.4-.471v-2.667a.438.438,0,0,1,.4-.471.439.439,0,0,1,.4.471v2.667A.438.438,0,0,1-2591.749-2558.276Z" transform="translate(2604.845 2561.887)" fill="#8d6e63"/>
      <path id="Trazado_28311" data-name="Trazado 28311" d="M-2588.443-2559.122a.439.439,0,0,1-.4-.471v-1.213a.439.439,0,0,1,.4-.471.439.439,0,0,1,.4.471v1.213A.439.439,0,0,1-2588.443-2559.122Z" transform="translate(2605.311 2561.973)" fill="#8d6e63"/>
      <path id="Trazado_28312" data-name="Trazado 28312" d="M-2596.443-2558.276a.439.439,0,0,1-.4-.471v-2.668a.439.439,0,0,1,.4-.471.439.439,0,0,1,.4.471v2.668A.439.439,0,0,1-2596.443-2558.276Z" transform="translate(2604.185 2561.887)" fill="#8d6e63"/>
      <path id="Trazado_28313" data-name="Trazado 28313" d="M-2599.748-2559.126a.438.438,0,0,1-.4-.471v-1.212a.439.439,0,0,1,.4-.471.439.439,0,0,1,.4.472v1.213A.437.437,0,0,1-2599.748-2559.126Z" transform="translate(2603.719 2561.972)" fill="#8d6e63"/>
      <path id="Trazado_28314" data-name="Trazado 28314" d="M-2594.1-2558.023a.439.439,0,0,1-.4-.471v-2.01a.439.439,0,0,1,.4-.471.439.439,0,0,1,.4.471v2.01A.44.44,0,0,1-2594.1-2558.023Z" transform="translate(2604.515 2562.015)" fill="#8d6e63"/>
      <path id="Trazado_28315" data-name="Trazado 28315" d="M-2588.477-2531.177l-10.019,0a.439.439,0,0,1-.4-.471.439.439,0,0,1,.4-.471l10.02,0a.439.439,0,0,1,.4.471A.439.439,0,0,1-2588.477-2531.177Z" transform="translate(2603.896 2566.076)" fill="#8d6e63"/>
    </g>
  </g>
</svg>
