<svg xmlns="http://www.w3.org/2000/svg" width="87.663" height="87.62" viewBox="0 0 87.663 87.62">
  <g id="Grupo_3649" data-name="Grupo 3649" transform="translate(0.049 -1.19)">
    <ellipse id="Elipse_707" data-name="Elipse 707" cx="43.76" cy="43.782" rx="43.76" ry="43.782" transform="translate(-0.049 88.711) rotate(-89.935)" fill="#ffe082"/>
    <g id="Grupo_3648" data-name="Grupo 3648">
      <path id="Trazado_16476" data-name="Trazado 16476" d="M32.305,78.894A93.861,93.861,0,0,0,44.688,48.435a1.682,1.682,0,0,1,3.292.692c-4.7,22.359-16.134,36.38-16.618,36.966a1.682,1.682,0,0,1-2.139.383l-.011-.006a1.681,1.681,0,0,1-.721-2.04" fill="#8d6e63"/>
      <path id="Trazado_16477" data-name="Trazado 16477" d="M43.577,49.537a18.343,18.343,0,0,1-6.785-12.654c-.93-8.647,3.406-18.39,12.888-28.956a1.683,1.683,0,0,1,2.5,0c.3.33,7.293,8.211,6.489,19.3-.577,7.963-5.008,15.42-13.168,22.166A1.682,1.682,0,0,1,43.577,49.537ZM50.848,11.7c-7.891,9.22-11.493,17.566-10.712,24.827a15.62,15.62,0,0,0,4.316,9.337c6.727-5.88,10.379-12.229,10.863-18.888A24.363,24.363,0,0,0,50.848,11.7Z" fill="#8d6e63"/>
    </g>
  </g>
</svg>
