<svg xmlns="http://www.w3.org/2000/svg" width="87.663" height="87.62" viewBox="0 0 87.663 87.62">
  <g id="Grupo_3651" data-name="Grupo 3651" transform="translate(0.049 -1.19)">
    <ellipse id="Elipse_708" data-name="Elipse 708" cx="43.76" cy="43.782" rx="43.76" ry="43.782" transform="translate(-0.049 88.711) rotate(-89.935)" fill="#ffe082"/>
    <path id="Trazado_16478" data-name="Trazado 16478" d="M78.054,67.349v-1.6q-2.064.361-4.57.656c-17.052,2.035-43.637,2.035-60.689,0q-2.433-.3-4.57-.656l.049,1.662c.344.722,4.029,1.488,9.779,2.122a259.752,259.752,0,0,0,50.173,0c5.749-.634,9.435-1.4,9.828-2.122Zm0-3.894V61.574q-2.064.36-4.57.656c-17.052,2.034-43.637,2.034-60.689,0q-2.433-.3-4.57-.656v1.881c1.621.284,3.587.569,5.847.831,16.217,1.947,41.967,1.947,58.134,0,2.261-.262,4.227-.547,5.848-.831Zm0-4.178V57.4q-2.064.36-4.57.656c-17.052,2.034-43.637,2.034-60.689,0q-2.433-.3-4.57-.656v1.881c1.621.284,3.587.569,5.847.853,16.217,1.925,41.967,1.925,58.134,0,2.261-.284,4.227-.569,5.848-.853Zm0-4.178V53.217q-2.064.362-4.57.657c-17.052,2.034-43.637,2.034-60.689,0q-2.433-.3-4.57-.657V55.1c1.621.284,3.587.569,5.847.853,16.217,1.925,41.967,1.925,58.134,0,2.261-.284,4.227-.569,5.848-.853Zm0-4.178v-1.86c-1.376.219-2.9.438-4.57.635-17.052,2.056-43.637,2.056-60.689,0-1.622-.2-3.145-.416-4.57-.635v1.86c1.621.284,3.587.568,5.847.853,16.217,1.925,41.967,1.925,58.134,0,2.261-.285,4.227-.569,5.848-.853Zm0-4.179V44.883c-1.376.219-2.9.438-4.57.634-17.052,2.057-43.637,2.057-60.689,0-1.622-.2-3.145-.415-4.57-.634v1.859c1.621.285,3.587.569,5.847.854,16.217,1.925,41.967,1.925,58.134,0,2.261-.285,4.227-.569,5.848-.854Zm0-4.178V40.705c-1.376.219-2.9.437-4.57.634C56.432,43.4,29.847,43.4,12.8,41.339c-1.622-.2-3.145-.415-4.57-.634v1.859c1.621.285,3.587.569,5.847.853,16.217,1.925,41.967,1.925,58.134,0,2.261-.284,4.227-.568,5.848-.853Zm0-4.178V36.527q-2.064.36-4.57.656c-17.052,2.034-43.637,2.034-60.689,0q-2.433-.3-4.57-.656v1.859c1.621.285,3.587.591,5.847.853,16.217,1.947,41.967,1.947,58.134,0,2.261-.262,4.227-.568,5.848-.853Zm0-4.178V32.349q-2.064.36-4.57.656c-17.052,2.034-43.637,2.034-60.689,0q-2.433-.3-4.57-.656v1.859c1.621.306,3.587.591,5.847.853,16.217,1.947,41.967,1.947,58.134,0,2.261-.262,4.227-.547,5.848-.853Zm0-4.178V28.17q-2.064.361-4.57.657c-17.052,2.034-43.637,2.034-60.689,0q-2.433-.3-4.57-.657v1.86c1.621.306,3.587.59,5.847.853,16.217,1.947,41.967,1.947,58.134,0,2.261-.263,4.227-.547,5.848-.853Zm0-4.178v-1.86q-2.064.361-4.57.657c-17.052,2.034-43.637,2.034-60.689,0q-2.433-.3-4.57-.657v1.86c1.621.306,3.587.59,5.847.853,16.217,1.947,41.967,1.947,58.134,0,2.261-.263,4.227-.547,5.848-.853Zm0-4.178v-1.2c-4.128.394-8.354.679-12.531.9-14.251.744-30.516.744-44.767,0-3.784-.2-7.372-.437-11.057-.765L8.225,20.47v1.2c1.621.306,3.587.59,5.847.853,16.217,1.947,41.967,1.947,58.134,0,2.261-.263,4.227-.547,5.848-.853Z" fill="#8d6e63"/>
  </g>
</svg>
