<svg xmlns="http://www.w3.org/2000/svg" width="87.663" height="87.62" viewBox="0 0 87.663 87.62">
  <g id="Grupo_4572" data-name="Grupo 4572" transform="translate(-129 -4173.922)">
    <g id="Grupo_3655" data-name="Grupo 3655" transform="translate(129.049 4172.732)">
      <ellipse id="Elipse_709" data-name="Elipse 709" cx="43.76" cy="43.782" rx="43.76" ry="43.782" transform="matrix(0.001, -1, 1, 0.001, -0.049, 88.711)" fill="#ffe082"/>
      <g id="Grupo_3654" data-name="Grupo 3654">
        <g id="Grupo_3653" data-name="Grupo 3653">
          <path id="Trazado_16479" data-name="Trazado 16479" d="M17.727,54.642a139.734,139.734,0,0,1-7.145-25.17,1.124,1.124,0,0,1,.825-1.3,1.139,1.139,0,0,1,1.354.725c.13.407,13.414,39.92,48.393,36.892a1.126,1.126,0,0,1,.864.3,1.091,1.091,0,0,1,.351.835l-.132,4.9a1.118,1.118,0,0,1-.378.807c-.453.4-11.256,9.8-23.695,5.747C29.867,75.673,23.03,67.718,17.727,54.642ZM15.241,39.714C20.71,60.4,28.79,72.959,38.868,76.255c10,3.27,19.209-3.444,21.131-4.977l.085-3.175C35.841,69.562,21.816,51.606,15.241,39.714Z" fill="#8d6e63"/>
          <path id="Trazado_16480" data-name="Trazado 16480" d="M13.587,42.147c-.044-.109-.074-.185-.09-.226a1.128,1.128,0,0,1,2.1-.831l.031.075c.576,1.421,11,26.33,32.08,28.012a1.1,1.1,0,0,1,1.021,1.2A1.134,1.134,0,0,1,47.505,71.4C25.356,69.631,14.736,44.979,13.587,42.147Z" fill="#8d6e63"/>
          <path id="Trazado_16481" data-name="Trazado 16481" d="M66.422,71.154a1.106,1.106,0,0,1-.08-.4L66.3,65.334A1.133,1.133,0,0,1,67.415,64.2a1.11,1.11,0,0,1,1.136,1.1l.044,5.417a1.131,1.131,0,0,1-1.117,1.133A1.115,1.115,0,0,1,66.422,71.154Z" fill="#8d6e63"/>
        </g>
        <path id="Trazado_16482" data-name="Trazado 16482" d="M66.784,40.577a1.137,1.137,0,0,0-.908.132c-14.313,8.945-28.73,6.92-39.882,2.373.626.992,1.364,2.075,2.223,3.215C39.12,50.078,52.543,51.166,66,43.24l1.4,2.843c-1,2.231-6.085,12.359-16.523,14.025a20.108,20.108,0,0,1-5.967.011,44.9,44.9,0,0,0,5.666,2.266c.22-.029.443-.046.662-.081,12.979-2.083,18.233-15.31,18.45-15.872a1.1,1.1,0,0,0-.038-.885l-2.166-4.392A1.1,1.1,0,0,0,66.784,40.577Z" fill="#8d6e63"/>
        <path id="Trazado_16483" data-name="Trazado 16483" d="M40.132,56.535l.305-2.21c7.75.978,17.221-3.66,17.316-3.707l1,1.989C58.339,52.812,48.573,57.6,40.132,56.535Z" fill="#8d6e63"/>
        <path id="Trazado_16484" data-name="Trazado 16484" d="M68.173,39.176l1.977-1.087,3.185,5.736-1.977,1.087Z" fill="#8d6e63"/>
        <path id="Trazado_16485" data-name="Trazado 16485" d="M54.56,14.346a1.142,1.142,0,0,0-.683.614C46.916,30.334,33.791,36.636,21.988,39.028c1.071.478,2.286.971,3.632,1.445C36.792,37.581,48.569,31.051,55.381,17l2.743,1.59c.4,2.411,1.78,13.66-5.987,20.829a20.107,20.107,0,0,1-4.962,3.315,44.785,44.785,0,0,0,5.972-1.253c.168-.145.344-.283.507-.433,9.652-8.924,6.7-22.847,6.568-23.435A1.1,1.1,0,0,0,59.7,16.9l-4.236-2.457A1.1,1.1,0,0,0,54.56,14.346Z" fill="#8d6e63"/>
        <path id="Trazado_16486" data-name="Trazado 16486" d="M41.211,42.4l-.97-2.009C47.235,36.909,52.551,27.8,52.6,27.709l1.931,1.1C54.307,29.211,48.829,38.608,41.211,42.4Z" fill="#8d6e63"/>
        <path id="Trazado_16487" data-name="Trazado 16487" d="M54.941,12.41l1.044-2,5.829,3.011-1.044,2Z" fill="#8d6e63"/>
      </g>
    </g>
    <path id="Trazado_16488" data-name="Trazado 16488" d="M55.985,10.41l2.393-4.553,6.991,3.6L61.35,14.31Z" transform="translate(129.049 4172.732)" fill="#8d6e63"/>
    <path id="Trazado_16489" data-name="Trazado 16489" d="M68.173,39.176l5.162-6.6,1.507,6.6,2.084,5.736H71.358Z" transform="translate(129.049 4172.732)" fill="#8d6e63"/>
    <path id="Trazado_16490" data-name="Trazado 16490" d="M66.3,65.334l3.466-2.949L73.335,64.2s-.37,4.753,0,5.321-5.857,2.324-5.857,2.324Z" transform="translate(129.049 4172.732)" fill="#8d6e63"/>
  </g>
</svg>
