<svg xmlns="http://www.w3.org/2000/svg" width="87.663" height="87.62" viewBox="0 0 87.663 87.62">
  <g id="Grupo_4574" data-name="Grupo 4574" transform="translate(-129 -4410.19)">
    <g id="Grupo_3661" data-name="Grupo 3661" transform="translate(129.049 4409)">
      <ellipse id="Elipse_711" data-name="Elipse 711" cx="43.76" cy="43.782" rx="43.76" ry="43.782" transform="translate(-0.049 88.711) rotate(-89.935)" fill="#ffe082"/>
      <g id="Grupo_3660" data-name="Grupo 3660">
        <path id="Trazado_16499" data-name="Trazado 16499" d="M38.842,67.316A132.253,132.253,0,0,1,14.12,65.94c-.551-.077-1.624-4.317-1.581-4.88a1.079,1.079,0,0,1,1.067-.987c.4.009,39.851.321,47.938-31.905a1.069,1.069,0,0,1,.531-.682,1.036,1.036,0,0,1,.855-.056l4.346,1.631a1.06,1.06,0,0,1,.6.587c.22.53,5.3,13.095-2.172,22.971C60.728,59.207,52.176,66.608,38.842,67.316Zm-14.8-6.124c6.013.445-4.91,5.372,11.954,3.851,11.4-1.028,23.772-8.092,28.026-13.709,6.012-7.936,2.848-18.247,2.07-20.44l-2.814-1.055C57.1,51.976,36.713,58.981,24.046,61.192Z" fill="#8d6e63"/>
        <path id="Trazado_16500" data-name="Trazado 16500" d="M25.712,63.423l-.231.011a1.061,1.061,0,0,1-1.093-1.026c-.021-.584-.6-.554-.021-.584.011,0,1.031-.524,1.1-.527,1.448-.077,26.948-1.713,34.959-20.053a1.042,1.042,0,0,1,1.389-.543,1.074,1.074,0,0,1,.536,1.408C53.93,61.377,28.6,63.269,25.712,63.423Z" fill="#8d6e63"/>
        <path id="Trazado_16501" data-name="Trazado 16501" d="M67.967,25.11a1.032,1.032,0,0,1-.386-.052l-4.859-1.633a1.072,1.072,0,0,1-.669-1.349,1.049,1.049,0,0,1,1.33-.678l4.86,1.633a1.07,1.07,0,0,1,.669,1.348A1.055,1.055,0,0,1,67.967,25.11Z" fill="#8d6e63"/>
      </g>
    </g>
  </g>
</svg>
